<?xml version="1.0" encoding="UTF-8"?>
<!DOCTYPE svg PUBLIC "-//W3C//DTD SVG 1.1//EN" "http://www.w3.org/Graphics/SVG/1.1/DTD/svg11.dtd">
<!-- Creator: CorelDRAW X8 -->
<svg xmlns="http://www.w3.org/2000/svg" xml:space="preserve" width="0.0424528in" height="0.0732835in" version="1.1" style="shape-rendering:geometricPrecision; text-rendering:geometricPrecision; image-rendering:optimizeQuality; fill-rule:evenodd; clip-rule:evenodd"
viewBox="0 0 11 19"
 xmlns:xlink="http://www.w3.org/1999/xlink">
 <defs>
  <style type="text/css">
   <![CDATA[
    .fil7 {fill:#BC860A;fill-rule:nonzero}
    .fil0 {fill:#C90B22;fill-rule:nonzero}
    .fil10 {fill:#CF743E;fill-rule:nonzero}
    .fil1 {fill:#E60C27;fill-rule:nonzero}
    .fil6 {fill:#EA8347;fill-rule:nonzero}
    .fil5 {fill:#FB8F4F;fill-rule:nonzero}
    .fil3 {fill:#FF0525;fill-rule:nonzero}
    .fil9 {fill:#FFF0B0;fill-rule:nonzero}
    .fil4 {fill:black;fill-rule:nonzero;fill-opacity:0.070588}
    .fil11 {fill:white;fill-rule:nonzero;fill-opacity:0.070588}
    .fil2 {fill:black;fill-rule:nonzero;fill-opacity:0.078431}
    .fil8 {fill:#FBEAE0;fill-rule:nonzero;fill-opacity:0.321569}
   ]]>
  </style>
 </defs>
 <g id="Layer_x0020_1">
  <metadata id="CorelCorpID_0Corel-Layer"/>
  <g id="_1446113808">
   <g>
    <g>
     <polygon class="fil0" points="9,1 9,3 2,3 2,1 2,1 3,0 8,0 9,1 "/>
     <g>
      <polygon class="fil1" points="10,3 8,8 7,10 7,11 7,11 6,11 6,11 4,11 4,11 5,8 6,7 6,7 6,6 6,6 6,6 7,2 8,0 9,1 9,1 "/>
     </g>
     <g>
      <polygon class="fil2" points="7,10 7,11 7,11 6,7 6,7 7,10 7,10 7,10 "/>
     </g>
     <g>
      <polygon class="fil2" points="4,3 4,3 3,0 3,0 3,0 4,3 4,3 "/>
     </g>
     <g>
      <polygon class="fil3" points="7,11 7,11 6,11 6,11 4,11 4,11 3,8 1,3 2,1 2,1 3,0 3,0 4,2 4,3 5,6 5,6 6,7 6,8 7,11 "/>
     </g>
    </g>
    <path class="fil4" d="M7 11l0 0 0 0 0 0 -1 0 0 0 -2 0 0 0 0 0 -1 -3c0,0 0,0 0,0 1,0 2,0 2,0 0,0 0,0 0,0 0,0 0,0 0,0 0,0 0,0 1,0 0,0 0,0 0,0 0,0 0,0 0,0 0,0 1,0 2,0 0,0 0,0 0,0l-1 2 0 1z"/>
   </g>
   <g>
    <g>
     <g>
      <g>
       <g>
        <path class="fil5" d="M2 17c0,1 1,1 2,1 0,1 1,1 2,1 0,0 1,0 2,-1 0,0 1,0 1,-1 1,0 1,-1 1,-1 0,-1 1,-2 1,-2 0,-1 -1,-2 -1,-2 0,-1 0,-2 -1,-2 0,0 -1,-1 -1,-1 -1,0 -2,-1 -2,-1 -1,0 -2,1 -2,1 -1,0 -2,1 -2,1 -1,0 -1,1 -1,2 0,0 -1,1 -1,2 0,0 1,1 1,2 0,0 0,1 1,1z"/>
        <path class="fil6" d="M0 15c0,1 1,2 2,2 0,1 0,1 1,1 0,0 0,0 0,1 1,0 2,0 3,0 0,0 1,0 2,0 0,-1 0,-1 0,-1 2,0 2,-2 3,-3 0,0 0,-1 0,-1 0,-2 -1,-3 -2,-4 -1,-1 -2,-2 -3,-2 -4,0 -6,3 -6,6 0,0 0,1 0,1zm1 -3l0 0c0,-1 1,-1 1,-2 1,0 1,-1 2,-1 0,0 1,0 2,0 0,0 1,0 1,0 1,0 1,1 2,1 0,0 0,0 0,0 0,1 1,1 1,2 0,0 0,1 0,2 0,0 0,1 0,1 0,1 -1,2 -1,2 0,0 -1,1 -2,1 0,0 -1,0 -1,0 -1,0 -2,0 -2,0 -1,0 -1,-1 -2,-1 0,0 0,0 0,0 0,0 -1,-1 -1,-2 0,0 0,-1 0,-1 0,-1 0,-2 0,-2z"/>
        <path class="fil7" d="M8 10c0,0 0,0 0,0 0,0 0,0 0,0 0,0 0,0 0,0z"/>
        <path class="fil7" d="M8 9c0,0 0,0 0,0 0,0 0,0 0,0l0 1c0,0 0,0 0,0 0,0 0,0 0,0 0,-1 0,-1 0,-1 0,0 0,0 0,0z"/>
        <path class="fil8" d="M3 18c0,0 0,0 0,0 0,0 0,0 0,0 1,0 2,0 2,0 1,0 2,0 2,0 0,0 0,0 0,0 1,0 1,-1 2,-1 0,-1 1,-1 1,-2 0,0 0,-1 0,-1 0,0 0,0 0,-1 0,0 0,-1 0,-1 0,-1 -1,-2 -1,-2 0,0 -1,0 -1,0 0,0 0,0 0,0 1,0 1,0 1,0 0,1 1,1 1,2 0,0 0,1 0,2 0,0 0,1 0,1 0,1 -1,2 -1,2 0,0 -1,1 -2,1 0,0 -1,0 -1,0 -1,0 -2,0 -2,0 -1,0 -1,0 -1,0 0,0 0,0 0,0 0,0 0,0 0,0l0 0c0,0 0,0 0,0z"/>
       </g>
      </g>
     </g>
    </g>
   </g>
   <path class="fil9" d="M3 18c0,0 0,0 0,0 0,0 0,0 0,0 0,0 0,0 0,0z"/>
   <path class="fil9" d="M3 18c0,0 0,0 0,0 0,0 0,0 0,0 0,0 0,0 0,0z"/>
   <path class="fil10" d="M1 14c0,-1 0,-2 0,-2 0,-1 1,-1 1,-2 1,0 1,-1 2,-1 0,0 1,0 2,0 0,0 1,0 1,0 1,0 1,0 1,0 0,0 0,0 0,0 0,0 0,0 0,0l0 1c0,0 0,0 0,0 0,0 0,0 0,0 0,-1 0,-1 0,-1 -1,0 -2,0 -2,0 -1,0 -2,0 -2,0 0,0 0,0 0,0 -1,1 -1,1 -2,1 0,1 -1,1 -1,2 0,0 0,1 0,2 0,0 0,0 0,0 0,0 0,1 0,2 0,0 1,1 1,1 0,0 1,0 1,1 0,0 0,0 0,0 0,-1 -1,-1 -1,-1 0,0 -1,-1 -1,-2 0,0 0,-1 0,-1z"/>
   <g>
    <g>
     <path class="fil10" d="M7 14l0 0 1 2c0,0 -1,1 -1,0l-1 0 -2 0c0,1 -1,0 -1,0l1 -2 0 0 -2 -1c0,0 0,-1 0,-1l2 0 1 -2c0,0 1,0 1,0l1 2 2 0c0,0 0,1 0,1l-2 1z"/>
    </g>
    <g>
     <path class="fil6" d="M7 14l0 0 1 2c0,0 -1,0 -1,0l-1 -1 -2 1c0,0 -1,0 -1,0l1 -2 0 0 -2 -1c0,0 0,-1 0,-1l2 0 1 -2c0,0 1,0 1,0l1 2 2 0c0,0 0,1 0,1l-2 1z"/>
    </g>
   </g>
   <path class="fil11" d="M9 10l0 0 -7 8c-1,-1 -2,-3 -2,-4 0,-1 0,-2 0,-2 1,-1 1,-2 3,-3 0,0 0,0 0,0 1,-1 2,-1 3,-1 0,0 1,0 2,1 0,0 0,0 0,0 1,0 1,0 1,1z"/>
  </g>
 </g>
</svg>
