<?xml version="1.0" encoding="UTF-8"?>
<!DOCTYPE svg PUBLIC "-//W3C//DTD SVG 1.1//EN" "http://www.w3.org/Graphics/SVG/1.1/DTD/svg11.dtd">
<!-- Creator: CorelDRAW X8 -->
<svg xmlns="http://www.w3.org/2000/svg" xml:space="preserve" width="0.0709843in" height="0.127709in" version="1.1" style="shape-rendering:geometricPrecision; text-rendering:geometricPrecision; image-rendering:optimizeQuality; fill-rule:evenodd; clip-rule:evenodd"
viewBox="0 0 92 165"
 xmlns:xlink="http://www.w3.org/1999/xlink">
 <defs>
  <style type="text/css">
   <![CDATA[
    .fil7 {fill:#BC860A;fill-rule:nonzero}
    .fil0 {fill:#C90B22;fill-rule:nonzero}
    .fil1 {fill:#E60C27;fill-rule:nonzero}
    .fil6 {fill:#ECA702;fill-rule:nonzero}
    .fil3 {fill:#FF0525;fill-rule:nonzero}
    .fil10 {fill:#FFBB08;fill-rule:nonzero}
    .fil5 {fill:#FFD208;fill-rule:nonzero}
    .fil9 {fill:#FFF0B0;fill-rule:nonzero}
    .fil4 {fill:black;fill-rule:nonzero;fill-opacity:0.070588}
    .fil2 {fill:black;fill-rule:nonzero;fill-opacity:0.078431}
    .fil11 {fill:white;fill-rule:nonzero;fill-opacity:0.188235}
    .fil8 {fill:#FFF0B0;fill-rule:nonzero;fill-opacity:0.560784}
   ]]>
  </style>
 </defs>
 <g id="Layer_x0020_1">
  <metadata id="CorelCorpID_0Corel-Layer"/>
  <g id="_2561307088">
   <g>
    <g>
     <polygon class="fil0" points="80,13 80,27 12,27 12,13 16,7 22,0 70,0 75,6 "/>
     <g>
      <polygon class="fil1" points="92,24 69,77 61,96 60,99 59,99 46,99 46,99 32,99 32,99 43,71 46,64 46,64 47,60 50,53 50,53 62,22 70,0 75,5 80,11 "/>
     </g>
     <g>
      <polygon class="fil2" points="61,96 59,99 59,99 46,64 47,60 58,89 59,92 59,92 "/>
     </g>
     <g>
      <polygon class="fil2" points="34,27 31,27 21,0 22,0 24,0 33,24 34,26 "/>
     </g>
     <g>
      <polygon class="fil3" points="60,99 59,99 46,99 46,99 32,99 32,99 23,77 0,24 12,11 16,6 21,0 22,0 30,22 32,27 42,53 44,58 46,64 49,71 59,99 "/>
     </g>
    </g>
    <path class="fil4" d="M60 99l-1 0 1 0 -1 0 -13 0 0 0 -14 0 0 0 0 0 -9 -22c1,-1 3,-2 4,-2 5,-3 11,-4 16,-4 1,0 1,0 1,0 1,0 1,0 1,0 0,0 1,0 1,0 0,0 1,0 2,0 0,0 0,0 1,0 5,0 11,1 16,4 1,0 3,1 4,2l-8 19 -1 3z"/>
   </g>
   <g>
    <g>
     <g>
      <g>
       <g>
        <g>
         <g>
          <path class="fil5" d="M16 149c4,4 9,7 14,9 5,3 10,4 16,4 6,0 11,-1 16,-4 5,-2 10,-5 14,-9 4,-4 7,-8 9,-13 2,-5 3,-11 3,-16 0,-6 -1,-12 -3,-17 -2,-5 -5,-9 -9,-13 -4,-4 -9,-7 -14,-9 -5,-3 -10,-4 -16,-4 -6,0 -11,1 -16,4 -5,2 -10,5 -14,9 -4,4 -7,8 -9,13 -2,5 -3,11 -3,17 0,5 1,11 3,16 2,5 5,9 9,13z"/>
          <path class="fil6" d="M2 133c2,7 6,13 11,19 3,2 5,4 9,6 1,1 3,2 4,3 6,3 13,4 20,4 7,0 14,-1 20,-4 1,-1 3,-2 4,-3 10,-5 17,-15 20,-25 1,-5 2,-9 2,-13 0,-13 -5,-25 -14,-33 -8,-8 -20,-13 -32,-13 -25,0 -46,20 -46,46 0,4 1,8 2,13zm7 -29l0 0c2,-5 5,-9 8,-13 4,-4 8,-7 13,-9 5,-2 11,-3 16,-3 5,0 11,1 16,3 4,2 9,5 12,8 0,1 1,1 1,1 3,4 6,8 8,13 2,5 4,10 4,16 0,5 -2,10 -4,15 -2,5 -5,9 -8,13 -4,4 -8,7 -13,9 -5,2 -11,3 -16,3 -5,0 -11,-1 -16,-3 -5,-2 -9,-5 -13,-9 0,0 0,0 0,0 -4,-4 -6,-8 -8,-13 -3,-5 -4,-10 -4,-15 0,-6 1,-11 4,-16z"/>
          <path class="fil7" d="M69 86c0,0 0,0 0,0 0,0 0,0 0,0 0,0 0,0 0,0z"/>
          <path class="fil7" d="M68 85c0,0 0,0 0,0 0,0 0,1 0,1l1 0c0,0 0,0 0,0 0,0 0,0 -1,0 0,0 0,-1 0,-1 0,0 0,0 0,0z"/>
          <path class="fil8" d="M23 153c0,0 0,0 1,0 1,1 3,2 5,3 5,2 10,3 15,3 6,0 11,-1 16,-3 1,0 1,-1 1,-1 5,-2 9,-4 13,-8 3,-4 6,-8 8,-12 2,-5 3,-10 3,-15 0,0 0,-1 0,-2 0,-5 -1,-10 -3,-15 -2,-5 -5,-10 -9,-13 -1,-2 -3,-3 -5,-4 1,0 1,0 1,0 2,2 4,3 6,5 3,4 6,8 8,13 2,5 4,10 4,16 0,5 -2,10 -4,15 -2,5 -5,9 -8,13 -4,4 -8,7 -13,9 -5,2 -11,3 -16,3 -5,0 -11,-1 -16,-3 -2,-1 -4,-2 -6,-3 0,0 0,0 0,0 0,0 0,-1 0,-1l-1 0c0,0 0,0 0,0z"/>
         </g>
        </g>
       </g>
      </g>
     </g>
    </g>
   </g>
   <path class="fil9" d="M24 154c0,0 0,0 0,0 0,0 0,0 0,0 0,0 0,0 0,0z"/>
   <path class="fil9" d="M23 153c0,0 0,0 0,0 0,0 0,0 0,0 0,0 0,0 0,0z"/>
   <path class="fil7" d="M5 120c0,-6 2,-11 4,-16 2,-5 5,-9 8,-13 4,-4 8,-7 13,-9 5,-2 11,-3 16,-3 5,0 11,1 16,3 2,1 4,2 6,3 0,0 0,0 0,0 0,0 0,1 0,1l1 0c0,0 0,0 0,0 0,0 0,0 -1,0 -1,-1 -3,-2 -5,-3 -5,-2 -10,-3 -15,-3 -6,0 -11,1 -16,3 -1,0 -1,1 -1,1 -5,2 -9,5 -13,8 -3,4 -6,8 -8,12 -2,5 -3,10 -3,15 0,1 0,1 0,2 0,5 1,10 3,15 2,5 5,10 9,13 1,2 3,3 5,4 -1,0 -1,0 -1,0 -2,-2 -4,-3 -6,-5 -3,-4 -6,-8 -8,-13 -2,-5 -4,-10 -4,-15z"/>
   <g>
    <g>
     <path class="fil6" d="M61 124l0 1 2 17c1,1 -1,2 -2,2l-15 -8 -15 8c-1,0 -3,-1 -2,-2l2 -17 0 0 -12 -12c-1,-1 0,-3 2,-3l16 -3 7 -15c1,-1 3,-1 4,0l7 15 16 3c2,0 3,2 1,3l-11 11z"/>
    </g>
    <g>
     <path class="fil10" d="M61 123l0 1 2 16c1,2 -1,3 -2,2l-15 -7 -15 7c-1,1 -3,0 -2,-2l2 -16 0 0 -11 -12c-2,-1 -1,-3 1,-3l16 -2 7 -15c1,-1 3,-1 4,0l7 15 16 2c2,0 2,2 1,3l-11 11z"/>
    </g>
   </g>
   <path class="fil11" d="M79 87l-4 4 -61 61c-9,-8 -14,-20 -14,-32 0,-5 1,-9 2,-14 3,-10 10,-20 20,-25 1,-1 3,-2 4,-3 6,-3 13,-4 20,-4 7,0 14,1 20,4 1,1 3,2 4,3 3,2 6,4 9,6z"/>
  </g>
 </g>
</svg>
