<?xml version="1.0" encoding="UTF-8"?>
<!DOCTYPE svg PUBLIC "-//W3C//DTD SVG 1.1//EN" "http://www.w3.org/Graphics/SVG/1.1/DTD/svg11.dtd">
<!-- Creator: CorelDRAW X8 -->
<svg xmlns="http://www.w3.org/2000/svg" xml:space="preserve" width="0.0586417in" height="0.101228in" version="1.1" style="shape-rendering:geometricPrecision; text-rendering:geometricPrecision; image-rendering:optimizeQuality; fill-rule:evenodd; clip-rule:evenodd"
viewBox="0 0 14 24"
 xmlns:xlink="http://www.w3.org/1999/xlink">
 <defs>
  <style type="text/css">
   <![CDATA[
    .fil10 {fill:#94A5A6;fill-rule:nonzero}
    .fil7 {fill:#BC860A;fill-rule:nonzero}
    .fil6 {fill:#C2CBD1;fill-rule:nonzero}
    .fil0 {fill:#C90B22;fill-rule:nonzero}
    .fil5 {fill:#DFE8EF;fill-rule:nonzero}
    .fil1 {fill:#E60C27;fill-rule:nonzero}
    .fil3 {fill:#FF0525;fill-rule:nonzero}
    .fil9 {fill:#FFF0B0;fill-rule:nonzero}
    .fil4 {fill:black;fill-rule:nonzero;fill-opacity:0.070588}
    .fil2 {fill:black;fill-rule:nonzero;fill-opacity:0.078431}
    .fil11 {fill:white;fill-rule:nonzero;fill-opacity:0.188235}
    .fil8 {fill:white;fill-rule:nonzero;fill-opacity:0.450980}
   ]]>
  </style>
 </defs>
 <g id="Layer_x0020_1">
  <metadata id="CorelCorpID_0Corel-Layer"/>
  <g id="_2561250192">
   <g>
    <g>
     <polygon class="fil0" points="12,2 12,4 2,4 2,2 3,1 4,0 10,0 11,1 "/>
     <g>
      <polygon class="fil1" points="13,3 10,10 9,13 9,13 9,13 7,13 7,13 5,13 5,13 7,10 7,9 7,9 7,8 7,7 7,7 9,3 10,0 11,1 12,1 "/>
     </g>
     <g>
      <polygon class="fil2" points="9,13 9,13 9,13 7,9 7,8 9,12 9,12 9,13 "/>
     </g>
     <g>
      <polygon class="fil2" points="5,4 5,4 4,0 4,0 4,0 5,3 5,4 "/>
     </g>
     <g>
      <polygon class="fil3" points="9,13 9,13 7,13 7,13 5,13 5,13 4,10 1,3 2,1 3,1 4,0 4,0 5,3 5,4 6,7 7,8 7,9 7,10 9,13 "/>
     </g>
    </g>
    <path class="fil4" d="M9 13l0 0 0 0 0 0 -2 0 0 0 -2 0 0 0 0 0 -1 -3c0,0 0,0 0,0 1,0 2,0 3,0 0,0 0,0 0,0 0,0 0,0 0,0 0,0 0,0 0,0 0,0 0,0 0,0 0,0 0,0 0,0 1,0 2,0 2,0 1,0 1,0 1,0l-1 3 0 0z"/>
   </g>
   <g>
    <g>
     <g>
      <g>
       <g>
        <g>
         <g>
          <path class="fil5" d="M2 22c1,0 2,1 2,1 1,0 2,0 3,0 1,0 2,0 2,0 1,0 2,-1 2,-1 1,-1 1,-2 2,-3 0,0 0,-1 0,-2 0,-1 0,-2 0,-2 -1,-1 -1,-2 -2,-2 0,-1 -1,-2 -2,-2 0,0 -1,0 -2,0 -1,0 -2,0 -3,0 0,0 -1,1 -2,2 0,0 -1,1 -1,2 0,0 0,1 0,2 0,1 0,2 0,2 0,1 1,2 1,3z"/>
          <path class="fil6" d="M0 19c1,1 1,2 2,3 0,0 1,1 1,1 0,0 1,0 1,0 1,1 2,1 3,1 1,0 2,0 3,-1 0,0 0,0 1,0 1,-1 2,-2 3,-4 0,-1 0,-1 0,-2 0,-2 -1,-4 -2,-5 -1,-1 -3,-2 -5,-2 -4,0 -7,3 -7,7 0,1 0,1 0,2zm1 -4l0 0c1,-1 1,-2 2,-2 0,-1 1,-1 2,-2 0,0 1,0 2,0 1,0 2,0 2,0 1,1 2,1 2,2 0,0 0,0 0,0 1,0 1,1 2,2 0,0 0,1 0,2 0,1 0,2 0,2 -1,1 -1,2 -2,2 0,1 -1,1 -2,2 0,0 -1,0 -2,0 -1,0 -2,0 -2,0 -1,-1 -2,-1 -2,-2 0,0 0,0 0,0 -1,0 -1,-1 -2,-2 0,0 0,-1 0,-2 0,-1 0,-2 0,-2z"/>
          <path class="fil7" d="M10 12c0,0 0,0 0,0 0,0 0,0 0,0 0,0 0,0 0,0z"/>
          <path class="fil7" d="M10 12c0,0 0,0 0,0 0,0 0,0 0,0l0 0c0,0 0,0 0,0 0,0 0,0 0,0 0,0 0,0 0,0 0,0 0,0 0,0z"/>
          <path class="fil8" d="M3 22c0,0 1,0 1,0 0,0 0,0 0,1 1,0 2,0 3,0 1,0 1,0 2,0 0,-1 0,-1 0,-1 1,0 2,0 2,-1 1,0 1,-1 1,-2 1,0 1,-1 1,-2 0,0 0,0 0,0 0,-1 0,-2 -1,-3 0,0 0,-1 -1,-1 0,-1 0,-1 -1,-1 0,0 0,0 0,0 1,0 1,0 1,1 1,0 1,1 2,2 0,0 0,1 0,2 0,1 0,2 0,2 -1,1 -1,2 -2,2 0,1 -1,1 -2,2 0,0 -1,0 -2,0 -1,0 -2,0 -2,0 -1,0 -1,-1 -1,-1 0,0 0,0 0,0 0,0 0,0 0,0l-1 0c0,0 0,0 0,0z"/>
         </g>
        </g>
       </g>
      </g>
     </g>
    </g>
   </g>
   <path class="fil9" d="M4 22c0,0 0,0 0,0 0,0 0,0 0,0 0,0 0,0 0,0z"/>
   <path class="fil9" d="M3 22c0,0 0,0 0,0 0,0 0,0 0,0 0,0 0,0 0,0z"/>
   <path class="fil10" d="M1 17c0,-1 0,-2 0,-2 1,-1 1,-2 2,-2 0,-1 1,-1 2,-2 0,0 1,0 2,0 1,0 2,0 2,0 1,1 1,1 1,1 0,0 0,0 0,0 0,0 0,0 0,0l0 0c0,0 0,0 0,0 0,0 0,0 0,0 0,0 0,0 0,0 -1,-1 -2,-1 -3,-1 -1,0 -1,0 -2,1 0,0 0,0 0,0 -1,0 -2,0 -2,1 -1,0 -1,1 -1,2 -1,0 -1,1 -1,2 0,0 0,0 0,0 0,1 0,2 1,3 0,0 0,1 1,2 0,0 0,0 1,0 0,0 -1,0 -1,0 0,0 0,0 0,-1 -1,0 -1,-1 -2,-2 0,0 0,-1 0,-2z"/>
   <g>
    <g>
     <path class="fil10" d="M9 18l0 0 1 2c0,1 -1,1 -1,1l-2 -2 -2 2c0,0 -1,0 -1,-1l1 -2 0 0 -2 -2c0,0 0,0 0,0l3 -1 1 -2c0,0 0,0 0,0l1 2 3 1c0,0 0,0 0,0l-2 2z"/>
    </g>
    <g>
     <path class="fil6" d="M9 18l0 0 1 2c0,0 -1,1 -1,0l-2 -1 -2 1c0,1 -1,0 -1,0l1 -2 0 0 -2 -2c0,0 0,-1 0,-1l3 0 1 -2c0,0 0,0 0,0l1 2 3 0c0,0 0,1 0,1l-2 2z"/>
    </g>
   </g>
   <path class="fil11" d="M12 12l-1 1 -9 9c-1,-1 -2,-3 -2,-5 0,-1 0,-1 0,-2 1,-2 2,-3 3,-4 0,0 1,0 1,0 1,-1 2,-1 3,-1 1,0 2,0 3,1 0,0 0,0 1,0 0,0 1,1 1,1z"/>
  </g>
 </g>
</svg>
