<?xml version="1.0" encoding="UTF-8"?>
<!DOCTYPE svg PUBLIC "-//W3C//DTD SVG 1.1//EN" "http://www.w3.org/Graphics/SVG/1.1/DTD/svg11.dtd">
<!-- Creator: CorelDRAW X8 -->
<svg xmlns="http://www.w3.org/2000/svg" xml:space="preserve" width="0.4in" height="0.4in" version="1.1" style="shape-rendering:geometricPrecision; text-rendering:geometricPrecision; image-rendering:optimizeQuality; fill-rule:evenodd; clip-rule:evenodd"
viewBox="0 0 400 400"
 xmlns:xlink="http://www.w3.org/1999/xlink">
 <defs>
  <style type="text/css">
   <![CDATA[
    .fil7 {fill:none}
    .fil0 {fill:white}
    .fil5 {fill:#FBB33D;fill-rule:nonzero}
    .fil3 {fill:#EE3E58;fill-rule:nonzero}
    .fil1 {fill:#363435;fill-rule:nonzero}
    .fil6 {fill:#25A857;fill-rule:nonzero}
    .fil4 {fill:#2985C6;fill-rule:nonzero}
    .fil2 {fill:#FAFAFA;fill-rule:nonzero}
   ]]>
  </style>
   <clipPath id="id0">
    <path d="M0 0l400 0 0 400 -400 0 0 -400z"/>
   </clipPath>
 </defs>
 <g id="Layer_x0020_1">
  <metadata id="CorelCorpID_0Corel-Layer"/>
  <polygon class="fil0" points="0,0 400,0 400,400 0,400 "/>
  <g style="clip-path:url(#id0)">
   <g id="_929381600">
    <path id="1" class="fil1" d="M299 -5c-4,0 -7,1 -10,1 -3,1 -6,2 -9,3 -11,4 -21,10 -33,14 -13,4 -34,5 -52,3 -25,-1 -46,-6 -70,-10 -12,-3 -25,-5 -37,-6 -2,0 -4,0 -6,-1l217 -4z"/>
    <g>
     <path class="fil2" d="M365 260c0,0 11,-24 14,-65 2,-37 8,-51 25,-68l0 2c-5,9 -16,30 -18,61 -3,55 -21,70 -21,70z"/>
     <path class="fil2" d="M-3 328c36,5 73,20 106,43 16,12 35,24 55,35l203 0c22,-21 36,-52 43,-90l0 -126c-2,9 -3,19 -3,30 5,101 -38,162 -115,178 -88,19 -158,-26 -210,-63 -28,-20 -53,-36 -79,-45l0 38z"/>
     <path class="fil2" d="M404 175c-4,12 -6,25 -7,40 -6,84 -23,148 -119,171 -96,24 -156,-30 -207,-68 -26,-19 -50,-35 -74,-45l0 -39c21,10 43,24 65,41 52,38 112,92 208,68 96,-23 109,-75 123,-159 2,-14 6,-27 11,-39l0 30z"/>
     <path class="fil2" d="M-3 347c39,8 88,25 124,59l-32 0c-18,-14 -48,-35 -92,-50l0 -9z"/>
     <path class="fil2" d="M-3 362c25,8 54,22 86,44l-30 0c-16,-8 -35,-17 -56,-25l0 -19z"/>
     <path class="fil2" d="M404 110c-8,6 -30,26 -39,83 -13,75 -86,101 -86,101 0,0 58,19 86,-49 18,-45 0,-81 39,-133l0 -2z"/>
     <path class="fil2" d="M295 311c0,0 41,-7 66,-46 0,0 -14,61 -82,65l16 -19z"/>
     <path class="fil2" d="M114 298c0,0 -52,-43 -100,-68 0,0 51,17 75,35 25,18 25,33 25,33z"/>
    </g>
    <g>
     <path class="fil3" d="M400 0l0 132c-3,-1 -5,-4 -7,-7 -3,-4 -5,-7 -7,-11 -8,-16 -12,-33 -20,-48 -9,-17 -24,-31 -41,-39 -23,-11 -49,-12 -74,-16 -12,-2 -24,-4 -36,-9 -2,0 -4,-1 -6,-2l191 0z"/>
     <path class="fil4" d="M400 0l0 156c-4,-4 -7,-9 -8,-14 -4,-9 -5,-19 -6,-28 0,-3 0,-6 0,-8 -1,-24 -5,-48 -15,-70 -7,-14 -16,-25 -27,-36l56 0z"/>
    </g>
    <g>
     <path class="fil5" d="M190 0l-190 0 0 89c4,-7 8,-14 13,-21 0,-1 1,-1 1,-2 5,-6 10,-11 15,-16 18,-14 41,-18 64,-20 22,-2 45,-1 67,-8 11,-3 22,-9 29,-20 0,0 1,-1 1,-2z"/>
     <path class="fil6" d="M0 89l0 -89 43 0c-3,2 -5,5 -7,7 -9,8 -18,18 -21,29 -4,10 -3,21 -2,32 1,14 3,29 -3,42 -2,4 -6,10 -10,15l0 -36z"/>
    </g>
   </g>
  </g>
  <polygon class="fil7" points="0,0 400,0 400,400 0,400 "/>
 </g>
</svg>
