<svg id="Layer_1" data-name="Layer 1" xmlns="http://www.w3.org/2000/svg" width="65" height="65" viewBox="0 0 65 65">
  <title>logo</title>
  <path d="M63.85,32.115A31.22128,31.22128,0,0,1,53.343,55.542q-.69824.61274-1.425,1.197a32.66553,32.66553,0,0,1-3.88553,2.6125,31.39123,31.39123,0,0,1-30.096.532L7.914,64.1585a.95521.95521,0,0,1-1.32051-.988L7.88553,52.445l.095-.798a32.51184,32.51184,0,0,1-2.451-3.534v-.00951a31.23982,31.23982,0,0,1-3.58146-8.892V39.202c-.11405-.513-.21854-1.01651-.304-1.539a27.46125,27.46125,0,0,1-.38-2.964c-.057-.63648-.095-1.28253-.10449-1.938C1.15,32.552,1.15,32.3335,1.15,32.115a31.67975,31.67975,0,0,1,1.6055-9.956,31.37063,31.37063,0,0,1,51.585-12.54,30.713,30.713,0,0,1,3.496,4.0375,29.0931,29.0931,0,0,1,2.36549,3.762V17.428a30.97124,30.97124,0,0,1,3.12554,9.006c.08547.46549.16148.94049.228,1.41549A30.157,30.157,0,0,1,63.85,32.115Z"/>
  <path d="M59.37871,32.16987a26.76835,26.76835,0,0,1-9.00844,20.08575q-.59865.52535-1.22176,1.02629a28.00661,28.00661,0,0,1-3.33135,2.23989,26.91405,26.91405,0,0,1-25.80355.45612l-8.593,3.66528a.819.819,0,0,1-1.13218-.84712l1.10777-9.19576.08143-.68421a27.87484,27.87484,0,0,1-2.10144-3.02994V45.878A26.78424,26.78424,0,0,1,6.3055,38.25426v-.00815c-.09779-.43982-.18737-.87153-.26065-1.3195A23.54459,23.54459,0,0,1,5.719,34.38536c-.04887-.54571-.08143-1.09961-.08958-1.66162-.00815-.17917-.00815-.36649-.00815-.55386a27.16143,27.16143,0,0,1,1.37652-8.536A26.8964,26.8964,0,0,1,51.22549,12.88237,26.33253,26.33253,0,0,1,54.22287,16.344,24.9437,24.9437,0,0,1,56.251,19.56949v.00815a26.554,26.554,0,0,1,2.67976,7.7215c.07328.3991.13845.80635.19547,1.21361A25.85584,25.85584,0,0,1,59.37871,32.16987Z" style="fill: #fff"/>
  <g id="layer1">
    <path id="path3" d="M25.6458,39.13091a.21894.21894,0,0,0-.05433-.15205.18492.18492,0,0,0-.14458-.06049.18142.18142,0,0,0-.14318.06288.22011.22011,0,0,0-.05238.15032.22271.22271,0,0,0,.053.15108.18031.18031,0,0,0,.14328.06482.18459.18459,0,0,0,.14577-.06342.22615.22615,0,0,0,.05238-.15313m.17532.36633H25.6367v-.07857a.31766.31766,0,0,1-.47433-.0197.39564.39564,0,0,1-.09545-.26547.40663.40663,0,0,1,.09069-.26763.32025.32025,0,0,1,.47909-.01872v-.08041h.18441v.73049Z"/>
    <rect id="rect5" x="26.96046" y="38.48548" width="0.18441" height="1.01176"/>
    <rect id="rect7" x="28.02719" y="39.02063" width="0.60268" height="0.18451"/>
    <path id="path9" d="M29.99508,39.13091a.21894.21894,0,0,0-.05433-.15205.18476.18476,0,0,0-.14458-.06049.18142.18142,0,0,0-.14318.06288.22.22,0,0,0-.05227.15032.22262.22262,0,0,0,.05292.15108.1804.1804,0,0,0,.14318.06482.18467.18467,0,0,0,.14588-.06342.2267.2267,0,0,0,.05238-.15313m.17532.36633H29.986v-.07857a.31766.31766,0,0,1-.47433-.0197.39608.39608,0,0,1-.09534-.26547.40607.40607,0,0,1,.09069-.26763.32025.32025,0,0,1,.47909-.01872v-.08041h.18441v.73049Z"/>
    <polygon id="polygon11" points="32.013 38.767 31.699 39.117 32.051 39.497 31.825 39.497 31.514 39.161 31.514 39.497 31.33 39.497 31.33 38.485 31.514 38.485 31.514 39.068 31.784 38.767 32.013 38.767"/>
    <path id="path13" d="M33.74525,39.49723h-.18084v-.31979a1.268,1.268,0,0,0-.004-.12683.16023.16023,0,0,0-.0487-.112.11672.11672,0,0,0-.07207-.022q-.117,0-.15021.13755a.82848.82848,0,0,0-.008.15021v.293h-.18268V38.48558h.18268v.35615a.331.331,0,0,1,.21752-.09318.23075.23075,0,0,1,.18333.07586.27826.27826,0,0,1,.063.19058v.48223Z"/>
    <path id="path15" d="M35.46488,39.13155a.21871.21871,0,0,0-.05292-.15032.18.18,0,0,0-.14318-.063.187.187,0,0,0-.14523.06147.21853.21853,0,0,0-.053.15108.22568.22568,0,0,0,.05238.153.18435.18435,0,0,0,.14588.06364.18016.18016,0,0,0,.14318-.06493.22271.22271,0,0,0,.05292-.151m.18441.00184a.39553.39553,0,0,1-.09556.26547.3195.3195,0,0,1-.476.01991v.07846H34.8951V38.48558h.18268v.36157a.31545.31545,0,0,1,.23-.09859.31012.31012,0,0,1,.25064.11731.40555.40555,0,0,1,.09091.26752"/>
    <path id="path17" d="M37.31827,39.13091a.21944.21944,0,0,0-.05433-.15205.18492.18492,0,0,0-.14458-.06049.18126.18126,0,0,0-.14318.06288.22057.22057,0,0,0-.05227.15032.22316.22316,0,0,0,.05292.15108.1804.1804,0,0,0,.14318.06482.185.185,0,0,0,.146-.06342.22716.22716,0,0,0,.05227-.15313m.17532.36633h-.18441v-.07857a.31766.31766,0,0,1-.47433-.0197.39608.39608,0,0,1-.09534-.26547.40607.40607,0,0,1,.09069-.26763.32025.32025,0,0,1,.47909-.01872v-.08041h.18441v.73049Z"/>
    <path id="path19" d="M39.00175,38.76674l-.05649.15854a.12668.12668,0,0,0-.05325-.016.08366.08366,0,0,0-.07132.05216.4386.4386,0,0,0-.02955.2053l.00076.0355v.295h-.18268v-.73049h.15887v.09318a.16832.16832,0,0,1,.15974-.11147.17633.17633,0,0,1,.07392.01829"/>
    <rect id="rect21" x="47.49936" y="28.49454" width="1.8799" height="8.38364"/>
    <rect id="rect23" x="54.10299" y="26.74136" width="1.8799" height="10.13671"/>
    <path id="path25" d="M52.65229,36.03319V26.71214H50.7896v9.32106A2.34947,2.34947,0,0,1,46.649,37.465H44.5168a4.20814,4.20814,0,0,0,8.13127-1.43176h.00422Z"/>
    <path id="path27" d="M46.42158,36.89788l-.00877-1.82623h-1.041a5.40283,5.40283,0,0,1-.29079-.49922,10.298,10.298,0,0,1-.556-2.03747l.00087-.00011a4.02321,4.02321,0,0,0-4.11271-3.36815,4.20918,4.20918,0,0,0-4.171,4.76291h1.88726a2.35037,2.35037,0,0,1,4.53607-1.22733,8.86655,8.86655,0,0,0,.51632,1.87016,5.355,5.355,0,0,0,.29079.49922H20.28487V29.7802H18.40507v5.29145H15.98493v-8.3106H14.105V36.89788h4.7773v-.00141a1.4694,1.4694,0,0,0,1.20147-.79586l.2935.79726h26.0443Z"/>
    <path id="path29" d="M20.34135,38.817a.97339.97339,0,1,1-.97334-.97323.9733.9733,0,0,1,.97334.97323"/>
    <path id="path31" d="M41.23316,27.77195a.97339.97339,0,1,1-.97334-.97334.97337.97337,0,0,1,.97334.97334"/>
    <path id="path33" d="M10.934,29.77554v6.25787a2.35082,2.35082,0,0,1-2.84815,2.209v1.88142a4.25916,4.25916,0,0,0,.5.02944,4.2076,4.2076,0,0,0,4.20654-4.11986h.00433V29.77555H10.934Z"/>
    <path id="path35" d="M49.37709,27.9504a.48526.48526,0,0,0-.476-.45539v-.00043h-.911v-.00043l-.00866.00043a.32071.32071,0,0,1,0-.64142l.00866.00043v-.00043h1.38718V26.6879H47.98148a.486.486,0,1,0,0,.97193h.90267v.00043l.00866-.00043a.32081.32081,0,0,1,.31925.29057H47.50012v.16525h1.87871V27.9504h-.00174Z"/>
    <path id="path37" d="M29.63276,27.08723A1.95611,1.95611,0,1,0,28.57533,29.299a2.88483,2.88483,0,0,1-2.19039,2.22946,3.45491,3.45491,0,0,0,3.35257-2.963,3.5365,3.5365,0,0,0-.10476-1.4783" style="fill: #d2232a"/>
    <path id="path39" d="M33.43293,27.08723A1.95611,1.95611,0,1,0,32.3755,29.299a2.88514,2.88514,0,0,1-2.19039,2.22946,3.45473,3.45473,0,0,0,3.35257-2.963,3.533,3.533,0,0,0-.10476-1.4783" style="fill: #d2232a"/>
  </g>
</svg>
