<svg id="Layer_1" data-name="Layer 1" xmlns="http://www.w3.org/2000/svg" xmlns:xlink="http://www.w3.org/1999/xlink" width="65" height="65" viewBox="0 0 65 65">
  <defs>
    <linearGradient id="linear-gradient" x1="32.5" y1="63.5" x2="32.5" y2="1.5" gradientUnits="userSpaceOnUse">
      <stop offset="0" stop-color="#0799ff"/>
      <stop offset="1" stop-color="#21d4fd"/>
    </linearGradient>
    <clipPath id="clip-path">
      <path d="M9.03938,28.3034a2.35807,2.35807,0,0,0-.8118.7462,2.7969,2.7969,0,0,0-.41.9184,5.33,5.33,0,0,0-.123,1.2628v4.9528h1.8368V30.9848c0-.4592.1394-.6888.4264-.6888s.4264.164.4264.5002a.48926.48926,0,0,1-.5576.5494v2.091l.2788.0082a1.8794,1.8794,0,0,0,1.5826-.6724,2.97133,2.97133,0,0,0,.574-1.9024,3.19825,3.19825,0,0,0-.6396-2.0254,1.94875,1.94875,0,0,0-1.5826-.82,1.98783,1.98783,0,0,0-1.0004.2788" style="fill: #fff"/>
    </clipPath>
    <clipPath id="clip-path-2">
      <path d="M7.70278,36.1836h1.8368v-.8938s-1.3366.697-1.8368-1.6646Z" style="fill: #fff"/>
    </clipPath>
    <clipPath id="clip-path-3">
      <path d="M9.03938,28.3034c-.0738.041-.1476.0902-.2214.1394,0,0,2.9848.0492,2.6404,4.5674a1.575,1.575,0,0,0,.2296-.2378,2.97133,2.97133,0,0,0,.574-1.9024,3.19825,3.19825,0,0,0-.6396-2.0254,1.94875,1.94875,0,0,0-1.5826-.82,1.98783,1.98783,0,0,0-1.0004.2788" style="fill: #fff"/>
    </clipPath>
    <clipPath id="clip-path-4">
      <path d="M30.06419,28.5576a1.74827,1.74827,0,0,0-.4346-.3526,1.16657,1.16657,0,0,0-.4674-.0984,1.11963,1.11963,0,0,0-.861.4428,2.47026,2.47026,0,0,0-.5166,1.2136c-.0164.1066-.0328.2706-.0574.492a4.39158,4.39158,0,0,0-.0246.451,4.00386,4.00386,0,0,0,.287,1.5416,3.18149,3.18149,0,0,0,.3116.5658,4.26372,4.26372,0,0,0,.4264.5248,9.48473,9.48473,0,0,0,.9676.8446,1.22439,1.22439,0,0,1,.3936.8774.79251.79251,0,0,1-.1804.533.58985.58985,0,0,1-.4592.2214,1.06133,1.06133,0,0,1-.82-.533,5.22505,5.22505,0,0,1-.7544-1.8696h-.1804v2.6978h.1804l.5904-.5412a1.31373,1.31373,0,0,0,.4756.4592,1.11717,1.11717,0,0,0,.5822.1476,1.405,1.405,0,0,0,.9594-.4182,2.08153,2.08153,0,0,0,.5822-1.1234,5.60447,5.60447,0,0,0,.1066-1.0742,3.68377,3.68377,0,0,0-.3608-1.6236,3.42527,3.42527,0,0,0-.3444-.5576,3.91386,3.91386,0,0,0-.4674-.5166c-.123-.1148-.2624-.2296-.41-.369-.1476-.1312-.2952-.2624-.4428-.3854a1.20186,1.20186,0,0,1-.4838-.9266.887.887,0,0,1,.164-.5248.51015.51015,0,0,1,.4018-.2132.96672.96672,0,0,1,.7298.492,2.95746,2.95746,0,0,1,.3854.7052,6.36223,6.36223,0,0,1,.3034.984h.1886V28Z" style="fill: #fff"/>
    </clipPath>
    <clipPath id="clip-path-5">
      <path d="M34.5414,30.1812c-.2378.0164-.533.0246-.8938.0246h-.41v.2706h.3608v3.8622a2.01833,2.01833,0,0,1-.1066.7298c-.0738.1968-.1558.2952-.2378.2952-.0738,0-.1312-.082-.1804-.246a2.50874,2.50874,0,0,1-.0738-.6888V30.1074q-.369,0-1.0086.0492c-.4264.0328-.7298.0492-.9184.0492v.2706h.3608v3.7638a2.64566,2.64566,0,0,0,.3526,1.4678.88826.88826,0,0,0,.7462.492.876.876,0,0,0,.6478-.3034,2.04955,2.04955,0,0,0,.4674-.8938v1.1726c.082,0,.4428-.0492,1.0742-.1476a4.972,4.972,0,0,1,.7954-.0492V35.585h-.41V30.1074q-.2952.0492-.5658.0738" style="fill: #fff"/>
    </clipPath>
    <clipPath id="clip-path-6">
      <path d="M36.9686,30.132a1.18016,1.18016,0,0,0-.3034.1148,2.11777,2.11777,0,0,0-.3034.1804,1.80271,1.80271,0,0,0-.2624.246,2.69161,2.69161,0,0,0-.2214.3116,4.303,4.303,0,0,0-.5658,2.1074l-.0082.0902a3.71043,3.71043,0,0,0,.615,2.173,1.6054,1.6054,0,0,0,1.3284.82,1.247,1.247,0,0,0,.943-.451,3.21412,3.21412,0,0,0,.6888-1.435l-.1968-.1886a3.38619,3.38619,0,0,1-.451,1.0824c-.205.3116-.41.4756-.615.4756s-.369-.1804-.492-.533a3.44071,3.44071,0,0,1-.1558-.7708,9.91739,9.91739,0,0,1-.0492-1.0496l.0082-.2132a10.166,10.166,0,0,1,.1476-1.9434c.0984-.4674.2542-.697.4756-.697a.55232.55232,0,0,1,.246.0656,1.67673,1.67673,0,0,1,.2624.2378,1.36349,1.36349,0,0,0-.492.6888,2.1658,2.1658,0,0,0-.123.7052,1.2512,1.2512,0,0,0,.0082.1476c.0082.082.0082.1312.0082.1312a1.7005,1.7005,0,0,0,.2378.7298.50057.50057,0,0,0,.41.2624.66255.66255,0,0,0,.5412-.3608,1.68009,1.68009,0,0,0,.2296-.9348,3.23186,3.23186,0,0,0-.0328-.451,2.20891,2.20891,0,0,0-.1066-.451,1.52285,1.52285,0,0,0-1.5006-1.1316Z" style="fill: #fff"/>
    </clipPath>
    <clipPath id="clip-path-7">
      <path d="M39.855,28.0902a7.378,7.378,0,0,1-.9594.1148v.369h.287V35.8228h-.287v.369h1.9352v-.369h-.287v-1.886l.0984-.0902.6068,1.9762h-.2378v.369H42.848v-.369h-.0984l-1.1234-3.6572c.041-.0574.205-.3198.4756-.7954a.6891.6891,0,0,1,.4756-.3034h.0738v-.246H41.003v.246a.47055.47055,0,0,1,.3936.1722.54741.54741,0,0,1,.1066.3526.979.979,0,0,1-.123.4756l-.8528,1.435V28.0246a4.275,4.275,0,0,0-.6724.0656" style="fill: #fff"/>
    </clipPath>
    <clipPath id="clip-path-8">
      <path d="M43.9714,28.164c-.2542.0246-.5494.0328-.8774.0328h-.1312v.369h.3362v7.2488h-.3362v.369h2.0254v-.369h-.2296V32.6822a2.72,2.72,0,0,1,.123-.82c.082-.2624.164-.3854.246-.3854.0492,0,.0984.0738.1394.2296a3.85224,3.85224,0,0,1,.0492.7052v3.4112h-.1886v.369H47.112v-.369h-.3362V32.4116a2.59952,2.59952,0,0,0-.3034-1.3202.8742.8742,0,0,0-.7134-.5248.77473.77473,0,0,0-.5494.287,2.35208,2.35208,0,0,0-.451.8528V28.0246a3.94125,3.94125,0,0,1-.7872.1394" style="fill: #fff"/>
    </clipPath>
    <clipPath id="clip-path-9">
      <path d="M48.77661,35.6506a1.78193,1.78193,0,0,1-.0984-.656l.0082-.1394V31.3128a1.71361,1.71361,0,0,1,.0984-.6642c.0574-.1394.1312-.2132.2214-.2132.082,0,.1558.0738.2214.2132a1.29743,1.29743,0,0,1,.0984.5658v3.772a1.69517,1.69517,0,0,1-.0984.656q-.0984.246-.2214.246c-.0902.0082-.1722-.0738-.2296-.2378m.0574-5.5432a1.60956,1.60956,0,0,0-1.4186.984,4.2911,4.2911,0,0,0-.4838,2.0992,4.01536,4.01536,0,0,0,.492,2.0664,1.66887,1.66887,0,0,0,1.4924.9266h.0738a1.59667,1.59667,0,0,0,1.4186-.9758,4.3413,4.3413,0,0,0,.4756-2.0828,4.05742,4.05742,0,0,0-.492-2.0828,1.6711,1.6711,0,0,0-1.4924-.9348Z" style="fill: #fff"/>
    </clipPath>
    <clipPath id="clip-path-10">
      <path d="M52.73721,31.3128a1.7136,1.7136,0,0,1,.0984-.6642c.0574-.1394.1312-.2132.2214-.2132.082,0,.1558.0738.2214.2132a1.29743,1.29743,0,0,1,.0984.5658v1.968h-.6396V31.3128Zm-1.1726-.2214a4.2911,4.2911,0,0,0-.4838,2.0992,4.01536,4.01536,0,0,0,.492,2.0664,1.66887,1.66887,0,0,0,1.4924.9266h.0738a1.27782,1.27782,0,0,0,.8364-.287,3.35288,3.35288,0,0,0,.8118-1.3038l-.1968-.0984a2.77764,2.77764,0,0,1-.5494.861.87038.87038,0,0,1-.5986.328c-.2132,0-.3854-.1394-.5084-.4264a3.64556,3.64556,0,0,1-.205-1.394l.0082-.3116h2.2304c.0082-.1722.0164-.2706.0164-.2952V33.084a4.09824,4.09824,0,0,0-.4838-2.05,1.67563,1.67563,0,0,0-1.5088-.9184,1.58842,1.58842,0,0,0-1.4268.9758" style="fill: #fff"/>
    </clipPath>
    <clipPath id="clip-path-11">
      <path d="M58.551,28.0656l-2.009,2.0746-.8692-.8528a.15853.15853,0,0,0-.2296,0l-.4182.41a.15854.15854,0,0,0,0,.2296l1.3858,1.3776a.1836.1836,0,0,0,.1394.0492.15725.15725,0,0,0,.1394-.0492l2.5666-2.5338a.15847.15847,0,0,0,0-.2296l-.4674-.4674a.1619.1619,0,0,0-.1148-.0492.17252.17252,0,0,0-.123.041" style="fill: #fff"/>
    </clipPath>
  </defs>
  <title>logo</title>
  <path d="M32.5,63.5h-.00006A30.99994,30.99994,0,0,1,1.5,32.50006V32.5a31,31,0,0,1,31-31h28a3,3,0,0,1,3,3v28A31,31,0,0,1,32.5,63.5Z" style="fill: url(#linear-gradient)"/>
  <path d="M57.77,5.425A1.807,1.807,0,0,1,59.575,7.23V32.5A27.075,27.075,0,1,1,32.5,5.425H57.77m0-.9025H32.5A27.9775,27.9775,0,0,0,4.5225,32.5v.00006A27.97745,27.97745,0,0,0,32.49994,60.4775H32.5A27.9775,27.9775,0,0,0,60.4775,32.5V7.23A2.7075,2.7075,0,0,0,57.77,4.5225Z" style="fill: #fff"/>
  <g>
    <path d="M14.03318,28.0246v2.4928a.95162.95162,0,0,1,.7052-.41.93921.93921,0,0,1,.8446.6232,3.84209,3.84209,0,0,1,.3116,1.681v3.772h-1.3858V33.0348a1.7726,1.7726,0,0,0-.0492-.5166.1882.1882,0,0,0-.1968-.1312c-.1558,0-.2296.1886-.2296.5576v3.239h-1.3858v-8.159Z" style="fill: #fff"/>
    <path d="M16.28,30.1074h1.3858v3.362c0,.3362.0902.5084.2624.5084s.2624-.1722.2624-.5084v-3.362h1.3858v3.321a3.75218,3.75218,0,0,1-.4756,1.9598,1.37547,1.37547,0,0,1-1.1726.7954,1.441,1.441,0,0,1-1.271-.9266,4.46927,4.46927,0,0,1-.3772-2.009V30.1074Z" style="fill: #fff"/>
    <path d="M23.25,36.1836h-1.3858v-3.362c0-.3444-.0902-.5166-.2624-.5166s-.2624.1722-.2624.5166v3.362h-1.3858v-3.321a3.712,3.712,0,0,1,.4756-1.9598,1.37547,1.37547,0,0,1,1.1726-.7954,1.4323,1.4323,0,0,1,1.271.9266,4.50789,4.50789,0,0,1,.3772,2.0172v3.1324Z" style="fill: #fff"/>
    <path d="M23.62719,30.1074H25.013v3.362c0,.3362.0902.5084.2624.5084s.2624-.1722.2624-.5084v-3.362h1.3858v3.321a3.75218,3.75218,0,0,1-.4756,1.9598,1.37547,1.37547,0,0,1-1.1726.7954,1.441,1.441,0,0,1-1.271-.9266,4.46926,4.46926,0,0,1-.3772-2.009V30.1074Z" style="fill: #fff"/>
    <g>
      <path id="SVGID" d="M9.03938,28.3034a2.35807,2.35807,0,0,0-.8118.7462,2.7969,2.7969,0,0,0-.41.9184,5.33,5.33,0,0,0-.123,1.2628v4.9528h1.8368V30.9848c0-.4592.1394-.6888.4264-.6888s.4264.164.4264.5002a.48926.48926,0,0,1-.5576.5494v2.091l.2788.0082a1.8794,1.8794,0,0,0,1.5826-.6724,2.97133,2.97133,0,0,0,.574-1.9024,3.19825,3.19825,0,0,0-.6396-2.0254,1.94875,1.94875,0,0,0-1.5826-.82,1.98783,1.98783,0,0,0-1.0004.2788" style="fill: #fff"/>
      <g>
        <path id="SVGID-2" data-name="SVGID" d="M9.03938,28.3034a2.35807,2.35807,0,0,0-.8118.7462,2.7969,2.7969,0,0,0-.41.9184,5.33,5.33,0,0,0-.123,1.2628v4.9528h1.8368V30.9848c0-.4592.1394-.6888.4264-.6888s.4264.164.4264.5002a.48926.48926,0,0,1-.5576.5494v2.091l.2788.0082a1.8794,1.8794,0,0,0,1.5826-.6724,2.97133,2.97133,0,0,0,.574-1.9024,3.19825,3.19825,0,0,0-.6396-2.0254,1.94875,1.94875,0,0,0-1.5826-.82,1.98783,1.98783,0,0,0-1.0004.2788" style="fill: #fff"/>
        <g>
          <path d="M9.03938,28.3034a2.35807,2.35807,0,0,0-.8118.7462,2.7969,2.7969,0,0,0-.41.9184,5.33,5.33,0,0,0-.123,1.2628v4.9528h1.8368V30.9848c0-.4592.1394-.6888.4264-.6888s.4264.164.4264.5002a.48926.48926,0,0,1-.5576.5494v2.091l.2788.0082a1.8794,1.8794,0,0,0,1.5826-.6724,2.97133,2.97133,0,0,0,.574-1.9024,3.19825,3.19825,0,0,0-.6396-2.0254,1.94875,1.94875,0,0,0-1.5826-.82,1.98783,1.98783,0,0,0-1.0004.2788" style="fill: #fff"/>
          <g style="clip-path: url(#clip-path)">
            <polygon points="16.075 30.616 10.819 38.316 3.898 33.592 9.154 25.893 16.075 30.616" style="fill: #fff"/>
          </g>
        </g>
      </g>
    </g>
    <g>
      <path id="SVGID-3" data-name="SVGID" d="M7.70278,36.1836h1.8368v-.8938s-1.3366.697-1.8368-1.6646Z" style="fill: #fff"/>
      <g>
        <path id="SVGID-4" data-name="SVGID" d="M7.70278,36.1836h1.8368v-.8938s-1.3366.697-1.8368-1.6646Z" style="fill: #fff"/>
        <g>
          <path d="M7.70278,36.1836h1.8368v-.8938s-1.3366.697-1.8368-1.6646Z" style="fill: #fff"/>
          <g style="clip-path: url(#clip-path-2)">
            <polygon points="10.753 35.298 8.334 37.061 6.481 34.511 8.9 32.756 10.753 35.298" style="fill: #fff"/>
          </g>
        </g>
      </g>
    </g>
    <g>
      <path id="SVGID-5" data-name="SVGID" d="M9.03938,28.3034c-.0738.041-.1476.0902-.2214.1394,0,0,2.9848.0492,2.6404,4.5674a1.575,1.575,0,0,0,.2296-.2378,2.97133,2.97133,0,0,0,.574-1.9024,3.19825,3.19825,0,0,0-.6396-2.0254,1.94875,1.94875,0,0,0-1.5826-.82,1.98783,1.98783,0,0,0-1.0004.2788" style="fill: #fff"/>
      <g>
        <path id="SVGID-6" data-name="SVGID" d="M9.03938,28.3034c-.0738.041-.1476.0902-.2214.1394,0,0,2.9848.0492,2.6404,4.5674a1.575,1.575,0,0,0,.2296-.2378,2.97133,2.97133,0,0,0,.574-1.9024,3.19825,3.19825,0,0,0-.6396-2.0254,1.94875,1.94875,0,0,0-1.5826-.82,1.98783,1.98783,0,0,0-1.0004.2788" style="fill: #fff"/>
        <g>
          <path d="M9.03938,28.3034c-.0738.041-.1476.0902-.2214.1394,0,0,2.9848.0492,2.6404,4.5674a1.575,1.575,0,0,0,.2296-.2378,2.97133,2.97133,0,0,0,.574-1.9024,3.19825,3.19825,0,0,0-.6396-2.0254,1.94875,1.94875,0,0,0-1.5826-.82,1.98783,1.98783,0,0,0-1.0004.2788" style="fill: #fff"/>
          <g style="clip-path: url(#clip-path-3)">
            <polygon points="8.826 33.076 8.728 28.025 12.27 27.959 12.369 33.002 8.826 33.076" style="fill: #fff"/>
          </g>
        </g>
      </g>
    </g>
    <g>
      <path id="SVGID-7" data-name="SVGID" d="M30.06419,28.5576a1.74827,1.74827,0,0,0-.4346-.3526,1.16657,1.16657,0,0,0-.4674-.0984,1.11963,1.11963,0,0,0-.861.4428,2.47026,2.47026,0,0,0-.5166,1.2136c-.0164.1066-.0328.2706-.0574.492a4.39158,4.39158,0,0,0-.0246.451,4.00386,4.00386,0,0,0,.287,1.5416,3.18149,3.18149,0,0,0,.3116.5658,4.26372,4.26372,0,0,0,.4264.5248,9.48473,9.48473,0,0,0,.9676.8446,1.22439,1.22439,0,0,1,.3936.8774.79251.79251,0,0,1-.1804.533.58985.58985,0,0,1-.4592.2214,1.06133,1.06133,0,0,1-.82-.533,5.22505,5.22505,0,0,1-.7544-1.8696h-.1804v2.6978h.1804l.5904-.5412a1.31373,1.31373,0,0,0,.4756.4592,1.11717,1.11717,0,0,0,.5822.1476,1.405,1.405,0,0,0,.9594-.4182,2.08153,2.08153,0,0,0,.5822-1.1234,5.60447,5.60447,0,0,0,.1066-1.0742,3.68377,3.68377,0,0,0-.3608-1.6236,3.42527,3.42527,0,0,0-.3444-.5576,3.91386,3.91386,0,0,0-.4674-.5166c-.123-.1148-.2624-.2296-.41-.369-.1476-.1312-.2952-.2624-.4428-.3854a1.20186,1.20186,0,0,1-.4838-.9266.887.887,0,0,1,.164-.5248.51015.51015,0,0,1,.4018-.2132.96672.96672,0,0,1,.7298.492,2.95746,2.95746,0,0,1,.3854.7052,6.36223,6.36223,0,0,1,.3034.984h.1886V28Z" style="fill: #fff"/>
      <g>
        <path id="SVGID-8" data-name="SVGID" d="M30.06419,28.5576a1.74827,1.74827,0,0,0-.4346-.3526,1.16657,1.16657,0,0,0-.4674-.0984,1.11963,1.11963,0,0,0-.861.4428,2.47026,2.47026,0,0,0-.5166,1.2136c-.0164.1066-.0328.2706-.0574.492a4.39158,4.39158,0,0,0-.0246.451,4.00386,4.00386,0,0,0,.287,1.5416,3.18149,3.18149,0,0,0,.3116.5658,4.26372,4.26372,0,0,0,.4264.5248,9.48473,9.48473,0,0,0,.9676.8446,1.22439,1.22439,0,0,1,.3936.8774.79251.79251,0,0,1-.1804.533.58985.58985,0,0,1-.4592.2214,1.06133,1.06133,0,0,1-.82-.533,5.22505,5.22505,0,0,1-.7544-1.8696h-.1804v2.6978h.1804l.5904-.5412a1.31373,1.31373,0,0,0,.4756.4592,1.11717,1.11717,0,0,0,.5822.1476,1.405,1.405,0,0,0,.9594-.4182,2.08153,2.08153,0,0,0,.5822-1.1234,5.60447,5.60447,0,0,0,.1066-1.0742,3.68377,3.68377,0,0,0-.3608-1.6236,3.42527,3.42527,0,0,0-.3444-.5576,3.91386,3.91386,0,0,0-.4674-.5166c-.123-.1148-.2624-.2296-.41-.369-.1476-.1312-.2952-.2624-.4428-.3854a1.20186,1.20186,0,0,1-.4838-.9266.887.887,0,0,1,.164-.5248.51015.51015,0,0,1,.4018-.2132.96672.96672,0,0,1,.7298.492,2.95746,2.95746,0,0,1,.3854.7052,6.36223,6.36223,0,0,1,.3034.984h.1886V28Z" style="fill: #fff"/>
        <g>
          <path d="M30.06419,28.5576a1.74827,1.74827,0,0,0-.4346-.3526,1.16657,1.16657,0,0,0-.4674-.0984,1.11963,1.11963,0,0,0-.861.4428,2.47026,2.47026,0,0,0-.5166,1.2136c-.0164.1066-.0328.2706-.0574.492a4.39158,4.39158,0,0,0-.0246.451,4.00386,4.00386,0,0,0,.287,1.5416,3.18149,3.18149,0,0,0,.3116.5658,4.26372,4.26372,0,0,0,.4264.5248,9.48473,9.48473,0,0,0,.9676.8446,1.22439,1.22439,0,0,1,.3936.8774.79251.79251,0,0,1-.1804.533.58985.58985,0,0,1-.4592.2214,1.06133,1.06133,0,0,1-.82-.533,5.22505,5.22505,0,0,1-.7544-1.8696h-.1804v2.6978h.1804l.5904-.5412a1.31373,1.31373,0,0,0,.4756.4592,1.11717,1.11717,0,0,0,.5822.1476,1.405,1.405,0,0,0,.9594-.4182,2.08153,2.08153,0,0,0,.5822-1.1234,5.60447,5.60447,0,0,0,.1066-1.0742,3.68377,3.68377,0,0,0-.3608-1.6236,3.42527,3.42527,0,0,0-.3444-.5576,3.91386,3.91386,0,0,0-.4674-.5166c-.123-.1148-.2624-.2296-.41-.369-.1476-.1312-.2952-.2624-.4428-.3854a1.20186,1.20186,0,0,1-.4838-.9266.887.887,0,0,1,.164-.5248.51015.51015,0,0,1,.4018-.2132.96672.96672,0,0,1,.7298.492,2.95746,2.95746,0,0,1,.3854.7052,6.36223,6.36223,0,0,1,.3034.984h.1886V28Z" style="fill: #fff"/>
          <g style="clip-path: url(#clip-path-4)">
            <polygon points="27.588 28.025 31.171 27.984 31.27 36.184 27.686 36.225 27.588 28.025" style="fill: #fff"/>
          </g>
        </g>
      </g>
    </g>
    <g>
      <path id="SVGID-9" data-name="SVGID" d="M34.5414,30.1812c-.2378.0164-.533.0246-.8938.0246h-.41v.2706h.3608v3.8622a2.01833,2.01833,0,0,1-.1066.7298c-.0738.1968-.1558.2952-.2378.2952-.0738,0-.1312-.082-.1804-.246a2.50874,2.50874,0,0,1-.0738-.6888V30.1074q-.369,0-1.0086.0492c-.4264.0328-.7298.0492-.9184.0492v.2706h.3608v3.7638a2.64566,2.64566,0,0,0,.3526,1.4678.88826.88826,0,0,0,.7462.492.876.876,0,0,0,.6478-.3034,2.04955,2.04955,0,0,0,.4674-.8938v1.1726c.082,0,.4428-.0492,1.0742-.1476a4.972,4.972,0,0,1,.7954-.0492V35.585h-.41V30.1074q-.2952.0492-.5658.0738" style="fill: #fff"/>
      <g>
        <path id="SVGID-10" data-name="SVGID" d="M34.5414,30.1812c-.2378.0164-.533.0246-.8938.0246h-.41v.2706h.3608v3.8622a2.01833,2.01833,0,0,1-.1066.7298c-.0738.1968-.1558.2952-.2378.2952-.0738,0-.1312-.082-.1804-.246a2.50874,2.50874,0,0,1-.0738-.6888V30.1074q-.369,0-1.0086.0492c-.4264.0328-.7298.0492-.9184.0492v.2706h.3608v3.7638a2.64566,2.64566,0,0,0,.3526,1.4678.88826.88826,0,0,0,.7462.492.876.876,0,0,0,.6478-.3034,2.04955,2.04955,0,0,0,.4674-.8938v1.1726c.082,0,.4428-.0492,1.0742-.1476a4.972,4.972,0,0,1,.7954-.0492V35.585h-.41V30.1074q-.2952.0492-.5658.0738" style="fill: #fff"/>
        <g>
          <path d="M34.5414,30.1812c-.2378.0164-.533.0246-.8938.0246h-.41v.2706h.3608v3.8622a2.01833,2.01833,0,0,1-.1066.7298c-.0738.1968-.1558.2952-.2378.2952-.0738,0-.1312-.082-.1804-.246a2.50874,2.50874,0,0,1-.0738-.6888V30.1074q-.369,0-1.0086.0492c-.4264.0328-.7298.0492-.9184.0492v.2706h.3608v3.7638a2.64566,2.64566,0,0,0,.3526,1.4678.88826.88826,0,0,0,.7462.492.876.876,0,0,0,.6478-.3034,2.04955,2.04955,0,0,0,.4674-.8938v1.1726c.082,0,.4428-.0492,1.0742-.1476a4.972,4.972,0,0,1,.7954-.0492V35.585h-.41V30.1074q-.2952.0492-.5658.0738" style="fill: #fff"/>
          <g style="clip-path: url(#clip-path-5)">
            <polygon points="30.991 30.107 35.517 30.05 35.591 36.184 31.073 36.241 30.991 30.107" style="fill: #fff"/>
          </g>
        </g>
      </g>
    </g>
    <g>
      <path id="SVGID-11" data-name="SVGID" d="M36.9686,30.132a1.18016,1.18016,0,0,0-.3034.1148,2.11777,2.11777,0,0,0-.3034.1804,1.80271,1.80271,0,0,0-.2624.246,2.69161,2.69161,0,0,0-.2214.3116,4.303,4.303,0,0,0-.5658,2.1074l-.0082.0902a3.71043,3.71043,0,0,0,.615,2.173,1.6054,1.6054,0,0,0,1.3284.82,1.247,1.247,0,0,0,.943-.451,3.21412,3.21412,0,0,0,.6888-1.435l-.1968-.1886a3.38619,3.38619,0,0,1-.451,1.0824c-.205.3116-.41.4756-.615.4756s-.369-.1804-.492-.533a3.44071,3.44071,0,0,1-.1558-.7708,9.91739,9.91739,0,0,1-.0492-1.0496l.0082-.2132a10.166,10.166,0,0,1,.1476-1.9434c.0984-.4674.2542-.697.4756-.697a.55232.55232,0,0,1,.246.0656,1.67673,1.67673,0,0,1,.2624.2378,1.36349,1.36349,0,0,0-.492.6888,2.1658,2.1658,0,0,0-.123.7052,1.2512,1.2512,0,0,0,.0082.1476c.0082.082.0082.1312.0082.1312a1.7005,1.7005,0,0,0,.2378.7298.50057.50057,0,0,0,.41.2624.66255.66255,0,0,0,.5412-.3608,1.68009,1.68009,0,0,0,.2296-.9348,3.23186,3.23186,0,0,0-.0328-.451,2.20891,2.20891,0,0,0-.1066-.451,1.52285,1.52285,0,0,0-1.5006-1.1316Z" style="fill: #fff"/>
      <g>
        <path id="SVGID-12" data-name="SVGID" d="M36.9686,30.132a1.18016,1.18016,0,0,0-.3034.1148,2.11777,2.11777,0,0,0-.3034.1804,1.80271,1.80271,0,0,0-.2624.246,2.69161,2.69161,0,0,0-.2214.3116,4.303,4.303,0,0,0-.5658,2.1074l-.0082.0902a3.71043,3.71043,0,0,0,.615,2.173,1.6054,1.6054,0,0,0,1.3284.82,1.247,1.247,0,0,0,.943-.451,3.21412,3.21412,0,0,0,.6888-1.435l-.1968-.1886a3.38619,3.38619,0,0,1-.451,1.0824c-.205.3116-.41.4756-.615.4756s-.369-.1804-.492-.533a3.44071,3.44071,0,0,1-.1558-.7708,9.91739,9.91739,0,0,1-.0492-1.0496l.0082-.2132a10.166,10.166,0,0,1,.1476-1.9434c.0984-.4674.2542-.697.4756-.697a.55232.55232,0,0,1,.246.0656,1.67673,1.67673,0,0,1,.2624.2378,1.36349,1.36349,0,0,0-.492.6888,2.1658,2.1658,0,0,0-.123.7052,1.2512,1.2512,0,0,0,.0082.1476c.0082.082.0082.1312.0082.1312a1.7005,1.7005,0,0,0,.2378.7298.50057.50057,0,0,0,.41.2624.66255.66255,0,0,0,.5412-.3608,1.68009,1.68009,0,0,0,.2296-.9348,3.23186,3.23186,0,0,0-.0328-.451,2.20891,2.20891,0,0,0-.1066-.451,1.52285,1.52285,0,0,0-1.5006-1.1316Z" style="fill: #fff"/>
        <g>
          <path d="M36.9686,30.132a1.18016,1.18016,0,0,0-.3034.1148,2.11777,2.11777,0,0,0-.3034.1804,1.80271,1.80271,0,0,0-.2624.246,2.69161,2.69161,0,0,0-.2214.3116,4.303,4.303,0,0,0-.5658,2.1074l-.0082.0902a3.71043,3.71043,0,0,0,.615,2.173,1.6054,1.6054,0,0,0,1.3284.82,1.247,1.247,0,0,0,.943-.451,3.21412,3.21412,0,0,0,.6888-1.435l-.1968-.1886a3.38619,3.38619,0,0,1-.451,1.0824c-.205.3116-.41.4756-.615.4756s-.369-.1804-.492-.533a3.44071,3.44071,0,0,1-.1558-.7708,9.91739,9.91739,0,0,1-.0492-1.0496l.0082-.2132a10.166,10.166,0,0,1,.1476-1.9434c.0984-.4674.2542-.697.4756-.697a.55232.55232,0,0,1,.246.0656,1.67673,1.67673,0,0,1,.2624.2378,1.36349,1.36349,0,0,0-.492.6888,2.1658,2.1658,0,0,0-.123.7052,1.2512,1.2512,0,0,0,.0082.1476c.0082.082.0082.1312.0082.1312a1.7005,1.7005,0,0,0,.2378.7298.50057.50057,0,0,0,.41.2624.66255.66255,0,0,0,.5412-.3608,1.68009,1.68009,0,0,0,.2296-.9348,3.23186,3.23186,0,0,0-.0328-.451,2.20891,2.20891,0,0,0-.1066-.451,1.52285,1.52285,0,0,0-1.5006-1.1316Z" style="fill: #fff"/>
          <g style="clip-path: url(#clip-path-6)">
            <polygon points="35.222 30.107 38.871 30.066 38.945 36.184 35.296 36.225 35.222 30.107" style="fill: #fff"/>
          </g>
        </g>
      </g>
    </g>
    <g>
      <path id="SVGID-13" data-name="SVGID" d="M39.855,28.0902a7.378,7.378,0,0,1-.9594.1148v.369h.287V35.8228h-.287v.369h1.9352v-.369h-.287v-1.886l.0984-.0902.6068,1.9762h-.2378v.369H42.848v-.369h-.0984l-1.1234-3.6572c.041-.0574.205-.3198.4756-.7954a.6891.6891,0,0,1,.4756-.3034h.0738v-.246H41.003v.246a.47055.47055,0,0,1,.3936.1722.54741.54741,0,0,1,.1066.3526.979.979,0,0,1-.123.4756l-.8528,1.435V28.0246a4.275,4.275,0,0,0-.6724.0656" style="fill: #fff"/>
      <g>
        <path id="SVGID-14" data-name="SVGID" d="M39.855,28.0902a7.378,7.378,0,0,1-.9594.1148v.369h.287V35.8228h-.287v.369h1.9352v-.369h-.287v-1.886l.0984-.0902.6068,1.9762h-.2378v.369H42.848v-.369h-.0984l-1.1234-3.6572c.041-.0574.205-.3198.4756-.7954a.6891.6891,0,0,1,.4756-.3034h.0738v-.246H41.003v.246a.47055.47055,0,0,1,.3936.1722.54741.54741,0,0,1,.1066.3526.979.979,0,0,1-.123.4756l-.8528,1.435V28.0246a4.275,4.275,0,0,0-.6724.0656" style="fill: #fff"/>
        <g>
          <path d="M39.855,28.0902a7.378,7.378,0,0,1-.9594.1148v.369h.287V35.8228h-.287v.369h1.9352v-.369h-.287v-1.886l.0984-.0902.6068,1.9762h-.2378v.369H42.848v-.369h-.0984l-1.1234-3.6572c.041-.0574.205-.3198.4756-.7954a.6891.6891,0,0,1,.4756-.3034h.0738v-.246H41.003v.246a.47055.47055,0,0,1,.3936.1722.54741.54741,0,0,1,.1066.3526.979.979,0,0,1-.123.4756l-.8528,1.435V28.0246a4.275,4.275,0,0,0-.6724.0656" style="fill: #fff"/>
          <g style="clip-path: url(#clip-path-7)">
            <polygon points="38.797 28.025 42.848 27.975 42.946 36.184 38.896 36.233 38.797 28.025" style="fill: #fff"/>
          </g>
        </g>
      </g>
    </g>
    <g>
      <path id="SVGID-15" data-name="SVGID" d="M43.9714,28.164c-.2542.0246-.5494.0328-.8774.0328h-.1312v.369h.3362v7.2488h-.3362v.369h2.0254v-.369h-.2296V32.6822a2.72,2.72,0,0,1,.123-.82c.082-.2624.164-.3854.246-.3854.0492,0,.0984.0738.1394.2296a3.85224,3.85224,0,0,1,.0492.7052v3.4112h-.1886v.369H47.112v-.369h-.3362V32.4116a2.59952,2.59952,0,0,0-.3034-1.3202.8742.8742,0,0,0-.7134-.5248.77473.77473,0,0,0-.5494.287,2.35208,2.35208,0,0,0-.451.8528V28.0246a3.94125,3.94125,0,0,1-.7872.1394" style="fill: #fff"/>
      <g>
        <path id="SVGID-16" data-name="SVGID" d="M43.9714,28.164c-.2542.0246-.5494.0328-.8774.0328h-.1312v.369h.3362v7.2488h-.3362v.369h2.0254v-.369h-.2296V32.6822a2.72,2.72,0,0,1,.123-.82c.082-.2624.164-.3854.246-.3854.0492,0,.0984.0738.1394.2296a3.85224,3.85224,0,0,1,.0492.7052v3.4112h-.1886v.369H47.112v-.369h-.3362V32.4116a2.59952,2.59952,0,0,0-.3034-1.3202.8742.8742,0,0,0-.7134-.5248.77473.77473,0,0,0-.5494.287,2.35208,2.35208,0,0,0-.451.8528V28.0246a3.94125,3.94125,0,0,1-.7872.1394" style="fill: #fff"/>
        <g>
          <path d="M43.9714,28.164c-.2542.0246-.5494.0328-.8774.0328h-.1312v.369h.3362v7.2488h-.3362v.369h2.0254v-.369h-.2296V32.6822a2.72,2.72,0,0,1,.123-.82c.082-.2624.164-.3854.246-.3854.0492,0,.0984.0738.1394.2296a3.85224,3.85224,0,0,1,.0492.7052v3.4112h-.1886v.369H47.112v-.369h-.3362V32.4116a2.59952,2.59952,0,0,0-.3034-1.3202.8742.8742,0,0,0-.7134-.5248.77473.77473,0,0,0-.5494.287,2.35208,2.35208,0,0,0-.451.8528V28.0246a3.94125,3.94125,0,0,1-.7872.1394" style="fill: #fff"/>
          <g style="clip-path: url(#clip-path-8)">
            <polygon points="42.864 28.025 47.112 27.967 47.21 36.184 42.963 36.233 42.864 28.025" style="fill: #fff"/>
          </g>
        </g>
      </g>
    </g>
    <g>
      <path id="SVGID-17" data-name="SVGID" d="M48.77661,35.6506a1.78193,1.78193,0,0,1-.0984-.656l.0082-.1394V31.3128a1.71361,1.71361,0,0,1,.0984-.6642c.0574-.1394.1312-.2132.2214-.2132.082,0,.1558.0738.2214.2132a1.29743,1.29743,0,0,1,.0984.5658v3.772a1.69517,1.69517,0,0,1-.0984.656q-.0984.246-.2214.246c-.0902.0082-.1722-.0738-.2296-.2378m.0574-5.5432a1.60956,1.60956,0,0,0-1.4186.984,4.2911,4.2911,0,0,0-.4838,2.0992,4.01536,4.01536,0,0,0,.492,2.0664,1.66887,1.66887,0,0,0,1.4924.9266h.0738a1.59667,1.59667,0,0,0,1.4186-.9758,4.3413,4.3413,0,0,0,.4756-2.0828,4.05742,4.05742,0,0,0-.492-2.0828,1.6711,1.6711,0,0,0-1.4924-.9348Z" style="fill: #fff"/>
      <g>
        <path id="SVGID-18" data-name="SVGID" d="M48.77661,35.6506a1.78193,1.78193,0,0,1-.0984-.656l.0082-.1394V31.3128a1.71361,1.71361,0,0,1,.0984-.6642c.0574-.1394.1312-.2132.2214-.2132.082,0,.1558.0738.2214.2132a1.29743,1.29743,0,0,1,.0984.5658v3.772a1.69517,1.69517,0,0,1-.0984.656q-.0984.246-.2214.246c-.0902.0082-.1722-.0738-.2296-.2378m.0574-5.5432a1.60956,1.60956,0,0,0-1.4186.984,4.2911,4.2911,0,0,0-.4838,2.0992,4.01536,4.01536,0,0,0,.492,2.0664,1.66887,1.66887,0,0,0,1.4924.9266h.0738a1.59667,1.59667,0,0,0,1.4186-.9758,4.3413,4.3413,0,0,0,.4756-2.0828,4.05742,4.05742,0,0,0-.492-2.0828,1.6711,1.6711,0,0,0-1.4924-.9348Z" style="fill: #fff"/>
        <g>
          <path d="M48.77661,35.6506a1.78193,1.78193,0,0,1-.0984-.656l.0082-.1394V31.3128a1.71361,1.71361,0,0,1,.0984-.6642c.0574-.1394.1312-.2132.2214-.2132.082,0,.1558.0738.2214.2132a1.29743,1.29743,0,0,1,.0984.5658v3.772a1.69517,1.69517,0,0,1-.0984.656q-.0984.246-.2214.246c-.0902.0082-.1722-.0738-.2296-.2378m.0574-5.5432a1.60956,1.60956,0,0,0-1.4186.984,4.2911,4.2911,0,0,0-.4838,2.0992,4.01536,4.01536,0,0,0,.492,2.0664,1.66887,1.66887,0,0,0,1.4924.9266h.0738a1.59667,1.59667,0,0,0,1.4186-.9758,4.3413,4.3413,0,0,0,.4756-2.0828,4.05742,4.05742,0,0,0-.492-2.0828,1.6711,1.6711,0,0,0-1.4924-.9348Z" style="fill: #fff"/>
          <g style="clip-path: url(#clip-path-9)">
            <polygon points="46.85 30.107 50.884 30.058 50.958 36.184 46.923 36.233 46.85 30.107" style="fill: #fff"/>
          </g>
        </g>
      </g>
    </g>
    <g>
      <path id="SVGID-19" data-name="SVGID" d="M52.73721,31.3128a1.7136,1.7136,0,0,1,.0984-.6642c.0574-.1394.1312-.2132.2214-.2132.082,0,.1558.0738.2214.2132a1.29743,1.29743,0,0,1,.0984.5658v1.968h-.6396V31.3128Zm-1.1726-.2214a4.2911,4.2911,0,0,0-.4838,2.0992,4.01536,4.01536,0,0,0,.492,2.0664,1.66887,1.66887,0,0,0,1.4924.9266h.0738a1.27782,1.27782,0,0,0,.8364-.287,3.35288,3.35288,0,0,0,.8118-1.3038l-.1968-.0984a2.77764,2.77764,0,0,1-.5494.861.87038.87038,0,0,1-.5986.328c-.2132,0-.3854-.1394-.5084-.4264a3.64556,3.64556,0,0,1-.205-1.394l.0082-.3116h2.2304c.0082-.1722.0164-.2706.0164-.2952V33.084a4.09824,4.09824,0,0,0-.4838-2.05,1.67563,1.67563,0,0,0-1.5088-.9184,1.58842,1.58842,0,0,0-1.4268.9758" style="fill: #fff"/>
      <g>
        <path id="SVGID-20" data-name="SVGID" d="M52.73721,31.3128a1.7136,1.7136,0,0,1,.0984-.6642c.0574-.1394.1312-.2132.2214-.2132.082,0,.1558.0738.2214.2132a1.29743,1.29743,0,0,1,.0984.5658v1.968h-.6396V31.3128Zm-1.1726-.2214a4.2911,4.2911,0,0,0-.4838,2.0992,4.01536,4.01536,0,0,0,.492,2.0664,1.66887,1.66887,0,0,0,1.4924.9266h.0738a1.27782,1.27782,0,0,0,.8364-.287,3.35288,3.35288,0,0,0,.8118-1.3038l-.1968-.0984a2.77764,2.77764,0,0,1-.5494.861.87038.87038,0,0,1-.5986.328c-.2132,0-.3854-.1394-.5084-.4264a3.64556,3.64556,0,0,1-.205-1.394l.0082-.3116h2.2304c.0082-.1722.0164-.2706.0164-.2952V33.084a4.09824,4.09824,0,0,0-.4838-2.05,1.67563,1.67563,0,0,0-1.5088-.9184,1.58842,1.58842,0,0,0-1.4268.9758" style="fill: #fff"/>
        <g>
          <path d="M52.73721,31.3128a1.7136,1.7136,0,0,1,.0984-.6642c.0574-.1394.1312-.2132.2214-.2132.082,0,.1558.0738.2214.2132a1.29743,1.29743,0,0,1,.0984.5658v1.968h-.6396V31.3128Zm-1.1726-.2214a4.2911,4.2911,0,0,0-.4838,2.0992,4.01536,4.01536,0,0,0,.492,2.0664,1.66887,1.66887,0,0,0,1.4924.9266h.0738a1.27782,1.27782,0,0,0,.8364-.287,3.35288,3.35288,0,0,0,.8118-1.3038l-.1968-.0984a2.77764,2.77764,0,0,1-.5494.861.87038.87038,0,0,1-.5986.328c-.2132,0-.3854-.1394-.5084-.4264a3.64556,3.64556,0,0,1-.205-1.394l.0082-.3116h2.2304c.0082-.1722.0164-.2706.0164-.2952V33.084a4.09824,4.09824,0,0,0-.4838-2.05,1.67563,1.67563,0,0,0-1.5088-.9184,1.58842,1.58842,0,0,0-1.4268.9758" style="fill: #fff"/>
          <g style="clip-path: url(#clip-path-10)">
            <polygon points="50.999 30.107 54.984 30.058 55.058 36.184 51.073 36.233 50.999 30.107" style="fill: #fff"/>
          </g>
        </g>
      </g>
    </g>
    <g>
      <path id="SVGID-21" data-name="SVGID" d="M58.551,28.0656l-2.009,2.0746-.8692-.8528a.15853.15853,0,0,0-.2296,0l-.4182.41a.15854.15854,0,0,0,0,.2296l1.3858,1.3776a.1836.1836,0,0,0,.1394.0492.15725.15725,0,0,0,.1394-.0492l2.5666-2.5338a.15847.15847,0,0,0,0-.2296l-.4674-.4674a.1619.1619,0,0,0-.1148-.0492.17252.17252,0,0,0-.123.041" style="fill: #fff"/>
      <g>
        <path id="SVGID-22" data-name="SVGID" d="M58.551,28.0656l-2.009,2.0746-.8692-.8528a.15853.15853,0,0,0-.2296,0l-.4182.41a.15854.15854,0,0,0,0,.2296l1.3858,1.3776a.1836.1836,0,0,0,.1394.0492.15725.15725,0,0,0,.1394-.0492l2.5666-2.5338a.15847.15847,0,0,0,0-.2296l-.4674-.4674a.1619.1619,0,0,0-.1148-.0492.17252.17252,0,0,0-.123.041" style="fill: #fff"/>
        <g>
          <path d="M58.551,28.0656l-2.009,2.0746-.8692-.8528a.15853.15853,0,0,0-.2296,0l-.4182.41a.15854.15854,0,0,0,0,.2296l1.3858,1.3776a.1836.1836,0,0,0,.1394.0492.15725.15725,0,0,0,.1394-.0492l2.5666-2.5338a.15847.15847,0,0,0,0-.2296l-.4674-.4674a.1619.1619,0,0,0-.1148-.0492.17252.17252,0,0,0-.123.041" style="fill: #fff"/>
          <g style="clip-path: url(#clip-path-11)">
            <rect x="54.96761" y="28.0246" width="4.3542" height="3.3292" style="fill: #fff"/>
          </g>
        </g>
      </g>
    </g>
  </g>
</svg>
