<svg id="Layer_1" data-name="Layer 1" xmlns="http://www.w3.org/2000/svg" width="120" height="80" viewBox="0 0 120 80">
  <title>back</title>
  <rect width="120" height="80" rx="6" ry="6" style="fill: #ecbe45"/>
  <rect y="9" width="120" height="10"/>
  <g>
    <rect x="21.5" y="33" width="63" height="11" style="fill: #fff;opacity: 0.85"/>
    <rect x="84.5" y="34" width="14" height="9" style="fill: #fff"/>
    <g>
      <path d="M87.73633,39.2041l-.68555,1.17578h-.791l1.10156-1.76172-1.11523-1.73145h.80469l.75586,1.1709.68164-1.1709h.79l-1.09668,1.75684,1.11719,1.73633h-.80664Z"/>
      <path d="M91.36719,39.2041l-.68555,1.17578h-.791l1.10059-1.76172L89.875,36.88672h.80664l.75586,1.1709.67969-1.1709h.791l-1.0957,1.75684,1.11523,1.73633H92.123Z"/>
      <path d="M94.99609,39.2041l-.68555,1.17578h-.791l1.10156-1.76172-1.11523-1.73145h.80469l.75586,1.1709.68164-1.1709h.79l-1.09668,1.75684,1.11719,1.73633H95.752Z"/>
    </g>
  </g>
  <rect x="8" y="58" width="54" height="3" rx="1.5" ry="1.5" style="fill: #fff"/>
  <rect x="8" y="65.75" width="32" height="1.5" rx="0.5" ry="0.5" style="fill: #fff"/>
  <rect x="8" y="70.75" width="32" height="1.5" rx="0.5" ry="0.5" style="fill: #fff"/>
</svg>
