<svg id="Layer_1" data-name="Layer 1" xmlns="http://www.w3.org/2000/svg" width="65" height="65" viewBox="0 0 65 65">
  <title>news</title>
  <path d="M32.5,63.5h0a31,31,0,0,1-31-31h0a31,31,0,0,1,31-31H62A1.5,1.5,0,0,1,63.5,3V32.5A31,31,0,0,1,32.5,63.5Z" style="fill: #212121"/>
  <path d="M32.5,4.6H59.05A1.35,1.35,0,0,1,60.4,5.95V32.5A27.9,27.9,0,0,1,32.5,60.4h0A27.9,27.9,0,0,1,4.6,32.5v0A27.9,27.9,0,0,1,32.5,4.6Z" style="fill: #693"/>
  <g style="opacity: 0.3">
    <polygon points="45.943 33.3 9.943 33.3 10.887 22.5 46.887 22.5 45.943 33.3"/>
  </g>
  <g style="opacity: 0.3">
    <polygon points="57.208 41.7 11.608 41.7 12.448 32.1 58.048 32.1 57.208 41.7"/>
  </g>
  <polygon points="56.113 40.5 10.513 40.5 11.457 29.7 57.057 29.7 56.113 40.5" style="fill: #fff"/>
  <polygon points="44.848 32.1 8.848 32.1 9.792 21.3 45.792 21.3 44.848 32.1" style="fill: #212121"/>
  <g>
    <path d="M11.6318,23.93h1.1689l.5894,4.2271L14.8672,23.93H16.084l.6772,4.2041L18.0957,23.93h1.1768l-1.9966,5.4434H15.99l-.6821-3.876L13.9,29.3735l-1.2788.0078Z" style="fill: #fff"/>
    <path d="M23.0669,24.812H21l-.12,1.3647h1.832l-.0757.8647h-1.832l-.1265,1.4429h2.0664l-.0776.8892H19.5093l.4771-5.4507h3.1582Z" style="fill: #fff"/>
    <path d="M26.0054,29.3735H23.6587l.4761-5.4434H26.38c1.1387,0,1.7188.5928,1.6479,1.4038a1.4021,1.4021,0,0,1-1.0366,1.2476,1.1878,1.1878,0,0,1,.937,1.3179A1.7116,1.7116,0,0,1,26.0054,29.3735Zm.0273-2.3555H24.9565l-.1284,1.4663h1.1c.5293,0,.8647-.2568.9048-.7173C26.8735,27.2993,26.563,27.0181,26.0327,27.0181Zm.1152-2.2061H25.15l-.12,1.3647h.998c.5146,0,.8311-.2344.87-.6792C26.9365,25.061,26.6626,24.812,26.1479,24.812Z" style="fill: #fff"/>
    <path d="M30.5488,29.4277c-1.1309,0-1.9521-.5923-1.8779-1.6216h1.17a.675.675,0,0,0,.7627.7246.7781.7781,0,0,0,.8774-.6621c.103-1.1772-2.7666-.4683-2.5864-2.4409A1.8448,1.8448,0,0,1,30.95,23.8525c1.1152,0,1.83.5693,1.8135,1.5518h-1.2a.6481.6481,0,0,0-.7236-.647.6967.6967,0,0,0-.8037.6392c-.0957,1.0913,2.7485.4834,2.5811,2.4019A1.9039,1.9039,0,0,1,30.5488,29.4277Z" style="fill: #fff"/>
    <path d="M33.9,23.93h1.0918l-.4756,5.4434H33.4238Z" style="fill: #fff"/>
    <path d="M35.78,23.93h3.9922l-.0771.8818H38.2441l-.3984,4.5615H36.7549l.3984-4.5615h-1.45Z" style="fill: #fff"/>
    <path d="M43.65,24.812H41.584l-.1191,1.3647h1.832l-.0762.8647h-1.832l-.126,1.4429h2.0664l-.0771.8892H40.0938l.4766-5.4507h3.1582Z" style="fill: #fff"/>
  </g>
  <g>
    <path d="M16.4126,37.77h-2.167l-.45,1.0371H12.65l2.4341-5.4512h1.2705l1.48,5.4512H16.6812Zm-.8086-3.15-.9858,2.2764h1.5752Z"/>
    <path d="M20.4438,38.86c-1.1309,0-1.9517-.5918-1.8774-1.6211h1.17a.6752.6752,0,0,0,.7627.7246.7784.7784,0,0,0,.8774-.6631c.103-1.1768-2.7666-.4678-2.5864-2.44a1.8451,1.8451,0,0,1,2.0557-1.5752c1.1152,0,1.83.5693,1.8135,1.5518h-1.2a.6475.6475,0,0,0-.7236-.6465.6964.6964,0,0,0-.8037.6387c-.0957,1.0918,2.7485.4834,2.5806,2.4023A1.9036,1.9036,0,0,1,20.4438,38.86Z"/>
    <path d="M25.1938,38.86c-1.1309,0-1.9517-.5918-1.8774-1.6211h1.17a.6752.6752,0,0,0,.7627.7246.7784.7784,0,0,0,.8774-.6631c.103-1.1768-2.7666-.4678-2.5864-2.44a1.8451,1.8451,0,0,1,2.0557-1.5752c1.1152,0,1.83.5693,1.8135,1.5518h-1.2a.6475.6475,0,0,0-.7236-.6465.6964.6964,0,0,0-.8037.6387c-.0957,1.0918,2.7485.4834,2.5806,2.4023A1.9036,1.9036,0,0,1,25.1938,38.86Z"/>
    <path d="M28.5459,33.3633h1.0918l-.4761,5.4434H28.07Z"/>
    <path d="M32.1118,38.86c-1.1309,0-1.9517-.5918-1.8774-1.6211h1.17a.6752.6752,0,0,0,.7627.7246.78.78,0,0,0,.8779-.6631c.1025-1.1768-2.7671-.4678-2.5869-2.44a1.8451,1.8451,0,0,1,2.0557-1.5752c1.1152,0,1.83.5693,1.8135,1.5518h-1.2a.6478.6478,0,0,0-.7236-.6465.6964.6964,0,0,0-.8037.6387c-.0957,1.0918,2.749.4834,2.5811,2.4023A1.9048,1.9048,0,0,1,32.1118,38.86Z"/>
    <path d="M35.1758,33.3633H39.168l-.0771.8809h-1.45l-.3984,4.5625H36.1514l.3984-4.5625H35.0986Z"/>
    <path d="M42.916,37.77H40.749L40.3,38.8066H39.1543l2.4336-5.4512h1.2705l1.48,5.4512H43.1855Zm-.8076-3.15-.9863,2.2764h1.5752Z"/>
    <path d="M50.2061,33.3555l-.4766,5.4512H48.6377l-2.1455-3.7354-.3262,3.7354H45.0742l.4766-5.4512h1.0918l2.1445,3.7432.3271-3.7432Z"/>
    <path d="M50.9941,33.3633h3.9922l-.0771.8809H53.458L53.06,38.8066H51.9688l.3984-4.5625h-1.45Z"/>
  </g>
  <path d="M30.7,43.15H33a0,0,0,0,1,0,0v0a.7.7,0,0,1-.7.7H30a0,0,0,0,1,0,0v0A.7.7,0,0,1,30.7,43.15Z" style="fill: #fff"/>
  <path d="M35.7,43.15H51a0,0,0,0,1,0,0v0a.7.7,0,0,1-.7.7H35a0,0,0,0,1,0,0v0A.7.7,0,0,1,35.7,43.15Z" style="fill: #fff"/>
</svg>
