<svg id="Layer_1" data-name="Layer 1" xmlns="http://www.w3.org/2000/svg" width="65" height="65" viewBox="0 0 65 65">
  <title>news</title>
  <path d="M32.5,1.5h28a3,3,0,0,1,3,3v28a31,31,0,0,1-31,31h-.00006A30.99994,30.99994,0,0,1,1.5,32.50006V32.5a31,31,0,0,1,31-31Z" style="fill: #030365"/>
  <polygon points="48.587 34.075 10.787 34.075 11.706 23.575 49.506 23.575 48.587 34.075" style="opacity: 0.3"/>
  <polygon points="57.21 43.525 14.16 43.525 15.171 31.975 58.221 31.975 57.21 43.525" style="opacity: 0.3"/>
  <polygon points="55.294 41.425 12.244 41.425 13.347 28.825 56.397 28.825 55.294 41.425" style="fill: #fff"/>
  <polygon points="46.671 31.975 8.871 31.975 9.79 21.475 47.59 21.475 46.671 31.975"/>
  <g>
    <path d="M12.82813,24.65088h1.10254l.55615,3.98779,1.39307-3.98779h1.14746l.63818,3.96631,1.25928-3.96631h1.11035l-1.88281,5.13574H16.93848l-.644-3.65674-1.32666,3.65674-1.207.00781Z" style="fill: #fff"/>
    <path d="M23.606,25.48291H21.65674L21.54395,26.77h1.72852l-.07129.81689H21.47266l-.11914,1.36133h1.94922l-.07324.83838H20.251l.44971-5.14209H23.6792Z" style="fill: #fff"/>
    <path d="M26.375,29.78662H24.16113l.44922-5.13574h2.11816c1.07324,0,1.62012.55957,1.55273,1.3252a1.32457,1.32457,0,0,1-.978,1.17725,1.12007,1.12007,0,0,1,.88477,1.24316A1.61429,1.61429,0,0,1,26.375,29.78662Zm.02441-2.22168H25.38477l-.12109,1.3833h1.03711c.5,0,.81494-.24316.853-.67725C27.19238,27.82959,26.89941,27.56494,26.39941,27.56494Zm.10889-2.082h-.94141L25.4541,26.77h.94141c.48535,0,.78418-.2207.8208-.64014C27.252,25.71826,26.99365,25.48291,26.5083,25.48291Z" style="fill: #fff"/>
    <path d="M30.6543,29.83838c-1.06641,0-1.8418-.55957-1.77148-1.53027h1.10352a.63752.63752,0,0,0,.71973.68359.73367.73367,0,0,0,.82715-.62549c.09717-1.11084-2.60889-.44043-2.439-2.30273a1.73979,1.73979,0,0,1,1.93945-1.48535c1.05176,0,1.72559.53711,1.71045,1.46436H31.61133a.61175.61175,0,0,0-.68164-.61133.65808.65808,0,0,0-.75879.60352c-.09033,1.03027,2.59277.45605,2.43457,2.26563A1.79717,1.79717,0,0,1,30.6543,29.83838Z" style="fill: #fff"/>
    <path d="M33.8125,24.65088h1.0293l-.44922,5.13574h-1.0293Z" style="fill: #fff"/>
    <path d="M35.583,24.65088h3.76563l-.07324.832H37.90723l-.376,4.30371H36.502l.376-4.30371H35.50977Z" style="fill: #fff"/>
    <path d="M43.002,25.48291H41.05273L40.94043,26.77h1.72852l-.07129.81689H40.86914L40.75,28.94824h1.94922l-.07324.83838H39.64746l.4502-5.14209h2.97852Z" style="fill: #fff"/>
  </g>
  <g>
    <path d="M18.28125,38.25781H16.23633l-.42383.97949H14.73145l2.2959-5.14258h1.19922l1.39551,5.14258H18.5332Zm-.7627-2.97168-.93018,2.14844h1.48535Z"/>
    <path d="M22.07861,39.28809c-1.06641,0-1.8418-.55859-1.77148-1.53027h1.10352a.638.638,0,0,0,.71973.68457.73366.73366,0,0,0,.82715-.626c.09717-1.11035-2.60889-.44043-2.43945-2.30273A1.74058,1.74058,0,0,1,22.458,34.02832c1.05176,0,1.7251.53711,1.71045,1.46387H23.03564a.61158.61158,0,0,0-.68164-.61035.65721.65721,0,0,0-.75879.60254c-.09033,1.03027,2.59277.457,2.43457,2.26563A1.79717,1.79717,0,0,1,22.07861,39.28809Z"/>
    <path d="M26.5542,39.28809c-1.06641,0-1.8418-.55859-1.77148-1.53027h1.10352a.638.638,0,0,0,.71973.68457.73366.73366,0,0,0,.82715-.626c.09717-1.11035-2.60889-.44043-2.43945-2.30273a1.74058,1.74058,0,0,1,1.93994-1.48535c1.05176,0,1.7251.53711,1.71045,1.46387H27.51123a.61158.61158,0,0,0-.68164-.61035.6577.6577,0,0,0-.75879.60254c-.09033,1.03027,2.59277.457,2.43457,2.26563A1.79717,1.79717,0,0,1,26.5542,39.28809Z"/>
    <path d="M29.71191,34.10156h1.0293L30.292,39.2373H29.2627Z"/>
    <path d="M33.07422,39.28809c-1.06689,0-1.84229-.55859-1.772-1.53027h1.10352a.63784.63784,0,0,0,.71924.68457.73366.73366,0,0,0,.82715-.626c.09766-1.11035-2.6084-.44043-2.439-2.30273a1.74058,1.74058,0,0,1,1.93994-1.48535c1.05176,0,1.72559.53711,1.71094,1.46387H34.03125a.61217.61217,0,0,0-.68262-.61035.6575.6575,0,0,0-.7583.60254c-.09033,1.03027,2.59229.457,2.43408,2.26563A1.79647,1.79647,0,0,1,33.07422,39.28809Z"/>
    <path d="M35.959,34.10156h3.76563l-.07227.832H38.28418l-.377,4.30371h-1.0293l.377-4.30371H35.88672Z"/>
    <path d="M43.25586,38.25781H41.21094l-.42383.97949H39.70605l2.2959-5.14258h1.19922l1.39551,5.14258H43.50781Zm-.7627-2.97168-.92969,2.14844h1.48535Z"/>
    <path d="M50.126,34.09473l-.4502,5.14258H48.64551L46.623,35.71289l-.30859,3.52441h-1.0293l.4502-5.14258h1.0293L48.78613,37.626l.30957-3.53125Z"/>
    <path d="M50.86426,34.10156h3.76563l-.07227.832H53.18945l-.377,4.30371H51.7832l.377-4.30371H50.792Z"/>
  </g>
  <path d="M25.2,45.4H45a0,0,0,0,1,0,0v0a1.2,1.2,0,0,1-1.2,1.2H24a0,0,0,0,1,0,0v0A1.2,1.2,0,0,1,25.2,45.4Z" style="fill: #fff"/>
  <path d="M48.2,45.4H50a0,0,0,0,1,0,0v0a1.2,1.2,0,0,1-1.2,1.2H47a0,0,0,0,1,0,0v0A1.2,1.2,0,0,1,48.2,45.4Z" style="fill: #fff"/>
</svg>
