<svg id="Layer_1" data-name="Layer 1" xmlns="http://www.w3.org/2000/svg" width="60" height="60" viewBox="0 0 60 60">
  <title>news</title>
  <path d="M59.15,29.64a29,29,0,0,1-9.77,21.78q-.65.57-1.32,1.11A30.37,30.37,0,0,1,44.44,55a29.18,29.18,0,0,1-28,.49l-9.32,4a.89.89,0,0,1-1.23-.92l1.2-10,.09-.74a30.23,30.23,0,0,1-2.28-3.29h0A29,29,0,0,1,1.6,36.24h0c-.11-.48-.2-.95-.28-1.43A25.53,25.53,0,0,1,1,32c-.05-.59-.09-1.19-.1-1.8,0-.19,0-.4,0-.6a29.45,29.45,0,0,1,1.49-9.26,29.16,29.16,0,0,1,48-11.66,28.55,28.55,0,0,1,3.25,3.75,27,27,0,0,1,2.2,3.5h0a28.79,28.79,0,0,1,2.91,8.37c.08.43.15.87.21,1.32A28,28,0,0,1,59.15,29.64Z" style="fill: #242e51"/>
  <path d="M12,31.8H53a0,0,0,0,1,0,0V39a3,3,0,0,1-3,3H9a0,0,0,0,1,0,0V34.8A3,3,0,0,1,12,31.8Z" style="opacity: 0.2"/>
  <path d="M11,20.2H45.2a0,0,0,0,1,0,0v9a3,3,0,0,1-3,3H8a0,0,0,0,1,0,0v-9A3,3,0,0,1,11,20.2Z" style="opacity: 0.2"/>
  <path d="M13.6,27.8H55a0,0,0,0,1,0,0v9a3,3,0,0,1-3,3H10.6a0,0,0,0,1,0,0v-9A3,3,0,0,1,13.6,27.8Z" style="fill: #fff"/>
  <path d="M10,18.2H44.2a0,0,0,0,1,0,0v9a3,3,0,0,1-3,3H7a0,0,0,0,1,0,0v-9A3,3,0,0,1,10,18.2Z"/>
  <text transform="translate(10.8 26.83)" style="font-size: 7.199999809265137px;fill: #fff;font-family: Poppins-SemiBold, Poppins;font-weight: 700">WEBSITE</text>
  <text transform="translate(13.48 36.98)" style="font-size: 7.199999809265137px;font-family: Poppins-SemiBold, Poppins;font-weight: 700">ASSISTANT</text>
  <path d="M7,30.2v-9a3,3,0,0,1,3-3H44.2" style="fill: #fff;opacity: 0.1"/>
  <rect x="31" y="44.2" width="19" height="0.6" rx="0.3" ry="0.3" style="fill: #fff"/>
  <rect x="27" y="44.2" width="2" height="0.6" rx="0.3" ry="0.3" style="fill: #fff"/>
</svg>
