<svg id="Layer_1" data-name="Layer 1" xmlns="http://www.w3.org/2000/svg" width="65" height="65" viewBox="0 0 65 65">
  <title>news</title>
  <path d="M63.85,32.115A31.22128,31.22128,0,0,1,53.343,55.542q-.69824.61274-1.425,1.197a32.66553,32.66553,0,0,1-3.88553,2.6125,31.39123,31.39123,0,0,1-30.096.532L7.914,64.1585a.95521.95521,0,0,1-1.32051-.988L7.88553,52.445l.095-.798a32.51184,32.51184,0,0,1-2.451-3.534v-.00951a31.23982,31.23982,0,0,1-3.58146-8.892V39.202c-.11405-.513-.21854-1.01651-.304-1.539a27.46125,27.46125,0,0,1-.38-2.964c-.057-.63648-.095-1.28253-.10449-1.938C1.15,32.552,1.15,32.3335,1.15,32.115a31.67975,31.67975,0,0,1,1.6055-9.956,31.37063,31.37063,0,0,1,51.585-12.54,30.713,30.713,0,0,1,3.496,4.0375,29.0931,29.0931,0,0,1,2.36549,3.762V17.428a30.97124,30.97124,0,0,1,3.12554,9.006c.08547.46549.16148.94049.228,1.41549A30.157,30.157,0,0,1,63.85,32.115Z" style="fill: green"/>
  <path d="M52.26258,47.413H16.607c-1.47762,0-2.53772-.98147-2.3678-2.19217l1.66639-11.87331a2.92914,2.92914,0,0,1,2.98313-2.19217H54.5443c1.47762,0,2.53772.98147,2.3678,2.19217L55.24571,45.22078A2.92914,2.92914,0,0,1,52.26258,47.413Z" style="opacity: 0.2"/>
  <path d="M41.48016,34.40683H12.26537a1.90218,1.90218,0,0,1-1.92679-2.19217L11.776,20.34136a2.545,2.545,0,0,1,2.45755-2.19217h29.2148a1.90218,1.90218,0,0,1,1.92679,2.19217L43.93772,32.21466A2.545,2.545,0,0,1,41.48016,34.40683Z" style="opacity: 0.2"/>
  <path d="M51.07475,45.24526H13.75725A1.67839,1.67839,0,0,1,12.05714,43.311l1.36861-11.30527a2.2456,2.2456,0,0,1,2.16843-1.93427h37.3175a1.67839,1.67839,0,0,1,1.70011,1.93427L53.24318,43.311A2.2456,2.2456,0,0,1,51.07475,45.24526Z" style="fill: #fff"/>
  <g>
    <path d="M22.99512,35.78613h-2.373L19.25342,42.4248h-1.5957l1.36865-6.63867H16.68555l.27393-1.33008H23.269Z"/>
    <path d="M24.05811,42.4248h-1.543l1.2207-5.92187h1.543Zm-.09619-7.4541a.99839.99839,0,0,1,.35205-.58594,1.03543,1.03543,0,0,1,.67725-.23047.70689.70689,0,0,1,.58057.23047.67059.67059,0,0,1,.11377.58594.99808.99808,0,0,1-.3584.59082,1.03693,1.03693,0,0,1-.67285.22949.7067.7067,0,0,1-.57812-.22949A.67227.67227,0,0,1,23.96191,34.9707Z"/>
    <path d="M27.96045,36.50293l-.09326.68457a2.472,2.472,0,0,1,1.81787-.79395,1.33725,1.33725,0,0,1,1.24854.55273,2.36334,2.36334,0,0,1,.11621,1.65332l-.78857,3.8252H28.72412l.78076-3.78711a.92842.92842,0,0,0-.0625-.73047.7798.7798,0,0,0-.66113-.22754,1.33406,1.33406,0,0,0-1.09082.56934l-.86084,4.17578H25.29248l1.2207-5.92187Z"/>
    <path d="M37.502,35.04688l-.2998,1.45605h.98438l-.23926,1.16016h-.98437l-.60937,2.95605a.651.651,0,0,0,.02441.4707c.06348.09473.208.14258.43848.14258a2.5292,2.5292,0,0,0,.46094-.03906l-.248,1.19922a3.36478,3.36478,0,0,1-.959.1416q-1.61719,0-1.30371-1.67969l.6582-3.19141H34.584l.23926-1.16016h.84082l.2998-1.45605Z"/>
    <path d="M45.66113,35.9834a2.86089,2.86089,0,0,1-.68457,1.47461,2.09574,2.09574,0,0,1-1.31152.56641l-.90625,4.40039H41.3125l.08105-.60156a2.35283,2.35283,0,0,1-1.72168.71094,1.45908,1.45908,0,0,1-1.2998-.54687,2.10564,2.10564,0,0,1-.167-1.60352l.80078-3.88086H40.543l-.79,3.83008q-.19043.92578.62891.92578a1.38053,1.38053,0,0,0,1.18945-.55859l.86523-4.19727h1.543l-.15723.76074a.95592.95592,0,0,0,.57813-.33887,2.42611,2.42611,0,0,0,.33984-.94141Zm-3.34668-1.85547h1.67578L42.167,35.82422h-1.25Z"/>
    <path d="M47.10059,41.25879a1.192,1.192,0,0,0,.74219-.24023,1.10269,1.10269,0,0,0,.4082-.64062h1.44141a2.53147,2.53147,0,0,1-.54687,1.10352,2.8578,2.8578,0,0,1-1.01953.77637,2.982,2.982,0,0,1-1.26074.27637,1.991,1.991,0,0,1-1.78125-.80762,2.85821,2.85821,0,0,1-.25293-2.23047l.02051-.10254A3.99147,3.99147,0,0,1,46.00879,37.21a2.98422,2.98422,0,0,1,2.11133-.81641,1.95379,1.95379,0,0,1,1.60059.63281,1.93378,1.93378,0,0,1,.31543,1.68164H48.59473a.95613.95613,0,0,0-.12207-.751.73823.73823,0,0,0-.64258-.28809,1.14979,1.14979,0,0,0-.89453.40234,2.84986,2.84986,0,0,0-.543,1.30762l-.03418.16406a2.25565,2.25565,0,0,0,0,1.31641A.73965.73965,0,0,0,47.10059,41.25879Z"/>
  </g>
  <path d="M39.38525,32.23915H10.17045A1.90218,1.90218,0,0,1,8.24366,30.047L9.681,18.17367A2.545,2.545,0,0,1,12.1386,15.9815h29.2148a1.90218,1.90218,0,0,1,1.92679,2.19217L41.8428,30.047A2.545,2.545,0,0,1,39.38525,32.23915Z"/>
  <g>
    <path d="M18.147,21.27979h-2.373l-1.36865,6.63867h-1.5957l1.36865-6.63867H11.8374l.27393-1.33057H18.4209Z" style="fill: #fff"/>
    <path d="M21.39063,23.47949a3.92685,3.92685,0,0,0-.54443-.04395,1.40321,1.40321,0,0,0-1.269.6084l-.79883,3.87451H17.24121l1.2207-5.92236h1.45215l-.10254.707a1.81391,1.81391,0,0,1,1.4502-.81592,1.44942,1.44942,0,0,1,.46387.0708Z" style="fill: #fff"/>
    <path d="M21.48633,24.90283a4.26049,4.26049,0,0,1,.65674-1.57617,3.31076,3.31076,0,0,1,1.17432-1.06445,3.15481,3.15481,0,0,1,1.51367-.375,2.0471,2.0471,0,0,1,1.83105.84814,1.0497,1.0497,0,0,0,.43115-.48975,3.70957,3.70957,0,0,0,.25049-.80225h.93652a2.43609,2.43609,0,0,1-1.33984,1.92725,3.35839,3.35839,0,0,1-.001,1.53223l-.02393.11475a4.26191,4.26191,0,0,1-.65771,1.57617,3.31062,3.31062,0,0,1-1.165,1.06152,3.14052,3.14052,0,0,1-1.5166.37207,2.094,2.094,0,0,1-1.77441-.76025,2.58093,2.58093,0,0,1-.375-2.05225Zm.97119,4.34619a.89055.89055,0,0,1,.35107-.54248,1.06547,1.06547,0,0,1,.66113-.21338.74235.74235,0,0,1,.57813.21338.582.582,0,0,1,.12842.54248.903.903,0,0,1-.34912.5415,1.05939,1.05939,0,0,1-.66992.21875.72057.72057,0,0,1-.57715-.21875A.59962.59962,0,0,1,22.45752,29.249Zm.54834-4.23437a2.07336,2.07336,0,0,0,.04248,1.2915.79966.79966,0,0,0,.791.44629,1.25034,1.25034,0,0,0,.96338-.44385,3.00927,3.00927,0,0,0,.59912-1.40869,2.08153,2.08153,0,0,0-.04492-1.27979.79135.79135,0,0,0-.78857-.458,1.24668,1.24668,0,0,0-.96533.45215A3.01544,3.01544,0,0,0,23.00586,25.01465Z" style="fill: #fff"/>
    <path d="M31.78125,27.91846h-1.543l1.73291-8.40723h1.54346Z" style="fill: #fff"/>
    <path d="M35.65918,25.68018l1.82227-3.68408h1.64941l-3.72461,6.8418-.19141.3125a2.25192,2.25192,0,0,1-1.94238,1.16016,2.15662,2.15662,0,0,1-.65869-.104l.24707-1.19873.23291.00488a1.394,1.394,0,0,0,.67969-.13672,1.20569,1.20569,0,0,0,.43164-.45459l.28125-.48682-.793-5.93848h1.65527Zm1.60645-6.16895h1.67578L37.11816,21.208h-1.25Z" style="fill: #fff"/>
  </g>
  <line x1="27" y1="50" x2="40" y2="50" style="fill: none;stroke: #fff;stroke-linecap: round;stroke-miterlimit: 10"/>
  <line x1="44" y1="50" x2="50" y2="50" style="fill: none;stroke: #fff;stroke-linecap: round;stroke-miterlimit: 10"/>
</svg>
