<svg id="Layer_1" data-name="Layer 1" xmlns="http://www.w3.org/2000/svg" xmlns:xlink="http://www.w3.org/1999/xlink" width="65" height="65" viewBox="0 0 65 65">
  <defs>
    <linearGradient id="linear-gradient" x1="16.606" y1="57.1121" x2="46.85516" y2="4.71902" gradientUnits="userSpaceOnUse">
      <stop offset="0" stop-color="#301684"/>
      <stop offset="0.79208" stop-color="#d67bf0"/>
    </linearGradient>
    <clipPath id="clip-path">
      <rect x="13" y="26.68929" width="2.95932" height="10.81276" style="fill: none"/>
    </clipPath>
  </defs>
  <title>logo</title>
  <path d="M60.92611,33.55437a28.56436,28.56436,0,0,1-10.74218,18.625l-.858.64447a26.5376,26.5376,0,0,1-5.58644,3.16588,13.84477,13.84477,0,0,0-1.45737.70961L29.52924,63.98292a1.02842,1.02842,0,0,1-1.42988-1.353l2.218-4.43593c-.59238-.03421-1.18475-.10255-1.78846-.1823A28.70316,28.70316,0,1,1,60.92611,33.55437Z" style="fill: url(#linear-gradient)"/>
  <circle cx="32.5" cy="29.5" r="24.7" style="fill: none;stroke: #fff;stroke-miterlimit: 10"/>
  <g>
    <g style="isolation: isolate">
      <path d="M45.94707,28.59219a1.13144,1.13144,0,0,1-.14348.249l.25109.26676-.287.28455-.21522-.23119a1.44529,1.44529,0,0,1-.25109.16006.84414.84414,0,0,1-.3049.05335.73384.73384,0,0,1-.43045-.14227.49559.49559,0,0,1-.19729-.39125.48038.48038,0,0,1,.10761-.30233l.10761-.1067a.32164.32164,0,0,1,.12555-.08892.529.529,0,0,1-.17935-.39125.41173.41173,0,0,1,.16142-.3379.51972.51972,0,0,1,.35871-.12449.44864.44864,0,0,1,.34077.12449.44365.44365,0,0,1,.14348.32011.40582.40582,0,0,1-.07174.249.84194.84194,0,0,1-.17935.17784l.21522.21341.14348-.30233h.44838Zm-.95057,0a.40218.40218,0,0,0-.08968.08892.1913.1913,0,0,0-.05381.12449c0,.12449.07174.17784.21522.17784a.31688.31688,0,0,0,.23316-.1067Zm.07174-.80029c-.07174,0-.10761.03557-.10761.12449a.25134.25134,0,0,0,.03587.1067.31269.31269,0,0,0,.07174.08892l.03587-.03557c.01794-.01778.03587-.03557.03587-.05335a.2513.2513,0,0,0,.03587-.1067C45.17585,27.82747,45.14,27.7919,45.06824,27.7919Z" style="fill: #c8a98e"/>
    </g>
    <g style="isolation: isolate">
      <path d="M49.44444,27.93418a1.45706,1.45706,0,0,1-.41251,1.04926,1.42575,1.42575,0,0,1-1.05818.42682,1.47055,1.47055,0,0,1-1.04025-.409,1.37911,1.37911,0,0,1-.43045-1.0137,1.32418,1.32418,0,0,1,.43045-1.0137,1.45577,1.45577,0,0,1,1.04025-.39125,1.43739,1.43739,0,0,1,.843.26676,1.17,1.17,0,0,1,.52012.69358h-.78915a.66171.66171,0,0,0-.6098-.35568.68472.68472,0,0,0-.53806.23119.79149.79149,0,0,0-.21522.55131.844.844,0,0,0,.19729.56909.711.711,0,0,0,.556.249.79126.79126,0,0,0,.41251-.1067.60906.60906,0,0,0,.25109-.3379h-.825V27.7919h1.63211v.14227Z" style="fill: #c8a98e"/>
    </g>
    <g style="isolation: isolate">
      <path d="M50.03631,29.33912V26.60036h.69947v2.73876Z" style="fill: #c8a98e"/>
    </g>
    <g style="isolation: isolate">
      <path d="M53.22878,29.33912l-.14348-.39125h-.95057l-.14348.39125H51.238l1.112-2.73876h.556L54,29.33912ZM52.63692,27.454h0l-.287.92478h.57393Z" style="fill: #c8a98e"/>
    </g>
    <g style="isolation: isolate">
      <path d="M46.71828,32.87817a1.33092,1.33092,0,0,1-1.02231.39125H44.61986V32.149H44.3867v-.62245h.25109V30.47731h.95057a2.19255,2.19255,0,0,1,.35871.01778,1.44955,1.44955,0,0,1,.32284.07114,1.13243,1.13243,0,0,1,.53806.42682,1.39331,1.39331,0,0,1,.25109.87142A1.23892,1.23892,0,0,1,46.71828,32.87817Zm-.52012-1.565a.64117.64117,0,0,0-.52012-.21341h-.3049v.42682h.41251V32.149h-.41251v.498h.3049a.6796.6796,0,0,0,.53806-.21341.84354.84354,0,0,0,.16142-.55131A.9761.9761,0,0,0,46.19816,31.31316Z" style="fill: #c8a98e"/>
    </g>
    <g style="isolation: isolate">
      <path d="M48.06343,30.31725l-.95057-.409.19729-.4446.93263.48017Zm-.57393,2.95217v-2.8099h.71741v2.8099Z" style="fill: #c8a98e"/>
    </g>
    <g style="isolation: isolate">
      <path d="M50.48469,33.26942l-1.07612-1.70728h-.01794l.01794,1.70728H48.7091v-2.8099h.62773l1.09405,1.76063h0L50.395,30.45952h.69947v2.8099Z" style="fill: #c8a98e"/>
    </g>
    <g style="isolation: isolate">
      <path d="M53.28259,33.26942V32.149H52.35v1.1204h-.71741v-2.8099H52.35v1.04927h.93263V30.45952H54v2.8099Z" style="fill: #c8a98e"/>
    </g>
  </g>
  <g>
    <path d="M20.29965,23.27473h.843v3.82359a2.06385,2.06385,0,0,1,1.50656-.46239A2.41355,2.41355,0,0,1,25.178,29.07236v4.09035h-.843v-4.037A1.54053,1.54053,0,0,0,23.8329,27.952a1.70492,1.70492,0,0,0-1.20166-.498,1.71633,1.71633,0,0,0-1.5245.907v4.80172h-.843v-9.888Z" style="fill: #fff"/>
    <path d="M28.40639,33.25164a2.557,2.557,0,0,1-1.8832-.69358,2.44934,2.44934,0,0,1-.71741-1.74285V26.97383h.843v3.77024a1.54053,1.54053,0,0,0,.50219,1.17375,1.69727,1.69727,0,0,0,1.25547.498,1.63312,1.63312,0,0,0,1.20166-.498,1.54053,1.54053,0,0,0,.50219-1.17375V26.97383h.843v3.82359a2.41874,2.41874,0,0,1-.71741,1.74285,2.48455,2.48455,0,0,1-1.8294.71137m.44838.71137a.59212.59212,0,0,1,.19729.48017.65392.65392,0,0,1-.19729.48017.72951.72951,0,0,1-.48425.19563.66516.66516,0,0,1-.48425-.19563.6158.6158,0,0,1-.19729-.48017.65392.65392,0,0,1,.19729-.48017.7295.7295,0,0,1,.48425-.19563.66516.66516,0,0,1,.48425.19563" style="fill: #fff"/>
    <path d="M33.75109,28.4677v4.695h-.843v-6.1711h.843v.17784a2.16927,2.16927,0,0,1,1.5783-.53352,2.41355,2.41355,0,0,1,2.52887,2.43643v4.09035h-.825v-4.037a1.54053,1.54053,0,0,0-.50219-1.17375,1.70492,1.70492,0,0,0-1.20166-.498,1.68782,1.68782,0,0,0-1.20166.48017,1.62561,1.62561,0,0,0-.37664.53352" style="fill: #fff"/>
    <path d="M42.16273,24.5374c-.07174.3379-.17935.498-.3049.51574h-.01794a1.15975,1.15975,0,0,1-.6636-.3379,1.29171,1.29171,0,0,0-.78915-.30233,1.78136,1.78136,0,0,0-.3049.03557c-.37664.1067-.62773.51574-.73535,1.19154h.71741c.07174-.32011.17935-.498.3049-.498h.01794a1.227,1.227,0,0,1,.6636.32011,1.19282,1.19282,0,0,0,.78915.30233.9179.9179,0,0,0,.3049-.05335c.37664-.1067.6098-.51574.73535-1.19154h-.71741Z" style="fill: #fff"/>
    <path d="M43.59755,25.62224a.81838.81838,0,0,1-.21522.409.92722.92722,0,0,1-.32284.21341c-.12555.03557-.287.07114-.287.07114v4.57053a1.5764,1.5764,0,0,1-.50219,1.067,1.7876,1.7876,0,0,1-2.45713-.01778,1.54054,1.54054,0,0,1-.50219-1.17375v-3.788h-.843v3.82359a2.49132,2.49132,0,0,0,.71741,1.76063,2.557,2.557,0,0,0,1.8832.69358,2.41355,2.41355,0,0,0,2.52887-2.43643V26.86713A1.2196,1.2196,0,0,0,44.297,26.298a1.70276,1.70276,0,0,0,.16142-.6758Z" style="fill: #fff"/>
  </g>
  <g>
    <g style="isolation: isolate">
      <path d="M17.3224,37.07523a.09343.09343,0,0,1-.07174-.03557.69012.69012,0,0,1-.07174-.37347c0-.19563-.03587-.21341-.05381-.21341-.05381,0-.10761.03557-.21522.21341-.10761.14227-.17935.28455-.34077.28455a.221.221,0,0,1-.21522-.249c0-.409.10761-.81807.10761-1.067a.09209.09209,0,0,1,.17935,0c0,.26676-.10761.6758-.10761,1.067,0,.08892.03587.1067.05381.1067.03587,0,.07174-.03557.19729-.21341.10761-.16006.19729-.28455.35871-.28455.19729,0,.21522.17784.21522.3379a.59353.59353,0,0,0,.05381.32012v.03557A.08185.08185,0,0,1,17.3224,37.07523Z" style="fill: #fff"/>
      <path d="M18.21916,36.96852c0,.08892-.16142.08892-.25109.08892a.31388.31388,0,0,1-.34077-.32012,2.371,2.371,0,0,1,.05381-.39125c0-.03557.03587-.05335.08968-.05335a.08185.08185,0,0,1,.08968.07114v.01778a1.87679,1.87679,0,0,0-.05381.35568c0,.12449.05381.17784.16142.17784a.39806.39806,0,0,0,.14348-.01778h.01794A.08185.08185,0,0,1,18.21916,36.96852Zm-.21522-.99591a.08185.08185,0,0,1-.08968.07114c-.05381,0-.08968-.07114-.08968-.1067a.08185.08185,0,0,1,.08968-.07114C17.96807,35.86591,18.00394,35.937,18.00394,35.97261Z" style="fill: #fff"/>
      <path d="M18.43438,36.66619a.38672.38672,0,0,1,.41251-.37347.264.264,0,0,1,.287.23119c0,.17784-.17935.32012-.37664.37347a.268.268,0,0,0,.12555.01778.53834.53834,0,0,0,.3049-.07114h.03587c.03587,0,.08968.03557.08968.07114a.09533.09533,0,0,1-.05381.07114,1.00383,1.00383,0,0,1-.37664.07114A.39169.39169,0,0,1,18.43438,36.66619Zm.17935-.498c0-.01778,0-.01778.01794-.03557.07174-.08892.14348-.17784.269-.17784.16142,0,.21522.12449.25109.21341V36.186a.08185.08185,0,0,1-.08968.07114c-.03587,0-.07174-.01778-.07174-.05335-.03587-.1067-.07174-.12449-.08968-.12449s-.05381.01778-.12555.1067a.09343.09343,0,0,1-.07174.03557A.06271.06271,0,0,1,18.61374,36.16824Zm.25109.26676a.24079.24079,0,0,0-.25109.23119c0,.03557,0,.08892.01794.1067.16142,0,.34077-.14227.34077-.249A.116.116,0,0,0,18.86483,36.435Zm.16142-.51574a.065.065,0,0,1,.01793-.05335c.03587-.01778.07174-.05335.12555-.08892.03587-.01778.05381-.03557.05381-.07114,0-.01778-.01793-.01778-.03587-.01778-.03587,0-.07174.01778-.12555.07114-.01793.01778-.03587.01778-.07174.01778a.08185.08185,0,0,1-.08968-.07114c0-.01778,0-.03557.01793-.03557a.31414.31414,0,0,1,.25109-.12449.18212.18212,0,0,1,.19729.16006c0,.14227-.14348.19563-.21522.249a.06625.06625,0,0,1-.05381.01778C19.06212,35.97261,19.02625,35.95483,19.02625,35.91926Z" style="fill: #fff"/>
      <path d="M20.87358,36.933c0,.01778,0,.03557-.01793.03557a.35324.35324,0,0,1-.23316.08892.307.307,0,0,1-.287-.249.45906.45906,0,0,1-.41251.249.355.355,0,0,1-.39458-.3379.81218.81218,0,0,1,.03587-.23119c.01793-.03557.03587-.05335.07174-.05335a.08185.08185,0,0,1,.08968.07114.6251.6251,0,0,0-.03587.21341.18943.18943,0,0,0,.21522.21341c.287,0,.35871-.46239.35871-.498s.03587-.05335.08968-.05335a.08185.08185,0,0,1,.08968.07114c0,.21341.05381.48017.16142.48017.08968,0,.08968-.07114.16142-.07114S20.87358,36.89739,20.87358,36.933Z" style="fill: #fff"/>
      <path d="M22.84646,36.07932a2.80035,2.80035,0,0,0,.39458-.01778,3.14493,3.14493,0,0,0,.07174-.46239.09209.09209,0,0,1,.17935,0c0,.01778-.01793.12449-.01793.17784a1.384,1.384,0,0,1-.03587.249c.03587,0,.08968-.01778.12555-.01778h.01793c.03587,0,.08968.03557.08968.07114a.07683.07683,0,0,1-.07174.07114c-.05381,0-.10761.01778-.16142.01778a2.65108,2.65108,0,0,0-.03587.35568v.14227c0,.21341.12555.26676.12555.26676.03587.01778.03587.03557.03587.05335a.08185.08185,0,0,1-.08968.07114h-.03587a.43023.43023,0,0,1-.21522-.39125h0c-.19729.37347-.43045.39125-.53806.39125a.26528.26528,0,0,1-.287-.249.60058.60058,0,0,1,.59186-.51574.29705.29705,0,0,1,.17935.03557.4157.4157,0,0,0,.03587-.14227c-.10761,0-.23316.01778-.35871.01778-.03587,0-.08968-.03557-.08968-.07114S22.79265,36.07932,22.84646,36.07932Zm.14348.35568a.43975.43975,0,0,0-.41251.37347c0,.07114.03587.12449.10761.12449H22.703c.07174,0,.21522-.01778.37664-.37347a.17814.17814,0,0,1,.01793-.05335A.1211.1211,0,0,0,22.98994,36.435Z" style="fill: #fff"/>
      <path d="M24.353,36.96852c0,.08892-.16142.08892-.25109.08892a.31388.31388,0,0,1-.34077-.32012,2.371,2.371,0,0,1,.05381-.39125c0-.03557.03587-.05335.08968-.05335a.08185.08185,0,0,1,.08968.07114v.01778a1.87679,1.87679,0,0,0-.05381.35568c0,.12449.05381.17784.16142.17784a.39806.39806,0,0,0,.14348-.01778h.01793C24.29921,36.89739,24.353,36.933,24.353,36.96852Zm-.23316-.99591a.08185.08185,0,0,1-.08968.07114c-.05381,0-.08968-.07114-.08968-.10671a.08185.08185,0,0,1,.08968-.07114C24.10192,35.86591,24.11986,35.937,24.11986,35.97261Z" style="fill: #fff"/>
      <path d="M24.56824,36.66619a.38673.38673,0,0,1,.41251-.37347.264.264,0,0,1,.287.23119c0,.17784-.17935.32012-.37664.37347a.268.268,0,0,0,.12555.01778.53834.53834,0,0,0,.3049-.07114h.03587c.03587,0,.08968.03557.08968.07114a.09533.09533,0,0,1-.05381.07114,1.00383,1.00383,0,0,1-.37664.07114A.39169.39169,0,0,1,24.56824,36.66619ZM24.622,36.186a.065.065,0,0,1,.01793-.05335,1.11713,1.11713,0,0,1,.21522-.16006.30482.30482,0,0,1,.17935-.05335c.16142,0,.23316.12449.32284.26676v.03557a.08185.08185,0,0,1-.08968.07114.09344.09344,0,0,1-.07174-.03557c-.10761-.17784-.14348-.19563-.17935-.19563a.11155.11155,0,0,0-.07174.03557.86136.86136,0,0,0-.19729.16006.06624.06624,0,0,1-.05381.01779A.11834.11834,0,0,1,24.622,36.186Zm.35871.249a.24079.24079,0,0,0-.25109.23119c0,.03557,0,.08892.01793.1067.16142,0,.34077-.14227.34077-.249C25.1063,36.48835,25.05249,36.435,24.98075,36.435Zm-.12555-.88921a.09344.09344,0,0,1,.07174.03557.41242.41242,0,0,0,.287.14227.07683.07683,0,0,1,.07174.07114.08185.08185,0,0,1-.08968.07114H25.178a.69332.69332,0,0,1-.39458-.21341v-.03557C24.76553,35.58136,24.8014,35.54579,24.85521,35.54579Z" style="fill: #fff"/>
      <path d="M26.9895,36.933c0,.01778,0,.03557-.01793.03557a.35324.35324,0,0,1-.23316.08892.307.307,0,0,1-.287-.249.45906.45906,0,0,1-.41251.249.355.355,0,0,1-.39458-.3379.8122.8122,0,0,1,.03587-.23119c.01793-.03557.03587-.05335.07174-.05335a.08185.08185,0,0,1,.08968.07114.62511.62511,0,0,0-.03587.21341.18943.18943,0,0,0,.21522.21341c.287,0,.35871-.46239.35871-.498s.03587-.05335.08968-.05335a.08185.08185,0,0,1,.08968.07114c0,.21341.05381.48017.16142.48017.08968,0,.08968-.07114.16142-.07114S26.9895,36.89739,26.9895,36.933Z" style="fill: #fff"/>
      <path d="M29.24934,36.89739c.05381,0,.05381.01778.14348.01778a.22683.22683,0,0,0,.21522-.249.2113.2113,0,0,0-.21522-.23119c-.21522,0-.50219.28455-.59186,1.35159a.09209.09209,0,0,1-.17935,0,3.17467,3.17467,0,0,0-.10761-1.156v-.03557a.08185.08185,0,0,1,.08968-.07114.09344.09344,0,0,1,.07174.03557.87413.87413,0,0,1,.08968.37347c.12555-.42682.34077-.658.6098-.658a.37073.37073,0,0,1,.39458.37347.38342.38342,0,0,1-.39458.39125c-.10761,0-.21522-.01778-.21522-.08892C29.15967,36.933,29.21347,36.89739,29.24934,36.89739Z" style="fill: #fff"/>
      <path d="M30.97113,37.07523a.09344.09344,0,0,1-.07174-.03557.69012.69012,0,0,1-.07174-.37347c0-.19563-.03587-.21341-.05381-.21341-.05381,0-.10761.03557-.21522.21341-.10761.14227-.17935.28455-.34077.28455a.221.221,0,0,1-.21522-.249c0-.409.10761-.81807.10761-1.067a.09209.09209,0,0,1,.17935,0c0,.26676-.10761.6758-.10761,1.067,0,.08892.03587.1067.05381.1067.03587,0,.07174-.03557.19729-.21341.10761-.16006.19729-.28455.35871-.28455.19729,0,.21522.17784.21522.3379a.59352.59352,0,0,0,.05381.32012v.03557A.08185.08185,0,0,1,30.97113,37.07523Z" style="fill: #fff"/>
      <path d="M32.62117,36.933c0,.01778,0,.03557-.01793.03557a.35324.35324,0,0,1-.23316.08892.307.307,0,0,1-.287-.249.45906.45906,0,0,1-.41251.249.355.355,0,0,1-.39458-.3379.8122.8122,0,0,1,.03587-.23119c.01793-.03557.03587-.05335.07174-.05335a.08185.08185,0,0,1,.08968.07114.62511.62511,0,0,0-.03587.21341.18943.18943,0,0,0,.21522.21341c.287,0,.35871-.46239.35871-.498s.03587-.05335.08968-.05335c.03587,0,.08968.03557.08968.07114,0,.21341.05381.48017.16142.48017.08968,0,.08968-.07114.16142-.07114S32.62117,36.89739,32.62117,36.933Zm-.86089.48017c.05381,0,.14348.01778.14348.07114a.08185.08185,0,0,1-.08968.07114c-.05381,0-.14348-.01778-.14348-.07114A.08185.08185,0,0,1,31.76028,37.41313Z" style="fill: #fff"/>
      <path d="M35.49081,37.07523a.06625.06625,0,0,1-.05381-.01778c-.10761-.08892-.14348-.19563-.14348-.42682,0-.08892-.03587-.1067-.05381-.1067-.05381,0-.17935.03557-.48425.51574a.09343.09343,0,0,1-.07174.03557.08185.08185,0,0,1-.08968-.07114c0-.409-.10761-.55131-.19729-.55131a.27833.27833,0,0,0-.10761.05335.06625.06625,0,0,1-.05381.01778c-.03587,0-.08968-.03557-.08968-.07114a.065.065,0,0,1,.01793-.05335.37959.37959,0,0,1,.23316-.08892c.23316,0,.32284.21341.34077.4446.21522-.30233.34077-.37347.48425-.37347.19729,0,.21522.16006.21522.249,0,.23119.01793.26676.08968.32012a.065.065,0,0,1,.01793.05335C35.58049,37.03966,35.52668,37.07523,35.49081,37.07523Z" style="fill: #fff"/>
      <path d="M35.75984,35.97261h0a.25309.25309,0,0,1,.25109-.17784.29825.29825,0,0,1,.21522.08892c.03587.03557.05381.03557.12555.03557a.26816.26816,0,0,0,.16142-.07114.06625.06625,0,0,1,.05381-.01778c.03587,0,.08968.03557.08968.07114a.065.065,0,0,1-.01794.05335.46468.46468,0,0,1-.287.1067.39079.39079,0,0,1-.25109-.08892.09918.09918,0,0,0-.08968-.03557.09141.09141,0,0,0-.08968.07114c-.01793.03557-.03587.05335-.07174.05335C35.79571,36.04375,35.75984,36.00818,35.75984,35.97261Zm1.18373.07114c.08968,0,.10761.08892.10761.16006,0,.16006-.17935.26676-.34077.30233-.01794.12449-.12555.55131-.52012.55131a.355.355,0,0,1-.39458-.3379.8122.8122,0,0,1,.03587-.23119c.01793-.03557.03587-.05335.07174-.05335a.08185.08185,0,0,1,.08967.07114.62511.62511,0,0,0-.03587.21341.18943.18943,0,0,0,.21522.21341c.287,0,.35871-.46239.35871-.498a.08185.08185,0,0,1,.08968-.07114c.14348,0,.25109-.07114.25109-.16006,0-.03557-.03587-.05335-.03587-.08892S36.88976,36.04375,36.94357,36.04375Z" style="fill: #fff"/>
      <path d="M39.18548,36.47057h-.03587a.19563.19563,0,0,0-.10761-.01778.34734.34734,0,0,0-.34077.30233c0,.1067.08968.17784.21522.17784a.68014.68014,0,0,0,.37664-.1067c.01794,0,.03587-.01778.05381-.01778.03587,0,.08968.03557.08968.07114,0,.01778-.01794.03557-.03587.05335a.96688.96688,0,0,1-.46632.12449.3532.3532,0,0,1-.39458-.32012.49194.49194,0,0,1,.50219-.4446c.08968,0,.21522.01778.21522.08892C39.27515,36.435,39.23928,36.47057,39.18548,36.47057Z" style="fill: #fff"/>
      <path d="M40.44094,36.55949c-.03587,0-.07174-.01778-.07174-.05335a.15121.15121,0,0,0-.12555-.07114.43975.43975,0,0,0-.41251.37347c0,.07114.03587.12449.10761.12449a.681.681,0,0,0,.48425-.249c.01794-.01778.03587-.01778.07174-.01778a.08185.08185,0,0,1,.08968.07114.30014.30014,0,0,0,.07174.23119c0,.01778.01794.01778.01794.03557a.08185.08185,0,0,1-.08968.07114c-.08968,0-.12555-.12449-.14348-.19563a.87946.87946,0,0,1-.48425.19563.26528.26528,0,0,1-.287-.249.60058.60058,0,0,1,.59186-.51574.28879.28879,0,0,1,.269.16006v.01778A.08185.08185,0,0,1,40.44094,36.55949Zm-.556-.37347a.065.065,0,0,1,.01794-.05335,1.11713,1.11713,0,0,1,.21522-.16006.30483.30483,0,0,1,.17935-.05335c.16142,0,.23316.12449.32284.26676v.03557a.08185.08185,0,0,1-.08968.07114.09343.09343,0,0,1-.07174-.03557c-.10761-.17784-.14348-.19563-.17935-.19563a.11154.11154,0,0,0-.07174.03557.86143.86143,0,0,0-.19729.16006.06625.06625,0,0,1-.05381.01778A.11834.11834,0,0,1,39.885,36.186Zm.23316-.64023a.09343.09343,0,0,1,.07174.03557.41242.41242,0,0,0,.287.14227.07683.07683,0,0,1,.07174.07114.08185.08185,0,0,1-.08968.07114h-.01793a.69332.69332,0,0,1-.39458-.21341v-.03557C40.02843,35.58136,40.0643,35.54579,40.11811,35.54579Z" style="fill: #fff"/>
      <path d="M42.23447,37.07523a.06625.06625,0,0,1-.05381-.01778c-.10761-.08892-.14348-.19563-.14348-.42682,0-.08892-.03587-.1067-.05381-.1067-.05381,0-.17935.03557-.48425.51574a.09343.09343,0,0,1-.07174.03557.08185.08185,0,0,1-.08968-.07114c0-.409-.10761-.55131-.19729-.55131a.27833.27833,0,0,0-.10761.05335.06625.06625,0,0,1-.05381.01778c-.03587,0-.08968-.03557-.08968-.07114a.065.065,0,0,1,.01794-.05335.37959.37959,0,0,1,.23316-.08892c.23316,0,.32284.21341.34077.4446.21522-.30233.34077-.37347.48425-.37347.19729,0,.21522.16006.21522.249,0,.23119.01794.26676.08968.32012a.065.065,0,0,1,.01794.05335C42.30621,37.03966,42.27034,37.07523,42.23447,37.07523Z" style="fill: #fff"/>
    </g>
    <g style="isolation: isolate">
      <path d="M17.3224,37.07523a.09343.09343,0,0,1-.07174-.03557.69012.69012,0,0,1-.07174-.37347c0-.19563-.03587-.21341-.05381-.21341-.05381,0-.10761.03557-.21522.21341-.10761.14227-.17935.28455-.34077.28455a.221.221,0,0,1-.21522-.249c0-.409.10761-.81807.10761-1.067a.09209.09209,0,0,1,.17935,0c0,.26676-.10761.6758-.10761,1.067,0,.08892.03587.1067.05381.1067.03587,0,.07174-.03557.19729-.21341.10761-.16006.19729-.28455.35871-.28455.19729,0,.21522.17784.21522.3379a.59353.59353,0,0,0,.05381.32012v.03557A.08185.08185,0,0,1,17.3224,37.07523Z" style="fill: none;stroke: #fff;stroke-miterlimit: 10;stroke-width: 0.044648856168843246px"/>
      <path d="M18.21916,36.96852c0,.08892-.16142.08892-.25109.08892a.31388.31388,0,0,1-.34077-.32012,2.371,2.371,0,0,1,.05381-.39125c0-.03557.03587-.05335.08968-.05335a.08185.08185,0,0,1,.08968.07114v.01778a1.87679,1.87679,0,0,0-.05381.35568c0,.12449.05381.17784.16142.17784a.39806.39806,0,0,0,.14348-.01778h.01794A.08185.08185,0,0,1,18.21916,36.96852Zm-.21522-.99591a.08185.08185,0,0,1-.08968.07114c-.05381,0-.08968-.07114-.08968-.1067a.08185.08185,0,0,1,.08968-.07114C17.96807,35.86591,18.00394,35.937,18.00394,35.97261Z" style="fill: none;stroke: #fff;stroke-miterlimit: 10;stroke-width: 0.044648856168843246px"/>
      <path d="M18.43438,36.66619a.38672.38672,0,0,1,.41251-.37347.264.264,0,0,1,.287.23119c0,.17784-.17935.32012-.37664.37347a.268.268,0,0,0,.12555.01778.53834.53834,0,0,0,.3049-.07114h.03587c.03587,0,.08968.03557.08968.07114a.09533.09533,0,0,1-.05381.07114,1.00383,1.00383,0,0,1-.37664.07114A.39169.39169,0,0,1,18.43438,36.66619Zm.17935-.498c0-.01778,0-.01778.01794-.03557.07174-.08892.14348-.17784.269-.17784.16142,0,.21522.12449.25109.21341V36.186a.08185.08185,0,0,1-.08968.07114c-.03587,0-.07174-.01778-.07174-.05335-.03587-.1067-.07174-.12449-.08968-.12449s-.05381.01778-.12555.1067a.09343.09343,0,0,1-.07174.03557A.06271.06271,0,0,1,18.61374,36.16824Zm.25109.26676a.24079.24079,0,0,0-.25109.23119c0,.03557,0,.08892.01794.1067.16142,0,.34077-.14227.34077-.249A.116.116,0,0,0,18.86483,36.435Zm.16142-.51574a.065.065,0,0,1,.01793-.05335c.03587-.01778.07174-.05335.12555-.08892.03587-.01778.05381-.03557.05381-.07114,0-.01778-.01793-.01778-.03587-.01778-.03587,0-.07174.01778-.12555.07114-.01793.01778-.03587.01778-.07174.01778a.08185.08185,0,0,1-.08968-.07114c0-.01778,0-.03557.01793-.03557a.31414.31414,0,0,1,.25109-.12449.18212.18212,0,0,1,.19729.16006c0,.14227-.14348.19563-.21522.249a.06625.06625,0,0,1-.05381.01778C19.06212,35.97261,19.02625,35.95483,19.02625,35.91926Z" style="fill: none;stroke: #fff;stroke-miterlimit: 10;stroke-width: 0.044648856168843246px"/>
      <path d="M20.87358,36.933c0,.01778,0,.03557-.01793.03557a.35324.35324,0,0,1-.23316.08892.307.307,0,0,1-.287-.249.45906.45906,0,0,1-.41251.249.355.355,0,0,1-.39458-.3379.81218.81218,0,0,1,.03587-.23119c.01793-.03557.03587-.05335.07174-.05335a.08185.08185,0,0,1,.08968.07114.6251.6251,0,0,0-.03587.21341.18943.18943,0,0,0,.21522.21341c.287,0,.35871-.46239.35871-.498s.03587-.05335.08968-.05335a.08185.08185,0,0,1,.08968.07114c0,.21341.05381.48017.16142.48017.08968,0,.08968-.07114.16142-.07114S20.87358,36.89739,20.87358,36.933Z" style="fill: none;stroke: #fff;stroke-miterlimit: 10;stroke-width: 0.044648856168843246px"/>
      <path d="M22.84646,36.07932a2.80035,2.80035,0,0,0,.39458-.01778,3.14493,3.14493,0,0,0,.07174-.46239.09209.09209,0,0,1,.17935,0c0,.01778-.01793.12449-.01793.17784a1.384,1.384,0,0,1-.03587.249c.03587,0,.08968-.01778.12555-.01778h.01793c.03587,0,.08968.03557.08968.07114a.07683.07683,0,0,1-.07174.07114c-.05381,0-.10761.01778-.16142.01778a2.65108,2.65108,0,0,0-.03587.35568v.14227c0,.21341.12555.26676.12555.26676.03587.01778.03587.03557.03587.05335a.08185.08185,0,0,1-.08968.07114h-.03587a.43023.43023,0,0,1-.21522-.39125h0c-.19729.37347-.43045.39125-.53806.39125a.26528.26528,0,0,1-.287-.249.60058.60058,0,0,1,.59186-.51574.29705.29705,0,0,1,.17935.03557.4157.4157,0,0,0,.03587-.14227c-.10761,0-.23316.01778-.35871.01778-.03587,0-.08968-.03557-.08968-.07114S22.79265,36.07932,22.84646,36.07932Zm.14348.35568a.43975.43975,0,0,0-.41251.37347c0,.07114.03587.12449.10761.12449H22.703c.07174,0,.21522-.01778.37664-.37347a.17814.17814,0,0,1,.01793-.05335A.1211.1211,0,0,0,22.98994,36.435Z" style="fill: none;stroke: #fff;stroke-miterlimit: 10;stroke-width: 0.044648856168843246px"/>
      <path d="M24.353,36.96852c0,.08892-.16142.08892-.25109.08892a.31388.31388,0,0,1-.34077-.32012,2.371,2.371,0,0,1,.05381-.39125c0-.03557.03587-.05335.08968-.05335a.08185.08185,0,0,1,.08968.07114v.01778a1.87679,1.87679,0,0,0-.05381.35568c0,.12449.05381.17784.16142.17784a.39806.39806,0,0,0,.14348-.01778h.01793C24.29921,36.89739,24.353,36.933,24.353,36.96852Zm-.23316-.99591a.08185.08185,0,0,1-.08968.07114c-.05381,0-.08968-.07114-.08968-.10671a.08185.08185,0,0,1,.08968-.07114C24.10192,35.86591,24.11986,35.937,24.11986,35.97261Z" style="fill: none;stroke: #fff;stroke-miterlimit: 10;stroke-width: 0.044648856168843246px"/>
      <path d="M24.56824,36.66619a.38673.38673,0,0,1,.41251-.37347.264.264,0,0,1,.287.23119c0,.17784-.17935.32012-.37664.37347a.268.268,0,0,0,.12555.01778.53834.53834,0,0,0,.3049-.07114h.03587c.03587,0,.08968.03557.08968.07114a.09533.09533,0,0,1-.05381.07114,1.00383,1.00383,0,0,1-.37664.07114A.39169.39169,0,0,1,24.56824,36.66619ZM24.622,36.186a.065.065,0,0,1,.01793-.05335,1.11713,1.11713,0,0,1,.21522-.16006.30482.30482,0,0,1,.17935-.05335c.16142,0,.23316.12449.32284.26676v.03557a.08185.08185,0,0,1-.08968.07114.09344.09344,0,0,1-.07174-.03557c-.10761-.17784-.14348-.19563-.17935-.19563a.11155.11155,0,0,0-.07174.03557.86136.86136,0,0,0-.19729.16006.06624.06624,0,0,1-.05381.01779A.11834.11834,0,0,1,24.622,36.186Zm.35871.249a.24079.24079,0,0,0-.25109.23119c0,.03557,0,.08892.01793.1067.16142,0,.34077-.14227.34077-.249C25.1063,36.48835,25.05249,36.435,24.98075,36.435Zm-.12555-.88921a.09344.09344,0,0,1,.07174.03557.41242.41242,0,0,0,.287.14227.07683.07683,0,0,1,.07174.07114.08185.08185,0,0,1-.08968.07114H25.178a.69332.69332,0,0,1-.39458-.21341v-.03557C24.76553,35.58136,24.8014,35.54579,24.85521,35.54579Z" style="fill: none;stroke: #fff;stroke-miterlimit: 10;stroke-width: 0.044648856168843246px"/>
      <path d="M26.9895,36.933c0,.01778,0,.03557-.01793.03557a.35324.35324,0,0,1-.23316.08892.307.307,0,0,1-.287-.249.45906.45906,0,0,1-.41251.249.355.355,0,0,1-.39458-.3379.8122.8122,0,0,1,.03587-.23119c.01793-.03557.03587-.05335.07174-.05335a.08185.08185,0,0,1,.08968.07114.62511.62511,0,0,0-.03587.21341.18943.18943,0,0,0,.21522.21341c.287,0,.35871-.46239.35871-.498s.03587-.05335.08968-.05335a.08185.08185,0,0,1,.08968.07114c0,.21341.05381.48017.16142.48017.08968,0,.08968-.07114.16142-.07114S26.9895,36.89739,26.9895,36.933Z" style="fill: none;stroke: #fff;stroke-miterlimit: 10;stroke-width: 0.044648856168843246px"/>
      <path d="M29.24934,36.89739c.05381,0,.05381.01778.14348.01778a.22683.22683,0,0,0,.21522-.249.2113.2113,0,0,0-.21522-.23119c-.21522,0-.50219.28455-.59186,1.35159a.09209.09209,0,0,1-.17935,0,3.17467,3.17467,0,0,0-.10761-1.156v-.03557a.08185.08185,0,0,1,.08968-.07114.09344.09344,0,0,1,.07174.03557.87413.87413,0,0,1,.08968.37347c.12555-.42682.34077-.658.6098-.658a.37073.37073,0,0,1,.39458.37347.38342.38342,0,0,1-.39458.39125c-.10761,0-.21522-.01778-.21522-.08892C29.15967,36.933,29.21347,36.89739,29.24934,36.89739Z" style="fill: none;stroke: #fff;stroke-miterlimit: 10;stroke-width: 0.044648856168843246px"/>
      <path d="M30.97113,37.07523a.09344.09344,0,0,1-.07174-.03557.69012.69012,0,0,1-.07174-.37347c0-.19563-.03587-.21341-.05381-.21341-.05381,0-.10761.03557-.21522.21341-.10761.14227-.17935.28455-.34077.28455a.221.221,0,0,1-.21522-.249c0-.409.10761-.81807.10761-1.067a.09209.09209,0,0,1,.17935,0c0,.26676-.10761.6758-.10761,1.067,0,.08892.03587.1067.05381.1067.03587,0,.07174-.03557.19729-.21341.10761-.16006.19729-.28455.35871-.28455.19729,0,.21522.17784.21522.3379a.59352.59352,0,0,0,.05381.32012v.03557A.08185.08185,0,0,1,30.97113,37.07523Z" style="fill: none;stroke: #fff;stroke-miterlimit: 10;stroke-width: 0.044648856168843246px"/>
      <path d="M32.62117,36.933c0,.01778,0,.03557-.01793.03557a.35324.35324,0,0,1-.23316.08892.307.307,0,0,1-.287-.249.45906.45906,0,0,1-.41251.249.355.355,0,0,1-.39458-.3379.8122.8122,0,0,1,.03587-.23119c.01793-.03557.03587-.05335.07174-.05335a.08185.08185,0,0,1,.08968.07114.62511.62511,0,0,0-.03587.21341.18943.18943,0,0,0,.21522.21341c.287,0,.35871-.46239.35871-.498s.03587-.05335.08968-.05335c.03587,0,.08968.03557.08968.07114,0,.21341.05381.48017.16142.48017.08968,0,.08968-.07114.16142-.07114S32.62117,36.89739,32.62117,36.933Zm-.86089.48017c.05381,0,.14348.01778.14348.07114a.08185.08185,0,0,1-.08968.07114c-.05381,0-.14348-.01778-.14348-.07114A.08185.08185,0,0,1,31.76028,37.41313Z" style="fill: none;stroke: #fff;stroke-miterlimit: 10;stroke-width: 0.044648856168843246px"/>
      <path d="M35.49081,37.07523a.06625.06625,0,0,1-.05381-.01778c-.10761-.08892-.14348-.19563-.14348-.42682,0-.08892-.03587-.1067-.05381-.1067-.05381,0-.17935.03557-.48425.51574a.09343.09343,0,0,1-.07174.03557.08185.08185,0,0,1-.08968-.07114c0-.409-.10761-.55131-.19729-.55131a.27833.27833,0,0,0-.10761.05335.06625.06625,0,0,1-.05381.01778c-.03587,0-.08968-.03557-.08968-.07114a.065.065,0,0,1,.01793-.05335.37959.37959,0,0,1,.23316-.08892c.23316,0,.32284.21341.34077.4446.21522-.30233.34077-.37347.48425-.37347.19729,0,.21522.16006.21522.249,0,.23119.01793.26676.08968.32012a.065.065,0,0,1,.01793.05335C35.58049,37.03966,35.52668,37.07523,35.49081,37.07523Z" style="fill: none;stroke: #fff;stroke-miterlimit: 10;stroke-width: 0.044648856168843246px"/>
      <path d="M35.75984,35.97261h0a.25309.25309,0,0,1,.25109-.17784.29825.29825,0,0,1,.21522.08892c.03587.03557.05381.03557.12555.03557a.26816.26816,0,0,0,.16142-.07114.06625.06625,0,0,1,.05381-.01778c.03587,0,.08968.03557.08968.07114a.065.065,0,0,1-.01794.05335.46468.46468,0,0,1-.287.1067.39079.39079,0,0,1-.25109-.08892.09918.09918,0,0,0-.08968-.03557.09141.09141,0,0,0-.08968.07114c-.01793.03557-.03587.05335-.07174.05335C35.79571,36.04375,35.75984,36.00818,35.75984,35.97261Zm1.18373.07114c.08968,0,.10761.08892.10761.16006,0,.16006-.17935.26676-.34077.30233-.01794.12449-.12555.55131-.52012.55131a.355.355,0,0,1-.39458-.3379.8122.8122,0,0,1,.03587-.23119c.01793-.03557.03587-.05335.07174-.05335a.08185.08185,0,0,1,.08967.07114.62511.62511,0,0,0-.03587.21341.18943.18943,0,0,0,.21522.21341c.287,0,.35871-.46239.35871-.498a.08185.08185,0,0,1,.08968-.07114c.14348,0,.25109-.07114.25109-.16006,0-.03557-.03587-.05335-.03587-.08892S36.88976,36.04375,36.94357,36.04375Z" style="fill: none;stroke: #fff;stroke-miterlimit: 10;stroke-width: 0.044648856168843246px"/>
      <path d="M39.18548,36.47057h-.03587a.19563.19563,0,0,0-.10761-.01778.34734.34734,0,0,0-.34077.30233c0,.1067.08968.17784.21522.17784a.68014.68014,0,0,0,.37664-.1067c.01794,0,.03587-.01778.05381-.01778.03587,0,.08968.03557.08968.07114,0,.01778-.01794.03557-.03587.05335a.96688.96688,0,0,1-.46632.12449.3532.3532,0,0,1-.39458-.32012.49194.49194,0,0,1,.50219-.4446c.08968,0,.21522.01778.21522.08892C39.27515,36.435,39.23928,36.47057,39.18548,36.47057Z" style="fill: none;stroke: #fff;stroke-miterlimit: 10;stroke-width: 0.044648856168843246px"/>
      <path d="M40.44094,36.55949c-.03587,0-.07174-.01778-.07174-.05335a.15121.15121,0,0,0-.12555-.07114.43975.43975,0,0,0-.41251.37347c0,.07114.03587.12449.10761.12449a.681.681,0,0,0,.48425-.249c.01794-.01778.03587-.01778.07174-.01778a.08185.08185,0,0,1,.08968.07114.30014.30014,0,0,0,.07174.23119c0,.01778.01794.01778.01794.03557a.08185.08185,0,0,1-.08968.07114c-.08968,0-.12555-.12449-.14348-.19563a.87946.87946,0,0,1-.48425.19563.26528.26528,0,0,1-.287-.249.60058.60058,0,0,1,.59186-.51574.28879.28879,0,0,1,.269.16006v.01778A.08185.08185,0,0,1,40.44094,36.55949Zm-.556-.37347a.065.065,0,0,1,.01794-.05335,1.11713,1.11713,0,0,1,.21522-.16006.30483.30483,0,0,1,.17935-.05335c.16142,0,.23316.12449.32284.26676v.03557a.08185.08185,0,0,1-.08968.07114.09343.09343,0,0,1-.07174-.03557c-.10761-.17784-.14348-.19563-.17935-.19563a.11154.11154,0,0,0-.07174.03557.86143.86143,0,0,0-.19729.16006.06625.06625,0,0,1-.05381.01778A.11834.11834,0,0,1,39.885,36.186Zm.23316-.64023a.09343.09343,0,0,1,.07174.03557.41242.41242,0,0,0,.287.14227.07683.07683,0,0,1,.07174.07114.08185.08185,0,0,1-.08968.07114h-.01793a.69332.69332,0,0,1-.39458-.21341v-.03557C40.02843,35.58136,40.0643,35.54579,40.11811,35.54579Z" style="fill: none;stroke: #fff;stroke-miterlimit: 10;stroke-width: 0.044648856168843246px"/>
      <path d="M42.23447,37.07523a.06625.06625,0,0,1-.05381-.01778c-.10761-.08892-.14348-.19563-.14348-.42682,0-.08892-.03587-.1067-.05381-.1067-.05381,0-.17935.03557-.48425.51574a.09343.09343,0,0,1-.07174.03557.08185.08185,0,0,1-.08968-.07114c0-.409-.10761-.55131-.19729-.55131a.27833.27833,0,0,0-.10761.05335.06625.06625,0,0,1-.05381.01778c-.03587,0-.08968-.03557-.08968-.07114a.065.065,0,0,1,.01794-.05335.37959.37959,0,0,1,.23316-.08892c.23316,0,.32284.21341.34077.4446.21522-.30233.34077-.37347.48425-.37347.19729,0,.21522.16006.21522.249,0,.23119.01794.26676.08968.32012a.065.065,0,0,1,.01794.05335C42.30621,37.03966,42.27034,37.07523,42.23447,37.07523Z" style="fill: none;stroke: #fff;stroke-miterlimit: 10;stroke-width: 0.044648856168843246px"/>
    </g>
  </g>
  <g style="clip-path: url(#clip-path)">
    <path d="M14.43482,37.2175a2.09832,2.09832,0,0,0,.89676-.81807,1.86774,1.86774,0,0,0-.34077-1.58279c-.35871-.62245-.73535-1.22711-1.07612-1.84955a4.64051,4.64051,0,0,1-.77122-2.50757,3.53288,3.53288,0,0,1,1.61417-2.9166,3.15155,3.15155,0,0,1,4.66317,3.13,2.86806,2.86806,0,0,1-1.8832,2.472,1.69683,1.69683,0,0,1-.78915.01778c-.23316-.05335-.43045-.21341-.6636-.17784-.287.03557.6636,0,.41251-.12449-.05381-.03557-.32283-.26676-.287-.35568.08968-.21341.14348.62245.07174.12449.03587.30233.9147.03557,1.112-.05335a2.1607,2.1607,0,0,0,1.02231-1.156c.44838-1.03148.01794-1.84955-.17935-2.84546a2.12009,2.12009,0,0,0-.37664-1.03148c-.25109-.26676-.75328-.249-1.09405-.249a2.861,2.861,0,0,0-2.51094,1.22711,2.9,2.9,0,0,0-.48425,2.63205,11.377,11.377,0,0,0,.9685,2.063,13.82779,13.82779,0,0,1,1.00437,1.9029c.35871,1.0137-.39458,1.74285-1.30927,2.09853" style="fill: #fff"/>
  </g>
  <path d="M16.64086,27.0094a3.1713,3.1713,0,0,0-3.15661,3.13,3.08439,3.08439,0,0,0,1.20166,2.43643c.43045-.12449.87883-.85364.50219-1.20932s-.9147-.72915-.77122-1.316a.59891.59891,0,0,0,.98644.39125c.37664-.3379-.16142-.94256-.46632-.51574.46632-.08892.287.58688-.14348.30233-.6098-.39125.19729-.7825.53806-.83586a1.96361,1.96361,0,0,0,1.73972-2.32972,1.08826,1.08826,0,0,1,.34077,1.10262c-.01794.21341-.10761.4446-.10761.658.01794.21341.35871.3379.46632.14227a.31974.31974,0,0,1-.287.17784c.37664.39125,1.00437.74693.21522,1.08483,0,.12449.32283.1067.17935.32011-.07174.07114-.34077.16006-.35871.23119,0,.03557.41251.03557.21522.26676-.05381.05335-.34077.1067-.25109.23119.25109.35568.19729.658-.32283.62245-.43045-.01778-1.05818-.19563-1.36308.21341-.12555.16006-.21522.83586-.39458.907a3.1355,3.1355,0,0,0,1.23753.249,3.13012,3.13012,0,1,0,0-6.26Z" style="fill: #fff"/>
</svg>
