<svg id="Layer_1" data-name="Layer 1" xmlns="http://www.w3.org/2000/svg" xmlns:xlink="http://www.w3.org/1999/xlink" width="65" height="65" viewBox="0 0 65 65">
  <defs>
    <linearGradient id="linear-gradient" x1="16.606" y1="58.1121" x2="46.85516" y2="5.71902" gradientUnits="userSpaceOnUse">
      <stop offset="0" stop-color="#301684"/>
      <stop offset="0.79208" stop-color="#d67bf0"/>
    </linearGradient>
  </defs>
  <title>news</title>
  <path d="M60.92611,34.55437a28.56436,28.56436,0,0,1-10.74218,18.625l-.858.64447a26.5376,26.5376,0,0,1-5.58644,3.16588,13.84477,13.84477,0,0,0-1.45737.70961L29.52924,64.98292a1.02842,1.02842,0,0,1-1.42988-1.353l2.218-4.43593c-.59238-.03421-1.18475-.10255-1.78846-.1823A28.70316,28.70316,0,1,1,60.92611,34.55437Z" style="fill: url(#linear-gradient)"/>
  <rect x="10" y="21" width="33" height="14" rx="3" ry="3" style="opacity: 0.2"/>
  <rect x="18" y="34" width="38" height="12" rx="3" ry="3" style="opacity: 0.2"/>
  <rect x="17" y="31" width="37" height="13" rx="2" ry="2" style="fill: #fff"/>
  <rect x="8" y="19" width="33" height="14" rx="3" ry="3"/>
  <g>
    <path d="M26.37891,35.41113H24.38037l.01367,5.59277H23.0498l-.01367-5.59277H21.064L21.06152,34.291h5.31494Z"/>
    <path d="M27.0498,34.72461a.664.664,0,0,1,.19385-.49316.8193.8193,0,0,1,1.05957,0,.718.718,0,0,1,.00049.99121.81379.81379,0,0,1-1.05322,0A.66649.66649,0,0,1,27.0498,34.72461Zm1.39111,6.2793h-1.2998l-.01221-4.98828h1.2998Z"/>
    <path d="M30.687,36.01563l.042.57617a1.67154,1.67154,0,0,1,1.39209-.66895,1.39071,1.39071,0,0,1,1.14844.46582,2.21594,2.21594,0,0,1,.38867,1.39258l.00781,3.22266H32.37109l-.00781-3.19043a.87788.87788,0,0,0-.18115-.61523.78661.78661,0,0,0-.59619-.19141.88221.88221,0,0,0-.81885.47949l.0083,3.51758H29.48047l-.01221-4.98828Z"/>
    <path d="M38.46875,34.78906l.00293,1.22656h.8291l.00293.97754h-.8291l.00586,2.48926a.60269.60269,0,0,0,.10449.39648.50732.50732,0,0,0,.39453.12012,2.00868,2.00868,0,0,0,.38086-.03223l.002,1.00977a2.61852,2.61852,0,0,1-.78418.11914,1.25752,1.25752,0,0,1-1.39258-1.415l-.00586-2.6875h-.708l-.00293-.97754h.708l-.00293-1.22656Z"/>
    <path d="M45.50684,35.57715a1.98618,1.98618,0,0,1-.31738,1.24316,1.40782,1.40782,0,0,1-1.00488.47656l.00879,3.707H42.97461l-.03711-.50684a1.602,1.602,0,0,1-1.3252.59863,1.50984,1.50984,0,0,1-1.19043-.46094,2.00671,2.00671,0,0,1-.42285-1.35059l-.00781-3.26855h1.29492l.00781,3.22656q.00293.7793.69238.7793a.92548.92548,0,0,0,.9043-.4707l-.00879-3.53516h1.2998l.001.64063a.61682.61682,0,0,0,.42773-.28613,1.75677,1.75677,0,0,0,.12109-.793Zm-3.14551-1.5625h1.41211l-1.23828,1.42871H41.48242Z"/>
    <path d="M47.64648,40.02148a.83634.83634,0,0,0,.582-.20215.72342.72342,0,0,0,.23145-.54H49.6748a1.7556,1.7556,0,0,1-.2666.92969,1.78814,1.78814,0,0,1-.72266.6543,2.20932,2.20932,0,0,1-1.01465.23242,2.08055,2.08055,0,0,1-1.6416-.67969,2.74577,2.74577,0,0,1-.60547-1.87891V38.4502a2.70242,2.70242,0,0,1,.5918-1.83984,2.047,2.047,0,0,1,1.63379-.6875,2.00945,2.00945,0,0,1,1.46.5332,1.91612,1.91612,0,0,1,.56152,1.417H48.45605a.92508.92508,0,0,0-.23437-.63184.84817.84817,0,0,0-1.27441.0957,2.01375,2.01375,0,0,0-.22852,1.10156l.001.1377a2.04454,2.04454,0,0,0,.23047,1.1084A.78534.78534,0,0,0,47.64648,40.02148Z"/>
  </g>
  <g>
    <path d="M18.00293,23.10449H16.00439l.01367,5.59229H14.67383l-.01367-5.59229H12.688l-.00293-1.12061H18Z" style="fill: #fff"/>
    <path d="M21.12207,24.95752a3.44459,3.44459,0,0,0-.46582-.03662.94114.94114,0,0,0-.96289.51172l.0083,3.26416H18.40674l-.01221-4.98828h1.22314l.0376.59473a1.19178,1.19178,0,0,1,1.07813-.687,1.34158,1.34158,0,0,1,.40381.05957Z" style="fill: #fff"/>
    <path d="M21.45215,26.15625a3.023,3.023,0,0,1,.27686-1.32764,2.06165,2.06165,0,0,1,.80273-.897,2.29275,2.29275,0,0,1,1.209-.31543,2.1413,2.1413,0,0,1,1.69141.71436.664.664,0,0,0,.27686-.4126,2.73061,2.73061,0,0,0,.06982-.67529h.78857a1.59617,1.59617,0,0,1-.78857,1.623,3.03418,3.03418,0,0,1,.26709,1.29053l.00049.09717a3.01625,3.01625,0,0,1-.27734,1.32764,2.058,2.058,0,0,1-.79492.89453,2.29274,2.29274,0,0,1-1.21191.31348,2.1724,2.1724,0,0,1-1.62842-.64111,2.55552,2.55552,0,0,1-.67627-1.72852Zm1.2998.09473a1.91248,1.91248,0,0,0,.2627,1.0874.85223.85223,0,0,0,.74512.37646.84046.84046,0,0,0,.73389-.374,2.11222,2.11222,0,0,0,.25732-1.187,1.918,1.918,0,0,0-.2627-1.07812.8467.8467,0,0,0-.74463-.38525.83607.83607,0,0,0-.73437.38086A2.11926,2.11926,0,0,0,22.752,26.251Zm.28223,3.56592a.58378.58378,0,0,1,.20068-.45605.74843.74843,0,0,1,.51953-.18018.75857.75857,0,0,1,.52441.18018.58391.58391,0,0,1,.20264.45605.59564.59564,0,0,1-.19775.45654.84006.84006,0,0,1-1.05078,0A.59989.59989,0,0,1,23.03418,29.81689Z" style="fill: #fff"/>
    <path d="M30.65479,28.69678H29.355l-.01758-7.08154h1.2998Z" style="fill: #fff"/>
    <path d="M33.52734,26.811l.8877-3.10254h1.38965l-1.93555,5.7627-.10645.2627a1.47334,1.47334,0,0,1-1.43164.97754,2.00061,2.00061,0,0,1-.57422-.0874l-.00244-1.00977.19727.00439a1.03707,1.03707,0,0,0,.54883-.11523.752.752,0,0,0,.28369-.38232l.15137-.41064-1.71045-5.002h1.39355Zm.26953-5.1958H35.208l-1.2373,1.4292H32.917Z" style="fill: #fff"/>
  </g>
</svg>
