<svg id="Layer_1" data-name="Layer 1" xmlns="http://www.w3.org/2000/svg" width="65" height="65" viewBox="0 0 65 65">
  <title>news</title>
  <g>
    <path d="M20.05031,58.7408c0-.96437-.03416-1.93042.01266-2.89251a1.07529,1.07529,0,0,0-.69271-1.16749A28.29822,28.29822,0,0,1,26.55477,1.61361c7.871-1.48281,15.32808-.33627,22.0393,4.22692A28.345,28.345,0,0,1,60.46789,23.80686a30.70716,30.70716,0,0,1-4.26423,24.19238,31.92767,31.92767,0,0,1-13.362,11.43309A46.80672,46.80672,0,0,1,27.88946,63.586c-1.76445.20807-3.53357.33789-5.30619.40659-1.77555.0688-2.52982-.68435-2.53264-2.43483Q20.04836,60.1493,20.05031,58.7408Z" style="fill: #4385f5"/>
    <path d="M53.95215,43.38779h-42.377a.69991.69991,0,0,1-.69724-.76091l.65006-7.43021a.69991.69991,0,0,1,.69724-.63891h42.377a.69991.69991,0,0,1,.69725.76091l-.65006,7.43021A.69992.69992,0,0,1,53.95215,43.38779Z" style="fill: #231f20"/>
    <g>
      <path d="M33.69678,13.11966,32.638,24.95923l.10089.0113c.29426-1.4768.60554-2.95046.87885-4.43113.42348-2.29417.82683-4.59211,1.22384-6.891.06542-.37878.2134-.54194.62111-.54823,1.82482-.02817,3.64917-.08675,5.60152-.13768-.294,3.94279-.58518,7.84681-.87632,11.75083l.10327.01375q.49488-2.727.98917-5.45409c.35633-1.9814.72237-3.96126,1.05016-5.94741.07206-.43663.33113-.42557.63222-.42842,1.18538-.01123,2.37079-.01934,3.68819-.02964-.18289.94651-.34639,1.85879-.53682,2.76542-.50287,2.3941-1.02146,4.78488-1.526,7.17862-.41026,1.94624-.83579,3.89-1.1971,5.84542-.10781.58346-.27355.8734-.92393.876-1.95861.00785-3.917.07187-6.00667.1168l1.02111-11.81291-.12119-.01193q-.54861,3.03443-1.09795,6.06872c-.32832,1.8003-.65408,3.60119-1.00875,5.39633-.03257.16486-.26322.41078-.408.41514-1.98647.05977-3.974.08478-5.96135.11336a1.977,1.977,0,0,1-.36675-.072c.1048-2.14795.20146-4.26758.31318-6.38641.16611-3.15043.35429-6.29975.50288-9.451.02249-.47692.10529-.69069.64126-.68891C31.18135,13.22418,32.38815,13.15949,33.69678,13.11966Z" style="fill: #ffe200"/>
      <path d="M24.02858,19.5482l.3555-2.679-.218-.09116a1.86709,1.86709,0,0,0-.3188.52892c-.10084.49212-.14724.99566-.20949,1.49538-.08934.71724.12991,1.02217.83213,1.27234.55668.19832,1.09349.45167,1.64536.6644a2.52891,2.52891,0,0,1,1.70225,2.93536,22.06792,22.06792,0,0,1-.62593,3.644A3.61617,3.61617,0,0,1,24.35968,29.833,7.80343,7.80343,0,0,1,20.301,29.8316a2.5532,2.5532,0,0,1-1.94317-2.71184c.07251-.93453.20288-1.86635.35607-2.79133.02978-.17979.27391-.33409.44-.47572.05629-.048.17675-.02636.268-.027,1.13743-.00793,2.27488-.01409,3.53083-.02139l-.34193,2.5768.24461.115c.11351-.15736.29521-.30173.32811-.47444a16.18658,16.18658,0,0,0,.24174-1.76787c.05962-.765-.5966-.88128-1.09678-1.11407-.59718-.27793-1.235-.48023-1.80339-.80579a2.36044,2.36044,0,0,1-1.24154-2.53123c.11991-.90768.28135-1.81158.35991-2.72271a3.99007,3.99007,0,0,1,3.4622-3.69544,6.47137,6.47137,0,0,1,4.34407.39778,2.40269,2.40269,0,0,1,1.2384,2.35478,26.49244,26.49244,0,0,1-.35272,2.86041c-.02381.15661-.20811.40618-.3289.41262C26.73372,19.478,25.45886,19.50513,24.02858,19.5482Z" style="fill: #ffe200"/>
    </g>
    <path d="M53.36349,42.45769h-42.377a.69991.69991,0,0,1-.69725-.76091l.65006-7.43021a.69991.69991,0,0,1,.69724-.6389h42.377a.69991.69991,0,0,1,.69725.76091l-.65006,7.4302A.69991.69991,0,0,1,53.36349,42.45769Z" style="fill: #fff"/>
    <text transform="matrix(0.99619, 0, -0.08716, 0.99619, 12.21368, 40.76524)" style="font-size: 7.02673864364624px;fill: #4385f5;font-family: Poppins-Bold, Poppins;font-weight: 700;letter-spacing: 0.01994977696382229em">ASSISTANT</text>
  </g>
</svg>
