<svg id="Layer_1" data-name="Layer 1" xmlns="http://www.w3.org/2000/svg" width="65" height="65" viewBox="0 0 65 65">
  <title>news</title>
  <path d="M33,2H62.14438A1.85562,1.85562,0,0,1,64,3.85562V33A31,31,0,0,1,33,64H33A31,31,0,0,1,2,33V33A31,31,0,0,1,33,2Z"/>
  <path d="M32.9,5h26.43A1.67006,1.67006,0,0,1,61,6.67006V33.1A27.9,27.9,0,0,1,33.1,61H32.9A27.9,27.9,0,0,1,5,33.1V32.9A27.9,27.9,0,0,1,32.9,5Z" style="fill: #d30002"/>
  <g>
    <path d="M15,32H54a3,3,0,0,1,3,3v7a0,0,0,0,1,0,0H18a3,3,0,0,1-3-3V32a0,0,0,0,1,0,0Z" style="opacity: 0.3"/>
    <path d="M13,30H52a3,3,0,0,1,3,3v7a0,0,0,0,1,0,0H16a3,3,0,0,1-3-3V30a0,0,0,0,1,0,0Z" style="fill: #fff"/>
    <path d="M10,24H33a3,3,0,0,1,3,3v7a0,0,0,0,1,0,0H13a3,3,0,0,1-3-3V24A0,0,0,0,1,10,24Z" style="opacity: 0.3"/>
    <path d="M9,23H32a3,3,0,0,1,3,3v7a0,0,0,0,1,0,0H12a3,3,0,0,1-3-3V23a0,0,0,0,1,0,0Z"/>
    <g>
      <path d="M16.49951,25.49561v4.61816h-.92529L13.48,26.94922v3.16455h-.9248V25.49561H13.48L15.57422,28.667V25.49561Z" style="fill: #fff"/>
      <path d="M20.082,26.24854h-1.751v1.15625h1.55273v.7334H18.33105v1.22217h1.751v.75342H17.40625V25.49561H20.082Z" style="fill: #fff"/>
      <path d="M20.60693,25.502h.99072l.813,3.58105.938-3.58105h1.03076l.88525,3.56152L26.084,25.502h.99756l-1.28809,4.61182H24.70313l-.86572-3.28369-.90479,3.28369-1.0835.00684Z" style="fill: #fff"/>
      <path d="M29.26807,30.16016c-.958,0-1.69824-.50244-1.71143-1.37451h.99121a.63325.63325,0,0,0,.7002.61475c.436,0,.69385-.23145.69385-.562,0-.99756-2.37842-.396-2.37207-2.06787,0-.83252.67383-1.33447,1.62549-1.33447A1.45773,1.45773,0,0,1,30.84717,26.751H29.82959a.60845.60845,0,0,0-.66064-.54834c-.36328-.01367-.63428.165-.63428.5415,0,.9248,2.36523.40967,2.36523,2.03516A1.455,1.455,0,0,1,29.26807,30.16016Z" style="fill: #fff"/>
    </g>
    <g>
      <path d="M19.00977,37.61426H17.17285l-.30371.87891h-.97119l1.6582-4.61816H18.6333l1.6582,4.61816h-.978Zm-.91846-2.66895-.667,1.92871h1.33447Z"/>
      <path d="M22.5,38.53906c-.958,0-1.69824-.502-1.71143-1.374h.99121a.63289.63289,0,0,0,.7002.61426c.436,0,.69385-.23047.69385-.56152,0-.99707-2.37842-.39648-2.37207-2.06738,0-.833.67383-1.335,1.62549-1.335a1.4577,1.4577,0,0,1,1.65186,1.31445H23.06152a.60875.60875,0,0,0-.66064-.54785c-.36377-.01367-.63428.165-.63428.542,0,.9248,2.36523.40918,2.36523,2.03418A1.45449,1.45449,0,0,1,22.5,38.53906Z"/>
      <path d="M26.51953,38.53906c-.958,0-1.69824-.502-1.71143-1.374h.99121a.63289.63289,0,0,0,.7002.61426c.436,0,.69385-.23047.69385-.56152,0-.99707-2.37842-.39648-2.37207-2.06738,0-.833.67383-1.335,1.62549-1.335a1.4577,1.4577,0,0,1,1.65186,1.31445H27.08105a.60875.60875,0,0,0-.66064-.54785c-.36377-.01367-.63428.165-.63428.542,0,.9248,2.36523.40918,2.36523,2.03418A1.45449,1.45449,0,0,1,26.51953,38.53906Z"/>
      <path d="M28.94629,33.88184h.9248v4.61133h-.9248Z"/>
      <path d="M32.37354,38.53906c-.958,0-1.69824-.502-1.71143-1.374h.99121a.63289.63289,0,0,0,.7002.61426c.436,0,.69336-.23047.69336-.56152,0-.99707-2.37793-.39648-2.37158-2.06738,0-.833.67383-1.335,1.62549-1.335a1.4575,1.4575,0,0,1,1.65137,1.31445H32.93506a.60875.60875,0,0,0-.66064-.54785c-.36328-.01367-.63428.165-.63428.542,0,.9248,2.36475.40918,2.36475,2.03418A1.454,1.454,0,0,1,32.37354,38.53906Z"/>
      <path d="M34.55664,33.88184h3.38281v.74609H36.71v3.86523h-.9248V34.62793H34.55664Z"/>
      <path d="M41.43652,37.61426H39.59961l-.30469.87891h-.9707l1.6582-4.61816h1.07715l1.6582,4.61816h-.97754Zm-.91895-2.66895-.667,1.92871h1.334Z"/>
      <path d="M47.27832,33.875v4.61816h-.9248l-2.09473-3.165v3.165H43.334V33.875h.9248l2.09473,3.1709V33.875Z"/>
      <path d="M47.94141,33.88184h3.38281v.74609H50.09473v3.86523h-.9248V34.62793H47.94141Z"/>
    </g>
  </g>
  <rect x="34" y="44" width="18" height="1" rx="0.35" ry="0.35" style="fill: #fff"/>
  <rect x="28" y="44" width="4" height="1" rx="0.35" ry="0.35" style="fill: #fff"/>
</svg>
