<svg id="Layer_1" data-name="Layer 1" xmlns="http://www.w3.org/2000/svg" width="70" height="70" viewBox="0 0 70 70">
  <title>news</title>
  <path d="M68,34.59469a33.02331,33.02331,0,0,1-1.52,9.95c-.15.49-.32.98-.5,1.46a32.97315,32.97315,0,0,1-5.04,9,31.55113,31.55113,0,0,1-4,4.25q-.735.645-1.5,1.26a34.38476,34.38476,0,0,1-4.09,2.75,33.0434,33.0434,0,0,1-31.68.56l-10.55,4.5a1.00548,1.00548,0,0,1-1.39-1.04l1.36-11.29.1-.84a1.429,1.429,0,0,1-.11-.15,32.8147,32.8147,0,0,1-2.47-3.57v-.01a32.72612,32.72612,0,0,1-3.77-9.36v-.01c-.12006-.54-.23-1.07-.32-1.62a28.90658,28.90658,0,0,1-.4-3.12c-.06-.67-.1-1.35-.11-2.04-.01-.22-.01-.45-.01-.68a33.34711,33.34711,0,0,1,1.69-10.48,33.02172,33.02172,0,0,1,54.3-13.2,32.32944,32.32944,0,0,1,3.68,4.25,30.62432,30.62432,0,0,1,2.49,3.96v.01a32.60131,32.60131,0,0,1,3.29,9.48c.09.49.17.99.24,1.49A31.74419,31.74419,0,0,1,68,34.59469Z" style="fill: #ed1926"/>
  <path d="M15.60606,33.25139H62a0,0,0,0,1,0,0v9.45455a5,5,0,0,1-5,5H10.60606a0,0,0,0,1,0,0V38.25139A5,5,0,0,1,15.60606,33.25139Z" style="fill: #fff"/>
  <path d="M52.36364,22.009V28.4332a8.03321,8.03321,0,0,1-8.0303,8.0303H9V30.03926a8.03321,8.03321,0,0,1,8.0303-8.0303Z"/>
  <g>
    <path d="M13.86377,26.91211h1.20361l.9873,4.3501,1.13965-4.3501h1.252L19.522,31.23779l.99512-4.32568H21.729l-1.56494,5.60205H18.83984l-1.05127-3.98877L16.689,32.51416l-1.31641.00781Z" style="fill: #fff"/>
    <path d="M25.71436,27.81885h-2.127v1.40479h1.88623v.89063H23.5874v1.48486h2.127v.915H22.46387V26.90381h3.25049Z" style="fill: #fff"/>
    <path d="M29.15186,32.51416h-2.416V26.91211h2.31152c1.17188,0,1.82178.60986,1.82178,1.44434a1.29091,1.29091,0,0,1-.95508,1.28418,1.35836,1.35836,0,0,1,1.084,1.35645C30.998,31.88818,30.31543,32.51416,29.15186,32.51416Zm-.26514-4.69531H27.85938v1.40479h1.02734c.52979,0,.835-.24121.835-.69824C29.72168,28.07568,29.4165,27.81885,28.88672,27.81885Zm.08057,2.27148H27.85938v1.50879h1.13184c.5459,0,.8667-.26465.8667-.73828C29.85791,30.37939,29.51318,30.09033,28.96729,30.09033Z" style="fill: #fff"/>
    <path d="M33.8335,32.57031c-1.16406,0-2.063-.60986-2.0791-1.66943h1.2041a.76911.76911,0,0,0,.85059.74658c.52979,0,.84277-.28125.84277-.68213,0-1.2124-2.88916-.48193-2.88135-2.51221,0-1.01172.81885-1.62158,1.97461-1.62158a1.77057,1.77057,0,0,1,2.00635,1.59717H34.51563a.73977.73977,0,0,0-.80273-.666c-.44141-.01611-.77051.20068-.77051.6582,0,1.12354,2.87354.49756,2.87354,2.47217A1.7674,1.7674,0,0,1,33.8335,32.57031Z" style="fill: #fff"/>
    <path d="M36.79,26.91211h1.124v5.60205H36.79Z" style="fill: #fff"/>
    <path d="M38.72559,26.91211H42.835v.90674H41.3418v4.69531h-1.123V27.81885H38.72559Z" style="fill: #fff"/>
    <path d="M46.90625,27.81885h-2.127v1.40479H46.665v.89063H44.7793v1.48486h2.127v.915h-3.251V26.90381h3.251Z" style="fill: #fff"/>
  </g>
  <g>
    <path d="M18.9873,43.44238h-2.231l-.36914,1.06738H15.207l2.01465-5.61035h1.30859l2.01416,5.61035h-1.1875ZM17.87207,40.2002,17.061,42.543h1.62158Z"/>
    <path d="M23.23633,44.56641c-1.16406,0-2.063-.61035-2.0791-1.66992h1.2041a.769.769,0,0,0,.85059.74609c.52979,0,.84277-.28027.84277-.68164,0-1.21191-2.88916-.48145-2.88135-2.5127,0-1.01074.81885-1.62109,1.97461-1.62109A1.7706,1.7706,0,0,1,25.1543,40.4248H23.91846a.74082.74082,0,0,0-.80273-.667c-.44141-.01562-.77051.20117-.77051.6582,0,1.124,2.87354.498,2.87354,2.47266A1.76773,1.76773,0,0,1,23.23633,44.56641Z"/>
    <path d="M28.127,44.56641c-1.16406,0-2.063-.61035-2.0791-1.66992H27.252a.769.769,0,0,0,.85059.74609c.52979,0,.84277-.28027.84277-.68164,0-1.21191-2.88916-.48145-2.88135-2.5127,0-1.01074.81885-1.62109,1.97461-1.62109a1.7706,1.7706,0,0,1,2.00635,1.59766H28.80908a.74082.74082,0,0,0-.80273-.667c-.44141-.01562-.77051.20117-.77051.6582,0,1.124,2.87354.498,2.87354,2.47266A1.76773,1.76773,0,0,1,28.127,44.56641Z"/>
    <path d="M31.08252,38.90723h1.12354v5.60254H31.08252Z"/>
    <path d="M35.24951,44.56641c-1.16406,0-2.063-.61035-2.0791-1.66992h1.2041a.769.769,0,0,0,.85059.74609c.52979,0,.84326-.28027.84326-.68164,0-1.21191-2.88965-.48145-2.88184-2.5127,0-1.01074.81885-1.62109,1.97461-1.62109A1.77106,1.77106,0,0,1,37.168,40.4248H35.93164a.74113.74113,0,0,0-.80273-.667c-.44141-.01562-.77051.20117-.77051.6582,0,1.124,2.873.498,2.873,2.47266A1.76728,1.76728,0,0,1,35.24951,44.56641Z"/>
    <path d="M37.9082,38.90723h4.10938v.90723H40.52441v4.69531h-1.123V39.81445H37.9082Z"/>
    <path d="M46.27441,43.44238H44.043l-.36914,1.06738H42.49414l2.01465-5.61035h1.30762l2.01465,5.61035h-1.1875ZM45.1582,40.2002,44.34766,42.543h1.62109Z"/>
    <path d="M53.38086,38.89941v5.61035h-1.124L49.71289,40.665v3.84473h-1.124V38.89941h1.124L52.25684,42.752V38.89941Z"/>
    <path d="M54.19336,38.90723h4.10938v.90723H56.80957v4.69531h-1.123V39.81445H54.19336Z"/>
  </g>
  <line x1="27.5" y1="50.5" x2="48.5" y2="50.5" style="fill: none;stroke: #fff;stroke-linecap: round;stroke-miterlimit: 10;stroke-width: 0.75px"/>
  <line x1="51.5" y1="50.5" x2="56.5" y2="50.5" style="fill: none;stroke: #fff;stroke-linecap: round;stroke-miterlimit: 10;stroke-width: 0.75px"/>
</svg>
