<svg id="Layer_1" data-name="Layer 1" xmlns="http://www.w3.org/2000/svg" width="65" height="65" viewBox="0 0 65 65">
  <title>logo</title>
  <path d="M63.85,32.115A31.22128,31.22128,0,0,1,53.343,55.542q-.69824.61274-1.425,1.197a32.66553,32.66553,0,0,1-3.88553,2.6125,31.39123,31.39123,0,0,1-30.096.532L7.914,64.1585a.95521.95521,0,0,1-1.32051-.988L7.88553,52.445l.095-.798a32.51184,32.51184,0,0,1-2.451-3.534v-.00951a31.23982,31.23982,0,0,1-3.58146-8.892V39.202c-.11405-.513-.21854-1.01651-.304-1.539a27.46125,27.46125,0,0,1-.38-2.964c-.057-.63648-.095-1.28253-.10449-1.938C1.15,32.552,1.15,32.3335,1.15,32.115a31.67975,31.67975,0,0,1,1.6055-9.956,31.37063,31.37063,0,0,1,51.585-12.54,30.713,30.713,0,0,1,3.496,4.0375,29.0931,29.0931,0,0,1,2.36549,3.762V17.428a30.97124,30.97124,0,0,1,3.12554,9.006c.08547.46549.16148.94049.228,1.41549A30.157,30.157,0,0,1,63.85,32.115Z" style="fill: #ed1926"/>
  <path d="M28.1499,30.96289h8.69971V24.18262c0-1.88965-.81055-2.12988-2.82031-2.06934V21.09277h9.66016v1.02051c-1.98047-.06055-2.84961.17969-2.84961,2.06934V40.92188c.44922.78027,1.46875.96,2.75977.96v1.02051H34.11914V41.88184c1.32031,0,2.31055-.17969,2.73047-.96v-8.5498H28.1499v8.5498c.44971.78027,1.46973.96,2.75977.96v1.02051H21.3999V41.88184c1.3501,0,2.34033-.17969,2.76025-.96V24.18262c0-1.88965-.87012-2.12988-2.8501-2.06934V21.09277h9.68945v1.02051c-2.00977-.06055-2.84961.17969-2.84961,2.06934Z" style="fill: #fff"/>
  <path d="M59.37871,32.16987a26.76835,26.76835,0,0,1-9.00844,20.08575q-.59865.52535-1.22176,1.02629a28.00661,28.00661,0,0,1-3.33135,2.23989,26.91405,26.91405,0,0,1-25.80355.45612l-8.593,3.66528a.819.819,0,0,1-1.13218-.84712l1.10777-9.19576.08143-.68421a27.87484,27.87484,0,0,1-2.10144-3.02994V45.878A26.78424,26.78424,0,0,1,6.3055,38.25426v-.00815c-.09779-.43982-.18737-.87153-.26065-1.3195A23.54459,23.54459,0,0,1,5.719,34.38536c-.04887-.54571-.08143-1.09961-.08958-1.66162-.00815-.17917-.00815-.36649-.00815-.55386a27.16143,27.16143,0,0,1,1.37652-8.536A26.8964,26.8964,0,0,1,51.22549,12.88237,26.33253,26.33253,0,0,1,54.22287,16.344,24.9437,24.9437,0,0,1,56.251,19.56949v.00815a26.554,26.554,0,0,1,2.67976,7.7215c.07328.3991.13845.80635.19547,1.21361A25.85584,25.85584,0,0,1,59.37871,32.16987Z" style="fill: none;stroke: #fff;stroke-miterlimit: 10"/>
</svg>
