<svg id="Layer_1" data-name="Layer 1" xmlns="http://www.w3.org/2000/svg" width="65" height="65" viewBox="0 0 65 65">
  <title>news</title>
  <path d="M63.85,32.115A31.22128,31.22128,0,0,1,53.343,55.542q-.69824.61274-1.425,1.197a32.66553,32.66553,0,0,1-3.88553,2.6125,31.39123,31.39123,0,0,1-30.096.532L7.914,64.1585a.95521.95521,0,0,1-1.32051-.988L7.88553,52.445l.095-.798a32.51184,32.51184,0,0,1-2.451-3.534v-.00951a31.23982,31.23982,0,0,1-3.58146-8.892V39.202c-.11405-.513-.21854-1.01651-.304-1.539a27.46125,27.46125,0,0,1-.38-2.964c-.057-.63648-.095-1.28253-.10449-1.938C1.15,32.552,1.15,32.3335,1.15,32.115a31.67975,31.67975,0,0,1,1.6055-9.956,31.37063,31.37063,0,0,1,51.585-12.54,30.713,30.713,0,0,1,3.496,4.0375,29.0931,29.0931,0,0,1,2.36549,3.762V17.428a30.97124,30.97124,0,0,1,3.12554,9.006c.08547.46549.16148.94049.228,1.41549A30.157,30.157,0,0,1,63.85,32.115Z" style="fill: #ed1926"/>
  <polygon points="57.009 43.429 10.077 43.429 11.103 31.696 58.036 31.696 57.009 43.429" style="opacity: 0.3"/>
  <polygon points="34.341 34.304 8.268 34.304 9.18 23.874 35.254 23.874 34.341 34.304" style="opacity: 0.3"/>
  <polygon points="55.82 42.126 8.887 42.126 9.914 30.393 56.846 30.393 55.82 42.126" style="fill: #fff"/>
  <polygon points="33.152 33 7.078 33 7.991 22.571 34.064 22.571 33.152 33"/>
  <g>
    <path d="M14.96631,25.24561l-.47852,5.47217h-1.0957l-2.15381-3.74951-.32764,3.74951H9.81494l.47852-5.47217h1.0957L13.542,29.00342l.32861-3.75781Z" style="fill: #fff"/>
    <path d="M19.13428,26.13867H17.06006l-.11963,1.36963h1.83984l-.07617.86865H16.86426l-.12646,1.44873H18.812l-.07812.89209H15.564l.47852-5.47217H19.2124Z" style="fill: #fff"/>
    <path d="M19.835,25.25342h1.1748l.5918,4.24365L23.084,25.25342h1.2207l.67969,4.22021,1.33984-4.22021h1.18262l-2.00439,5.46436h-1.292l-.68506-3.89062-1.4126,3.89063-1.28516.00781Z" style="fill: #fff"/>
    <path d="M29.6167,30.77246c-1.13477,0-1.95947-.59473-1.88477-1.62793h1.17383a.67848.67848,0,0,0,.76611.728.78053.78053,0,0,0,.87939-.66553c.10352-1.18213-2.77588-.47021-2.59521-2.45068a1.85206,1.85206,0,0,1,2.06445-1.58105c1.11914,0,1.83594.57129,1.8208,1.55762H30.63525a.65056.65056,0,0,0-.72559-.6499.70082.70082,0,0,0-.80811.64209c-.0957,1.09668,2.76025.48535,2.5918,2.41162A1.912,1.912,0,0,1,29.6167,30.77246Z" style="fill: #fff"/>
  </g>
  <g>
    <path d="M15.34131,38.62793H13.16455l-.4502,1.041H11.563l2.44336-5.47266h1.27637L16.769,39.66895H15.60986Zm-.811-3.16309L13.53906,37.751h1.58105Z"/>
    <path d="M19.38232,39.72363c-1.13477,0-1.95947-.59473-1.88477-1.62793h1.17383a.67835.67835,0,0,0,.76611.72754.781.781,0,0,0,.87988-.665c.103-1.18164-2.77637-.46973-2.59521-2.45117a1.8506,1.8506,0,0,1,2.064-1.58008c1.11914,0,1.83594.57031,1.8208,1.55762H20.40088a.65064.65064,0,0,0-.72559-.65039.70057.70057,0,0,0-.80811.64258c-.0957,1.0957,2.76025.48535,2.5918,2.41113A1.912,1.912,0,0,1,19.38232,39.72363Z"/>
    <path d="M24.146,39.72363c-1.13477,0-1.95947-.59473-1.88477-1.62793h1.17383a.67835.67835,0,0,0,.76611.72754.781.781,0,0,0,.87988-.665c.103-1.18164-2.77637-.46973-2.59521-2.45117a1.8506,1.8506,0,0,1,2.064-1.58008c1.11914,0,1.83594.57031,1.8208,1.55762H25.16455a.65064.65064,0,0,0-.72559-.65039.70057.70057,0,0,0-.80811.64258c-.0957,1.0957,2.76025.48535,2.5918,2.41113A1.912,1.912,0,0,1,24.146,39.72363Z"/>
    <path d="M27.50586,34.2041h1.0957l-.478,5.46484h-1.0957Z"/>
    <path d="M31.0835,39.72363c-1.13477,0-1.95947-.59473-1.88477-1.62793h1.17383a.67835.67835,0,0,0,.76611.72754.781.781,0,0,0,.87988-.665c.103-1.18164-2.77637-.46973-2.59521-2.45117a1.8506,1.8506,0,0,1,2.064-1.58008c1.11914,0,1.83594.57031,1.82031,1.55762H32.10205a.65064.65064,0,0,0-.72559-.65039.70057.70057,0,0,0-.80811.64258c-.0957,1.0957,2.76074.48535,2.5918,2.41113A1.912,1.912,0,0,1,31.0835,39.72363Z"/>
    <path d="M34.1543,34.2041h4.00781l-.07715.88574H36.62891l-.40137,4.5791H35.13086l.40137-4.5791H34.07715Z"/>
    <path d="M41.9209,38.62793H39.74414l-.45117,1.041H38.1416l2.44434-5.47266H41.8623l1.48535,5.47266H42.18848Zm-.81152-3.16309L40.11816,37.751h1.58105Z"/>
    <path d="M49.23145,34.19629,48.752,39.66895h-1.0957l-2.15332-3.749-.32812,3.749H44.0791l.47949-5.47266h1.0957l2.15234,3.75879.3291-3.75879Z"/>
    <path d="M50.01758,34.2041h4.00781l-.07715.88574H52.49219l-.40137,4.5791H50.99414l.40137-4.5791H49.94043Z"/>
  </g>
  <polygon points="7.078 33 7.991 22.571 34.064 22.571 7.078 33" style="fill: #fff;opacity: 0.2"/>
  <path d="M49.2213,19c0,.41875-1.6626.2555-2.8142,1.4071S45.41875,23.2213,45,23.2213s-.2555-1.6626-1.4071-2.8142S40.7787,19.41875,40.7787,19s1.6626-.2555,2.8142-1.4071S44.58125,14.7787,45,14.7787s.2555,1.6626,1.4071,2.8142S49.2213,18.58125,49.2213,19Z" style="fill: #fff"/>
</svg>
