<svg width="65" height="65" viewBox="0 0 65 65" fill="none" xmlns="http://www.w3.org/2000/svg">
<path d="M20.0505 58.7408C20.0505 57.7764 20.0163 56.8104 20.0631 55.8483C20.0995 55.6037 20.0505 55.3541 19.9243 55.1414C19.7981 54.9288 19.6025 54.7661 19.3704 54.6808C14.0929 52.0391 9.77341 47.8135 7.0164 42.5953C4.25939 37.3772 3.20285 31.4276 3.99463 25.5792C4.78641 19.7308 7.3869 14.2764 11.4322 9.97911C15.4774 5.68187 20.765 2.75692 26.5549 1.6136C34.4259 0.130791 41.883 1.27733 48.5942 5.84052C54.7616 10.034 59.0278 16.4892 60.468 23.8069C61.4606 27.9157 61.5943 32.1852 60.8605 36.348C60.1267 40.5109 58.5414 44.4774 56.2038 47.9992C52.9079 52.9859 48.2782 56.9472 42.8418 59.4323C38.1236 61.6392 33.0701 63.043 27.8896 63.586C26.1252 63.7941 24.356 63.9239 22.5834 63.9926C20.8079 64.0614 20.0536 63.3082 20.0508 61.5578C20.0493 60.6188 20.0492 59.6798 20.0505 58.7408Z" fill="#EF2A31"/>
<path opacity="0.2" d="M34.9452 21.1381H8.03516V31.828H34.9452V21.1381Z" fill="black"/>
<path opacity="0.2" d="M58.7501 29.6899H11.1401V40.3798H58.7501V29.6899Z" fill="black"/>
<path d="M57.715 27.552H10.105V38.2419H57.715V27.552Z" fill="white"/>
<path d="M33.91 19H7V29.6899H33.91V19Z" fill="black"/>
<path d="M14.399 27.7045H12.9601L10.5534 24.0608V27.7045H9.11449V21.7972H10.5534L12.9601 25.4577V21.7972H14.399V27.7045ZM16.881 22.9501V24.145H18.808V25.2557H16.881V26.5516H19.0604V27.7045H15.4421V21.7972H19.0604V22.9501H16.881ZM28.1234 21.7972L26.5835 27.7045H24.8416L23.8991 23.8168L22.923 27.7045H21.1811L19.6833 21.7972H21.2232L22.0731 26.0972L23.1249 21.7972H24.7069L25.7167 26.0972L26.575 21.7972H28.1234ZM30.9824 27.7634C30.5504 27.7634 30.1633 27.6932 29.8211 27.553C29.4789 27.4128 29.204 27.2052 28.9965 26.9303C28.7945 26.6554 28.6879 26.3244 28.6767 25.9373H30.2082C30.2307 26.1561 30.3064 26.3244 30.4354 26.4422C30.5644 26.5544 30.7327 26.6105 30.9403 26.6105C31.1535 26.6105 31.3218 26.5629 31.4452 26.4675C31.5686 26.3665 31.6303 26.2291 31.6303 26.0552C31.6303 25.9093 31.5798 25.7887 31.4789 25.6933C31.3835 25.598 31.2629 25.5194 31.117 25.4577C30.9768 25.396 30.7748 25.3259 30.5111 25.2473C30.1297 25.1295 29.8183 25.0117 29.5771 24.8939C29.3359 24.7761 29.1283 24.6022 28.9544 24.3722C28.7805 24.1422 28.6935 23.8421 28.6935 23.4718C28.6935 22.922 28.8927 22.4929 29.291 22.1843C29.6893 21.8702 30.2082 21.7131 30.8477 21.7131C31.4985 21.7131 32.023 21.8702 32.4213 22.1843C32.8196 22.4929 33.0328 22.9248 33.0608 23.4802H31.5041C31.4929 23.2895 31.4228 23.1408 31.2937 23.0342C31.1647 22.922 30.9992 22.8659 30.7973 22.8659C30.6233 22.8659 30.4831 22.9136 30.3765 23.009C30.2699 23.0987 30.2166 23.2306 30.2166 23.4045C30.2166 23.5952 30.3064 23.7439 30.4859 23.8505C30.6654 23.9571 30.9459 24.0721 31.3274 24.1955C31.7089 24.3245 32.0174 24.4479 32.253 24.5657C32.4942 24.6835 32.7018 24.8546 32.8757 25.079C33.0496 25.3034 33.1366 25.5923 33.1366 25.9458C33.1366 26.2824 33.0496 26.5881 32.8757 26.863C32.7074 27.1379 32.4606 27.3567 32.1352 27.5193C31.8098 27.682 31.4256 27.7634 30.9824 27.7634Z" fill="white"/>
<path d="M16.1067 36.3324H13.902L13.5486 37.3759H12.0424L14.1797 31.4686H15.8459L17.9832 37.3759H16.4601L16.1067 36.3324ZM15.7365 35.2217L15.0044 33.059L14.2807 35.2217H15.7365ZM20.7711 37.4348C20.3391 37.4348 19.9521 37.3646 19.6099 37.2244C19.2677 37.0841 18.9928 36.8766 18.7852 36.6017C18.5833 36.3268 18.4767 35.9958 18.4654 35.6087H19.9969C20.0194 35.8275 20.0951 35.9958 20.2241 36.1136C20.3532 36.2258 20.5215 36.2819 20.729 36.2819C20.9422 36.2819 21.1105 36.2342 21.2339 36.1389C21.3573 36.0379 21.4191 35.9005 21.4191 35.7265C21.4191 35.5807 21.3686 35.4601 21.2676 35.3647C21.1722 35.2693 21.0516 35.1908 20.9057 35.1291C20.7655 35.0674 20.5635 34.9973 20.2999 34.9187C19.9184 34.8009 19.6071 34.6831 19.3658 34.5653C19.1246 34.4475 18.917 34.2736 18.7431 34.0436C18.5692 33.8136 18.4823 33.5134 18.4823 33.1432C18.4823 32.5934 18.6814 32.1643 19.0797 31.8557C19.478 31.5416 19.9969 31.3845 20.6365 31.3845C21.2872 31.3845 21.8117 31.5416 22.2101 31.8557C22.6084 32.1643 22.8215 32.5962 22.8496 33.1516H21.2928C21.2816 32.9609 21.2115 32.8122 21.0825 32.7056C20.9534 32.5934 20.7879 32.5373 20.586 32.5373C20.4121 32.5373 20.2718 32.585 20.1652 32.6804C20.0587 32.7701 20.0054 32.902 20.0054 33.0759C20.0054 33.2666 20.0951 33.4153 20.2746 33.5219C20.4542 33.6284 20.7346 33.7434 21.1161 33.8669C21.4976 33.9959 21.8061 34.1193 22.0418 34.2371C22.283 34.3549 22.4905 34.526 22.6645 34.7504C22.8384 34.9748 22.9253 35.2637 22.9253 35.6172C22.9253 35.9537 22.8384 36.2595 22.6645 36.5344C22.4962 36.8093 22.2493 37.028 21.9239 37.1907C21.5986 37.3534 21.2143 37.4348 20.7711 37.4348ZM25.9482 37.4348C25.5163 37.4348 25.1292 37.3646 24.787 37.2244C24.4448 37.0841 24.1699 36.8766 23.9623 36.6017C23.7604 36.3268 23.6538 35.9958 23.6425 35.6087H25.174C25.1965 35.8275 25.2722 35.9958 25.4013 36.1136C25.5303 36.2258 25.6986 36.2819 25.9061 36.2819C26.1193 36.2819 26.2876 36.2342 26.411 36.1389C26.5344 36.0379 26.5962 35.9005 26.5962 35.7265C26.5962 35.5807 26.5457 35.4601 26.4447 35.3647C26.3493 35.2693 26.2287 35.1908 26.0829 35.1291C25.9426 35.0674 25.7406 34.9973 25.477 34.9187C25.0955 34.8009 24.7842 34.6831 24.5429 34.5653C24.3017 34.4475 24.0941 34.2736 23.9202 34.0436C23.7463 33.8136 23.6594 33.5134 23.6594 33.1432C23.6594 32.5934 23.8585 32.1643 24.2568 31.8557C24.6551 31.5416 25.174 31.3845 25.8136 31.3845C26.4643 31.3845 26.9889 31.5416 27.3872 31.8557C27.7855 32.1643 27.9986 32.5962 28.0267 33.1516H26.4699C26.4587 32.9609 26.3886 32.8122 26.2596 32.7056C26.1305 32.5934 25.965 32.5373 25.7631 32.5373C25.5892 32.5373 25.4489 32.585 25.3423 32.6804C25.2358 32.7701 25.1825 32.902 25.1825 33.0759C25.1825 33.2666 25.2722 33.4153 25.4517 33.5219C25.6313 33.6284 25.9118 33.7434 26.2932 33.8669C26.6747 33.9959 26.9832 34.1193 27.2189 34.2371C27.4601 34.3549 27.6676 34.526 27.8416 34.7504C28.0155 34.9748 28.1024 35.2637 28.1024 35.6172C28.1024 35.9537 28.0155 36.2595 27.8416 36.5344C27.6733 36.8093 27.4264 37.028 27.101 37.1907C26.7757 37.3534 26.3914 37.4348 25.9482 37.4348ZM30.4269 31.4686V37.3759H28.9879V31.4686H30.4269ZM33.607 37.4348C33.1751 37.4348 32.788 37.3646 32.4458 37.2244C32.1036 37.0841 31.8287 36.8766 31.6211 36.6017C31.4192 36.3268 31.3126 35.9958 31.3014 35.6087H32.8329C32.8553 35.8275 32.931 35.9958 33.0601 36.1136C33.1891 36.2258 33.3574 36.2819 33.565 36.2819C33.7781 36.2819 33.9464 36.2342 34.0699 36.1389C34.1933 36.0379 34.255 35.9005 34.255 35.7265C34.255 35.5807 34.2045 35.4601 34.1035 35.3647C34.0081 35.2693 33.8875 35.1908 33.7417 35.1291C33.6014 35.0674 33.3995 34.9973 33.1358 34.9187C32.7543 34.8009 32.443 34.6831 32.2018 34.5653C31.9605 34.4475 31.753 34.2736 31.5791 34.0436C31.4052 33.8136 31.3182 33.5134 31.3182 33.1432C31.3182 32.5934 31.5174 32.1643 31.9157 31.8557C32.314 31.5416 32.8329 31.3845 33.4724 31.3845C34.1232 31.3845 34.6477 31.5416 35.046 31.8557C35.4443 32.1643 35.6575 32.5962 35.6855 33.1516H34.1288C34.1175 32.9609 34.0474 32.8122 33.9184 32.7056C33.7894 32.5934 33.6239 32.5373 33.4219 32.5373C33.248 32.5373 33.1078 32.585 33.0012 32.6804C32.8946 32.7701 32.8413 32.902 32.8413 33.0759C32.8413 33.2666 32.931 33.4153 33.1106 33.5219C33.2901 33.6284 33.5706 33.7434 33.952 33.8669C34.3335 33.9959 34.6421 34.1193 34.8777 34.2371C35.1189 34.3549 35.3265 34.526 35.5004 34.7504C35.6743 34.9748 35.7612 35.2637 35.7612 35.6172C35.7612 35.9537 35.6743 36.2595 35.5004 36.5344C35.3321 36.8093 35.0852 37.028 34.7599 37.1907C34.4345 37.3534 34.0502 37.4348 33.607 37.4348ZM40.8963 31.4686V32.6215H39.3311V37.3759H37.8922V32.6215H36.327V31.4686H40.8963ZM45.2957 36.3324H43.091L42.7376 37.3759H41.2313L43.3687 31.4686H45.0349L47.1722 37.3759H45.6491L45.2957 36.3324ZM44.9255 35.2217L44.1934 33.059L43.4697 35.2217H44.9255ZM53.1073 37.3759H51.6683L49.2617 33.7322V37.3759H47.8227V31.4686H49.2617L51.6683 35.1291V31.4686H53.1073V37.3759ZM58.3998 31.4686V32.6215H56.8346V37.3759H55.3957V32.6215H53.8305V31.4686H58.3998Z" fill="black"/>
<path d="M44.5 44H25.5C25.2239 44 25 44.2239 25 44.5C25 44.7761 25.2239 45 25.5 45H44.5C44.7761 45 45 44.7761 45 44.5C45 44.2239 44.7761 44 44.5 44Z" fill="white"/>
<path d="M50.5 44H47.5C47.2239 44 47 44.2239 47 44.5C47 44.7761 47.2239 45 47.5 45H50.5C50.7761 45 51 44.7761 51 44.5C51 44.2239 50.7761 44 50.5 44Z" fill="white"/>
</svg>
