<svg width="65" height="65" viewBox="0 0 65 65" fill="none" xmlns="http://www.w3.org/2000/svg">
<mask id="mask0_657_104" style="mask-type:alpha" maskUnits="userSpaceOnUse" x="3" y="1" width="59" height="63">
<path d="M20.0505 58.7408C20.0505 57.7764 20.0163 56.8104 20.0631 55.8483C20.0995 55.6037 20.0505 55.3541 19.9243 55.1414C19.7981 54.9288 19.6025 54.7661 19.3704 54.6808C14.0929 52.0391 9.77341 47.8135 7.0164 42.5953C4.25939 37.3772 3.20285 31.4276 3.99463 25.5792C4.78641 19.7308 7.3869 14.2764 11.4322 9.97911C15.4774 5.68187 20.765 2.75692 26.5549 1.6136C34.4259 0.130791 41.883 1.27733 48.5942 5.84052C54.7616 10.034 59.0278 16.4892 60.468 23.8069C61.4606 27.9157 61.5943 32.1852 60.8605 36.348C60.1267 40.5109 58.5414 44.4774 56.2038 47.9992C52.9079 52.9859 48.2782 56.9472 42.8418 59.4323C38.1236 61.6392 33.0701 63.043 27.8896 63.586C26.1252 63.7941 24.356 63.9239 22.5834 63.9926C20.8079 64.0614 20.0536 63.3082 20.0508 61.5578C20.0493 60.6188 20.0492 59.6798 20.0505 58.7408Z" fill="#0C8A4D"/>
</mask>
<g mask="url(#mask0_657_104)">
<path d="M-14 -8H81V73H-14V-8Z" fill="#EF2A31"/>
<path d="M19 29.1219C19 29.1022 19.0995 28.9179 19.2256 28.714C19.6703 27.9704 19.9291 27.5362 20.3671 26.7597C20.6126 26.3255 20.8913 25.8517 20.9909 25.7069C21.1369 25.4832 21.9067 24.1607 22.5106 23.0947C22.5968 22.9368 22.8357 22.5289 23.0348 22.1867C23.4861 21.4366 23.579 21.2787 24.0303 20.4628C24.2161 20.114 24.4218 19.7982 24.4749 19.7521C24.528 19.7061 24.5744 19.6337 24.5744 19.5811C24.5744 19.5087 24.7536 19.1863 25.0987 18.6336C25.1584 18.5414 25.5101 17.9361 25.8818 17.2847C26.2534 16.6333 26.5786 16.074 26.6118 16.0345C26.6449 16.0016 26.7312 15.8503 26.8109 15.7055C26.8839 15.5607 27.2688 14.8962 27.6603 14.225C28.0585 13.5539 28.45 12.8761 28.5429 12.7116C28.6358 12.5471 28.9145 12.0602 29.1667 11.626C29.7374 10.6587 29.6843 10.7443 30.0228 10.1455C30.1754 9.87571 30.4011 9.50723 30.5139 9.32299C30.6267 9.14534 30.8191 8.81634 30.9386 8.59921C31.058 8.38207 31.5757 7.48062 32.0933 6.59892L33.029 5L33.175 5.17766C33.2546 5.27636 33.3741 5.46059 33.4471 5.59877C33.8784 6.38178 34.051 6.68445 34.4226 7.30954C34.6549 7.69118 34.9734 8.23731 35.1327 8.52025C35.292 8.80318 35.5242 9.19798 35.6503 9.40853C35.7764 9.61251 36.0419 10.0797 36.2476 10.4416C36.4599 10.8035 36.7387 11.2772 36.8847 11.4944C37.024 11.7115 37.2032 12.0208 37.2762 12.1853C37.3558 12.3563 37.5284 12.6524 37.6545 12.8432C37.7872 13.0406 38.0128 13.4289 38.1588 13.6986C38.3115 13.9684 38.5304 14.3632 38.6499 14.5672C38.776 14.7777 39.1277 15.3831 39.433 15.9161C39.7382 16.4556 40.1099 17.0939 40.2625 17.3439C40.4085 17.6005 40.601 17.9098 40.674 18.0348C40.7536 18.1664 41.1584 18.8638 41.5765 19.5876C41.9946 20.3114 42.4591 21.0944 42.5985 21.3313C42.7445 21.5682 43.0232 22.0551 43.2223 22.417C43.4147 22.7789 43.6735 23.2197 43.7996 23.404C43.9191 23.5816 44.0186 23.7527 44.0186 23.7856C44.0186 23.8185 44.1049 23.9633 44.2044 24.1146C44.304 24.2659 44.4765 24.5555 44.5827 24.7529C44.6822 24.9503 44.961 25.4174 45.1932 25.7925C45.4255 26.161 45.6113 26.4768 45.6113 26.49C45.6113 26.536 46.2285 27.6151 46.4077 27.8783C46.7727 28.4244 47.0713 29.0166 46.985 29.0495C46.9386 29.0627 46.6532 28.9311 46.3413 28.7534C46.0294 28.5692 45.6113 28.3323 45.4056 28.2205C44.8282 27.8981 44.3902 27.648 43.4877 27.1216C43.0298 26.8584 42.4126 26.5031 42.1074 26.3386C41.8087 26.1741 41.2049 25.8188 40.7669 25.5622C40.3289 25.299 39.9572 25.0819 39.9373 25.0819C39.9174 25.0819 39.6387 24.9239 39.3202 24.7331C39.0016 24.5357 38.4508 24.2265 38.0925 24.0357C37.7407 23.8514 37.3227 23.608 37.1634 23.5093C37.0108 23.404 36.7519 23.2526 36.586 23.1671C36.4201 23.0881 36.1414 22.9236 35.9556 22.8118C35.7764 22.6999 35.3119 22.4236 34.927 22.2064C34.5421 21.9827 33.9913 21.6669 33.6993 21.5024C33.4073 21.3379 33.1352 21.1997 33.0887 21.1997C32.9626 21.1997 32.0867 21.6735 31.3235 22.1604C31.204 22.2328 30.8523 22.4302 30.5471 22.5947C30.2352 22.7591 29.8038 23.0026 29.5848 23.1342C29.3658 23.2592 28.9212 23.5158 28.5894 23.7001C28.2642 23.8843 27.8527 24.1212 27.6802 24.2265C27.5143 24.3252 27.2422 24.4831 27.0829 24.5752C26.7976 24.7331 25.3442 25.5622 24.9063 25.8188C24.7802 25.8978 24.4815 26.0623 24.2426 26.2004C22.9287 26.944 22.3314 27.2927 22.1522 27.4243C22.046 27.5033 21.7408 27.6678 21.482 27.7994C21.2231 27.9244 20.8382 28.1349 20.6259 28.2731C20.4135 28.4047 20.1945 28.5363 20.1348 28.5626C19.9291 28.6416 19.2654 29.043 19.2256 29.1022C19.1858 29.168 19 29.1811 19 29.1219Z" fill="#FDFCFC"/>
<path d="M31.4029 52.1484C30.7128 51.9378 30.162 51.1022 30.235 50.3718C30.3013 49.7335 30.6929 49.2269 31.3299 48.9505L31.6817 48.7926L31.6949 48.1215C31.7016 47.7464 31.7016 47.4306 31.6817 47.4174C31.6684 47.3977 31.5556 47.4437 31.4361 47.5227C30.9185 47.8385 29.5647 47.8188 29.0073 47.4832C28.4896 47.1805 28.1645 46.8384 27.8725 46.2988L27.5937 45.7724L26.3063 45.733L26.2665 47.0884L25.8152 47.1082C25.4038 47.1279 25.3308 47.1082 25.0388 46.9239C24.6273 46.6607 24.1628 46.1212 24.0168 45.733C23.9173 45.4829 23.9106 45.3842 23.977 45.1539C24.0168 45.0092 24.1164 44.8381 24.196 44.792C24.4482 44.6209 25.1649 44.5552 26.6647 44.5552H28.1246L28.4565 44.3051C28.9343 43.9498 29.0139 43.5155 28.6887 42.9957L28.5626 42.7852H26.0342C24.6406 42.7852 23.4793 42.7654 23.4395 42.7457C23.4063 42.7194 23.3797 42.4693 23.3797 42.1798V41.66H42.7642L42.7244 42.8115H41.4635L41.4568 43.1076C41.4568 43.2721 41.4502 44.6933 41.4436 46.2659L41.4303 49.1282L41.0786 49.115C40.8928 49.115 40.5941 49.1019 40.4216 49.1019L40.103 49.0953L40.0898 47.2397L40.0699 45.3776L39.4593 45.3579C38.7891 45.3382 38.7758 45.3513 38.9483 45.6869C39.028 45.8448 39.0479 46.0225 39.028 46.4304C39.0014 46.9173 38.9749 47.0029 38.7692 47.2924C38.0657 48.2794 36.254 48.2794 35.3449 47.299C34.96 46.891 34.4822 45.8843 34.2897 45.0815C34.2034 44.7131 34.1437 44.3907 34.1636 44.3643C34.2101 44.2788 35.2586 44.134 35.325 44.1998C35.3515 44.2327 35.451 44.5288 35.5506 44.8512C35.9023 46.0751 36.1279 46.4502 36.6323 46.6739C36.9973 46.8318 37.2893 46.7923 37.5813 46.5554C37.7538 46.4107 37.7804 46.3383 37.7804 46.0685C37.7804 45.6737 37.6277 45.4763 37.1632 45.2592L36.8181 45.0947L36.8314 44.6736C36.838 44.4499 36.8447 44.2327 36.8513 44.1998C36.8513 44.1735 37.5813 44.1604 38.4772 44.1735L40.1097 44.2064L40.0699 42.8115L36.5726 42.7983L33.0686 42.7786L33.0554 45.779C33.0421 47.4306 33.0487 48.7992 33.0686 48.8189C33.0885 48.8452 33.2677 48.9439 33.4668 49.0361C33.9645 49.2729 34.4755 49.7138 35.2387 50.5626L35.8758 51.2798L35.451 51.668L35.0263 52.0497L34.7012 51.6746C33.4004 50.181 32.5178 49.6546 31.8741 49.9836C31.3631 50.2468 31.383 51.01 31.9073 51.1087C32.1263 51.1482 32.2723 51.1351 32.6837 51.0298C32.8297 50.9969 32.8762 51.0166 32.9094 51.1087C32.9293 51.1811 33.0155 51.3851 33.1085 51.5627C33.1947 51.747 33.2677 51.9246 33.2677 51.9575C33.2677 51.997 33.1217 52.076 32.9425 52.1418C32.551 52.28 31.8343 52.28 31.4029 52.1484ZM30.5535 46.4567C30.9716 46.3646 31.3764 46.029 31.5622 45.6145C31.6684 45.3711 31.6883 45.1605 31.6949 44.0682L31.7082 42.8115L30.892 42.7917C30.4407 42.7786 30.0292 42.7852 29.9761 42.8049C29.8965 42.8312 29.9098 42.8904 30.0292 43.1142C30.3677 43.7656 30.2217 44.5617 29.6642 45.0947C29.4851 45.2658 29.2528 45.4434 29.1466 45.4895C28.9144 45.5948 28.9144 45.6079 29.1201 45.9106C29.3192 46.2001 29.4585 46.3054 29.797 46.4304C30.1155 46.5423 30.1354 46.5423 30.5535 46.4567Z" fill="#FDFCFC"/>
<path d="M37.13 50.3718C36.8247 50.1612 36.6787 49.5493 36.8513 49.2203C36.9442 49.0558 37.4087 48.7663 37.5813 48.7663C37.8534 48.7663 38.2449 48.9768 38.3843 49.2071C38.6232 49.5888 38.5236 50.0428 38.1387 50.3389C37.9197 50.51 37.3556 50.5297 37.13 50.3718Z" fill="#FDFCFC"/>
<path d="M37.0172 38.2516C36.9707 38.1266 36.9774 31.0993 37.0238 30.9742C37.057 30.8953 37.1632 30.869 37.5149 30.869C38.0193 30.869 38.079 30.9019 38.2781 31.3164C38.4307 31.6322 38.517 31.6585 38.6696 31.4348C38.9815 30.9611 39.7646 30.6716 40.5477 30.7439C42.0143 30.8821 43.023 32.1191 43.023 33.7773C43.023 34.6853 42.7575 35.3762 42.1603 36.0013C41.6161 36.5737 41.1914 36.7514 40.3353 36.7514C39.5721 36.758 39.247 36.6461 38.809 36.2382C38.6696 36.1066 38.5435 36.0144 38.5303 36.0276C38.5104 36.0408 38.5037 36.5737 38.5104 37.2054L38.517 38.3503L37.787 38.3437C37.2296 38.3437 37.0437 38.3174 37.0172 38.2516ZM40.5941 35.317C41.4834 34.9485 41.8484 33.6523 41.2843 32.81C40.8662 32.1849 40.0035 31.9283 39.3731 32.2507C39.0943 32.3889 38.6895 32.8363 38.5833 33.1259C38.4772 33.3956 38.4971 34.0931 38.6165 34.4418C38.7293 34.7643 39.1076 35.1327 39.5191 35.3104C39.7978 35.4288 40.3088 35.4354 40.5941 35.317Z" fill="#FDFCFC"/>
<path d="M25.1781 36.6922C24.342 36.4553 23.7912 35.9881 23.3864 35.1525L23.1475 34.6524V33.6983C23.1475 32.7442 23.1475 32.7442 23.3665 32.3231C23.4925 32.0928 23.6518 31.8428 23.7248 31.7638C23.7978 31.6914 23.9305 31.5269 24.0234 31.4151C24.1164 31.2967 24.2159 31.198 24.2491 31.198C24.2823 31.198 24.5212 31.0927 24.7866 30.9677C25.2246 30.7505 25.3241 30.7308 25.8418 30.7308C26.5187 30.7308 26.8837 30.8624 27.3217 31.2638L27.6203 31.5335L27.6601 30.9019H29.1201V36.6264L28.6423 36.6461C28.118 36.6659 28.1313 36.679 27.8127 36.1658C27.6269 35.8631 27.6004 35.8499 27.534 35.9618C27.4146 36.1724 27.0827 36.4619 26.7974 36.6066C26.4523 36.7909 25.6759 36.8303 25.1781 36.6922ZM26.658 35.3104C26.7708 35.2578 27.0031 35.0867 27.1624 34.9288C27.4013 34.705 27.4809 34.5734 27.5473 34.2839C27.7066 33.5667 27.607 33.0798 27.1956 32.5929C26.6514 31.9481 25.5365 31.9546 24.999 32.6061C24.415 33.3035 24.4614 34.4682 25.0985 35.0406C25.4502 35.3565 26.2599 35.4946 26.658 35.3104Z" fill="#FDFCFC"/>
<path d="M32.7036 36.679C32.3586 36.554 31.8409 36.1921 31.7812 36.0276C31.7148 35.8631 31.6219 35.9289 31.4162 36.2974L31.2039 36.6659L30.1819 36.6264L30.1686 32.8298C30.1553 30.7439 30.1752 29.02 30.2018 29.0068C30.2283 28.9937 30.5601 29.0003 30.945 29.02L31.6418 29.0595L31.6551 30.2439C31.6618 30.8953 31.6684 31.4677 31.6684 31.5204C31.675 31.5664 31.8011 31.4809 31.9604 31.3296C32.113 31.1716 32.405 30.9742 32.6041 30.8821C32.9293 30.7439 33.0421 30.7242 33.5995 30.7505C34.1636 30.7703 34.2764 30.7966 34.6414 30.994C35.3648 31.3822 35.9554 32.1257 36.1213 32.889C36.2142 33.2838 36.2142 34.08 36.1213 34.5537C35.9687 35.3762 35.3581 36.1724 34.5751 36.5672C34.1371 36.7909 33.1815 36.8501 32.7036 36.679ZM33.5265 35.3433C34.5021 35.1591 35.0263 33.9813 34.5684 33.0074C34.2897 32.4087 33.7853 32.0928 33.1748 32.1323C32.6041 32.1652 32.2922 32.3429 31.9737 32.8166C31.7148 33.1917 31.7082 33.218 31.7082 33.7707C31.7082 34.3102 31.7148 34.3497 31.9537 34.705C32.1927 35.0538 32.4249 35.2314 32.8032 35.3499C33.0355 35.4157 33.135 35.4157 33.5265 35.3433Z" fill="#FDFCFC"/>
</g>
</svg>
