<svg id="Layer_1" data-name="Layer 1" xmlns="http://www.w3.org/2000/svg" width="70" height="70" viewBox="0 0 70 70">
  <title>news</title>
  <path d="M68,34.59469a33.02331,33.02331,0,0,1-1.52,9.95c-.15.49-.32.98-.5,1.46a32.97315,32.97315,0,0,1-5.04,9,31.55113,31.55113,0,0,1-4,4.25q-.735.645-1.5,1.26a34.38476,34.38476,0,0,1-4.09,2.75,33.0434,33.0434,0,0,1-31.68.56l-10.55,4.5a1.00548,1.00548,0,0,1-1.39-1.04l1.36-11.29.1-.84a1.429,1.429,0,0,1-.11-.15,32.8147,32.8147,0,0,1-2.47-3.57v-.01a32.72612,32.72612,0,0,1-3.77-9.36v-.01c-.12006-.54-.23-1.07-.32-1.62a28.90658,28.90658,0,0,1-.4-3.12c-.06-.67-.1-1.35-.11-2.04-.01-.22-.01-.45-.01-.68a33.34711,33.34711,0,0,1,1.69-10.48,33.02172,33.02172,0,0,1,54.3-13.2,32.32944,32.32944,0,0,1,3.68,4.25,30.62432,30.62432,0,0,1,2.49,3.96v.01a32.60131,32.60131,0,0,1,3.29,9.48c.09.49.17.99.24,1.49A31.74419,31.74419,0,0,1,68,34.59469Z" style="fill: #ed1926"/>
  <polygon points="14.387 46.898 59.16 46.898 64 41.81 59.16 35.449 14.387 35.449 14.387 46.898" style="opacity: 0.2"/>
  <polygon points="48.226 37.484 11.489 37.484 7.518 32.396 11.489 26.035 48.226 26.035 48.226 37.484" style="opacity: 0.2"/>
  <polygon points="11.843 45.626 56.616 45.626 61.456 40.538 56.616 34.177 11.843 34.177 11.843 45.626" style="fill: #fff"/>
  <polygon points="46.19 35.449 9.454 35.449 5.483 30.361 9.454 24 46.19 24 46.19 35.449"/>
  <g>
    <path d="M12.167,27.501h1.14453l.938,4.13477L15.333,27.501h1.19043l1.022,4.1123.94629-4.1123h1.15186l-1.48779,5.3252H16.897l-.99951-3.792-1.04492,3.792-1.25146.00781Z" style="fill: #fff"/>
    <path d="M23.43115,28.36279H21.40967v1.33545h1.79248v.84668H21.40967v1.41162h2.02148v.86963H20.34131v-5.333h3.08984Z" style="fill: #fff"/>
    <path d="M26.69824,32.82617H24.40186V27.501h2.19727c1.11377,0,1.73193.57959,1.73193,1.373a1.22808,1.22808,0,0,1-.90771,1.2207,1.29152,1.29152,0,0,1,1.02979,1.28955C28.45313,32.231,27.80469,32.82617,26.69824,32.82617Zm-.25146-4.46338h-.97656v1.33545h.97656c.50342,0,.79346-.229.79346-.66406C27.24023,28.60693,26.9502,28.36279,26.44678,28.36279Zm.07617,2.15918H25.47021v1.43457H26.5459c.51855,0,.82373-.252.82373-.70215C27.36963,30.79688,27.0415,30.522,26.52295,30.522Z" style="fill: #fff"/>
    <path d="M31.14844,32.87939c-1.10645,0-1.96094-.57959-1.97607-1.58691h1.14453a.73072.73072,0,0,0,.80859.70947c.50342,0,.80127-.2666.80127-.64844,0-1.15186-2.74707-.45752-2.73926-2.3877,0-.96143.77832-1.541,1.877-1.541a1.68266,1.68266,0,0,1,1.90723,1.51807h-1.1748a.70323.70323,0,0,0-.76318-.6333c-.41943-.01514-.73242.19092-.73242.62549,0,1.06836,2.73145.47314,2.73145,2.3501A1.68,1.68,0,0,1,31.14844,32.87939Z" style="fill: #fff"/>
    <path d="M33.958,27.501h1.06836v5.3252H33.958Z" style="fill: #fff"/>
    <path d="M35.79736,27.501h3.90576v.86182H38.28418v4.46338H37.2168V28.36279H35.79736Z" style="fill: #fff"/>
    <path d="M43.57324,28.36279H41.55176v1.33545h1.793v.84668h-1.793v1.41162h2.02148v.86963H40.4834v-5.333h3.08984Z" style="fill: #fff"/>
  </g>
  <g>
    <path d="M17.63379,41.834H15.5127l-.35107,1.01465H14.04l1.915-5.333h1.24365l1.915,5.333H17.98438Zm-1.06055-3.082-.77051,2.22754h1.541Z"/>
    <path d="M21.67188,42.90234c-1.10645,0-1.96094-.58008-1.97607-1.58691h1.14453a.73065.73065,0,0,0,.80859.709c.50342,0,.80127-.2666.80127-.64844,0-1.15137-2.74707-.458-2.73926-2.3877,0-.96094.77832-1.541,1.877-1.541a1.68263,1.68263,0,0,1,1.90723,1.51758h-1.1748a.70321.70321,0,0,0-.76318-.63281c-.41943-.01562-.73242.19043-.73242.626,0,1.06738,2.73145.47266,2.73145,2.34961A1.68029,1.68029,0,0,1,21.67188,42.90234Z"/>
    <path d="M26.32031,42.90234c-1.10645,0-1.96094-.58008-1.97607-1.58691h1.14453a.73065.73065,0,0,0,.80859.709c.50342,0,.80127-.2666.80127-.64844,0-1.15137-2.74707-.458-2.73926-2.3877,0-.96094.77832-1.541,1.877-1.541a1.68263,1.68263,0,0,1,1.90723,1.51758h-1.1748a.70321.70321,0,0,0-.76318-.63281c-.41943-.01562-.73242.19043-.73242.626,0,1.06738,2.73145.47266,2.73145,2.34961A1.68029,1.68029,0,0,1,26.32031,42.90234Z"/>
    <path d="M29.12988,37.52344h1.06836v5.3252H29.12988Z"/>
    <path d="M33.09033,42.90234c-1.10645,0-1.96094-.58008-1.97607-1.58691h1.14453a.73065.73065,0,0,0,.80859.709c.50342,0,.80078-.2666.80078-.64844,0-1.15137-2.74609-.458-2.73877-2.3877,0-.96094.77832-1.541,1.877-1.541a1.68289,1.68289,0,0,1,1.90723,1.51758h-1.1748a.70321.70321,0,0,0-.76318-.63281c-.41943-.01562-.73242.19043-.73242.626,0,1.06738,2.73145.47266,2.73145,2.34961A1.68029,1.68029,0,0,1,33.09033,42.90234Z"/>
    <path d="M35.61768,37.52344h3.90576v.8623H38.10449v4.46289H37.03711V38.38574H35.61768Z"/>
    <path d="M43.56934,41.834H41.44824l-.35059,1.01465H39.97559l1.915-5.333h1.24414l1.91406,5.333H43.91992Zm-1.06055-3.082-.77051,2.22754h1.541Z"/>
    <path d="M50.32324,37.51563v5.333H49.25488l-2.418-3.6543v3.6543H45.76855v-5.333h1.06836l2.418,3.66211V37.51563Z"/>
    <path d="M51.09668,37.52344h3.90625v.8623H53.584v4.46289H52.51563V38.38574H51.09668Z"/>
  </g>
  <line x1="30" y1="50" x2="42" y2="50" style="fill: none;stroke: #fff;stroke-linecap: round;stroke-miterlimit: 10"/>
  <line x1="46" y1="50" x2="50" y2="50" style="fill: none;stroke: #fff;stroke-linecap: round;stroke-miterlimit: 10"/>
</svg>
