<svg id="Layer_1" data-name="Layer 1" xmlns="http://www.w3.org/2000/svg" width="65" height="65" viewBox="0 0 65 65">
  <title>news</title>
  <path d="M32.5,63.5h-.00006A30.99994,30.99994,0,0,1,1.5,32.50006V32.5a31,31,0,0,1,31-31h28a3,3,0,0,1,3,3v28A31,31,0,0,1,32.5,63.5Z" style="fill: #f16330"/>
  <polygon points="58.14 43.835 10.736 43.835 11.684 33 59.088 33 58.14 43.835" style="opacity: 0.2"/>
  <polygon points="44.071 34.354 6.148 34.354 7.096 23.519 45.019 23.519 44.071 34.354" style="opacity: 0.2"/>
  <polygon points="56.904 42.481 8.146 42.481 9.212 30.291 57.971 30.291 56.904 42.481" style="fill: #fff"/>
  <polygon points="42.835 33 4.912 33 5.86 22.165 43.783 22.165 42.835 33"/>
  <g>
    <path d="M7.71094,24.95459H8.93066l.61523,4.4082,1.54-4.4082h1.26953l.70605,4.38379,1.3916-4.38379h1.22852l-2.083,5.67676h-1.3418l-.71143-4.04248-1.46826,4.04248-1.33447.00781Z" style="fill: #fff"/>
    <path d="M19.62842,25.874H17.47314l-.12451,1.42334h1.91113l-.0791.90283H17.26953l-.13135,1.50391h2.15527l-.08154.92725H15.918l.49756-5.68457h3.29395Z" style="fill: #fff"/>
    <path d="M22.68848,30.63135H20.24121l.49707-5.67676h2.3418c1.1875,0,1.79248.61768,1.71826,1.46436a1.46159,1.46159,0,0,1-1.08154,1.30029,1.24033,1.24033,0,0,1,.97754,1.375A1.78562,1.78562,0,0,1,22.68848,30.63135Zm.02881-2.45654H21.59521l-.13379,1.5293h1.14648c.55273,0,.90137-.26855.94336-.748C23.59375,28.46777,23.27,28.1748,22.71729,28.1748ZM22.8374,25.874h-1.041l-.12451,1.42334h1.041c.53613,0,.86719-.24414.90771-.7085C23.66016,26.13379,23.37354,25.874,22.8374,25.874Z" style="fill: #fff"/>
    <path d="M27.42188,30.68848c-1.17969,0-2.03662-.61865-1.9585-1.69189h1.21973a.7048.7048,0,0,0,.79639.75635.81117.81117,0,0,0,.91406-.69092c.10742-1.22852-2.88525-.48828-2.69727-2.5459A1.924,1.924,0,0,1,27.84082,24.874c1.16309,0,1.9082.59326,1.8916,1.61768h-1.252a.67723.67723,0,0,0-.75439-.67529.72847.72847,0,0,0-.83936.66748c-.09961,1.13818,2.86768.50391,2.69287,2.50439A1.98713,1.98713,0,0,1,27.42188,30.68848Z" style="fill: #fff"/>
    <path d="M30.91211,24.95459h1.13867l-.49707,5.67676H30.415Z" style="fill: #fff"/>
    <path d="M32.87012,24.95459h4.16406l-.08105.91943h-1.5127l-.416,4.75732h-1.1377l.416-4.75732H32.78906Z" style="fill: #fff"/>
    <path d="M41.07324,25.874H38.918l-.124,1.42334h1.91113l-.0791.90283H38.71484L38.583,29.7041h2.15527l-.08105.92725H37.36328l.498-5.68457h3.293Z" style="fill: #fff"/>
  </g>
  <g>
    <path d="M15.292,39.05957H13.03125l-.46875,1.082H11.36719L13.90576,34.457H15.231l1.54443,5.68457h-1.2041Zm-.84326-3.28516-1.0293,2.375H15.063Z"/>
    <path d="M19.49023,40.19922c-1.17969,0-2.03662-.61914-1.9585-1.69141h1.21973a.70467.70467,0,0,0,.79639.75586.81116.81116,0,0,0,.91406-.69141c.10742-1.22852-2.88525-.48828-2.69727-2.5459a1.9237,1.9237,0,0,1,2.14453-1.6416c1.16309,0,1.9082.59277,1.8916,1.61719h-1.252a.67714.67714,0,0,0-.75439-.6748.72813.72813,0,0,0-.83936.667c-.09961,1.13867,2.86768.50391,2.69287,2.50488A1.98748,1.98748,0,0,1,19.49023,40.19922Z"/>
    <path d="M24.43945,40.19922c-1.17969,0-2.03662-.61914-1.9585-1.69141h1.21973a.70467.70467,0,0,0,.79639.75586.81116.81116,0,0,0,.91406-.69141c.10742-1.22852-2.88525-.48828-2.69727-2.5459a1.9237,1.9237,0,0,1,2.14453-1.6416c1.16309,0,1.9082.59277,1.8916,1.61719H25.498a.67714.67714,0,0,0-.75439-.6748.72813.72813,0,0,0-.83936.667c-.09961,1.13867,2.86768.50391,2.69287,2.50488A1.98748,1.98748,0,0,1,24.43945,40.19922Z"/>
    <path d="M27.92969,34.46484h1.13867l-.49707,5.67676H27.43262Z"/>
    <path d="M31.64746,40.19922c-1.17969,0-2.03662-.61914-1.9585-1.69141h1.21973a.70467.70467,0,0,0,.79639.75586.81145.81145,0,0,0,.91406-.69141c.10742-1.22852-2.88525-.48828-2.69727-2.5459a1.9237,1.9237,0,0,1,2.14453-1.6416c1.16309,0,1.9082.59277,1.8916,1.61719h-1.252a.67688.67688,0,0,0-.75439-.6748.72813.72813,0,0,0-.83936.667c-.09961,1.13867,2.86816.50391,2.69238,2.50488A1.98664,1.98664,0,0,1,31.64746,40.19922Z"/>
    <path d="M34.83691,34.46484H39.001l-.08105.91992h-1.5127l-.416,4.75684h-1.1377l.416-4.75684H34.75586Z"/>
    <path d="M42.90527,39.05957H40.64453l-.46875,1.082H38.98047L41.51855,34.457h1.3252l1.54492,5.68457h-1.2041Zm-.84375-3.28516-1.02832,2.375h1.64355Z"/>
    <path d="M50.501,34.457l-.49707,5.68457H48.86523l-2.2373-3.89551-.34082,3.89551H45.14844l.49707-5.68457h1.13867l2.2373,3.90332L49.3623,34.457Z"/>
    <path d="M51.31738,34.46484h4.16406l-.08105.91992H53.88672l-.416,4.75684H52.333l.416-4.75684h-1.5127Z"/>
  </g>
  <path d="M25,46H41a0,0,0,0,1,0,0v0a1,1,0,0,1-1,1H24a0,0,0,0,1,0,0v0A1,1,0,0,1,25,46Z" style="fill: #fff"/>
  <path d="M44,46h2a0,0,0,0,1,0,0v0a1,1,0,0,1-1,1H43a0,0,0,0,1,0,0v0A1,1,0,0,1,44,46Z" style="fill: #fff"/>
</svg>
