<svg id="Layer_1" data-name="Layer 1" xmlns="http://www.w3.org/2000/svg" width="60" height="60" viewBox="0 0 60 60">
  <title>logo</title>
  <path d="M58.94,29.64A28.78632,28.78632,0,0,1,49.24,51.27c-.43.38-.87.75-1.31,1.11a32.13116,32.13116,0,0,1-3.59,2.41,28.94959,28.94959,0,0,1-27.78.49L7.3,59.23a.88918.88918,0,0,1-1.22-.92l1.2-9.9.09-.73A30.73019,30.73019,0,0,1,5.1,44.41V44.4a28.67,28.67,0,0,1-3.3-8.2v-.01c-.11-.48-.21-.94-.28-1.42a24.71152,24.71152,0,0,1-.36-2.74c-.05-.59-.08-1.18-.09-1.79-.01-.19-.01-.39-.01-.6a29.43827,29.43827,0,0,1,1.48-9.19A28.95328,28.95328,0,0,1,50.16,8.88a28.52624,28.52624,0,0,1,3.23,3.72,27.808,27.808,0,0,1,2.18,3.48v.01a28.6527,28.6527,0,0,1,2.89,8.31c.08.43.15.87.21,1.31A28.40681,28.40681,0,0,1,58.94,29.64Z" style="fill: #f20018"/>
  <path d="M58.94,29.64A28.78632,28.78632,0,0,1,49.24,51.27c-.43.38-.87.75-1.31,1.11a32.13116,32.13116,0,0,1-3.59,2.41A28.7713,28.7713,0,0,1,30,58.59V.7A28.86361,28.86361,0,0,1,50.16,8.88a28.52624,28.52624,0,0,1,3.23,3.72,27.808,27.808,0,0,1,2.18,3.48v.01a28.6527,28.6527,0,0,1,2.89,8.31c.08.43.15.87.21,1.31A28.40681,28.40681,0,0,1,58.94,29.64Z" style="fill: #114a9b"/>
  <path d="M24.16846,25.09961H20.88037V38H16.90186V25.09961H13.61377V21.58154H24.16846Z" style="fill: #fff"/>
  <path d="M45.666,21.45654h4.001V37.875H45.666l-7.81836-9.52v9.52h-4.001V21.45654h3.65625L45.666,31.11426Z" style="fill: #fff"/>
  <path d="M55.63628,29.6815A25.50015,25.50015,0,0,1,47.0436,48.84222c-.38091.33662-.77068.66438-1.16045.98333A28.46315,28.46315,0,0,1,42.703,51.9604a25.64477,25.64477,0,0,1-24.60873.43405L9.89137,55.89355a.78767.78767,0,0,1-1.0807-.815l1.063-8.76986.0797-.64665A27.2221,27.2221,0,0,1,7.9425,42.76536v-.00887a25.39708,25.39708,0,0,1-2.92327-7.26386v-.00887c-.09743-.42524-.186-.83269-.248-1.25794a21.89051,21.89051,0,0,1-.31894-2.4272c-.04428-.52262-.07083-1.04529-.0797-1.58564-.00887-.16831-.00887-.34549-.00887-.53148a26.07767,26.07767,0,0,1,1.311-8.14089A25.648,25.648,0,0,1,47.85856,11.2914a25.26975,25.26975,0,0,1,2.86131,3.29531A24.63347,24.63347,0,0,1,52.651,17.66943v.00887a25.38178,25.38178,0,0,1,2.5601,7.36135c.07083.38091.13284.77068.186,1.16045A25.164,25.164,0,0,1,55.63628,29.6815Z" style="fill: none;stroke: #fff;stroke-miterlimit: 10"/>
</svg>
