<svg id="Layer_1" data-name="Layer 1" xmlns="http://www.w3.org/2000/svg" width="60" height="60" viewBox="0 0 60 60">
  <title>news</title>
  <g>
    <path d="M58.94,29.64046a28.78632,28.78632,0,0,1-9.7,21.62994c-.43.38-.87.75-1.31,1.11a32.13116,32.13116,0,0,1-3.59,2.41,28.94959,28.94959,0,0,1-27.78.49l-9.26,3.95a.88918.88918,0,0,1-1.22-.92l1.2-9.9.09-.73a30.73019,30.73019,0,0,1-2.27-3.27v-.01a28.67,28.67,0,0,1-3.3-8.2v-.01c-.11-.48-.21-.94-.28-1.42a24.71152,24.71152,0,0,1-.36-2.74c-.05-.59-.08-1.18-.09-1.79-.01-.19-.01-.39-.01-.6a29.43827,29.43827,0,0,1,1.48-9.19,28.95328,28.95328,0,0,1,47.62-11.57,28.52624,28.52624,0,0,1,3.23,3.72,27.808,27.808,0,0,1,2.18,3.48v.01a28.6527,28.6527,0,0,1,2.89,8.31c.08.43.15.87.21,1.31A28.40681,28.40681,0,0,1,58.94,29.64046Z" style="fill: #f20018"/>
    <path d="M58.94,29.64046a28.78632,28.78632,0,0,1-9.7,21.62994c-.43.38-.87.75-1.31,1.11a32.13116,32.13116,0,0,1-3.59,2.41,28.7713,28.7713,0,0,1-14.34,3.8V.70045a28.86361,28.86361,0,0,1,20.16,8.18,28.52624,28.52624,0,0,1,3.23,3.72,27.808,27.808,0,0,1,2.18,3.48v.01a28.6527,28.6527,0,0,1,2.89,8.31c.08.43.15.87.21,1.31A28.40681,28.40681,0,0,1,58.94,29.64046Z" style="fill: #114a9b"/>
  </g>
  <polygon points="32.306 31 7.235 31 8.043 21.764 33.114 21.764 32.306 31" style="opacity: 0.2"/>
  <polygon points="53.929 40.236 9.066 40.236 9.99 29.681 54.852 29.681 53.929 40.236" style="opacity: 0.2"/>
  <polygon points="52.929 39.236 8.066 39.236 8.99 28.681 53.852 28.681 52.929 39.236" style="fill: #fff"/>
  <polygon points="31.306 30 6.235 30 7.043 20.764 32.114 20.764 31.306 30"/>
  <g>
    <path d="M13.85059,22.65967l-.48389,5.53564H12.2583l-2.1792-3.793-.33154,3.793H8.63916L9.123,22.65967h1.1084l2.17822,3.80127.33252-3.80127Z" style="fill: #fff"/>
    <path d="M18.06982,23.5625H15.97119l-.12158,1.38525h1.86133l-.07666.87988H15.77295l-.12842,1.46484h2.09863l-.07861.90283h-3.207l.48389-5.53564h3.207Z" style="fill: #fff"/>
    <path d="M18.77979,22.66748h1.18848L20.56641,26.96l1.50049-4.29248h1.23535l.688,4.269,1.355-4.269H26.5415l-2.02832,5.52783H23.20654l-.69287-3.936-1.4292,3.936-1.2998.00781Z" style="fill: #fff"/>
    <path d="M28.68018,28.251c-1.14844,0-1.98291-.60254-1.90674-1.647h1.1875a.68581.68581,0,0,0,.77539.73633A.7893.7893,0,0,0,29.626,26.667c.105-1.1958-2.80859-.47559-2.62549-2.479a1.87325,1.87325,0,0,1,2.08789-1.6001c1.13184,0,1.85791.57861,1.8418,1.57617H29.71045a.6576.6576,0,0,0-.73437-.65674.70746.70746,0,0,0-.81689.64893c-.09668,1.10889,2.792.49121,2.62158,2.43994A1.93449,1.93449,0,0,1,28.68018,28.251Z" style="fill: #fff"/>
  </g>
  <g>
    <path d="M13.53613,36.53516H11.335l-.45654,1.05371H9.71436L12.186,32.05371h1.291L14.981,37.58887H13.80811Zm-.82031-3.19922-1.00244,2.31348H13.313Z"/>
    <path d="M17.627,37.64453c-1.14844,0-1.98291-.60254-1.90674-1.64648h1.1875a.68581.68581,0,0,0,.77539.73633.78958.78958,0,0,0,.88965-.67383c.105-1.19531-2.80908-.47559-2.626-2.47852a1.87438,1.87438,0,0,1,2.08838-1.60059c1.13184,0,1.85742.5791,1.8418,1.57617H18.65723a.65743.65743,0,0,0-.73486-.65625.707.707,0,0,0-.81641.64844c-.09717,1.10938,2.792.49121,2.62158,2.44043A1.9345,1.9345,0,0,1,17.627,37.64453Z"/>
    <path d="M22.44824,37.64453c-1.14844,0-1.98291-.60254-1.90674-1.64648H21.729a.68581.68581,0,0,0,.77539.73633.78958.78958,0,0,0,.88965-.67383c.105-1.19531-2.80908-.47559-2.626-2.47852a1.87438,1.87438,0,0,1,2.08838-1.60059c1.13184,0,1.85742.5791,1.8418,1.57617H23.47852a.65743.65743,0,0,0-.73486-.65625.707.707,0,0,0-.81641.64844c-.09717,1.10938,2.792.49121,2.62158,2.44043A1.9345,1.9345,0,0,1,22.44824,37.64453Z"/>
    <path d="M25.84961,32.06152H26.958l-.48389,5.52734h-1.1084Z"/>
    <path d="M29.4707,37.64453c-1.14844,0-1.98291-.60254-1.90674-1.64648h1.1875a.68581.68581,0,0,0,.77539.73633.78958.78958,0,0,0,.88965-.67383c.105-1.19531-2.80908-.47559-2.626-2.47852a1.87438,1.87438,0,0,1,2.08838-1.60059c1.13184,0,1.85742.5791,1.8418,1.57617H30.501a.65743.65743,0,0,0-.73486-.65625.707.707,0,0,0-.81641.64844c-.09717,1.10938,2.79248.49121,2.62158,2.44043A1.9345,1.9345,0,0,1,29.4707,37.64453Z"/>
    <path d="M32.5791,32.06152h4.05469l-.07812.89453H35.082l-.40527,4.63281h-1.1084l.40527-4.63281H32.501Z"/>
    <path d="M40.4375,36.53516H38.23633l-.45605,1.05371H36.61621l2.47168-5.53516h1.291l1.50391,5.53516H40.71Zm-.82031-3.19922-1.002,2.31348h1.59961Z"/>
    <path d="M47.83691,32.05371l-.48437,5.53516h-1.1084l-2.17871-3.793-.332,3.793H42.625l.48438-5.53516h1.1084l2.17773,3.80078.333-3.80078Z"/>
    <path d="M48.63379,32.06152h4.05469l-.07812.89453H51.1377l-.40527,4.63281H49.624l.40527-4.63281H48.55566Z"/>
  </g>
  <polygon points="6.235 30 7.043 20.764 32.114 20.764 6.235 30" style="fill: #fff;opacity: 0.1"/>
  <path d="M22,42H37a0,0,0,0,1,0,0v0a1,1,0,0,1-1,1H21a0,0,0,0,1,0,0v0A1,1,0,0,1,22,42Z" style="fill: #fff"/>
  <path d="M40,42h3a0,0,0,0,1,0,0v0a1,1,0,0,1-1,1H39a0,0,0,0,1,0,0v0A1,1,0,0,1,40,42Z" style="fill: #fff"/>
</svg>
