<svg width="202" height="25" viewBox="0 0 202 25" fill="none" xmlns="http://www.w3.org/2000/svg">
<path d="M25.5 0L201.5 0V25H0.198L25.5 0Z" fill="#71717A"/>
<path d="M48.0811 8V16H47.1436L42.7842 9.71875H42.7061V16H41.7373V8H42.6748L47.0498 14.2969H47.1279V8H48.0811ZM51.6602 16.1406C51.2799 16.1406 50.9349 16.069 50.625 15.9258C50.3151 15.7799 50.069 15.5703 49.8867 15.2969C49.7044 15.0208 49.6133 14.6875 49.6133 14.2969C49.6133 13.9531 49.681 13.6745 49.8164 13.4609C49.9518 13.2448 50.1328 13.0755 50.3594 12.9531C50.5859 12.8307 50.8359 12.7396 51.1094 12.6797C51.3854 12.6172 51.6628 12.5677 51.9414 12.5313C52.306 12.4844 52.6016 12.4492 52.8281 12.4258C53.0573 12.3997 53.224 12.3568 53.3281 12.2969C53.4349 12.237 53.4883 12.1328 53.4883 11.9844V11.9531C53.4883 11.5677 53.3828 11.2682 53.1719 11.0547C52.9635 10.8411 52.6471 10.7344 52.2227 10.7344C51.7826 10.7344 51.4375 10.8307 51.1875 11.0234C50.9375 11.2161 50.7617 11.4219 50.6602 11.6406L49.7852 11.3281C49.9414 10.9635 50.1497 10.6797 50.4102 10.4766C50.6732 10.2708 50.9596 10.1276 51.2695 10.0469C51.582 9.96354 51.8893 9.92188 52.1914 9.92188C52.3841 9.92188 52.6055 9.94531 52.8555 9.99219C53.1081 10.0365 53.3516 10.1289 53.5859 10.2695C53.8229 10.4102 54.0195 10.6224 54.1758 10.9062C54.332 11.1901 54.4102 11.5703 54.4102 12.0469V16H53.4883V15.1875H53.4414C53.3789 15.3177 53.2747 15.457 53.1289 15.6055C52.9831 15.7539 52.7891 15.8802 52.5469 15.9844C52.3047 16.0885 52.0091 16.1406 51.6602 16.1406ZM51.8008 15.3125C52.1654 15.3125 52.4727 15.2409 52.7227 15.0977C52.9753 14.9544 53.1654 14.7695 53.293 14.543C53.4232 14.3164 53.4883 14.0781 53.4883 13.8281V12.9844C53.4492 13.0312 53.3633 13.0742 53.2305 13.1133C53.1003 13.1497 52.9492 13.1823 52.7773 13.2109C52.6081 13.237 52.4427 13.2604 52.2813 13.2812C52.1224 13.2995 51.9935 13.3151 51.8945 13.3281C51.6549 13.3594 51.431 13.4102 51.2227 13.4805C51.0169 13.5482 50.8503 13.651 50.7227 13.7891C50.5977 13.9245 50.5352 14.1094 50.5352 14.3437C50.5352 14.6641 50.6536 14.9062 50.8906 15.0703C51.1302 15.2318 51.4336 15.3125 51.8008 15.3125ZM58.7021 10V10.7812H55.5928V10H58.7021ZM56.499 8.5625H57.4209V14.2812C57.4209 14.5417 57.4587 14.737 57.5342 14.8672C57.6123 14.9948 57.7113 15.0807 57.8311 15.125C57.9535 15.1667 58.0824 15.1875 58.2178 15.1875C58.3193 15.1875 58.4027 15.1823 58.4678 15.1719C58.5329 15.1589 58.585 15.1484 58.624 15.1406L58.8115 15.9687C58.749 15.9922 58.6618 16.0156 58.5498 16.0391C58.4378 16.0651 58.2959 16.0781 58.124 16.0781C57.8636 16.0781 57.6084 16.0221 57.3584 15.9102C57.111 15.7982 56.9053 15.6276 56.7412 15.3984C56.5798 15.1693 56.499 14.8802 56.499 14.5312V8.5625ZM60.0889 16V10H61.0107V16H60.0889ZM60.5576 9C60.3779 9 60.223 8.9388 60.0928 8.81641C59.9652 8.69401 59.9014 8.54688 59.9014 8.375C59.9014 8.20313 59.9652 8.05599 60.0928 7.93359C60.223 7.8112 60.3779 7.75 60.5576 7.75C60.7373 7.75 60.891 7.8112 61.0186 7.93359C61.1488 8.05599 61.2139 8.20313 61.2139 8.375C61.2139 8.54688 61.1488 8.69401 61.0186 8.81641C60.891 8.9388 60.7373 9 60.5576 9ZM67.6055 10L65.3867 16H64.4492L62.2305 10H63.2305L64.8867 14.7812H64.9492L66.6055 10H67.6055ZM71.123 16.125C70.5449 16.125 70.0462 15.9974 69.627 15.7422C69.2103 15.4844 68.8887 15.125 68.6621 14.6641C68.4382 14.2005 68.3262 13.6615 68.3262 13.0469C68.3262 12.4323 68.4382 11.8906 68.6621 11.4219C68.8887 10.9505 69.2038 10.5833 69.6074 10.3203C70.0137 10.0547 70.4876 9.92188 71.0293 9.92188C71.3418 9.92188 71.6504 9.97396 71.9551 10.0781C72.2598 10.1823 72.5371 10.3516 72.7871 10.5859C73.0371 10.8177 73.2363 11.125 73.3848 11.5078C73.5332 11.8906 73.6074 12.362 73.6074 12.9219V13.3125H68.9824V12.5156H72.6699C72.6699 12.1771 72.6022 11.875 72.4668 11.6094C72.334 11.3437 72.1439 11.1341 71.8965 10.9805C71.6517 10.8268 71.3626 10.75 71.0293 10.75C70.6621 10.75 70.3444 10.8411 70.0762 11.0234C69.8105 11.2031 69.6061 11.4375 69.4629 11.7266C69.3197 12.0156 69.248 12.3255 69.248 12.6562V13.1875C69.248 13.6406 69.3262 14.0247 69.4824 14.3398C69.6413 14.6523 69.8613 14.8906 70.1426 15.0547C70.4238 15.2161 70.7507 15.2969 71.123 15.2969C71.3652 15.2969 71.584 15.263 71.7793 15.1953C71.9772 15.125 72.1478 15.0208 72.291 14.8828C72.4342 14.7422 72.5449 14.5677 72.623 14.3594L73.5137 14.6094C73.4199 14.9115 73.2624 15.1771 73.041 15.4062C72.8197 15.6328 72.5462 15.8099 72.2207 15.9375C71.8952 16.0625 71.5293 16.125 71.123 16.125ZM78.2285 16V8H79.1504V10.9531H79.2285C79.2962 10.849 79.39 10.7161 79.5098 10.5547C79.6322 10.3906 79.8066 10.2448 80.0332 10.1172C80.2624 9.98698 80.5723 9.92188 80.9629 9.92188C81.4681 9.92188 81.9134 10.0482 82.2988 10.3008C82.6842 10.5534 82.985 10.9115 83.2012 11.375C83.4173 11.8385 83.5254 12.3854 83.5254 13.0156C83.5254 13.651 83.4173 14.2018 83.2012 14.668C82.985 15.1315 82.6855 15.4909 82.3027 15.7461C81.9199 15.9987 81.4785 16.125 80.9785 16.125C80.5931 16.125 80.2845 16.0612 80.0527 15.9336C79.821 15.8034 79.6426 15.6562 79.5176 15.4922C79.3926 15.3255 79.2962 15.1875 79.2285 15.0781H79.1191V16H78.2285ZM79.1348 13C79.1348 13.4531 79.2012 13.8529 79.334 14.1992C79.4668 14.543 79.6608 14.8125 79.916 15.0078C80.1712 15.2005 80.4837 15.2969 80.8535 15.2969C81.2389 15.2969 81.5605 15.1953 81.8184 14.9922C82.0788 14.7865 82.2741 14.5104 82.4043 14.1641C82.5371 13.8151 82.6035 13.4271 82.6035 13C82.6035 12.5781 82.5384 12.1979 82.4082 11.8594C82.2806 11.5182 82.0866 11.2487 81.8262 11.0508C81.5684 10.8503 81.2441 10.75 80.8535 10.75C80.4785 10.75 80.1634 10.8451 79.9082 11.0352C79.653 11.2227 79.4603 11.4857 79.3301 11.8242C79.1999 12.1602 79.1348 12.5521 79.1348 13ZM85.3145 18.25C85.1582 18.25 85.0189 18.237 84.8965 18.2109C84.7741 18.1875 84.6895 18.1641 84.6426 18.1406L84.877 17.3281C85.1009 17.3854 85.2988 17.4063 85.4707 17.3906C85.6426 17.375 85.7949 17.2982 85.9277 17.1602C86.0632 17.0247 86.1868 16.8047 86.2988 16.5L86.4707 16.0313L84.252 10H85.252L86.9082 14.7812H86.9707L88.627 10H89.627L87.0801 16.875C86.9655 17.1849 86.8236 17.4414 86.6543 17.6445C86.485 17.8503 86.2884 18.0026 86.0645 18.1016C85.8431 18.2005 85.5931 18.25 85.3145 18.25Z" fill="white"/>
<path d="M107.648 8H106.127V14.56H98.5211V8H97V14.56C97 14.56 97 16 98.369 16H106.279C107.694 16 107.648 14.56 107.648 14.56V8Z" fill="white"/>
<path d="M112.217 8V16H113.738V9.92L120.584 16H122.105V8H120.584V14.08L113.738 8H112.217Z" fill="white"/>
<path d="M128.183 8H126.662V16H128.183V8Z" fill="white"/>
<path d="M132.744 8V16H142.023C143.392 16 143.392 14.56 143.392 14.56V12.48C143.392 12 142.935 12 142.935 12C143.392 12 143.392 11.52 143.392 11.52V9.44C143.392 8 142.023 8 142.023 8H132.744ZM141.871 11.2H134.265V9.44H141.871V11.2ZM141.871 14.56H134.265V12.64H141.871V14.56Z" fill="white"/>
<path d="M157.088 8H149.482C147.961 8 147.961 9.44 147.961 9.44V14.56C147.961 14.56 147.961 16 149.482 16H157.088C158.609 16 158.609 14.56 158.609 14.56V9.44C158.609 9.44 158.609 8 157.088 8ZM157.088 9.44V14.56H149.482V9.44H157.088Z" fill="white"/>
<path d="M172.762 8H162.114V9.44H166.677V16H168.198V9.44H172.762V8Z" fill="white"/>
<path d="M185.384 11.2H177.778V9.44H186.753V8H177.778C176.257 8 176.257 9.44 176.257 9.44V11.2C176.257 11.2 176.257 12.64 177.778 12.64H185.384V14.56H176.257V16H185.384C186.905 16 186.905 14.56 186.905 14.56V12.64C186.905 12.64 186.905 11.2 185.384 11.2Z" fill="white"/>
</svg>
