<svg id="Layer_1" data-name="Layer 1" xmlns="http://www.w3.org/2000/svg" width="65" height="65" viewBox="0 0 65 65">
  <title>news</title>
  <path d="M32.5,63.5H32.5a31,31,0,0,1-31-31V32.5a31,31,0,0,1,31-31h28a3,3,0,0,1,3,3v28A31,31,0,0,1,32.5,63.5Z" style="fill: #fa1a27"/>
  <rect x="9.2651" y="19.10977" width="38.78129" height="17.23613" rx="5.99999" ry="5.99999" style="opacity: 0.2"/>
  <rect x="20.59057" y="32.70034" width="38.00842" height="16.78044" rx="5.99999" ry="5.99999" style="opacity: 0.2"/>
  <rect x="17.05441" y="31.20811" width="38.78129" height="15.79979" rx="5.49999" ry="5.49999" style="fill: #fff"/>
  <rect x="7" y="16.84467" width="38.78129" height="17.23613" rx="5.99999" ry="5.99999"/>
  <g>
    <path d="M28.56152,43.415h-.15967a1.6693,1.6693,0,0,1-1.71826-1.373h-.042a1.19894,1.19894,0,0,1-.60645.80859,3.35062,3.35062,0,0,1-1.69336.56445,1.3748,1.3748,0,0,1-1.46533-1.55859c0-.21.0083-.41211.0249-.623L23.23,41.208a1.05467,1.05467,0,0,0,1.188,1.12891,3.001,3.001,0,0,0,1.37256-.4209c.312-.17676.54736-.42969.54736-.63184a16.5901,16.5901,0,0,0-.69873-3.13379,10.48084,10.48084,0,0,1,.59814-.86719l.05029.0332c.31152,1.21289.57275,2.51074.80029,3.749a1.37629,1.37629,0,0,0,1.33057,1.27148h.14307Z" style="stroke: #000;stroke-miterlimit: 10;stroke-width: 0.28313690423965454px"/>
    <path d="M29.0874,42.33691a4.73332,4.73332,0,0,0,1.24658-.17676v-.042a1.93117,1.93117,0,0,1-.98535-1.65137,2.16792,2.16792,0,0,1,.36182-1.10352,2.084,2.084,0,0,1,1.74365-1.12793,2.16007,2.16007,0,0,1,1.87012,1.37207l-.16016.16895a2.1191,2.1191,0,0,0-1.50781-.53906c-.89258,0-1.5415.41309-1.5415.708a1.58414,1.58414,0,0,0,.72461,1.19531,2.11977,2.11977,0,0,0,1.019.45508,8.46954,8.46954,0,0,0,2.40918-.59766l.042.042L33.86328,42.084c-1.32275.47168-1.96289.53906-2.99023.876a6.75338,6.75338,0,0,1-2.05518.45508h-.26123a.54113.54113,0,0,1-.58984-.56445.52405.52405,0,0,1,.58984-.51367Z" style="stroke: #000;stroke-miterlimit: 10;stroke-width: 0.28313690423965454px"/>
    <path d="M37.74121,43.415h-.09277a1.8557,1.8557,0,0,1-1.44043-.48047c-.51367-.52148-.52246-1.12012-.52246-2.3584,0-1.59961-.09277-3.27637-.21875-5.06152a7.55559,7.55559,0,0,1,.792-.7832l.05859.0332c.13477,1.84473.13477,4.02637.13477,6.09863v.47949a.88016.88016,0,0,0,.63184.90137,1.69417,1.69417,0,0,0,.53906.09277h.11816Z" style="stroke: #000;stroke-miterlimit: 10;stroke-width: 0.28313690423965454px"/>
    <path d="M46.36328,43.415h-.21094c-1.04395,0-1.52441-.32031-1.73437-.792h-.05078a1.88778,1.88778,0,0,1-1.44043.792.838.838,0,0,1-.918-.69922h-.03418a1.91021,1.91021,0,0,1-1.457.69922.72329.72329,0,0,1-.80859-.71582h-.0332a2.25584,2.25584,0,0,1-1.79395.71582h-.14355a.54141.54141,0,0,1-.58984-.56445.52405.52405,0,0,1,.58984-.51367h.28613a2.04049,2.04049,0,0,0,1.77734-.7832l.4209-.65723.64844-.22754.03418.042a3.3664,3.3664,0,0,0-.54785,1.20508.41663.41663,0,0,0,.45508.4209,1.22192,1.22192,0,0,0,.73242-.25293,1.86682,1.86682,0,0,0,.54785-.74121l.20215-.49707.64063-.29492.0332.03418a3.49277,3.49277,0,0,0-.3457,1.26367.46263.46263,0,0,0,.47266.48828.98329.98329,0,0,0,.58105-.18555,1.3346,1.3346,0,0,0,.48828-.80859c.0332-.13477.084-.29492.168-.665l.64063-.42969.0332.02539a4.72281,4.72281,0,0,0-.21,1.1543c0,.665.58105.90918,1.38086.90918h.18555Z" style="stroke: #000;stroke-miterlimit: 10;stroke-width: 0.28313690423965454px"/>
    <path d="M46.542,42.33691c.623,0,1.11133-.42969,1.415-1.49121a2.56886,2.56886,0,0,1,.623-1.01855,1.57992,1.57992,0,0,1,1.06152-.48926c1.02734,0,1.63379,1.416,1.76855,2.88965-.17676.7666-.48828,1.08691-.89258,1.08691a4.32334,4.32334,0,0,1-2.502-.99414H47.957A1.37992,1.37992,0,0,1,46.5,43.415h-.14355a.54141.54141,0,0,1-.58984-.56445.52405.52405,0,0,1,.58984-.51367ZM49.49023,42a2.64913,2.64913,0,0,0,1.002.24414c.126,0,.23535-.0166.26953-.09277-.24414-1.27148-.80078-1.83594-1.33105-1.83594a1.21557,1.21557,0,0,0-1.12891.8252A2.568,2.568,0,0,0,49.49023,42Z" style="stroke: #000;stroke-miterlimit: 10;stroke-width: 0.28313690423965454px"/>
  </g>
  <g>
    <path d="M16.47363,27.1123c-1.49951.75781-2.48486,1.56641-2.48486,2.47656,0,1.415,1.5498,2.3833,3.84912,2.3833a8.93709,8.93709,0,0,0,2.14795-.24414l.05908.15186a13.40992,13.40992,0,0,1-1.415.94336,3.20491,3.20491,0,0,1-1.44043.24414c-2.04687,0-3.77344-.96875-3.77344-3.1416a4.27064,4.27064,0,0,1,2.3501-3.40332,12.20224,12.20224,0,0,1-1.00244-.98535c-.21045-.19336-.4043-.4126-.57275-.4126a1.47786,1.47786,0,0,0-.4126.10107l-.05078-.07568.3623-.91846.396-.06738a10.60663,10.60663,0,0,1,2.25732-.27783,6.31858,6.31858,0,0,1,2.40869.3877l-.20215.95166L17.32422,26.624v.0332a4.40109,4.40109,0,0,0,2.02148.45508H19.834v1.08643h-.39551a5.05333,5.05333,0,0,1-2.91455-1.08643Zm.14307-.90137a10.5593,10.5593,0,0,0,1.72656-1.22949v-.05078a7.65118,7.65118,0,0,0-1.60889-.19336,6.87211,6.87211,0,0,0-1.61719.168v.04248c.15186.13477.43848.36182.62354.53076.29492.25244.53076.47168.84229.72412Z" style="fill: #fff;stroke: #fff;stroke-miterlimit: 10;stroke-width: 0.28313690423965454px"/>
    <path d="M20.53613,27.1123a6.84524,6.84524,0,0,0,1.83594-.16846c.53906-.16016.99414-.48.99414-.69922a.6972.6972,0,0,0-.0166-.18506,8.99727,8.99727,0,0,1-.95215.03369c-.97705,0-1.72656-.26123-2.02148-.90967a1.52792,1.52792,0,0,1-.126-.60645,2.41834,2.41834,0,0,1,.63135-1.65918,1.58527,1.58527,0,0,1,1.08643-.56445c.68262,0,1.23.64844,1.60889,1.66748a5.51556,5.51556,0,0,1,.354,2.00488,1.9955,1.9955,0,0,1-.41309,1.33057c-.53027.60645-1.50732.834-3.00684.834h-.68213a.5407.5407,0,0,1-.58936-.56445.52387.52387,0,0,1,.58936-.51367Zm.27783-5.55078c-.34521-.32812-.64844-.59766-.98535-.876a7.56285,7.56285,0,0,1,.66553-.7998,7.92924,7.92924,0,0,1,.96.90088A4.46825,4.46825,0,0,1,20.814,21.56152Zm.96875,1.89551a.99089.99089,0,0,0-1.01074.74951c0,.68213,1.11182.89258,2.44287.88428C23.0459,24.29053,22.46484,23.457,21.78271,23.457Zm.65674-2.00488c-.34521-.32861-.64844-.59814-.98535-.876a7.68233,7.68233,0,0,1,.66553-.80029,7.93509,7.93509,0,0,1,.96045.90137A4.469,4.469,0,0,1,22.43945,21.45215Z" style="fill: #fff;stroke: #fff;stroke-miterlimit: 10;stroke-width: 0.28313690423965454px"/>
    <path d="M30.13477,27.1123v1.07813h-.69922a3.91483,3.91483,0,0,1-.64014,1.72656,3.0024,3.0024,0,0,1-2.02979,1.44043,4.90788,4.90788,0,0,1-2.42578-.85059l.14307-.27832a2.55452,2.55452,0,0,0,1.23779.30371,3.28791,3.28791,0,0,0,2.3418-1.1626,2.6801,2.6801,0,0,0,.792-1.1792h-.41309c-1.71826,0-2.59424-.54736-2.59424-1.72656a2.28421,2.28421,0,0,1,.42969-1.35645,1.63751,1.63751,0,0,1,1.29736-.80859c.77441,0,1.57471,1.08691,1.81055,2.81348Zm-1.91211-1.22949a1.22663,1.22663,0,0,0-.89307-.47168c-.47168,0-.95166.4043-.95166.74121,0,.4292.396.68213.918.8335a5.81807,5.81807,0,0,0,1.51611.12646A2.58232,2.58232,0,0,0,28.22266,25.88281Z" style="fill: #fff;stroke: #fff;stroke-miterlimit: 10;stroke-width: 0.28313690423965454px"/>
    <path d="M32.168,27.46582a2.70274,2.70274,0,0,1-1.91992.72461h-.11816A.54113.54113,0,0,1,29.54,27.626a.52405.52405,0,0,1,.58984-.51367h.07568a3.08058,3.08058,0,0,0,1.91211-.59814c-.15186-1.63379-.18506-3.31836-.18506-4.63232,0-.33691-.06738-.876-.06738-1.272a1.0309,1.0309,0,0,1,.26074-.74121,3.03274,3.03274,0,0,1,.47168-.438l.08447.05078a1.90847,1.90847,0,0,0-.02539.35352,3.46577,3.46577,0,0,0,.64893,1.71826l-.61523.42969A28.00238,28.00238,0,0,0,32.8335,26.085l.03369.0166a2.11849,2.11849,0,0,1,1.07813-.29492,1.2801,1.2801,0,0,1,.96.46338,1.81846,1.81846,0,0,1,.4043,1.1626,1.47777,1.47777,0,0,1-1.33008,1.61719,2.03938,2.03938,0,0,1-1.769-1.59229Zm2.19824.64893a.63649.63649,0,0,0,.41309-.15186,1.23718,1.23718,0,0,0-.31152-.7832.98457.98457,0,0,0-.792-.37891,1.27761,1.27761,0,0,0-.68213.18506A1.59175,1.59175,0,0,0,34.36621,28.11475Z" style="fill: #fff;stroke: #fff;stroke-miterlimit: 10;stroke-width: 0.28313690423965454px"/>
    <path d="M36.85547,28.3335a11.14414,11.14414,0,0,0,.09277-1.68457v-.8252c0-1.5415-.16895-3.78174-.30371-5.23926a7.74478,7.74478,0,0,1,.8252-.89258l.07617.0249c.17676,1.83643.21875,3.96729.21875,5.92969a13.37446,13.37446,0,0,1-.05859,1.39014,2.182,2.182,0,0,1-.74121,1.356Z" style="fill: #fff;stroke: #fff;stroke-miterlimit: 10;stroke-width: 0.28313690423965454px"/>
  </g>
</svg>
