<svg id="Layer_1" data-name="Layer 1" xmlns="http://www.w3.org/2000/svg" width="65" height="65" viewBox="0 0 65 65">
  <title>news</title>
  <path d="M32.5,1.5h28a3,3,0,0,1,3,3v28a31,31,0,0,1-31,31h-.00006A30.99994,30.99994,0,0,1,1.5,32.50006V32.5a31,31,0,0,1,31-31Z" style="fill: #fe3030"/>
  <polygon points="58.904 43.802 9.567 43.802 10.783 32.535 60.12 32.535 58.904 43.802" style="opacity: 0.2"/>
  <polygon points="42.412 33.93 7.052 33.93 8.185 21.658 43.545 21.658 42.412 33.93" style="opacity: 0.2"/>
  <polygon points="57.732 42.514 8.395 42.514 9.611 29.625 58.948 29.625 57.732 42.514" style="fill: #fff"/>
  <polygon points="41.241 32.203 5.88 32.203 7.013 19.315 42.373 19.315 41.241 32.203"/>
  <g>
    <path d="M13.79492,24.80029a3.53539,3.53539,0,0,1,.78564.085,2.91561,2.91561,0,0,1,.688.24219,2.43848,2.43848,0,0,1,.5625.38721,2.15736,2.15736,0,0,1,.4165.52246,2.18537,2.18537,0,0,1,.24072.64111,2.68518,2.68518,0,0,1,.03516.79248,2.31,2.31,0,0,1-.20215.80078,1.74623,1.74623,0,0,1-.41113.55762,1.6063,1.6063,0,0,1-.57031.32764,2.13677,2.13677,0,0,1-.67822.106,1.37089,1.37089,0,0,1-.33984-.04541,1.57006,1.57006,0,0,1-.33691-.13428,1.41312,1.41312,0,0,1-.29834-.21631,1.08164,1.08164,0,0,1-.22168-.29346,1.84423,1.84423,0,0,1-.26758.31689,1.48267,1.48267,0,0,1-.2915.21533,1.24714,1.24714,0,0,1-.60254.15723,1.31912,1.31912,0,0,1-.49023-.09033,1.18,1.18,0,0,1-.39648-.25586,1.08385,1.08385,0,0,1-.25537-.39795A1.16806,1.16806,0,0,1,11.09814,28a1.23508,1.23508,0,0,1,.15479-.50488,1.41558,1.41558,0,0,1,.3291-.395,1.552,1.552,0,0,1,.44824-.25684,1.44351,1.44351,0,0,1,.50928-.09326,1.17138,1.17138,0,0,1,.42627.0708,1.07453,1.07453,0,0,1,.31494.187,1.35448,1.35448,0,0,1,.23926.2666c.06934.09912.13477.2002.19727.30371.061.103.12354.2041.186.30322a1.46225,1.46225,0,0,0,.21.2666.93769.93769,0,0,0,.26709.187.837.837,0,0,0,.356.06982.78633.78633,0,0,0,.34961-.07666.86789.86789,0,0,0,.272-.20654,1.04539,1.04539,0,0,0,.18457-.30029,1.25053,1.25053,0,0,0,.08643-.36035,1.71373,1.71373,0,0,0-.10156-.81494,1.59615,1.59615,0,0,0-.41162-.5791,1.87333,1.87333,0,0,0-.62939-.36182,2.29983,2.29983,0,0,0-.75928-.12549ZM12.95557,28a.64649.64649,0,0,0-.07861-.15967.72593.72593,0,0,0-.11816-.13672.52236.52236,0,0,0-.145-.09473.38482.38482,0,0,0-.16016-.03467.561.561,0,0,0-.17432.02783.44568.44568,0,0,0-.26172.21436A.44355.44355,0,0,0,11.96338,28a.40884.40884,0,0,0,.022.187.39539.39539,0,0,0,.0874.13721.36947.36947,0,0,0,.13623.08545.48782.48782,0,0,0,.16895.0293.41584.41584,0,0,0,.17139-.03711.71791.71791,0,0,0,.16406-.1001.86462.86462,0,0,0,.14014-.14014A.768.768,0,0,0,12.95557,28Zm1.13281-2.38916h-.36426l-1.25049-1.356L12.478,24.207l.63672-.57324.85986,1.19092L15.77,22.89941l.57178.61084-.00439.04785Z" style="fill: #fff"/>
    <path d="M16.22656,24.5708q.02344-.27173-.36426-.27148H14.19043l.06445-.7373h1.67188a1.849,1.849,0,0,1,.51563.06592.98879.98879,0,0,1,.37256.19678.74017.74017,0,0,1,.21631.31885,1.04826,1.04826,0,0,1,.04541.44092,1.12924,1.12924,0,0,1-.12207.4375.90981.90981,0,0,1-.27148.31055,1.22176,1.22176,0,0,1-.40576.186,2.1098,2.1098,0,0,1-.52686.061H14.772l.06445-.7373h.97852C16.07373,24.84229,16.21045,24.752,16.22656,24.5708Z" style="fill: #fff"/>
    <path d="M21.38135,29.2627a1.26323,1.26323,0,0,1-.38965-.05908,1.46653,1.46653,0,0,1-.33447-.15869,1.40273,1.40273,0,0,1-.26514-.2207,1.14035,1.14035,0,0,1-.1792-.251,1.3684,1.3684,0,0,1-.22607.251,1.81024,1.81024,0,0,1-.313.2207,1.86762,1.86762,0,0,1-.37256.15869,1.4067,1.4067,0,0,1-.4043.05908,1.88691,1.88691,0,0,1-.70605-.11279,1.11818,1.11818,0,0,1-.436-.29834.97219.97219,0,0,1-.21191-.41943,1.54143,1.54143,0,0,1-.03174-.47656,1.04141,1.04141,0,0,1,.1123-.40186,1.24867,1.24867,0,0,1,.23145-.3125,1.80035,1.80035,0,0,1,.30957-.24512c.11377-.07178.23-.13916.34863-.19922.11865-.06055.23389-.11865.34619-.17334a2.61774,2.61774,0,0,0,.3042-.17236,1.05211,1.05211,0,0,0,.2207-.19141.42383.42383,0,0,0,.0835-.38818.34254.34254,0,0,0-.06934-.12842.33862.33862,0,0,0-.12207-.08936.43887.43887,0,0,0-.17432-.03223.56173.56173,0,0,0-.25586.05811.70418.70418,0,0,0-.20068.15088.95531.95531,0,0,0-.14307.20459,1.12745,1.12745,0,0,0-.0874.21777l-.80322-.1958a2.31126,2.31126,0,0,1,.189-.44922,1.44268,1.44268,0,0,1,.75781-.6626,1.66068,1.66068,0,0,1,.61182-.103,1.4523,1.4523,0,0,1,.57861.104,1.08817,1.08817,0,0,1,.38672.27148.9422.9422,0,0,1,.20605.37939,1.2415,1.2415,0,0,1,.03955.4292,1.1303,1.1303,0,0,1-.11377.415,1.32351,1.32351,0,0,1-.23242.32324,1.91165,1.91165,0,0,1-.311.252,3.79451,3.79451,0,0,1-.34863.20215c-.11865.06055-.23389.11865-.34619.17334-.1123.05566-.21387.11084-.30273.1665a.98541.98541,0,0,0-.21973.18066.36524.36524,0,0,0-.09717.21631.35171.35171,0,0,0,.13086.3374.70812.70812,0,0,0,.43115.11182.92039.92039,0,0,0,.43262-.09912,1.279,1.279,0,0,0,.33057-.249,1.56532,1.56532,0,0,0,.23926-.32617,3.0632,3.0632,0,0,0,.16016-.33154h.36328a2.89686,2.89686,0,0,0,.09668.33154,1.21233,1.21233,0,0,0,.17188.32617.94512.94512,0,0,0,.27881.249.7986.7986,0,0,0,.41113.09912.87219.87219,0,0,0,.32715-.061.74112.74112,0,0,0,.26514-.186.96761.96761,0,0,0,.186-.31055,1.55649,1.55649,0,0,0,.09521-.4375,1.59088,1.59088,0,0,0-.07178-.6626,1.69686,1.69686,0,0,0-.29541-.53223,1.71711,1.71711,0,0,0-.44434-.38135,1.79427,1.79427,0,0,0-.51465-.21191l.19531-.7793a3.29472,3.29472,0,0,1,.50488.15576,2.90595,2.90595,0,0,1,.49268.25391,2.51672,2.51672,0,0,1,.44141.36279,2.01947,2.01947,0,0,1,.34766.48145,2.23247,2.23247,0,0,1,.209.61279,2.71633,2.71633,0,0,1,.03027.752,2.45149,2.45149,0,0,1-.20752.83984,1.65688,1.65688,0,0,1-.41113.55713,1.50831,1.50831,0,0,1-.562.30859A2.25146,2.25146,0,0,1,21.38135,29.2627Z" style="fill: #fff"/>
    <path d="M20.69238,24.40918c-.16309,0-.25049.07324-.26318.22021a.18407.18407,0,0,0,.04785.15527.24381.24381,0,0,0,.17773.05762h.27051l-.06445.7373h-.28125a1.16152,1.16152,0,0,1-.36035-.05811.9555.9555,0,0,1-.31738-.17529.8269.8269,0,0,1-.21924-.28516.74882.74882,0,0,1-.05957-.39111.71786.71786,0,0,1,.14209-.37354.856.856,0,0,1,.29688-.25781.766.766,0,0,1-.25928-.28711.66914.66914,0,0,1-.06689-.37158.78238.78238,0,0,1,.12549-.37256,1.01321,1.01321,0,0,1,.26514-.27637,1.19814,1.19814,0,0,1,.35205-.17187,1.30127,1.30127,0,0,1,.38086-.05859H24.0791l-.06445.73828H20.79492a.29423.29423,0,0,0-.18018.05371.21074.21074,0,0,0-.08252.1626.18491.18491,0,0,0,.0542.15869.24491.24491,0,0,0,.1709.05811h2.17578l-.06494.7373Z" style="fill: #fff"/>
    <path d="M27.68408,29.2627a1.6334,1.6334,0,0,1-.57227-.08838,1.39072,1.39072,0,0,1-.41211-.23535,1.42954,1.42954,0,0,1-.29053-.332,3.44,3.44,0,0,1-.209-.38037c-.06055-.13037-.1167-.25781-.16846-.38135a2.4799,2.4799,0,0,0-.16846-.33057.87345.87345,0,0,0-.20605-.23535.452.452,0,0,0-.28418-.08936.54643.54643,0,0,0-.27295.063.61544.61544,0,0,0-.18555.15674.65757.65757,0,0,0-.10986.19727.79308.79308,0,0,0-.04443.19092,1.07614,1.07614,0,0,0,.00586.24512.8202.8202,0,0,0,.0752.23633,1.17521,1.17521,0,0,0,.16357.24219,2.002,2.002,0,0,0,.26709.25781l-.58838.67627a2.13015,2.13015,0,0,1-.44043-.39795,1.8292,1.8292,0,0,1-.25977-.42432,1.53138,1.53138,0,0,1-.11523-.42676,2.09448,2.09448,0,0,1-.00732-.40869,1.74955,1.74955,0,0,1,.13574-.53418,1.55518,1.55518,0,0,1,.31055-.46973,1.50844,1.50844,0,0,1,.48438-.335,1.61572,1.61572,0,0,1,.65967-.12744,1.37511,1.37511,0,0,1,.52148.08984,1.223,1.223,0,0,1,.376.23438,1.50588,1.50588,0,0,1,.26855.33154,3.75946,3.75946,0,0,1,.2041.38135c.061.13037.11914.25684.1748.38037a1.9362,1.9362,0,0,0,.187.332.88183.88183,0,0,0,.24219.23438.59588.59588,0,0,0,.3335.08936.78633.78633,0,0,0,.34961-.07666.86789.86789,0,0,0,.272-.20654,1.00422,1.00422,0,0,0,.18457-.30029,1.21943,1.21943,0,0,0,.08643-.36035,1.64685,1.64685,0,0,0-.07373-.68848,1.73523,1.73523,0,0,0-.30176-.5459,1.83871,1.83871,0,0,0-.9707-.605l.19531-.7793a3.3162,3.3162,0,0,1,.50684.15576,2.98726,2.98726,0,0,1,.49756.25391,2.51867,2.51867,0,0,1,.44727.36279,2.02977,2.02977,0,0,1,.35059.48145,2.23619,2.23619,0,0,1,.21289.61279,2.67573,2.67573,0,0,1,.03174.75488,2.32152,2.32152,0,0,1-.20312.80566,1.75017,1.75017,0,0,1-.41064.55957,1.61043,1.61043,0,0,1-.57129.32764A2.13677,2.13677,0,0,1,27.68408,29.2627Zm-1.55029-3.74414h-.36426L24.519,24.16211l.00391-.04736.63721-.57422.86084,1.19189,1.79541-1.92627.57129.61084-.00391.04883Z" style="fill: #fff"/>
    <path d="M29.42725,30.30957l-.04932.56738h-4.542a1.42657,1.42657,0,0,1-.46973-.06738.8264.8264,0,0,1-.30664-.17871.598.598,0,0,1-.16113-.25586.77684.77684,0,0,1,.07031-.62451.909.909,0,0,1,.20752-.24365.89456.89456,0,0,1,.26709-.15039.81921.81921,0,0,1,.27979-.05176.78075.78075,0,0,1,.28369.05176.719.719,0,0,1,.2373.14453.68149.68149,0,0,1,.15918.22705.60536.60536,0,0,1,.043.29736.52268.52268,0,0,1-.03418.146,1.18952,1.18952,0,0,1-.06006.13818Zm-4.79932.00391a.4044.4044,0,0,0,.15771-.08057.23157.23157,0,0,0,.084-.1665.2147.2147,0,0,0-.05029-.17236.19413.19413,0,0,0-.14209-.061.25221.25221,0,0,0-.16357.061.2424.2424,0,0,0-.0835.17236.1986.1986,0,0,0,.05518.17041A.31465.31465,0,0,0,24.62793,30.31348Zm4.61133-5.74268q.02344-.27173-.36426-.27148H27.20313l.06445-.7373h1.67188a1.849,1.849,0,0,1,.51563.06592.98879.98879,0,0,1,.37256.19678.74017.74017,0,0,1,.21631.31885,1.04826,1.04826,0,0,1,.04541.44092,1.12924,1.12924,0,0,1-.12207.4375.90981.90981,0,0,1-.27148.31055,1.22176,1.22176,0,0,1-.40576.186,2.1098,2.1098,0,0,1-.52686.061h-.97852l.06445-.7373h.97852C29.08643,24.84229,29.22314,24.752,29.23926,24.5708Z" style="fill: #fff"/>
    <path d="M31.39355,27.11084a1.561,1.561,0,0,0,.0332.50586,1.0823,1.0823,0,0,0,.19043.41064.93835.93835,0,0,0,.34326.27637,1.12147,1.12147,0,0,0,.49072.10107.92039.92039,0,0,0,.43262-.09912,1.28149,1.28149,0,0,0,.33105-.249,1.61958,1.61958,0,0,0,.23926-.32617,2.87366,2.87366,0,0,0,.15918-.33154h.36328a2.47681,2.47681,0,0,0,.10254.33154,1.20507,1.20507,0,0,0,.18262.32617.9785.9785,0,0,0,.28711.249.816.816,0,0,0,.415.09912.78484.78484,0,0,0,.34961-.07666.87551.87551,0,0,0,.27246-.20654,1.05622,1.05622,0,0,0,.18457-.30029,1.24988,1.24988,0,0,0,.08594-.36035,1.67954,1.67954,0,0,0-.07324-.68848,1.74713,1.74713,0,0,0-.30273-.5459,1.84114,1.84114,0,0,0-.96973-.605l.19434-.7793a3.31037,3.31037,0,0,1,.50781.15576A3.021,3.021,0,0,1,35.71,25.252a2.46119,2.46119,0,0,1,.44629.36279,2.01979,2.01979,0,0,1,.35156.48145,2.18774,2.18774,0,0,1,.21191.61279,2.67291,2.67291,0,0,1,.0332.75488,2.32122,2.32122,0,0,1-.2041.80566,1.73694,1.73694,0,0,1-.41113.55957,1.6063,1.6063,0,0,1-.57031.32764,2.13761,2.13761,0,0,1-.67871.106,1.30151,1.30151,0,0,1-.39453-.05908,1.526,1.526,0,0,1-.34473-.15869,1.408,1.408,0,0,1-.27441-.2207,1.07157,1.07157,0,0,1-.18262-.25391,1.37332,1.37332,0,0,1-.28125.29248,1.80111,1.80111,0,0,1-.35449.21826,1.93583,1.93583,0,0,1-.8208.18164,1.89751,1.89751,0,0,1-.57715-.08057,1.5686,1.5686,0,0,1-.4541-.22266,1.48562,1.48562,0,0,1-.3374-.33984,1.75535,1.75535,0,0,1-.22314-.42871,2.14342,2.14342,0,0,1-.11133-.48926,2.51317,2.51317,0,0,1-.00635-.52148,2.86663,2.86663,0,0,1,.17578-.77246,2.677,2.677,0,0,1,.37061-.67529,2.44652,2.44652,0,0,1,.541-.52148,2.07873,2.07873,0,0,1,.68457-.31445l.02344-1.0127h.78857l-.19092,1.0127a1.13073,1.13073,0,0,1,.394.16455,1.04192,1.04192,0,0,1,.26855.26465.997.997,0,0,1,.14648.32813,1.09009,1.09009,0,0,1,.02734.355,1.18723,1.18723,0,0,1-.11523.41748,1.20108,1.20108,0,0,1-.25586.34619,1.21137,1.21137,0,0,1-.85059.32764,1.07906,1.07906,0,0,1-.34863-.05225.87651.87651,0,0,1-.26855-.14795.79539.79539,0,0,1-.18994-.22656,1.11767,1.11767,0,0,1-.11133-.29l-.03467.00293c-.02588.05322-.04785.104-.06885.15283a1.36481,1.36481,0,0,0-.05322.1582,1.64452,1.64452,0,0,0-.03809.18408C31.41016,26.94727,31.40137,27.02441,31.39355,27.11084Zm1.21094-.76855a.3439.3439,0,0,0,.13916-.0293.461.461,0,0,0,.124-.07764.38576.38576,0,0,0,.09033-.11475.37542.37542,0,0,0,.0415-.14209.32469.32469,0,0,0-.09717-.28027.42093.42093,0,0,0-.29785-.105.68548.68548,0,0,0-.22656.03809.65084.65084,0,0,0-.11279.30518.37552.37552,0,0,0,.08252.2959A.33083.33083,0,0,0,32.60449,26.34229Z" style="fill: #fff"/>
    <path d="M34.46,24.40918c-.16309,0-.25.07324-.2627.22021a.18257.18257,0,0,0,.04785.15527.2405.2405,0,0,0,.17676.05762h.27051l-.06445.7373h-.28125a1.15319,1.15319,0,0,1-.35937-.05811.95528.95528,0,0,1-.31836-.17529.83156.83156,0,0,1-.21875-.28516.75377.75377,0,0,1-.05957-.39111.71723.71723,0,0,1,.1416-.37354.86034.86034,0,0,1,.29688-.25781.77283.77283,0,0,1-.25879-.28711.67357.67357,0,0,1-.06738-.37158.78813.78813,0,0,1,.126-.37256,1.015,1.015,0,0,1,.26563-.27637,1.178,1.178,0,0,1,.35156-.17187,1.30374,1.30374,0,0,1,.38086-.05859h3.21973l-.06445.73828H34.5625a.29772.29772,0,0,0-.18066.05371.21186.21186,0,0,0-.082.1626.18377.18377,0,0,0,.05469.15869.24154.24154,0,0,0,.16992.05811H36.7002l-.06445.7373Z" style="fill: #fff"/>
  </g>
  <g>
    <path d="M13.68018,37.28711c-.019.042-.03906.08691-.05713.13867s-.03467.10547-.05029.16211c-.01465.05566-.02881.11426-.04053.1748a1.55639,1.55639,0,0,0-.02539.17676,1.27661,1.27661,0,0,0,.06885.59863,1.022,1.022,0,0,0,.28613.39844,1.3033,1.3033,0,0,0,.43262.23828,2.8499,2.8499,0,0,0,.5127.11914,4.86892,4.86892,0,0,0,.52686.041c.17383.00293.33057.00488.47021.00488h.44043a4.67348,4.67348,0,0,0,.53516-.03223,3.27659,3.27659,0,0,0,.55615-.11621,1.60212,1.60212,0,0,0,.50391-.248,1.4074,1.4074,0,0,0,.38281-.43262,1.592,1.592,0,0,0,.18994-.667,2.13956,2.13956,0,0,0-.00879-.47949,1.16759,1.16759,0,0,0-.127-.40137.73715.73715,0,0,0-.25342-.27539.7197.7197,0,0,0-.39258-.10059.58452.58452,0,0,0-.18311.03027.56812.56812,0,0,0-.17334.09473.61414.61414,0,0,0-.13574.15723.52514.52514,0,0,0-.06738.22266,1.07889,1.07889,0,0,0,.02148.3252,1.00333,1.00333,0,0,0,.12646.31445,1.08319,1.08319,0,0,0,.24756.27441,1.3349,1.3349,0,0,0,.38232.208l-.05469.625h-3.8418l.06152-.7041h2.55078a1.22423,1.22423,0,0,1-.209-.27734,1.56367,1.56367,0,0,1-.12354-.29687,1.34382,1.34382,0,0,1-.05322-.29395,1.73853,1.73853,0,0,1,.001-.26758,1.28132,1.28132,0,0,1,.12256-.44238,1.23618,1.23618,0,0,1,.2915-.38672,1.46406,1.46406,0,0,1,.46338-.27539,2.03993,2.03993,0,0,1,1.20752-.02344,1.44312,1.44312,0,0,1,.43457.22266,1.36186,1.36186,0,0,1,.314.33691,1.76784,1.76784,0,0,1,.20166.42188,2.16455,2.16455,0,0,1,.09766.48145,2.96294,2.96294,0,0,1-.001.50977,2.22489,2.22489,0,0,1-1.07373,1.7832,3.52731,3.52731,0,0,1-1.10254.43066,6.51474,6.51474,0,0,1-1.40674.13965,6.01113,6.01113,0,0,1-1.36963-.13867,2.82992,2.82992,0,0,1-.99463-.418,1.6894,1.6894,0,0,1-.58594-.7041,1.99985,1.99985,0,0,1-.13721-.99414,2.3513,2.3513,0,0,1,.22363-.82031,2.51844,2.51844,0,0,1,.47705-.68164,2.256,2.256,0,0,1,.66064-.46484,1.81507,1.81507,0,0,1,.772-.1709,1.19966,1.19966,0,0,1,.53467.10547.99788.99788,0,0,1,.34326.26953.91975.91975,0,0,1,.1748.35938,1.18048,1.18048,0,0,1-.33984,1.1377,1.20875,1.20875,0,0,1-.37451.23828,1.23312,1.23312,0,0,1-.47656.08984,1.06681,1.06681,0,0,1-.34863-.05371.86539.86539,0,0,1-.26855-.14746.7888.7888,0,0,1-.18994-.22656,1.14238,1.14238,0,0,1-.11133-.29Zm1.02295-.041a.356.356,0,0,0,.14063-.0293.48633.48633,0,0,0,.123-.07812.38478.38478,0,0,0,.13281-.25684.32687.32687,0,0,0-.09766-.28027.42763.42763,0,0,0-.29883-.10352.70482.70482,0,0,0-.22559.03711.6422.6422,0,0,0-.11279.30566.371.371,0,0,0,.08252.29492A.32616.32616,0,0,0,14.70313,37.24609Z"/>
    <path d="M23.89307,40.19727a1.65887,1.65887,0,0,1-.57227-.08789,1.3987,1.3987,0,0,1-.41162-.23535,1.44969,1.44969,0,0,1-.29053-.332,3.44651,3.44651,0,0,1-.209-.38086c-.061-.12988-.11719-.25781-.16895-.38086a2.48753,2.48753,0,0,0-.168-.33105.90618.90618,0,0,0-.20605-.23535.45231.45231,0,0,0-.28418-.08984.54644.54644,0,0,0-.27295.06348.61681.61681,0,0,0-.18555.15723.64752.64752,0,0,0-.11035.19727.78685.78685,0,0,0-.04395.19043,1.04823,1.04823,0,0,0,.00586.24512.81086.81086,0,0,0,.0752.23633,1.14641,1.14641,0,0,0,.16309.24219,1.92143,1.92143,0,0,0,.26758.25781l-.58838.67676a2.135,2.135,0,0,1-.44092-.39844,1.8435,1.8435,0,0,1-.25977-.42383,1.55143,1.55143,0,0,1-.11475-.42676,2.06186,2.06186,0,0,1-.00732-.40918,1.72878,1.72878,0,0,1,.13574-.53418,1.56729,1.56729,0,0,1,.31055-.46973,1.51614,1.51614,0,0,1,.48438-.335,1.62386,1.62386,0,0,1,.65967-.127,1.37686,1.37686,0,0,1,.52148.08984,1.21389,1.21389,0,0,1,.376.23438,1.51725,1.51725,0,0,1,.26855.33105,3.86709,3.86709,0,0,1,.2041.38184c.061.12988.11914.25684.1748.37988a1.91678,1.91678,0,0,0,.18652.332.88835.88835,0,0,0,.24219.23438.5938.5938,0,0,0,.334.08984.78.78,0,0,0,.34961-.07715.87772.87772,0,0,0,.272-.20605,1.01673,1.01673,0,0,0,.18457-.30078,1.21517,1.21517,0,0,0,.08594-.36035,1.655,1.655,0,0,0-.07324-.68848,1.75591,1.75591,0,0,0-.30176-.5459,1.78776,1.78776,0,0,0-.45264-.38867,1.74628,1.74628,0,0,0-.51807-.21582l.19531-.7793a3.313,3.313,0,0,1,.50684.15527,3.03979,3.03979,0,0,1,.49707.25391,2.52471,2.52471,0,0,1,.44775.36328,2.02715,2.02715,0,0,1,.35059.48145,2.24331,2.24331,0,0,1,.21289.6123,2.71246,2.71246,0,0,1,.03174.75488,2.3106,2.3106,0,0,1-.20361.80566,1.73646,1.73646,0,0,1-.41016.55957,1.60942,1.60942,0,0,1-.57178.32813A2.13437,2.13437,0,0,1,23.89307,40.19727Zm-1.55029-3.74414h-.36426L20.728,35.09668l.00439-.04687.63721-.57422L22.23,35.667l1.79541-1.92578.57178.61035-.00439.04883Z"/>
    <path d="M24.49023,36.53223a3.09538,3.09538,0,0,1-.6084-.05664,3.86655,3.86655,0,0,1-.51123-.13672,2.96124,2.96124,0,0,1-.38916-.16211,2.07454,2.07454,0,0,1-.24316-.14258l.35938-.69727c.05469.03418.126.07715.21387.12793a2.15355,2.15355,0,0,0,.31738.14355,3.13851,3.13851,0,0,0,.416.11914,2.45194,2.45194,0,0,0,.51172.0498,1.466,1.466,0,0,0,.43164-.06055,1.288,1.288,0,0,0,.34229-.15918.84091.84091,0,0,0,.231-.22754.5425.5425,0,0,0,.09668-.26074.50279.50279,0,0,0-.04736-.28223.53206.53206,0,0,0-.17529-.19629.81543.81543,0,0,0-.2627-.11328,1.30686,1.30686,0,0,0-.311-.03613,1.934,1.934,0,0,0-.32617.02246.67674.67674,0,0,0-.19287.05859.23494.23494,0,0,0-.09326.07617.17227.17227,0,0,0-.0293.07617.07759.07759,0,0,0,.03271.07031.25263.25263,0,0,0,.0957.04492.82344.82344,0,0,0,.125.02148,1.0881,1.0881,0,0,0,.11865.00684.99773.99773,0,0,0,.16357-.01367,1.63847,1.63847,0,0,0,.17285-.0332c.05664-.01367.10791-.02832.15527-.043a1.11292,1.11292,0,0,0,.11377-.043l.08984.6582a1.60005,1.60005,0,0,1-.35254.167,1.3574,1.3574,0,0,1-.437.06348,1.57665,1.57665,0,0,1-.48828-.06836.98051.98051,0,0,1-.34863-.19141.714.714,0,0,1-.20117-.28613.78377.78377,0,0,1-.0459-.35645.81184.81184,0,0,1,.15723-.42383,1.159,1.159,0,0,1,.34912-.30957,1.71,1.71,0,0,1,.48535-.18848,2.49969,2.49969,0,0,1,.56689-.06348,1.8314,1.8314,0,0,1,.37744.03906,1.90734,1.90734,0,0,1,.36182.11621,1.50786,1.50786,0,0,1,.31982.19434,1.206,1.206,0,0,1,.249.27148,1.11361,1.11361,0,0,1,.15332.34668,1.22477,1.22477,0,0,1,.03027.42188,1.26568,1.26568,0,0,1-.12842.46582,1.495,1.495,0,0,1-.26367.36816,1.70068,1.70068,0,0,1-.35937.27832,2.43835,2.43835,0,0,1-.41162.19336,2.40573,2.40573,0,0,1-.42187.11426A2.28481,2.28481,0,0,1,24.49023,36.53223Z"/>
    <path d="M30.4458,40.19727a1.65887,1.65887,0,0,1-.57227-.08789,1.3987,1.3987,0,0,1-.41162-.23535,1.44969,1.44969,0,0,1-.29053-.332,3.44651,3.44651,0,0,1-.209-.38086c-.061-.12988-.11719-.25781-.16895-.38086a2.48753,2.48753,0,0,0-.168-.33105.90618.90618,0,0,0-.20605-.23535.45231.45231,0,0,0-.28418-.08984.54644.54644,0,0,0-.27295.06348.61681.61681,0,0,0-.18555.15723.64752.64752,0,0,0-.11035.19727.78685.78685,0,0,0-.04395.19043,1.04823,1.04823,0,0,0,.00586.24512.81086.81086,0,0,0,.0752.23633,1.1464,1.1464,0,0,0,.16309.24219,1.92143,1.92143,0,0,0,.26758.25781l-.58838.67676a2.135,2.135,0,0,1-.44092-.39844,1.8435,1.8435,0,0,1-.25977-.42383,1.55143,1.55143,0,0,1-.11475-.42676,2.06186,2.06186,0,0,1-.00732-.40918,1.72878,1.72878,0,0,1,.13574-.53418,1.56729,1.56729,0,0,1,.31055-.46973,1.51614,1.51614,0,0,1,.48438-.335,1.62386,1.62386,0,0,1,.65967-.127,1.37686,1.37686,0,0,1,.52148.08984,1.21389,1.21389,0,0,1,.376.23438,1.51725,1.51725,0,0,1,.26855.33105,3.86709,3.86709,0,0,1,.2041.38184c.061.12988.11914.25684.1748.37988a1.91678,1.91678,0,0,0,.18652.332A.88835.88835,0,0,0,30.187,39.25a.5938.5938,0,0,0,.334.08984.78.78,0,0,0,.34961-.07715.87772.87772,0,0,0,.272-.20605,1.01673,1.01673,0,0,0,.18457-.30078,1.21517,1.21517,0,0,0,.08594-.36035,1.655,1.655,0,0,0-.07324-.68848,1.75591,1.75591,0,0,0-.30176-.5459,1.78776,1.78776,0,0,0-.45264-.38867,1.74628,1.74628,0,0,0-.51807-.21582l.19531-.7793a3.313,3.313,0,0,1,.50684.15527,3.03979,3.03979,0,0,1,.49707.25391,2.52471,2.52471,0,0,1,.44775.36328,2.02715,2.02715,0,0,1,.35059.48145,2.24331,2.24331,0,0,1,.21289.6123,2.71246,2.71246,0,0,1,.03174.75488,2.3106,2.3106,0,0,1-.20361.80566,1.73646,1.73646,0,0,1-.41016.55957,1.60942,1.60942,0,0,1-.57178.32813A2.13437,2.13437,0,0,1,30.4458,40.19727Zm-1.55029-3.74414h-.36426l-1.25049-1.35645.00439-.04687.63721-.57422.86035,1.19141,1.79541-1.92578.57178.61035-.00439.04883Z"/>
    <path d="M30.00732,35.34375c-.16309,0-.25049.07324-.26318.2207a.18359.18359,0,0,0,.04785.15527.24381.24381,0,0,0,.17773.05762h.27051l-.06494.7373H29.894a1.145,1.145,0,0,1-.35986-.05859.9654.9654,0,0,1-.31787-.1748.84222.84222,0,0,1-.21924-.28516.75563.75563,0,0,1-.05957-.3916.72044.72044,0,0,1,.14209-.373.85672.85672,0,0,1,.29736-.25781.76966.76966,0,0,1-.25928-.28711.67083.67083,0,0,1-.06689-.37207.7853.7853,0,0,1,.125-.37207,1.0081,1.0081,0,0,1,.26563-.27637,1.16886,1.16886,0,0,1,.35205-.17187,1.30127,1.30127,0,0,1,.38086-.05859h3.22021l-.06543.73828H30.10986a.29671.29671,0,0,0-.18066.05371.21272.21272,0,0,0-.08252.16211.18264.18264,0,0,0,.05469.1582.24164.24164,0,0,0,.17041.05859h2.17578l-.06445.7373Z"/>
    <path d="M34.15625,38.0459a1.53674,1.53674,0,0,0,.03223.50586,1.08746,1.08746,0,0,0,.19043.41016.93908.93908,0,0,0,.34375.27637,1.11677,1.11677,0,0,0,.49121.10156.91475.91475,0,0,0,.43262-.09961,1.28212,1.28212,0,0,0,.33008-.249,1.583,1.583,0,0,0,.23926-.32617A2.88637,2.88637,0,0,0,36.376,38.334h.36328a2.45906,2.45906,0,0,0,.10156.33105,1.23174,1.23174,0,0,0,.18262.32617.97144.97144,0,0,0,.28711.249.81742.81742,0,0,0,.416.09961.78148.78148,0,0,0,.34961-.07715.88142.88142,0,0,0,.27148-.20605,1.01673,1.01673,0,0,0,.18457-.30078,1.24607,1.24607,0,0,0,.08594-.36035,1.66311,1.66311,0,0,0-.07324-.68848,1.75591,1.75591,0,0,0-.30176-.5459,1.80253,1.80253,0,0,0-.45215-.38867,1.75954,1.75954,0,0,0-.51855-.21582l.19531-.7793a3.29643,3.29643,0,0,1,.50684.15527,3.02031,3.02031,0,0,1,.49707.25391,2.50421,2.50421,0,0,1,.44727.36328,1.98752,1.98752,0,0,1,.35059.48145,2.21119,2.21119,0,0,1,.21289.6123,2.67478,2.67478,0,0,1,.03223.75488,2.34339,2.34339,0,0,1-.20312.80566,1.746,1.746,0,0,1-.41113.55957,1.61158,1.61158,0,0,1-.57129.32813,2.13135,2.13135,0,0,1-.67773.10547,1.32306,1.32306,0,0,1-.39551-.05859,1.547,1.547,0,0,1-.34473-.15918,1.43771,1.43771,0,0,1-.27441-.2207,1.0302,1.0302,0,0,1-.18164-.25391,1.425,1.425,0,0,1-.28125.293,1.83526,1.83526,0,0,1-.35547.21777,1.96506,1.96506,0,0,1-.40137.13672,2.0514,2.0514,0,0,1-.41895.04492,1.92643,1.92643,0,0,1-.57715-.08008,1.57487,1.57487,0,0,1-.4541-.22266,1.50761,1.50761,0,0,1-.33789-.33984,1.77148,1.77148,0,0,1-.22266-.42871,2.12037,2.12037,0,0,1-.11133-.49023,2.57226,2.57226,0,0,1-.00684-.52051,2.83156,2.83156,0,0,1,.17676-.77246A2.66347,2.66347,0,0,1,33.835,36.667a2.44692,2.44692,0,0,1,.541-.52148,2.08407,2.08407,0,0,1,.68457-.31445l.02344-1.0127H35.873l-.19141,1.0127a1.1234,1.1234,0,0,1,.39355.165,1.03424,1.03424,0,0,1,.26855.26465.973.973,0,0,1,.14648.32813,1.061,1.061,0,0,1,.02734.35449,1.15889,1.15889,0,0,1-.11523.417,1.18067,1.18067,0,0,1-.25488.34668,1.21934,1.21934,0,0,1-.85156.32813,1.06757,1.06757,0,0,1-.34863-.05273.89169.89169,0,0,1-.26855-.14746.80043.80043,0,0,1-.18945-.22656,1.12445,1.12445,0,0,1-.11133-.29l-.03516.00293c-.02539.05273-.04785.10352-.06836.15234a1.25175,1.25175,0,0,0-.05273.1582,1.64551,1.64551,0,0,0-.03906.18457C34.17188,37.88184,34.16309,37.959,34.15625,38.0459Zm1.21-.76855a.34789.34789,0,0,0,.13965-.0293.48326.48326,0,0,0,.124-.07812.38219.38219,0,0,0,.08984-.11426.36986.36986,0,0,0,.042-.14258.32547.32547,0,0,0-.09766-.28027.42037.42037,0,0,0-.29687-.10449.69121.69121,0,0,0-.22754.03809.643.643,0,0,0-.1123.30469.37607.37607,0,0,0,.082.2959A.33032.33032,0,0,0,35.36621,37.27734Z"/>
    <path d="M39.21582,35.50586c.01563-.18164-.10547-.27148-.36426-.27148H37.17969l.06445-.7373H38.916a1.88058,1.88058,0,0,1,.5166.06543.98043.98043,0,0,1,.37207.19727.73762.73762,0,0,1,.21582.31836,1.0424,1.0424,0,0,1,.0459.44141,1.13415,1.13415,0,0,1-.12207.4375.92356.92356,0,0,1-.27148.31055,1.23358,1.23358,0,0,1-.40625.18555,2.0824,2.0824,0,0,1-.52637.06152h-.97852l.06445-.7373h.97852Q39.19287,35.77734,39.21582,35.50586Z"/>
    <path d="M42.67578,40.19727a2.53141,2.53141,0,0,1-.59277-.06934,2.36257,2.36257,0,0,1-.53906-.20312,2.0586,2.0586,0,0,1-.4541-.3252,1.86,1.86,0,0,1-.33984-.44238,1.91984,1.91984,0,0,1-.20117-.54492,2.29528,2.29528,0,0,1,.11035-1.25977,2.29349,2.29349,0,0,1,.2959-.53711,2.39716,2.39716,0,0,1,.417-.43848,2.62469,2.62469,0,0,1,.50977-.3252,2.65652,2.65652,0,0,1,.57129-.20508,2.72512,2.72512,0,0,1,.60938-.06934,2.53969,2.53969,0,0,1,.59375.06934,2.24736,2.24736,0,0,1,.53906.20508,2.10278,2.10278,0,0,1,.45215.3252,1.86274,1.86274,0,0,1,.34082.43848,1.93448,1.93448,0,0,1,.20215.53711,2.06326,2.06326,0,0,1,.03418.62109,2.29782,2.29782,0,0,1-.44141,1.18359,2.39375,2.39375,0,0,1-.418.44238,2.58642,2.58642,0,0,1-.51074.3252,2.78539,2.78539,0,0,1-.57422.20313A2.68233,2.68233,0,0,1,42.67578,40.19727Zm.31641-3.62012a1.69861,1.69861,0,0,0-.59082.10059,1.56569,1.56569,0,0,0-.48437.2832,1.46675,1.46675,0,0,0-.501,1.00586,1.39181,1.39181,0,0,0,.05859.57031,1.17077,1.17077,0,0,0,.26563.44043,1.23252,1.23252,0,0,0,.43555.28516,1.54711,1.54711,0,0,0,.57227.10156,1.71345,1.71345,0,0,0,.58984-.10156,1.53921,1.53921,0,0,0,.48633-.28516,1.47593,1.47593,0,0,0,.3418-.44043,1.52393,1.52393,0,0,0,.16016-.57031,1.37983,1.37983,0,0,0-.06055-.56836,1.15224,1.15224,0,0,0-.26465-.4375,1.23223,1.23223,0,0,0-.4375-.2832A1.56022,1.56022,0,0,0,42.99219,36.57715Z"/>
    <path d="M46.97461,38.0459a1.53674,1.53674,0,0,0,.03223.50586,1.08746,1.08746,0,0,0,.19043.41016.93908.93908,0,0,0,.34375.27637,1.11677,1.11677,0,0,0,.49121.10156.91475.91475,0,0,0,.43262-.09961,1.28212,1.28212,0,0,0,.33008-.249,1.583,1.583,0,0,0,.23926-.32617,2.88637,2.88637,0,0,0,.16016-.33105h.36328a2.45906,2.45906,0,0,0,.10156.33105,1.23174,1.23174,0,0,0,.18262.32617.97144.97144,0,0,0,.28711.249.81742.81742,0,0,0,.416.09961.78148.78148,0,0,0,.34961-.07715.88142.88142,0,0,0,.27148-.20605,1.01673,1.01673,0,0,0,.18457-.30078,1.24607,1.24607,0,0,0,.08594-.36035,1.66311,1.66311,0,0,0-.07324-.68848,1.75591,1.75591,0,0,0-.30176-.5459,1.80253,1.80253,0,0,0-.45215-.38867,1.75954,1.75954,0,0,0-.51855-.21582l.19531-.7793a3.29643,3.29643,0,0,1,.50684.15527,3.0203,3.0203,0,0,1,.49707.25391,2.50421,2.50421,0,0,1,.44727.36328,1.98752,1.98752,0,0,1,.35059.48145,2.21119,2.21119,0,0,1,.21289.6123,2.67478,2.67478,0,0,1,.03223.75488,2.34339,2.34339,0,0,1-.20312.80566,1.746,1.746,0,0,1-.41113.55957,1.61158,1.61158,0,0,1-.57129.32813,2.13135,2.13135,0,0,1-.67773.10547,1.32306,1.32306,0,0,1-.39551-.05859,1.547,1.547,0,0,1-.34473-.15918,1.43771,1.43771,0,0,1-.27441-.2207,1.0302,1.0302,0,0,1-.18164-.25391,1.425,1.425,0,0,1-.28125.293,1.83526,1.83526,0,0,1-.35547.21777,1.96506,1.96506,0,0,1-.40137.13672,2.0514,2.0514,0,0,1-.41895.04492,1.92643,1.92643,0,0,1-.57715-.08008,1.57487,1.57487,0,0,1-.4541-.22266,1.50761,1.50761,0,0,1-.33789-.33984,1.77148,1.77148,0,0,1-.22266-.42871,2.12037,2.12037,0,0,1-.11133-.49023,2.57226,2.57226,0,0,1-.00684-.52051,2.83156,2.83156,0,0,1,.17676-.77246,2.66347,2.66347,0,0,1,.37012-.67578,2.44692,2.44692,0,0,1,.541-.52148,2.08407,2.08407,0,0,1,.68457-.31445l.02344-1.0127h.78906L48.5,35.83105a1.1234,1.1234,0,0,1,.39355.165,1.03424,1.03424,0,0,1,.26855.26465.973.973,0,0,1,.14648.32813,1.061,1.061,0,0,1,.02734.35449,1.15889,1.15889,0,0,1-.11523.417,1.18067,1.18067,0,0,1-.25488.34668,1.21934,1.21934,0,0,1-.85156.32813,1.06757,1.06757,0,0,1-.34863-.05273.89169.89169,0,0,1-.26855-.14746.80043.80043,0,0,1-.18945-.22656,1.12445,1.12445,0,0,1-.11133-.29l-.03516.00293c-.02539.05273-.04785.10352-.06836.15234a1.25175,1.25175,0,0,0-.05273.1582,1.64551,1.64551,0,0,0-.03906.18457C46.99023,37.88184,46.98145,37.959,46.97461,38.0459Zm1.21-.76855a.34789.34789,0,0,0,.13965-.0293.48326.48326,0,0,0,.124-.07812.38219.38219,0,0,0,.08984-.11426.36986.36986,0,0,0,.042-.14258.32547.32547,0,0,0-.09766-.28027.42037.42037,0,0,0-.29687-.10449.69121.69121,0,0,0-.22754.03809.643.643,0,0,0-.1123.30469.37607.37607,0,0,0,.082.2959A.33032.33032,0,0,0,48.18457,37.27734Z"/>
    <path d="M50.042,35.34375c-.16309,0-.251.07324-.26367.2207a.18359.18359,0,0,0,.04785.15527.2446.2446,0,0,0,.17773.05762h.27051l-.06445.7373h-.28125a1.1457,1.1457,0,0,1-.36035-.05859.95824.95824,0,0,1-.31738-.1748.84354.84354,0,0,1-.21973-.28516.75563.75563,0,0,1-.05957-.3916.7253.7253,0,0,1,.14258-.373.84667.84667,0,0,1,.29688-.25781.76005.76005,0,0,1-.25879-.28711.65845.65845,0,0,1-.06738-.37207.77487.77487,0,0,1,.125-.37207,1.0081,1.0081,0,0,1,.26563-.27637,1.17754,1.17754,0,0,1,.35156-.17187,1.31013,1.31013,0,0,1,.38184-.05859h3.21973l-.06543.73828H50.14355a.29275.29275,0,0,0-.17969.05371.21463.21463,0,0,0-.083.16211.18127.18127,0,0,0,.05469.1582.24208.24208,0,0,0,.1709.05859h2.17578l-.06445.7373Z"/>
  </g>
  <polygon points="6.052 32.086 7.223 19.198 42.373 19.198 6.052 32.086" style="fill: #fff;opacity: 0.1"/>
  <line x1="26" y1="47" x2="42" y2="47" style="fill: none;stroke: #fff;stroke-linecap: round;stroke-miterlimit: 10;stroke-width: 0.75px"/>
  <line x1="46" y1="47" x2="51" y2="47" style="fill: none;stroke: #fff;stroke-linecap: round;stroke-miterlimit: 10;stroke-width: 0.75px"/>
</svg>
