<svg id="Layer_1" data-name="Layer 1" xmlns="http://www.w3.org/2000/svg" width="65" height="65" viewBox="0 0 65 65">
  <title>news</title>
  <path d="M60.92611,33.55437a28.56436,28.56436,0,0,1-10.74218,18.625l-.858.64447a26.5376,26.5376,0,0,1-5.58644,3.16588,13.84477,13.84477,0,0,0-1.45737.70961L29.52924,63.98292a1.02842,1.02842,0,0,1-1.42988-1.353l2.218-4.43593c-.59238-.03421-1.18475-.10255-1.78846-.1823A28.70316,28.70316,0,1,1,60.92611,33.55437Z" style="fill: #921245"/>
  <g>
    <rect x="10.94116" y="19.98936" width="32.33826" height="13.71926" rx="1.85237" ry="1.85237" style="opacity: 0.2"/>
    <rect x="18.78074" y="32.72867" width="37.23799" height="11.75937" rx="1.85237" ry="1.85237" style="opacity: 0.2"/>
    <rect x="17.80079" y="29.78883" width="36.25804" height="12.73931" rx="1.85237" ry="1.85237" style="fill: #fff"/>
    <rect x="8.98127" y="18.02946" width="32.33826" height="13.71926" rx="1.85237" ry="1.85237"/>
    <g>
      <path d="M26.99219,34.11133h-1.959l.01367,5.48047H23.72949l-.01367-5.48047H21.78369l-.00244-1.09766h5.2085Z"/>
      <path d="M27.64893,33.43848a.64965.64965,0,0,1,.18994-.4834.80324.80324,0,0,1,1.03857,0,.70324.70324,0,0,1,0,.9707.794.794,0,0,1-1.03174,0A.65144.65144,0,0,1,27.64893,33.43848ZM29.0127,39.5918H27.73877l-.01221-4.88867h1.27393Z"/>
      <path d="M31.21387,34.70313l.041.56543a1.63391,1.63391,0,0,1,1.36426-.65527,1.36081,1.36081,0,0,1,1.125.45605,2.17139,2.17139,0,0,1,.38086,1.36426l.00781,3.1582H32.86426l-.00781-3.126a.86353.86353,0,0,0-.17773-.60352.772.772,0,0,0-.584-.1875.86579.86579,0,0,0-.80273.46973l.00879,3.44727H30.03125L30.019,34.70313Z"/>
      <path d="M38.83887,33.502l.00293,1.20117h.8125l.002.958h-.8125l.00684,2.43945a.59437.59437,0,0,0,.10156.38867.49941.49941,0,0,0,.38672.11719,1.93575,1.93575,0,0,0,.373-.03125l.00293.98926a2.55185,2.55185,0,0,1-.76855.11816,1.23254,1.23254,0,0,1-1.36426-1.3877l-.00684-2.63379h-.69434l-.002-.958h.69434L37.57031,33.502Z"/>
      <path d="M45.73633,34.27441a1.9423,1.9423,0,0,1-.31152,1.21777,1.3823,1.3823,0,0,1-.98437.4668l.00879,3.63281H43.25391l-.03516-.49707a1.56937,1.56937,0,0,1-1.29883.58789,1.4865,1.4865,0,0,1-1.168-.45215,1.9712,1.9712,0,0,1-.41309-1.32422l-.00781-3.20312h1.26953l.00684,3.16211q.00293.76465.67871.76465a.90787.90787,0,0,0,.88574-.46191l-.00781-3.46484H44.4375l.001.62793a.60279.60279,0,0,0,.41895-.28027,1.73471,1.73471,0,0,0,.11914-.77637Zm-3.083-1.53223h1.38379l-1.21289,1.40137H41.792Z"/>
      <path d="M47.833,38.62988a.81692.81692,0,0,0,.57031-.19922.70451.70451,0,0,0,.22754-.52832h1.18945a1.698,1.698,0,0,1-.26172.91016,1.74883,1.74883,0,0,1-.707.6416,2.16156,2.16156,0,0,1-.99414.22852,2.04137,2.04137,0,0,1-1.60937-.667,2.68994,2.68994,0,0,1-.59277-1.84082v-.08594a2.64787,2.64787,0,0,1,.58008-1.80273,2.00311,2.00311,0,0,1,1.60059-.67285,1.9699,1.9699,0,0,1,1.43066.52148,1.87781,1.87781,0,0,1,.55078,1.38965H48.627a.91191.91191,0,0,0-.22949-.62012.83433.83433,0,0,0-1.25.09375,1.96368,1.96368,0,0,0-.22266,1.0791v.13574a2.00085,2.00085,0,0,0,.22656,1.08594A.76741.76741,0,0,0,47.833,38.62988Z"/>
    </g>
    <g>
      <path d="M18.78418,22.05078h-1.959l.01318,5.48047H15.521l-.01318-5.48047H13.57568l-.00293-1.09766h5.2085Z" style="fill: #fff"/>
      <path d="M21.84082,23.86719a3.30727,3.30727,0,0,0-.457-.03613.92167.92167,0,0,0-.94287.501l.00781,3.19922H19.1792l-.01172-4.88867H20.3667l.03662.583a1.16817,1.16817,0,0,1,1.05615-.67383,1.30553,1.30553,0,0,1,.396.05957Z" style="fill: #fff"/>
      <path d="M22.16455,25.042a2.9535,2.9535,0,0,1,.271-1.30176,2.02462,2.02462,0,0,1,.78613-.87891,2.25164,2.25164,0,0,1,1.18506-.30957,2.09407,2.09407,0,0,1,1.65723.70117.65315.65315,0,0,0,.27148-.40527,2.68938,2.68938,0,0,0,.06885-.66113h.77295a1.56429,1.56429,0,0,1-.77344,1.58984A2.976,2.976,0,0,1,26.666,25.042v.09473a2.94926,2.94926,0,0,1-.27148,1.30078,2.0139,2.0139,0,0,1-.77979.877,2.24793,2.24793,0,0,1-1.18652.30664,2.12642,2.12642,0,0,1-1.5957-.62793,2.503,2.503,0,0,1-.66309-1.69434Zm1.27344.09277a1.87115,1.87115,0,0,0,.25781,1.06543.83458.83458,0,0,0,.72949.36816.82519.82519,0,0,0,.71973-.36621,2.08071,2.08071,0,0,0,.25146-1.16309,1.88338,1.88338,0,0,0-.25684-1.05664.82991.82991,0,0,0-.73-.37793.8183.8183,0,0,0-.71924.374A2.07628,2.07628,0,0,0,23.438,25.13477Zm.27686,3.49414a.56965.56965,0,0,1,.19629-.44727.7365.7365,0,0,1,.50928-.17578.74669.74669,0,0,1,.51416.17578.57493.57493,0,0,1,.19873.44727.58333.58333,0,0,1-.19482.44727.82405.82405,0,0,1-1.02979,0A.58748.58748,0,0,1,23.71484,28.62891Z" style="fill: #fff"/>
      <path d="M31.18262,27.53125H29.9082l-.0166-6.93945H31.165Z" style="fill: #fff"/>
      <path d="M33.99707,25.68359l.87012-3.041h1.36133L34.333,28.29l-.10547.25781a1.4426,1.4426,0,0,1-1.40234.957,1.978,1.978,0,0,1-.56348-.085l-.002-.99023.19336.00488a1.022,1.022,0,0,0,.53809-.11328.7337.7337,0,0,0,.27734-.375l.14844-.40137-1.67676-4.90234h1.36621Zm.26367-5.0918h1.38379l-1.21387,1.40039H33.39941Z" style="fill: #fff"/>
    </g>
  </g>
</svg>
