<svg id="Layer_1" data-name="Layer 1" xmlns="http://www.w3.org/2000/svg" width="65" height="65" viewBox="0 0 65 65">
  <title>news</title>
  <path d="M63.85,32.115A31.22128,31.22128,0,0,1,53.343,55.542q-.69824.61274-1.425,1.197a32.66553,32.66553,0,0,1-3.88553,2.6125,31.39123,31.39123,0,0,1-30.096.532L7.914,64.1585a.95521.95521,0,0,1-1.32051-.988L7.88553,52.445l.095-.798a32.51184,32.51184,0,0,1-2.451-3.534v-.00951a31.23982,31.23982,0,0,1-3.58146-8.892V39.202c-.11405-.513-.21854-1.01651-.304-1.539a27.46125,27.46125,0,0,1-.38-2.964c-.057-.63648-.095-1.28253-.10449-1.938C1.15,32.552,1.15,32.3335,1.15,32.115a31.67975,31.67975,0,0,1,1.6055-9.956,31.37063,31.37063,0,0,1,51.585-12.54,30.713,30.713,0,0,1,3.496,4.0375,29.0931,29.0931,0,0,1,2.36549,3.762V17.428a30.97124,30.97124,0,0,1,3.12554,9.006c.08547.46549.16148.94049.228,1.41549A30.157,30.157,0,0,1,63.85,32.115Z" style="fill: #e12726"/>
  <g>
    <rect x="13.55556" y="31" width="46.44444" height="13.44444" rx="6.72222" ry="6.72222" style="fill: #fff"/>
    <rect x="5" y="20" width="37.88889" height="13.44444" rx="6.72222" ry="6.72222"/>
    <g>
      <path d="M8.5415,24.39258H9.64209l.90283,3.978,1.04248-3.978h1.145l.9834,3.95605.91016-3.95605h1.10791l-1.43115,5.123H13.0918l-.96143-3.64795L11.125,29.51563l-1.20361.00732Z" style="fill: #fff"/>
      <path d="M19.36816,25.22217H17.42334v1.28418h1.72461v.81494H17.42334v1.35742h1.94482v.83691H16.39551V24.38525h2.97266Z" style="fill: #fff"/>
      <path d="M22.50635,29.51563H20.29688v-5.123h2.11377c1.07178,0,1.666.55811,1.666,1.32129a1.18133,1.18133,0,0,1-.873,1.17432,1.24207,1.24207,0,0,1,.99072,1.24023C24.19434,28.94336,23.57031,29.51563,22.50635,29.51563Zm-.24219-4.29346h-.93945v1.28418h.93945c.48438,0,.76318-.22021.76318-.63867C23.02734,25.457,22.74854,25.22217,22.26416,25.22217Zm.07324,2.07715h-1.0127v1.37939h1.03467c.499,0,.79248-.24219.79248-.6748C23.15186,27.56348,22.83643,27.29932,22.3374,27.29932Z" style="fill: #fff"/>
      <path d="M26.78125,29.56689c-1.06445,0-1.88623-.55762-1.90088-1.52637H25.981a.70384.70384,0,0,0,.77832.68262c.48438,0,.77051-.25684.77051-.624,0-1.1084-2.64209-.44043-2.63477-2.29736,0-.9248.74854-1.48242,1.80518-1.48242a1.61886,1.61886,0,0,1,1.835,1.46045H27.40479a.6761.6761,0,0,0-.73389-.60889c-.40332-.01514-.70459.18311-.70459.60156,0,1.02734,2.62744.45508,2.62744,2.26074A1.61579,1.61579,0,0,1,26.78125,29.56689Z" style="fill: #fff"/>
      <path d="M29.478,24.39258h1.02783v5.123H29.478Z" style="fill: #fff"/>
      <path d="M31.24512,24.39258h3.75781v.82959H33.6377v4.29346H32.61035V25.22217H31.24512Z" style="fill: #fff"/>
      <path d="M38.71973,25.22217H36.77539v1.28418H38.5v.81494H36.77539v1.35742h1.94434v.83691H35.748V24.38525h2.97168Z" style="fill: #fff"/>
    </g>
    <g>
      <path d="M20.83447,40.03223H18.79395l-.33789.97656H17.37744l1.84229-5.12988H20.416l1.84229,5.12988H21.17188ZM19.814,37.06738l-.74121,2.14355h1.48242Z"/>
      <path d="M24.7124,41.06055c-1.06445,0-1.88623-.55859-1.90088-1.52734h1.10059a.70356.70356,0,0,0,.77832.68262c.48438,0,.77051-.25684.77051-.624,0-1.10742-2.64209-.43945-2.63477-2.29687,0-.9248.74854-1.48242,1.80518-1.48242a1.6192,1.6192,0,0,1,1.835,1.46094H25.33594a.6758.6758,0,0,0-.73389-.60937c-.40381-.01465-.70459.18359-.70459.60156,0,1.02734,2.62744.45508,2.62744,2.26074A1.61585,1.61585,0,0,1,24.7124,41.06055Z"/>
      <path d="M29.17822,41.06055c-1.06445,0-1.88623-.55859-1.90088-1.52734h1.10059a.70356.70356,0,0,0,.77832.68262c.48438,0,.77051-.25684.77051-.624,0-1.10742-2.64209-.43945-2.63477-2.29687,0-.9248.74854-1.48242,1.80518-1.48242a1.6192,1.6192,0,0,1,1.835,1.46094H29.80176a.6758.6758,0,0,0-.73389-.60937c-.40381-.01465-.70459.18359-.70459.60156,0,1.02734,2.62744.45508,2.62744,2.26074A1.61585,1.61585,0,0,1,29.17822,41.06055Z"/>
      <path d="M31.87549,35.88574h1.02783v5.123H31.87549Z"/>
      <path d="M35.68262,41.06055c-1.06445,0-1.88672-.55859-1.90137-1.52734h1.10156a.703.703,0,0,0,.77734.68262c.48438,0,.77051-.25684.77051-.624,0-1.10742-2.6416-.43945-2.63477-2.29687,0-.9248.749-1.48242,1.80566-1.48242a1.61947,1.61947,0,0,1,1.835,1.46094H36.30664a.67659.67659,0,0,0-.73437-.60937c-.40332-.01465-.7041.18359-.7041.60156,0,1.02734,2.627.45508,2.627,2.26074A1.61585,1.61585,0,0,1,35.68262,41.06055Z"/>
      <path d="M38.10938,35.88574h3.75781v.8291H40.502v4.29395H39.47363V36.71484H38.10938Z"/>
      <path d="M45.752,40.03223h-2.04l-.33789.97656h-1.0791l1.84277-5.12988H45.334l1.8418,5.12988H46.08984Zm-1.01953-2.96484-.74121,2.14355h1.48242Z"/>
      <path d="M52.24316,35.87891v5.12988H51.21582l-2.32617-3.51562v3.51563H47.8623V35.87891h1.02734l2.32617,3.52246V35.87891Z"/>
      <path d="M52.98047,35.88574h3.75781v.8291H55.373v4.29395H54.34473V36.71484H52.98047Z"/>
    </g>
    <path d="M11.72222,33.44444A6.72222,6.72222,0,0,1,5,26.72223H5A6.72222,6.72222,0,0,1,11.72222,20H36.16667" style="fill: #fff;opacity: 0.2"/>
  </g>
  <line x1="33" y1="48" x2="46" y2="48" style="fill: none;stroke: #fff;stroke-linecap: round;stroke-miterlimit: 10"/>
  <line x1="50" y1="48" x2="54" y2="48" style="fill: none;stroke: #fff;stroke-linecap: round;stroke-miterlimit: 10"/>
</svg>
