<svg id="Layer_1" data-name="Layer 1" xmlns="http://www.w3.org/2000/svg" width="75" height="75" viewBox="0 0 75 75">
  <title>news</title>
  <path d="M72.8967,37.0653a35.2513,35.2513,0,0,1-11.8632,26.451q-.7884.6918-1.6089,1.3515a36.882,36.882,0,0,1-4.3871,2.95,35.4432,35.4432,0,0,1-33.9808.6007L9.74,73.245a1.0785,1.0785,0,0,1-1.491-1.1156l1.4588-12.11.1072-.901a36.7085,36.7085,0,0,1-2.7674-3.99v-.0107a35.2723,35.2723,0,0,1-4.0438-10.04v-.0107c-.1288-.5792-.2467-1.1477-.3432-1.7376a31.006,31.006,0,0,1-.4291-3.3466c-.0644-.7186-.1072-1.4481-.118-2.1882-.0107-.2359-.0107-.4826-.0107-.7294A35.769,35.769,0,0,1,3.9161,25.8242,35.42,35.42,0,0,1,62.16,11.6655a34.6774,34.6774,0,0,1,3.9473,4.5587,32.8484,32.8484,0,0,1,2.6708,4.2476v.0107a34.969,34.969,0,0,1,3.529,10.1685c.0965.5256.1823,1.0619.2574,1.5982A34.05,34.05,0,0,1,72.8967,37.0653Z" style="fill: #00aa02"/>
  <circle cx="37.5" cy="37" r="36" style="fill: #00aa02"/>
  <path d="M68.72,37.1166a31.0917,31.0917,0,0,1-10.4634,23.33q-.6953.61-1.4191,1.192A32.53,32.53,0,0,1,52.968,64.24a31.2609,31.2609,0,0,1-29.9711.53l-9.9809,4.2573a.9512.9512,0,0,1-1.315-.9839l1.2867-10.681.0946-.7947a32.3769,32.3769,0,0,1-2.4408-3.5193v-.0095a31.11,31.11,0,0,1-3.5666-8.8551v-.0095c-.1136-.5108-.2176-1.0123-.3027-1.5326A27.3473,27.3473,0,0,1,6.3937,39.69c-.0568-.6338-.0946-1.2772-.1041-1.93-.0095-.2081-.0095-.4257-.0095-.6433A31.5482,31.5482,0,0,1,7.879,27.2019,31.24,31.24,0,0,1,59.25,14.714a30.5855,30.5855,0,0,1,3.4815,4.0207,28.9723,28.9723,0,0,1,2.3557,3.7464v.0095A30.8427,30.8427,0,0,1,68.2,31.4592c.0851.4636.1608.9366.227,1.41A30.0318,30.0318,0,0,1,68.72,37.1166Z" style="fill: #fff"/>
  <g>
    <polygon points="63.613 50.719 15.915 50.719 16.818 41.394 64.515 41.394 63.613 50.719" style="opacity: 0.30000000000000004"/>
    <polygon points="51.063 41.394 11.571 41.394 12.838 26.914 52.33 26.914 51.063 41.394" style="opacity: 0.30000000000000004"/>
    <polygon points="62.22 49.293 14.829 49.293 15.981 36.129 63.371 36.129 62.22 49.293"/>
    <polygon points="49.977 38.762 10.485 38.762 11.752 24.281 51.244 24.281 49.977 38.762" style="fill: #00aa02"/>
    <g>
      <path d="M14.4355,28.9551h1.1855l.5981,4.2832,1.4966-4.2832h1.2334l.686,4.26,1.353-4.26h1.1934l-2.0234,5.5171H18.8535l-.6914-3.9287-1.4268,3.9287-1.2969.0078Z" style="fill: #fff"/>
      <path d="M26.0176,29.8481H23.9238l-.1211,1.3833H25.66l-.0767.8774H23.7261l-.1279,1.4624h2.0938l-.0786.9009H22.4121l.4834-5.5249h3.2012Z" style="fill: #fff"/>
      <path d="M28.9941,34.4722h-2.38l.4824-5.5171H29.373c1.1543,0,1.7427.6,1.6709,1.4224a1.4226,1.4226,0,0,1-1.0513,1.2646,1.2037,1.2037,0,0,1,.95,1.3354A1.7351,1.7351,0,0,1,28.9941,34.4722Zm.0273-2.3877H27.9307l-.13,1.4868h1.1143c.5371,0,.8765-.2607.9175-.728C29.873,32.37,29.5586,32.0845,29.0215,32.0845Zm.1162-2.2363H28.126l-.1211,1.3833h1.0117c.5215,0,.8423-.2373.8818-.688C29.937,30.1011,29.6592,29.8481,29.1377,29.8481Z" style="fill: #fff"/>
      <path d="M33.5928,34.5273c-1.1465,0-1.9785-.6011-1.9033-1.644H32.875a.6846.6846,0,0,0,.7739.7344.7882.7882,0,0,0,.8887-.6709c.1045-1.1938-2.8042-.4751-2.6216-2.4741A1.87,1.87,0,0,1,34,28.876c1.13,0,1.855.5771,1.8384,1.5723H34.6216a.6572.6572,0,0,0-.7329-.6558.707.707,0,0,0-.8154.6479c-.0967,1.1074,2.7861.49,2.6162,2.4351A1.9311,1.9311,0,0,1,33.5928,34.5273Z" style="fill: #fff"/>
      <path d="M36.9844,28.9551h1.1074l-.4824,5.5171H36.502Z" style="fill: #fff"/>
      <path d="M38.8887,28.9551h4.0469l-.0781.8931h-1.47l-.4043,4.624H39.876l.4043-4.624h-1.47Z" style="fill: #fff"/>
      <path d="M46.86,29.8481H44.7666l-.1211,1.3833h1.8574l-.0762.8774H44.5693l-.1279,1.4624h2.0938l-.0791.9009H43.2549l.4834-5.5249h3.2012Z" style="fill: #fff"/>
    </g>
    <g>
      <path d="M21.6641,44.8506H19.4668l-.4561,1.0518H17.8486l2.4678-5.5254h1.2881l1.501,5.5254h-1.17Zm-.8193-3.1934-1,2.3076h1.5967Z" style="fill: #fff"/>
      <path d="M25.7441,45.957c-1.1465,0-1.9785-.6006-1.9033-1.6436h1.1855a.6855.6855,0,0,0,.7739.7354.7892.7892,0,0,0,.8887-.6719c.1045-1.1943-2.8042-.4756-2.6216-2.4746a1.8709,1.8709,0,0,1,2.0845-1.5967c1.13,0,1.8545.5771,1.8379,1.5723H26.7729a.6571.6571,0,0,0-.7329-.6553.7071.7071,0,0,0-.8154.6475c-.0967,1.1074,2.7861.49,2.6162,2.4355A1.93,1.93,0,0,1,25.7441,45.957Z" style="fill: #fff"/>
      <path d="M30.5537,45.957c-1.1465,0-1.9785-.6006-1.9033-1.6436h1.1855a.6855.6855,0,0,0,.7739.7354.7892.7892,0,0,0,.8887-.6719c.1045-1.1943-2.8042-.4756-2.6216-2.4746a1.8709,1.8709,0,0,1,2.0845-1.5967c1.13,0,1.8545.5771,1.8379,1.5723H31.5825a.6571.6571,0,0,0-.7329-.6553.7066.7066,0,0,0-.8154.6475c-.0967,1.1074,2.7861.49,2.6162,2.4355A1.93,1.93,0,0,1,30.5537,45.957Z" style="fill: #fff"/>
      <path d="M33.9463,40.3848h1.1074l-.4824,5.5176H33.4639Z" style="fill: #fff"/>
      <path d="M37.56,45.957c-1.1465,0-1.9785-.6006-1.9033-1.6436h1.1855a.6855.6855,0,0,0,.7739.7354.7887.7887,0,0,0,.8882-.6719c.1055-1.1943-2.8037-.4756-2.6211-2.4746a1.8709,1.8709,0,0,1,2.0845-1.5967c1.1294,0,1.855.5771,1.8374,1.5723H38.5879a.6567.6567,0,0,0-.7324-.6553.7066.7066,0,0,0-.8154.6475c-.0967,1.1074,2.7861.49,2.6162,2.4355A1.93,1.93,0,0,1,37.56,45.957Z" style="fill: #fff"/>
      <path d="M40.66,40.3848H44.707l-.0781.8936h-1.47l-.4043,4.624H41.6475l.4043-4.624h-1.47Z" style="fill: #fff"/>
      <path d="M48.502,44.8506H46.3047l-.4561,1.0518H44.6865l2.4678-5.5254h1.2881l1.501,5.5254h-1.17Zm-.8193-3.1934-1.001,2.3076h1.5967Z" style="fill: #fff"/>
      <path d="M55.8838,40.377,55.4,45.9023H54.2939L52.12,42.1152l-.3311,3.7871H50.6816l.4834-5.5254h1.1074l2.1729,3.7939.332-3.7939Z" style="fill: #fff"/>
      <path d="M56.6768,40.3848h4.0469l-.0781.8936h-1.47l-.4043,4.624H57.6641l.4043-4.624h-1.47Z" style="fill: #fff"/>
    </g>
    <polygon points="10.485 38.762 11.752 24.281 51.244 24.281 10.485 38.762" style="fill: #fff;opacity: 0.15"/>
  </g>
</svg>
