<svg id="Layer_1" data-name="Layer 1" xmlns="http://www.w3.org/2000/svg" width="65" height="65" viewBox="0 0 65 65">
  <title>news</title>
  <path d="M32.5,1.5H61.6444A1.8556,1.8556,0,0,1,63.5,3.3556V32.5a31,31,0,0,1-31,31h0a31,31,0,0,1-31-31v0A31,31,0,0,1,32.5,1.5Z" style="fill: #00aa02"/>
  <path d="M32.5,5.9214H57.4877a1.591,1.591,0,0,1,1.591,1.591V32.5A26.5786,26.5786,0,0,1,32.5,59.0786h0A26.5786,26.5786,0,0,1,5.9214,32.5v0A26.5786,26.5786,0,0,1,32.5,5.9214Z" style="fill: #fff"/>
  <g>
    <polygon points="53.983 43.375 14.742 43.375 15.485 35.704 54.725 35.704 53.983 43.375" style="opacity: 0.30000000000000004"/>
    <polygon points="43.658 35.704 11.168 35.704 12.211 23.791 44.701 23.791 43.658 35.704" style="opacity: 0.30000000000000004"/>
    <polygon points="52.837 42.202 13.849 42.202 14.796 31.372 53.784 31.372 52.837 42.202"/>
    <polygon points="42.765 33.538 10.275 33.538 11.317 21.625 43.807 21.625 42.765 33.538" style="fill: #00aa02"/>
    <g>
      <path d="M13.5229,25.5117h.9756l.4917,3.5176,1.231-3.5176h1.0137L17.8,29.01l1.1118-3.4985h.9824L18.23,30.0425H17.1567l-.5693-3.2261-1.1729,3.2261-1.0664.0063Z" style="fill: #fff"/>
      <path d="M23.0513,26.2451H21.3286l-.1,1.1362h1.5273l-.0625.72H21.1665l-.1055,1.2h1.7227l-.0645.7407H20.0864l.397-4.5376h2.6328Z" style="fill: #fff"/>
      <path d="M25.5,30.0425h-1.957l.3965-4.5308H25.811c.9492,0,1.4321.4932,1.373,1.1685a1.1652,1.1652,0,0,1-.8643,1.0381.99.99,0,0,1,.7822,1.0972A1.4266,1.4266,0,0,1,25.5,30.0425Zm.022-1.96H24.624l-.1069,1.22h.917c.4414,0,.7212-.2139.7544-.5962C26.2227,28.3154,25.9629,28.082,25.5215,28.082Zm.0952-1.8369h-.832l-.1,1.1362h.832c.4287,0,.6934-.1953.7256-.5649C26.2744,26.4526,26.0454,26.2451,25.6167,26.2451Z" style="fill: #fff"/>
      <path d="M29.2837,30.0879c-.9424,0-1.627-.4932-1.5654-1.35h.9756a.5624.5624,0,0,0,.6357.603c.43,0,.7021-.2266.73-.5518.0859-.9795-2.3057-.3892-2.1553-2.0312a1.5375,1.5375,0,0,1,1.7134-1.3115c.93,0,1.5249.4741,1.5122,1.292h-1.001a.54.54,0,0,0-.6025-.5386.5808.5808,0,0,0-.67.5317c-.08.9087,2.292.4028,2.1523,2A1.5878,1.5878,0,0,1,29.2837,30.0879Z" style="fill: #fff"/>
      <path d="M32.0747,25.5117h.91l-.3965,4.5308h-.91Z" style="fill: #fff"/>
      <path d="M33.6406,25.5117h3.3281l-.0645.7334h-1.209l-.332,3.7974h-.91l.332-3.7974h-1.209Z" style="fill: #fff"/>
      <path d="M40.1982,26.2451H38.4756l-.1,1.1362h1.5273l-.0625.72H38.3135l-.1055,1.2h1.7227l-.0645.7407H37.2334l.3965-4.5376h2.6328Z" style="fill: #fff"/>
    </g>
    <g>
      <path d="M19.4692,38.582H17.6626l-.3745.8623H16.332l2.0288-4.5371h1.06l1.2339,4.5371h-.9619Zm-.6738-2.623-.8223,1.8955h1.3125Z" style="fill: #fff"/>
      <path d="M22.8262,39.49c-.9424,0-1.627-.4932-1.5654-1.35h.9756a.5624.5624,0,0,0,.6357.6025.6478.6478,0,0,0,.731-.5518c.0854-.9795-2.3062-.3887-2.1553-2.0312a1.5371,1.5371,0,0,1,1.7129-1.3115c.93,0,1.5254.4746,1.5122,1.292h-1.001a.54.54,0,0,0-.6021-.5381.5809.5809,0,0,0-.6709.5313c-.08.9092,2.292.4033,2.1523,2A1.5874,1.5874,0,0,1,22.8262,39.49Z" style="fill: #fff"/>
      <path d="M26.7832,39.49c-.9424,0-1.627-.4932-1.5654-1.35h.9756a.5624.5624,0,0,0,.6357.6025.6478.6478,0,0,0,.731-.5518c.0854-.9795-2.3062-.3887-2.1553-2.0312a1.5371,1.5371,0,0,1,1.7129-1.3115c.93,0,1.5254.4746,1.5122,1.292h-1.001a.54.54,0,0,0-.6021-.5381.5809.5809,0,0,0-.6709.5313c-.08.9092,2.292.4033,2.1523,2A1.5874,1.5874,0,0,1,26.7832,39.49Z" style="fill: #fff"/>
      <path d="M29.5752,34.9141h.91l-.3965,4.53h-.91Z" style="fill: #fff"/>
      <path d="M32.5469,39.49c-.9424,0-1.627-.4932-1.5654-1.35h.9756a.5624.5624,0,0,0,.6357.6025c.43,0,.7021-.2266.73-.5518.0859-.9795-2.3057-.3887-2.1548-2.0312a1.5371,1.5371,0,0,1,1.7129-1.3115c.9292,0,1.5249.4746,1.5122,1.292h-1.001a.54.54,0,0,0-.6021-.5381.5809.5809,0,0,0-.6709.5313c-.08.9092,2.2915.4033,2.1519,2A1.5869,1.5869,0,0,1,32.5469,39.49Z" style="fill: #fff"/>
      <path d="M35.0967,34.9141h3.3281l-.0635.7334h-1.209l-.333,3.7969h-.91l.333-3.7969h-1.209Z" style="fill: #fff"/>
      <path d="M41.5488,38.582H39.7422l-.374.8623h-.957L40.44,34.9072H41.5l1.2334,4.5371h-.9609Zm-.6738-2.623-.8223,1.8955h1.3125Z" style="fill: #fff"/>
      <path d="M47.6211,34.9072l-.3975,4.5371h-.91l-1.7881-3.1084-.2725,3.1084h-.91l.3975-4.5371h.91l1.7881,3.1162.2725-3.1162Z" style="fill: #fff"/>
      <path d="M48.2744,34.9141h3.3281l-.0635.7334H50.33l-.333,3.7969h-.91l.333-3.7969h-1.209Z" style="fill: #fff"/>
    </g>
    <polygon points="10.275 33.538 11.317 21.625 43.807 21.625 10.275 33.538" style="fill: #fff;opacity: 0.15"/>
  </g>
</svg>
