<svg id="Layer_1" data-name="Layer 1" xmlns="http://www.w3.org/2000/svg" width="60" height="60" viewBox="0 0 60 60">
  <title>news</title>
  <path d="M59,29.64a28.92,28.92,0,0,1-9.73,21.7q-.65.57-1.32,1.11a30.26,30.26,0,0,1-3.6,2.42,29.08,29.08,0,0,1-27.88.49l-9.28,4A.88.88,0,0,1,6,58.41l1.2-9.94.09-.74A30.12,30.12,0,0,1,5,44.46H5A28.94,28.94,0,0,1,1.7,36.22h0c-.11-.48-.2-.94-.28-1.43A25.44,25.44,0,0,1,1.07,32C1,31.45,1,30.85,1,30.24c0-.19,0-.4,0-.6a29.35,29.35,0,0,1,1.49-9.22A29.06,29.06,0,0,1,50.23,8.8a28.45,28.45,0,0,1,3.24,3.74A27,27,0,0,1,55.66,16h0a28.69,28.69,0,0,1,2.9,8.34c.08.43.15.87.21,1.31A27.93,27.93,0,0,1,59,29.64Z" style="fill: #ed1926"/>
  <polygon points="50.85 41 7.66 41 8.48 31.6 51.68 31.6 50.85 41" style="opacity: 0.3"/>
  <polygon points="44.87 31.7 6.07 31.7 7.01 20.9 45.81 20.9 44.87 31.7" style="opacity: 0.3"/>
  <polygon points="51.98 39.6 8.78 39.6 9.83 27.6 53.03 27.6 51.98 39.6" style="fill: #fff"/>
  <polygon points="46 30.2 7.2 30.2 8.14 19.4 46.95 19.4 46 30.2"/>
  <text transform="matrix(1, 0, -0.09, 1, 10.64, 27.64)" style="font-size: 7.528648853302002px;fill: #fff;font-family: Poppins-SemiBold, Poppins;font-weight: 700">WEBSITE</text>
  <text transform="matrix(1, 0, -0.09, 1, 10.52, 37.47)" style="font-size: 7.528648853302002px;font-family: Poppins-SemiBold, Poppins;font-weight: 700">ASSISTANT</text>
</svg>
