<svg id="Layer_1" data-name="Layer 1" xmlns="http://www.w3.org/2000/svg" width="65" height="65" viewBox="0 0 65 65">
  <title>news</title>
  <path d="M63.85,32.115A31.22128,31.22128,0,0,1,53.343,55.542q-.69824.61274-1.425,1.197a32.66553,32.66553,0,0,1-3.88553,2.6125,31.39123,31.39123,0,0,1-30.096.532L7.914,64.1585a.95521.95521,0,0,1-1.32051-.988L7.88553,52.445l.095-.798a32.51184,32.51184,0,0,1-2.451-3.534v-.00951a31.23982,31.23982,0,0,1-3.58146-8.892V39.202c-.11405-.513-.21854-1.01651-.304-1.539a27.46125,27.46125,0,0,1-.38-2.964c-.057-.63648-.095-1.28253-.10449-1.938C1.15,32.552,1.15,32.3335,1.15,32.115a31.67975,31.67975,0,0,1,1.6055-9.956,31.37063,31.37063,0,0,1,51.585-12.54,30.713,30.713,0,0,1,3.496,4.0375,29.0931,29.0931,0,0,1,2.36549,3.762V17.428a30.97124,30.97124,0,0,1,3.12554,9.006c.08547.46549.16148.94049.228,1.41549A30.157,30.157,0,0,1,63.85,32.115Z" style="fill: #1bbdc7"/>
  <path d="M10.36218,32.78588H57.3508a3,3,0,0,1,3,3v9.85422a0,0,0,0,1,0,0H13.36218a3,3,0,0,1-3-3V32.78588a0,0,0,0,1,0,0Z" style="opacity: 0.2"/>
  <path d="M6.07744,24.2164H45.92483a3,3,0,0,1,3,3v9.85422a0,0,0,0,1,0,0H9.07744a3,3,0,0,1-3-3V24.2164a0,0,0,0,1,0,0Z" style="opacity: 0.2"/>
  <path d="M8.93394,31.35763H55.92256a3,3,0,0,1,3,3v9.85422a0,0,0,0,1,0,0H11.93394a3,3,0,0,1-3-3V31.35763A0,0,0,0,1,8.93394,31.35763Z" style="fill: #fff"/>
  <g>
    <path d="M14.84131,40.34277H12.457L12.0625,41.4834H10.80225l2.15234-5.99414h1.39795l2.15234,5.99414H15.23535Zm-1.19238-3.46484-.86572,2.50488h1.73193Z"/>
    <path d="M19.373,41.543c-1.24316,0-2.20361-.65137-2.2207-1.7832h1.28613a.82184.82184,0,0,0,.90918.79785c.56592,0,.90039-.30078.90039-.72949,0-1.29492-3.0874-.51465-3.07861-2.68359,0-1.08105.87451-1.73242,2.10938-1.73242a1.8917,1.8917,0,0,1,2.144,1.70605h-1.3208a.7903.7903,0,0,0-.85742-.71191c-.47168-.0166-.82324.21484-.82324.7041,0,1.2002,3.06982.53125,3.06982,2.64063A1.888,1.888,0,0,1,19.373,41.543Z"/>
    <path d="M24.5918,41.543c-1.24316,0-2.20361-.65137-2.2207-1.7832h1.28613a.82184.82184,0,0,0,.90918.79785c.56592,0,.90039-.30078.90039-.72949,0-1.29492-3.0874-.51465-3.07861-2.68359,0-1.08105.87451-1.73242,2.10938-1.73242a1.8917,1.8917,0,0,1,2.144,1.70605H25.3208a.7903.7903,0,0,0-.85742-.71191c-.47168-.0166-.82324.21484-.82324.7041,0,1.2002,3.06982.53125,3.06982,2.64063A1.888,1.888,0,0,1,24.5918,41.543Z"/>
    <path d="M27.74414,35.498h1.20068V41.4834H27.74414Z"/>
    <path d="M32.19287,41.543c-1.24316,0-2.20361-.65137-2.2207-1.7832H31.2583a.82184.82184,0,0,0,.90918.79785c.56592,0,.90088-.30078.90088-.72949,0-1.29492-3.08789-.51465-3.0791-2.68359,0-1.08105.87451-1.73242,2.10937-1.73242a1.8907,1.8907,0,0,1,2.14355,1.70605H32.92188a.79.79,0,0,0-.85742-.71191c-.47168-.0166-.82324.21484-.82324.7041,0,1.2002,3.06934.53125,3.06934,2.64063A1.88754,1.88754,0,0,1,32.19287,41.543Z"/>
    <path d="M35.02734,35.498H39.418v.96875H37.82324v5.0166H36.623V36.4668h-1.5957Z"/>
    <path d="M43.96,40.34277H41.57617l-.39453,1.14063H39.9209l2.15234-5.99414h1.39844L45.624,41.4834H44.35449Zm-1.19141-3.46484-.86621,2.50488h1.73242Z"/>
    <path d="M51.54492,35.48926V41.4834h-1.2002L47.626,37.376V41.4834h-1.2002V35.48926H47.626l2.71875,4.11621V35.48926Z"/>
    <path d="M52.40625,35.498h4.39063v.96875H55.20215v5.0166H54.001V36.4668H52.40625Z"/>
  </g>
  <path d="M4.6492,21.35991H44.49659a3,3,0,0,1,3,3v9.85422a0,0,0,0,1,0,0H7.6492a3,3,0,0,1-3-3V21.35991a0,0,0,0,1,0,0Z"/>
  <g>
    <path d="M8.51367,24.45605H9.80029L10.855,29.104l1.21777-4.64795h1.33789l1.14893,4.62256L15.623,24.45605H16.918l-1.67236,5.98584h-1.415L12.707,26.17969l-1.1748,4.26221-1.40625.00879Z" style="fill: #fff"/>
    <path d="M21.165,25.42529H18.89258v1.50049h2.01514v.95215H18.89258v1.58643H21.165v.97754H17.69189V24.44775H21.165Z" style="fill: #fff"/>
    <path d="M24.832,30.44189H22.251V24.45605H24.7207c1.252,0,1.94629.65186,1.94629,1.54395a1.38041,1.38041,0,0,1-1.02,1.37207,1.4515,1.4515,0,0,1,1.15771,1.44922C26.80469,29.77295,26.07568,30.44189,24.832,30.44189Zm-.28271-5.0166H23.45166v1.50049h1.09766c.56592,0,.8916-.25684.8916-.74609C25.44092,25.69971,25.11523,25.42529,24.54932,25.42529Zm.08545,2.42676H23.45166v1.6123h1.209c.583,0,.92627-.2832.92627-.78906C25.58691,28.16064,25.21777,27.85205,24.63477,27.85205Z" style="fill: #fff"/>
    <path d="M29.82764,30.502c-1.24316,0-2.20361-.65186-2.2207-1.78369h1.28613a.82177.82177,0,0,0,.90918.79736c.56592,0,.90039-.2998.90039-.729,0-1.29443-3.0874-.51416-3.07861-2.68408,0-1.08008.87451-1.73193,2.10938-1.73193a1.89173,1.89173,0,0,1,2.144,1.70654h-1.3208a.79.79,0,0,0-.85742-.71191c-.47168-.01709-.82324.21436-.82324.70313,0,1.20068,3.06982.53174,3.06982,2.64111A1.88833,1.88833,0,0,1,29.82764,30.502Z" style="fill: #fff"/>
    <path d="M32.98,24.45605h1.20068v5.98584H32.98Z" style="fill: #fff"/>
    <path d="M35.04492,24.45605h4.39063v.96924H37.84082v5.0166h-1.2002v-5.0166h-1.5957Z" style="fill: #fff"/>
    <path d="M43.7793,25.42529H41.50684v1.50049h2.01563v.95215H41.50684v1.58643H43.7793v.97754H40.30664V24.44775H43.7793Z" style="fill: #fff"/>
  </g>
  <path d="M33.5,47h21a1,1,0,0,1,1,1v0a0,0,0,0,1,0,0h-21a1,1,0,0,1-1-1v0A0,0,0,0,1,33.5,47Z" style="fill: #fff"/>
  <path d="M26,47h4a1,1,0,0,1,1,1v0a0,0,0,0,1,0,0H27a1,1,0,0,1-1-1v0A0,0,0,0,1,26,47Z" style="fill: #fff"/>
</svg>
