<?xml version="1.0" encoding="UTF-8"?>
<!DOCTYPE svg PUBLIC "-//W3C//DTD SVG 1.1//EN" "http://www.w3.org/Graphics/SVG/1.1/DTD/svg11.dtd">
<!-- Creator: CorelDRAW 2018 (64-Bit) -->
<svg xmlns="http://www.w3.org/2000/svg" xml:space="preserve" width="313px" height="313px" version="1.1" style="shape-rendering:geometricPrecision; text-rendering:geometricPrecision; image-rendering:optimizeQuality; fill-rule:evenodd; clip-rule:evenodd"
viewBox="0 0 313 313"
 xmlns:xlink="http://www.w3.org/1999/xlink">
 <defs>
  <style type="text/css">
   <![CDATA[
    .str0 {stroke:#FEFEFE;stroke-width:2.36;stroke-miterlimit:22.9256}
    .fil0 {fill:#FEFEFE}
    .fil1 {fill:#ED1D24}
    .fil2 {fill:#FEFEFE;fill-rule:nonzero}
   ]]>
  </style>
 </defs>
 <g id="Layer_x0020_1">
  <metadata id="CorelCorpID_0Corel-Layer"/>
  <g id="_1888300954176">
   <rect class="fil0 str0" width="313" height="313"/>
   <g>
    <path class="fil1" d="M0.25 156.5l0 156.25 156.25 0 156.25 0 0 -156.25 0 -156.25 -156.25 0 -156.25 0 0 156.25zm247.84 -112.63c0.97,0.69 5.13,4.1 9.19,7.54 4.06,3.4 8.03,6.59 8.81,7.03l1.38 0.81 4.31 -1.5 4.31 -1.5 0.82 1c2.21,2.66 3.68,5.12 3.46,5.81 -0.34,0.88 -2.4,1.97 -7.5,3.97l-3.87 1.53 7.87 0 7.82 0.03 0 5.91 0 5.9 -4.1 0 -4.06 0 0 31.76 0 31.71 -11.59 0 -11.6 0 0 -31.71 0 -31.76 -8.9 0 -8.88 0 -0.22 13.32c-0.18,14.68 -0.31,15.28 -2.72,17.34 -0.71,0.59 -1.59,1.25 -1.93,1.41 -0.53,0.34 -0.41,0.65 0.84,2.28 1.91,2.53 2.25,3.81 2.69,11.31 0.19,3.53 0.56,6.78 0.81,7.25 0.38,0.66 0.84,0.81 2.66,0.81l2.22 0 0.06 -1.97c0,-1.03 0.15,-4.97 0.28,-8.68 0.31,-8.32 0.28,-8.19 4.97,-8.41l3.25 -0.15 0 11.4 0 11.38 -1.88 2.09c-2.68,3 -3.18,3.09 -17.25,3.09 -13.56,0 -14.12,-0.12 -16.62,-2.78l-1.56 -1.75 -0.25 -7.06c-0.16,-3.91 -0.29,-8.91 -0.29,-11.13l0 -3.93 -3.75 0c-2.06,0 -4.18,-0.13 -4.68,-0.25 -1.29,-0.38 -1.75,-2.35 -1.75,-8.22l0 -4.97 5.5 0 5.5 0 0 -11.19 0 -11.19 -7.94 0 -7.94 0 0 31.78 0 31.78 -10.93 -0.15c-6.04,-0.06 -11.13,-0.28 -11.32,-0.47 -0.15,-0.19 -0.37,-14.44 -0.47,-31.66l-0.09 -31.28 -3.84 0 -3.82 0 -0.12 11c-0.09,8.03 -0.25,11.06 -0.63,11.47 -0.4,0.38 -3.28,0.47 -11.43,0.47 -13.94,0.06 -13.1,0.47 -13.1,-6.06l0 -4.66 -6.25 0c-6.15,0 -6.31,0 -6.59,0.88 -0.22,0.53 -0.28,10.03 -0.28,21.09l0.06 20.12 10.22 0.13 10.19 0.09 0 -9.15c0,-9.97 -0.1,-10.35 -2.22,-8.97 -1.22,0.84 -1.69,2.28 -2.03,6.28 -0.16,1.65 -0.44,3.25 -0.69,3.59 -0.31,0.35 -1.72,0.53 -4.85,0.53l-4.34 0 -0.28 -6.84c-0.19,-3.75 -0.19,-7.62 0,-8.62 0.69,-4.54 1.09,-4.66 15.62,-4.82 12.44,-0.15 13.82,0 15.5,1.78l0.97 1.07 0.13 14.34 0.12 14.31 -1.69 1.35c-0.87,0.72 -2.5,1.72 -3.56,2.18 -1.87,0.88 -2.37,0.88 -27.43,1.04l-25.47 0.15 -2.54 -1.97 -2.46 -1.97 0.12 -22.81 0.13 -22.78 1.12 -2.31c1.22,-2.53 3.38,-4.69 6.07,-6.1 1.71,-0.93 2.03,-0.93 16.12,-1.06l14.31 -0.12 0 -1.79 0 -1.84 -22.37 0 -22.38 0 0 27.06 0 27.03 1.53 0.94 1.6 0.88 0.25 6.93c0.15,3.82 0.28,9.22 0.28,12.04l0 5.12 -1.78 1.5 -1.85 1.5 -19.25 0c-20.74,0 -22,-0.13 -25.09,-2.16 -2.72,-1.81 -14.44,-15 -14.16,-15.93 0.25,-0.79 2.94,-1.85 4.57,-1.85 0.87,0 2.03,0.28 2.5,0.63 0.5,0.31 3.18,3.15 6.03,6.31l5.15 5.69 11.66 -0.03c6.44,-0.07 12.25,-0.19 12.91,-0.35 1.5,-0.31 1.56,-0.72 1.22,-7.28l-0.32 -4.97 -3.56 0 -3.53 0 -0.25 4.13c-0.13,2.28 -0.38,4.28 -0.56,4.47 -0.5,0.5 -13.32,0.97 -15.32,0.62 -1.93,-0.37 -2.06,-0.81 -2.06,-9.28 -0.06,-6 0.03,-6.87 0.69,-7.53 0.59,-0.66 1.75,-0.78 8.53,-0.94l7.81 -0.22 0 -5.25 0 -5.25 -15.25 -0.03c-16.78,-0.03 -16.69,-0.03 -19.5,-2.62 -2.03,-1.94 -2.15,-2.91 -2.34,-22.75l-0.22 -18.41 -3.22 0 -3.22 0 0 -5.91 0 -5.87 93.82 0c51.59,0 93.78,-0.09 93.78,-0.22 0,-0.13 -2,-2.44 -4.47,-5.16 -2.44,-2.75 -4.47,-5.09 -4.47,-5.25 0,-0.12 2.5,-1.4 5.59,-2.75 3.06,-1.34 9.63,-4.22 14.53,-6.37 15.97,-7.03 17.63,-7.44 21,-5l0 0 0 0z"/>
    <path class="fil1" d="M244.59 62.09c-1.53,0.66 -5.68,2.38 -9.15,3.85l-6.32 2.65 14.66 0 14.66 0 -1.82 -1.53c-3.49,-2.94 -7.96,-6.19 -8.56,-6.15 -0.34,0 -1.87,0.53 -3.47,1.18l0 0z"/>
    <polygon class="fil1" points="58.84,97.09 58.84,113.78 65.56,113.78 72.28,113.78 72.28,97.09 72.28,80.41 65.56,80.41 58.84,80.41 "/>
   </g>
   <path class="fil2" d="M73.67 259.44c2.05,-1.08 3.83,-2.25 5.36,-3.51 1.54,-1.27 2.8,-2.59 3.84,-3.94 1.03,-1.35 1.78,-2.7 2.3,-4.05 0.5,-1.35 0.75,-2.65 0.75,-3.88 0,-0.82 -0.12,-1.7 -0.34,-2.63 -0.23,-0.95 -0.61,-1.82 -1.15,-2.6 -0.53,-0.77 -1.23,-1.42 -2.08,-1.95 -0.85,-0.52 -1.88,-0.79 -3.12,-0.79 -1.26,0 -2.51,0.32 -3.71,0.97 -1.2,0.63 -2.34,1.47 -3.37,2.53 -1.05,1.05 -2,2.27 -2.85,3.62 -0.87,1.35 -1.62,2.75 -2.23,4.22l0 32.03 -12.74 0 0 -16.07 -0.1 -0.05c-0.4,0.27 -0.9,0.59 -1.55,0.95 -0.63,0.39 -1.38,0.75 -2.26,1.1 -0.89,0.37 -1.89,0.67 -3.02,0.94 -1.15,0.26 -2.4,0.38 -3.77,0.38 -2.86,0 -5.61,-0.6 -8.28,-1.83 -2.65,-1.22 -4.98,-2.87 -7.02,-4.97 -2.05,-2.1 -3.66,-4.57 -4.88,-7.4 -1.23,-2.83 -1.83,-5.85 -1.83,-9.03 0,-2.67 0.45,-5.22 1.33,-7.62 0.9,-2.42 2.18,-4.53 3.87,-6.35 1.66,-1.82 3.71,-3.27 6.11,-4.35 2.42,-1.07 5.15,-1.6 8.22,-1.6 2.17,0 4.28,0.33 6.33,1.02 2.07,0.68 4.3,1.91 6.75,3.71l0.1 -0.05 0 -10.6 -40.2 0 0 -10.98 94 0 0 10.98 -41.06 0 0 11.52 0.1 0.05c1.15,-1.03 2.31,-1.89 3.51,-2.53 1.2,-0.65 2.4,-1.16 3.57,-1.52 1.17,-0.35 2.28,-0.6 3.32,-0.73 1.05,-0.14 1.98,-0.2 2.83,-0.2 2.87,0 5.42,0.58 7.67,1.71 2.25,1.14 4.15,2.64 5.71,4.47 1.57,1.83 2.75,3.93 3.59,6.28 0.83,2.34 1.25,4.74 1.25,7.17 0,2.55 -0.45,5.03 -1.32,7.5 -0.88,2.45 -2.13,4.82 -3.77,7.05 -1.63,2.25 -3.6,4.35 -5.9,6.33 -2.31,1.97 -4.9,3.75 -7.76,5.34l-6.2 -10.64zm-19.05 -19.23c-0.65,-0.67 -1.35,-1.33 -2.1,-2.02 -0.75,-0.68 -1.57,-1.28 -2.44,-1.81 -0.88,-0.55 -1.85,-0.99 -2.88,-1.34 -1.05,-0.33 -2.18,-0.5 -3.42,-0.5 -1.5,0 -2.81,0.25 -3.95,0.79 -1.15,0.51 -2.1,1.21 -2.88,2.1 -0.78,0.86 -1.37,1.9 -1.77,3.06 -0.38,1.17 -0.58,2.42 -0.58,3.72 0,1.5 0.25,2.9 0.73,4.2 0.49,1.3 1.2,2.43 2.12,3.42 0.93,0.96 2.03,1.73 3.33,2.28 1.29,0.57 2.74,0.83 4.37,0.83 1.85,0 3.38,-0.33 4.62,-1.01 1.21,-0.69 2.18,-1.57 2.9,-2.67 0.71,-1.08 1.21,-2.3 1.51,-3.63 0.29,-1.34 0.44,-2.65 0.44,-3.95l0 -3.47zm122.76 -22.57l-10.65 0 0 61.82 -13.66 0 0 -34.52 -21.15 0c0,2.2 -0.04,4.09 -0.1,5.64 -0.05,1.55 -0.24,2.8 -0.54,3.76 -0.28,0.95 -0.75,1.65 -1.36,2.1 -0.62,0.44 -1.49,0.65 -2.59,0.65 -1.36,0 -2.71,-0.26 -4.03,-0.83 -1.32,-0.55 -2.55,-1.28 -3.7,-2.22 -1.17,-0.93 -2.22,-2 -3.18,-3.21 -0.95,-1.24 -1.79,-2.5 -2.49,-3.84 -0.7,-1.33 -1.25,-2.68 -1.63,-4.03 -0.4,-1.35 -0.6,-2.63 -0.6,-3.83 0,-1.2 0.2,-2.15 0.57,-2.85 0.38,-0.7 0.9,-1.22 1.58,-1.55 0.68,-0.32 1.52,-0.52 2.5,-0.6 0.97,-0.09 2.08,-0.14 3.32,-0.14l33.4 0 0 -16.35 -48.35 0 0 -10.98 72.66 0 0 10.98zm-22.03 -9.61l-1.42 -2.64c-1.68,-3.2 -3.16,-5.91 -4.46,-8.16 -1.29,-2.24 -2.45,-4.11 -3.52,-5.59 -1.05,-1.48 -2.02,-2.63 -2.9,-3.47 -0.88,-0.83 -1.77,-1.45 -2.67,-1.84 -0.88,-0.42 -1.83,-0.67 -2.81,-0.77 -1,-0.1 -2.12,-0.15 -3.35,-0.15l-9.97 0 0 -10.93 9.08 0c2.57,0 4.79,0.08 6.62,0.24 1.83,0.17 3.5,0.59 4.95,1.29 1.47,0.7 2.87,1.75 4.18,3.15 1.32,1.4 2.75,3.35 4.3,5.83 1.55,2.5 3.32,5.62 5.3,9.37 1.99,3.73 4.37,8.3 7.17,13.67l-10.5 0zm71.53 29.15c1.77,-0.95 3.55,-1.65 5.39,-2.1 1.81,-0.45 3.6,-0.69 5.36,-0.69 1.54,0 3.15,0.19 4.85,0.57 1.72,0.37 3.64,1.02 5.75,1.92l-2.25 11.18c-1.56,-0.72 -3,-1.23 -4.3,-1.53 -1.3,-0.32 -2.55,-0.47 -3.76,-0.47 -1.24,0 -2.42,0.15 -3.57,0.43 -1.13,0.3 -2.18,0.72 -3.17,1.29 -0.98,0.55 -1.83,1.23 -2.56,2.05 -0.74,0.8 -1.3,1.71 -1.74,2.73l0 26.9 -12.73 0 0 -16.07 -0.1 -0.05c-0.4,0.27 -0.9,0.59 -1.55,0.95 -0.63,0.39 -1.38,0.75 -2.27,1.1 -0.88,0.37 -1.88,0.67 -3.01,0.94 -1.15,0.26 -2.4,0.38 -3.77,0.38 -2.87,0 -5.62,-0.6 -8.28,-1.83 -2.65,-1.22 -4.99,-2.87 -7.02,-4.97 -2.05,-2.1 -3.67,-4.57 -4.88,-7.4 -1.24,-2.83 -1.84,-5.85 -1.84,-9.03 0,-2.67 0.45,-5.22 1.34,-7.62 0.9,-2.42 2.18,-4.53 3.86,-6.35 1.67,-1.82 3.72,-3.27 6.12,-4.35 2.42,-1.07 5.15,-1.6 8.22,-1.6 2.16,0 4.28,0.33 6.33,1.02 2.07,0.68 4.3,1.91 6.75,3.71l0.1 -0.05 0 -10.6 -40.2 0 0 -10.98 80.48 0 0 10.98 -27.55 0 0 19.54zm-12.45 3.03c-0.65,-0.67 -1.35,-1.33 -2.1,-2.02 -0.75,-0.68 -1.56,-1.28 -2.43,-1.81 -0.88,-0.55 -1.85,-0.99 -2.88,-1.34 -1.05,-0.33 -2.19,-0.5 -3.42,-0.5 -1.5,0 -2.82,0.25 -3.95,0.79 -1.15,0.51 -2.1,1.21 -2.88,2.1 -0.79,0.86 -1.37,1.9 -1.77,3.06 -0.38,1.17 -0.58,2.42 -0.58,3.72 0,1.5 0.25,2.9 0.73,4.2 0.48,1.3 1.18,2.43 2.1,3.42 0.92,0.96 2.03,1.73 3.35,2.28 1.32,0.57 2.78,0.83 4.42,0.83 1.81,0 3.33,-0.33 4.56,-1.01 1.22,-0.69 2.19,-1.57 2.9,-2.67 0.72,-1.08 1.22,-2.3 1.52,-3.63 0.28,-1.34 0.43,-2.65 0.43,-3.95l0 -3.47zm73.79 34.47c-2.97,1.85 -6.05,3.23 -9.25,4.11 -3.22,0.9 -6.54,1.35 -9.99,1.35 -4.53,0 -8.58,-0.75 -12.18,-2.25 -3.6,-1.5 -6.67,-3.53 -9.18,-6.11 -2.52,-2.6 -4.45,-5.62 -5.79,-9.07 -1.33,-3.45 -2,-7.15 -2,-11.08 0,-3.69 0.57,-6.92 1.74,-9.7 1.15,-2.79 2.76,-5.1 4.85,-6.95 2.08,-1.85 4.58,-3.25 7.46,-4.21 2.9,-0.94 6.1,-1.41 9.59,-1.41l7.26 0 0 -11.72 -38.66 0 0 -10.98 66.8 0 0 10.98 -15.39 0 0 22.65 -17.43 0c-2.05,0 -3.9,0.24 -5.55,0.69 -1.63,0.46 -3.03,1.18 -4.2,2.15 -1.15,0.98 -2.03,2.25 -2.63,3.78 -0.6,1.55 -0.9,3.42 -0.9,5.6 0,2.4 0.36,4.58 1.11,6.53 0.75,1.97 1.79,3.62 3.1,4.99 1.34,1.36 2.9,2.41 4.72,3.15 1.83,0.73 3.83,1.1 6.02,1.1 1.65,0 3.38,-0.22 5.2,-0.64 1.8,-0.41 3.6,-0.98 5.38,-1.66 1.8,-0.69 3.53,-1.45 5.23,-2.34 1.69,-0.88 3.25,-1.78 4.69,-2.68l0 13.72z"/>
  </g>
 </g>
</svg>
