<svg id="Layer_1" data-name="Layer 1" xmlns="http://www.w3.org/2000/svg" width="65" height="65" viewBox="0 0 65 65">
  <title>news</title>
  <path d="M63.67,32.0621A31.4083,31.4083,0,0,1,53.1,55.6295q-.7024.6164-1.4335,1.2042a32.8612,32.8612,0,0,1-3.9088,2.6281,31.5793,31.5793,0,0,1-30.2763.5352L7.3988,64.2976a.9609.9609,0,0,1-1.3284-.994l1.3-10.79.0955-.8028A32.7066,32.7066,0,0,1,5,48.156v-.0525l-3-8.892v-.0933c-.1136-.5107-.2176-1.0121-.3027-1.5323a27.3415,27.3415,0,0,1-.3784-2.9511c-.0567-.6337-.0946-1.2769-.104-1.93-.0095-.2081-.0095-.4256-.0095-.6432A31.5416,31.5416,0,0,1,2.804,22.1495a31.2339,31.2339,0,0,1,51.36-12.4853,30.5791,30.5791,0,0,1,3.4808,4.02A28.9663,28.9663,0,0,1,60,17.43v-.1425a31.1568,31.1568,0,0,1,3.1443,9.06c.086.4683.1625.9461.2294,1.424A30.3376,30.3376,0,0,1,63.67,32.0621Z"/>
  <polygon points="59.992 44.1 6.552 44.1 7.689 30.9 61.129 30.9 59.992 44.1" style="fill: #fff"/>
  <polygon points="47.514 32.1 5.352 32.1 6.389 18.9 48.552 18.9 47.514 32.1" style="fill: #fbca00"/>
  <text transform="matrix(0.9962, 0, -0.0872, 0.9962, 6.7705, 29.6257)" style="font-size: 9.395707130432129px;font-family: Poppins-SemiBold, Poppins;font-weight: 700">WEBSITE</text>
  <text transform="matrix(0.9962, 0, -0.0872, 0.9962, 8.142, 40.7823)" style="font-size: 9.395707130432129px;font-family: Poppins-SemiBold, Poppins;font-weight: 700">ASSISTANT</text>
  <rect x="35" y="46" width="15" height="1" rx="0.5" ry="0.5" style="fill: #fff"/>
  <rect x="28" y="46" width="5" height="1" rx="0.5" ry="0.5" style="fill: #fff"/>
</svg>
