<svg id="Layer_1" data-name="Layer 1" xmlns="http://www.w3.org/2000/svg" width="65" height="65" viewBox="0 0 65 65">
  <title>news</title>
  <path d="M32.5,63.5h0a31,31,0,0,1-31-31h0a31,31,0,0,1,31-31h28a3,3,0,0,1,3,3v28A31,31,0,0,1,32.5,63.5Z" style="fill: #218dd8"/>
  <g>
    <polygon points="56.44 43.927 11.294 43.927 12.456 30.649 57.602 30.649 56.44 43.927" style="opacity: 0.30000000000000004"/>
    <polygon points="55.078 42.565 9.932 42.565 11.094 29.287 56.24 29.287 55.078 42.565"/>
    <polygon points="51.251 32.419 8.76 32.419 9.922 19.141 52.412 19.141 51.251 32.419" style="opacity: 0.30000000000000004"/>
    <polygon points="49.889 31.057 7.398 31.057 8.56 17.779 51.05 17.779 49.889 31.057" style="fill: #fff"/>
    <g>
      <path d="M15.373,33.06H24.58l-.1006,1.1465H23.29l-.5874,6.7158H21.3433l.2964-3.39h-4.333l-.1079,1.2324c-.0537.6162.1816,1.084.7979,1.084a.9738.9738,0,0,0,.9673-.9883l.0122-.1387h1.3174a1.7,1.7,0,0,1-.0073.2031,2.198,2.198,0,0,1-2.3711,2.0918,1.9351,1.9351,0,0,1-2.07-2.3154l.1875-2.1465h.86a1.5617,1.5617,0,0,0,1.7705-1.541l.0708-.8076H15.2725Zm4.1553,3.3564h2.209l.1934-2.21H20.0938l-.0708.8076A2.8116,2.8116,0,0,1,19.5283,36.416Z" style="fill: #fff"/>
      <path d="M26.82,42.0791a2.116,2.116,0,0,1-2.3477-2.4219,2.4276,2.4276,0,0,1,1.1987-1.9238,1.2226,1.2226,0,0,1-.667-1.2422c.0757-.86.7881-1.3594,1.8291-1.3594h1.0615l.0811-.9258H24.0361l.1006-1.1465h6.6582l-.1006,1.1465H29.2822l-.1675,1.9131h-1.88c-.4463,0-.8525.1592-.8945.6377a.5955.5955,0,0,0,.3813.6162,2.94,2.94,0,0,1,.5352-.043c1.5391,0,2.2178.8613,2.2661,1.8926H28.2056a.985.985,0,0,0-1.0659-.7979,1.3059,1.3059,0,0,0-1.332,1.2646,1.053,1.053,0,0,0,1.1118,1.2539,1.2563,1.2563,0,0,0,1.2036-.7754H29.44A2.5015,2.5015,0,0,1,26.82,42.0791Z" style="fill: #fff"/>
      <path d="M31.4395,34.2061H30.2607l.1006-1.1465h3.7275l-.1006,1.1465H32.81l-.5874,6.7158h-1.37Z" style="fill: #fff"/>
      <path d="M33.6436,33.06h8.4l-.1006,1.1465H40.7646l-.5879,6.7158h-1.37l.167-1.9023a2.8409,2.8409,0,0,1-2.2148.9141c-1.8369,0-2.7529-1.18-2.5947-2.9971a5.8837,5.8837,0,0,1,.0947-.5937h.1279c1.1992,0,1.7324-.5107,1.8252-1.5625l.05-.5742H33.543Zm5.5088,3.9092.2422-2.7627H37.6211l-.0713.8184a2.0356,2.0356,0,0,1-2.0381,2.0508,1.47,1.47,0,0,0,1.6338,1.7109A1.94,1.94,0,0,0,39.1523,36.9688Z" style="fill: #fff"/>
      <path d="M45.8828,39.2012a2.1082,2.1082,0,0,1-1.8311.9023,2.0139,2.0139,0,0,1-2.0029-2.4756,2.48,2.48,0,0,1,2.4883-2.4658,1.7164,1.7164,0,0,1,1.624.8613l.1592-1.8174H41.499L41.6,33.06H52.4L52.3,34.2061H47.6367l-.1611,1.8389a2.0432,2.0432,0,0,1,3.6875,1.5508,2.4106,2.4106,0,0,1-2.41,2.4229,2.9431,2.9431,0,0,1-.6934-.0742l.0947-1.084a1.0648,1.0648,0,0,0,.3252.043,1.2861,1.2861,0,0,0,1.29-1.2754,1.0827,1.0827,0,0,0-1.0977-1.2852,1.3708,1.3708,0,0,0-1.3428,1.3809l-.28,3.1982H45.7324Zm.1367-1.5625a1.1212,1.1212,0,0,0-1.17-1.3066,1.3916,1.3916,0,0,0-1.4111,1.3066,1.1183,1.1183,0,0,0,1.17,1.3174A1.41,1.41,0,0,0,46.02,37.6387Z" style="fill: #fff"/>
    </g>
    <g>
      <path d="M10.3027,20.0112H19.51l-.1006,1.147H18.22l-.5874,6.7158H16.2729l.2964-3.39h-4.333l-.1079,1.2329c-.0537.6157.1816,1.0835.7979,1.0835a.9741.9741,0,0,0,.9673-.9883l.0122-.1382h1.3174a1.6814,1.6814,0,0,1-.0073.2021,2.1984,2.1984,0,0,1-2.37,2.0928,1.9362,1.9362,0,0,1-2.0713-2.3164l.188-2.146h.86a1.5614,1.5614,0,0,0,1.7705-1.541l.0708-.8076H10.2021Zm4.1553,3.3574h2.209l.1934-2.21H15.0234l-.0708.8076A2.8246,2.8246,0,0,1,14.458,23.3687Z"/>
      <path d="M19.0664,20.0112h9.165l-.1006,1.147H26.9521l-.5874,6.7158H24.9839l.33-3.772H23.73l-.0547.6265a2.26,2.26,0,0,1-2.36,2.3379,1.8116,1.8116,0,0,1-2.0078-2.0508,2.2209,2.2209,0,0,1,2.439-2.0293h.8076l.16-1.8281h-3.749Zm3.33,4.7925.061-.7017h-.7656a1.0049,1.0049,0,0,0-1.1079.9028.7688.7688,0,0,0,.8125.9028C21.9692,25.9077,22.3374,25.4731,22.396,24.8037Zm3.1753-3.6455h-1.583l-.16,1.8281h1.583Z"/>
      <path d="M28.876,21.1582H27.6973l.1006-1.147h3.7275l-.1006,1.147H30.2461l-.5874,6.7158h-1.37Z"/>
      <path d="M31.08,20.0112h8.3682l-.1006,1.147H38.1689l-.5879,6.7158h-1.37l.1641-1.87a2.4891,2.4891,0,0,1-2.0029.9243,1.8376,1.8376,0,0,1-2.0288-2.0615,1.917,1.917,0,0,1,.7817-1.4126H31.5322l.0952-1.0845h3.897L35.43,23.4541h-.4141a1.2865,1.2865,0,0,0-1.3574,1.1792c-.0654.7539.4951,1.1577,1.2168,1.1577a1.751,1.751,0,0,0,1.6719-1.7529l.252-2.88H30.9795Z"/>
      <path d="M40.083,21.1582H38.9043l.1006-1.147h3.7275l-.1006,1.147H41.4531l-.5879,6.7158h-1.37Z"/>
      <path d="M42.2871,20.0112h6.0957l-.1006,1.147h-1.041l-.0645.7339c-.1367,1.562-.89,2.646-2.7266,2.646h-.2344l-.1045,1.2007c-.0537.605.1719,1.062.7666,1.062a.9623.9623,0,0,0,.9365-.9883l.0234-.2656h1.3174a2.0975,2.0975,0,0,1-.01.2227,2.237,2.237,0,0,1-2.3477,2.2,1.909,1.909,0,0,1-2.041-2.2949l.1973-2.252h1.0938a1.5194,1.5194,0,0,0,1.7588-1.53l.0645-.7339H42.1865Z"/>
    </g>
    <rect x="32.851" y="46.7885" width="11.232" height="0.4212" rx="0.15" ry="0.15" style="fill: #fff;stroke: #fff;stroke-miterlimit: 10;stroke-width: 0.48635982070100015px"/>
    <rect x="46.657" y="46.7885" width="4.446" height="0.4212" rx="0.15" ry="0.15" style="fill: #fff;stroke: #fff;stroke-miterlimit: 10;stroke-width: 0.3950374461781574px"/>
  </g>
</svg>
