<svg id="Layer_1" data-name="Layer 1" xmlns="http://www.w3.org/2000/svg" width="65" height="65" viewBox="0 0 65 65">
  <title>news</title>
  <path d="M63.85,32.115A31.22128,31.22128,0,0,1,53.343,55.542q-.69824.61274-1.425,1.197a32.66553,32.66553,0,0,1-3.88553,2.6125,31.39123,31.39123,0,0,1-30.096.532L7.914,64.1585a.95521.95521,0,0,1-1.32051-.988L7.88553,52.445l.095-.798a32.51184,32.51184,0,0,1-2.451-3.534v-.00951a31.23982,31.23982,0,0,1-3.58146-8.892V39.202c-.11405-.513-.21854-1.01651-.304-1.539a27.46125,27.46125,0,0,1-.38-2.964c-.057-.63648-.095-1.28253-.10449-1.938C1.15,32.552,1.15,32.3335,1.15,32.115a31.67975,31.67975,0,0,1,1.6055-9.956,31.37063,31.37063,0,0,1,51.585-12.54,30.713,30.713,0,0,1,3.496,4.0375,29.0931,29.0931,0,0,1,2.36549,3.762V17.428a30.97124,30.97124,0,0,1,3.12554,9.006c.08547.46549.16148.94049.228,1.41549A30.157,30.157,0,0,1,63.85,32.115Z" style="fill: #296fd3"/>
  <polygon points="59.772 42.483 7.825 42.483 9.054 28.443 61 28.443 59.772 42.483" style="fill: #fff"/>
  <polygon points="43.907 31.251 6 31.251 7.105 18.615 45.012 18.615 43.907 31.251"/>
  <g>
    <path d="M8.55469,22.30371H9.81836l.63623,4.56445,1.59521-4.56445h1.31445l.731,4.53906,1.44189-4.53906h1.27148l-2.15674,5.87793H13.26221l-.7373-4.18506-1.51953,4.18506L9.623,28.19043Z" style="fill: #fff"/>
    <path d="M20.9043,23.25488H18.67285L18.54395,24.729h1.97852l-.082.93506H18.46191l-.13623,1.55713h2.23145l-.084.96045H17.062l.51514-5.88672h3.41113Z" style="fill: #fff"/>
    <path d="M24.07861,28.18164H21.54346l.51416-5.87793H24.4834c1.22949,0,1.85645.64014,1.77979,1.51563a1.51318,1.51318,0,0,1-1.11963,1.34717,1.2826,1.2826,0,0,1,1.01172,1.42334A1.84826,1.84826,0,0,1,24.07861,28.18164Zm.0293-2.543H22.9458l-.13867,1.58252h1.1875c.57227,0,.93359-.27686.97705-.77441C25.01611,25.94092,24.68018,25.63867,24.10791,25.63867Zm.12451-2.38379H23.1543L23.02539,24.729h1.07813c.55566,0,.89795-.25293.93994-.73242C25.085,23.52441,24.78809,23.25488,24.23242,23.25488Z" style="fill: #fff"/>
    <path d="M28.98486,28.24072c-1.22168,0-2.10937-.64014-2.02832-1.752h1.26367a.72891.72891,0,0,0,.82373.7832.8407.8407,0,0,0,.94727-.71582c.11133-1.272-2.98877-.50537-2.79346-2.63574a1.99313,1.99313,0,0,1,2.22119-1.70166c1.2041,0,1.97656.61523,1.9585,1.67627H30.08057a.69938.69938,0,0,0-.78174-.69824.75269.75269,0,0,0-.86865.68945c-.103,1.1792,2.96973.52246,2.78857,2.59375A2.05679,2.05679,0,0,1,28.98486,28.24072Z" style="fill: #fff"/>
    <path d="M32.60352,22.30371H33.7832l-.51367,5.87793H32.08936Z" style="fill: #fff"/>
    <path d="M34.63379,22.30371h4.3125l-.083.95117H37.29688l-.43066,4.92676H35.68652l.43066-4.92676H34.55078Z" style="fill: #fff"/>
    <path d="M43.13379,23.25488H40.90234L40.77344,24.729h1.97949l-.082.93506H40.69141l-.13574,1.55713h2.23145l-.084.96045H39.292l.51465-5.88672h3.41113Z" style="fill: #fff"/>
  </g>
  <g>
    <path d="M16.53174,38.2627h-2.3418l-.48584,1.12012H12.46582l2.62939-5.88672h1.373l1.59912,5.88672H16.82031Zm-.87354-3.40137-1.06543,2.458h1.70117Z"/>
    <path d="M20.88477,39.44238c-1.22168,0-2.10937-.64062-2.02832-1.752h1.26367a.72891.72891,0,0,0,.82373.7832.84047.84047,0,0,0,.94678-.7168c.11084-1.27148-2.9873-.50488-2.793-2.63477a1.99347,1.99347,0,0,1,2.22119-1.70215c1.2041,0,1.9751.61523,1.9585,1.67676H21.98047a.69913.69913,0,0,0-.78174-.69824.75269.75269,0,0,0-.86865.68945c-.103,1.17871,2.96973.52246,2.78857,2.59375A2.05715,2.05715,0,0,1,20.88477,39.44238Z"/>
    <path d="M26.01465,39.44238c-1.22168,0-2.10937-.64062-2.02832-1.752H25.25a.72891.72891,0,0,0,.82373.7832.84147.84147,0,0,0,.94775-.7168c.11084-1.27148-2.98926-.50488-2.79395-2.63477a1.99347,1.99347,0,0,1,2.22119-1.70215c1.2041,0,1.97607.61523,1.9585,1.67676H27.11035a.69913.69913,0,0,0-.78174-.69824.75269.75269,0,0,0-.86865.68945c-.103,1.17871,2.96973.52246,2.78857,2.59375A2.05715,2.05715,0,0,1,26.01465,39.44238Z"/>
    <path d="M29.63379,33.50488h1.17969l-.51465,5.87793H29.11914Z"/>
    <path d="M33.48633,39.44238c-1.22168,0-2.10937-.64062-2.02832-1.752h1.26367a.72907.72907,0,0,0,.82422.7832.84.84,0,0,0,.94629-.7168c.11133-1.27148-2.9873-.50488-2.793-2.63477a1.99327,1.99327,0,0,1,2.2207-1.70215c1.2041,0,1.97559.61523,1.959,1.67676H34.582a.699.699,0,0,0-.78125-.69824.75264.75264,0,0,0-.86914.68945c-.103,1.17871,2.96973.52246,2.78906,2.59375A2.05831,2.05831,0,0,1,33.48633,39.44238Z"/>
    <path d="M36.79395,33.50488h4.3125l-.083.95117H39.457l-.43164,4.92676H37.8457l.43164-4.92676H36.71094Z"/>
    <path d="M45.15527,38.2627h-2.3418l-.48535,1.12012H41.08984l2.62891-5.88672h1.373l1.59961,5.88672H45.44434Zm-.873-3.40137-1.06543,2.458H44.918Z"/>
    <path d="M53.02734,33.49609l-.51562,5.88672H51.333l-2.31738-4.0332-.35254,4.0332H47.4834l.51465-5.88672h1.17969l2.31641,4.042.35352-4.042Z"/>
    <path d="M53.87793,33.50488h4.3125l-.083.95117H56.541l-.43164,4.92676H54.92969l.43164-4.92676H53.79492Z"/>
  </g>
  <line x1="31.62915" y1="46" x2="46.37085" y2="46" style="fill: none;stroke: #fff;stroke-linecap: round;stroke-miterlimit: 10;stroke-width: 1.1083656985545878px"/>
  <line x1="49" y1="46" x2="53" y2="46" style="fill: none;stroke: #fff;stroke-linecap: round;stroke-miterlimit: 10"/>
</svg>
