<svg id="Layer_1" data-name="Layer 1" xmlns="http://www.w3.org/2000/svg" width="65" height="65" viewBox="0 0 65 65">
  <title>news</title>
  <path d="M63.67,32A31.41,31.41,0,0,1,53.1,55.52q-.7.62-1.43,1.2a32.86,32.86,0,0,1-3.91,2.63,31.58,31.58,0,0,1-30.28.54L7.4,64.19a1,1,0,0,1-1.33-1L7.37,52.4l.1-.8A32.71,32.71,0,0,1,5,48V48L2,39.1V39c-.11-.51-.22-1-.3-1.53a27.34,27.34,0,0,1-.38-3c-.06-.63-.09-1.28-.1-1.93,0-.21,0-.43,0-.64A31.54,31.54,0,0,1,2.8,22,31.23,31.23,0,0,1,54.16,9.55a30.58,30.58,0,0,1,3.48,4A29,29,0,0,1,60,17.32v-.14a31.16,31.16,0,0,1,3.14,9.06c.09.47.16.95.23,1.42A30.34,30.34,0,0,1,63.67,32Z"/>
  <polygon points="55.13 41 12.13 41 13.09 30 56.09 30 55.13 41" style="fill: #fff"/>
  <polygon points="42.91 32 8.91 32 9.88 21 43.88 21 42.91 32" style="fill: #f5a619"/>
  <text transform="matrix(1, 0, -0.09, 1, 10.47, 29.1)" style="font-size: 7.528648853302002px;font-family: Poppins-SemiBold, Poppins;font-weight: 700">WEBSITE</text>
  <text transform="matrix(1, 0, -0.09, 1, 13.51, 38.48)" style="font-size: 7.528648853302002px;font-family: Poppins-SemiBold, Poppins;font-weight: 700">ASSISTANT</text>
  <rect x="30" y="43" width="23" height="1" rx="0.35" ry="0.35" style="fill: #fff"/>
</svg>
