<svg id="Layer_1" data-name="Layer 1" xmlns="http://www.w3.org/2000/svg" width="50" height="50" viewBox="0 0 50 50">
  <title>img1</title>
  <circle cx="25" cy="25" r="24" style="fill: #f4c225"/>
  <path d="M25.1709,12.58984c4.76074,0,8.08594,2.69531,8.08594,7.42041,0,4.72559-3.39551,7.03662-8.05078,7.03662l-.14014,2.69434H20.76074l-.17529-5.9502h1.5752c3.64063,0,6.37061-.665,6.33545-3.81543a3.06191,3.06191,0,0,0-3.3252-3.29053,3.0661,3.0661,0,0,0-3.395,3.29053H17.15527C17.08545,15.74023,20.06055,12.58984,25.1709,12.58984ZM22.896,38.10742a2.87516,2.87516,0,1,1,0-5.74023,2.872,2.872,0,1,1,0,5.74023Z" style="fill: #fff"/>
</svg>
