<svg id="Layer_1" data-name="Layer 1" xmlns="http://www.w3.org/2000/svg" width="65" height="65" viewBox="0 0 65 65">
  <title>news</title>
  <path d="M60.92611,33.55437a28.56436,28.56436,0,0,1-10.74218,18.625l-.858.64447a26.5376,26.5376,0,0,1-5.58644,3.16588,13.84477,13.84477,0,0,0-1.45737.70961L29.52924,63.98292a1.02842,1.02842,0,0,1-1.42988-1.353l2.218-4.43593c-.59238-.03421-1.18475-.10255-1.78846-.1823A28.70316,28.70316,0,1,1,60.92611,33.55437Z" style="fill: #085e5e"/>
  <path d="M14.70252,28.46222H50a4,4,0,0,1,4,4v13.2685a0,0,0,0,1,0,0H18.70252a4,4,0,0,1-4-4V28.46222A0,0,0,0,1,14.70252,28.46222Z" style="fill: #fff"/>
  <path d="M10.26921,15.03116H39.77215a3,3,0,0,1,3,3v14.2685a0,0,0,0,1,0,0H14.26921a4,4,0,0,1-4-4V15.03116a0,0,0,0,1,0,0Z"/>
  <g>
    <path d="M18.5459,23.48535l.584,1.13916a3.24593,3.24593,0,0,1,.41113,1.603v.92822a3.92533,3.92533,0,0,1-1.03613,2.3457,1.93732,1.93732,0,0,1-1.35693.76807,4.73444,4.73444,0,0,1-2.11377-.6499l.09033-.28662a2.8348,2.8348,0,0,0,.91309.15186,3.56911,3.56911,0,0,0,2.88672-2.27832.92928.92928,0,0,0,.09033-.37109,1.49362,1.49362,0,0,0-.11523-.44727,13.43548,13.43548,0,0,0-.98682-1.85645c.18945-.36279.37842-.709.584-1.05469Z" style="fill: #fff;stroke: #fff;stroke-miterlimit: 10;stroke-width: 0.3789769411087036px"/>
    <path d="M23.15918,27.83936h-.09033a1.78734,1.78734,0,0,1-1.40674-.481c-.50146-.52295-.50977-1.12207-.50977-2.36279,0-1.603-.09033-3.28223-.21387-5.07129a7.54354,7.54354,0,0,1,.77344-.78467l.05713.03369c.13184,1.84814.13184,4.03369.13184,6.10938v.481a.8785.8785,0,0,0,.6167.90283,1.6301,1.6301,0,0,0,.52637.09277h.11523Z" style="fill: #fff;stroke: #fff;stroke-miterlimit: 10;stroke-width: 0.3789769411087036px"/>
    <path d="M23.34033,26.75928c.6333,0,1.291-.26172,1.41455-.74268l.23828-.91113.56738-.42187.04932.05908a4.65016,4.65016,0,0,0-.18066.97852.8491.8491,0,0,0,.27148.70068,1.50884,1.50884,0,0,0,1.01953.3374h.14844v1.08008H26.6792a1.64418,1.64418,0,0,1-1.69434-.86084h-.03271a1.75772,1.75772,0,0,1-1.63672.86084h-.15625a.53566.53566,0,0,1-.57568-.56543.51741.51741,0,0,1,.57568-.51465Zm1.51318,2.6748a7.56028,7.56028,0,0,1,.98682.90283,3.39332,3.39332,0,0,1-.68262.82715c-.3208-.3125-.6416-.58252-.9707-.86914C24.40918,29.99121,24.63135,29.6958,24.85352,29.43408Z" style="fill: #fff;stroke: #fff;stroke-miterlimit: 10;stroke-width: 0.3789769411087036px"/>
    <path d="M27.36914,26.75928a8.35527,8.35527,0,0,0,4.39209-1.52734l.0083-.03369a7.56852,7.56852,0,0,0-2.58252-.59082,1.30121,1.30121,0,0,0-1.04443.42188l.09863.42188-.24658.75977h-.08252l-.40283-1.11377a1.642,1.642,0,0,1,1.78467-1.519,7.78041,7.78041,0,0,1,2.69775.73389,3.9756,3.9756,0,0,0,1.40576.27l.667-.0083.02441.01709-.43555.88574a2.49861,2.49861,0,0,0-1.42334.3125l-1.37354.91943a6.30734,6.30734,0,0,1-3.561,1.13086h-.42773a.53566.53566,0,0,1-.57568-.56543.51741.51741,0,0,1,.57568-.51465Zm2.34424-6.10059a7.46138,7.46138,0,0,1,.98682.90283,3.38,3.38,0,0,1-.68262.82666c-.3208-.312-.6416-.582-.97021-.86914C29.269,21.21533,29.49121,20.91992,29.71338,20.65869Z" style="fill: #fff;stroke: #fff;stroke-miterlimit: 10;stroke-width: 0.3789769411087036px"/>
    <path d="M36.9834,18.00049a4.19294,4.19294,0,0,1-.32129.57373,8.29717,8.29717,0,0,0-2.13867.63281l-.01562-.02539.19727-.354a1.0159,1.0159,0,0,1,.37793-.27881v-.02539a.78328.78328,0,0,1-.6416-.73389,1.153,1.153,0,0,1,.38672-.74268,1.548,1.548,0,0,1,.99512-.481c.3291,0,.51855.19434.51855.41357a.88153.88153,0,0,1-.26367.54834h-.0166c-.08984-.18555-.17285-.30371-.2627-.3291a1.05574,1.05574,0,0,0-.25488-.0249c-.28809,0-.57617.16846-.57617.29492,0,.40527.69141.54,1.17676.54.2793,0,.55859-.0166.83887-.03369Zm-1.53027,9.98242a11.44959,11.44959,0,0,0,.09082-1.6875v-.82715c0-1.54443-.165-3.78857-.2959-5.24854a7.56169,7.56169,0,0,1,.80566-.89453l.07422.02539c.17285,1.83936.21387,3.97461.21387,5.94043a13.72058,13.72058,0,0,1-.05762,1.39209,2.20885,2.20885,0,0,1-.72363,1.35889Z" style="fill: #fff;stroke: #fff;stroke-miterlimit: 10;stroke-width: 0.3789769411087036px"/>
  </g>
  <path d="M14.04976,32.29966a3.82935,3.82935,0,0,1-3.78055-3.87634V15.03116H39.93674a2.872,2.872,0,0,1,2.83541,2.90726Z" style="fill: #fff;opacity: 0.1"/>
  <path d="M33,48H43a0,0,0,0,1,0,0v0a1,1,0,0,1-1,1H32a0,0,0,0,1,0,0v0A1,1,0,0,1,33,48Z" style="fill: #fff"/>
  <path d="M46,48h3a0,0,0,0,1,0,0v0a1,1,0,0,1-1,1H45a0,0,0,0,1,0,0v0A1,1,0,0,1,46,48Z" style="fill: #fff"/>
  <g>
    <path d="M27.40186,43.34668h-.15625a1.63719,1.63719,0,0,1-1.67773-1.375h-.0415a1.19838,1.19838,0,0,1-.5918.80957,3.2129,3.2129,0,0,1-1.65332.56543c-.92139,0-1.43115-.57422-1.43115-1.56152,0-.21094.0083-.41309.0249-.624l.3208-.02539a1.04208,1.04208,0,0,0,1.15967,1.13086,2.88361,2.88361,0,0,0,1.34033-.42187c.3042-.17676.53467-.43066.53467-.63281a16.984,16.984,0,0,0-.68262-3.13867,10.33789,10.33789,0,0,1,.584-.86914l.04932.0332c.3042,1.21484.55908,2.51465.78125,3.75488a1.35757,1.35757,0,0,0,1.29932,1.27441h.14014Z" style="stroke: #000;stroke-miterlimit: 10;stroke-width: 0.3789769411087036px"/>
    <path d="M27.91895,42.2666a4.51724,4.51724,0,0,0,1.21729-.17676v-.043a1.94146,1.94146,0,0,1-.9624-1.65332,2.20733,2.20733,0,0,1,.354-1.10547A2.03036,2.03036,0,0,1,30.23,38.15723a2.11258,2.11258,0,0,1,1.82617,1.375l-.15625.16895a2.04088,2.04088,0,0,0-1.47217-.54c-.87207,0-1.50537.41406-1.50537.709a1.59723,1.59723,0,0,0,.70752,1.19824,2.04716,2.04716,0,0,0,.99512.45605,8.08467,8.08467,0,0,0,2.35205-.59961l.0415.042-.436,1.04688c-1.2915.47266-1.9165.54-2.91992.877a6.46381,6.46381,0,0,1-2.00684.45605h-.25488a.53589.53589,0,0,1-.57568-.56543.51765.51765,0,0,1,.57568-.51465Z" style="stroke: #000;stroke-miterlimit: 10;stroke-width: 0.3789769411087036px"/>
    <path d="M36.373,43.34668h-.09082a1.78425,1.78425,0,0,1-1.40625-.48145c-.501-.52246-.50977-1.12207-.50977-2.3623,0-1.60352-.09082-3.28223-.21387-5.07129a7.39112,7.39112,0,0,1,.77344-.78418l.05762.0332c.13086,1.84766.13086,4.0332.13086,6.10938v.48047a.88.88,0,0,0,.61719.90332,1.62069,1.62069,0,0,0,.52637.09277H36.373Z" style="stroke: #000;stroke-miterlimit: 10;stroke-width: 0.3789769411087036px"/>
    <path d="M44.79492,43.34668h-.20605c-1.01953,0-1.48828-.32031-1.69336-.793h-.0498a1.83312,1.83312,0,0,1-1.40625.793.82121.82121,0,0,1-.89648-.7002h-.0332a1.85048,1.85048,0,0,1-1.42285.7002.71229.71229,0,0,1-.78906-.7168h-.0332a2.1732,2.1732,0,0,1-1.752.7168H36.373a.53631.53631,0,0,1-.57617-.56543.51811.51811,0,0,1,.57617-.51465h.2793a1.96915,1.96915,0,0,0,1.73535-.78516l.41113-.6582.63379-.22754.0332.042a3.42692,3.42692,0,0,0-.53516,1.207.41105.41105,0,0,0,.44434.42188,1.17773,1.17773,0,0,0,.71582-.25293,1.879,1.879,0,0,0,.53418-.74316l.19727-.49707.625-.2959.0332.03418a3.56026,3.56026,0,0,0-.33691,1.26563.45822.45822,0,0,0,.46.48926.94793.94793,0,0,0,.56738-.18555,1.33815,1.33815,0,0,0,.47754-.81055c.0332-.13477.082-.29492.16406-.666l.625-.43066.0332.02539a4.86643,4.86643,0,0,0-.20508,1.15625c0,.666.56738.91113,1.34863.91113h.18066Z" style="stroke: #000;stroke-miterlimit: 10;stroke-width: 0.3789769411087036px"/>
    <path d="M44.97461,42.2666c.60938,0,1.08594-.43066,1.38184-1.49316a2.5986,2.5986,0,0,1,.6084-1.02148A1.52384,1.52384,0,0,1,48.002,39.2627c1.00293,0,1.59473,1.418,1.72656,2.89453-.17285.76758-.47656,1.08789-.87207,1.08789A4.16169,4.16169,0,0,1,46.41406,42.25h-.05762a1.35347,1.35347,0,0,1-1.42285,1.09668h-.13965a.53631.53631,0,0,1-.57617-.56543.51811.51811,0,0,1,.57617-.51465Zm2.87891-.33789a2.52449,2.52449,0,0,0,.97852.24512c.123,0,.23047-.0166.26367-.09277-.23926-1.27441-.78125-1.83984-1.2998-1.83984a1.18959,1.18959,0,0,0-1.10254.82715A2.51031,2.51031,0,0,0,47.85352,41.92871Z" style="stroke: #000;stroke-miterlimit: 10;stroke-width: 0.3789769411087036px"/>
  </g>
</svg>
