<svg id="Layer_1" data-name="Layer 1" xmlns="http://www.w3.org/2000/svg" width="65" height="65" viewBox="0 0 65 65">
  <title>logo</title>
  <path d="M63.85,32.115A31.2213,31.2213,0,0,1,53.343,55.542q-.6982.6127-1.425,1.197a32.6655,32.6655,0,0,1-3.8855,2.6125,31.3912,31.3912,0,0,1-30.096.532L7.914,64.1585a.9552.9552,0,0,1-1.3205-.988L7.8855,52.445l.095-.798a32.5118,32.5118,0,0,1-2.451-3.534v-.01a31.24,31.24,0,0,1-3.5815-8.892v-.01c-.1141-.513-.2185-1.0165-.304-1.539a27.4613,27.4613,0,0,1-.38-2.964c-.057-.6365-.095-1.2825-.1045-1.938-.01-.209-.01-.4275-.01-.646a31.68,31.68,0,0,1,1.6055-9.956A31.3706,31.3706,0,0,1,54.34,9.619a30.713,30.713,0,0,1,3.496,4.0375,29.0931,29.0931,0,0,1,2.3655,3.762v.01a30.9712,30.9712,0,0,1,3.1255,9.006c.0855.4655.1615.94.228,1.4155A30.157,30.157,0,0,1,63.85,32.115Z" style="fill: #233785"/>
  <g>
    <path d="M14.5,42.168c-.54,0-1.44.0293-2.07.09-.42.0293-.84.06-.99.06-1.32,0-2.22-.6592-2.22-1.6494,0-.69.33-1.0508,1.17-1.26.78-.2109.96-.48,1.11-1.74.15-1.5.3-6.42.3-10.62,0-1.65-.15-1.95-1.08-2.31a1.3523,1.3523,0,0,1-1.02-1.29c0-.96.99-1.53,2.64-1.53.24,0,.6,0,.96.03.84.03,1.35.03,1.8.03,1.68,0,2.67-.03,4.74-.12.42-.03.84-.03,1.41-.03,3.36,0,5.58.57,7.38,1.95,2.34,1.8,3.57,4.65,3.57,8.31,0,6.1191-4.11,10.3789-10.2295,10.2295l-6.42-.1494Zm5.85-2.8506c2.85,0,4.29-2.19,4.29-6.5093a13.1235,13.1235,0,0,0-.99-5.55,3.7693,3.7693,0,0,0-3.72-2.19c-.93,0-1.29.33-1.29,1.2V37.6074C18.64,38.8379,19.12,39.3174,20.35,39.3174Z" style="fill: #fff;stroke: #000;stroke-miterlimit: 10;stroke-width: 0.5px"/>
    <path d="M34.209,39.2578c1.2012-.8105,1.23-1.11,1.23-10.47,0-2.7-.21-3.39-1.08-3.84-.84-.42-1.08-.69-1.08-1.26,0-.69.6-1.29,1.59-1.53a6.7715,6.7715,0,0,1,1.74-.15c.42,0,.42,0,2.4.15.3.03.6895.03,1.17.03.81,0,1.9795-.09,3.51-.18.75-.06,1.65-.09,1.9492-.09,4.26,0,7.02,2.07,7.02,5.28a4.5788,4.5788,0,0,1-2.3994,4.14c-.39.18-.4795.3-.4795.57,0,.3.18.45.72.66,2.13.9,2.9092,2.19,3.27,5.1294.1807,1.35.36,1.5,1.53,1.83a1.0368,1.0368,0,0,1,.66.99c0,1.38-1.77,2.22-4.62,2.22a4.935,4.935,0,0,1-4.0791-1.53c-.7207-.8691-1.1709-2.01-1.8613-4.8887-.4492-1.86-1.1094-2.58-2.34-2.58-.75,0-.8691.27-.8691,1.83a19.0949,19.0949,0,0,0,.24,3c.09.3887.209.5391.7793.84a1.4722,1.4722,0,0,1,.87,1.2891c0,1.29-1.47,1.77-5.37,1.77-3.6289,0-5.3994-.6592-5.3994-2.0391C33.31,39.9473,33.459,39.7676,34.209,39.2578Zm7.83-9.45c0,.72.15.9.78.9,1.71,0,2.46-.87,2.46-2.79,0-1.89-.66-2.85-2.01-2.85-.75,0-1.0508.3-1.08,1.2l-.15,3.42Z" style="fill: #fff;stroke: #000;stroke-miterlimit: 10;stroke-width: 0.5px"/>
  </g>
</svg>
