<svg id="Layer_1" data-name="Layer 1" xmlns="http://www.w3.org/2000/svg" width="65" height="65" viewBox="0 0 65 65">
  <title>news</title>
  <path d="M63.85,32.115A31.2213,31.2213,0,0,1,53.343,55.542q-.6982.6127-1.425,1.197a32.6655,32.6655,0,0,1-3.8855,2.6125,31.3912,31.3912,0,0,1-30.096.532L7.914,64.1585a.9552.9552,0,0,1-1.3205-.988L7.8855,52.445l.095-.798a32.5118,32.5118,0,0,1-2.451-3.534v-.01a31.24,31.24,0,0,1-3.5815-8.892v-.01c-.1141-.513-.2185-1.0165-.304-1.539a27.4613,27.4613,0,0,1-.38-2.964c-.057-.6365-.095-1.2825-.1045-1.938-.01-.209-.01-.4275-.01-.646a31.68,31.68,0,0,1,1.6055-9.956A31.3706,31.3706,0,0,1,54.34,9.619a30.713,30.713,0,0,1,3.496,4.0375,29.0931,29.0931,0,0,1,2.3655,3.762v.01a30.9712,30.9712,0,0,1,3.1255,9.006c.0855.4655.1615.94.228,1.4155A30.157,30.157,0,0,1,63.85,32.115Z" style="fill: #233785"/>
  <polygon points="57.098 46.1 12.698 46.1 13.538 36.5 57.938 36.5 57.098 46.1" style="opacity: 0.3"/>
  <polygon points="44.738 36.5 8.738 36.5 9.892 23.3 45.892 23.3 44.738 36.5" style="opacity: 0.3"/>
  <polygon points="54.908 43.7 11.708 43.7 12.757 31.7 55.957 31.7 54.908 43.7" style="fill: #fff"/>
  <polygon points="43.748 34.1 7.748 34.1 8.902 20.9 44.902 20.9 43.748 34.1"/>
  <text transform="matrix(0.9962, 0, -0.0872, 0.9962, 10.7842, 30.2662)" style="font-size: 7.227502822875977px;fill: #fff;font-family: Poppins-SemiBold, Poppins;font-weight: 700">WEBSITE</text>
  <text transform="matrix(0.9962, 0, -0.0872, 0.9962, 14.3064, 40.6834)" style="font-size: 7.227502822875977px;font-family: Poppins-SemiBold, Poppins;font-weight: 700">ASSISTANT</text>
  <polygon points="7.748 34.1 8.902 20.9 44.902 20.9 7.748 34.1" style="fill: #fff;opacity: 0.15"/>
</svg>
