<svg id="Layer_1" data-name="Layer 1" xmlns="http://www.w3.org/2000/svg" xmlns:xlink="http://www.w3.org/1999/xlink" width="65" height="65" viewBox="0 0 65 65">
  <defs>
    <linearGradient id="linear-gradient" x1="1.15" y1="32.5" x2="63.85" y2="32.5" gradientUnits="userSpaceOnUse">
      <stop offset="0" stop-color="#2aabee"/>
      <stop offset="1" stop-color="#229ed9"/>
    </linearGradient>
  </defs>
  <title>logo</title>
  <path d="M63.85,32.115A31.22128,31.22128,0,0,1,53.343,55.542q-.69824.61274-1.425,1.197a32.66553,32.66553,0,0,1-3.88553,2.6125,31.39123,31.39123,0,0,1-30.096.532L7.914,64.1585a.95521.95521,0,0,1-1.32051-.988L7.88553,52.445l.095-.798a32.51184,32.51184,0,0,1-2.451-3.534v-.00951a31.23982,31.23982,0,0,1-3.58146-8.892V39.202c-.11405-.513-.21854-1.01651-.304-1.539a27.46125,27.46125,0,0,1-.38-2.964c-.057-.63648-.095-1.28253-.10449-1.938C1.15,32.552,1.15,32.3335,1.15,32.115a31.67975,31.67975,0,0,1,1.6055-9.956,31.37063,31.37063,0,0,1,51.585-12.54,30.713,30.713,0,0,1,3.496,4.0375,29.0931,29.0931,0,0,1,2.36549,3.762V17.428a30.97124,30.97124,0,0,1,3.12554,9.006c.08547.46549.16148.94049.228,1.41549A30.157,30.157,0,0,1,63.85,32.115Z" style="fill: url(#linear-gradient)"/>
  <path d="M14.01546,30.2983q15.39121-6.70571,20.52644-8.84163c9.77474-4.06565,11.80585-4.7719,13.1297-4.79547a2.31707,2.31707,0,0,1,1.36391.40947,1.48291,1.48291,0,0,1,.50094.95319,6.20812,6.20812,0,0,1,.05886,1.38561c-.5297,5.56557-2.82169,19.07174-3.98772,25.30527-.49339,2.63764-1.4649,3.522-2.40543,3.60858-2.044.18809-3.5961-1.35081-5.57581-2.64853-3.09784-2.03067-4.84793-3.29478-7.85492-5.27635-3.4751-2.29-1.22234-3.54868.75811-5.60567.51829-.53832,9.52415-8.72985,9.69846-9.47295a.71894.71894,0,0,0-.16377-.62229.8109.8109,0,0,0-.72875-.07062q-.46605.10578-14.84654,9.813a6.68248,6.68248,0,0,1-3.817,1.40993,25.11965,25.11965,0,0,1-5.47132-1.29475c-2.20425-.71651-3.95615-1.09534-3.80359-2.31221Q11.51616,31.29218,14.01546,30.2983Z" style="fill: #fff"/>
</svg>
