<svg id="Layer_1" data-name="Layer 1" xmlns="http://www.w3.org/2000/svg" xmlns:xlink="http://www.w3.org/1999/xlink" width="65" height="65" viewBox="0 0 65 65">
  <defs>
    <linearGradient id="linear-gradient" x1="1.15" y1="32.5" x2="63.85" y2="32.5" gradientUnits="userSpaceOnUse">
      <stop offset="0" stop-color="#2aabee"/>
      <stop offset="1" stop-color="#229ed9"/>
    </linearGradient>
  </defs>
  <title>news</title>
  <path d="M63.85,32.115A31.22128,31.22128,0,0,1,53.343,55.542q-.69824.61274-1.425,1.197a32.66553,32.66553,0,0,1-3.88553,2.6125,31.39123,31.39123,0,0,1-30.096.532L7.914,64.1585a.95521.95521,0,0,1-1.32051-.988L7.88553,52.445l.095-.798a32.51184,32.51184,0,0,1-2.451-3.534v-.00951a31.23982,31.23982,0,0,1-3.58146-8.892V39.202c-.11405-.513-.21854-1.01651-.304-1.539a27.46125,27.46125,0,0,1-.38-2.964c-.057-.63648-.095-1.28253-.10449-1.938C1.15,32.552,1.15,32.3335,1.15,32.115a31.67975,31.67975,0,0,1,1.6055-9.956,31.37063,31.37063,0,0,1,51.585-12.54,30.713,30.713,0,0,1,3.496,4.0375,29.0931,29.0931,0,0,1,2.36549,3.762V17.428a30.97124,30.97124,0,0,1,3.12554,9.006c.08547.46549.16148.94049.228,1.41549A30.157,30.157,0,0,1,63.85,32.115Z" style="fill: url(#linear-gradient)"/>
  <g>
    <path d="M50.45449,44.64383H12.53374a.92156.92156,0,0,1-.9612-1l1.84313-20a1.1505,1.1505,0,0,1,1.14551-1H52.48194a.92156.92156,0,0,1,.9612,1l-1.84313,20A1.1505,1.1505,0,0,1,50.45449,44.64383Z" style="fill: #fff"/>
    <path d="M51.82011,46.23117H10.99728A1.025,1.025,0,0,1,9.96253,45.0926l1.98419-22.77149a1.26446,1.26446,0,0,1,1.23318-1.13857H54.00272a1.025,1.025,0,0,1,1.03476,1.13857L53.05329,45.0926A1.26446,1.26446,0,0,1,51.82011,46.23117Z" style="fill: none;stroke: #fff;stroke-linecap: round;stroke-miterlimit: 10;stroke-width: 0.25px;stroke-dasharray: 1.9924906492233276,0.9962453246116638"/>
    <path d="M27.00932,26.64383H10.99612a.86651.86651,0,0,1-.81179-1l.467-6a1.04473,1.04473,0,0,1,.96745-1H27.632a.86651.86651,0,0,1,.81179,1l-.467,6A1.04473,1.04473,0,0,1,27.00932,26.64383Z"/>
    <g>
      <path d="M16.92188,28.04639l-.70752,4.00684H17.7832l-.16064.91016H14.856l.86816-4.917Z" style="fill: #28a8e9"/>
      <path d="M21.49365,32.09521H19.6582l-.44824.86816H17.95654l2.64746-4.917h1.38672l.91064,4.917H21.6333Zm-.42725-2.73145-.93848,1.82031h1.22559Z" style="fill: #28a8e9"/>
      <path d="M24.124,28.04639h3.80322l-.16113.94629H26.45654l-.70068,3.9707H24.55859l.7002-3.9707H23.95605Z" style="fill: #28a8e9"/>
      <path d="M31.45459,28.99268h-1.814l-.17529,1.02246h1.604l-.16113.90332h-1.604l-.1958,1.09961h1.814l-.168.94531H27.74268l.86816-4.917h3.01172Z" style="fill: #28a8e9"/>
      <path d="M33.56738,33.01172c-1.09912,0-1.90479-.51807-1.78564-1.519h1.24658c-.02832.34277.168.57422.57422.57422.35059,0,.58789-.1543.58789-.45508,0-.792-2.10059-.60254-2.11475-2.05957-.01367-.99414.79883-1.5752,1.91162-1.5752,1.0791,0,1.80762.55957,1.7168,1.4707H34.42871c.042-.30859-.14648-.52539-.50391-.52539-.33594,0-.56738.1748-.56738.45508,0,.75684,2.12207.67969,2.12207,2.12891C35.47949,32.37549,34.751,33.01172,33.56738,33.01172Z" style="fill: #28a8e9"/>
      <path d="M36.65332,28.04639H40.457l-.16113.94629H38.98633l-.70117,3.9707H37.08789l.7002-3.9707H36.48535Z" style="fill: #28a8e9"/>
      <path d="M15.70313,36.44629h1.19775l-.51807,2.93457c-.105.582.126.918.69336.918a.98888.98888,0,0,0,1.0293-.918l.51855-2.93457h1.19727l-.51807,2.93457a2.34766,2.34766,0,0,1-2.4375,2.03125,1.55726,1.55726,0,0,1-1.67383-2.03125Z"/>
      <path d="M22.12988,39.59863H21.3877l-.31494,1.76465H19.875l.86816-4.917h1.94043c1.20459,0,1.6875.67969,1.52686,1.583A1.94631,1.94631,0,0,1,22.12988,39.59863Zm.07031-.93848a.71935.71935,0,0,0,.7915-.63086c.06982-.37793-.09131-.62988-.56738-.62988h-.65137l-.21729,1.26074Z"/>
      <path d="M29.18018,38.90527a2.94139,2.94139,0,0,1-3.01172,2.458h-1.8418l.86816-4.917h1.84229A1.95392,1.95392,0,0,1,29.18018,38.90527Zm-2.90674,1.43555a1.61422,1.61422,0,0,0,1.688-1.43555,1.08475,1.08475,0,0,0-1.17676-1.43652h-.57422l-.50439,2.87207Z"/>
      <path d="M32.71436,40.49512H30.87891l-.44824.86816H29.17725l2.64746-4.917h1.38623l.91113,4.917H32.854Zm-.42725-2.73145L31.34863,39.584h1.22559Z"/>
      <path d="M35.34473,36.44629h3.80273l-.16113.94629H37.67676l-.7002,3.9707H35.7793l.7002-3.9707H35.17676Z"/>
      <path d="M42.67578,37.39258H40.86133l-.1748,1.02246H42.29l-.16113.90332H40.52539L40.3291,40.418h1.81445l-.168.94531H38.96387l.86816-4.917h3.01172Z"/>
      <path d="M44.78809,41.41211c-1.09961,0-1.90527-.51855-1.78613-1.51953H44.249c-.02832.34277.168.57422.57422.57422.35059,0,.58789-.1543.58789-.45508,0-.792-2.10059-.60254-2.11523-2.05957-.01367-.99414.79883-1.5752,1.91211-1.5752,1.0791,0,1.80762.55957,1.7168,1.4707H45.64941c.042-.30859-.14648-.52539-.50391-.52539-.33594,0-.56738.1748-.56738.45508,0,.75684,2.12207.67969,2.12207,2.12891C46.7002,40.77539,45.97168,41.41211,44.78809,41.41211Z"/>
    </g>
    <g>
      <path d="M15.88965,20.88037a1.56348,1.56348,0,0,1,1.7207,1.3125H16.645a.85945.85945,0,0,0-.8877-.53906A1.54148,1.54148,0,0,0,14.24609,23.021c-.15576.85156.27588,1.37891,1.06152,1.37891a1.41683,1.41683,0,0,0,1.36133-.97168H15.23l.10791-.63574h2.2666l-.13184.73242a2.55116,2.55116,0,0,1-2.333,1.63086A1.69335,1.69335,0,0,1,13.38281,23.021,2.5681,2.5681,0,0,1,15.88965,20.88037Z" style="fill: #fff"/>
      <path d="M20.94727,21.5874H19.3584l-.19189,1.08594h1.40918l-.11426.64746H19.05225l-.19775,1.13281h1.58936l-.12012.666H17.88916l.74365-4.19141h2.42871Z" style="fill: #fff"/>
      <path d="M21.67432,20.93408h3.07031l-.11963.65918H23.51563l-.624,3.52637h-.84521l.62354-3.52637H21.55469Z" style="fill: #fff"/>
    </g>
  </g>
</svg>
