<svg id="Layer_1" data-name="Layer 1" xmlns="http://www.w3.org/2000/svg" width="65" height="65" viewBox="0 0 65 65">
  <title>news</title>
  <path d="M32.5,63.5H32.5a31,31,0,0,1-31-31V32.5a31,31,0,0,1,31-31h28a3,3,0,0,1,3,3v28A31,31,0,0,1,32.5,63.5Z" style="fill: #e21361"/>
  <path d="M53.70379,48.413H18.0482a2.31987,2.31987,0,0,1-2.55959-2.19217l.62761-11.87331a2.63268,2.63268,0,0,1,2.79134-2.19217H54.56315a2.31987,2.31987,0,0,1,2.55959,2.19217l-.62761,11.87331A2.63268,2.63268,0,0,1,53.70379,48.413Z" style="opacity: 0.2"/>
  <path d="M41.78348,35.40683H12.56869a2.10573,2.10573,0,0,1-2.11858-2.19217l.3986-11.87331a2.28345,2.28345,0,0,1,2.26576-2.19217h29.2148a2.10573,2.10573,0,0,1,2.11858,2.19217l-.3986,11.87331A2.28345,2.28345,0,0,1,41.78348,35.40683Z" style="opacity: 0.2"/>
  <path d="M52.32631,46.24526H15.00881A1.858,1.858,0,0,1,13.13947,44.311L13.519,33.00573a2.01481,2.01481,0,0,1,1.9992-1.93427h37.3175A1.858,1.858,0,0,1,54.705,33.00573L54.32551,44.311A2.01481,2.01481,0,0,1,52.32631,46.24526Z" style="fill: #fff"/>
  <g>
    <path d="M23.41943,36.78516h-2.373l-.7876,6.63867h-1.5957l.7876-6.63867H17.10986l.15771-1.33105h6.30957Z"/>
    <path d="M25.06348,43.42383h-1.543l.70264-5.92187h1.543Zm-.74854-7.4541a.89734.89734,0,0,1,.30078-.58594.952.952,0,0,1,.65723-.22949.766.766,0,0,1,.60059.22949.707.707,0,0,1,.165.58594.90272.90272,0,0,1-.30664.5918.96555.96555,0,0,1-.65332.22949.7712.7712,0,0,1-.59766-.22949A.716.716,0,0,1,24.31494,35.96973Z"/>
    <path d="M28.44775,37.502l-.03369.68457a2.25694,2.25694,0,0,1,1.74854-.79395,1.461,1.461,0,0,1,1.29688.55273,2.44442,2.44442,0,0,1,.26074,1.65332l-.45361,3.8252H29.72949l.44922-3.78809a.96427.96427,0,0,0-.126-.72949.84457.84457,0,0,0-.68115-.22754,1.20884,1.20884,0,0,0-1.0415.56934L27.835,43.42383H26.29785l.70264-5.92187Z"/>
    <path d="M37.86133,36.0459,37.68848,37.502h.98438l-.1377,1.16016h-.98437l-.35059,2.95605a.67423.67423,0,0,0,.06641.4707.547.547,0,0,0,.45117.14258,2.46182,2.46182,0,0,0,.457-.03906l-.14258,1.19922a3.2468,3.2468,0,0,1-.94727.1416q-1.61719,0-1.4502-1.67969l.37793-3.19141h-.84082l.1377-1.16016h.84082l.17285-1.45605Z"/>
    <path d="M46.10254,36.98242a2.5995,2.5995,0,0,1-.55566,1.47461,1.90581,1.90581,0,0,1-1.26172.56641l-.52148,4.40039H42.31738l.02832-.60156a2.15556,2.15556,0,0,1-1.65918.71094,1.59116,1.59116,0,0,1-1.34766-.54785,2.18664,2.18664,0,0,1-.30664-1.60254l.46-3.88086H41.0293L40.5752,41.332q-.10986.92725.71.92676a1.255,1.255,0,0,0,1.14063-.55957l.49707-4.19727h1.543l-.08984.76074a.85475.85475,0,0,0,.54883-.33887,2.25918,2.25918,0,0,0,.25684-.94141ZM42.59375,35.127h1.67578l-1.6748,1.69629h-1.25Z"/>
    <path d="M48.00391,42.25879a1.1055,1.1055,0,0,0,.7207-.24121.9861.9861,0,0,0,.35254-.64062h1.44141a2.301,2.301,0,0,1-.4502,1.10254,2.50288,2.50288,0,0,1-.95215.77734,2.82131,2.82131,0,0,1-1.23633.27637,2.18269,2.18269,0,0,1-1.85156-.80762,2.97852,2.97852,0,0,1-.44824-2.22949l.01172-.10449a3.60869,3.60869,0,0,1,.9668-2.18359,2.74389,2.74389,0,0,1,2.03906-.81543,2.13053,2.13053,0,0,1,1.65625.63184,2.0465,2.0465,0,0,1,.46191,1.68359H49.27441a1.01057,1.01057,0,0,0-.18652-.752.81245.81245,0,0,0-.66895-.28906,1.041,1.041,0,0,0-.8584.4043,2.59626,2.59626,0,0,0-.42969,1.30664l-.01953.165a2.299,2.299,0,0,0,.11523,1.31543A.81662.81662,0,0,0,48.00391,42.25879Z"/>
  </g>
  <path d="M39.49892,33.23915H10.28412A2.10573,2.10573,0,0,1,8.16555,31.047l.3986-11.87331a2.28345,2.28345,0,0,1,2.26576-2.19217h29.2148a2.10573,2.10573,0,0,1,2.11858,2.19217L41.76468,31.047A2.28345,2.28345,0,0,1,39.49892,33.23915Z"/>
  <g>
    <path d="M17.30225,22.2793h-2.373l-.7876,6.63916H12.5459l.7876-6.63916H10.99268l.15771-1.33057H17.46Z" style="fill: #fff"/>
    <path d="M20.73828,24.48a3.93219,3.93219,0,0,0-.54834-.04395,1.276,1.276,0,0,0-1.21582.60693l-.45947,3.87549H16.97754l.70215-5.92236h1.45215l-.04053.70605a1.63793,1.63793,0,0,1,1.37891-.81592,1.495,1.495,0,0,1,.47021.07178Z" style="fill: #fff"/>
    <path d="M20.958,25.90234a3.92566,3.92566,0,0,1,.519-1.57568,2.91731,2.91731,0,0,1,1.08154-1.06494,2.96931,2.96931,0,0,1,1.481-.37549,2.24433,2.24433,0,0,1,1.90527.84863.92613.92613,0,0,0,.38818-.48975,3.47533,3.47533,0,0,0,.18018-.80176h.93652a2.17821,2.17821,0,0,1-1.1709,1.92676,3.39968,3.39968,0,0,1,.13232,1.53223l-.01367.11523a3.92086,3.92086,0,0,1-.51953,1.57617,2.9251,2.9251,0,0,1-1.07227,1.062,2.967,2.967,0,0,1-1.48389.37207,2.28813,2.28813,0,0,1-1.84131-.76123,2.72772,2.72772,0,0,1-.5542-2.05176Zm1.35205,4.3457a.79461.79461,0,0,1,.30322-.5415.99151.99151,0,0,1,.64258-.21289.80627.80627,0,0,1,.59668.21289.6191.6191,0,0,1,.17627.5415.81042.81042,0,0,1-.30176.542.98013.98013,0,0,1-.65088.21924A.78079.78079,0,0,1,22.48,30.79.63609.63609,0,0,1,22.31006,30.248Zm.17773-4.2334a2.11854,2.11854,0,0,0,.15576,1.291.88189.88189,0,0,0,.82959.44727,1.13906,1.13906,0,0,0,.9248-.44434,2.75266,2.75266,0,0,0,.47559-1.40918,2.12857,2.12857,0,0,0-.15674-1.27979.876.876,0,0,0-.82861-.458,1.13342,1.13342,0,0,0-.92578.45313A2.76392,2.76392,0,0,0,22.48779,26.01465Z" style="fill: #fff"/>
    <path d="M31.51758,28.91846h-1.543l.99707-8.40674h1.543Z" style="fill: #fff"/>
    <path d="M35.19922,26.68018l1.5-3.68408h1.64941l-3.126,6.8418-.16406.312a2.02579,2.02579,0,0,1-1.84082,1.15967,2.21516,2.21516,0,0,1-.668-.10352l.14209-1.19873.23389.00586a1.33207,1.33207,0,0,0,.668-.13672,1.06906,1.06906,0,0,0,.3916-.45459l.23828-.48682-1.3125-5.939h1.65527Zm1.06641-6.16846h1.67578L36.2666,22.2085h-1.25Z" style="fill: #fff"/>
  </g>
</svg>
