<svg id="Layer_1" data-name="Layer 1" xmlns="http://www.w3.org/2000/svg" width="65" height="65" viewBox="0 0 65 65">
  <title>news</title>
  <path d="M63.85,32.115A31.22128,31.22128,0,0,1,53.343,55.542q-.69824.61274-1.425,1.197a32.66553,32.66553,0,0,1-3.88553,2.6125,31.39123,31.39123,0,0,1-30.096.532L7.914,64.1585a.95521.95521,0,0,1-1.32051-.988L7.88553,52.445l.095-.798a32.51184,32.51184,0,0,1-2.451-3.534v-.00951a31.23982,31.23982,0,0,1-3.58146-8.892V39.202c-.11405-.513-.21854-1.01651-.304-1.539a27.46125,27.46125,0,0,1-.38-2.964c-.057-.63648-.095-1.28253-.10449-1.938C1.15,32.552,1.15,32.3335,1.15,32.115a31.67975,31.67975,0,0,1,1.6055-9.956,31.37063,31.37063,0,0,1,51.585-12.54,30.713,30.713,0,0,1,3.496,4.0375,29.0931,29.0931,0,0,1,2.36549,3.762V17.428a30.97124,30.97124,0,0,1,3.12554,9.006c.08547.46549.16148.94049.228,1.41549A30.157,30.157,0,0,1,63.85,32.115Z" style="fill: #ed2024"/>
  <g>
    <path d="M15.67058,32.01125H53.24914a4,4,0,0,1,4,4V49.83064a0,0,0,0,1,0,0H19.67058a4,4,0,0,1-4-4V32.01125A0,0,0,0,1,15.67058,32.01125Z" style="opacity: 0.2"/>
    <path d="M9.73079,20.13167H42.36956a3,3,0,0,1,3,3V37.951a0,0,0,0,1,0,0H13.73079a4,4,0,0,1-4-4V20.13167A0,0,0,0,1,9.73079,20.13167Z" style="opacity: 0.2"/>
    <path d="M13.69065,30.03132H51.26921a4,4,0,0,1,4,4V47.85071a0,0,0,0,1,0,0H17.69065a4,4,0,0,1-4-4V30.03132A0,0,0,0,1,13.69065,30.03132Z" style="fill: #fff"/>
    <path d="M7.75086,16.1718H40.38962a3,3,0,0,1,3,3V33.99119a0,0,0,0,1,0,0H11.75086a4,4,0,0,1-4-4V16.1718A0,0,0,0,1,7.75086,16.1718Z"/>
    <g>
      <path d="M17.75586,24.90088l.61719,1.17383a3.27869,3.27869,0,0,1,.43506,1.65283v.95654a3.99861,3.99861,0,0,1-1.0957,2.418,2.06424,2.06424,0,0,1-1.43506.7915,5.09915,5.09915,0,0,1-2.23535-.66992l.0957-.29541a3.07041,3.07041,0,0,0,.96533.15625,3.76,3.76,0,0,0,3.05273-2.34814.9376.9376,0,0,0,.0957-.38281,1.51188,1.51188,0,0,0-.12158-.46094,13.76664,13.76664,0,0,0-1.04395-1.91309c.2002-.374.40039-.731.61768-1.0874Z" style="fill: #fff;stroke: #fff;stroke-miterlimit: 10;stroke-width: 0.39598605036735535px"/>
      <path d="M22.63721,29.38867h-.0957a1.91805,1.91805,0,0,1-1.4873-.49561c-.53076-.53955-.53906-1.15674-.53906-2.43555,0-1.65234-.0957-3.3833-.22607-5.22705a7.8137,7.8137,0,0,1,.81738-.80908l.061.03516c.13916,1.90479.13916,4.15723.13916,6.29688V27.249a.90775.90775,0,0,0,.65234.93066,1.76036,1.76036,0,0,0,.55664.0957h.12158Z" style="fill: #fff;stroke: #fff;stroke-miterlimit: 10;stroke-width: 0.39598605036735535px"/>
      <path d="M22.82959,28.27539c.66943,0,1.36523-.26953,1.49609-.76562l.252-.939.6001-.43506.05225.061a4.67425,4.67425,0,0,0-.19141,1.00879.86588.86588,0,0,0,.28711.72217,1.62231,1.62231,0,0,0,1.07861.34766h.15625v1.11328h-.19971a1.75049,1.75049,0,0,1-1.792-.88721h-.03467a1.87115,1.87115,0,0,1-1.731.88721h-.165a.5584.5584,0,0,1-.60889-.58252.54117.54117,0,0,1,.60889-.53076Zm1.6001,2.75732a7.84751,7.84751,0,0,1,1.04395.93018,3.504,3.504,0,0,1-.72217.85254c-.33887-.32178-.67822-.6001-1.02588-.896C23.96,31.60645,24.19482,31.30225,24.42969,31.03271Z" style="fill: #fff;stroke: #fff;stroke-miterlimit: 10;stroke-width: 0.39598605036735535px"/>
      <path d="M27.09326,28.27539a8.98689,8.98689,0,0,0,4.644-1.57422l.00879-.03467a8.17606,8.17606,0,0,0-2.731-.60889,1.39429,1.39429,0,0,0-1.10449.43457l.10449.43506-.26123.78271H27.667L27.24072,26.562a1.72292,1.72292,0,0,1,1.8877-1.56543,8.38957,8.38957,0,0,1,2.85254.75635,4.29885,4.29885,0,0,0,1.48779.27832l.7041-.0083.02637.01709-.46094.91309a2.69839,2.69839,0,0,0-1.50488.32227l-1.45264.94775a6.79117,6.79117,0,0,1-3.76611,1.16553H26.5625a.5584.5584,0,0,1-.60889-.58252.54117.54117,0,0,1,.60889-.53076Zm2.47852-6.28809a7.84851,7.84851,0,0,1,1.04395.93066,3.511,3.511,0,0,1-.72217.85205c-.33887-.32178-.67822-.6001-1.02637-.896C29.10205,22.561,29.33691,22.25684,29.57178,21.9873Z" style="fill: #fff;stroke: #fff;stroke-miterlimit: 10;stroke-width: 0.39598605036735535px"/>
      <path d="M37.26465,19.24756a4.20507,4.20507,0,0,1-.33984.59131,8.91835,8.91835,0,0,0-2.26074.65234l-.01758-.02637.209-.36523a1.07656,1.07656,0,0,1,.39941-.28711v-.02588a.81452.81452,0,0,1-.67773-.75684,1.1783,1.1783,0,0,1,.4082-.76514,1.65555,1.65555,0,0,1,1.05273-.49609c.34766,0,.54785.2002.54785.42627a.903.903,0,0,1-.27832.56543H36.29c-.0957-.19141-.18262-.313-.27832-.33936a1.14056,1.14056,0,0,0-.26953-.02588c-.30469,0-.6084.17383-.6084.3042,0,.41748.73047.55664,1.24316.55664.2959,0,.5918-.01709.8877-.03467ZM35.64648,29.53662a11.485,11.485,0,0,0,.0957-1.73975v-.85205c0-1.5918-.17383-3.90527-.31348-5.41016a8.00635,8.00635,0,0,1,.85254-.92187l.07813.02637c.18262,1.896.22656,4.09619.22656,6.123a13.92109,13.92109,0,0,1-.06055,1.43506,2.25744,2.25744,0,0,1-.76562,1.40039Z" style="fill: #fff;stroke: #fff;stroke-miterlimit: 10;stroke-width: 0.39598605036735535px"/>
    </g>
    <g>
      <path d="M25.124,44.32715H24.9585a1.72375,1.72375,0,0,1-1.77441-1.418h-.04346a1.23444,1.23444,0,0,1-.626.835,3.45221,3.45221,0,0,1-1.748.583,1.42,1.42,0,0,1-1.51367-1.60937c0-.2168.00879-.42578.02637-.64355l.33887-.02539a1.08877,1.08877,0,0,0,1.22656,1.165,3.10526,3.10526,0,0,0,1.41748-.43457c.32178-.18262.56543-.44434.56543-.65234A17.15056,17.15056,0,0,0,22.106,38.8916a10.77485,10.77485,0,0,1,.61719-.89648l.05225.03516c.32178,1.252.5918,2.5918.82617,3.87012a1.42122,1.42122,0,0,0,1.37451,1.31348H25.124Z" style="stroke: #000;stroke-miterlimit: 10;stroke-width: 0.39598605036735535px"/>
      <path d="M25.67432,43.21387a4.90355,4.90355,0,0,0,1.28711-.18262V42.9873a1.99332,1.99332,0,0,1-1.01758-1.7041,2.23726,2.23726,0,0,1,.374-1.13965,2.14981,2.14981,0,0,1,1.80029-1.165,2.22914,2.22914,0,0,1,1.93115,1.417l-.16553.1748a2.18611,2.18611,0,0,0-1.55664-.55664c-.92187,0-1.5918.42578-1.5918.73047a1.63588,1.63588,0,0,0,.748,1.23438,2.18318,2.18318,0,0,0,1.05273.46973,8.75122,8.75122,0,0,0,2.4873-.61719l.04346.043-.46094,1.0791c-1.36572.4873-2.02637.55664-3.08789.9043a6.99389,6.99389,0,0,1-2.12207.46973h-.26953a.55852.55852,0,0,1-.60889-.583.54134.54134,0,0,1,.60889-.53027Z" style="stroke: #000;stroke-miterlimit: 10;stroke-width: 0.39598605036735535px"/>
      <path d="M34.61816,44.32715h-.0957a1.91752,1.91752,0,0,1-1.4873-.49609c-.53076-.53906-.53906-1.15625-.53906-2.43457,0-1.65332-.0957-3.38379-.22656-5.22754a7.85068,7.85068,0,0,1,.81738-.80859l.06152.03418c.13867,1.90527.13867,4.15723.13867,6.29688v.49609a.90868.90868,0,0,0,.65234.93066,1.76244,1.76244,0,0,0,.55664.0957h.12207Z" style="stroke: #000;stroke-miterlimit: 10;stroke-width: 0.39598605036735535px"/>
      <path d="M43.52539,44.32715h-.21777c-1.07812,0-1.57422-.33008-1.791-.81738h-.05273a1.94965,1.94965,0,0,1-1.4873.81738.86619.86619,0,0,1-.94824-.72168h-.03418a1.97565,1.97565,0,0,1-1.50488.72168.74716.74716,0,0,1-.835-.73926h-.03516a2.32831,2.32831,0,0,1-1.85254.73926h-.14746a.55809.55809,0,0,1-.6084-.583.54087.54087,0,0,1,.6084-.53027h.2959a2.10645,2.10645,0,0,0,1.835-.80859l.43457-.67871.66992-.23437.03516.043a3.45976,3.45976,0,0,0-.56543,1.24414.42971.42971,0,0,0,.46973.43457,1.26865,1.26865,0,0,0,.75684-.26074,1.94362,1.94362,0,0,0,.56543-.76562l.208-.5127.66113-.30469.03516.03418a3.61622,3.61622,0,0,0-.35645,1.30469.47718.47718,0,0,0,.48633.50488,1.02068,1.02068,0,0,0,.60059-.19141,1.3704,1.3704,0,0,0,.50391-.835c.03516-.13867.08789-.30469.1748-.6875l.66016-.44336.03516.02637a4.87812,4.87812,0,0,0-.21777,1.19141c0,.6875.60059.93945,1.42676.93945h.19141Z" style="stroke: #000;stroke-miterlimit: 10;stroke-width: 0.39598605036735535px"/>
      <path d="M43.71973,43.21387c.64355,0,1.14844-.44336,1.46094-1.53906a2.65294,2.65294,0,0,1,.64355-1.05273,1.63024,1.63024,0,0,1,1.0957-.50488c1.06152,0,1.6875,1.46191,1.82715,2.9834-.18262.792-.50488,1.12207-.92187,1.12207a4.45688,4.45688,0,0,1-2.583-1.02637h-.06152a1.42475,1.42475,0,0,1-1.50488,1.13086h-.14746a.55809.55809,0,0,1-.6084-.583.54087.54087,0,0,1,.6084-.53027Zm3.04395-.34766a2.75411,2.75411,0,0,0,1.03516.252c.13086,0,.24316-.01758.27832-.0957-.252-1.31348-.82617-1.89551-1.374-1.89551a1.25331,1.25331,0,0,0-1.166.85156A2.65473,2.65473,0,0,0,46.76367,42.86621Z" style="stroke: #000;stroke-miterlimit: 10;stroke-width: 0.39598605036735535px"/>
    </g>
  </g>
</svg>
