<svg width="159" height="170" fill="none" xmlns="http://www.w3.org/2000/svg"><path d="m45.86 111.727 2.986-.212-1.06-1.03c-.577-.576-1.509-1.303-2.023-1.606l-.995-.576-1.285-.182-1.284-.212-.675.576-.706.545-1.285 3.273 1.67-.182c.885-.115 2.811-.257 4.406-.375l.25-.019Zm78.681-1.848c-.546-5.121-2.312-12.576-3.693-15.546-.257-.575-.61-1.333-.739-1.666-1.83-4.213-4.592-8.849-7.194-12.122l-1.927-2.424-6.166-5.757-2.826-2c-1.541-1.122-4.303-2.849-6.134-3.88l-3.307-1.848-3.405-1.363c-1.862-.728-4.11-1.546-4.945-1.788l-1.574-.424-3.822 3.545c-2.119 1.97-4.495 4.303-5.266 5.212-.803.91-1.51 1.697-1.606 1.788-.61.515-3.5 5.727-3.982 7.212l-.225.667h1.959v2.121l-1.317 3.424a330.528 330.528 0 0 1-2.408 6.121c-.578 1.516-1.124 3.061-1.156 3.455l-.097.727 7.226 4.03c3.982 2.243 7.322 4.061 7.45 4.061.225 0 14.645-19.545 14.934-20.212l.16-.394h2.184v1.303c0 .697-.225 2.485-.514 3.94-.256 1.484-.417 2.848-.353 3.03l.097.333L97.532 90l1.606-1.424h2.023v2.151l-1.798 3.212-1.799 3.243 1.22 1.06c.707.576 4.208 3.788 7.805 7.122l6.551 6.091 4.207.333c2.312.182 4.946.363 5.845.363l1.606.061-.257-2.333Zm-55.623.969.61-.424-.867-.03h-.899v-2.03l1.285-1.879c.706-1.03 1.284-2 1.284-2.121 0-.152-.481-.485-1.027-.758-.579-.273-1.478-.788-2.024-1.091a21.53 21.53 0 0 0-1.605-.909 73.734 73.734 0 0 1-1.638-.879l-.964-.545-2.055 5.182c-1.124 2.848-2.087 5.363-2.184 5.575l-.128.364h9.57l.642-.455ZM48.14 100.212l.032-.333-1.927-.546-1.959-.545-.482.424-.481.455.578.485c.321.272 1.316.757 2.184 1.09l1.605.606.225-.666c.096-.334.193-.788.225-.97Zm1.317-4.788v-1.03l-1.895-.606-1.927-.606-.385.424-.354.424.161.394.16.424 2.056.788c1.092.425 2.055.788 2.12.819.032 0 .064-.455.064-1.03Zm6.487-6.848h1.862v1.06l.322-.454c.45-.667.417-.788-.418-1.303l-.739-.455-2.055.424c-1.156.213-2.697.425-3.436.425h-1.381v.242c0 .121.225.546.514.91l.514.696.674.243.642.242.771-.151.739-.122 1.99-1.757Zm1.862-5.455c.161 0 .45-.272.643-.606l.353-.606h-.257c-.128 0-.674.364-1.22.788l-.964.788.578-.182c.322-.09.739-.182.867-.182Zm1.831-19.06 1.028-.273 2.248-1.727c1.252-.97 2.28-1.819 2.28-1.94 0-.09-.29-.636-.642-1.151l-.643-1-1.188.03c-.674 0-2.152.242-3.308.545l-2.087.516-.193 5.272h.739c.417 0 1.188-.12 1.766-.272Zm14.259-2.97 1.317-1.576-.675-.909-.674-.879v-1.575h-.642v1.545l-.835 1.06-.835 1.03h.706v2.304l-.417.576c-.257.333-.546.878-.643 1.212l-.224.606.802-.91a58.35 58.35 0 0 0 2.12-2.484Zm-6.134-13.364-1.284.303v.546h1.284v-.849Zm-6.84-3 4.56-.182.385-.242.386-.212-.386-.879c-.192-.454-.77-1.303-1.252-1.848l-.9-1-3.179-.334-3.211-.333-2.248.485c-1.22.242-2.826.697-3.533 1l-1.284.545.578.122.546.09v3.394l2.505-.212c1.348-.09 4.528-.273 7.033-.394Zm10.694-20.485c0-.393.289-1.515.642-2.484.353-.97.578-1.819.514-1.88-.129-.12-1.799 4.183-1.799 4.698v.363h.643v-.697Zm23.026-10.575-.128-.697v1.212l-.032 1.212.16-.515c.064-.303.064-.849 0-1.212ZM84.72 4.12c-.322-.06-.9-.06-1.285 0l-.739.121h1.285l1.285.03-.546-.15Z" fill="#013346"/><path fill-rule="evenodd" clip-rule="evenodd" d="m30.348 116.909.803-1.061c.257-.303 1.574-1.909 2.923-3.545l2.44-3 .45-1.182.45-1.212 1.22-1.121 1.188-1.152h1.253l.353-.575.321-.606-.578-.394c-.353-.213-.835-.819-1.156-1.364l-.514-.97v-2.182l.45-.848c.257-.455.674-1 .931-1.212l.482-.364-.353-1.03-.322-1.06.386-1.122c.45-1.424 1.22-2.303 2.537-2.94l.995-.484h1.574l.16-1.576c.097-.879.258-1.909.386-2.273l.225-.666-1.83-.97c-.996-.515-1.896-1.121-1.96-1.303l-.128-.333 2.087-5.273 2.088-5.242-1.124-1.213c-1.253-1.394-2.28-3.303-2.698-5.09-.16-.698-.353-1.304-.418-1.334-.032-.03-.61-.424-1.252-.848l-1.156-.819-.546-1.06-.546-1.091-.9-.455c-.513-.242-1.284-.848-1.733-1.363l-.835-.94-.193-1-.225-1 .386-1.303.385-1.333 3.79-3.455v-3l-1.189-.333-1.22-.364-2.955-2.06-.706-1.333-.675-1.334v-2.424l.835-1.606.835-1.576 1.991-1.545 1.96-1.546 1.22-1.909 1.188-1.909 3.854-3.273 2.152-.97 2.151-1 3.019-.727 3.05-.727h6.81l2.087.424c1.156.243 2.12.394 2.183.334.065-.03 1.606-3.849 3.437-8.485l3.34-8.394.867-1.091c1.156-1.455 2.216-2.364 3.821-3.212l1.285-.727 1.734-.364L82.92 0l2.088.182 2.055.151 6.102 2.788 3.019 2.91 1.734 3.03.514 1.787.481 1.788v3.394l-.513 1.637c-.29.878-2.152 5.909-4.208 11.181-5.684 14.819-10.694 27.91-10.694 28.061 0 .091.225.152.546.152.29 0 2.056.484 3.918 1.09l3.404 1.091 4.368 2.091 4.368 2.122 4.142 2.909 4.143 2.939 6.455 6.09 2.28 2.88 2.313 2.879 1.959 3.181 1.927 3.182 1.284 3.06 1.253 3.061.835 3c1.188 4.425 1.67 7.485 2.312 14l.578 6.273-1.831.364c-1.477-.122-5.106-.394-8.125-.637-2.986-.242-9.73-.697-14.933-.969l-9.474-.485-17.823.151-17.824.182-5.46.303-21.998 2.303-1.767-1.212Zm18.498-5.394-2.986.212-.251.019c-1.595.118-3.521.26-4.406.375l-1.67.182 1.285-3.273.706-.545.675-.576 1.284.212 1.285.182.995.576c.514.303 1.446 1.03 2.024 1.606l1.06 1.03Zm72.002-17.182c1.381 2.97 3.147 10.425 3.693 15.546l.257 2.333-1.606-.061c-.899 0-3.533-.181-5.845-.363l-4.207-.333-6.551-6.091c-3.597-3.334-7.098-6.546-7.804-7.122l-1.22-1.06 1.798-3.243 1.798-3.212v-2.151h-2.023L97.532 90l-1.637 1.424-.097-.333c-.064-.182.097-1.546.353-3.03.29-1.455.514-3.243.514-3.94v-1.303h-2.184l-.16.394c-.29.667-14.709 20.212-14.933 20.212-.129 0-3.469-1.818-7.451-4.06l-7.226-4.03.097-.728c.032-.394.578-1.94 1.156-3.454.61-1.485 1.702-4.273 2.408-6.122l1.317-3.424v-2.121H67.73l.225-.667c.481-1.485 3.372-6.697 3.982-7.212.096-.09.803-.879 1.606-1.788.77-.909 3.147-3.242 5.266-5.212l3.822-3.545 1.574.424c.835.242 3.083 1.06 4.945 1.788l3.405 1.363 3.307 1.849c1.831 1.03 4.593 2.757 6.134 3.879l2.826 2 6.166 5.757 1.927 2.424c2.602 3.273 5.364 7.91 7.194 12.122.129.333.482 1.09.739 1.666Zm-51.32 16.091-.61.424-.642.455h-9.57l.128-.364c.096-.212 1.06-2.727 2.184-5.575l2.055-5.182.964.545c.546.303 1.284.697 1.638.879a21.53 21.53 0 0 1 1.605.909c.546.303 1.445.818 2.024 1.091.546.273 1.027.606 1.027.758 0 .121-.578 1.091-1.284 2.121l-1.285 1.879v2.03h.9l.866.03ZM48.172 99.879l-.032.333c-.032.182-.129.636-.225.97l-.225.666-1.605-.606c-.867-.333-1.863-.818-2.184-1.09l-.578-.485.481-.455.482-.424 1.96.545 1.926.546Zm1.285-5.485v1.03c0 .576-.032 1.03-.065 1.03-.064-.03-1.027-.393-2.12-.818l-2.054-.787-.161-.425-.16-.394.353-.424.385-.424 1.927.606 1.895.606Zm6.487-5.818-1.991 1.757-.739.121-.77.152-.643-.242-.674-.243-.514-.697c-.29-.363-.514-.788-.514-.909v-.242h1.38c.74 0 2.281-.212 3.437-.424l2.056-.425.738.455c.835.515.867.636.418 1.303l-.322.454v-1.06h-1.862Zm2.505-6.06c-.193.332-.482.605-.642.605-.129 0-.546.091-.868.182l-.578.182.964-.788c.546-.424 1.092-.788 1.22-.788h.257l-.353.606Zm2.216-18.728-1.028.273c-.578.151-1.349.272-1.766.272h-.739l.193-5.272 2.087-.516c1.156-.303 2.634-.545 3.308-.545l1.188-.03.643 1c.353.515.642 1.06.642 1.151 0 .121-1.028.97-2.28 1.94l-2.248 1.727Zm14.548-4.273-1.317 1.576c-.707.879-1.67 2-2.12 2.485l-.802.909.224-.606c.097-.334.386-.879.643-1.212l.417-.576v-2.303h-.706l.835-1.03.835-1.061v-1.546h.642v1.576l.674.88.675.908Zm-7.45-11.788v.849h-1.285v-.546l1.284-.303Zm-2.281-3.182-4.56.182c-2.505.122-5.685.303-7.033.394l-2.505.212V41.94l-.546-.09-.578-.122 1.284-.545c.707-.303 2.312-.758 3.533-1l2.248-.485 3.211.333 3.18.334.899 1c.482.545 1.06 1.394 1.252 1.848l.386.879-.386.212-.385.242Zm6.776-22.787c-.353.97-.642 2.09-.642 2.484v.697h-.642v-.363c0-.515 1.67-4.818 1.798-4.697.064.06-.16.909-.514 1.879Zm22.256-8.788.128.697c.064.363.064.909 0 1.212l-.16.515.032-1.212V12.97ZM83.434 4.12c.385-.06.963-.06 1.285 0l.546.152-1.285-.03h-1.285l.74-.122Z" fill="#013346"/><path d="m120.045 112.909-.578-.121v-.818l.738-.182a8.302 8.302 0 0 1 1.606-.182h.867v1.515l-1.027-.03c-.578-.03-1.317-.091-1.606-.182ZM115.228 112.576l-.578-.091v-.788l.995-.212c.546-.091 1.413-.182 1.927-.182h.931v1.545l-1.348-.09c-.771-.031-1.638-.122-1.927-.182ZM111.117 111h2.89v1.515h-1.862L111.117 111ZM96.023 87.364l1.028-1.546 1.027-1.576.16-1.09.194-1.091 2.633-.182.225.97c.096.515.193 1.757.193 2.697v1.757l-1.51 1.243-1.541 1.242h-2.409v-2.424ZM114.65 81.91h-1.349l-1.638-1.486c-8.896-7.94-17.117-12.94-28.743-17.454l-2.987-1.152 1.06-1.03 1.06-1 2.248.576c1.253.333 3.822 1.212 5.749 1.97l3.468 1.393 3.308 1.849c1.83 1.03 4.592 2.757 6.134 3.879l2.826 2 6.166 5.757 2.152 2.697c1.188 1.485 2.151 2.818 2.151 2.97v.242h-1.605V81.91ZM38.152 42.849l-1.477-.88-.353-1.06-.386-1.06.546-1.243.514-1.242.739-.606 1.927-1.364.224.364.225.545v-.485l.032-.515.514-.182c.29-.09.867-.182 1.285-.182h.77v-.545l2.345-.364c1.252-.181 2.633-.424 3.05-.485l.707-.12v-.85l.739-.181c.385-.091 1.285-.182 1.991-.212l1.285-.06-2.023-.273-2.024-.303 1.413-1.152h.546c.321 0 1.22.09 2.056.182l1.477.212v2.333h-2.088l-.963.606h1.445v.849l-.706.182c-.418.09-1.446.181-2.345.181h-1.605l-2.441.546-2.473.576-1.445.788-1.445.818-1.735 1.94.161 1.332.16 1.303.74.758.706.727h-.29c-.192 0-.995-.394-1.798-.878ZM72.933 39.667l-3.02-.97-1.091-1.303c-.578-.727-1.028-1.394-.964-1.424.065-.06 1.831.454 3.983 1.181l3.853 1.273.707.97c.353.545.674 1.06.674 1.151 0 .303-1.188.061-4.142-.878ZM64.968 37.273l-1.38-.637v-1.12l.577.302c.514.273 2.57 2.182 2.28 2.121-.064 0-.738-.303-1.477-.666ZM53.953 33.788l.738-.182a8.303 8.303 0 0 1 1.606-.182h.867v1.515h-3.211v-1.151ZM43.034 31.03c0-.12.77-.94 1.702-1.788l1.734-1.515 1.702-.818c2.345-1.121 3.95-1.636 6.52-2.121l2.151-.394v1.364l-1.349.575c-1.702.697-6.68 3.758-7.29 4.455l-.417.515h-4.753v-.273ZM59.733 27.97h.964v-1.091l1.124-.515 1.156-.515h2.537v.909l-1.991.939c-1.124.515-2.409 1.212-2.89 1.545l-.9.576V27.97Z" fill="#E60000"/><path d="m123.417 113.212-1.702-.121v-.424l-1.959.091-1.991.121-.225-.364-.257-.394-.418.273-.417.242-1.606-.091-1.638-.09-.096-.243-.096-.273-.45.152-.417.151-8.158-7.484-8.157-7.516 1.22-1.909c1.093-1.727 3.148-5.454 3.148-5.787 0-.061-.803.575-1.83 1.454-.996.849-2.28 1.91-2.89 2.333l-1.093.788-.16-.182-.161-.151.803-4.727c.45-2.607.835-4.91.835-5.091v-.334l-.835 1.182c-.482.637-4.014 5.515-7.9 10.818l-7.066 9.606-.192-.121c-.129-.06-3.822-2.121-8.254-4.576-4.4-2.424-8.125-4.545-8.285-4.666l-.225-.212 1.092-2.88c.61-1.545 1.316-3.393 1.573-4.06.9-2.151 3.115-8.03 3.115-8.181 0-.092-.674.605-1.477 1.575-.835.97-1.702 1.97-1.959 2.212l-.45.455.225-.91c1.06-4.363 4.464-12 5.91-13.181.096-.09.802-.879 1.605-1.788C74.217 67.03 80.64 61 80.993 61c.386 0 9.089 3.546 11.305 4.606 6.166 2.94 14.002 8.303 20.264 13.849.899.787 1.863 1.515 2.152 1.636l.546.182 1.734 2.818c1.509 2.424 3.083 5.364 4.079 7.667.128.333.481 1.09.738 1.666 1.477 3.182 3.115 10.243 3.758 15.97l.385 3.394-.225.333c-.096.152-.289.273-.417.243-.129-.031-.996-.091-1.895-.152ZM99.042 87.606l1.541-1.273-.16-1.636c-.193-1.788-.321-2.03-.835-1.727l-.353.181v1.637l-1.124 1.757c-1.735 2.728-1.51 3.03.93 1.061ZM38.41 38.151l-.515-.606v-.939l1.735-1.212 1.702-1.121 2.183-.728 2.152-.757 1.991-.152c1.06-.09 2.313-.212 2.762-.272.45-.061 1.285-.122 1.863-.122l1.027-.03v-.576L51.384 32v-.545l-2.313-.061c-1.252-.06-2.344-.152-2.44-.212-.097-.091.096-.515.385-.91l.514-.757 2.344-1.485c1.253-.818 3.404-2 4.721-2.636l2.409-1.152 3.243.182 3.244.152 1.445.606c.803.333 1.541.727 1.67.909l.193.303-1.992.667-.642-.364-2.44 1.03.128.394.16.394-.61.182-.642.212-1.477 1.485c-.803.818-1.477 1.636-1.477 1.818v.303h2.344l1.766 1.424a70.974 70.974 0 0 0 2.345 1.91l.578.454-.225.364-.257.394-1.991-.91-2.023-.909-2.056-.181-9.634-.121h-.643l-4.977 1.212-2.73 1.515-1.124 1.212-.257-.152-.514-.575Z" fill="#E60000"/><path d="M57.164 111.939c0-.303 5.106-13.12 5.3-13.303.16-.181.641.03 2.247 1 .707.394 1.574.879 1.927 1.061a21.55 21.55 0 0 1 1.606.909c.546.303 1.573.879 2.344 1.273.77.363 1.477.788 1.574.939l.16.243-1.413 2.03c-.803 1.121-1.638 2.364-1.862 2.788l-.418.757.45-.333c.257-.182 1.638-1.182 3.115-2.212l2.665-1.909.579.485c.32.272.706.485.899.485.192 0 .513.181.738.424l.354.454-4.111 2.576-4.11 2.606H57.163v-.273ZM51.287 83.151c-1.734-.97-3.308-1.909-3.5-2.09l-.321-.303.867-2.394c.514-1.303 1.092-2.758 1.316-3.273l.418-.91.032 2.94v2.94l2.377 1.333 2.344 1.364 3.436-2.243c1.863-1.212 3.404-2.09 3.404-1.97 0 .152-.578 1.425-1.252 2.849l-1.285 2.576-1.702.333c-.931.212-1.991.424-2.344.515l-.642.121-3.148-1.787ZM69.817 65.758l-.513-1.03.995-1.88c.546-1.06.996-2 .996-2.09 0-.091-.514.303-1.156.878l-1.124 1.03.224-.605c.386-.97 1.285-2.273 2.923-4.303l1.541-1.88h.771l.739-.03-.193.455-.16.455.963 1.484.995 1.485-2.986 3.515c-1.638 1.94-3.083 3.516-3.244 3.516-.16 0-.482-.455-.77-1ZM56.136 65.03c-.064-.151-.032-1.727.065-3.545l.16-3.334.964-.242c.546-.151 1.927-.454 3.115-.697l2.184-.454 1.188.242 1.22.242.867 1.485c.482.849.9 1.606.9 1.728 0 .12-1.092 1.09-2.441 2.12l-2.409 1.91-2.055.727h-1.83l-1.831.03-.096-.212ZM48.879 62.455l-1.06-1.849.417-.242c.225-.152.578-.212.739-.182l.321.121.386 1.94c.192 1.06.32 1.97.32 2-.032.03-.545-.788-1.123-1.788ZM47.112 62.121a3.298 3.298 0 0 1-.224-1.06l.032-.516.642 1.091-.096.515-.129.516-.225-.546ZM81.989 49.636c.096-.485.289-2.181.417-3.697l.193-2.818 2.248-5.515c2.634-6.545 3.276-8.182 6.327-15.909l2.28-5.848v-2.94l-.45-1.364-.417-1.393-2.056-2.425-1.124-.545-1.091-.576V4.94H87.03v.94l-.707-.243-.738-.242h-3.918l-1.124.758-1.156.727-.771 1.09-.739 1.122-2.697 7.879-2.698 7.909 2.376 2.606.771 1.606c.45.879 1.028 2.394 1.317 3.424l.482 1.818-.097 1.152-.128 1.121-.546-1.212c-1.67-3.667-4.143-7.394-6.038-9.212l-1.284-1.212 6.487-16.546.803-1.303c1.06-1.697 1.894-2.424 3.821-3.273l1.606-.727h3.95l2.537 1.212 2.57 1.212 1.509 1.516 1.51 1.545 1.412 2.848v2.728l-.032 2.727-6.68 16.667c-3.66 9.151-6.744 16.727-6.84 16.818l-.16.151.16-.909ZM50.42 42.758l-.963.727-1.606-.364V41.94l1.06-.757 1.027-.727 4.175-1.334 2.57-.151 2.6-.182 2.698.364 2.73.333.739.818c.417.485 1.028 1.394 1.38 2.06l.61 1.213v1.333l-1.797.91-1.317-.183-1.317-.151-4.913.333c-2.73.212-5.556.455-6.295.546l-1.38.181v-3.787Z" fill="#FFC96C"/><path d="m91.077 8.455-.578-.88.418-.242.45-.272h-.322l-.32-.03.61-.304.577-.333 1.028.97h-.739l.16.454.194.455h-.675l-.192 1.03-.61-.848ZM87.384 6.152l-1.734-.91h-1.124l-.193-.757-.224-.788.224-.303.193-.303.996.182c.578.09 1.798.545 2.73.97l1.67.757v.848h-.61l-.097.607-.097.575-1.734-.878Z" fill="#FFE9AD"/><path d="M36.932 113.242c0-.09.45-.697.963-1.363l.996-1.152.482-1.394.514-1.363 1.348-.909h2.923l2.569.666 2.184 2.121 2.216 2.122-.16.151c-.161.121-11.948 1.273-13.457 1.303-.321 0-.578-.091-.578-.182ZM51.865 106.364l-1.605-.243-.225-.363c-.129-.213-.257-.485-.257-.637v-.273l1.702.213c.9.121 2.152.272 2.73.394l1.06.151-.354.394c-.514.576-1.252.667-3.05.364ZM46.117 102.515l-2.537-.909-.61-.485-.579-.515v-1.94l.578-.484.61-.515h.61c.354 0 1.864.394 3.373.879l2.73.848 3.147.242 3.115.213-1.156 1.212-6.198-.364-.193.788-.225.788.386 1.151h-.257a56.378 56.378 0 0 1-2.794-.909ZM47.37 96.91l-2.859-1.031-.418-.515-.417-.546v-1.606l.578-.454c.29-.273.77-.546 1.028-.606l.482-.152 3.147 1.03 3.115 1h5.138v.243c0 .12-.16.394-.385.606l-.386.363h-5.94l-.097 1.334-.096 1.363-2.89-1.03ZM56.747 90.697l.192-1.242-1.027.909-.996.878-2.569.425-.931-.213-.932-.181-.514-.546c-.288-.303-.674-1-.834-1.515l-.29-.97.193-.454.16-.424h2.666l2.858-.576 2.89-.576 1.06.788 1.093.758-.225.939c-.097.515-.482 1.454-.803 2.09l-.61 1.122h-1.542l.16-1.212ZM51.03 70.576c-.642-.212-1.605-.697-2.151-1.06l-.996-.637-.803-1.606-.835-1.576-.32-1.606c-.386-1.94-.515-2.182-1.253-2.182h-.546l-1.735-1.697v-1.576l1.157-.697 1.156-.666 2.697-.819c1.478-.454 2.762-.878 2.858-.97l.161-.15L49.264 53c-.642-1.273-1.22-2.303-1.317-2.303-.546 0-4.367 1.97-5.716 2.97l-1.606 1.151-.096.546-.129.515 1.092 1.151-.16.485-.193.455h-.45c-.257 0-.835-.273-1.316-.637l-.835-.606v-1.515l.481-.879.482-.909 1.702-1.151c3.565-2.425 7.419-3.91 12.59-4.788l2.89-.485 5.234-.06 5.235-.091 2.216-2.03.32-1.092c.162-.575.322-1.515.322-2.06v-1l.739.09.706.092.097 1.212.128 1.212-.385 1.151-.354 1.152-1.156 1.212-1.124 1.182.418.12c.257.092 1.927.577 3.725 1.122l3.308 1 .803-.758-.065-2.787c-.032-1.546-.096-3.273-.16-3.849l-.096-1.03.546-.121.578-.091.353.848c.193.455.482 1.606.642 2.515l.29 1.667-.29 1.667c-.16.909-.61 2.424-.963 3.363l-.675 1.697-3.79 5.394-3.05 2.91-3.019 2.939-2.376 1.666c-1.317.91-3.308 2.152-4.464 2.758l-2.088 1.06-1.927.486-1.894.454H53.31l-1.124-.03-1.156-.394Zm5.428-1.758 1.477-.333 1.959-1.06c2.955-1.576 4.914-3.122 8.896-6.97l3.629-3.546-1.124-.09c-.61-.031-2.505-.364-4.175-.698l-3.051-.666-3.693.181-3.694.212-1.862.425c-1.028.212-1.895.454-1.96.515-.096.09.932 12.03 1.06 12.333.065.152 1.125.03 2.538-.303Zm-4.432-.06c0-.91-1.028-11.243-1.124-11.334-.225-.212-2.955.515-4.85 1.303l-1.798.758.129.364.16.393 1.188.182 1.22.182.579.849v2.181l.45 1.455.481 1.454 2.409 2.334h.578c.32 0 .578-.06.578-.121Zm22.48-14.546.482-.97c.257-.545.482-1.09.482-1.242v-.303l-7.772-2.242-.193.151-.192.182 1.091 3.273 2.57 2.181h1.67l1.862-1.03Zm-17.984.121 2.087-.363h3.533l3.533-.03.899.333c.481.212.867.303.867.272 0-.06-.29-.606-.642-1.272l-.643-1.182-.353-1.788-.385-1.818-10.341.364-2.409.484c-1.317.273-2.505.606-2.601.697l-.225.212 1.156 2.394L52.154 55l1.124-.151c.643-.091 2.088-.334 3.244-.516Z" fill="#fff"/><path d="m158.968 147.486-4.369-27.711c-59.286-8.235-92.258-8.135-150.734 0L0 147.486l5.457 9.787 5.043-.091 5.21 12.727c45.021.072 84.316.091 129.749.091l4.873-12.727h3.472l5.164-9.787Z" fill="#FFB000"/><path d="m155.435 146.818-4.175-24.242c-56.65-7.204-88.157-7.117-144.034 0l-3.693 24.242 3.69 6.97 6.07-.091 4.978 12.727c43.086.063 81.254.091 124.604.091l4.656-12.727h4.346l3.558-6.97Z" fill="#013346"/><path d="m150.603 147.027-1.215 2.799-12.602-.208 1.214-2.8 12.603.209ZM8 147.027l1.408 2.799 12.225-.208-1.408-2.8L8 147.027Z" fill="#fff"/></svg>