<svg id="Layer_1" data-name="Layer 1" xmlns="http://www.w3.org/2000/svg" width="50" height="50" viewBox="0 0 50 50">
  <title>img2</title>
  <circle cx="25" cy="25" r="24" style="fill: #f4c225"/>
  <polygon points="37.991 27 3.327 27 4.365 15.142 39.028 15.142 37.991 27" style="fill: #fff"/>
  <g>
    <path d="M7.79395,19.51514a3.98835,3.98835,0,0,1,1.24023.18652,3.055,3.055,0,0,1,1.00244.5332,2.56668,2.56668,0,0,1,.67773.83789,2.64868,2.64868,0,0,1,.27832,1.104,3.49989,3.49989,0,0,0,.105.51953,1.78238,1.78238,0,0,0,.21289.48242,1.18486,1.18486,0,0,0,.34277.35693.87185.87185,0,0,0,.50293.14014.79837.79837,0,0,0,.3833-.09229,1.00441,1.00441,0,0,0,.30176-.24414,1.24927,1.24927,0,0,0,.20557-.35107,1.49949,1.49949,0,0,0,.0957-.41455,1.92307,1.92307,0,0,0-.08594-.80371,1.99834,1.99834,0,0,0-.35352-.63721,2.139,2.139,0,0,0-1.13232-.708l.228-.90967a3.95357,3.95357,0,0,1,.59131.18262,3.46824,3.46824,0,0,1,.58154.2959,2.99992,2.99992,0,0,1,.52148.42334,2.3796,2.3796,0,0,1,.41016.563,2.58984,2.58984,0,0,1,.24854.71631,3.09929,3.09929,0,0,1,.03711.88135,2.722,2.722,0,0,1-.23633.93994,2.028,2.028,0,0,1-.481.65332,1.89148,1.89148,0,0,1-.6665.3833,2.50332,2.50332,0,0,1-.793.12354,1.55191,1.55191,0,0,1-.47607-.06982,1.60926,1.60926,0,0,1-.40088-.188,1.664,1.664,0,0,1-.3208-.27295,1.8976,1.8976,0,0,1-.23828-.32227,1.8503,1.8503,0,0,1-.7627.645,2.39415,2.39415,0,0,1-1.00342.208,1.53784,1.53784,0,0,1-.397-.05322,1.77779,1.77779,0,0,1-.39209-.15674,1.608,1.608,0,0,1-.34912-.25293,1.273,1.273,0,0,1-.25928-.34229,2.11288,2.11288,0,0,1-.3125.37061,1.7604,1.7604,0,0,1-.34033.251,1.44387,1.44387,0,0,1-.70361.18359,1.529,1.529,0,0,1-.57275-.106,1.374,1.374,0,0,1-.46191-.29834,1.2569,1.2569,0,0,1-.29834-.46533,1.367,1.367,0,0,1-.07422-.605,1.4365,1.4365,0,0,1,.18066-.58936,1.61415,1.61415,0,0,1,.38525-.46143,1.8089,1.8089,0,0,1,.52295-.30029,1.68391,1.68391,0,0,1,.59473-.1084,1.337,1.337,0,0,1,.49756.083,1.28178,1.28178,0,0,1,.36865.21777,1.7291,1.7291,0,0,1,.2793.31055c.08057.1167.15625.23535.229.355.07227.12061.145.23828.21777.355a1.76717,1.76717,0,0,0,.24512.31055,1.10032,1.10032,0,0,0,.312.21875.96756.96756,0,0,0,.41553.08154.91125.91125,0,0,0,.40869-.09033,1.00948,1.00948,0,0,0,.31787-.24023,1.20721,1.20721,0,0,0,.21484-.3501,1.46827,1.46827,0,0,0,.10059-.42139,1.88741,1.88741,0,0,0-.123-.90381,1.8331,1.8331,0,0,0-.48-.67529,2.15672,2.15672,0,0,0-.73437-.42285,2.68929,2.68929,0,0,0-.8877-.147Zm-.97607,3.688a.74608.74608,0,0,0-.0918-.187.83276.83276,0,0,0-.13867-.15918.60764.60764,0,0,0-.168-.11084.46855.46855,0,0,0-.187-.04.64993.64993,0,0,0-.20312.03223.53087.53087,0,0,0-.17676.09424.51481.51481,0,0,0-.12988.15576.538.538,0,0,0-.063.21484.49066.49066,0,0,0,.0249.21875.45048.45048,0,0,0,.10205.15967.417.417,0,0,0,.16016.1001.55144.55144,0,0,0,.19727.03418.4962.4962,0,0,0,.2002-.04395.86323.86323,0,0,0,.19092-.11572,1.13591,1.13591,0,0,0,.16455-.16406A.90127.90127,0,0,0,6.81787,23.20313Zm1.32227-2.79h-.4248l-1.46094-1.584.00488-.05518.74414-.66943,1.00537,1.39014,2.09668-2.248.66748.71289-.00488.05664Z" style="fill: #17479e;stroke: #17479e;stroke-miterlimit: 10;stroke-width: 0.25px"/>
    <path d="M17.36133,18.88184h-2.4209l.0752-.86182h2.4209Zm.54248,5.7959a2.904,2.904,0,0,1-.69189-.08154,2.75777,2.75777,0,0,1-.62891-.23633,2.35027,2.35027,0,0,1-.53027-.38135,2.17485,2.17485,0,0,1-.39746-.51465,2.26618,2.26618,0,0,1-.23486-.63721,2.53075,2.53075,0,0,1-.03955-.74609,2.61342,2.61342,0,0,1,.168-.72607A2.74211,2.74211,0,0,1,15.895,20.728a2.7947,2.7947,0,0,1,.48682-.51172,3.13046,3.13046,0,0,1,1.26318-.61865,3.07748,3.07748,0,0,1,.71045-.08252,2.90975,2.90975,0,0,1,.69482.08252,2.65083,2.65083,0,0,1,.62842.23828,2.44657,2.44657,0,0,1,.52734.38037,2.15258,2.15258,0,0,1,.39893.51172,2.28975,2.28975,0,0,1,.23584.62646,2.40253,2.40253,0,0,1,.04.72607,2.70781,2.70781,0,0,1-.16895.748,2.76852,2.76852,0,0,1-.835,1.1499,2.99726,2.99726,0,0,1-.5957.38135,3.26816,3.26816,0,0,1-.66992.23633A3.09076,3.09076,0,0,1,17.90381,24.67773Zm.07666-4.30078H15.55859l.0752-.86182h2.42188Zm.29346.07227a1.97643,1.97643,0,0,0-.68945.11865,1.78427,1.78427,0,0,0-.56592.33057,1.69538,1.69538,0,0,0-.3999.51074,1.76778,1.76778,0,0,0-.186.66357,1.6598,1.6598,0,0,0,.06934.67139,1.399,1.399,0,0,0,.81592.87549,1.715,1.715,0,0,0,.66748.12451,1.89159,1.89159,0,0,0,.689-.12451,1.78308,1.78308,0,0,0,.97021-.87549,1.82839,1.82839,0,0,0,.1875-.67139,1.60269,1.60269,0,0,0-.0708-.66357,1.32311,1.32311,0,0,0-.31006-.51074,1.41085,1.41085,0,0,0-.51025-.33057A1.80741,1.80741,0,0,0,18.27393,20.44922Zm-.3999-1.56738h-1.0498l.0752-.86182h1.0498Zm2.10107.31689q.0271-.31641-.42529-.31689H17.59766l.0752-.86182H19.625a2.12033,2.12033,0,0,1,.60254.07764,1.17426,1.17426,0,0,1,.43506.22852.8648.8648,0,0,1,.25146.37354,1.212,1.212,0,0,1,.05371.51465,1.30505,1.30505,0,0,1-.14355.51074,1.057,1.057,0,0,1-.31592.36279,1.41244,1.41244,0,0,1-.47412.21729,2.452,2.452,0,0,1-.61523.07178H18.27637l.0752-.86182h1.14258C19.7959,19.51514,19.95654,19.41016,19.9751,19.19873ZM18.67773,20.377H17.627l.0752-.86182h1.05078Z" style="fill: #17479e;stroke: #17479e;stroke-miterlimit: 10;stroke-width: 0.25px"/>
    <path d="M28.40137,19.14648a2.53154,2.53154,0,0,0-.13965-.23437,1.52872,1.52872,0,0,0-.24512-.28516,1.49062,1.49062,0,0,0-.36035-.23828,1.10054,1.10054,0,0,0-.47852-.10059,1.20312,1.20312,0,0,0-.37109.05273.90785.90785,0,0,0-.27832.14014.64206.64206,0,0,0-.18164.20605.65292.65292,0,0,0-.0752.251.46377.46377,0,0,0,.06055.28418,1.04638,1.04638,0,0,0,.209.24707,3.56861,3.56861,0,0,0,.30859.24023c.11523.082.23242.17139.35254.27051a5.06376,5.06376,0,0,1,.47949.45361,2.74117,2.74117,0,0,1,.40527.563,2.67372,2.67372,0,0,1,.26367.70361,2.77541,2.77541,0,0,1,.04785.87354,2.57376,2.57376,0,0,1-.2627.97949,1.98722,1.98722,0,0,1-.52344.65186,2.01684,2.01684,0,0,1-.7002.36084,2.84212,2.84212,0,0,1-.79492.11182,1.90846,1.90846,0,0,1-.67187-.104,1.55322,1.55322,0,0,1-.479-.27441,1.627,1.627,0,0,1-.33252-.38721,3.91764,3.91764,0,0,1-.23633-.44434q-.10181-.22925-.19189-.44482a2.64977,2.64977,0,0,0-.19434-.38721.95609.95609,0,0,0-.24463-.27393.55824.55824,0,0,0-.34717-.10547.63449.63449,0,0,0-.31934.0752.72965.72965,0,0,0-.21582.18164.78331.78331,0,0,0-.12842.231.90979.90979,0,0,0-.05176.22266,1.23843,1.23843,0,0,0,.00684.28613.92221.92221,0,0,0,.08838.27686,1.36913,1.36913,0,0,0,.189.28223,2.45127,2.45127,0,0,0,.3125.30078l-.686.79a2.421,2.421,0,0,1-.51416-.46533,2.06116,2.06116,0,0,1-.3042-.49512,1.76886,1.76886,0,0,1-.13428-.499,2.37366,2.37366,0,0,1-.00879-.47656,2.02978,2.02978,0,0,1,.15869-.62354,1.839,1.839,0,0,1,.36279-.54883,1.73619,1.73619,0,0,1,.56543-.39111,1.8781,1.8781,0,0,1,.77051-.14893,1.618,1.618,0,0,1,.6084.104,1.4345,1.4345,0,0,1,.43848.27539,1.79812,1.79812,0,0,1,.31592.38623,4.64268,4.64268,0,0,1,.2373.4458c.0708.15186.13916.30029.20361.44434a2.28286,2.28286,0,0,0,.21875.38721,1.02483,1.02483,0,0,0,.28271.27441.70153.70153,0,0,0,.38916.104,1.04434,1.04434,0,0,0,.40332-.08154,1.16134,1.16134,0,0,0,.35645-.23828,1.33126,1.33126,0,0,0,.26758-.3833,1.48626,1.48626,0,0,0,.13477-.51953,1.87921,1.87921,0,0,0-.01953-.52051,1.48242,1.48242,0,0,0-.14355-.42334,1.69377,1.69377,0,0,0-.24512-.353,3.38321,3.38321,0,0,0-.3252-.31445c-.166-.1416-.33789-.28076-.51172-.41895a4.00462,4.00462,0,0,1-.47217-.43115,1.91716,1.91716,0,0,1-.333-.48047,1.08453,1.08453,0,0,1-.09521-.57715,1.7525,1.7525,0,0,1,.23779-.73145,1.757,1.757,0,0,1,.26416-.3374,1.63683,1.63683,0,0,1,.37793-.27832,2.11032,2.11032,0,0,1,.499-.19092,2.61776,2.61776,0,0,1,.62891-.06982,1.55587,1.55587,0,0,1,.52051.08447,2.13912,2.13912,0,0,1,.42773.20068,2.09532,2.09532,0,0,1,.32324.24219c.08984.08447.16016.15576.21191.21484a2.14064,2.14064,0,0,1,.32129-.30322,2.43877,2.43877,0,0,1,.30762-.20264,2.59973,2.59973,0,0,1,.26953-.12842c.082-.03125.15234-.05811.21-.07959a1.11293,1.11293,0,0,1-.11133-.26074.76132.76132,0,0,1-.03027-.27637,1.106,1.106,0,0,1,.11523-.40283,1.16684,1.16684,0,0,1,.26758-.34717,1.28865,1.28865,0,0,1,.41016-.24414,1.52127,1.52127,0,0,1,.54883-.09277,1.46453,1.46453,0,0,1,.43652.06055,1.272,1.272,0,0,1,.33789.16064,1.30948,1.30948,0,0,1,.25684.22656,1.9882,1.9882,0,0,1,.19043.25781l-.68652.56152a.69121.69121,0,0,0-.26465-.28809.66328.66328,0,0,0-.34375-.09619.51958.51958,0,0,0-.1582.021.39588.39588,0,0,0-.10937.05664.269.269,0,0,0-.06543.07178.15614.15614,0,0,0-.02734.07031.28466.28466,0,0,0,.0957.24121,1.4386,1.4386,0,0,0,.27539.19336c.1123.06348.2334.12939.36426.19873a1.90542,1.90542,0,0,1,.3584.251,1.08394,1.08394,0,0,1,.26074.355.973.973,0,0,1,.07129.5127,1.27467,1.27467,0,0,1-.44043.87744,1.3198,1.3198,0,0,1-.416.24121,1.43887,1.43887,0,0,1-.48633.084,1.17488,1.17488,0,0,1-.49316-.09814,1.049,1.049,0,0,1-.57324-.62988.99883.99883,0,0,1-.05176-.42187.93087.93087,0,0,1,.02051-.12842.82865.82865,0,0,1,.04688-.14014,1.2139,1.2139,0,0,0-.21191.13428,2.30543,2.30543,0,0,0-.2168.19141c-.07129.07129-.13672.145-.20117.22314a2.1289,2.1289,0,0,0-.16016.22852Zm2.34473-.22119a.3917.3917,0,0,0,.13867-.0249.40435.40435,0,0,0,.20605-.1792.3571.3571,0,0,0,.02344-.28418.41781.41781,0,0,0-.07422-.12256.48047.48047,0,0,0-.1084-.09229.58386.58386,0,0,0-.11914-.05859.65675.65675,0,0,0-.13281.05859.5816.5816,0,0,0-.12207.09229.4804.4804,0,0,0-.09277.12256.36691.36691,0,0,0-.0459.14795.28691.28691,0,0,0,.085.24414A.33175.33175,0,0,0,30.74609,18.92529Z" style="fill: #17479e;stroke: #17479e;stroke-miterlimit: 10;stroke-width: 0.25px"/>
    <path d="M33.25586,26.33008a1.469,1.469,0,0,1-.53418-.09082,1.17128,1.17128,0,0,1-.39453-.24219.93849.93849,0,0,1-.23535-.355.96259.96259,0,0,1-.05664-.43115,1.02587,1.02587,0,0,1,.126-.4082,1.1542,1.1542,0,0,1,.291-.34668,1.4766,1.4766,0,0,1,.43359-.24121,1.658,1.658,0,0,1,.55566-.08936,1.60464,1.60464,0,0,1,.42383.05127,1.77532,1.77532,0,0,1,.332.13037,1.60363,1.60363,0,0,1,.2627.17432c.07715.06445.14941.12549.21582.18506a2.54171,2.54171,0,0,0,.24316-.38525,2.7304,2.7304,0,0,0,.15723-.37842,2.80949,2.80949,0,0,0,.09277-.36719c.02148-.12061.03613-.23828.0459-.353a2.9906,2.9906,0,0,0-.0957-1.14209,2.35043,2.35043,0,0,0-1.17773-1.43311,3.29828,3.29828,0,0,0-.89746-.31885l.22754-.76953a3.50309,3.50309,0,0,1,1.26758.42529,3.048,3.048,0,0,1,.91309.80518,3.16531,3.16531,0,0,1,.52246,1.10645,3.92836,3.92836,0,0,1,.09766,1.32666,3.03279,3.03279,0,0,1-.12109.63525,4.1473,4.1473,0,0,1-.2168.57227,3.84543,3.84543,0,0,1-.2627.47656,3.37513,3.37513,0,0,1-.26172.34814,1.71346,1.71346,0,0,0,.23145.21338.47384.47384,0,0,0,.29492.09619.729.729,0,0,0,.42578-.14893,1.16334,1.16334,0,0,0,.36035-.46094l.68164.37354a2.09983,2.09983,0,0,1-.33887.51855,1.67038,1.67038,0,0,1-.38574.31934,1.44784,1.44784,0,0,1-.41211.16016,1.97011,1.97011,0,0,1-.40527.04395,1.39145,1.39145,0,0,1-.31055-.03223,1.223,1.223,0,0,1-.27246-.09668,1.58427,1.58427,0,0,1-.25488-.1582,2.99387,2.99387,0,0,1-.25-.21436,1.98661,1.98661,0,0,1-.60742.37061A1.93541,1.93541,0,0,1,33.25586,26.33008Zm.11523-1.44287a.53325.53325,0,0,0-.334.09814.31487.31487,0,0,0-.13965.22559.25213.25213,0,0,0,.03027.15479.36127.36127,0,0,0,.10254.11182.43833.43833,0,0,0,.14453.06836.58651.58651,0,0,0,.15625.02246.93587.93587,0,0,0,.40723-.09668,1.65386,1.65386,0,0,0,.38477-.25684,1.2167,1.2167,0,0,0-.31836-.23437A.9407.9407,0,0,0,33.37109,24.88721Z" style="fill: #17479e;stroke: #17479e;stroke-miterlimit: 10;stroke-width: 0.25px"/>
  </g>
  <polygon points="43.05 38.858 13.86 38.858 14.818 27.912 44.008 27.912 43.05 38.858" style="fill: #fff"/>
  <g>
    <path d="M18.8667,30.60645a4.172,4.172,0,0,1,.918.09863,3.4311,3.4311,0,0,1,.80225.28223,2.83206,2.83206,0,0,1,.65771.45313,2.54975,2.54975,0,0,1,.48682.6084,2.62814,2.62814,0,0,1,.28125.75,2.99458,2.99458,0,0,1,.04492.87793,2.68294,2.68294,0,0,1-.23584.93359,2.041,2.041,0,0,1-.48.65234,1.89672,1.89672,0,0,1-.667.38281,2.50186,2.50186,0,0,1-.792.124,1.539,1.539,0,0,1-.397-.05371,1.83908,1.83908,0,0,1-.39258-.15625,1.65067,1.65067,0,0,1-.34863-.25293,1.26532,1.26532,0,0,1-.25928-.34277,2.17546,2.17546,0,0,1-.3125.37109,1.7685,1.7685,0,0,1-.34082.251,1.45463,1.45463,0,0,1-.70312.18359,1.52931,1.52931,0,0,1-.57275-.10645,1.36252,1.36252,0,0,1-.4624-.29883,1.25931,1.25931,0,0,1-.29834-.46484,1.36489,1.36489,0,0,1-.07373-.60449,1.41971,1.41971,0,0,1,.18066-.58984,1.61842,1.61842,0,0,1,.38477-.46094,1.81931,1.81931,0,0,1,.52344-.30078,1.68126,1.68126,0,0,1,.59424-.1084,1.337,1.337,0,0,1,.49756.083,1.30021,1.30021,0,0,1,.36914.21777,1.72911,1.72911,0,0,1,.2793.31055c.08057.11621.15625.23535.22852.35547q.10913.18018.21826.35449a1.74937,1.74937,0,0,0,.24512.31055,1.09064,1.09064,0,0,0,.312.21875.96743.96743,0,0,0,.41553.082.90942.90942,0,0,0,.4082-.09082.99686.99686,0,0,0,.31787-.24023,1.2217,1.2217,0,0,0,.21533-.35059,1.47345,1.47345,0,0,0,.10059-.4209,1.88584,1.88584,0,0,0-.60107-1.60156,2.16282,2.16282,0,0,0-.7334-.44043,2.54135,2.54135,0,0,0-.88672-.1543Zm-.97607,3.68848a.75965.75965,0,0,0-.09229-.1875.843.843,0,0,0-.13818-.15918.62825.62825,0,0,0-.168-.11133.48643.48643,0,0,0-.187-.03906.67872.67872,0,0,0-.20312.03125.52223.52223,0,0,0-.36963.46582.49242.49242,0,0,0,.0249.21875.44844.44844,0,0,0,.10205.15918.418.418,0,0,0,.16016.10059.55144.55144,0,0,0,.19727.03418.4962.4962,0,0,0,.2002-.04395.88455.88455,0,0,0,.19092-.11621,1.161,1.161,0,0,0,.16455-.16406A.9459.9459,0,0,0,17.89063,34.29492Zm4.05566-2.82617h-4.4502l.07568-.8623H22.022Zm2.07129-.8623a2.22,2.22,0,0,1,.7832.123,1.50226,1.50226,0,0,1,.53125.32129,1.17182,1.17182,0,0,1,.293.4541,1.227,1.227,0,0,1,.06543.5127,1.27984,1.27984,0,0,1-.16309.53906,1.35711,1.35711,0,0,1-.333.38477,1.3808,1.3808,0,0,1-.42969.23242,1.40212,1.40212,0,0,1-.45312.0791,1.26234,1.26234,0,0,1-.43408-.0791,1.10076,1.10076,0,0,1-.38428-.23242,1.07867,1.07867,0,0,1-.26318-.38477,1.137,1.137,0,0,1-.06885-.53906,1.1632,1.1632,0,0,1,.063-.28418.90679.90679,0,0,1,.145-.26465h-3.207l.07568-.8623Zm.36523,1.78418a.45812.45812,0,0,0,.2832-.09668.36741.36741,0,0,0,.14258-.27637.38643.38643,0,0,0-.02734-.19434.44834.44834,0,0,0-.0918-.13574.39306.39306,0,0,0-.11914-.083.368.368,0,0,0-.10742-.03223.41534.41534,0,0,0-.11133.03223.48129.48129,0,0,0-.13086.083.55234.55234,0,0,0-.11719.13574.43808.43808,0,0,0-.06055.19434.31586.31586,0,0,0,.08789.27637A.35343.35343,0,0,0,24.38281,32.39063Z" style="fill: #17479e;stroke: #17479e;stroke-miterlimit: 10;stroke-width: 0.25px"/>
    <path d="M28.81055,35.76953a2.91039,2.91039,0,0,1-.69336-.082,2.77511,2.77511,0,0,1-.62891-.23633,2.4041,2.4041,0,0,1-.53027-.38086,2.16806,2.16806,0,0,1-.39648-.51465,2.2607,2.2607,0,0,1-.23535-.6377,2.5647,2.5647,0,0,1-.03906-.74609,2.606,2.606,0,0,1,.168-.72559,2.75413,2.75413,0,0,1,.3457-.627,2.80775,2.80775,0,0,1,.48633-.51172,3.15227,3.15227,0,0,1,1.26367-.61816,3.04951,3.04951,0,0,1,.71094-.083,2.88723,2.88723,0,0,1,.69434.083,2.64157,2.64157,0,0,1,.62891.23828,2.47747,2.47747,0,0,1,.52832.37988,2.182,2.182,0,0,1,.39746.51172,2.23631,2.23631,0,0,1,.23535.627,2.42938,2.42938,0,0,1,.041.72559,2.70839,2.70839,0,0,1-.16992.748,2.77379,2.77379,0,0,1-.3457.63574,2.83531,2.83531,0,0,1-.48828.51465,2.98793,2.98793,0,0,1-.59668.38086,3.26816,3.26816,0,0,1-.66992.23633A3.085,3.085,0,0,1,28.81055,35.76953Zm.85742-4.81348H28.35352L27.29785,29.8125l.00488-.05664.74414-.66895,1.00586,1.3916,2.0957-2.249.668.71387-.00488.05566Zm-.4873.584a1.97619,1.97619,0,0,0-.69043.11914,1.79863,1.79863,0,0,0-.56641.33105,1.6761,1.6761,0,0,0-.39941.51074,1.77477,1.77477,0,0,0-.18652.66309,1.65646,1.65646,0,0,0,.06934.6709,1.40069,1.40069,0,0,0,.81641.876,1.7085,1.7085,0,0,0,.66895.125,1.87952,1.87952,0,0,0,.6875-.125,1.78467,1.78467,0,0,0,.9707-.876,1.84127,1.84127,0,0,0,.18652-.6709A1.609,1.609,0,0,0,30.668,32.501a1.31529,1.31529,0,0,0-.31152-.51074,1.40986,1.40986,0,0,0-.50977-.33105A1.80407,1.80407,0,0,0,29.18066,31.54Z" style="fill: #17479e;stroke: #17479e;stroke-miterlimit: 10;stroke-width: 0.25px"/>
    <path d="M26.80371,37.53027H29.7334a.89823.89823,0,0,1-.05664-.17871.73506.73506,0,0,1-.0127-.21094.76443.76443,0,0,1,.09668-.31445.84326.84326,0,0,1,.21-.24023.99217.99217,0,0,1,.28125-.15234.94345.94345,0,0,1,.31152-.05469.83964.83964,0,0,1,.29.05273.7423.7423,0,0,1,.25977.15625.72058.72058,0,0,1,.22461.61328.86435.86435,0,0,1-.31445.59375,1.10294,1.10294,0,0,1-.36328.19141,1.6421,1.6421,0,0,1-.51953.07324H26.75781Zm3.67871-.07715a.50747.50747,0,0,0,.11719-.05957.487.487,0,0,0,.08594-.082.229.229,0,0,0,.04492-.123.204.204,0,0,0-.05371-.17383.224.224,0,0,0-.15918-.05859.23719.23719,0,0,0-.23633.23242.18567.18567,0,0,0,.02344.123.35527.35527,0,0,0,.07031.082A.40358.40358,0,0,0,30.48242,37.45313Z" style="fill: #17479e;stroke: #17479e;stroke-miterlimit: 10;stroke-width: 0.25px"/>
    <path d="M36.02148,35.76953a5.25438,5.25438,0,0,1-1.51855-.19434,2.87379,2.87379,0,0,1-1.04687-.543,1.9625,1.9625,0,0,1-.58105-.82812,2.42793,2.42793,0,0,1-.124-1.05176,3.002,3.002,0,0,1,.12207-.61719,3.1019,3.1019,0,0,1,.25-.58789,2.85464,2.85464,0,0,1,.36523-.5166,2.33622,2.33622,0,0,1,1.05664-.6875,2.20143,2.20143,0,0,1,.66992-.10059,1.41662,1.41662,0,0,1,.625.124,1.153,1.153,0,0,1,.40137.31445,1.06287,1.06287,0,0,1,.20313.41992,1.32428,1.32428,0,0,1,.03613.43652,1.38768,1.38768,0,0,1-.43262.8916,1.40146,1.40146,0,0,1-.4375.27832,1.41918,1.41918,0,0,1-.55566.10449,1.2581,1.2581,0,0,1-.4082-.06152,1.01952,1.01952,0,0,1-.3125-.17285.921.921,0,0,1-.22168-.26465,1.29356,1.29356,0,0,1-.13086-.33887H33.9375a1.45225,1.45225,0,0,0-.13965.333,1.68544,1.68544,0,0,0-.05566.28906,1.48519,1.48519,0,0,0,.06738.63281,1.29267,1.29267,0,0,0,.28613.46875,1.618,1.618,0,0,0,.43945.32715,2.72706,2.72706,0,0,0,.5293.20605,3.43583,3.43583,0,0,0,.55176.10645,4.62034,4.62034,0,0,0,.50977.03027,4.21647,4.21647,0,0,0,.47266-.03027,4.04345,4.04345,0,0,0,.55762-.10254,3.7808,3.7808,0,0,0,.57227-.19043,2.22418,2.22418,0,0,0,.5127-.2959,1.65939,1.65939,0,0,0,.38477-.4209,1.24725,1.24725,0,0,0,.18066-.56348,1.26442,1.26442,0,0,0-.0957-.64453,1.44352,1.44352,0,0,0-.34863-.48242,1.94613,1.94613,0,0,0-.502-.32812,2.99879,2.99879,0,0,0-.55664-.19336l.22754-.90918a5.71665,5.71665,0,0,1,.55957.15625,3.87991,3.87991,0,0,1,.5625.24023,3.06022,3.06022,0,0,1,.51074.34082,2.05275,2.05275,0,0,1,.40918.46094,1.97948,1.97948,0,0,1,.25391.59961,2.29929,2.29929,0,0,1,.04688.75586,2.42731,2.42731,0,0,1-.33594,1.04395,2.69675,2.69675,0,0,1-.78418.82813,3.89632,3.89632,0,0,1-1.18848.543A5.679,5.679,0,0,1,36.02148,35.76953Zm-.88965-3.44336a.414.414,0,0,0,.16309-.03418.52738.52738,0,0,0,.14453-.08984.42026.42026,0,0,0,.10547-.13477.42957.42957,0,0,0,.04883-.166.37813.37813,0,0,0-.11328-.32715.49173.49173,0,0,0-.34766-.12207.80986.80986,0,0,0-.26465.04492.74688.74688,0,0,0-.13086.35645.4347.4347,0,0,0,.0957.34473A.38273.38273,0,0,0,35.13184,32.32617Zm5.916,2.44141a.79275.79275,0,0,0,.38281-.09277.99845.99845,0,0,0,.30176-.24414,1.2508,1.2508,0,0,0,.20508-.35156,1.47222,1.47222,0,0,0,.09668-.41406,1.92307,1.92307,0,0,0-.08594-.80371,1.99066,1.99066,0,0,0-.35352-.63672,2.07017,2.07017,0,0,0-.52734-.45508,2.11409,2.11409,0,0,0-.60449-.25391l.22656-.90918a3.98119,3.98119,0,0,1,.5918.18262,3.4632,3.4632,0,0,1,.58105.2959,2.99755,2.99755,0,0,1,.52344.42383,2.40444,2.40444,0,0,1,.40918.5625,2.61922,2.61922,0,0,1,.248.7168,3.112,3.112,0,0,1,.03711.88086,2.73831,2.73831,0,0,1-.23633.93945,2.02582,2.02582,0,0,1-.48047.6543,1.901,1.901,0,0,1-.667.38281,2.50406,2.50406,0,0,1-.792.124,1.49765,1.49765,0,0,1-.67285-.14648,1.77212,1.77212,0,0,1-.50684-.36816,1.84382,1.84382,0,0,1-.333-.48145,1.64821,1.64821,0,0,1-.15039-.48242l.63281-1.13867a3.50324,3.50324,0,0,0,.09082.54492,2.002,2.002,0,0,0,.20508.52344,1.21989,1.21989,0,0,0,.34961.39258A.887.887,0,0,0,41.04785,34.76758Z" style="fill: #17479e;stroke: #17479e;stroke-miterlimit: 10;stroke-width: 0.25px"/>
  </g>
</svg>
