<svg id="Layer_1" data-name="Layer 1" xmlns="http://www.w3.org/2000/svg" width="50" height="50" viewBox="0 0 50 50">
  <title>img2</title>
  <circle cx="25" cy="25" r="24" style="fill: #f4c225"/>
  <g>
    <path d="M8.27344,18.7749a4.5632,4.5632,0,0,1,1.415.21289,3.49578,3.49578,0,0,1,1.14307.6084,2.95831,2.95831,0,0,1,.77295.95508,3.00657,3.00657,0,0,1,.31738,1.25977,3.91562,3.91562,0,0,0,.12012.59277,2.0167,2.0167,0,0,0,.2417.55029,1.37975,1.37975,0,0,0,.39209.40674.99429.99429,0,0,0,.57373.16064.91906.91906,0,0,0,.436-.105,1.13569,1.13569,0,0,0,.34473-.2793,1.42344,1.42344,0,0,0,.23438-.3999,1.70788,1.70788,0,0,0,.10986-.47363,2.20722,2.20722,0,0,0-.09863-.9165,2.26555,2.26555,0,0,0-.40234-.72656,2.36407,2.36407,0,0,0-.60205-.51953A2.39259,2.39259,0,0,0,12.582,19.813l.25977-1.03809a4.52108,4.52108,0,0,1,.67383.208,3.93282,3.93282,0,0,1,.66309.33887,3.38289,3.38289,0,0,1,.59619.48242,2.72119,2.72119,0,0,1,.46729.64209,2.98885,2.98885,0,0,1,.2832.81641,3.54754,3.54754,0,0,1,.042,1.00586,3.09224,3.09224,0,0,1-.26953,1.07178,2.31256,2.31256,0,0,1-.54785.74561,2.149,2.149,0,0,1-.76074.43652,2.86734,2.86734,0,0,1-.9043.14209,1.81127,1.81127,0,0,1-.54346-.07959,1.849,1.849,0,0,1-.457-.21533,1.94049,1.94049,0,0,1-.36621-.311,2.147,2.147,0,0,1-.27148-.36768,2.09966,2.09966,0,0,1-.86914.73535,2.73787,2.73787,0,0,1-1.146.23828,1.7133,1.7133,0,0,1-.45117-.0625,2.01319,2.01319,0,0,1-.44824-.17773,1.89579,1.89579,0,0,1-.39795-.28809,1.46623,1.46623,0,0,1-.2959-.39111,2.51572,2.51572,0,0,1-.35645.42334,1.99641,1.99641,0,0,1-.38916.28613,1.6731,1.6731,0,0,1-.80273.21,1.74961,1.74961,0,0,1-.65137-.12158,1.57087,1.57087,0,0,1-.52881-.34033,1.45105,1.45105,0,0,1-.33936-.53027,1.55787,1.55787,0,0,1-.084-.69092,1.65076,1.65076,0,0,1,.20508-.67236,1.8439,1.8439,0,0,1,.43994-.5249,2.06143,2.06143,0,0,1,.59619-.34375,1.94849,1.94849,0,0,1,.67871-.12354,1.56072,1.56072,0,0,1,.56787.09424,1.44155,1.44155,0,0,1,.41992.24951,1.88308,1.88308,0,0,1,.31836.354c.09229.13232.17871.26758.26172.40479.08252.13721.16553.272.24756.4043a1.9906,1.9906,0,0,0,.28076.35449,1.22986,1.22986,0,0,0,.355.249,1.101,1.101,0,0,0,.47412.09424,1.04248,1.04248,0,0,0,.46631-.103,1.15577,1.15577,0,0,0,.36279-.27441,1.396,1.396,0,0,0,.24512-.3999,1.65032,1.65032,0,0,0,.11523-.48047,2.15671,2.15671,0,0,0-.14014-1.03125,2.10344,2.10344,0,0,0-.54834-.76953,2.45233,2.45233,0,0,0-.8374-.48242,3.06007,3.06007,0,0,0-1.0127-.16748ZM7.16016,22.98145a.85487.85487,0,0,0-.10449-.21191.986.986,0,0,0-.15771-.18311A.7724.7724,0,0,0,6.70605,22.46a.5311.5311,0,0,0-.21387-.04541.765.765,0,0,0-.23193.03662.6546.6546,0,0,0-.20166.10693.59825.59825,0,0,0-.14746.1792.58968.58968,0,0,0-.07227.24414.54151.54151,0,0,0,.0293.249.49116.49116,0,0,0,.11572.18311.50953.50953,0,0,0,.18213.11475.64006.64006,0,0,0,.2251.03906.55558.55558,0,0,0,.229-.05078.98577.98577,0,0,0,.2168-.13232,1.24727,1.24727,0,0,0,.18848-.188A1.05256,1.05256,0,0,0,7.16016,22.98145Zm1.50879-3.18213H8.18359l-1.666-1.80566.00537-.064.84912-.76367,1.14648,1.58643,2.3916-2.56543.76074.81445-.00586.06348Z" style="fill: #17479e;stroke: #17479e;stroke-miterlimit: 10;stroke-width: 0.4000000059604645px"/>
    <path d="M18.47412,18.05322H15.7124l.08594-.98389h2.76172Zm.61963,6.61133a3.28176,3.28176,0,0,1-.78955-.09424,3.12727,3.12727,0,0,1-.71729-.26953,2.66145,2.66145,0,0,1-.60449-.43408,2.49944,2.49944,0,0,1-.45361-.5874,2.58172,2.58172,0,0,1-.26758-.72754,2.848,2.848,0,0,1-.04443-.85059,2.89466,2.89466,0,0,1,.19141-.82666,3.11587,3.11587,0,0,1,.39355-.71631,3.20511,3.20511,0,0,1,.55566-.58252,3.54787,3.54787,0,0,1,.67871-.43506,3.59318,3.59318,0,0,1,.76221-.27148,3.51,3.51,0,0,1,.811-.09424,3.30377,3.30377,0,0,1,.7915.09424,3.0219,3.0219,0,0,1,.71729.27148,2.76415,2.76415,0,0,1,.60156.43506,2.46937,2.46937,0,0,1,.45508.58252,2.57061,2.57061,0,0,1,.26855.71631,2.75549,2.75549,0,0,1,.04688.82666,3.10458,3.10458,0,0,1-.19385.85352,3.17288,3.17288,0,0,1-.39453.72461,3.25746,3.25746,0,0,1-.55713.5874,3.3654,3.3654,0,0,1-.68066.43408,3.65937,3.65937,0,0,1-.76416.26953A3.4871,3.4871,0,0,1,19.09375,24.66455Zm.08691-4.90625H16.41895l.08594-.9834H19.2666Zm.33545.082a2.26287,2.26287,0,0,0-.78711.13525,2.049,2.049,0,0,0-.64551.37744,1.93182,1.93182,0,0,0-.45605.58252,2.02584,2.02584,0,0,0-.21191.75684,1.90627,1.90627,0,0,0,.07861.76563,1.60374,1.60374,0,0,0,.35254.60352,1.62583,1.62583,0,0,0,.57764.39551,1.97088,1.97088,0,0,0,.7627.14209,2.16473,2.16473,0,0,0,.78516-.14209,2.03055,2.03055,0,0,0,1.10693-.999,2.08089,2.08089,0,0,0,.21338-.76562,1.82463,1.82463,0,0,0-.08008-.75684,1.53627,1.53627,0,0,0-.35352-.58252,1.627,1.627,0,0,0-.582-.37744A2.07145,2.07145,0,0,0,19.51611,19.84033Zm-.457-1.78711H17.86182l.08594-.98389H19.145Zm2.397.36084c.02148-.24121-.14111-.36084-.48486-.36084H18.74365l.08594-.98389h2.22754a2.39509,2.39509,0,0,1,.68652.08984,1.31559,1.31559,0,0,1,.49707.26074.98139.98139,0,0,1,.28662.4248,1.37929,1.37929,0,0,1,.061.58789,1.47926,1.47926,0,0,1-.16309.58252,1.2103,1.2103,0,0,1-.36035.41357,1.60508,1.60508,0,0,1-.5415.24707,2.725,2.725,0,0,1-.70117.08252H19.51855l.08594-.9834H20.9082C21.252,18.7749,21.43555,18.6543,21.45605,18.41406ZM19.97559,19.7583H18.77832l.08594-.9834h1.19727Z" style="fill: #17479e;stroke: #17479e;stroke-miterlimit: 10;stroke-width: 0.4000000059604645px"/>
    <path d="M30.35645,18.35449a2.91022,2.91022,0,0,0-.16016-.26709,1.74873,1.74873,0,0,0-.28027-.3252,1.6475,1.6475,0,0,0-.41113-.27148A1.2407,1.2407,0,0,0,28.96,17.376a1.37561,1.37561,0,0,0-.42383.05957,1.04115,1.04115,0,0,0-.31738.16016.75268.75268,0,0,0-.207.23584.71908.71908,0,0,0-.08594.28467.52964.52964,0,0,0,.07031.3252,1.14408,1.14408,0,0,0,.23828.28125,3.72381,3.72381,0,0,0,.35059.27393q.19775.14063.40234.30859a5.75269,5.75269,0,0,1,.54688.51758,3.07164,3.07164,0,0,1,.81738,2.44092,2.92536,2.92536,0,0,1-.29883,1.11768,2.227,2.227,0,0,1-1.39648,1.15479,3.24893,3.24893,0,0,1-.90625.12842,2.21452,2.21452,0,0,1-.7666-.11865,1.81287,1.81287,0,0,1-.5459-.31348,1.90148,1.90148,0,0,1-.38086-.44141,4.4639,4.4639,0,0,1-.26758-.50781c-.07861-.17334-.15088-.34277-.21924-.50684a3.105,3.105,0,0,0-.22119-.44189,1.14185,1.14185,0,0,0-.2793-.313.64708.64708,0,0,0-.397-.11865.72367.72367,0,0,0-.36377.08447.8308.8308,0,0,0-.24658.208.88392.88392,0,0,0-.147.2627,1.06911,1.06911,0,0,0-.05859.25391,1.42749,1.42749,0,0,0,.00781.32715,1.06294,1.06294,0,0,0,.1001.31494,1.61628,1.61628,0,0,0,.21729.32324,2.72267,2.72267,0,0,0,.35645.34229l-.78271.90088a2.75528,2.75528,0,0,1-.5874-.53027,2.39743,2.39743,0,0,1-.34619-.56494,2.02464,2.02464,0,0,1-.15332-.56934,2.72,2.72,0,0,1-.01025-.54395,2.32623,2.32623,0,0,1,.18164-.71094,2.101,2.101,0,0,1,.41309-.62646,2.01424,2.01424,0,0,1,.64551-.4458,2.14637,2.14637,0,0,1,.87891-.16895,1.83866,1.83866,0,0,1,.69385.11865,1.65153,1.65153,0,0,1,.501.313,2.05329,2.05329,0,0,1,.35889.44189,5.09776,5.09776,0,0,1,.27051.50684c.08105.17383.15918.34326.23242.50781a2.65045,2.65045,0,0,0,.249.44141,1.21776,1.21776,0,0,0,.32227.31348.81012.81012,0,0,0,.44531.11865,1.17437,1.17437,0,0,0,.458-.09424,1.273,1.273,0,0,0,.4082-.27148,1.52256,1.52256,0,0,0,.30664-.437,1.73654,1.73654,0,0,0,.15234-.59229,2.21807,2.21807,0,0,0-.02148-.59424,1.71753,1.71753,0,0,0-.16406-.48291,1.94187,1.94187,0,0,0-.28027-.40186,3.82118,3.82118,0,0,0-.37109-.35889c-.18945-.16113-.38477-.3208-.584-.47754a4.69795,4.69795,0,0,1-.53809-.49219,2.21381,2.21381,0,0,1-.37988-.54883,1.24884,1.24884,0,0,1-.10937-.65771,2.01324,2.01324,0,0,1,.085-.416A1.94428,1.94428,0,0,1,27,17.27783a1.964,1.964,0,0,1,.30078-.38428,1.90009,1.90009,0,0,1,.43066-.31738,2.35359,2.35359,0,0,1,.56934-.21777,2.96055,2.96055,0,0,1,.71875-.07959,1.75934,1.75934,0,0,1,.59277.09619,2.52721,2.52721,0,0,1,.4873.22852,2.3905,2.3905,0,0,1,.36914.27637A3.39437,3.39437,0,0,1,30.71,17.125a2.487,2.487,0,0,1,.36719-.34521,2.7486,2.7486,0,0,1,.35059-.23145,2.8298,2.8298,0,0,1,.30859-.146c.09277-.03711.17188-.06738.23828-.0918a1.2404,1.2404,0,0,1-.127-.29736.847.847,0,0,1-.03418-.31543,1.25426,1.25426,0,0,1,.13184-.459,1.32924,1.32924,0,0,1,.30371-.396,1.52862,1.52862,0,0,1,.46777-.2793,1.75455,1.75455,0,0,1,.627-.105,1.65919,1.65919,0,0,1,.49707.06885,1.50542,1.50542,0,0,1,.38672.18311,1.5271,1.5271,0,0,1,.293.25781,2.18183,2.18183,0,0,1,.21582.2959l-.7832.64014a.7883.7883,0,0,0-.2998-.33008.76832.76832,0,0,0-.39355-.10986.56907.56907,0,0,0-.17969.02539.44085.44085,0,0,0-.125.064.32765.32765,0,0,0-.0752.083.182.182,0,0,0-.03027.07959.31771.31771,0,0,0,.1084.27441,1.641,1.641,0,0,0,.31543.22168c.127.07227.26465.147.41406.22656a2.08045,2.08045,0,0,1,.40918.28516,1.22478,1.22478,0,0,1,.29785.40479,1.12451,1.12451,0,0,1,.082.58545,1.47788,1.47788,0,0,1-.16211.56934,1.447,1.447,0,0,1-.3418.43213,1.5041,1.5041,0,0,1-.47363.27393,1.62278,1.62278,0,0,1-.55566.09668,1.35759,1.35759,0,0,1-.56152-.11182,1.21481,1.21481,0,0,1-.41016-.29785,1.1996,1.1996,0,0,1-.24512-.42041,1.17462,1.17462,0,0,1-.05762-.48242.94842.94842,0,0,1,.02441-.146.91384.91384,0,0,1,.05176-.16064,1.44912,1.44912,0,0,0-.24219.15283,2.63784,2.63784,0,0,0-.24707.21973,3.40436,3.40436,0,0,0-.22852.25391,2.04326,2.04326,0,0,0-.18164.26074Zm2.67285-.252a.44715.44715,0,0,0,.1582-.02881.48772.48772,0,0,0,.13477-.08008.43952.43952,0,0,0,.10059-.12354.39929.39929,0,0,0,.04785-.15576.37066.37066,0,0,0-.02246-.16895.4466.4466,0,0,0-.083-.13916.56668.56668,0,0,0-.124-.106.69494.69494,0,0,0-.13574-.06641.84915.84915,0,0,0-.15234.06641.60046.60046,0,0,0-.13867.106.61912.61912,0,0,0-.10645.13916.41653.41653,0,0,0-.05176.16895.33319.33319,0,0,0,.09766.2793A.3743.3743,0,0,0,33.0293,18.10254Z" style="fill: #17479e;stroke: #17479e;stroke-miterlimit: 10;stroke-width: 0.4000000059604645px"/>
    <path d="M35.89453,26.54785a1.7036,1.7036,0,0,1-.61133-.10254,1.334,1.334,0,0,1-.44922-.27637,1.08863,1.08863,0,0,1-.333-.89648,1.15483,1.15483,0,0,1,.14453-.4668,1.32433,1.32433,0,0,1,.33105-.395,1.6494,1.6494,0,0,1,.49512-.27441,1.85,1.85,0,0,1,.63281-.103,1.814,1.814,0,0,1,.4834.05908,1.99563,1.99563,0,0,1,.37891.14893,1.73646,1.73646,0,0,1,.2998.19873c.08887.07373.1709.144.24707.21094A2.92819,2.92819,0,0,0,37.79,24.2124a3.03247,3.03247,0,0,0,.28418-.85156c.02441-.13721.042-.27148.05371-.40186a3.4132,3.4132,0,0,0-.10937-1.30322A2.67588,2.67588,0,0,0,36.6748,20.021a3.832,3.832,0,0,0-1.02441-.36377l.25977-.87744a3.96977,3.96977,0,0,1,1.44629.48438,3.45241,3.45241,0,0,1,1.042.91943,3.58043,3.58043,0,0,1,.59668,1.26172,4.48936,4.48936,0,0,1,.11133,1.51367,3.56606,3.56606,0,0,1-.13867.7251,5.15619,5.15619,0,0,1-.24609.65088,4.35471,4.35471,0,0,1-.30176.54443,3.5872,3.5872,0,0,1-.29883.39795,2.122,2.122,0,0,0,.26563.24219.535.535,0,0,0,.33594.10889.83813.83813,0,0,0,.48535-.168,1.34006,1.34006,0,0,0,.41113-.52637l.77734.42529a2.41784,2.41784,0,0,1-.38574.59229,1.89168,1.89168,0,0,1-.44141.36279,1.57043,1.57043,0,0,1-.46875.18359,2.267,2.267,0,0,1-.46387.0498,1.596,1.596,0,0,1-.35254-.03613,1.43011,1.43011,0,0,1-.31055-.10937,1.71054,1.71054,0,0,1-.291-.18164,3.20773,3.20773,0,0,1-.28418-.24365,2.31823,2.31823,0,0,1-.69336.42236A2.22774,2.22774,0,0,1,35.89453,26.54785Zm.12988-1.646a.61771.61771,0,0,0-.38086.11182.36446.36446,0,0,0-.15918.25879.29912.29912,0,0,0,.03418.17627.42245.42245,0,0,0,.11719.12744.50367.50367,0,0,0,.165.07764.63539.63539,0,0,0,.17773.02539,1.06941,1.06941,0,0,0,.46484-.10986,1.92669,1.92669,0,0,0,.43945-.292,1.37859,1.37859,0,0,0-.36328-.26758A1.06157,1.06157,0,0,0,36.02441,24.90186Z" style="fill: #17479e;stroke: #17479e;stroke-miterlimit: 10;stroke-width: 0.4000000059604645px"/>
  </g>
  <g>
    <path d="M17.3457,29.86621a4.78451,4.78451,0,0,1,1.04688.1123,3.97236,3.97236,0,0,1,.916.32227,3.30775,3.30775,0,0,1,.751.5166,2.88153,2.88153,0,0,1,.874,1.5498,3.404,3.404,0,0,1,.05225,1.001,3.06687,3.06687,0,0,1-.269,1.06543,2.31307,2.31307,0,0,1-.54736.74316,2.14174,2.14174,0,0,1-.76123.4375,2.87583,2.87583,0,0,1-.90381.1416,1.7196,1.7196,0,0,1-.45166-.0625,2.02253,2.02253,0,0,1-.44824-.17773,1.86325,1.86325,0,0,1-.39746-.28809,1.45382,1.45382,0,0,1-.2959-.39062,2.57462,2.57462,0,0,1-.35645.42285,1.9766,1.9766,0,0,1-.38916.28613,1.67681,1.67681,0,0,1-.80273.21,1.75729,1.75729,0,0,1-.65137-.12109,1.57469,1.57469,0,0,1-.52881-.34082,1.44881,1.44881,0,0,1-.33936-.53027,1.54092,1.54092,0,0,1-.084-.69043,1.6359,1.6359,0,0,1,.20508-.67285,1.8658,1.8658,0,0,1,.43945-.52539,2.05657,2.05657,0,0,1,.59668-.34277,1.93587,1.93587,0,0,1,.67871-.124,1.55181,1.55181,0,0,1,.56787.09473,1.43772,1.43772,0,0,1,.41943.249,1.86594,1.86594,0,0,1,.31885.35352q.1377.19922.26123.40527c.083.13672.166.27246.248.4043a1.95187,1.95187,0,0,0,.28076.35449,1.23935,1.23935,0,0,0,.355.249,1.09382,1.09382,0,0,0,.47412.09473,1.03268,1.03268,0,0,0,.46582-.10352,1.145,1.145,0,0,0,.36328-.27441,1.39465,1.39465,0,0,0,.24463-.39941,1.65293,1.65293,0,0,0,.11523-.48145,2.1427,2.1427,0,0,0-.686-1.8252,2.44531,2.44531,0,0,0-.83545-.50293,2.90667,2.90667,0,0,0-1.01221-.17676Zm-1.11279,4.207a.87828.87828,0,0,0-.10449-.21289.99866.99866,0,0,0-.1582-.18262.7485.7485,0,0,0-.19189-.126.53.53,0,0,0-.21387-.0459.74538.74538,0,0,0-.23145.03711.64574.64574,0,0,0-.20215.10645.6016.6016,0,0,0-.14746.17969.59.59,0,0,0-.07178.24414.5501.5501,0,0,0,.02881.249.49168.49168,0,0,0,.29834.29785.66243.66243,0,0,0,.2251.03809.57008.57008,0,0,0,.229-.0498.97392.97392,0,0,0,.21631-.13281,1.2219,1.2219,0,0,0,.18848-.1875A1.07437,1.07437,0,0,0,16.23291,34.07324Zm4.62549-3.22363H15.7832l.08594-.9834h5.0752Zm2.36328-.9834a2.53139,2.53139,0,0,1,.89355.14063,1.70515,1.70515,0,0,1,.60547.36719,1.34089,1.34089,0,0,1,.334.5166,1.38154,1.38154,0,0,1,.07422.58594,1.43556,1.43556,0,0,1-.18555.61426,1.5955,1.5955,0,0,1-.37891.43945,1.656,1.656,0,0,1-1.00781.35352,1.47573,1.47573,0,0,1-.49512-.08789,1.28832,1.28832,0,0,1-.43848-.26562,1.22881,1.22881,0,0,1-.2998-.43945,1.2859,1.2859,0,0,1-.0791-.61426,1.32752,1.32752,0,0,1,.07227-.3252,1.05672,1.05672,0,0,1,.165-.30176H18.82422l.08594-.9834Zm.417,2.03516a.52655.52655,0,0,0,.32227-.10937.42316.42316,0,0,0,.16211-.31543.44289.44289,0,0,0-.03027-.22168.49924.49924,0,0,0-.10547-.15625.46088.46088,0,0,0-.13574-.09277.41217.41217,0,0,0-.123-.03711.43473.43473,0,0,0-.126.03711.56586.56586,0,0,0-.15039.09277.63787.63787,0,0,0-.13184.15625.47947.47947,0,0,0-.07031.22168.36344.36344,0,0,0,.10059.31543A.412.412,0,0,0,23.63867,31.90137Z" style="fill: #17479e;stroke: #17479e;stroke-miterlimit: 10;stroke-width: 0.4000000059604645px"/>
    <path d="M28.21973,35.75586a3.25873,3.25873,0,0,1-.79-.09473,3.07292,3.07292,0,0,1-.71777-.26953,2.62982,2.62982,0,0,1-.60449-.43359,2.46763,2.46763,0,0,1-.45312-.58789,2.54669,2.54669,0,0,1-.26758-.72754,2.859,2.859,0,0,1-.04492-.84961,2.9144,2.9144,0,0,1,.19141-.82715,3.1208,3.1208,0,0,1,.39355-.71582,3.2087,3.2087,0,0,1,.55566-.583,3.55744,3.55744,0,0,1,1.44141-.70605,3.47688,3.47688,0,0,1,.81055-.09473,3.28643,3.28643,0,0,1,.792.09473,3.00525,3.00525,0,0,1,.7168.27148,2.768,2.768,0,0,1,.60254.43457,2.44184,2.44184,0,0,1,.45313.583,2.51878,2.51878,0,0,1,.26953.71582,2.7429,2.7429,0,0,1,.04688.82715,3.1055,3.1055,0,0,1-.19336.85254,3.1472,3.1472,0,0,1-.39551.72461,3.20913,3.20913,0,0,1-.55664.58789,3.29511,3.29511,0,0,1-.68066.43359,3.564,3.564,0,0,1-.76367.26953A3.46022,3.46022,0,0,1,28.21973,35.75586Zm.97852-5.49121h-1.5l-1.20312-1.30273.00586-.06445.84863-.76367,1.14551,1.58691,2.39258-2.56543.76074.81445-.00586.06348Zm-.55664.667a2.28556,2.28556,0,0,0-.78711.13477,2.06334,2.06334,0,0,0-.64551.37793,1.92626,1.92626,0,0,0-.45605.583,1.99891,1.99891,0,0,0-.21191.75684,1.88922,1.88922,0,0,0,.07813.76563,1.596,1.596,0,0,0,.35254.60254,1.61947,1.61947,0,0,0,.57813.39648,1.98727,1.98727,0,0,0,.7627.1416,2.18725,2.18725,0,0,0,.78516-.1416,2.04149,2.04149,0,0,0,1.10645-.999,2.08137,2.08137,0,0,0,.21387-.76562,1.83277,1.83277,0,0,0-.08008-.75684,1.54436,1.54436,0,0,0-.35352-.583,1.64554,1.64554,0,0,0-.582-.37793A2.09179,2.09179,0,0,0,28.6416,30.93164Z" style="fill: #17479e;stroke: #17479e;stroke-miterlimit: 10;stroke-width: 0.4000000059604645px"/>
    <path d="M25.93164,37.7627h3.3418a.97825.97825,0,0,1-.06445-.20312.79516.79516,0,0,1-.01562-.23926.84837.84837,0,0,1,.1123-.35937.90848.90848,0,0,1,.23828-.27441,1.13555,1.13555,0,0,1,.32129-.17383,1.07349,1.07349,0,0,1,.35547-.0625.96991.96991,0,0,1,.33105.06055.85159.85159,0,0,1,.29492.17773.817.817,0,0,1,.25586.7002.9753.9753,0,0,1-.35742.67676,1.26578,1.26578,0,0,1-.415.21875,1.87331,1.87331,0,0,1-.5918.083H25.87891Zm4.19531-.08594a.60136.60136,0,0,0,.13477-.06836.63352.63352,0,0,0,.09668-.09473.25246.25246,0,0,0,.05176-.13867.23479.23479,0,0,0-.06152-.2002.26229.26229,0,0,0-.18164-.06543.27.27,0,0,0-.27051.26563.21931.21931,0,0,0,.02734.13867.47281.47281,0,0,0,.082.09473A.45035.45035,0,0,0,30.127,37.67676Z" style="fill: #17479e;stroke: #17479e;stroke-miterlimit: 10;stroke-width: 0.4000000059604645px"/>
    <path d="M35.97656,35.75586a6.01773,6.01773,0,0,1-1.73242-.22168,3.25189,3.25189,0,0,1-1.19336-.62012,2.23343,2.23343,0,0,1-.66211-.94434,2.74555,2.74555,0,0,1-.14258-1.19922,3.37711,3.37711,0,0,1,.13867-.7041,3.5164,3.5164,0,0,1,.28516-.6709,3.39666,3.39666,0,0,1,.418-.58984,2.72121,2.72121,0,0,1,.54395-.4707,2.68012,2.68012,0,0,1,.66016-.3125,2.497,2.497,0,0,1,.76465-.11426,1.61862,1.61862,0,0,1,.71289.14063,1.3249,1.3249,0,0,1,.458.35938,1.2434,1.2434,0,0,1,.23242.47754,1.5771,1.5771,0,0,1,.04.499,1.57822,1.57822,0,0,1-.49316,1.0166,1.61086,1.61086,0,0,1-.498.31836,1.63311,1.63311,0,0,1-.63477.11816,1.40651,1.40651,0,0,1-.46582-.07031,1.16631,1.16631,0,0,1-.35645-.19629,1.03242,1.03242,0,0,1-.25293-.30176,1.4385,1.4385,0,0,1-.14844-.38672h-.05078a1.68661,1.68661,0,0,0-.15918.37988,1.8579,1.8579,0,0,0-.06348.32813,1.70981,1.70981,0,0,0,.07617.72363,1.52057,1.52057,0,0,0,.32617.53516,1.9017,1.9017,0,0,0,.502.37207,3.09075,3.09075,0,0,0,.60449.23535,3.97028,3.97028,0,0,0,.62891.12207,5.49167,5.49167,0,0,0,.58008.03418,5.02811,5.02811,0,0,0,.54-.03418,4.94694,4.94694,0,0,0,.63672-.11719,4.52464,4.52464,0,0,0,.65234-.21777,2.55576,2.55576,0,0,0,.585-.33789,1.86144,1.86144,0,0,0,.4375-.48047,1.40068,1.40068,0,0,0,.207-.6416,1.45048,1.45048,0,0,0-.1084-.73633,1.66515,1.66515,0,0,0-.39844-.54883,2.18909,2.18909,0,0,0-.57227-.375,3.39156,3.39156,0,0,0-.63574-.21973l.25977-1.03809a6.58249,6.58249,0,0,1,.63867.17773,4.5597,4.5597,0,0,1,.6416.27441,3.44727,3.44727,0,0,1,.583.38965,2.35744,2.35744,0,0,1,.4668.52539,2.288,2.288,0,0,1,.29.68359,2.64084,2.64084,0,0,1,.05176.8623,2.75037,2.75037,0,0,1-.38281,1.19043,3.074,3.074,0,0,1-.89453.94434,4.40067,4.40067,0,0,1-1.35547.62012A6.50091,6.50091,0,0,1,35.97656,35.75586Zm-1.01465-3.92773a.49367.49367,0,0,0,.18652-.03809.65519.65519,0,0,0,.16406-.10352.5134.5134,0,0,0,.12109-.15332.49893.49893,0,0,0,.05566-.19043.42745.42745,0,0,0-.12988-.37207.55977.55977,0,0,0-.39648-.13965.91223.91223,0,0,0-.30273.05078.86123.86123,0,0,0-.14941.40723.495.495,0,0,0,.11035.39258A.43415.43415,0,0,0,34.96191,31.82813Zm6.748,2.78516a.9118.9118,0,0,0,.43555-.10547,1.12273,1.12273,0,0,0,.34473-.2793,1.41125,1.41125,0,0,0,.23438-.39941,1.698,1.698,0,0,0,.11035-.47461,2.20674,2.20674,0,0,0-.09863-.916,2.24715,2.24715,0,0,0-.40234-.72656,2.45323,2.45323,0,0,0-1.292-.80762l.25977-1.03809a4.5903,4.5903,0,0,1,.6748.208,4.00725,4.00725,0,0,1,.66309.33887,3.358,3.358,0,0,1,.5957.48242,2.726,2.726,0,0,1,.4668.64258,2.97726,2.97726,0,0,1,.2832.81543,3.54927,3.54927,0,0,1,.042,1.00586,3.09509,3.09509,0,0,1-.26953,1.07227,2.30511,2.30511,0,0,1-.54785.74512,2.13547,2.13547,0,0,1-.76074.4375,2.87277,2.87277,0,0,1-.90332.1416,1.71167,1.71167,0,0,1-.76758-.167,2.00025,2.00025,0,0,1-.57812-.4209,2.07738,2.07738,0,0,1-.37988-.54785,1.88144,1.88144,0,0,1-.1709-.55078l.72168-1.29883a4.07068,4.07068,0,0,0,.10254.62109,2.324,2.324,0,0,0,.23438.59668,1.38326,1.38326,0,0,0,.40039.44824A.995.995,0,0,0,41.71,34.61328Z" style="fill: #17479e;stroke: #17479e;stroke-miterlimit: 10;stroke-width: 0.4000000059604645px"/>
  </g>
</svg>
