<svg id="Layer_1" data-name="Layer 1" xmlns="http://www.w3.org/2000/svg" width="65" height="65" viewBox="0 0 65 65">
  <title>news</title>
  <path d="M60.92611,33.55437a28.56436,28.56436,0,0,1-10.74218,18.625l-.858.64447a26.5376,26.5376,0,0,1-5.58644,3.16588,13.84477,13.84477,0,0,0-1.45737.70961L29.52924,63.98292a1.02842,1.02842,0,0,1-1.42988-1.353l2.218-4.43593c-.59238-.03421-1.18475-.10255-1.78846-.1823A28.70316,28.70316,0,1,1,60.92611,33.55437Z" style="fill: #07a630"/>
  <path d="M52.13624,45H19.23887c-1.36331,0-2.37181-.90554-2.25253-2.02259l1.16972-10.95482A2.59374,2.59374,0,0,1,20.84052,30H53.73789c1.36331,0,2.37181.90554,2.25253,2.02259L54.8207,42.97741A2.59374,2.59374,0,0,1,52.13624,45Z" style="opacity: 0.2"/>
  <path d="M41.78507,33H14.83025a1.82376,1.82376,0,0,1-1.84564-2.02259L13.943,20.02259A2.25171,2.25171,0,0,1,16.14258,18H43.0974A1.82376,1.82376,0,0,1,44.943,20.02259l-.95842,10.95482A2.25171,2.25171,0,0,1,41.78507,33Z" style="opacity: 0.2"/>
  <path d="M50.97315,43H16.54243a1.6092,1.6092,0,0,1-1.6285-1.78464l.91257-10.43072A1.98681,1.98681,0,0,1,17.76727,29H52.198a1.6092,1.6092,0,0,1,1.6285,1.78464l-.91257,10.43072A1.98681,1.98681,0,0,1,50.97315,43Z" style="fill: #fff"/>
  <g>
    <path d="M24.772,34.27148H22.5835l-1.05664,6.126H20.0542l1.05664-6.126H18.95068l.21191-1.22656h5.82129Z"/>
    <path d="M25.95947,40.39746H24.53564l.94287-5.46387h1.42383Zm-.32031-6.87793a.88478.88478,0,0,1,.30713-.541.92458.92458,0,0,1,.61768-.21191.67238.67238,0,0,1,.54248.21191.63075.63075,0,0,1,.12256.541.87831.87831,0,0,1-.312.54492.92144.92144,0,0,1-.61328.21289.6694.6694,0,0,1-.54-.21289A.62645.62645,0,0,1,25.63916,33.51953Z"/>
    <path d="M29.376,34.93359l-.06543.63086a2.205,2.205,0,0,1,1.65283-.73242,1.27577,1.27577,0,0,1,1.16895.50977,2.20235,2.20235,0,0,1,.15967,1.52539l-.60889,3.53027H30.26416l.603-3.49414a.87068.87068,0,0,0-.08008-.6748.74246.74246,0,0,0-.61719-.21,1.18571,1.18571,0,0,0-.98926.52539l-.66455,3.85352h-1.418l.94287-5.46387Z"/>
    <path d="M38.13379,33.58984l-.23145,1.34375h.9082L38.626,36.00391h-.9082l-.4707,2.72656a.60278.60278,0,0,0,.03809.43457c.06055.08789.19629.13086.40918.13086a2.22149,2.22149,0,0,0,.42285-.03516l-.19043,1.10645a3.09061,3.09061,0,0,1-.88086.13086q-1.49268,0-1.25488-1.5498l.50781-2.94434h-.77539l.18457-1.07031h.77539l.23145-1.34375Z"/>
    <path d="M45.69141,34.45313a2.54856,2.54856,0,0,1-.58594,1.36133,1.86727,1.86727,0,0,1-1.19141.52246l-.70117,4.06055H41.877l.05664-.55566a2.09427,2.09427,0,0,1-1.56543.65625,1.39134,1.39134,0,0,1-1.21582-.50488,1.958,1.958,0,0,1-.2041-1.47949l.61816-3.58008h1.418L40.375,38.4668q-.14795.854.60742.85449a1.22768,1.22768,0,0,0,1.082-.51562l.668-3.87207h1.42383l-.12109.70215a.85168.85168,0,0,0,.52246-.31348,2.17713,2.17713,0,0,0,.28418-.86914ZM42.5459,32.7417h1.5459l-1.62988,1.56592H41.30859Z"/>
    <path d="M47.18359,39.32129a1.05975,1.05975,0,0,0,.67578-.22266.95415.95415,0,0,0,.35742-.59082h1.33008a2.24709,2.24709,0,0,1-.4707,1.01855,2.50562,2.50562,0,0,1-.916.7168,2.69108,2.69108,0,0,1-1.15527.25488,1.909,1.909,0,0,1-1.66895-.74414,2.68126,2.68126,0,0,1-.30176-2.05762l.0166-.09668a3.532,3.532,0,0,1,1-2.01465,2.66562,2.66562,0,0,1,1.92188-.75293,1.86578,1.86578,0,0,1,1.49707.583,1.8225,1.8225,0,0,1,.34277,1.55371H48.48242a.89811.89811,0,0,0-.13574-.69336.70227.70227,0,0,0-.60156-.2666,1.021,1.021,0,0,0-.81348.37207,2.54548,2.54548,0,0,0-.46094,1.20605l-.02637.15137a2.0894,2.0894,0,0,0,.042,1.21484A.70752.70752,0,0,0,47.18359,39.32129Z"/>
  </g>
  <path d="M39.78507,31H12.83025a1.82376,1.82376,0,0,1-1.84564-2.02259L11.943,18.02259A2.25171,2.25171,0,0,1,14.14258,16H41.0974A1.82376,1.82376,0,0,1,42.943,18.02259l-.95842,10.95482A2.25171,2.25171,0,0,1,39.78507,31Z"/>
  <g>
    <path d="M19.84961,20.8877H17.66113l-1.05664,6.12549H15.13184l1.05664-6.12549H14.02832l.21191-1.22705h5.82129Z" style="fill: #fff"/>
    <path d="M22.91211,22.917a3.61632,3.61632,0,0,0-.50391-.04,1.24606,1.24606,0,0,0-1.15137.561l-.61719,3.5752H19.2207l.94287-5.46436h1.33984l-.07324.65137a1.61279,1.61279,0,0,1,1.31348-.75244,1.31781,1.31781,0,0,1,.42969.06641Z" style="fill: #fff"/>
    <path d="M23.04346,24.231a3.79671,3.79671,0,0,1,.55811-1.45508,2.90716,2.90716,0,0,1,1.0498-.98193,2.84457,2.84457,0,0,1,1.38525-.34619,1.95413,1.95413,0,0,1,1.71533.7832.931.931,0,0,0,.38281-.45215,3.34279,3.34279,0,0,0,.20557-.74023h.86426a2.14846,2.14846,0,0,1-1.17578,1.77783,3.1148,3.1148,0,0,1,.0459,1.41455l-.01807.106A3.81343,3.81343,0,0,1,27.499,25.791a2.91535,2.91535,0,0,1-1.043.97949,2.83672,2.83672,0,0,1-1.3877.34326,1.99794,1.99794,0,0,1-1.66016-.70117,2.43267,2.43267,0,0,1-.40918-1.894Zm1.03125,4.00879a.77924.77924,0,0,1,.30664-.499.95656.95656,0,0,1,.60352-.19775.70474.70474,0,0,1,.54.19775.54806.54806,0,0,1,.13574.499.8004.8004,0,0,1-.30518.50049.95129.95129,0,0,1-.6123.20215.68768.68768,0,0,1-.53906-.20215A.5672.5672,0,0,1,24.07471,28.23975Zm.374-3.90576a1.92771,1.92771,0,0,0,.07959,1.19141.76463.76463,0,0,0,.74316.41162,1.11868,1.11868,0,0,0,.87646-.40918,2.68281,2.68281,0,0,0,.5083-1.2998,1.936,1.936,0,0,0-.08008-1.18066.76059.76059,0,0,0-.74268-.42285,1.108,1.108,0,0,0-.877.418A2.68818,2.68818,0,0,0,24.44873,24.334Z" style="fill: #fff"/>
    <path d="M32.63574,27.01318H31.21191l1.33838-7.75684h1.42432Z" style="fill: #fff"/>
    <path d="M36.14453,24.94775l1.56836-3.39893h1.52148l-3.22461,6.313-.168.2876a1.97854,1.97854,0,0,1-2.36719.97412l.19141-1.106.21484.00488a1.26351,1.26351,0,0,0,.623-.126,1.04545,1.04545,0,0,0,.38379-.41895l.24414-.44922-.915-5.47949h1.52734Zm1.291-5.69141h1.54688l-1.63086,1.56592H36.19824Z" style="fill: #fff"/>
  </g>
  <line x1="32" y1="47" x2="42" y2="47" style="fill: none;stroke: #fff;stroke-linecap: round;stroke-miterlimit: 10"/>
  <line x1="46" y1="47" x2="50" y2="47" style="fill: none;stroke: #fff;stroke-linecap: round;stroke-miterlimit: 10"/>
</svg>
