<svg id="Layer_1" data-name="Layer 1" xmlns="http://www.w3.org/2000/svg" width="65" height="65" viewBox="0 0 65 65">
  <title>logo</title>
  <path d="M63.85,32.115A31.22128,31.22128,0,0,1,53.343,55.542q-.69824.61274-1.425,1.197a32.66553,32.66553,0,0,1-3.88553,2.6125,31.39123,31.39123,0,0,1-30.096.532L7.914,64.1585a.95521.95521,0,0,1-1.32051-.988L7.88553,52.445l.095-.798a32.51184,32.51184,0,0,1-2.451-3.534v-.00951a31.23982,31.23982,0,0,1-3.58146-8.892V39.202c-.11405-.513-.21854-1.01651-.304-1.539a27.46125,27.46125,0,0,1-.38-2.964c-.057-.63648-.095-1.28253-.10449-1.938C1.15,32.552,1.15,32.3335,1.15,32.115a31.67975,31.67975,0,0,1,1.6055-9.956,31.37063,31.37063,0,0,1,51.585-12.54,30.713,30.713,0,0,1,3.496,4.0375,29.0931,29.0931,0,0,1,2.36549,3.762V17.428a30.97124,30.97124,0,0,1,3.12554,9.006c.08547.46549.16148.94049.228,1.41549A30.157,30.157,0,0,1,63.85,32.115Z" style="fill: #ed1c24"/>
  <path d="M59.421,32.16935A26.81049,26.81049,0,0,1,50.3984,52.28673q-.59959.52617-1.22368,1.0279a28.0507,28.0507,0,0,1-3.3366,2.24342,26.95642,26.95642,0,0,1-25.84417.45684l-8.60656,3.671a.82026.82026,0,0,1-1.134-.84845l1.10951-9.21023.08156-.68528a27.91872,27.91872,0,0,1-2.10475-3.03471v-.00817a26.82641,26.82641,0,0,1-3.07549-7.63577v-.00817c-.09794-.44051-.18767-.8729-.26106-1.32157a23.58166,23.58166,0,0,1-.32634-2.54526c-.04895-.54656-.08156-1.10134-.08972-1.66424C5.579,32.54464,5.579,32.357,5.579,32.16935a27.20419,27.20419,0,0,1,1.37868-8.54945A26.93874,26.93874,0,0,1,51.255,12.85149a26.374,26.374,0,0,1,3.0021,3.4671,24.983,24.983,0,0,1,2.03131,3.23054v.00817a26.59577,26.59577,0,0,1,2.684,7.73366c.07339.39973.13867.80762.19578,1.21552A25.89654,25.89654,0,0,1,59.421,32.16935Z" style="fill: #fff"/>
  <g>
    <path d="M18.11328,21.73145a4.66548,4.66548,0,0,0,1.166.623,3.86531,3.86531,0,0,0,1.38867.27344,3.72788,3.72788,0,0,0,1.90039-.39453q.65479-.394.6543-.88281a1.42693,1.42693,0,0,0-.19043-.72461,1.8594,1.8594,0,0,0-.51465-.56836,4.96375,4.96375,0,0,0-.74023-.44434q-.41748-.20654-.88086-.39062-.46436-.18457-.92773-.375a7.48182,7.48182,0,0,1-.87891-.42871,4.69607,4.69607,0,0,1-.7373-.51855,2.03976,2.03976,0,0,1-.5127-.67285,1.97382,1.97382,0,0,1-.19043-.87061,1.75277,1.75277,0,0,1,.86914-1.50488,3.76509,3.76509,0,0,1,2.14941-.58447,5.09412,5.09412,0,0,1,1.53125.24756,3.22193,3.22193,0,0,1,1.335.79346l.15234.13965v.731h-.92676V15.855a3.08362,3.08362,0,0,0-.96973-.48584,3.75864,3.75864,0,0,0-1.12207-.1748,3.1043,3.1043,0,0,0-1.47852.32715.961.961,0,0,0-.61328.83545,1.05421,1.05421,0,0,0,.19141.60986,1.73579,1.73579,0,0,0,.51465.48633,5.84024,5.84024,0,0,0,.74023.39355q.41748.1875.88086.375.46436.1875.9248.3877a6.60988,6.60988,0,0,1,.877.46,4.51352,4.51352,0,0,1,.73926.57227,2.27,2.27,0,0,1,.51465.75,2.37811,2.37811,0,0,1,.19043.959,1.839,1.839,0,0,1-.95312,1.583,4.5673,4.5673,0,0,1-2.52832.62012,4.736,4.736,0,0,1-1.88965-.40137,5.1856,5.1856,0,0,1-1.43945-.8623l-.15234-.13867v-.74414h.92676Z" style="stroke: #000;stroke-miterlimit: 10;stroke-width: 0.5px"/>
    <path d="M29.72266,19.14258a1.18471,1.18471,0,0,0-.28223-.9043,1.27368,1.27368,0,0,0-.87891-.25684,1.84329,1.84329,0,0,0-1.50781.72266,2.8308,2.8308,0,0,0-.58105,1.82813l-.00586,2.78711H25.54V18.21h-.34961V17.2832h1.28223v1.2627A2.89308,2.89308,0,0,1,27.498,17.44141a2.44541,2.44541,0,0,1,1.292-.38672,1.89574,1.89574,0,0,1,1.18066.38672,1.75853,1.75853,0,0,1,.63477,1.1748A2.8129,2.8129,0,0,1,31.63672,17.457a2.50615,2.50615,0,0,1,1.33594-.40234,1.97383,1.97383,0,0,1,.68262.11719,1.84645,1.84645,0,0,1,.59082.35547,1.59093,1.59093,0,0,1,.4248.65332,2.74123,2.74123,0,0,1,.15527.96191v3.25h.34961v.92676H33.89941V19.14258a1.18471,1.18471,0,0,0-.28223-.9043,1.27368,1.27368,0,0,0-.87891-.25684,1.84329,1.84329,0,0,0-1.50781.72266,2.8308,2.8308,0,0,0-.58105,1.82813v2.78711h-.92676Z" style="stroke: #000;stroke-miterlimit: 10;stroke-width: 0.5px"/>
    <path d="M42.13867,23.31934H40.86328v-.69141a3.27668,3.27668,0,0,1-1.06934.67676,3.36657,3.36657,0,0,1-1.25977.249,2.46875,2.46875,0,0,1-.77539-.12988,2.87948,2.87948,0,0,1-.74707-.374,1.87131,1.87131,0,0,1-.57324-.64746,1.81312,1.81312,0,0,1-.22168-.8916,1.68529,1.68529,0,0,1,.68164-1.34961,2.88043,2.88043,0,0,1,1.87012-.55469h2.09473v-.46387q0-1.16162-1.57129-1.16113a3.66747,3.66747,0,0,0-1.22168.19629V18.501h-.92676v-.91406l.26563-.13867a4.33815,4.33815,0,0,1,1.88281-.39355,4.06512,4.06512,0,0,1,.69238.05664,2.88151,2.88151,0,0,1,.668.20605,2.12433,2.12433,0,0,1,.58105.375,1.6679,1.6679,0,0,1,.40039.59961,2.18682,2.18682,0,0,1,.15625.85059v3.25h.34863Zm-3.37012-2.78711a2.76678,2.76678,0,0,0-.77832.09863,1.35988,1.35988,0,0,0-.50781.251,1.106,1.106,0,0,0-.25684.31055.68959.68959,0,0,0-.082.31836.9399.9399,0,0,0,.44629.81055,2.03514,2.03514,0,0,0,1.17383.30664,3.13558,3.13558,0,0,0,1.25977-.25977,1.87388,1.87388,0,0,0,.83984-.61719V20.53223Z" style="stroke: #000;stroke-miterlimit: 10;stroke-width: 0.5px"/>
    <path d="M43.29395,14.49609h1.28223l-.00586,8.82324h-.92676V15.42285h-.34961Z" style="stroke: #000;stroke-miterlimit: 10;stroke-width: 0.5px"/>
    <path d="M46.07422,14.49609h1.28223l-.00586,8.82324h-.92676V15.42285h-.34961Z" style="stroke: #000;stroke-miterlimit: 10;stroke-width: 0.5px"/>
  </g>
  <g>
    <path d="M29.25293,31.53467a2.78941,2.78941,0,0,1,1.5332.87451,2.17735,2.17735,0,0,1,.55566,1.458,2.28431,2.28431,0,0,1-.19043.92383,2.37762,2.37762,0,0,1-.54883.77344,2.54992,2.54992,0,0,1-.93359.53906,3.85162,3.85162,0,0,1-1.28516.20117h-3.542V28.41406h-.34912V27.481H27.457a4.19914,4.19914,0,0,1,1.30469.1875,2.49056,2.49056,0,0,1,.92969.51367,2.234,2.234,0,0,1,.53955.74316,2.17843,2.17843,0,0,1,.18408.8916,1.75827,1.75827,0,0,1-.29541.99268A2.13288,2.13288,0,0,1,29.25293,31.53467Zm.23535-1.71777a1.24858,1.24858,0,0,0-.49609-1.00439,2.4097,2.4097,0,0,0-1.53857-.40479H25.76855v2.793h1.68506a3.20116,3.20116,0,0,0,.78516-.08936,2.10151,2.10151,0,0,0,.582-.22949,1.50481,1.50481,0,0,0,.38135-.3252,1.259,1.259,0,0,0,.21924-.36963A1.08635,1.08635,0,0,0,29.48828,29.81689Zm-3.71973,2.31055V35.377h2.6123a2.28847,2.28847,0,0,0,1.52246-.4375,1.35923,1.35923,0,0,0,.51172-1.07227,1.40376,1.40376,0,0,0-.13672-.59082,2.02043,2.02043,0,0,0-.3877-.55859,1.85759,1.85759,0,0,0-.67676-.42529,2.60638,2.60638,0,0,0-.94727-.165Z" style="fill: #ed1c24;stroke: #ed1c24;stroke-miterlimit: 10;stroke-width: 0.5px"/>
    <path d="M32.73193,31.19434h-.34912v-.92676H33.665l-.00684,6.03711h-.92627Zm.01563-3.2915a.612.612,0,0,1,.44775-.187.62286.62286,0,0,1,.45117.187.60582.60582,0,0,1,.18945.44775.64866.64866,0,0,1-.64062.64111.606.606,0,0,1-.44775-.19043.62256.62256,0,0,1-.187-.45068A.61283.61283,0,0,1,32.74756,27.90283Z" style="fill: #ed1c24;stroke: #ed1c24;stroke-miterlimit: 10;stroke-width: 0.5px"/>
    <path d="M40.38672,31.1626,36.36328,35.377h3.332v-.34863h.92676v1.27637H35.04883v-.89551l4.03125-4.21484H36.21094v.34912H35.2832V30.26758h5.10352Z" style="fill: #ed1c24;stroke: #ed1c24;stroke-miterlimit: 10;stroke-width: 0.5px"/>
  </g>
  <g>
    <path d="M18.917,41.00977h3.36816a4.32714,4.32714,0,0,1,1.71289.34961,4.31342,4.31342,0,0,1,2.34668,2.3457,4.38937,4.38937,0,0,1,0,3.42871A4.32622,4.32622,0,0,1,23.998,49.48438a4.32714,4.32714,0,0,1-1.71289.34961H19.2666V41.9375H18.917Zm1.27637,7.89648h2.09082a3.48964,3.48964,0,0,0,3.209-4.84375,3.47858,3.47858,0,0,0-3.209-2.125H20.19336Z" style="stroke: #000;stroke-miterlimit: 10;stroke-width: 0.5px"/>
    <path d="M33.542,49.834H32.2666V49.1416a3.26288,3.26288,0,0,1-1.06934.67773,3.36657,3.36657,0,0,1-1.25977.249,2.443,2.443,0,0,1-.77539-.13086,2.8762,2.8762,0,0,1-.74707-.373,1.87464,1.87464,0,0,1-.57324-.64844,1.81312,1.81312,0,0,1-.22168-.8916,1.68485,1.68485,0,0,1,.68164-1.34863,2.87508,2.87508,0,0,1,1.87012-.55566H32.2666v-.46387q0-1.16016-1.57129-1.16113a3.66747,3.66747,0,0,0-1.22168.19629v.32422h-.92676v-.91406l.26563-.13965a4.33815,4.33815,0,0,1,1.88281-.39355,4.16709,4.16709,0,0,1,.69238.05664,2.88533,2.88533,0,0,1,.668.207,2.12433,2.12433,0,0,1,.58105.375,1.65938,1.65938,0,0,1,.40039.59961,2.18183,2.18183,0,0,1,.15625.84961v3.25H33.542Zm-3.37012-2.78711a2.80513,2.80513,0,0,0-.77832.09766,1.37475,1.37475,0,0,0-.50781.252,1.106,1.106,0,0,0-.25684.31055.68283.68283,0,0,0-.082.31738.9415.9415,0,0,0,.44629.81152,2.04257,2.04257,0,0,0,1.17383.30566,3.15131,3.15131,0,0,0,1.25977-.25879,1.88821,1.88821,0,0,0,.83984-.61719V47.04688Z" style="stroke: #000;stroke-miterlimit: 10;stroke-width: 0.5px"/>
    <path d="M35.04688,44.72363h-.34961v-.92676h1.28223L35.97363,49.834h-.92676Zm.01563-3.292a.614.614,0,0,1,.44727-.18652.62433.62433,0,0,1,.45117.18652.60861.60861,0,0,1,.19043.44824.65212.65212,0,0,1-.6416.6416.60744.60744,0,0,1-.44727-.19141.6208.6208,0,0,1-.1875-.4502A.61327.61327,0,0,1,35.0625,41.43164Z" style="stroke: #000;stroke-miterlimit: 10;stroke-width: 0.5px"/>
    <path d="M37.47754,41.00977h1.28223L38.75391,49.834h-.92676V41.9375h-.34961Z" style="stroke: #000;stroke-miterlimit: 10;stroke-width: 0.5px"/>
    <path d="M42.90527,51.36328c-.05566.10938-.09961.19531-.13379.25391-.0332.05859-.10352.16211-.209.30859a1.98649,1.98649,0,0,1-.31152.3457,1.77734,1.77734,0,0,1-.39648.23828,1.21936,1.21936,0,0,1-.50488.11035,1.43449,1.43449,0,0,1-.75488-.21973,1.97076,1.97076,0,0,1-.60352-.56055l-.07617-.11523v-.48828h.92676v.17773a.71242.71242,0,0,0,.50781.2793.43855.43855,0,0,0,.22266-.06348.73308.73308,0,0,0,.20313-.18652c.06348-.084.11621-.15723.1582-.22266a2.65843,2.65843,0,0,0,.13965-.251l.43848-.92676-2.35547-5.31934H39.915v-.92676h.84473l2.28516,5.1416,2.4375-5.05957v-.082H46.415v.292Z" style="stroke: #000;stroke-miterlimit: 10;stroke-width: 0.5px"/>
  </g>
  <line x1="9.5" y1="32.5" x2="20.5" y2="32.5" style="fill: none;stroke: #ed1c24;stroke-linecap: round;stroke-miterlimit: 10"/>
  <line x1="44.5" y1="32.5" x2="55.5" y2="32.5" style="fill: none;stroke: #ed1c24;stroke-linecap: round;stroke-miterlimit: 10"/>
</svg>
