<svg id="Layer_1" data-name="Layer 1" xmlns="http://www.w3.org/2000/svg" width="70" height="70" viewBox="0 0 70 70">
  <title>logo</title>
  <path d="M68,34.59A32.86,32.86,0,0,1,56.94,59.25q-.73.64-1.5,1.26a34.38,34.38,0,0,1-4.09,2.75,33,33,0,0,1-31.68.56L9.12,68.32a1,1,0,0,1-1.39-1L9.09,56l.1-.84a34.22,34.22,0,0,1-2.58-3.72h0a32.88,32.88,0,0,1-3.77-9.36h0c-.12-.54-.23-1.07-.32-1.62a28.91,28.91,0,0,1-.4-3.12c-.06-.67-.1-1.35-.11-2,0-.22,0-.45,0-.68A33.35,33.35,0,0,1,3.69,24.11,33,33,0,0,1,58,10.91a32.33,32.33,0,0,1,3.68,4.25,30.62,30.62,0,0,1,2.49,4h0a32.6,32.6,0,0,1,3.29,9.48c.09.49.17,1,.24,1.49A31.74,31.74,0,0,1,68,34.59Z" style="fill: #ed1926"/>
  <text transform="translate(8.96 34)" style="font-size: 11.289600372314453px;fill: #fff;stroke: #fff;stroke-miterlimit: 10;stroke-width: 0.24000000953674316px;font-family: OldEnglishTextMT, Old English Text MT">The Assam<tspan x="6.4" y="13.55"> </tspan><tspan x="9.29" y="13.55" style="letter-spacing: -0.020024997457341626em">T</tspan><tspan x="18" y="13.55">ribune</tspan></text>
  <path d="M64.7,34.64a29.58,29.58,0,0,1-10,22.19q-.66.58-1.35,1.13a31,31,0,0,1-3.68,2.47,29.74,29.74,0,0,1-28.51.5L11.71,65a.9.9,0,0,1-1.25-.94L11.68,53.9l.09-.76a30.8,30.8,0,0,1-2.32-3.35h0a29.6,29.6,0,0,1-3.39-8.42h0c-.11-.49-.21-1-.29-1.46a26,26,0,0,1-.36-2.81c-.05-.6-.09-1.22-.1-1.84,0-.2,0-.4,0-.61A30,30,0,0,1,6.82,25.2,29.72,29.72,0,0,1,55.69,13.32,29.1,29.1,0,0,1,59,17.15a27.56,27.56,0,0,1,2.24,3.56h0a29.34,29.34,0,0,1,3,8.53c.08.44.15.89.22,1.34A28.57,28.57,0,0,1,64.7,34.64Z" style="fill: none;stroke: #fff;stroke-miterlimit: 10"/>
</svg>
