<svg id="Layer_1" data-name="Layer 1" xmlns="http://www.w3.org/2000/svg" width="65" height="65" viewBox="0 0 65 65">
  <title>news</title>
  <path d="M63.55934,32.11853A30.93181,30.93181,0,0,1,53.14975,55.32835q-.69176.60706-1.41179,1.18591a32.36267,32.36267,0,0,1-3.8495,2.58828,31.10018,31.10018,0,0,1-29.817.52707L8.14195,63.865a.94635.94635,0,0,1-1.30827-.97888l1.28006-10.626.0941-.79063a32.2104,32.2104,0,0,1-2.42829-3.50121v-.00942a30.95018,30.95018,0,0,1-3.54825-8.80954v-.00942c-.113-.50822-.21651-1.00708-.30119-1.52473a27.20665,27.20665,0,0,1-.3765-2.93651c-.05647-.63058-.0941-1.27064-.10352-1.92007-.00942-.207-.00942-.42349-.00942-.64a31.386,31.386,0,0,1,1.59062-9.86367A31.07978,31.07978,0,0,1,54.138,9.83111a30.42821,30.42821,0,0,1,3.46358,4.00007,28.82336,28.82336,0,0,1,2.34356,3.72714v.00942a30.68409,30.68409,0,0,1,3.09656,8.92248c.08468.46117.16.93177.22588,1.40237A29.87738,29.87738,0,0,1,63.55934,32.11853Z"/>
  <polygon points="57.749 43.971 11.427 43.971 12.493 31.781 58.815 31.781 57.749 43.971" style="fill: #fff"/>
  <polygon points="42.755 34.219 6.185 34.219 7.251 22.029 43.821 22.029 42.755 34.219" style="fill: #aa0201"/>
  <g>
    <path d="M9.43408,25.25537h1.0957l.55225,3.96338,1.38525-3.96338h1.13965l.63428,3.94092,1.25146-3.94092h1.10352l-1.87158,5.10352H13.51855l-.63916-3.63379-1.31982,3.63379-1.19873.00781Z" style="fill: #fff"/>
    <path d="M20.15479,26.08105h-1.9375l-.1123,1.28027h1.71777l-.0708.81152H18.03418L17.916,29.5249h1.9375l-.07324.834H16.81934l.44727-5.11035h2.96094Z" style="fill: #fff"/>
    <path d="M22.91113,30.35889h-2.2002l.44678-5.10352h2.10547c1.06738,0,1.61035.55518,1.54395,1.31592a1.31383,1.31383,0,0,1-.97266,1.16943,1.11423,1.11423,0,0,1,.87939,1.23633A1.60548,1.60548,0,0,1,22.91113,30.35889Zm.02539-2.2085H21.92773l-.12012,1.37451h1.03125c.49609,0,.81006-.24121.84766-.67236C23.7251,28.41406,23.43359,28.15039,22.93652,28.15039Zm.10791-2.06934h-.93555l-.1123,1.28027h.93555c.48242,0,.78027-.21973.81641-.63623C23.78467,26.31543,23.52686,26.08105,23.04443,26.08105Z" style="fill: #fff"/>
    <path d="M27.17041,30.41016c-1.05957,0-1.8291-.55615-1.75928-1.52148h1.0957a.63362.63362,0,0,0,.71582.68018.72908.72908,0,0,0,.82178-.62158c.09668-1.10352-2.59326-.438-2.42383-2.28809a1.72936,1.72936,0,0,1,1.92725-1.47705c1.04492,0,1.71484.53418,1.69971,1.45557h-1.126a.607.607,0,0,0-.67725-.60742.65489.65489,0,0,0-.75488.59961c-.08936,1.02344,2.57764.45313,2.42041,2.252A1.78586,1.78586,0,0,1,27.17041,30.41016Z" style="fill: #fff"/>
    <path d="M30.314,25.25537H31.3374l-.44678,5.10352H29.86719Z" style="fill: #fff"/>
    <path d="M32.07764,25.25537h3.7417l-.07227.82568H34.38672l-.374,4.27783H32.99023l.375-4.27783H32.00537Z" style="fill: #fff"/>
    <path d="M39.45605,26.08105h-1.9375l-.11133,1.28027H39.125l-.07129.81152H37.33594l-.11816,1.35205h1.9375l-.07324.834H36.12109l.44727-5.11035H39.5293Z" style="fill: #fff"/>
  </g>
  <g>
    <path d="M18.89014,40.6123H16.85791l-.4209.97266H15.36279l2.28076-5.11035H18.835L20.22314,41.585h-1.082Zm-.7583-2.95312-.9248,2.13477h1.47656Z"/>
    <path d="M22.66992,41.63672c-1.05957,0-1.82959-.55664-1.75977-1.52148h1.0957a.63328.63328,0,0,0,.71582.67969.72989.72989,0,0,0,.82227-.62109c.09619-1.10352-2.59375-.4375-2.42383-2.28809a1.72818,1.72818,0,0,1,1.92676-1.47656c1.04492,0,1.71484.53418,1.69971,1.45508h-1.126a.60648.60648,0,0,0-.67725-.60742.65445.65445,0,0,0-.75439.59961c-.08936,1.02344,2.57764.45313,2.41992,2.252A1.78535,1.78535,0,0,1,22.66992,41.63672Z"/>
    <path d="M27.124,41.63672c-1.05957,0-1.82959-.55664-1.75977-1.52148H26.46a.63328.63328,0,0,0,.71582.67969.72989.72989,0,0,0,.82227-.62109c.09619-1.10352-2.59375-.4375-2.42383-2.28809A1.72818,1.72818,0,0,1,27.501,36.40918c1.04492,0,1.71484.53418,1.69971,1.45508h-1.126a.60648.60648,0,0,0-.67725-.60742.65445.65445,0,0,0-.75439.59961c-.08936,1.02344,2.57764.45313,2.41992,2.252A1.78535,1.78535,0,0,1,27.124,41.63672Z"/>
    <path d="M30.26807,36.48145H31.2915L30.84521,41.585H29.82178Z"/>
    <path d="M33.6123,41.63672c-1.05957,0-1.82959-.55664-1.75977-1.52148h1.0957a.63328.63328,0,0,0,.71582.67969.72989.72989,0,0,0,.82227-.62109c.09668-1.10352-2.59375-.4375-2.42383-2.28809a1.72818,1.72818,0,0,1,1.92676-1.47656c1.04492,0,1.71484.53418,1.7002,1.45508h-1.126a.6069.6069,0,0,0-.67773-.60742.65513.65513,0,0,0-.75488.59961c-.08887,1.02344,2.57813.45313,2.4209,2.252A1.78586,1.78586,0,0,1,33.6123,41.63672Z"/>
    <path d="M36.48633,36.48145h3.74219l-.07227.82617H38.7959l-.375,4.27734H37.39844l.375-4.27734H36.41406Z"/>
    <path d="M43.74219,40.6123H41.71094l-.42187.97266H40.21484l2.28125-5.11035H43.6875L45.0752,41.585h-1.082Zm-.75781-2.95312-.9248,2.13477h1.47656Z"/>
    <path d="M50.57617,36.47461,50.12891,41.585H49.10547l-2.01074-3.502-.30664,3.502H45.76465l.44727-5.11035h1.02344l2.01074,3.50977.30664-3.50977Z"/>
    <path d="M51.31836,36.48145h3.74219l-.07227.82617H53.62793l-.375,4.27734H52.23047l.375-4.27734H51.24609Z"/>
  </g>
  <polygon points="6.185 34.219 7.251 22.029 43.821 22.029 6.185 34.219" style="fill: #fff;opacity: 0.1"/>
</svg>
