<svg id="Layer_1" data-name="Layer 1" xmlns="http://www.w3.org/2000/svg" width="50" height="50" viewBox="0 0 50 50">
  <title>news1</title>
  <path d="M48.76,24.70818A23.66244,23.66244,0,0,1,40.7968,42.4634q-.52919.46439-1.08.90721a24.757,24.757,0,0,1-2.94482,1.98,23.79125,23.79125,0,0,1-22.80959.4032l-7.596,3.24A.724.724,0,0,1,5.36559,48.245l.97923-8.12878.072-.60482A24.64055,24.64055,0,0,1,4.55919,36.833v-.00721A23.6765,23.6765,0,0,1,1.84482,30.0866v-.00721c-.08644-.38878-.16563-.77041-.23041-1.1664a20.81274,20.81274,0,0,1-.288-2.2464c-.0432-.48239-.072-.972-.07919-1.46883-.00721-.15838-.00721-.324-.00721-.48959a24.00992,24.00992,0,0,1,1.2168-7.54559,23.77564,23.77564,0,0,1,39.096-9.504,23.27719,23.27719,0,0,1,2.64959,3.06,22.04951,22.04951,0,0,1,1.79279,2.85122V13.577A23.47294,23.47294,0,0,1,48.364,20.40259c.06478.35279.12239.71279.17279,1.07279A22.85581,22.85581,0,0,1,48.76,24.70818Z" style="fill: #ed1c24"/>
  <path d="M46.384,24.73736a21.2962,21.2962,0,0,1-7.16688,15.9797q-.47627.418-.972.81649a22.28133,22.28133,0,0,1-2.65034,1.782,21.41212,21.41212,0,0,1-20.52864.36288l-6.83639,2.916a.65155.65155,0,0,1-.90073-.67395l.88131-7.31591.06478-.54434A22.1765,22.1765,0,0,1,6.60327,35.6497v-.00649a21.30885,21.30885,0,0,1-2.44293-6.06527v-.00649c-.0778-.34991-.14907-.69336-.20736-1.04976a18.73147,18.73147,0,0,1-.25922-2.02176c-.03888-.43415-.06478-.87482-.07127-1.32195-.00649-.14254-.00649-.29157-.00649-.44064a21.60892,21.60892,0,0,1,1.09512-6.791A21.39807,21.39807,0,0,1,39.89751,9.39273a20.94947,20.94947,0,0,1,2.38464,2.754,19.84456,19.84456,0,0,1,1.61351,2.56609v.00649a21.12565,21.12565,0,0,1,2.13195,6.143c.0583.31751.11015.64151.15551.96551A20.57023,20.57023,0,0,1,46.384,24.73736Z" style="fill: none;stroke: #fff;stroke-miterlimit: 10;stroke-width: 0.800000011920929px"/>
  <polygon points="43.3 33 9.3 33 10 25 44 25 43.3 33" style="opacity: 0.3"/>
  <rect x="25.5" y="36.85" width="8" height="0.3" rx="0.15" ry="0.15" style="fill: #fff;stroke: #fff;stroke-miterlimit: 10;stroke-width: 0.346410128704416px"/>
  <polygon points="28.913 26 6.913 26 7.612 18 29.612 18 28.913 26" style="opacity: 0.3"/>
  <rect x="35.33333" y="36.85" width="3.16667" height="0.3" rx="0.15" ry="0.15" style="fill: #fff;stroke: #fff;stroke-miterlimit: 10;stroke-width: 0.281365702406095px"/>
  <polygon points="42.388 32 7.388 32 8.175 23 43.175 23 42.388 32" style="fill: #fff"/>
  <polygon points="27 25 6 25 6.7 17 27.7 17 27 25"/>
  <g>
    <path d="M12.55127,18.63623,12.18408,22.833h-.83984l-1.6499-2.87549L9.44287,22.833H8.604l.36719-4.19678h.83887L11.459,21.51807l.25244-2.88184Z" style="fill: #fff"/>
    <path d="M15.75,19.32031H14.16016l-.0918,1.05176h1.40918l-.05859.666H14.00977l-.09668,1.11035h1.58984l-.06006.68457H13.01416l.36719-4.19678h2.42871Z" style="fill: #fff"/>
    <path d="M16.29,18.64209h.89941l.45264,3.25439,1.13623-3.25439h.93555l.52051,3.23682,1.02734-3.23682H22.167L20.63037,22.833h-.98926l-.52441-2.9834-1.082,2.9834-.98389.00586Z" style="fill: #fff"/>
    <path d="M23.7915,22.875c-.87012,0-1.502-.45605-1.44434-1.249h.89941a.52.52,0,0,0,.58691.55811.59838.59838,0,0,0,.67432-.50977c.07959-.90625-2.12744-.35986-1.98877-1.87939A1.41973,1.41973,0,0,1,24.10059,18.582c.85742,0,1.40723.43848,1.39453,1.19531h-.92285a.4993.4993,0,0,0-.55664-.499.53705.53705,0,0,0-.61816.49219c-.07373.84082,2.11377.37256,1.98438,1.84961A1.4648,1.4648,0,0,1,23.7915,22.875Z" style="fill: #fff"/>
  </g>
  <g>
    <path d="M12.31543,29.78516h-1.667l-.34619.79883H9.42139l1.87207-4.19727H12.271l1.1377,4.19727H12.521Zm-.62158-2.42578-.75879,1.75391H12.147Z"/>
    <path d="M15.417,30.626c-.87012,0-1.502-.457-1.44434-1.249h.89941a.52037.52037,0,0,0,.58691.55859.59935.59935,0,0,0,.67432-.50977c.0791-.90723-2.12793-.36133-1.98877-1.88086A1.42013,1.42013,0,0,1,15.72607,26.332c.85742,0,1.40674.43945,1.39453,1.19531h-.92285a.49981.49981,0,0,0-.55713-.498.53676.53676,0,0,0-.61816.49219c-.07373.83984,2.11377.373,1.98486,1.84961A1.46548,1.46548,0,0,1,15.417,30.626Z"/>
    <path d="M19.07129,30.626c-.87012,0-1.502-.457-1.44434-1.249h.89941a.52037.52037,0,0,0,.58691.55859.59935.59935,0,0,0,.67432-.50977c.0791-.90723-2.12793-.36133-1.98877-1.88086A1.42013,1.42013,0,0,1,19.38037,26.332c.85742,0,1.40674.43945,1.39453,1.19531h-.92285a.49981.49981,0,0,0-.55713-.498.53676.53676,0,0,0-.61816.49219c-.07373.83984,2.11377.373,1.98486,1.84961A1.46548,1.46548,0,0,1,19.07129,30.626Z"/>
    <path d="M21.64941,26.39258h.83887l-.3667,4.19141h-.83887Z"/>
    <path d="M24.39258,30.626c-.87012,0-1.502-.457-1.44434-1.249h.89941a.52037.52037,0,0,0,.58691.55859.59935.59935,0,0,0,.67432-.50977c.0791-.90723-2.12793-.36133-1.98877-1.88086A1.42013,1.42013,0,0,1,24.70166,26.332c.85742,0,1.40674.43945,1.394,1.19531h-.92236a.49981.49981,0,0,0-.55713-.498.53676.53676,0,0,0-.61816.49219c-.07373.83984,2.11328.373,1.98486,1.84961A1.46548,1.46548,0,0,1,24.39258,30.626Z"/>
    <path d="M26.749,26.39258h3.07031l-.05957.67773H28.64453L28.33789,30.584H27.498l.30859-3.51367H26.68945Z"/>
    <path d="M32.70313,29.78516h-1.667l-.34668.79883h-.88086l1.873-4.19727h.97656L33.79688,30.584H32.9082ZM32.082,27.35938l-.75977,1.75391h1.21289Z"/>
    <path d="M38.31055,26.38672,37.94336,30.584h-.83984l-1.65039-2.876-.252,2.876h-.83789l.36719-4.19727h.83789l1.65039,2.88184.252-2.88184Z"/>
    <path d="M38.917,26.39258H41.9873l-.05957.67773H40.8125L40.50586,30.584H39.666l.30859-3.51367H38.85742Z"/>
  </g>
</svg>
