<svg id="Layer_1" data-name="Layer 1" xmlns="http://www.w3.org/2000/svg" width="65" height="65" viewBox="0 0 65 65">
  <title>news</title>
  <path d="M63.55,32.1186A30.9222,30.9222,0,0,1,53.1433,55.3213q-.6915.6069-1.4113,1.1855a32.3526,32.3526,0,0,1-3.8483,2.5875,31.0905,31.0905,0,0,1-29.8077.5269L8.15,63.8552a.9461.9461,0,0,1-1.3079-.9786l1.28-10.6227.0941-.79a32.2,32.2,0,0,1-2.4275-3.5V47.954a30.9406,30.9406,0,0,1-3.5472-8.8068v-.0094c-.113-.5081-.2164-1.0068-.3011-1.5243a27.1982,27.1982,0,0,1-.3764-2.9356c-.0565-.63-.0941-1.27-.1035-1.9195-.0094-.207-.0094-.4234-.0094-.64A31.3763,31.3763,0,0,1,3.04,22.258a31.07,31.07,0,0,1,51.0909-12.42,30.4188,30.4188,0,0,1,3.4625,3.9988,28.8144,28.8144,0,0,1,2.3428,3.726v.0094a30.6746,30.6746,0,0,1,3.0956,8.92c.0846.461.16.9315.2258,1.4019A29.8681,29.8681,0,0,1,63.55,32.1186Z" style="fill: #ff6d00"/>
  <path d="M60.4447,32.1568A27.83,27.83,0,0,1,51.079,53.0391q-.6224.5462-1.27,1.067a29.1174,29.1174,0,0,1-3.4635,2.3287,27.9815,27.9815,0,0,1-26.8269.4742L10.5846,60.72a.8515.8515,0,0,1-1.1771-.8807l1.1517-9.56.0847-.7113a28.98,28.98,0,0,1-2.1848-3.15v-.0085a27.8465,27.8465,0,0,1-3.1924-7.9261V38.474c-.1017-.4573-.1948-.9061-.271-1.3718a24.4784,24.4784,0,0,1-.3387-2.642c-.0508-.5673-.0847-1.1432-.0931-1.7275-.0085-.1863-.0085-.381-.0085-.5758a28.2387,28.2387,0,0,1,1.4311-8.8746A27.9631,27.9631,0,0,1,51.9682,12.1043a27.3769,27.3769,0,0,1,3.1163,3.5989,25.933,25.933,0,0,1,2.1085,3.3534v.0085a27.6071,27.6071,0,0,1,2.786,8.0277c.0762.4149.1439.8383.2032,1.2617A26.8813,26.8813,0,0,1,60.4447,32.1568Z" style="fill: #fff"/>
  <polygon points="53.436 45.161 13.15 45.161 14.244 32.659 54.529 32.659 53.436 45.161"/>
  <polygon points="47.341 35.437 8.444 35.437 9.538 22.935 48.434 22.935 47.341 35.437" style="opacity: 0.2"/>
  <polygon points="46.073 34.048 7.177 34.048 8.271 21.546 47.167 21.546 46.073 34.048" style="fill: #ff6d00"/>
  <g>
    <path d="M17.5786,26.0483h-.8867L16.2412,31.2H15.1787l.105-1.1963L15.2593,30a2.0686,2.0686,0,0,1-.5229.2334,1.9,1.9,0,0,1-.5215.0757,1.7188,1.7188,0,0,1-.7153-.1528,1.8472,1.8472,0,0,1-.5923-.4189,1.8852,1.8852,0,0,1-.3867-.6226,1.6931,1.6931,0,0,1-.1-.7632,1.8232,1.8232,0,0,1,.2036-.6982,2.0115,2.0115,0,0,1,1.042-.94,1.9141,1.9141,0,0,1,.7163-.1362c.0439,0,.106.0029.1865.01a1.7072,1.7072,0,0,1,.2749.0508,2.184,2.184,0,0,1,.3311.1206,1.73,1.73,0,0,1,.3569.2178l.0171-.0049.0806-.9229H11.9907l.0806-.9155h5.5879ZM15.481,27.9365a1.1431,1.1431,0,0,0-.4478-.3745,1.16,1.16,0,0,0-.4551-.1025,1.0455,1.0455,0,0,0-.3989.0762,1.115,1.115,0,0,0-.3315.2031,1.0757,1.0757,0,0,0-.2334.2949.8927.8927,0,0,0-.0674.6987.93.93,0,0,0,.1665.311.8553.8553,0,0,0,.2808.2256.834.834,0,0,0,.3892.0879.9471.9471,0,0,0,.4028-.0859,1.1515,1.1515,0,0,0,.3257-.22,1.1378,1.1378,0,0,0,.2266-.2988.8829.8829,0,0,0,.1-.3237Z" style="fill: #fff"/>
    <path d="M15.814,25.2466l-.0991-.22q-.1772-.3984-.3135-.68a4.738,4.738,0,0,0-.252-.4663,1.7475,1.7475,0,0,0-.2168-.2886.7259.7259,0,0,0-.2085-.1548.703.703,0,0,0-.2295-.0635c-.0825-.0073-.1748-.0112-.2783-.0112h-.83l.08-.9116h.7568q.3223,0,.55.0205a1.1054,1.1054,0,0,1,.4038.1079,1.0323,1.0323,0,0,1,.3247.2617,2.747,2.747,0,0,1,.3159.4863q.1663.312.373.7793t.499,1.14Z" style="fill: #fff"/>
    <path d="M23.0649,26.0483h-.8877L21.7266,31.2H20.6641l.1011-1.1558-.0239-.0039a2.403,2.403,0,0,1-.56.2334,2.0663,2.0663,0,0,1-.5493.0762,1.9474,1.9474,0,0,1-1.4-.585,1.8258,1.8258,0,0,1-.4-.6343,1.7579,1.7579,0,0,1-.1006-.7793,1.8594,1.8594,0,0,1,.1968-.6895,1.93,1.93,0,0,1,.4346-.5664,2.0519,2.0519,0,0,1,.627-.3823,2.1214,2.1214,0,0,1,.7778-.14c.0518,0,.1211.0029.2085.01a1.8453,1.8453,0,0,1,.2969.0508,2.2248,2.2248,0,0,1,.3555.1245,2.1783,2.1783,0,0,1,.39.2256l.0156-.0039.0815-.9316H17.2935l.0806-.9155h5.7715Zm-4.2915,2.3394a.96.96,0,0,0,.0386.3521.9348.9348,0,0,0,.1733.3281.9293.9293,0,0,0,.7451.3374,1.3234,1.3234,0,0,0,.4258-.0688L19.19,27.6719a1.0353,1.0353,0,0,0-.2905.3218A.9488.9488,0,0,0,18.7734,28.3877Zm2.1948-.4717a1.3629,1.3629,0,0,0-.51-.3765,1.4258,1.4258,0,0,0-.522-.104,1.108,1.108,0,0,0-.1416.0088c-.0454.0049-.09.0117-.1333.02l.9336,1.6074a1.1028,1.1028,0,0,0,.2261-.2871.7747.7747,0,0,0,.0981-.3071Z" style="fill: #fff"/>
    <path d="M22.86,25.1328h6.9346l-.0806.9155h-.8867L28.377,31.2H27.3145l.2207-2.52H25.4395a1.7382,1.7382,0,0,1-.5854.2285l-.01.0156a3.9855,3.9855,0,0,0,.2231.4727,4.1655,4.1655,0,0,0,.2891.4478,4.7668,4.7668,0,0,0,.3623.4355c.1338.1431.2813.2891.4424.4351l-.7368.7451a5.8487,5.8487,0,0,1-.5122-.564q-.25-.3113-.4785-.6489c-.1523-.2251-.2964-.4546-.43-.688s-.2583-.46-.3721-.6821-.2144-.43-.3022-.6284-.1626-.3745-.2222-.5293l.9395-.46a1.6033,1.6033,0,0,0,.2769.5762.4485.4485,0,0,0,.34.1816.3346.3346,0,0,0,.19-.0571.4986.4986,0,0,0,.1445-.1567.966.966,0,0,0,.0962-.2383,1.927,1.927,0,0,0,.0508-.3057,2.038,2.038,0,0,0-.0391-.6265,1.9874,1.9874,0,0,0-.2378-.5854H22.78Zm4.7539,2.6411.1509-1.7256H25.97a3.3875,3.3875,0,0,1,.188.6245,2.2849,2.2849,0,0,1,.0317.6411,2.13,2.13,0,0,1-.0332.2314c-.0142.0757-.0317.1528-.0522.2285Z" style="fill: #fff"/>
    <path d="M32.2793,26.0483h-.8872L30.9414,31.2H29.8789l.4507-5.1519H29.43l.0806-.9155h2.8486Z" style="fill: #fff"/>
    <path d="M34.8154,31.1558a4.1814,4.1814,0,0,0,.335.2827c.1133.0859.2236.1616.332.228s.2109.1245.3086.1748.1875.0923.2715.1284l-.5762.8628a4.4947,4.4947,0,0,1-.5176-.3179,5.41,5.41,0,0,1-.4756-.3765,5.6,5.6,0,0,1-.4131-.4048,4.2846,4.2846,0,0,1-.3262-.4028,1.6253,1.6253,0,0,1-.5381-.0835,1.191,1.191,0,0,1-.3955-.2236.8885.8885,0,0,1-.2363-.3242.7844.7844,0,0,1-.06-.3862.5853.5853,0,0,1,.0791-.252.7088.7088,0,0,1,.17-.1953.79.79,0,0,1,.2344-.1284.8287.8287,0,0,1,.2783-.0469,1.136,1.136,0,0,1,.6182.1714,1.3654,1.3654,0,0,1,.4561.4883,1.5751,1.5751,0,0,0,.3789-.1.8856.8856,0,0,0,.2568-.1606.6212.6212,0,0,0,.1484-.21.8228.8228,0,0,0,.0605-.2466.5006.5006,0,0,0-.0234-.2314.2843.2843,0,0,0-.1016-.13.4036.4036,0,0,0-.1621-.0591,1.474,1.474,0,0,0-.2051-.0137H33.6484a1.022,1.022,0,0,1-.5977-.1636,1.1683,1.1683,0,0,1-.3662-.4067,1.55,1.55,0,0,1-.1758-.5254,2.1652,2.1652,0,0,1-.0225-.52,1.3123,1.3123,0,0,1,.123-.4761.9836.9836,0,0,1,.25-.32.948.948,0,0,1,.34-.1792,1.3677,1.3677,0,0,1,.3906-.0542h1.3887l.0439-.5049H31.9937l.0806-.9155h5.3721l-.08.9155H36.084l-.125,1.42h-1.94a.66.66,0,0,0-.3643.0732.2907.2907,0,0,0-.1172.2275.5321.5321,0,0,0,.01.16.3772.3772,0,0,0,.0713.1567.4139.4139,0,0,0,.1611.1177.6978.6978,0,0,0,.2773.0464h1.1055a1.4515,1.4515,0,0,1,.5664.0957.8768.8768,0,0,1,.3535.2642.94.94,0,0,1,.1729.395,1.7835,1.7835,0,0,1,.0215.4829,2.0224,2.0224,0,0,1-.125.5444,1.6872,1.6872,0,0,1-.2793.4683,1.7907,1.7907,0,0,1-.4414.3706,2.4877,2.4877,0,0,1-.6084.2568Z" style="fill: #fff"/>
    <path d="M41.3457,30.8013a3.1519,3.1519,0,0,1-1.6436.4565,2.5057,2.5057,0,0,1-.999-.188,2.0036,2.0036,0,0,1-.7207-.5107,1.97,1.97,0,0,1-.416-.7549A2.462,2.462,0,0,1,37.48,28.88a2.1948,2.1948,0,0,1,.2148-.8071,1.779,1.779,0,0,1,.4551-.58,1.9349,1.9349,0,0,1,.6543-.35,2.6572,2.6572,0,0,1,.8076-.1177h.6064l.0859-.9766H37.0811l.08-.9155h5.5674l-.08.9155H41.3662l-.165,1.8882H39.749a1.7692,1.7692,0,0,0-.4678.0571,1.0187,1.0187,0,0,0-.3662.1792.8775.8775,0,0,0-.2471.3149,1.3886,1.3886,0,0,0-.1162.4663,1.4474,1.4474,0,0,0,.0469.5449,1.0832,1.0832,0,0,0,.2217.415.9843.9843,0,0,0,.37.2627,1.2562,1.2562,0,0,0,.4922.0918,1.9568,1.9568,0,0,0,.4375-.0527,3.7886,3.7886,0,0,0,.4629-.1392,4.72,4.72,0,0,0,.4521-.1943c.1475-.0742.2832-.1479.41-.2241Z" style="fill: #fff"/>
  </g>
  <polygon points="54.703 46.551 15.807 46.551 16.901 34.048 55.797 34.048 54.703 46.551" style="opacity: 0.2"/>
  <g>
    <path d="M19.9565,36.2637h6.9346l-.08.916h-.8867l-.4507,5.1523H24.4111l.22-2.5205H22.5356a1.7351,1.7351,0,0,1-.5854.2295l-.01.0146a3.9591,3.9591,0,0,0,.2231.4736,4.2589,4.2589,0,0,0,.2891.4473,4.746,4.746,0,0,0,.3618.4355c.1343.1436.2817.2891.4429.4346l-.7373.7461a5.98,5.98,0,0,1-.5122-.5645c-.1665-.207-.3252-.4238-.4785-.6494s-.2959-.4541-.43-.6875-.2588-.46-.3721-.6816-.2144-.4307-.3027-.6289-.1621-.374-.2222-.5293l.94-.46a1.5956,1.5956,0,0,0,.2764.5762.4516.4516,0,0,0,.3408.1816.3287.3287,0,0,0,.1895-.0576.4915.4915,0,0,0,.1445-.1562.9739.9739,0,0,0,.0962-.2383,1.8622,1.8622,0,0,0,.0513-.3057,2.0431,2.0431,0,0,0-.0391-.627,1.9847,1.9847,0,0,0-.2378-.585H19.8765Zm4.7544,2.6416.1509-1.7256H23.0669a3.3917,3.3917,0,0,1,.1875.624,2.2712,2.2712,0,0,1,.0317.6416,2.1461,2.1461,0,0,1-.0327.2314c-.0146.0762-.0322.1523-.0522.2285Z" style="fill: #fff"/>
    <path d="M29.3354,41.0859a1.6533,1.6533,0,0,0,.4644-.24.457.457,0,0,0,.1372-.5186.3985.3985,0,0,0-.1357-.167.75.75,0,0,0-.2568-.1123,1.6355,1.6355,0,0,0-.3872-.04,2.0308,2.0308,0,0,0-.3779.0352.9647.9647,0,0,0-.3364.126.7765.7765,0,0,0-.252.2461.8388.8388,0,0,0-.1211.3906,1.1018,1.1018,0,0,0,.0532.4619,1.4308,1.4308,0,0,0,.2134.3965A1.9964,1.9964,0,0,0,28.6626,42a3.8779,3.8779,0,0,0,.3936.2793,4.3116,4.3116,0,0,0,.41.2217c.1367.0635.2646.1182.3828.1641l-.4785.8594c-.2041-.09-.4067-.1855-.6074-.2891a5.7671,5.7671,0,0,1-.5732-.3359,3.849,3.849,0,0,1-.4966-.3945,2.41,2.41,0,0,1-.3838-.4678,1.9471,1.9471,0,0,1-.2349-.5557,1.985,1.985,0,0,1-.0439-.6562,1.9,1.9,0,0,1,.1592-.6367,1.7176,1.7176,0,0,1,.33-.4854,2.62,2.62,0,0,1-.1353-.2666,2.11,2.11,0,0,1-.1-.2832,2.3034,2.3034,0,0,1-.0562-.2832,1.2643,1.2643,0,0,1-.0068-.2705,1.0247,1.0247,0,0,1,.0859-.33.7992.7992,0,0,1,.21-.28,1.0335,1.0335,0,0,1,.3481-.1953,1.5363,1.5363,0,0,1,.5034-.0732h1.66l.0474-.541H26.5269l.08-.916H32.17l-.08.916H31.146l-.123,1.4072h-2.43a.4288.4288,0,0,0-.1089.0146.3209.3209,0,0,0-.106.0488.3169.3169,0,0,0-.0864.0957.3743.3743,0,0,0-.0435.1543.5088.5088,0,0,0,.0112.1729.5869.5869,0,0,0,.0581.1494,2.9489,2.9489,0,0,1,.92-.1436,2.8271,2.8271,0,0,1,.7183.0879,1.71,1.71,0,0,1,.5811.2666,1.1547,1.1547,0,0,1,.373.4561,1.28,1.28,0,0,1,.0962.6563,1.3855,1.3855,0,0,1-.1592.5586,1.537,1.537,0,0,1-.3228.4053,2.0513,2.0513,0,0,1-.4258.291,4.8955,4.8955,0,0,1-.4746.21Z" style="fill: #fff"/>
    <path d="M34.6543,37.18h-.8867l-.4512,5.1523H32.2539l.4512-5.1523h-.9l.08-.916h2.8491Z" style="fill: #fff"/>
    <path d="M34.3691,37.18l.08-.916H40.293l-.08.916h-.8867L38.875,42.332H37.8125l.1318-1.5107-.0107-.0039c-.0674.0459-.14.0918-.2187.1367a1.67,1.67,0,0,1-.2559.1191,1.7722,1.7722,0,0,1-.3047.0859,1.8387,1.8387,0,0,1-.3652.0332,1.752,1.752,0,0,1-1.501-.7471,2.4545,2.4545,0,0,1-.3613-.7588,3.864,3.864,0,0,1-.1445-.8633,1.5645,1.5645,0,0,0,.4473-.1133,1.0415,1.0415,0,0,0,.3027-.1973.7969.7969,0,0,0,.1768-.2568.979.979,0,0,0,.0723-.291,1.1236,1.1236,0,0,0-.0322-.375,1.7356,1.7356,0,0,0-.1709-.41Zm2.4756.9521a1.293,1.293,0,0,1-.2637.6934,1.529,1.529,0,0,1-.6436.4736,1.2875,1.2875,0,0,0,.125.4121.9055.9055,0,0,0,.2139.2783.8072.8072,0,0,0,.2783.1592,1.0258,1.0258,0,0,0,.3252.0508,1.22,1.22,0,0,0,.6758-.1895,1.6773,1.6773,0,0,0,.5059-.5264l.2021-2.3037H36.6309a1.799,1.799,0,0,1,.1846.49A1.6334,1.6334,0,0,1,36.8447,38.1318Z" style="fill: #fff"/>
    <path d="M44.584,40.6631a2.979,2.979,0,0,0,.4746-.293,2.3459,2.3459,0,0,0,.3477-.3271,1.5586,1.5586,0,0,0,.2207-.3379.9806.9806,0,0,0,.0908-.3242.8921.8921,0,0,0-.0088-.22.5825.5825,0,0,0-.0771-.2158.5138.5138,0,0,0-.1582-.1631.47.47,0,0,0-.2549-.0645.6921.6921,0,0,0-.3154.0791,1.2727,1.2727,0,0,0-.3.2119,2.0893,2.0893,0,0,0-.2646.3008,2.6218,2.6218,0,0,0-.2158.3525l-.2334,2.67H42.8271l.1172-1.3389-.0078-.0049c-.0352.0225-.0791.0488-.1357.08a1.6369,1.6369,0,0,1-.1963.0908,1.83,1.83,0,0,1-.26.0781,1.4586,1.4586,0,0,1-.3164.0322,1.5323,1.5323,0,0,1-.6758-.1533,1.6915,1.6915,0,0,1-.55-.4141,1.8194,1.8194,0,0,1-.4395-1.37,1.9185,1.9185,0,0,1,.166-.6348,1.7979,1.7979,0,0,1,.3691-.5293,1.7133,1.7133,0,0,1,.542-.3623,1.755,1.755,0,0,1,.6953-.1338,1.614,1.614,0,0,1,.5225.085,1.8812,1.8812,0,0,1,.5342.31l.0078-.0039.0771-.8828h-3.35l.08-.916h7.834l-.08.916H44.34l-.084.96.0078.0039a1.6692,1.6692,0,0,1,.3115-.2109,1.8174,1.8174,0,0,1,.3076-.127,1.7,1.7,0,0,1,.2832-.0605,1.9513,1.9513,0,0,1,.2363-.0156,1.3083,1.3083,0,0,1,.627.1416,1.3312,1.3312,0,0,1,.4434.373,1.4632,1.4632,0,0,1,.2539.5225,1.7329,1.7329,0,0,1,.0518.5977,1.9513,1.9513,0,0,1-.165.625,2.6188,2.6188,0,0,1-.3652.5879,3.4909,3.4909,0,0,1-.5381.5273,4.5771,4.5771,0,0,1-.6855.4463ZM43.1377,39.06c-.05-.0537-.1025-.1094-.16-.167a1.1049,1.1049,0,0,0-.19-.1523,1.0693,1.0693,0,0,0-.23-.11.8807.8807,0,0,0-.2812-.043.8007.8007,0,0,0-.76.4971,1.0283,1.0283,0,0,0-.0762.31.9558.9558,0,0,0,.0313.35.7429.7429,0,0,0,.1514.2852.7528.7528,0,0,0,.26.1914.8788.8788,0,0,0,.3584.0693.8186.8186,0,0,0,.3926-.0859.77.77,0,0,0,.2607-.2217.9674.9674,0,0,0,.1533-.3037,1.61,1.61,0,0,0,.0654-.3291Z" style="fill: #fff"/>
  </g>
</svg>
