<svg id="Layer_1" data-name="Layer 1" xmlns="http://www.w3.org/2000/svg" width="65" height="65" viewBox="0 0 65 65">
  <title>news</title>
  <path d="M32.5,63.5h0a31,31,0,0,1-31-31h0a31,31,0,0,1,31-31h28a3,3,0,0,1,3,3v28A31,31,0,0,1,32.5,63.5Z" style="fill: #faa11a"/>
  <path d="M32.5,4.6H57.7a2.7,2.7,0,0,1,2.7,2.7V32.5A27.9,27.9,0,0,1,32.5,60.4h0A27.9,27.9,0,0,1,4.6,32.5v0A27.9,27.9,0,0,1,32.5,4.6Z" style="fill: #fff"/>
  <polygon points="54.642 41.87 11.89 41.87 12.799 31.31 55.551 31.31 54.642 41.87"/>
  <polygon points="44.66 32.27 10.93 32.27 11.76 21.71 45.49 21.71 44.66 32.27" style="fill: #faa11a"/>
  <g>
    <path d="M12.69,25.0317h1.124l.5654,4.062,1.42-4.062h1.168l.65,4.04,1.2832-4.04h1.1309l-1.9185,5.231H16.877l-.6558-3.7236-1.3521,3.7236-1.2295.0078Z" style="fill: #fff"/>
    <path d="M23.6694,25.8794H21.6841l-.1147,1.3115H23.33l-.0728.8315H21.4966l-.1211,1.3862h1.9854l-.0747.854H20.252l.458-5.2378h3.0342Z" style="fill: #fff"/>
    <path d="M26.4912,30.2627H24.2354l.4575-5.231h2.1582c1.0938,0,1.65.57,1.582,1.35a1.3447,1.3447,0,0,1-.9966,1.1982,1.1405,1.1405,0,0,1,.9009,1.2671A1.6438,1.6438,0,0,1,26.4912,30.2627ZM26.5161,28H25.4819l-.123,1.4087h1.0566c.51,0,.8311-.2471.87-.6895C27.3247,28.27,27.0259,28,26.5161,28Zm.11-2.1206h-.959l-.1147,1.3115h.959c.4951,0,.7988-.2251.8364-.6519C27.3848,26.1187,27.1216,25.8794,26.6265,25.8794Z" style="fill: #fff"/>
    <path d="M30.8506,30.3154c-1.0859,0-1.875-.57-1.8042-1.5586H30.17a.65.65,0,0,0,.7334.6968.7478.7478,0,0,0,.8428-.6372c.0991-1.1313-2.6582-.45-2.4844-2.3457a1.7727,1.7727,0,0,1,1.9751-1.5137c1.0713,0,1.7578.5479,1.7427,1.4912H31.8257a.6219.6219,0,0,0-.6948-.6216.6693.6693,0,0,0-.7725.6138c-.0918,1.05,2.6411.4653,2.48,2.3086A1.8307,1.8307,0,0,1,30.8506,30.3154Z" style="fill: #fff"/>
    <path d="M34.0664,25.0317h1.0488l-.457,5.231H33.6094Z" style="fill: #fff"/>
    <path d="M35.8711,25.0317H39.707l-.0732.8477H38.2412l-.3838,4.3833h-1.05l.3838-4.3833H35.7969Z" style="fill: #fff"/>
    <path d="M43.43,25.8794H41.4443l-.1152,1.3115H43.09l-.0723.8315H41.2559l-.1211,1.3862H43.12l-.0742.854H40.0117l.458-5.2378h3.0342Z" style="fill: #fff"/>
  </g>
  <g>
    <path d="M16.9751,38.19h-2.083l-.4321.9971H13.3584L15.6978,33.95h1.2217l1.4214,5.2373H17.2324Zm-.7759-3.0273L15.25,37.3525h1.5127Z" style="fill: #fff"/>
    <path d="M20.8433,39.24c-1.0859,0-1.875-.57-1.8042-1.5586h1.124a.65.65,0,0,0,.7329.6973.7486.7486,0,0,0,.8433-.6377c.0986-1.1318-2.6582-.4492-2.4844-2.3457A1.7727,1.7727,0,0,1,21.23,33.8818c1.0713,0,1.7578.5479,1.7427,1.4912H21.8184a.6218.6218,0,0,0-.6948-.6211.669.669,0,0,0-.7725.6133c-.0918,1.05,2.6411.4648,2.48,2.3086A1.8307,1.8307,0,0,1,20.8433,39.24Z" style="fill: #fff"/>
    <path d="M25.4028,39.24c-1.0859,0-1.875-.57-1.8042-1.5586h1.124a.65.65,0,0,0,.7329.6973.7486.7486,0,0,0,.8433-.6377c.0986-1.1318-2.6582-.4492-2.4844-2.3457A1.7727,1.7727,0,0,1,25.79,33.8818c1.0713,0,1.7578.5479,1.7427,1.4912H26.3779a.6218.6218,0,0,0-.6948-.6211.669.669,0,0,0-.7725.6133c-.0918,1.05,2.6411.4648,2.48,2.3086A1.8307,1.8307,0,0,1,25.4028,39.24Z" style="fill: #fff"/>
    <path d="M28.62,33.957h1.0488l-.458,5.23H28.1621Z" style="fill: #fff"/>
    <path d="M32.0454,39.24c-1.0859,0-1.875-.57-1.8042-1.5586h1.124a.65.65,0,0,0,.7329.6973.7486.7486,0,0,0,.8433-.6377c.0986-1.1318-2.6582-.4492-2.4844-2.3457a1.7727,1.7727,0,0,1,1.9751-1.5137c1.0718,0,1.7573.5479,1.7427,1.4912H33.0205a.6218.6218,0,0,0-.6948-.6211.669.669,0,0,0-.7725.6133c-.0918,1.05,2.6411.4648,2.48,2.3086A1.831,1.831,0,0,1,32.0454,39.24Z" style="fill: #fff"/>
    <path d="M34.9854,33.957h3.8359l-.0742.8467H37.3535L36.97,39.1875H35.92l.3838-4.3838H34.9111Z" style="fill: #fff"/>
    <path d="M42.418,38.19h-2.082l-.4326.9971H38.8018L41.1406,33.95h1.2217l1.4219,5.2373H42.6758Zm-.7754-3.0273-.9482,2.1895H42.207Z" style="fill: #fff"/>
    <path d="M49.416,33.95l-.458,5.2373H47.9092l-2.0605-3.59-.3145,3.59H44.4854l.458-5.2373h1.0488l2.0605,3.5967.3145-3.5967Z" style="fill: #fff"/>
    <path d="M50.1709,33.957h3.8359l-.0742.8467H52.5391l-.3838,4.3838h-1.05l.3838-4.3838H50.0967Z" style="fill: #fff"/>
  </g>
  <rect x="34.6481" y="43.39" width="12" height="0.8" rx="0.4" ry="0.4" style="fill: #faa11a"/>
  <rect x="29.0481" y="43.39" width="4" height="0.8" rx="0.4" ry="0.4" style="fill: #faa11a"/>
</svg>
