<svg id="Layer_1" data-name="Layer 1" xmlns="http://www.w3.org/2000/svg" width="65" height="65" viewBox="0 0 65 65">
  <title>news</title>
  <path d="M32.5,63.5h0a31,31,0,0,1-31-31h0a31,31,0,0,1,31-31h28a3,3,0,0,1,3,3v28A31,31,0,0,1,32.5,63.5Z" style="fill: #faa11a"/>
  <path d="M32.5,4.6H57.7a2.7,2.7,0,0,1,2.7,2.7V32.5A27.9,27.9,0,0,1,32.5,60.4h0A27.9,27.9,0,0,1,4.6,32.5v0A27.9,27.9,0,0,1,32.5,4.6Z" style="fill: #fff"/>
  <polygon points="57.342 44.142 9.196 44.142 10.221 32.249 58.366 32.249 57.342 44.142"/>
  <polygon points="46.1 33.331 8.115 33.331 9.049 21.438 47.035 21.438 46.1 33.331" style="fill: #faa11a"/>
  <g>
    <path d="M10.1,25.1426h1.2656l.6382,4.5728,1.5981-4.5728H14.918l.7334,4.5474,1.4434-4.5474h1.2744l-2.1606,5.8887H14.8159l-.7388-4.1929-1.522,4.1929-1.3843.0088Z" style="fill: #fff"/>
    <path d="M22.4653,26.0962H20.229L20.1,27.5728h1.9824l-.082.936H20.0181l-.1362,1.5605h2.2363l-.0845.9619h-3.418l.5161-5.8975H22.55Z" style="fill: #fff"/>
    <path d="M25.6421,31.0313h-2.54l.5151-5.8887h2.4307c1.2314,0,1.8589.6411,1.7822,1.5186a1.5157,1.5157,0,0,1-1.1221,1.35,1.2859,1.2859,0,0,1,1.0142,1.4263A1.8515,1.8515,0,0,1,25.6421,31.0313Zm.0288-2.5479H24.5068l-.1387,1.5859h1.1895c.5742,0,.9351-.2783.9785-.7754C26.5806,28.7871,26.2451,28.4834,25.6709,28.4834Zm.1245-2.3872h-1.08l-.1289,1.4766h1.08c.5566,0,.9-.2539.9419-.7344C26.65,26.3657,26.3521,26.0962,25.7954,26.0962Z" style="fill: #fff"/>
    <path d="M30.5527,31.0908c-1.2236,0-2.1128-.6411-2.0317-1.7549h1.2656a.73.73,0,0,0,.8257.7837.8415.8415,0,0,0,.9487-.7168c.1113-1.2734-2.9937-.5059-2.7983-2.64a1.996,1.996,0,0,1,2.2251-1.7046c1.2061,0,1.9795.6157,1.9624,1.6792h-1.3a.7018.7018,0,0,0-.7822-.7007.7562.7562,0,0,0-.8711.6919c-.1035,1.1812,2.9756.5234,2.7939,2.5986A2.0618,2.0618,0,0,1,30.5527,31.0908Z" style="fill: #fff"/>
    <path d="M34.1748,25.1426h1.1816l-.5146,5.8887H33.66Z" style="fill: #fff"/>
    <path d="M36.207,25.1426h4.32l-.083.9536h-1.57l-.4316,4.9351H37.2617l.4316-4.9351H36.124Z" style="fill: #fff"/>
    <path d="M44.72,26.0962H42.4834l-.13,1.4766h1.9824l-.0811.936H42.2725l-.1367,1.5605h2.2363l-.084.9619H40.87l.5156-5.8975h3.418Z" style="fill: #fff"/>
  </g>
  <g>
    <path d="M14.9243,39.96H12.5786l-.4858,1.1221h-1.24l2.6333-5.8975h1.376l1.6021,5.8975h-1.249ZM14.05,36.5518l-1.0669,2.4629H14.687Z" style="fill: #fff"/>
    <path d="M19.2822,41.1416c-1.2236,0-2.1133-.6416-2.0322-1.7559h1.2656a.73.73,0,0,0,.8262.7842.8407.8407,0,0,0,.9482-.7168c.1113-1.2734-2.9937-.5059-2.7983-2.64a1.9966,1.9966,0,0,1,2.2251-1.7051c1.2061,0,1.9795.6162,1.9629,1.68h-1.3a.7023.7023,0,0,0-.7827-.7012.7562.7562,0,0,0-.8711.6924c-.103,1.1807,2.9756.5234,2.7944,2.5986A2.0621,2.0621,0,0,1,19.2822,41.1416Z" style="fill: #fff"/>
    <path d="M24.417,41.1416c-1.2236,0-2.1133-.6416-2.0322-1.7559H23.65a.73.73,0,0,0,.8262.7842.8407.8407,0,0,0,.9482-.7168c.1113-1.2734-2.9937-.5059-2.7983-2.64a1.9966,1.9966,0,0,1,2.2251-1.7051c1.2061,0,1.9795.6162,1.9629,1.68h-1.3a.7023.7023,0,0,0-.7827-.7012.7562.7562,0,0,0-.8711.6924c-.103,1.1807,2.9756.5234,2.7944,2.5986A2.0621,2.0621,0,0,1,24.417,41.1416Z" style="fill: #fff"/>
    <path d="M28.0386,35.1934H29.22l-.5151,5.8887H27.5234Z" style="fill: #fff"/>
    <path d="M31.8965,41.1416c-1.2236,0-2.1133-.6416-2.0322-1.7559H31.13a.73.73,0,0,0,.8262.7842.8407.8407,0,0,0,.9482-.7168c.1113-1.2734-2.9937-.5059-2.7983-2.64a1.9966,1.9966,0,0,1,2.2251-1.7051c1.2061,0,1.9795.6162,1.9629,1.68h-1.3a.702.702,0,0,0-.7827-.7012.7562.7562,0,0,0-.8711.6924c-.103,1.1807,2.9761.5234,2.7944,2.5986A2.0618,2.0618,0,0,1,31.8965,41.1416Z" style="fill: #fff"/>
    <path d="M35.207,35.1934h4.32l-.084.9531h-1.57l-.4316,4.9355H36.2607l.4316-4.9355H35.123Z" style="fill: #fff"/>
    <path d="M43.5781,39.96H41.2324l-.4863,1.1221h-1.24l2.6328-5.8975h1.376l1.6025,5.8975h-1.249Zm-.875-3.4082-1.0674,2.4629H43.34Z" style="fill: #fff"/>
    <path d="M51.46,35.1846l-.5156,5.8975H49.7627l-2.3213-4.041-.3535,4.041H45.9063l.5156-5.8975h1.1816l2.3213,4.05.3535-4.05Z" style="fill: #fff"/>
    <path d="M52.3066,35.1934h4.32l-.084.9531H54.9736L54.542,41.082H53.3613l.4316-4.9355h-1.57Z" style="fill: #fff"/>
  </g>
  <rect x="34.6481" y="45.39" width="12" height="0.8" rx="0.4" ry="0.4" style="fill: #faa11a"/>
  <rect x="29.0481" y="45.39" width="4" height="0.8" rx="0.4" ry="0.4" style="fill: #faa11a"/>
</svg>
