<svg width="65" height="65" viewBox="0 0 65 65" fill="none" xmlns="http://www.w3.org/2000/svg">
<path d="M63.8499 32.1149C63.8594 36.5415 62.9275 40.9195 61.116 44.9585C59.3045 48.9974 56.6549 52.605 53.3429 55.5419C52.8774 55.9504 52.4024 56.3494 51.9179 56.7389C50.6869 57.7016 49.3884 58.5746 48.0324 59.3514C43.462 61.9542 38.311 63.367 33.0523 63.46C27.7936 63.5529 22.5958 62.3231 17.9364 59.8834L7.9139 64.1584C7.76024 64.2233 7.59228 64.2468 7.42672 64.2265C7.26116 64.2063 7.10378 64.1431 6.97024 64.0432C6.8367 63.9433 6.73164 63.8101 6.66553 63.657C6.59941 63.5039 6.57454 63.3361 6.59339 63.1704L7.88543 52.4449L7.98043 51.6469C7.08633 50.5243 6.26754 49.3437 5.52943 48.1129V48.1034C3.88525 45.3413 2.67721 42.342 1.94797 39.2114V39.2019C1.83392 38.6889 1.72943 38.1854 1.64397 37.6629C1.4636 36.6825 1.33675 35.6931 1.26397 34.6989C1.20697 34.0624 1.16897 33.4164 1.15948 32.7609C1.1499 32.5519 1.1499 32.3334 1.1499 32.1149C1.15003 28.7318 1.69206 25.3706 2.7554 22.1589C4.44155 17.1322 7.37423 12.6149 11.2795 9.02883C15.1848 5.44279 19.9352 2.90505 25.0872 1.65265C30.2391 0.400251 35.6244 0.474048 40.7401 1.86715C45.8557 3.26025 50.5349 5.92721 54.3404 9.61891C55.6208 10.8607 56.7905 12.2116 57.8364 13.6564C58.7197 14.8483 59.5105 16.1059 60.2019 17.4184V17.4279C61.7023 20.2506 62.7566 23.2886 63.3274 26.4339C63.4129 26.8994 63.4889 27.3744 63.5554 27.8494C63.7544 29.2625 63.8528 30.6879 63.8499 32.1149Z" fill="#0F76BC"/>
<path d="M59.7722 42.4831H7.8252L9.0542 28.4431H61.0002L59.7722 42.4831Z" fill="white"/>
<path d="M43.907 31.251H6L7.105 18.615H45.012L43.907 31.251Z" fill="black"/>
<path d="M31.6289 46H46.3706" stroke="white" stroke-width="1.10837" stroke-miterlimit="10" stroke-linecap="round"/>
<path d="M49 46H53" stroke="white" stroke-miterlimit="10" stroke-linecap="round"/>
<path d="M12.321 26.1191C12.3137 26.1631 12.31 26.2218 12.31 26.2951C12.31 26.4418 12.3504 26.5481 12.431 26.6141C12.519 26.6728 12.662 26.7021 12.86 26.7021H13.586L13.355 28.0001H12.376C11.276 28.0001 10.726 27.5418 10.726 26.6251C10.726 26.4491 10.7407 26.2768 10.77 26.1081L11.287 23.1711H10.561L10.781 21.9061H11.518L11.782 20.3991H13.333L13.069 21.9061H14.422L14.202 23.1711H12.838L12.321 26.1191Z" fill="white"/>
<path d="M16.8937 22.9841C17.1577 22.6174 17.4657 22.3314 17.8177 22.1261C18.1697 21.9208 18.551 21.8181 18.9617 21.8181L18.6757 23.4351H18.2687C17.814 23.4351 17.4474 23.5341 17.1687 23.7321C16.8974 23.9301 16.6994 24.2674 16.5747 24.7441L16.0027 28.0001H14.4517L15.5297 21.9061H17.0807L16.8937 22.9841Z" fill="white"/>
<path d="M21.4949 28.1101C21.0476 28.1101 20.6479 28.0184 20.2959 27.8351C19.9513 27.6444 19.6799 27.3768 19.4819 27.0321C19.2913 26.6874 19.1959 26.2768 19.1959 25.8001C19.1959 25.3748 19.2363 24.9678 19.3169 24.5791C19.4049 24.1904 19.5333 23.8348 19.7019 23.5121C19.8706 23.1821 20.0833 22.8961 20.3399 22.6541C20.5966 22.4121 20.8936 22.2251 21.2309 22.0931C21.5756 21.9538 21.9606 21.8841 22.3859 21.8841C22.7746 21.8841 23.1193 21.9501 23.4199 22.0821C23.7279 22.2141 23.9809 22.4084 24.1789 22.6651C24.3843 22.5844 24.5456 22.4634 24.6629 22.3021C24.7876 22.1408 24.8829 21.9538 24.9489 21.7411C25.0223 21.5284 25.0773 21.3121 25.1139 21.0921H26.6979L26.7529 21.2241C26.6503 21.6128 26.5146 21.9538 26.3459 22.2471C26.1773 22.5404 25.9536 22.7934 25.6749 23.0061C25.3963 23.2188 25.0333 23.4058 24.5859 23.5671C24.6153 23.6698 24.6336 23.7798 24.6409 23.8971C24.6556 24.0144 24.6629 24.1354 24.6629 24.2601C24.6629 24.6634 24.6226 25.0558 24.5419 25.4371C24.4613 25.8184 24.3366 26.1704 24.1679 26.4931C24.0066 26.8158 23.8013 27.0981 23.5519 27.3401C23.3026 27.5821 23.0056 27.7728 22.6609 27.9121C22.3163 28.0441 21.9276 28.1101 21.4949 28.1101ZM21.6269 26.7901C21.8029 26.7901 21.9643 26.7461 22.1109 26.6581C22.2576 26.5628 22.3896 26.4344 22.5069 26.2731C22.6243 26.1118 22.7196 25.9248 22.7929 25.7121C22.8736 25.4994 22.9323 25.2684 22.9689 25.0191C23.0129 24.7698 23.0349 24.5168 23.0349 24.2601C23.0349 24.0548 23.0093 23.8751 22.9579 23.7211C22.9139 23.5598 22.8333 23.4351 22.7159 23.3471C22.6059 23.2518 22.4556 23.2041 22.2649 23.2041C22.0669 23.2041 21.8909 23.2591 21.7369 23.3691C21.5829 23.4791 21.4473 23.6258 21.3299 23.8091C21.2199 23.9851 21.1246 24.1868 21.0439 24.4141C20.9706 24.6414 20.9156 24.8761 20.8789 25.1181C20.8423 25.3528 20.8239 25.5801 20.8239 25.8001C20.8239 26.1228 20.8899 26.3684 21.0219 26.5371C21.1539 26.7058 21.3556 26.7901 21.6269 26.7901ZM21.2199 30.3101C20.9926 30.3101 20.7983 30.2588 20.6369 30.1561C20.4829 30.0608 20.4059 29.8921 20.4059 29.6501C20.4059 29.3421 20.4903 29.1074 20.6589 28.9461C20.8349 28.7848 21.0769 28.7041 21.3849 28.7041C21.5316 28.7041 21.6636 28.7224 21.7809 28.7591C21.9056 28.8031 22.0046 28.8728 22.0779 28.9681C22.1513 29.0634 22.1879 29.1918 22.1879 29.3531C22.1879 29.6391 22.1073 29.8701 21.9459 30.0461C21.7919 30.2221 21.5499 30.3101 21.2199 30.3101Z" fill="white"/>
<path d="M32.179 19.8601L30.738 28.0001H29.187L30.628 19.8601H32.179Z" fill="white"/>
<path d="M34.3496 21.9061L35.1636 26.1631L37.5286 21.9061H39.1676L33.8106 30.8821H32.1716L34.0196 27.8461L32.6226 21.9061H34.3496ZM37.3966 20.3221L34.6466 21.4771L34.8446 20.3771L37.6166 19.0681L37.3966 20.3221Z" fill="white"/>
<path d="M17.321 39.1191C17.3137 39.1631 17.31 39.2218 17.31 39.2951C17.31 39.4418 17.3504 39.5481 17.431 39.6141C17.519 39.6728 17.662 39.7021 17.86 39.7021H18.586L18.355 41.0001H17.376C16.276 41.0001 15.726 40.5418 15.726 39.6251C15.726 39.4491 15.7407 39.2768 15.77 39.1081L16.287 36.1711H15.561L15.781 34.9061H16.518L16.782 33.3991H18.333L18.069 34.9061H19.422L19.202 36.1711H17.838L17.321 39.1191Z" fill="black"/>
<path d="M21.4427 34.1801C21.2007 34.1801 21.0064 34.1104 20.8597 33.9711C20.713 33.8318 20.6397 33.6558 20.6397 33.4431C20.6397 33.1498 20.7497 32.9004 20.9697 32.6951C21.197 32.4824 21.461 32.3761 21.7617 32.3761C21.9964 32.3761 22.187 32.4458 22.3337 32.5851C22.4804 32.7244 22.5537 32.9004 22.5537 33.1131C22.5537 33.4064 22.4437 33.6594 22.2237 33.8721C22.0037 34.0774 21.7434 34.1801 21.4427 34.1801ZM22.0807 34.9061L21.0027 41.0001H19.4517L20.5297 34.9061H22.0807Z" fill="black"/>
<path d="M26.9792 34.8181C27.6099 34.8181 28.1049 34.9904 28.4642 35.3351C28.8309 35.6724 29.0142 36.1564 29.0142 36.7871C29.0142 37.0218 28.9959 37.2344 28.9592 37.4251L28.3212 41.0001H26.7922L27.3862 37.6341C27.4082 37.5021 27.4192 37.3738 27.4192 37.2491C27.4192 36.8824 27.3202 36.6038 27.1222 36.4131C26.9315 36.2224 26.6565 36.1271 26.2972 36.1271C25.8865 36.1271 25.5345 36.2518 25.2412 36.5011C24.9552 36.7431 24.7645 37.0951 24.6692 37.5571L24.0642 41.0001H22.5132L23.5912 34.9061H25.1422L25.0102 35.6541C25.2595 35.3974 25.5565 35.1958 25.9012 35.0491C26.2459 34.8951 26.6052 34.8181 26.9792 34.8181Z" fill="black"/>
<path d="M36.321 39.1191C36.3137 39.1631 36.31 39.2218 36.31 39.2951C36.31 39.4418 36.3504 39.5481 36.431 39.6141C36.519 39.6728 36.662 39.7021 36.86 39.7021H37.586L37.355 41.0001H36.376C35.276 41.0001 34.726 40.5418 34.726 39.6251C34.726 39.4491 34.7407 39.2768 34.77 39.1081L35.287 36.1711H34.561L34.781 34.9061H35.518L35.782 33.3991H37.333L37.069 34.9061H38.422L38.202 36.1711H36.838L36.321 39.1191Z" fill="black"/>
<path d="M40.3877 41.1101C40.043 41.1101 39.7534 41.0404 39.5187 40.9011C39.2914 40.7544 39.119 40.5528 39.0017 40.2961C38.8917 40.0394 38.8367 39.7351 38.8367 39.3831C38.8367 39.2511 38.8514 39.0824 38.8807 38.8771C38.91 38.6644 38.9467 38.4518 38.9907 38.2391L39.6727 34.9941H41.2897L40.5527 38.5031C40.5233 38.6204 40.5013 38.7341 40.4867 38.8441C40.472 38.9541 40.4647 39.0531 40.4647 39.1411C40.4647 39.3684 40.5123 39.5371 40.6077 39.6471C40.7103 39.7498 40.857 39.8011 41.0477 39.8011C41.297 39.8011 41.517 39.6984 41.7077 39.4931C41.9057 39.2804 42.078 38.9981 42.2247 38.6461C42.3714 38.2941 42.4887 37.9054 42.5767 37.4801L43.1047 34.9941H44.7217L44.5897 35.5991C44.817 35.5404 44.993 35.4378 45.1177 35.2911C45.2497 35.1444 45.3487 34.9684 45.4147 34.7631C45.4807 34.5578 45.532 34.3378 45.5687 34.1031H47.1967L47.2517 34.2351C47.1637 34.5431 47.0427 34.8328 46.8887 35.1041C46.7347 35.3754 46.5403 35.6174 46.3057 35.8301C46.0784 36.0428 45.8033 36.2188 45.4807 36.3581C45.1653 36.4901 44.7987 36.5744 44.3807 36.6111L43.4457 41.0001H42.2247L42.3347 39.8891H42.2907C42.1367 40.1238 41.9644 40.3364 41.7737 40.5271C41.5904 40.7104 41.3814 40.8534 41.1467 40.9561C40.9194 41.0588 40.6664 41.1101 40.3877 41.1101ZM41.3887 34.2021C41.5134 34.0628 41.6453 33.9014 41.7847 33.7181C41.924 33.5274 42.0634 33.3331 42.2027 33.1351C42.342 32.9298 42.4667 32.7428 42.5767 32.5741H44.3807V32.6621C44.3 32.7574 44.1827 32.8821 44.0287 33.0361C43.882 33.1828 43.717 33.3368 43.5337 33.4981C43.3504 33.6594 43.167 33.8134 42.9837 33.9601C42.8077 34.1068 42.65 34.2314 42.5107 34.3341H41.3887V34.2021Z" fill="black"/>
<path d="M46.426 37.9531C46.536 37.3224 46.7597 36.7724 47.097 36.3031C47.4343 35.8264 47.8523 35.4598 48.351 35.2031C48.857 34.9391 49.4033 34.8071 49.99 34.8071C50.7453 34.8071 51.3357 34.9941 51.761 35.3681C52.1937 35.7421 52.4357 36.2738 52.487 36.9631H50.826C50.782 36.6991 50.6683 36.4938 50.485 36.3471C50.3017 36.1931 50.056 36.1161 49.748 36.1161C49.308 36.1161 48.9303 36.2774 48.615 36.6001C48.307 36.9154 48.1017 37.3664 47.999 37.9531C47.9623 38.1584 47.944 38.3344 47.944 38.4811C47.944 38.8991 48.0467 39.2218 48.252 39.4491C48.4573 39.6691 48.7433 39.7791 49.11 39.7791C49.726 39.7791 50.1807 39.5004 50.474 38.9431H52.135C51.849 39.6031 51.42 40.1274 50.848 40.5161C50.2833 40.9048 49.6307 41.0991 48.89 41.0991C48.12 41.0991 47.504 40.8828 47.042 40.4501C46.5873 40.0101 46.36 39.4161 46.36 38.6681C46.36 38.4408 46.382 38.2024 46.426 37.9531Z" fill="black"/>
</svg>
