<svg id="Layer_1" data-name="Layer 1" xmlns="http://www.w3.org/2000/svg" width="65" height="65" viewBox="0 0 65 65">
  <title>news</title>
  <path d="M32.5,63.5H32.5a31,31,0,0,1-31-31V32.5a31,31,0,0,1,31-31h28a3,3,0,0,1,3,3v28A31,31,0,0,1,32.5,63.5Z" style="fill: #2ca449"/>
  <g>
    <polygon points="45 35.361 10.084 35.361 11.38 20.549 46.296 20.549 45 35.361" style="opacity: 0.2"/>
    <polygon points="57.736 47 17.53 47 18.641 34.303 58.847 34.303 57.736 47" style="opacity: 0.2"/>
    <polygon points="55.805 44.884 16.657 44.884 17.861 31.129 57.008 31.129 55.805 44.884" style="fill: #fff"/>
    <polygon points="43.069 33.245 8.153 33.245 9.449 18.433 44.365 18.433 43.069 33.245"/>
    <g>
      <path d="M27.37842,35.77148H25.26318l-.50342,5.917H23.33789l.50342-5.917H21.75439l.10107-1.18457h5.624Z"/>
      <path d="M29.042,41.68848H27.667l.44922-5.27734h1.375Zm-.89062-6.64355a.76929.76929,0,0,1,.25049-.52148.81932.81932,0,0,1,.57959-.20508.70429.70429,0,0,1,.54248.20508.64992.64992,0,0,1,.16357.52148.7679.7679,0,0,1-.25586.52637.82759.82759,0,0,1-.57422.20508.70727.70727,0,0,1-.54-.20508A.64849.64849,0,0,1,28.15137,35.04492Z"/>
      <path d="M31.88086,36.41113l-.00977.60938a1.94157,1.94157,0,0,1,1.53418-.708,1.35138,1.35138,0,0,1,1.17285.49316,2.21932,2.21932,0,0,1,.28223,1.47363l-.29,3.40918H33.2002l.28711-3.375a.87582.87582,0,0,0-.13477-.65137.77128.77128,0,0,0-.6123-.20215,1.03393,1.03393,0,0,0-.91162.50684l-.31689,3.72168H30.1416l.44922-5.27734Z"/>
      <path d="M40.22754,35.11328l-.11035,1.29785h.877l-.08789,1.03418h-.877l-.22461,2.63379a.61059.61059,0,0,0,.07422.41992.49958.49958,0,0,0,.40625.126,2.20661,2.20661,0,0,0,.40625-.03418l-.09082,1.06836a2.85056,2.85056,0,0,1-.84082.127q-1.44141,0-1.34277-1.498l.24219-2.84277h-.749l.08789-1.03418h.749l.11035-1.29785Z"/>
      <path d="M47.60059,35.94727a2.25462,2.25462,0,0,1-.4502,1.31543,1.64472,1.64472,0,0,1-1.10742.50391l-.334,3.92188h-1.29l.00781-.53613a1.85335,1.85335,0,0,1-1.457.63379,1.47017,1.47017,0,0,1-1.21777-.4873,1.99208,1.99208,0,0,1-.32129-1.42969l.29395-3.458h1.37012l-.29,3.41309q-.07031.82617.66016.8252a1.07692,1.07692,0,0,0,1-.498l.31836-3.74023h1.375l-.05762.67773a.73538.73538,0,0,0,.47852-.30273,1.94792,1.94792,0,0,0,.20117-.83887ZM44.417,34.29395h1.49414l-1.44141,1.51172H43.35547Z"/>
      <path d="M49.45313,40.64941a.95184.95184,0,0,0,.63379-.21387.84051.84051,0,0,0,.2959-.57129H51.667a1.97946,1.97946,0,0,1-.36719.98242,2.1462,2.1462,0,0,1-.8252.69336,2.471,2.471,0,0,1-1.09473.24609,2.0173,2.0173,0,0,1-1.6748-.71875,2.71853,2.71853,0,0,1-.46582-1.98828l.00781-.09277a3.10829,3.10829,0,0,1,.7959-1.94727,2.3678,2.3678,0,0,1,1.792-.72656,1.95894,1.95894,0,0,1,1.49609.56445,1.87451,1.87451,0,0,1,.46289,1.5H50.50977a.91922.91922,0,0,0-.19043-.66992.74594.74594,0,0,0-.60449-.25684.893.893,0,0,0-.75293.35938,2.25043,2.25043,0,0,0-.34277,1.16406l-.0127.14746A2.07108,2.07108,0,0,0,48.748,40.293.75277.75277,0,0,0,49.45313,40.64941Z"/>
    </g>
    <g>
      <path d="M19.65576,22.74951H17.54053l-.50293,5.917H15.61572l.50293-5.917H14.03174l.10107-1.18555h5.624Z" style="fill: #fff"/>
      <path d="M22.78418,24.71a3.6497,3.6497,0,0,0-.48975-.03906,1.09739,1.09739,0,0,0-1.06592.542l-.29346,3.45361H19.56494l.44873-5.27783h1.29395l-.01562.62842a1.40629,1.40629,0,0,1,1.20557-.72656,1.3199,1.3199,0,0,1,.42041.064Z" style="fill: #fff"/>
      <path d="M23.02295,25.979a3.39485,3.39485,0,0,1,.41553-1.40527,2.46958,2.46958,0,0,1,.93213-.94873,2.5824,2.5824,0,0,1,1.30859-.33447,2.06947,2.06947,0,0,1,1.72266.75684.7893.7893,0,0,0,.33105-.437,2.99207,2.99207,0,0,0,.13721-.71533h.835a1.86448,1.86448,0,0,1-.98584,1.71777A3.07133,3.07133,0,0,1,27.8833,25.979l-.00879.10205a3.4,3.4,0,0,1-.4165,1.40527,2.46888,2.46888,0,0,1-.92383.9458,2.57573,2.57573,0,0,1-1.31152.33154,2.10574,2.10574,0,0,1-1.66309-.67822,2.49474,2.49474,0,0,1-.55566-1.8291Zm1.33447,3.87256a.678.678,0,0,1,.25488-.48242.85907.85907,0,0,1,.56641-.19092.74445.74445,0,0,1,.53809.19092.57027.57027,0,0,1,.17188.48242.69345.69345,0,0,1-.252.4834.84975.84975,0,0,1-.57324.19482.72012.72012,0,0,1-.53809-.19482A.58629.58629,0,0,1,24.35742,29.85156Zm.03174-3.77246a1.9248,1.9248,0,0,0,.17676,1.1499.81827.81827,0,0,0,.75342.39795.97832.97832,0,0,0,.81152-.395,2.39118,2.39118,0,0,0,.38135-1.25586,1.93066,1.93066,0,0,0-.17725-1.14062.81089.81089,0,0,0-.75244-.40771.97683.97683,0,0,0-.8125.40283A2.40392,2.40392,0,0,0,24.38916,26.0791Z" style="fill: #fff"/>
      <path d="M32.52393,28.6665h-1.375l.63721-7.49268h1.375Z" style="fill: #fff"/>
      <path d="M35.73828,26.67188l1.22754-3.2832h1.46973l-2.58105,6.09717-.1377.27832a1.73435,1.73435,0,0,1-1.60547,1.03418,2.04328,2.04328,0,0,1-.59863-.09229l.09082-1.06836.208.00488a1.15071,1.15071,0,0,0,.59082-.123.89683.89683,0,0,0,.33594-.40479l.19824-.43359-1.34668-5.29248h1.47461Zm.76563-5.498H37.998L36.55566,22.686H35.44141Z" style="fill: #fff"/>
    </g>
  </g>
</svg>
