<svg id="Layer_1" data-name="Layer 1" xmlns="http://www.w3.org/2000/svg" width="65" height="65" viewBox="0 0 65 65">
  <title>logo</title>
  <path d="M32.5,1.5h28a3,3,0,0,1,3,3v28a31,31,0,0,1-31,31H32.5a31,31,0,0,1-31-31V32.5A31,31,0,0,1,32.5,1.5Z" style="fill: #ef4136"/>
  <g>
    <path d="M32.5,60.02637a27.52637,27.52637,0,0,1,0-55.05273H57.76953A2.25934,2.25934,0,0,1,60.02637,7.23V32.5A27.558,27.558,0,0,1,32.5,60.02637Z"/>
    <path d="M57.77,5.425A1.807,1.807,0,0,1,59.575,7.23V32.5A27.075,27.075,0,1,1,32.5,5.425H57.77m0-.9025H32.5A27.97747,27.97747,0,0,0,4.5225,32.5V32.5A27.97747,27.97747,0,0,0,32.5,60.4775H32.5A27.97747,27.97747,0,0,0,60.4775,32.5V7.23A2.7075,2.7075,0,0,0,57.77,4.5225Z"/>
  </g>
  <g>
    <g>
      <circle cx="50.37" cy="32.5" r="8.89" style="fill: #ef4136;opacity: 0.10000000149011612;isolation: isolate"/>
      <circle cx="50.37" cy="32.29" r="7.91" style="fill: #ef4136;opacity: 0.5;isolation: isolate"/>
      <circle cx="50.37" cy="32.29" r="6.79" style="fill: #ef4136"/>
      <g>
        <path d="M44.35,34.95A125.856,125.856,0,0,1,54.71,22.42L49.95,34.95l7.56-6.16s-3.43,5.32-11.48,13.65l4.48-12.53Z" style="fill: #fff"/>
        <path d="M54.71,22.49,49.95,35.02l7.56-6.16s-3.43,5.32-11.48,13.65l4.48-12.53-6.16,4.97A128.37378,128.37378,0,0,1,54.71,22.49m.28-.49-.42.42c-2.31,2.31-4.97,5.6-6.86,7.91-2.03,2.52-3.5,4.55-3.5,4.62l-.56.7.7-.56,5.81-4.69L45.82,42.51l-.07.49.42-.42c4.13-4.34,7.07-7.84,8.75-10.01,1.82-2.38,2.73-3.71,2.73-3.71l.42-.56-.56.49L50.23,34.6l4.62-12.11.14-.49Z" style="fill: #ef4136"/>
      </g>
    </g>
    <g>
      <path d="M9,28.09H7.46V30.4H6.34v1.4H7.46v3.99c0,2.17,1.19,3.22,3.64,3.22h.49V37.54a4.08084,4.08084,0,0,1-1.89-.28A2.1513,2.1513,0,0,1,9,35.51V31.8h2.59V30.33H9Z" style="fill: #fff"/>
      <path d="M19.01,36.84a2.34041,2.34041,0,0,1-1.89.77,2.61931,2.61931,0,0,1-2.03-.91,3.24864,3.24864,0,0,1,0-4.2,2.52211,2.52211,0,0,1,2.03-.91,2.39684,2.39684,0,0,1,1.89.84l-3.36,1.89.7,1.12,4.83-2.66a4.23687,4.23687,0,0,0-3.99-2.73,4.03356,4.03356,0,0,0-3.08,1.33,4.5058,4.5058,0,0,0-1.26,3.15,4.27382,4.27382,0,0,0,1.26,3.15,4.03356,4.03356,0,0,0,3.08,1.33,3.95655,3.95655,0,0,0,2.94-1.12,5.29645,5.29645,0,0,0,1.4-2.87l-1.54-.21A5.48524,5.48524,0,0,1,19.01,36.84Z" style="fill: #fff"/>
      <path d="M38.75,31.38a3.06982,3.06982,0,0,0-2.59-1.19,3.45688,3.45688,0,0,0-2.38.98V26.41H32.03v12.6h1.75V34.32a3.12,3.12,0,0,1,.56-1.82,1.99569,1.99569,0,0,1,1.68-.84c1.4,0,2.03.77,2.03,2.31v4.97h1.54V34.18A5.51745,5.51745,0,0,0,38.75,31.38Z" style="fill: #fff"/>
      <path d="M26.85,37.68a3.04857,3.04857,0,0,1,.07-6.09,3.05261,3.05261,0,0,1,1.89.77l1.05-1.05a4.17255,4.17255,0,0,0-3.01-1.19,4.48047,4.48047,0,1,0,4.06,6.23l-1.33-.63A3.02525,3.02525,0,0,1,26.85,37.68Z" style="fill: #fff"/>
    </g>
  </g>
</svg>
