<svg id="Layer_1" data-name="Layer 1" xmlns="http://www.w3.org/2000/svg" width="65" height="65" viewBox="0 0 65 65">
  <title>logo</title>
  <g>
    <path d="M60.92611,33.55437a28.56436,28.56436,0,0,1-10.74218,18.625l-.858.64447a26.5376,26.5376,0,0,1-5.58644,3.16588,13.84477,13.84477,0,0,0-1.45737.70961L29.52924,63.98292a1.02842,1.02842,0,0,1-1.42988-1.353l2.218-4.43593c-.59238-.03421-1.18475-.10255-1.78846-.1823A28.70316,28.70316,0,1,1,60.92611,33.55437Z" style="fill: #446084"/>
    <circle cx="32.5" cy="29.5" r="24.7" style="fill: #fff"/>
    <g>
      <path d="M14.37646,28.79883H12.78613V33.333H11.65771V28.79883H10.06738V27.8916h4.30908Z" style="fill: #446084"/>
      <path d="M20.15527,30.61035a2.9951,2.9951,0,0,1-.20068,1.10645,2.55783,2.55783,0,0,1-1.4458,1.46387,3.17172,3.17172,0,0,1-2.27979,0,2.62068,2.62068,0,0,1-.88135-.583,2.57318,2.57318,0,0,1-.56836-.88086,3.15227,3.15227,0,0,1,0-2.21094,2.57424,2.57424,0,0,1,.56836-.87891,2.62068,2.62068,0,0,1,.88135-.583,3.17172,3.17172,0,0,1,2.27979,0,2.56857,2.56857,0,0,1,1.4458,1.46582A2.97147,2.97147,0,0,1,20.15527,30.61035Zm-1.15137,0a2.43849,2.43849,0,0,0-.1123-.7666,1.62247,1.62247,0,0,0-.32471-.57715,1.39371,1.39371,0,0,0-.51367-.36426,1.927,1.927,0,0,0-1.37061,0,1.38889,1.38889,0,0,0-.51562.36426,1.61424,1.61424,0,0,0-.32422.57715,2.67479,2.67479,0,0,0,0,1.53711,1.6098,1.6098,0,0,0,.32422.57617,1.39313,1.39313,0,0,0,.51563.36133,1.927,1.927,0,0,0,1.37061,0,1.39794,1.39794,0,0,0,.51367-.36133,1.618,1.618,0,0,0,.32471-.57617A2.4464,2.4464,0,0,0,19.00391,30.61035Z" style="fill: #446084"/>
      <path d="M25.85889,30.61035A2.9181,2.9181,0,0,1,25.6582,31.707a2.49143,2.49143,0,0,1-.56641.86133,2.61133,2.61133,0,0,1-.87891.5625,3.09079,3.09079,0,0,1-1.14014.20215H20.98V27.8916h2.09277a3.071,3.071,0,0,1,1.14014.20313,2.56946,2.56946,0,0,1,.87891.56348,2.51915,2.51915,0,0,1,.56641.86133A2.89473,2.89473,0,0,1,25.85889,30.61035Zm-1.15479,0a2.441,2.441,0,0,0-.11279-.76855,1.6162,1.6162,0,0,0-.32227-.57715,1.40294,1.40294,0,0,0-.51221-.36426,1.7436,1.7436,0,0,0-.68408-.127h-.96v3.67871h.96a1.7614,1.7614,0,0,0,.68408-.126,1.38046,1.38046,0,0,0,.51221-.36426,1.63366,1.63366,0,0,0,.32227-.5791A2.45315,2.45315,0,0,0,24.7041,30.61035Z" style="fill: #446084"/>
      <path d="M31.27344,33.333H30.3999a.38659.38659,0,0,1-.23828-.06934.4142.4142,0,0,1-.13672-.17773l-.36768-1.03906H27.48975l-.36768,1.03906a.42251.42251,0,0,1-.13135.16992.35709.35709,0,0,1-.23584.07715h-.88135l2.126-5.44141h1.15137ZM29.3833,31.2666l-.58887-1.665c-.03467-.08691-.07178-.18945-.11035-.30762-.03906-.11719-.07568-.24512-.11084-.38184-.03467.13965-.07178.26953-.11035.3877-.03906.11914-.07568.22168-.11084.30957l-.585,1.65723Z" style="fill: #446084"/>
      <path d="M33.6582,31.24023V33.333h-1.125V31.24023L30.55713,27.8916h.99023a.37176.37176,0,0,1,.23438.06934.50273.50273,0,0,1,.14063.17871l.89209,1.71289c.06006.11523.11475.22266.16357.32324.04834.09961.09131.2002.12842.2998.03516-.09961.07617-.20117.12207-.30176.04688-.10156.09863-.208.15625-.32129l.88477-1.71289a.56474.56474,0,0,1,.13477-.16895.34048.34048,0,0,1,.23242-.0791h.998Z" style="fill: #446084"/>
      <path d="M42.26465,27.8916V33.333h-.58105a.51857.51857,0,0,1-.22168-.043.54389.54389,0,0,1-.17578-.14844l-2.71191-3.4502c.00781.08789.01367.17383.01758.25879s.00586.16406.00586.23633V33.333h-.99414V27.8916h.59277a1.06725,1.06725,0,0,1,.12109.00586.28391.28391,0,0,1,.09277.02637.33809.33809,0,0,1,.07813.05371.799.799,0,0,1,.083.09082l2.72949,3.46484c-.00977-.09473-.01758-.1875-.02246-.27539-.00488-.08887-.00781-.17383-.00781-.25391V27.8916Z" style="fill: #446084"/>
      <path d="M44.53711,28.77344v1.39844h1.81543v.85156H44.53711v1.42871h2.333V33.333H43.4043V27.8916h3.46582v.88184Z" style="fill: #446084"/>
      <path d="M55.0293,27.8916,53.3418,33.333H52.3252l-1.11328-3.55859c-.01758-.0498-.03516-.10547-.05273-.165-.01758-.06055-.0332-.124-.04883-.19141-.01465.06738-.03125.13086-.04883.19141-.01758.05957-.03418.11523-.05176.165l-1.125,3.55859H48.86426L47.18066,27.8916H48.126a.426.426,0,0,1,.24512.06738.31068.31068,0,0,1,.12988.18066l.84375,3.06738q.0293.12744.06152.27539t.06152.31348c.02246-.11328.04688-.21777.07129-.31543.02539-.09766.05273-.18848.083-.27344l.98242-3.06738a.35635.35635,0,0,1,.12891-.1709.38234.38234,0,0,1,.24219-.07715h.33008a.38758.38758,0,0,1,.23828.06934.42087.42087,0,0,1,.13672.17871l.97852,3.06738c.03027.08008.05762.167.083.26074.02441.09375.04883.19238.07129.29785.01953-.10547.03906-.2041.05762-.29785s.03809-.18066.05859-.26074l.84375-3.06738a.31866.31866,0,0,1,.127-.17285.40092.40092,0,0,1,.24414-.0752Z" style="fill: #446084"/>
    </g>
  </g>
</svg>
