<svg id="Layer_1" data-name="Layer 1" xmlns="http://www.w3.org/2000/svg" width="65" height="65" viewBox="0 0 65 65">
  <title>news</title>
  <path d="M60.92611,33.55437a28.56436,28.56436,0,0,1-10.74218,18.625l-.858.64447a26.5376,26.5376,0,0,1-5.58644,3.16588,13.84477,13.84477,0,0,0-1.45737.70961L29.52924,63.98292a1.02842,1.02842,0,0,1-1.42988-1.353l2.218-4.43593c-.59238-.03421-1.18475-.10255-1.78846-.1823A28.70316,28.70316,0,1,1,60.92611,33.55437Z" style="fill: #446084"/>
  <polygon points="36.205 29.466 8 29.466 8.897 19.21 37.102 19.21 36.205 29.466"/>
  <polygon points="37.375 30.748 9.17 30.748 10.067 20.492 38.272 20.492 37.375 30.748" style="opacity: 0.2"/>
  <g>
    <path d="M17.19141,21.58838l-.47021,5.376H15.644l-2.11523-3.68408-.32227,3.68408H12.12939l.47021-5.376h1.07715l2.11475,3.69238.32275-3.69238Z" style="fill: #fff"/>
    <path d="M21.2915,22.46533H19.25342l-.11768,1.34521h1.80664l-.07471.854H19.061l-.12451,1.42334h2.03809l-.07666.87646H17.78271l.47021-5.376h3.11523Z" style="fill: #fff"/>
    <path d="M21.98389,21.59521h1.1543l.58057,4.16992,1.45654-4.16992h1.2002L27.043,25.7417l1.31689-4.14648H29.521l-1.96973,5.36914H26.28271l-.67334-3.82227-1.38818,3.82227L22.96,26.97217Z" style="fill: #fff"/>
    <path d="M31.60156,27.01807c-1.11523,0-1.92578-.58447-1.85156-1.59961h1.15332a.66633.66633,0,0,0,.75293.71533A.76808.76808,0,0,0,32.521,25.48c.10156-1.16162-2.729-.46094-2.55078-2.40771a1.82,1.82,0,0,1,2.02832-1.55371c1.09912,0,1.8042.5625,1.78857,1.53125H32.603a.64028.64028,0,0,0-.71387-.63916.68883.68883,0,0,0-.79346.63135c-.09424,1.07715,2.71094.47656,2.5459,2.36914A1.87819,1.87819,0,0,1,31.60156,27.01807Z" style="fill: #fff"/>
  </g>
  <polygon points="57.103 39.723 12.231 39.723 13.128 29.466 58 29.466 57.103 39.723" style="opacity: 0.2"/>
  <polygon points="55.933 38.44 11.061 38.44 11.958 28.184 56.83 28.184 55.933 38.44" style="fill: #fff"/>
  <g>
    <path d="M16.78711,35.39941h-2.1377l-.44434,1.02344H13.0752l2.40039-5.37646h1.25391l1.46,5.37646H17.05078ZM15.98975,32.292l-.97314,2.24609h1.55371Z"/>
    <path d="M20.76221,36.47559c-1.11523,0-1.92529-.584-1.85107-1.59863h1.15332a.66561.66561,0,0,0,.75244.71484.76777.76777,0,0,0,.86475-.6543c.10205-1.16113-2.729-.46094-2.55078-2.40723a1.82024,1.82024,0,0,1,2.02832-1.55371c1.09961,0,1.80469.5625,1.78809,1.53125H21.76367a.64.64,0,0,0-.71387-.63916.68883.68883,0,0,0-.79346.63135c-.09424,1.07715,2.71143.47656,2.5459,2.36914A1.8782,1.8782,0,0,1,20.76221,36.47559Z"/>
    <path d="M25.44678,36.47559c-1.11523,0-1.92529-.584-1.85107-1.59863H24.749a.66561.66561,0,0,0,.75244.71484.76677.76677,0,0,0,.86377-.6543c.10205-1.16113-2.72705-.46094-2.5498-2.40723a1.82024,1.82024,0,0,1,2.02832-1.55371c1.09961,0,1.80371.5625,1.78809,1.53125H26.44824a.64.64,0,0,0-.71387-.63916.68883.68883,0,0,0-.79346.63135c-.09424,1.07715,2.71143.47656,2.5459,2.36914A1.8782,1.8782,0,0,1,25.44678,36.47559Z"/>
    <path d="M28.75244,31.05322h1.07715l-.47021,5.36963H28.28223Z"/>
    <path d="M32.27,36.47559c-1.11523,0-1.92529-.584-1.85107-1.59863h1.15332a.66561.66561,0,0,0,.75244.71484.76777.76777,0,0,0,.86475-.6543c.10156-1.16113-2.729-.46094-2.55078-2.40723A1.82024,1.82024,0,0,1,32.667,30.97656c1.09961,0,1.80469.5625,1.78809,1.53125H33.27148a.63976.63976,0,0,0-.71387-.63916.68883.68883,0,0,0-.79346.63135c-.09424,1.07715,2.71143.47656,2.54639,2.36914A1.879,1.879,0,0,1,32.27,36.47559Z"/>
    <path d="M35.291,31.05322h3.9375l-.07617.87012H37.72168l-.39355,4.49951H36.252l.39355-4.49951H35.21484Z"/>
    <path d="M42.92578,35.39941h-2.1377l-.44434,1.02344H39.21387l2.40039-5.37646h1.25391l1.46,5.37646H43.18945ZM42.12793,32.292l-.97266,2.24609H42.709Z"/>
    <path d="M50.11328,31.04639l-.4707,5.37646H48.56543L46.4502,32.73828l-.32227,3.68457H45.05078l.4707-5.37646h1.07715l2.11426,3.69189.32324-3.69189Z"/>
    <path d="M50.89063,31.05322h3.9375l-.07617.87012H53.32129l-.39355,4.49951H51.85156l.39355-4.49951H50.81445Z"/>
  </g>
  <line x1="28.43046" y1="43" x2="38.76144" y2="43" style="fill: none;stroke: #fff;stroke-linecap: round;stroke-miterlimit: 10;stroke-width: 0.803546279668808px"/>
  <line x1="42.20511" y1="43" x2="47.94454" y2="43" style="fill: none;stroke: #fff;stroke-linecap: round;stroke-miterlimit: 10;stroke-width: 0.803546279668808px"/>
</svg>
