<svg id="Layer_1" data-name="Layer 1" xmlns="http://www.w3.org/2000/svg" width="65" height="65" viewBox="0 0 65 65">
  <title>news</title>
  <path d="M63.85,32.115A31.22128,31.22128,0,0,1,53.343,55.542q-.69824.61274-1.425,1.197a32.66553,32.66553,0,0,1-3.88553,2.6125,31.39123,31.39123,0,0,1-30.096.532L7.914,64.1585a.95521.95521,0,0,1-1.32051-.988L7.88553,52.445l.095-.798a32.51184,32.51184,0,0,1-2.451-3.534v-.00951a31.23982,31.23982,0,0,1-3.58146-8.892V39.202c-.11405-.513-.21854-1.01651-.304-1.539a27.46125,27.46125,0,0,1-.38-2.964c-.057-.63648-.095-1.28253-.10449-1.938C1.15,32.552,1.15,32.3335,1.15,32.115a31.67975,31.67975,0,0,1,1.6055-9.956,31.37063,31.37063,0,0,1,51.585-12.54,30.713,30.713,0,0,1,3.496,4.0375,29.0931,29.0931,0,0,1,2.36549,3.762V17.428a30.97124,30.97124,0,0,1,3.12554,9.006c.08547.46549.16148.94049.228,1.41549A30.157,30.157,0,0,1,63.85,32.115Z"/>
  <polygon points="55.568 42.551 7.324 42.551 8.379 30.49 56.623 30.49 55.568 42.551" style="fill: #fff"/>
  <polygon points="34.947 33.17 5.465 33.17 6.403 22.449 35.885 22.449 34.947 33.17" style="fill: #dc1f26"/>
  <g>
    <path d="M14.53809,25.39453l-.4917,5.62109h-1.126L10.7085,27.16406l-.33691,3.85156h-1.126l.4917-5.62109h1.126l2.21094,3.86035.33789-3.86035Z" style="fill: #fff"/>
    <path d="M18.82422,26.312H16.69336l-.123,1.40674H18.46l-.07812.89307H16.49219l-.13037,1.4873h2.13086l-.08008.9165H15.15576l.4917-5.62109H18.9043Z" style="fill: #fff"/>
    <path d="M19.54639,25.40332h1.20605l.60791,4.3584,1.52295-4.3584h1.25488l.69775,4.334,1.37646-4.334h1.21484l-2.05957,5.6123H24.04053L23.3374,27.019l-1.45117,3.99658-1.31982.00781Z" style="fill: #fff"/>
    <path d="M29.6001,31.07227c-1.166,0-2.01416-.61133-1.937-1.67236h1.20605a.69759.69759,0,0,0,.7876.74707.8026.8026,0,0,0,.9043-.68311c.10645-1.21387-2.853-.48242-2.66748-2.5166a1.90269,1.90269,0,0,1,2.12061-1.62451c1.15039,0,1.88721.58643,1.87061,1.6001H30.64648a.66891.66891,0,0,0-.74609-.66748.71835.71835,0,0,0-.8291.65967c-.09863,1.12549,2.835.498,2.66211,2.47607A1.96414,1.96414,0,0,1,29.6001,31.07227Z" style="fill: #fff"/>
  </g>
  <g>
    <path d="M14.36475,39.08691H12.12939l-.46289,1.06934H10.48389l2.51025-5.62109h1.31055l1.52686,5.62109H14.64111Zm-.833-3.249-1.01807,2.34863h1.625Z"/>
    <path d="M18.52,40.21289c-1.166,0-2.01416-.61133-1.93652-1.67187h1.20605a.697.697,0,0,0,.78711.74707.80259.80259,0,0,0,.9043-.68359c.10645-1.21387-2.853-.48242-2.66748-2.5166a1.90234,1.90234,0,0,1,2.12061-1.624c1.15039,0,1.88721.58594,1.87061,1.59961H19.56641a.66856.66856,0,0,0-.74609-.667.718.718,0,0,0-.8291.65918c-.09863,1.126,2.83545.498,2.66211,2.47656A1.96416,1.96416,0,0,1,18.52,40.21289Z"/>
    <path d="M23.4165,40.21289c-1.166,0-2.01416-.61133-1.93652-1.67187H22.686a.697.697,0,0,0,.78711.74707.80259.80259,0,0,0,.9043-.68359c.10645-1.21387-2.853-.48242-2.66748-2.5166a1.90234,1.90234,0,0,1,2.12061-1.624c1.15039,0,1.88721.58594,1.87061,1.59961H24.46289a.66856.66856,0,0,0-.74609-.667.718.718,0,0,0-.8291.65918c-.09863,1.126,2.83545.498,2.66211,2.47656A1.96416,1.96416,0,0,1,23.4165,40.21289Z"/>
    <path d="M26.87061,34.54395h1.126l-.49121,5.6123h-1.126Z"/>
    <path d="M30.54834,40.21289c-1.166,0-2.01416-.61133-1.93652-1.67187h1.20605a.697.697,0,0,0,.78711.74707.80259.80259,0,0,0,.9043-.68359c.10645-1.21387-2.853-.48242-2.66748-2.5166a1.90234,1.90234,0,0,1,2.12061-1.624c1.15039,0,1.88721.58594,1.87061,1.59961H31.59473a.66856.66856,0,0,0-.74609-.667.718.718,0,0,0-.8291.65918c-.09863,1.126,2.83545.498,2.66211,2.47656A1.96416,1.96416,0,0,1,30.54834,40.21289Z"/>
    <path d="M33.70508,34.54395h4.11719l-.0791.90918H36.248l-.41113,4.70313h-1.126l.41113-4.70312H33.626Z"/>
    <path d="M41.68555,39.08691H39.4502l-.46191,1.06934H37.80566l2.50977-5.62109H41.626l1.52734,5.62109H41.96289Zm-.833-3.249L39.835,38.18652H41.46Z"/>
    <path d="M49.2002,34.53516,48.709,40.15625H47.583l-2.21191-3.85156-.33691,3.85156h-1.126l.49121-5.62109h1.126l2.21094,3.86035.33789-3.86035Z"/>
    <path d="M50.01172,34.54395h4.11719l-.0791.90918H52.55371l-.41113,4.70313h-1.126l.41113-4.70312H49.93262Z"/>
  </g>
  <path d="M49.654,19c0,.46167-1.833.28169-3.10266,1.55133S45.46167,23.654,45,23.654s-.28169-1.833-1.55133-3.10266S40.346,19.46167,40.346,19s1.833-.28169,3.10266-1.55133S44.53833,14.346,45,14.346s.28169,1.833,1.55133,3.10266S49.654,18.53833,49.654,19Z" style="fill: #fff"/>
</svg>
