<svg id="Layer_1" data-name="Layer 1" xmlns="http://www.w3.org/2000/svg" width="70" height="70" viewBox="0 0 70 70">
  <title>news</title>
  <path d="M68,34.59469a33.02331,33.02331,0,0,1-1.52,9.95c-.15.49-.32.98-.5,1.46a32.97315,32.97315,0,0,1-5.04,9,31.55113,31.55113,0,0,1-4,4.25q-.735.645-1.5,1.26a34.38476,34.38476,0,0,1-4.09,2.75,33.0434,33.0434,0,0,1-31.68.56l-10.55,4.5a1.00548,1.00548,0,0,1-1.39-1.04l1.36-11.29.1-.84a1.429,1.429,0,0,1-.11-.15,32.8147,32.8147,0,0,1-2.47-3.57v-.01a32.72612,32.72612,0,0,1-3.77-9.36v-.01c-.12006-.54-.23-1.07-.32-1.62a28.90658,28.90658,0,0,1-.4-3.12c-.06-.67-.1-1.35-.11-2.04-.01-.22-.01-.45-.01-.68a33.34711,33.34711,0,0,1,1.69-10.48,33.02172,33.02172,0,0,1,54.3-13.2,32.32944,32.32944,0,0,1,3.68,4.25,30.62432,30.62432,0,0,1,2.49,3.96v.01a32.60131,32.60131,0,0,1,3.29,9.48c.09.49.17.99.24,1.49A31.74419,31.74419,0,0,1,68,34.59469Z" style="fill: #ed1926"/>
  <rect x="10.51909" y="35.41794" width="52.43132" height="13.79772" rx="6.66666" ry="6.66666" style="fill: #fff"/>
  <path d="M49.15269,30.58874a7.58438,7.58438,0,0,1-7.58874,7.58874H12.58874a7.58874,7.58874,0,1,1,0-15.17749h28.9752A7.58443,7.58443,0,0,1,49.15269,30.58874Z"/>
  <g>
    <path d="M10.10986,28.28418H11.353l1.019,4.49072,1.17627-4.49072h1.29248L15.95117,32.75l1.02734-4.46582H18.23l-1.61572,5.7832H15.24707l-1.08545-4.11768-1.13525,4.11768-1.35889.00781Z" style="fill: #fff"/>
    <path d="M22.332,29.22021h-2.1958v1.4502H22.0835v.91943H20.13623V33.123H22.332v.94434H18.97656v-5.7915H22.332Z" style="fill: #fff"/>
    <path d="M25.87451,34.06738H23.38086v-5.7832h2.38623c1.20947,0,1.88086.62939,1.88086,1.49121a1.33323,1.33323,0,0,1-.98633,1.32568,1.40211,1.40211,0,0,1,1.11865,1.40039C27.78027,33.4209,27.07617,34.06738,25.87451,34.06738Zm-.27344-4.84717H24.54053v1.4502h1.06055c.54688,0,.86182-.24854.86182-.7207C26.46289,29.48535,26.14795,29.22021,25.60107,29.22021Zm.083,2.34473H24.54053V33.123H25.709c.56348,0,.895-.27344.895-.7627C26.604,31.86328,26.24756,31.56494,25.68408,31.56494Z" style="fill: #fff"/>
    <path d="M30.70068,34.125c-1.20117,0-2.12939-.62939-2.146-1.72314h1.24316a.79347.79347,0,0,0,.87793.77051c.54688,0,.87012-.29.87012-.7041,0-1.251-2.98291-.49707-2.97461-2.59326,0-1.04395.84521-1.67383,2.03857-1.67383a1.828,1.828,0,0,1,2.07129,1.64893H31.40527a.76368.76368,0,0,0-.82861-.688c-.45557-.01611-.79541.20752-.79541.67969,0,1.16016,2.96631.51367,2.96631,2.55176A1.82457,1.82457,0,0,1,30.70068,34.125Z" style="fill: #fff"/>
    <path d="M33.74561,28.28418h1.15967v5.7832H33.74561Z" style="fill: #fff"/>
    <path d="M35.74023,28.28418h4.24219v.936h-1.541v4.84717H37.28125V29.22021h-1.541Z" style="fill: #fff"/>
    <path d="M44.17969,29.22021H41.9834v1.4502h1.94727v.91943H41.9834V33.123h2.19629v.94434H40.82324v-5.7915h3.35645Z" style="fill: #fff"/>
  </g>
  <g>
    <path d="M18.32666,44.98926H16.02344l-.38086,1.10156H14.42432l2.07959-5.792h1.35059l2.07959,5.792H18.708ZM17.17529,41.6416l-.83691,2.41895h1.67383Z"/>
    <path d="M22.70459,46.14844c-1.20117,0-2.12939-.62891-2.146-1.72266h1.24316a.79375.79375,0,0,0,.87793.77051c.54688,0,.87012-.29.87012-.7041,0-1.252-2.98291-.498-2.97461-2.59375,0-1.04395.84521-1.67383,2.03857-1.67383A1.82767,1.82767,0,0,1,24.68506,41.873H23.40918a.764.764,0,0,0-.82861-.6875c-.45557-.0166-.79541.207-.79541.67969,0,1.16016,2.96631.51367,2.96631,2.55176A1.82484,1.82484,0,0,1,22.70459,46.14844Z"/>
    <path d="M27.74658,46.14844c-1.20117,0-2.12939-.62891-2.146-1.72266h1.24316a.79375.79375,0,0,0,.87793.77051c.54688,0,.87012-.29.87012-.7041,0-1.252-2.98291-.498-2.97461-2.59375,0-1.04395.84521-1.67383,2.03857-1.67383A1.82767,1.82767,0,0,1,29.72705,41.873H28.45117a.764.764,0,0,0-.82861-.6875c-.45557-.0166-.79541.207-.79541.67969,0,1.16016,2.96631.51367,2.96631,2.55176A1.82484,1.82484,0,0,1,27.74658,46.14844Z"/>
    <path d="M30.7915,40.30762h1.15967v5.7832H30.7915Z"/>
    <path d="M35.08936,46.14844c-1.20117,0-2.12939-.62891-2.146-1.72266h1.24316a.79375.79375,0,0,0,.87793.77051c.54688,0,.87012-.29.87012-.7041,0-1.252-2.98291-.498-2.97461-2.59375,0-1.04395.84521-1.67383,2.03857-1.67383a1.82667,1.82667,0,0,1,2.0708,1.64844H35.79395a.764.764,0,0,0-.82861-.6875c-.45557-.0166-.79541.207-.79541.67969,0,1.16016,2.96582.51367,2.96582,2.55176A1.82411,1.82411,0,0,1,35.08936,46.14844Z"/>
    <path d="M37.82813,40.30762h4.24219v.93652h-1.542v4.84668H39.36914V41.24414h-1.541Z"/>
    <path d="M46.458,44.98926H44.1543l-.38086,1.10156H42.55566l2.0791-5.792h1.35059l2.08008,5.792H46.83887ZM45.30566,41.6416l-.83691,2.41895h1.67383Z"/>
    <path d="M53.78516,40.29883v5.792H52.625l-2.627-3.96875v3.96875H48.83789v-5.792H49.998l2.627,3.97754V40.29883Z"/>
    <path d="M54.61719,40.30762h4.24219v.93652h-1.542v4.84668H56.1582V41.24414h-1.541Z"/>
  </g>
  <path d="M20.17749,23V38.17749H12.58874a7.58874,7.58874,0,1,1,0-15.17749Z" style="fill: #fff;opacity: 0.15"/>
  <path d="M57,23c0,.22035-1.92013-.07987-3,1s-.77965,3-1,3,.07987-1.92013-1-3-3-.77965-3-1,1.92013.07987,3-1,.77965-3,1-3-.07987,1.92013,1,3S57,22.77965,57,23Z" style="fill: #fff"/>
  <path d="M62,29.5c0,.13772-1.20008-.04992-1.875.625S59.63772,32,59.5,32s.04992-1.20008-.625-1.875S57,29.63772,57,29.5s1.20008.04992,1.875-.625S59.36228,27,59.5,27s-.04992,1.20008.625,1.875S62,29.36228,62,29.5Z" style="fill: #fff"/>
</svg>
