<svg id="Layer_1" data-name="Layer 1" xmlns="http://www.w3.org/2000/svg" width="65" height="65" viewBox="0 0 65 65">
  <title>news</title>
  <path d="M32.5,63.5H32.5a31,31,0,0,1-31-31V32.5a31,31,0,0,1,31-31h28a3,3,0,0,1,3,3v28A31,31,0,0,1,32.5,63.5Z"/>
  <polygon points="45.084 34.25 10.168 34.25 11.259 19.901 46.175 19.901 45.084 34.25" style="fill: #fff;opacity: 0.12"/>
  <polygon points="56.011 44.295 16.692 44.295 17.759 31.381 57.079 31.381 56.011 44.295" style="fill: #fff"/>
  <polygon points="43.092 32.816 7.904 32.816 9.004 18.466 44.192 18.466 43.092 32.816" style="fill: #008837"/>
  <polygon points="58.293 46 19.237 46 20.458 32.816 59.513 32.816 58.293 46" style="fill: #fff;opacity: 0.12"/>
  <g>
    <path d="M27.207,34.72461h-2.126l-.50586,5.94922H23.14453l.50586-5.94922H21.55273l.10156-1.19238h5.6543Z"/>
    <path d="M28.87988,40.67383H27.49707l.45117-5.30762h1.38281Zm-.896-6.68066a.77719.77719,0,0,1,.25146-.52441.82935.82935,0,0,1,.583-.20605.70682.70682,0,0,1,.54492.20605.65063.65063,0,0,1,.16553.52441.76969.76969,0,0,1-.25684.5293.83262.83262,0,0,1-.57812.207.71009.71009,0,0,1-.543-.207A.65485.65485,0,0,1,27.98389,33.99316Z"/>
    <path d="M31.7334,35.36621l-.00928.61328a1.95578,1.95578,0,0,1,1.54443-.71094,1.35271,1.35271,0,0,1,1.17676.49512,2.21352,2.21352,0,0,1,.28418,1.48145l-.291,3.42871H33.06055l.28809-3.39453a.87485.87485,0,0,0-.13477-.6543.77608.77608,0,0,0-.61621-.2041,1.04313,1.04313,0,0,0-.916.51074l-.31836,3.74219h-1.377l.45117-5.30762Z"/>
    <path d="M40.127,34.06152l-.11133,1.30469h.88184l-.08887,1.04h-.88184l-.22461,2.64941a.60748.60748,0,0,0,.07324.4209.50121.50121,0,0,0,.40918.12793,2.22881,2.22881,0,0,0,.4082-.03418l-.0918,1.07422a2.87141,2.87141,0,0,1-.84473.127q-1.4502,0-1.35059-1.50586l.24316-2.85937H37.7959l.08887-1.04h.75293l.11133-1.30469Z"/>
    <path d="M47.54,34.90039a2.26315,2.26315,0,0,1-.4541,1.32227,1.6426,1.6426,0,0,1-1.11328.50684l-.335,3.94434H44.34082l.00781-.53906a1.8694,1.8694,0,0,1-1.46582.63672,1.47565,1.47565,0,0,1-1.22363-.49023,1.9978,1.9978,0,0,1-.32324-1.4375l.2959-3.47754h1.37793l-.292,3.43359q-.07031.8291.66309.8291a1.08471,1.08471,0,0,0,1.00586-.501l.32031-3.76172h1.38184l-.05762.68262a.73929.73929,0,0,0,.48145-.30469,1.97527,1.97527,0,0,0,.20313-.84375Zm-3.20117-1.66211h1.502L44.3916,34.75879H43.27051Z"/>
    <path d="M49.40234,39.62891a.95349.95349,0,0,0,.6377-.21582.84018.84018,0,0,0,.29688-.57422h1.292a1.9991,1.9991,0,0,1-.37109.98926,2.14309,2.14309,0,0,1-.82812.69531,2.47816,2.47816,0,0,1-1.10156.248,2.026,2.026,0,0,1-1.68359-.72363,2.73315,2.73315,0,0,1-.46875-1.999l.00781-.0918a3.1273,3.1273,0,0,1,.80176-1.958,2.3774,2.3774,0,0,1,1.80176-.73047,1.96271,1.96271,0,0,1,1.50293.56738,1.87964,1.87964,0,0,1,.46582,1.50781h-1.292a.9157.9157,0,0,0-.19141-.67285.74189.74189,0,0,0-.60645-.25977.89938.89938,0,0,0-.75684.36133,2.28251,2.28251,0,0,0-.34668,1.17188l-.01172.14648a2.07873,2.07873,0,0,0,.14258,1.17969A.75765.75765,0,0,0,49.40234,39.62891Z"/>
  </g>
  <g>
    <path d="M19.34814,22.69727h-2.126l-.50635,5.94922H15.28516l.50635-5.94922H13.69385l.10107-1.19189h5.6543Z" style="fill: #fff"/>
    <path d="M22.49365,24.66895a3.52823,3.52823,0,0,0-.49268-.03906,1.10208,1.10208,0,0,0-1.0708.54395l-.29541,3.47266H19.25684l.45166-5.30664h1.30176l-.01562.63232a1.40958,1.40958,0,0,1,1.21045-.731,1.34879,1.34879,0,0,1,.42432.06445Z" style="fill: #fff"/>
    <path d="M22.73291,25.94434a3.40456,3.40456,0,0,1,.41895-1.4126,2.48344,2.48344,0,0,1,.93652-.95361,2.599,2.599,0,0,1,1.31592-.33691,2.07816,2.07816,0,0,1,1.73193.76123.79882.79882,0,0,0,.3335-.439,3.06712,3.06712,0,0,0,.13721-.71924h.83887a1.87283,1.87283,0,0,1-.99072,1.72607,3.09321,3.09321,0,0,1,.16455,1.374l-.00879.10352a3.39659,3.39659,0,0,1-.418,1.41162,2.47544,2.47544,0,0,1-.92969.95166,2.58789,2.58789,0,0,1-1.31738.334,2.1207,2.1207,0,0,1-1.67236-.68213,2.51149,2.51149,0,0,1-.55957-1.83936Zm1.34277,3.89453a.6809.6809,0,0,1,.25586-.48584.86307.86307,0,0,1,.56934-.19141.74548.74548,0,0,1,.541.19141.57157.57157,0,0,1,.17383.48584.70223.70223,0,0,1-.25342.48535.85624.85624,0,0,1-.57715.19531.72549.72549,0,0,1-.541-.19531A.58967.58967,0,0,1,24.07568,29.83887Zm.03174-3.79395a1.9335,1.9335,0,0,0,.17773,1.15674.82291.82291,0,0,0,.75781.3999.98231.98231,0,0,0,.81543-.39795,2.39928,2.39928,0,0,0,.38477-1.26221,1.9347,1.9347,0,0,0-.18018-1.147.81345.81345,0,0,0-.75586-.40967.98278.98278,0,0,0-.81689.40479A2.41361,2.41361,0,0,0,24.10742,26.04492Z" style="fill: #fff"/>
    <path d="M32.28613,28.64648H30.90332l.64063-7.5332h1.38281Z" style="fill: #fff"/>
    <path d="M35.51758,26.64014,36.752,23.33984h1.47754l-2.5957,6.13086-.1377.2793a1.74239,1.74239,0,0,1-1.61328,1.04,2.01759,2.01759,0,0,1-.60254-.09326l.09082-1.07422.21.00488a1.17231,1.17231,0,0,0,.59473-.12256.90437.90437,0,0,0,.33691-.40674l.19922-.437-1.35449-5.32129h1.48242Zm.77051-5.52686H37.79l-1.4502,1.52H35.21973Z" style="fill: #fff"/>
  </g>
  <rect x="32.79126" y="49.02876" width="13.59737" height="0.97124" rx="0.48562" ry="0.48562" style="fill: #fff"/>
  <rect x="49.30235" y="49.02876" width="3.88496" height="0.97124" rx="0.48562" ry="0.48562" style="fill: #fff"/>
</svg>
