<svg id="Layer_1" data-name="Layer 1" xmlns="http://www.w3.org/2000/svg" width="65" height="65" viewBox="0 0 65 65">
  <title>news</title>
  <path d="M63.685,32.117A31.057,31.057,0,0,1,53.2333,55.4207q-.6946.61-1.4175,1.1907A32.4936,32.4936,0,0,1,47.9507,59.21a31.226,31.226,0,0,1-29.9376.5292l-9.97,4.2525A.95.95,0,0,1,6.73,63.009L8.0151,52.34l.0945-.7938a32.3407,32.3407,0,0,1-2.4381-3.5154v-.0095a31.0754,31.0754,0,0,1-3.5626-8.8452v-.0095c-.1135-.51-.2174-1.0112-.3024-1.5309a27.3167,27.3167,0,0,1-.378-2.9484c-.0567-.6331-.0945-1.2758-.1039-1.9278-.0095-.2079-.0095-.4252-.0095-.6426a31.513,31.513,0,0,1,1.5971-9.9036A31.2055,31.2055,0,0,1,54.2255,9.7394a30.5513,30.5513,0,0,1,3.4776,4.0163,28.94,28.94,0,0,1,2.353,3.7422v.0095a30.8082,30.8082,0,0,1,3.1091,8.9586c.085.463.1606.9355.2268,1.408A29.9983,29.9983,0,0,1,63.685,32.117Z" style="fill: #ff7101"/>
  <path d="M59.7245,32.1656A27.1127,27.1127,0,0,1,50.6,52.51q-.6064.5321-1.2375,1.0395a28.3669,28.3669,0,0,1-3.3742,2.2687,27.26,27.26,0,0,1-26.1355.462l-8.7036,3.7124a.83.83,0,0,1-1.1467-.858l1.122-9.3141.0825-.693a28.2335,28.2335,0,0,1-2.1285-3.0689V46.05a27.1288,27.1288,0,0,1-3.11-7.7218V38.32c-.099-.4455-.19-.8827-.264-1.3365a23.8475,23.8475,0,0,1-.33-2.5739c-.0495-.5527-.0825-1.1138-.0907-1.683-.0083-.1815-.0083-.3712-.0083-.561A27.5109,27.5109,0,0,1,6.67,23.52,27.2424,27.2424,0,0,1,51.4664,12.63a26.6713,26.6713,0,0,1,3.0359,3.5062,25.2646,25.2646,0,0,1,2.0542,3.267v.0083a26.8956,26.8956,0,0,1,2.7142,7.8208c.0742.4042.14.8167.198,1.2292A26.1885,26.1885,0,0,1,59.7245,32.1656Z" style="fill: #ffaa67"/>
  <polygon points="54.417 43.255 12.615 43.255 13.69 30.96 55.493 30.96 54.417 43.255" style="opacity: 0.30000000000000004"/>
  <polygon points="53.156 41.994 11.354 41.994 12.429 29.699 54.232 29.699 53.156 41.994"/>
  <polygon points="49.612 32.599 10.268 32.599 11.344 20.305 50.687 20.305 49.612 32.599" style="opacity: 0.30000000000000004"/>
  <polygon points="48.351 31.338 9.007 31.338 10.083 19.044 49.426 19.044 48.351 31.338" style="fill: #fff"/>
  <text transform="matrix(0.9962, 0, -0.0872, 0.9962, 15.96, 40.4739)" style="font-size: 9.87332820892334px;fill: #fff;font-family: Poppins-SemiBold, Poppins;font-weight: 700">सहायक</text>
  <text transform="matrix(0.9962, 0, -0.0872, 0.9962, 11.2651, 28.3922)" style="font-size: 9.87332820892334px;font-family: Poppins-SemiBold, Poppins;font-weight: 700">समाचार</text>
  <rect x="32.575" y="45.9043" width="10.4" height="0.39" rx="0.15" ry="0.15" style="fill: #fff;stroke: #fff;stroke-miterlimit: 10;stroke-width: 0.4503331673157408px"/>
  <rect x="45.3583" y="45.9043" width="4.1167" height="0.39" rx="0.15" ry="0.15" style="fill: #fff;stroke: #fff;stroke-miterlimit: 10;stroke-width: 0.3657754131279235px"/>
</svg>
