<svg id="Layer_1" data-name="Layer 1" xmlns="http://www.w3.org/2000/svg" width="65" height="65" viewBox="0 0 65 65">
  <title>news</title>
  <path d="M63.685,32.117A31.057,31.057,0,0,1,53.2333,55.4207q-.6946.61-1.4175,1.1907A32.4936,32.4936,0,0,1,47.9507,59.21a31.226,31.226,0,0,1-29.9376.5292l-9.97,4.2525A.95.95,0,0,1,6.73,63.009L8.0151,52.34l.0945-.7938a32.3407,32.3407,0,0,1-2.4381-3.5154v-.0095a31.0754,31.0754,0,0,1-3.5626-8.8452v-.0095c-.1135-.51-.2174-1.0112-.3024-1.5309a27.3167,27.3167,0,0,1-.378-2.9484c-.0567-.6331-.0945-1.2758-.1039-1.9278-.0095-.2079-.0095-.4252-.0095-.6426a31.513,31.513,0,0,1,1.5971-9.9036A31.2055,31.2055,0,0,1,54.2255,9.7394a30.5513,30.5513,0,0,1,3.4776,4.0163,28.94,28.94,0,0,1,2.353,3.7422v.0095a30.8082,30.8082,0,0,1,3.1091,8.9586c.085.463.1606.9355.2268,1.408A29.9983,29.9983,0,0,1,63.685,32.117Z" style="fill: #ff7101"/>
  <path d="M59.7245,32.1656A27.1127,27.1127,0,0,1,50.6,52.51q-.6064.5321-1.2375,1.0395a28.3669,28.3669,0,0,1-3.3742,2.2687,27.26,27.26,0,0,1-26.1355.462l-8.7036,3.7124a.83.83,0,0,1-1.1467-.858l1.122-9.3141.0825-.693a28.2335,28.2335,0,0,1-2.1285-3.0689V46.05a27.1288,27.1288,0,0,1-3.11-7.7218V38.32c-.099-.4455-.19-.8827-.264-1.3365a23.8475,23.8475,0,0,1-.33-2.5739c-.0495-.5527-.0825-1.1138-.0907-1.683-.0083-.1815-.0083-.3712-.0083-.561A27.5109,27.5109,0,0,1,6.67,23.52,27.2424,27.2424,0,0,1,51.4664,12.63a26.6713,26.6713,0,0,1,3.0359,3.5062,25.2646,25.2646,0,0,1,2.0542,3.267v.0083a26.8956,26.8956,0,0,1,2.7142,7.8208c.0742.4042.14.8167.198,1.2292A26.1885,26.1885,0,0,1,59.7245,32.1656Z" style="fill: #fff"/>
  <polygon points="54.417 43.255 12.615 43.255 13.69 30.96 55.493 30.96 54.417 43.255" style="opacity: 0.30000000000000004"/>
  <polygon points="53.156 41.994 11.354 41.994 12.429 29.699 54.232 29.699 53.156 41.994"/>
  <polygon points="49.612 32.599 10.268 32.599 11.344 20.305 50.687 20.305 49.612 32.599" style="opacity: 0.30000000000000004"/>
  <polygon points="48.351 31.338 9.007 31.338 10.083 19.044 49.426 19.044 48.351 31.338" style="fill: #ff7101"/>
  <g>
    <path d="M16.3926,33.1611h8.5332l-.0928,1.0615H23.73l-.5439,6.2158h-1.26l.2744-3.1377H18.1855l-.1,1.1416c-.05.57.1689,1.0029.7393,1.0029a.902.902,0,0,0,.8975-.9141l.0112-.1289h1.22a1.58,1.58,0,0,1-.0063.1865A2.0367,2.0367,0,0,1,18.75,40.5273a1.793,1.793,0,0,1-1.9185-2.1445l.1738-1.9863h.7979a1.4461,1.4461,0,0,0,1.64-1.4258l.0654-.748H16.3Zm3.8525,3.1074H22.292l.1787-2.0459H20.7686l-.0654.748A2.606,2.606,0,0,1,20.2451,36.2686Z" style="fill: #fff"/>
    <path d="M26.9951,41.5107a1.96,1.96,0,0,1-2.1758-2.2422,2.2437,2.2437,0,0,1,1.1108-1.78,1.132,1.132,0,0,1-.6182-1.1514c.07-.7959.73-1.2588,1.6953-1.2588h.9834l.0747-.8555H24.4141l.0928-1.0615h6.1709l-.0928,1.0615H29.2764l-.1548,1.7715H27.3794c-.4131,0-.7905.1465-.8291.5889a.5512.5512,0,0,0,.3535.57,2.7717,2.7717,0,0,1,.4956-.0391c1.4268,0,2.0562.7969,2.1006,1.751H28.2793a.9137.9137,0,0,0-.9883-.7383,1.209,1.209,0,0,0-1.2339,1.1709.9751.9751,0,0,0,1.03,1.16,1.1648,1.1648,0,0,0,1.1157-.7178h1.2207A2.3169,2.3169,0,0,1,26.9951,41.5107Z" style="fill: #fff"/>
    <path d="M31.2705,34.2227H30.1777l.0928-1.0615h3.4551l-.0928,1.0615H32.54l-.5439,6.2158h-1.27Z" style="fill: #fff"/>
    <path d="M33.31,33.1611h7.7852l-.0928,1.0615H39.9092l-.5439,6.2158h-1.27l.1543-1.7607a2.6312,2.6312,0,0,1-2.0518.8467c-1.7031,0-2.5518-1.0918-2.4053-2.7734a5.4983,5.4983,0,0,1,.0879-.5508h.1182c1.1123,0,1.6055-.4717,1.69-1.4463l.0469-.5312h-2.52Zm5.1064,3.6182.2236-2.5566H36.9961L36.93,34.98a1.8827,1.8827,0,0,1-1.8877,1.8975,1.3617,1.3617,0,0,0,1.5146,1.584A1.7972,1.7972,0,0,0,38.416,36.7793Z" style="fill: #fff"/>
    <path d="M44.6484,38.8447a1.9555,1.9555,0,0,1-1.6973.8369,1.8653,1.8653,0,0,1-1.8564-2.292A2.2959,2.2959,0,0,1,43.4,35.1084a1.5894,1.5894,0,0,1,1.5049.7969l.1475-1.6826H40.584l.0928-1.0615h10.01l-.0928,1.0615h-4.32l-.1484,1.7021A1.8936,1.8936,0,0,1,49.542,37.36a2.2323,2.2323,0,0,1-2.2344,2.2422,2.8029,2.8029,0,0,1-.6436-.0684l.0879-1.0029a1.0505,1.0505,0,0,0,.3027.0381,1.19,1.19,0,0,0,1.1943-1.18A1.0022,1.0022,0,0,0,47.2324,36.2a1.2684,1.2684,0,0,0-1.2441,1.2783l-.2588,2.96H44.5088Zm.126-1.4453a1.0384,1.0384,0,0,0-1.085-1.209,1.2879,1.2879,0,0,0-1.3066,1.209,1.0355,1.0355,0,0,0,1.084,1.22A1.3054,1.3054,0,0,0,44.7744,37.3994Z" style="fill: #fff"/>
  </g>
  <g>
    <path d="M11.6978,21.0791H20.231l-.0928,1.0625H19.0356l-.5439,6.2153h-1.26l.2744-3.1377H13.4907l-.1,1.1416c-.05.57.1689,1.0029.7393,1.0029a.9025.9025,0,0,0,.8975-.9146l.0112-.1284h1.22a1.58,1.58,0,0,1-.0063.1865,2.0367,2.0367,0,0,1-2.1973,1.938,1.7926,1.7926,0,0,1-1.9185-2.144l.1738-1.9863h.7979a1.4462,1.4462,0,0,0,1.64-1.4263l.0654-.7471H11.605ZM15.55,24.1875h2.0469l.1792-2.0459H16.0737l-.0654.7471A2.6087,2.6087,0,0,1,15.55,24.1875Z" style="fill: #fff"/>
    <path d="M19.812,21.0791h8.4941l-.0928,1.0625H27.1206l-.5439,6.2153H25.2974l.3057-3.4917H24.1362l-.0508.5811A2.0932,2.0932,0,0,1,21.8979,27.61a1.6791,1.6791,0,0,1-1.8613-1.8979,2.0587,2.0587,0,0,1,2.2612-1.8789h.748l.1479-1.6914H19.7192Zm3.0864,4.4351.0571-.6489h-.709a.9319.9319,0,0,0-1.0273.8359.713.713,0,0,0,.7529.8364C22.5044,26.5376,22.8447,26.1338,22.8984,25.5142Zm2.9429-3.3726H24.3745l-.1479,1.6914h1.4668Z" style="fill: #fff"/>
    <path d="M28.897,22.1416H27.8042l.0928-1.0625h3.4551l-.0928,1.0625H30.1665l-.5439,6.2153h-1.27Z" style="fill: #fff"/>
    <path d="M30.936,21.0791h7.7563l-.0937,1.0625H37.5059l-.543,6.2153h-1.27l.1514-1.731a2.3069,2.3069,0,0,1-1.8564.8555,1.7021,1.7021,0,0,1-1.88-1.9077,1.7744,1.7744,0,0,1,.7246-1.3086H31.3564l.0879-1.0029h3.6123l-.0879,1.0029H34.585a1.19,1.19,0,0,0-1.2568,1.0923c-.0615.6978.457,1.0723,1.126,1.0723a1.6228,1.6228,0,0,0,1.55-1.6226l.2324-2.6655H30.8433Z" style="fill: #fff"/>
    <path d="M39.2734,22.1416H38.1807l.0938-1.0625h3.4551l-.0937,1.0625H40.543L40,28.3569H38.73Z" style="fill: #fff"/>
    <path d="M41.3135,21.0791h5.6494l-.0937,1.0625h-.9639l-.0586.6777a2.3343,2.3343,0,0,1-2.5283,2.45h-.2168L43.0049,26.38c-.05.5605.16.9839.7119.9839a.891.891,0,0,0,.8672-.9146l.0215-.2461h1.2207a1.8377,1.8377,0,0,1-.0088.2061,2.0722,2.0722,0,0,1-2.1758,2.0361A1.7685,1.7685,0,0,1,41.75,26.3208l.1826-2.085h1.0146a1.4074,1.4074,0,0,0,1.6289-1.4165l.0586-.6777H41.22Z" style="fill: #fff"/>
  </g>
  <rect x="32.575" y="45.9043" width="10.4" height="0.39" rx="0.15" ry="0.15" style="fill: #fff;stroke: #fff;stroke-miterlimit: 10;stroke-width: 0.450333167315741px"/>
  <rect x="45.3583" y="45.9043" width="4.1167" height="0.39" rx="0.15" ry="0.15" style="fill: #fff;stroke: #fff;stroke-miterlimit: 10;stroke-width: 0.365775413127924px"/>
</svg>
