<svg id="Layer_1" data-name="Layer 1" xmlns="http://www.w3.org/2000/svg" width="65" height="65" viewBox="0 0 65 65">
  <title>news</title>
  <path d="M63.85,32.115A31.22128,31.22128,0,0,1,53.343,55.542q-.69824.61274-1.425,1.197a32.66553,32.66553,0,0,1-3.88553,2.6125,31.39123,31.39123,0,0,1-30.096.532L7.914,64.1585a.95521.95521,0,0,1-1.32051-.988L7.88553,52.445l.095-.798a32.51184,32.51184,0,0,1-2.451-3.534v-.00951a31.23982,31.23982,0,0,1-3.58146-8.892V39.202c-.11405-.513-.21854-1.01651-.304-1.539a27.46125,27.46125,0,0,1-.38-2.964c-.057-.63648-.095-1.28253-.10449-1.938C1.15,32.552,1.15,32.3335,1.15,32.115a31.67975,31.67975,0,0,1,1.6055-9.956,31.37063,31.37063,0,0,1,51.585-12.54,30.713,30.713,0,0,1,3.496,4.0375,29.0931,29.0931,0,0,1,2.36549,3.762V17.428a30.97124,30.97124,0,0,1,3.12554,9.006c.08547.46549.16148.94049.228,1.41549A30.157,30.157,0,0,1,63.85,32.115Z" style="fill: #dd3d42"/>
  <polygon points="54.777 50.831 13.198 50.831 14.757 33.011 56.336 33.011 54.777 50.831" style="opacity: 0.2"/>
  <polygon points="43.937 38.951 8.298 38.951 9.857 21.132 45.495 21.132 43.937 38.951" style="opacity: 0.2"/>
  <polygon points="52.97 48.851 11.391 48.851 12.95 31.031 54.529 31.031 52.97 48.851" style="fill: #fff"/>
  <polygon points="42.303 34.991 6.664 34.991 8.223 17.172 43.862 17.172 42.303 34.991"/>
  <g>
    <path d="M17.46484,25.90234l.51416,1.17383a3.0977,3.0977,0,0,1,.291,1.65234l-.0835.95605a4.41586,4.41586,0,0,1-1.30811,2.41748,2.281,2.281,0,0,1-1.50391.791,4.755,4.755,0,0,1-2.17676-.66943l.12158-.29541a2.95694,2.95694,0,0,0,.95117.15625A4.21742,4.21742,0,0,0,17.5293,29.7373a1.00665,1.00665,0,0,0,.12939-.3833,1.45774,1.45774,0,0,0-.08154-.46045,12.40313,12.40313,0,0,0-.877-1.9126c.23291-.37451.46436-.73047.7124-1.0874Z" style="fill: #fff;stroke: #fff;stroke-miterlimit: 10;stroke-width: 0.39598605036735535px"/>
    <path d="M21.95313,30.38916h-.0957a1.775,1.775,0,0,1-1.44336-.49561c-.48389-.53955-.43848-1.15674-.32666-2.43506.14453-1.65186.2002-3.38232.23145-5.2251a9.02665,9.02665,0,0,1,.88818-.80908l.05762.03467c-.02734,1.90527-.22412,4.15625-.41113,6.29541l-.04346.49512a.81887.81887,0,0,0,.5708.93115,1.69706,1.69706,0,0,0,.54834.09521h.12109Z" style="fill: #fff;stroke: #fff;stroke-miterlimit: 10;stroke-width: 0.39598605036735535px"/>
    <path d="M22.24365,29.27588c.66992,0,1.38867-.26953,1.563-.76562l.334-.93848.63867-.43506.04639.06152a4.90055,4.90055,0,0,0-.2793,1.00879.79936.79936,0,0,0,.22363.72168,1.50543,1.50543,0,0,0,1.04785.34717h.15723l-.09717,1.11328h-.2002c-.85254,0-1.47559-.23486-1.71436-.88721H23.9292a2.06326,2.06326,0,0,1-1.80908.88721h-.165a.506.506,0,0,1-.55762-.583.59966.59966,0,0,1,.65479-.53027ZM23.603,32.03223a6.93877,6.93877,0,0,1,.96191.92969,3.973,3.973,0,0,1-.79639.85254c-.311-.32129-.62549-.59961-.94824-.895C23.083,32.606,23.34424,32.30176,23.603,32.03223Z" style="fill: #fff;stroke: #fff;stroke-miterlimit: 10;stroke-width: 0.39598605036735535px"/>
    <path d="M26.50635,29.27588a9.68282,9.68282,0,0,0,4.78223-1.57373l.01172-.03418a7.73007,7.73007,0,0,0-2.67725-.60889,1.52035,1.52035,0,0,0-1.14355.43457l.06641.43506-.3291.78223h-.08691l-.3252-1.14795a1.9115,1.9115,0,0,1,2.02344-1.56445,7.88672,7.88672,0,0,1,2.7876.75586,4.10012,4.10012,0,0,0,1.4624.27832l.70508-.00879.02539.01758-.541.9126a2.86854,2.86854,0,0,0-1.5332.32178l-1.53516.94775a7.29325,7.29325,0,0,1-3.86816,1.16553h-.45215a.506.506,0,0,1-.55762-.583.59966.59966,0,0,1,.65479-.53027Zm3.02979-6.28662a6.86692,6.86692,0,0,1,.96143.93115,4.01555,4.01555,0,0,1-.79639.85156c-.31055-.32129-.626-.59961-.94824-.895C29.01611,23.56348,29.27686,23.25879,29.53613,22.98926Z" style="fill: #fff;stroke: #fff;stroke-miterlimit: 10;stroke-width: 0.39598605036735535px"/>
    <path d="M37.46777,20.251a4.6681,4.6681,0,0,1-.3916.59131,9.55216,9.55216,0,0,0-2.31738.65186l-.01562-.02637.24121-.36475a1.2004,1.2004,0,0,1,.42383-.28711l.00293-.02588a.72981.72981,0,0,1-.61133-.75684,1.30905,1.30905,0,0,1,.47461-.76465,1.82311,1.82311,0,0,1,1.09668-.49658c.34766,0,.53027.20068.50977.42627a1.00138,1.00138,0,0,1-.32715.56543h-.01758c-.0791-.19092-.15527-.3125-.249-.33887a1.08689,1.08689,0,0,0-.26758-.02588c-.30469,0-.623.17383-.63477.3042-.03613.41748.68164.55664,1.19434.55664.2959,0,.59375-.01758.89063-.03516ZM34.9502,30.53662a11.71982,11.71982,0,0,0,.24707-1.73926l.0752-.85107c.13867-1.5918.167-3.9043.15918-5.40918a9.10172,9.10172,0,0,1,.93359-.92139l.0752.02637c.01758,1.895-.13086,4.09473-.30859,6.12109a13.914,13.914,0,0,1-.18652,1.43506,2.50952,2.50952,0,0,1-.8877,1.3999Z" style="fill: #fff;stroke: #fff;stroke-miterlimit: 10;stroke-width: 0.39598605036735535px"/>
  </g>
  <g>
    <path d="M23.1333,45.32715h-.165a1.55222,1.55222,0,0,1-1.65039-1.418h-.04395a1.39113,1.39113,0,0,1-.69873.835,3.72219,3.72219,0,0,1-1.79932.583c-.97461,0-1.46191-.5918-1.373-1.6084.019-.21777.04639-.42578.083-.64355l.34082-.02637a.98869.98869,0,0,0,1.12451,1.165,3.33853,3.33853,0,0,0,1.45605-.43457c.3374-.18262.60449-.44336.62256-.65234a16.41326,16.41326,0,0,0-.43945-3.23437c.22656-.30469.44531-.61621.69629-.89453l.04883.0332c.21289,1.25293.36523,2.5918.48779,3.86914A1.277,1.277,0,0,0,23.082,44.21387h.14844Z" style="stroke: #000;stroke-miterlimit: 10;stroke-width: 0.39598605036735535px"/>
    <path d="M23.78027,44.21387a5.07359,5.07359,0,0,0,1.30322-.18262l.00391-.043a1.80543,1.80543,0,0,1-.86865-1.7041,2.43558,2.43558,0,0,1,.47363-1.13965,2.39888,2.39888,0,0,1,1.90283-1.165,1.99553,1.99553,0,0,1,1.80664,1.417l-.18018.1748a2.01863,2.01863,0,0,0-1.50879-.55664c-.92187,0-1.62793.42578-1.65479.73047a1.4771,1.4771,0,0,0,.64014,1.23438,1.99159,1.99159,0,0,0,1.01074.46973A9.30327,9.30327,0,0,0,29.25,42.832l.04.043-.55518,1.07813c-1.40771.48633-2.07471.55664-3.167.9043a7.3484,7.3484,0,0,1-2.16309.46973h-.26953a.506.506,0,0,1-.55713-.583.59913.59913,0,0,1,.6543-.53027Z" style="stroke: #000;stroke-miterlimit: 10;stroke-width: 0.39598605036735535px"/>
    <path d="M32.62646,45.32715h-.0957a1.77628,1.77628,0,0,1-1.44287-.49512c-.48437-.54-.439-1.15723-.32715-2.43555.14453-1.65137.2002-3.38184.23145-5.22461a9.03183,9.03183,0,0,1,.88818-.80957l.05762.03516c-.02686,1.90332-.22412,4.15625-.41113,6.29492l-.04346.49512a.82006.82006,0,0,0,.57129.93164,1.705,1.705,0,0,0,.54785.09473h.12109Z" style="stroke: #000;stroke-miterlimit: 10;stroke-width: 0.39598605036735535px"/>
    <path d="M41.53516,45.32715h-.21777c-1.07812,0-1.5459-.33105-1.71973-.81738h-.05273a2.15572,2.15572,0,0,1-1.55859.81738.78361.78361,0,0,1-.88574-.72168h-.03418a2.17169,2.17169,0,0,1-1.56738.72168.6762.6762,0,0,1-.77051-.73926h-.03516a2.52816,2.52816,0,0,1-1.91748.73926h-.14746a.506.506,0,0,1-.55713-.583.59913.59913,0,0,1,.6543-.53027h.2959a2.30068,2.30068,0,0,0,1.90625-.80859l.49316-.67773.69043-.23535.03223.04395a3.84009,3.84009,0,0,0-.6748,1.24316.38889.38889,0,0,0,.43164.43457,1.36524,1.36524,0,0,0,.78027-.26074,2.19843,2.19843,0,0,0,.63184-.76562l.25293-.5127.6875-.30469.03223.03516a3.889,3.889,0,0,0-.4707,1.30469.4315.4315,0,0,0,.44238.50391,1.09066,1.09066,0,0,0,.61719-.19141,1.52662,1.52662,0,0,0,.57715-.835c.04785-.13867.11426-.30371.23535-.68652l.69824-.44238.0332.02539a5.17114,5.17114,0,0,0-.32227,1.19141c-.05957.68652.51855.93848,1.34473.93848h.19141Z" style="stroke: #000;stroke-miterlimit: 10;stroke-width: 0.39598605036735535px"/>
    <path d="M41.82617,44.21387c.64355,0,1.1875-.44336,1.5957-1.53906a2.99615,2.99615,0,0,1,.73535-1.05176,1.793,1.793,0,0,1,1.14063-.50488c1.06152,0,1.55957,1.46191,1.56543,2.9834-.252.791-.60254,1.12109-1.01953,1.12109a4.07978,4.07978,0,0,1-2.49316-1.02637h-.06152a1.58308,1.58308,0,0,1-1.60352,1.13086h-.14746a.50634.50634,0,0,1-.55762-.583.59879.59879,0,0,1,.6543-.53027Zm3.07422-.34766a2.58255,2.58255,0,0,0,1.01367.25293c.13086,0,.24414-.01758.28613-.09668C46.06348,42.71,45.54,42.127,44.99219,42.127a1.39741,1.39741,0,0,0-1.24023.85254A2.34857,2.34857,0,0,0,44.90039,43.86621Z" style="stroke: #000;stroke-miterlimit: 10;stroke-width: 0.39598605036735535px"/>
  </g>
</svg>
