<svg width="81" height="61" viewBox="0 0 81 61" fill="none" xmlns="http://www.w3.org/2000/svg">
<path d="M69.8459 11.0449C69.7798 10.848 69.7083 10.5333 69.626 10.1807C69.0746 7.94405 68.5578 5.83285 66.5163 5.054L56.8204 1.36933C54.9422 0.657463 52.8375 0.914906 51.1775 2.07209L50.58 2.60892C50.0927 3.16624 49.4336 3.86319 48.9646 4.31017L31.1052 4.31935C30.7071 3.90202 30.1782 3.29005 29.7336 2.7397L29.0402 2.08888C27.3824 0.930156 25.2709 0.666225 23.4021 1.38651L13.7002 5.08115C11.6692 5.85561 11.16 7.9457 10.6174 10.1624C10.5354 10.4988 10.4664 10.805 10.4934 10.805C10.4934 10.805 10.4956 10.805 10.4999 10.8017C7.19729 17.3228 -8.5014 50.3322 6.21818 60.0664C8.32268 61.4585 11.1247 61.2375 13.0395 59.5231L24.5672 49.1718C25.5818 48.2584 26.8724 47.7547 28.1989 47.754L52.0637 47.7418C53.3913 47.7411 54.6791 48.2434 55.7001 49.1558L67.2373 59.4952C68.3221 60.4682 69.6748 60.964 71.0272 60.9633C72.1137 60.9627 73.1957 60.6387 74.1316 59.9784C87.1107 50.8563 75.3988 22.5729 69.8459 11.0449Z" fill="#E31E25"/>
<path d="M53.6421 14.0051C55.4789 14.0042 56.9737 15.4962 56.9746 17.3361C56.9756 19.1761 55.4823 20.6696 53.6455 20.6705C51.8066 20.6715 50.3129 19.1795 50.3119 17.3395C50.311 15.4996 51.8032 14.0061 53.6421 14.0051ZM33.6648 30.6789L30.334 30.6806L30.3357 34.0144C30.3366 35.8533 28.8477 37.3478 27.0055 37.3488C25.1633 37.3497 23.6739 35.8567 23.673 34.0178L23.6713 30.684L20.3415 30.6857C18.5005 30.6867 17.0078 29.1936 17.0069 27.3537C17.0059 25.5148 18.497 24.0213 20.3381 24.0203L23.6678 24.0186L23.6661 20.6859C23.6652 18.846 25.1531 17.3525 26.9952 17.3515C28.8374 17.3506 30.3279 18.8426 30.3288 20.6825L30.3305 24.0152L33.6613 24.0135C35.5035 24.0125 36.9929 25.5045 36.9939 27.3434C36.9948 29.1834 35.5069 30.6779 33.6648 30.6789ZM46.9863 27.3383C45.1474 27.3392 43.6547 25.8483 43.6538 24.0084C43.6528 22.1695 45.1439 20.6749 46.9829 20.674C48.8218 20.673 50.3144 22.1661 50.3154 24.0049C50.3163 25.8449 48.8252 27.3373 46.9863 27.3383ZM53.6524 34.0024C51.8135 34.0033 50.3197 32.5103 50.3188 30.6703C50.3178 28.8314 51.8101 27.3358 53.649 27.3348C55.4857 27.3339 56.9805 28.828 56.9815 30.6669C56.9824 32.5069 55.4891 34.0014 53.6524 34.0024ZM60.3106 27.3314C58.4717 27.3324 56.979 25.8415 56.9781 24.0015C56.9771 22.1626 58.4682 20.668 60.3071 20.6671C62.1439 20.6662 63.6376 22.1592 63.6386 23.9981C63.6395 25.838 62.1473 27.3305 60.3106 27.3314Z" fill="white"/>
</svg>
