<svg id="Layer_1" data-name="Layer 1" xmlns="http://www.w3.org/2000/svg" width="65" height="65" viewBox="0 0 65 65">
  <title>logo</title>
  <path d="M63.85,32.115A31.22128,31.22128,0,0,1,53.343,55.542q-.69824.61274-1.425,1.197a32.66553,32.66553,0,0,1-3.88553,2.6125,31.39123,31.39123,0,0,1-30.096.532L7.914,64.1585a.95521.95521,0,0,1-1.32051-.988L7.88553,52.445l.095-.798a32.51184,32.51184,0,0,1-2.451-3.534v-.00951a31.23982,31.23982,0,0,1-3.58146-8.892V39.202c-.11405-.513-.21854-1.01651-.304-1.539a27.46125,27.46125,0,0,1-.38-2.964c-.057-.63648-.095-1.28253-.10449-1.938C1.15,32.552,1.15,32.3335,1.15,32.115a31.67975,31.67975,0,0,1,1.6055-9.956,31.37063,31.37063,0,0,1,51.585-12.54,30.713,30.713,0,0,1,3.496,4.0375,29.0931,29.0931,0,0,1,2.36549,3.762V17.428a30.97124,30.97124,0,0,1,3.12554,9.006c.08547.46549.16148.94049.228,1.41549A30.157,30.157,0,0,1,63.85,32.115Z" style="fill: #2374c4"/>
  <g>
    <path d="M10.97607,33.64063H9.98389a1.8908,1.8908,0,0,0-.1001-.252.75969.75969,0,0,0-.15967-.21973A.75135.75135,0,0,0,9.48,33.0166a.95539.95539,0,0,0-.34375-.05566.8508.8508,0,0,0-.47607.11914.82952.82952,0,0,0-.27637.30078,1.2203,1.2203,0,0,0-.12793.3877,2.34222,2.34222,0,0,0,0,.76855,1.2123,1.2123,0,0,0,.12793.3877.8268.8268,0,0,0,.27637.2998.84281.84281,0,0,0,.47607.12012.77094.77094,0,0,0,.58789-.208,1.10952,1.10952,0,0,0,.26807-.47949h.98389a2.07524,2.07524,0,0,1-.15625.55566,2.01481,2.01481,0,0,1-.24365.4082,1.40394,1.40394,0,0,1-.29639.2832,1.92212,1.92212,0,0,1-.31982.18457,1.99124,1.99124,0,0,1-.82373.168,2.11886,2.11886,0,0,1-.95215-.22363,2.03527,2.03527,0,0,1-.34814-.24414,1.46127,1.46127,0,0,1-.30371-.37207,2.047,2.047,0,0,1-.2124-.53613,3.36951,3.36951,0,0,1,0-1.45605,2.03467,2.03467,0,0,1,.21631-.54,1.63254,1.63254,0,0,1,.30371-.37988,1.69322,1.69322,0,0,1,.35205-.248A2.11319,2.11319,0,0,1,9.144,32.0166a2.18,2.18,0,0,1,.81592.18408,1.81947,1.81947,0,0,1,.31982.188,1.46758,1.46758,0,0,1,.29639.292,2.11995,2.11995,0,0,1,.24365.41211A2.06812,2.06812,0,0,1,10.97607,33.64063Z" style="fill: #fff"/>
    <path d="M11.51172,33.30469a1.06686,1.06686,0,0,1,.17627-.65186,1.2931,1.2931,0,0,1,.38379-.356,1.38281,1.38281,0,0,1,.56006-.17627H13.752v.96826H13a.533.533,0,0,0-.26025.05566.59335.59335,0,0,0-.15576.12012.44927.44927,0,0,0-.08789.17676v2.73535h-.98437Z" style="fill: #fff"/>
    <path d="M14.26367,31.2168c0-.11719.00146-.20508.00391-.26416a.17642.17642,0,0,1,.04834-.12793.22661.22661,0,0,1,.14355-.04395q.10034-.00366.292-.00391.19263,0,.292.00391a.22818.22818,0,0,1,.144.04395.17846.17846,0,0,1,.04834.12793c.00244.05908.00391.147.00391.26416s-.00146.20557-.00391.26416a.17846.17846,0,0,1-.04834.12793.22526.22526,0,0,1-.144.04395q-.09961.00366-.292.00391-.19189,0-.292-.00391a.22371.22371,0,0,1-.14355-.04395.17642.17642,0,0,1-.04834-.12793C14.26514,31.42236,14.26367,31.334,14.26367,31.2168Zm.97607.90381v4.05615h-.97607V32.12061Z" style="fill: #fff"/>
    <path d="M19.52783,33.64063h-.99219a1.8908,1.8908,0,0,0-.1001-.252.75969.75969,0,0,0-.15967-.21973.75135.75135,0,0,0-.24414-.15234.95539.95539,0,0,0-.34375-.05566.8508.8508,0,0,0-.47607.11914.82952.82952,0,0,0-.27637.30078,1.2203,1.2203,0,0,0-.12793.3877,2.34222,2.34222,0,0,0,0,.76855,1.2123,1.2123,0,0,0,.12793.3877.8268.8268,0,0,0,.27637.2998.84281.84281,0,0,0,.47607.12012.77094.77094,0,0,0,.58789-.208,1.10952,1.10952,0,0,0,.26807-.47949h.98389a2.07524,2.07524,0,0,1-.15625.55566,2.01481,2.01481,0,0,1-.24365.4082,1.40394,1.40394,0,0,1-.29639.2832,1.92212,1.92212,0,0,1-.31982.18457,1.99124,1.99124,0,0,1-.82373.168,2.11886,2.11886,0,0,1-.95215-.22363,2.03527,2.03527,0,0,1-.34814-.24414A1.46127,1.46127,0,0,1,16.084,35.417a2.047,2.047,0,0,1-.2124-.53613,3.36951,3.36951,0,0,1,0-1.45605,2.03467,2.03467,0,0,1,.21631-.54,1.63254,1.63254,0,0,1,.30371-.37988,1.69322,1.69322,0,0,1,.35205-.248,2.11319,2.11319,0,0,1,.95215-.24023,2.18,2.18,0,0,1,.81592.18408,1.81947,1.81947,0,0,1,.31982.188,1.46758,1.46758,0,0,1,.29639.292,2.11995,2.11995,0,0,1,.24365.41211A2.06812,2.06812,0,0,1,19.52783,33.64063Z" style="fill: #fff"/>
    <path d="M21.06348,36.17676H20.0874v-5.3999h.97607v2.95947l1.19238-1.61572h1.07959l-1.23193,1.688,1.72021,2.36816H22.74365l-1.19189-1.63184-.48828.63184Z" style="fill: #fff"/>
    <path d="M28.03125,33.63281c.01074.08008.02.16211.02832.248.00781.08594.01172.17578.01172.27148v.14453h-2.7998c.01074.09082.02393.18262.04.27637a1.29861,1.29861,0,0,0,.08008.27539.99669.99669,0,0,0,.272.36816.89836.89836,0,0,0,1.02393,0,1.0021,1.0021,0,0,0,.272-.36816h1.04a1.8184,1.8184,0,0,1-.436.84766,1.48686,1.48686,0,0,1-.2998.25293,2.1843,2.1843,0,0,1-.312.16309,2.14586,2.14586,0,0,1-1.728-.0791,2.03527,2.03527,0,0,1-.34814-.24414,1.473,1.473,0,0,1-.3042-.37207,2.064,2.064,0,0,1-.21191-.53613,3.34945,3.34945,0,0,1,0-1.45605,2.137,2.137,0,0,1,.21191-.54,1.5168,1.5168,0,0,1,.3042-.37988,1.88846,1.88846,0,0,1,.34814-.248,2.10947,2.10947,0,0,1,.95166-.24023,2.24489,2.24489,0,0,1,.82422.18408,1.95965,1.95965,0,0,1,.32373.188,1.545,1.545,0,0,1,.3042.28809,1.90566,1.90566,0,0,1,.248.4082A2.06836,2.06836,0,0,1,28.03125,33.63281Zm-1.00781,0a1.9938,1.9938,0,0,0-.1001-.25586.825.825,0,0,0-.16406-.23242.78091.78091,0,0,0-.248-.16357.96956.96956,0,0,0-.67187,0,.7864.7864,0,0,0-.248.16357.8923.8923,0,0,0-.168.23242,1.21891,1.21891,0,0,0-.0957.25586Z" style="fill: #fff"/>
    <path d="M29.60742,33.07227v1.78418a.46279.46279,0,0,0,.08789.17676.587.587,0,0,0,.15625.11914.51862.51862,0,0,0,.25977.05664h.60791v.96777h-.97607a1.38521,1.38521,0,0,1-.55957-.17578,1.25162,1.25162,0,0,1-.38037-.35645,1.0854,1.0854,0,0,1-.17187-.65137V31.03271h.97607v1.08789h.91992v.95166Z" style="fill: #fff"/>
  </g>
  <path d="M34.6543,33.748a1.5613,1.5613,0,0,1,1.082-.69336.72344.72344,0,0,1,.25977.07031.2661.2661,0,0,1,.10352.08594.54861.54861,0,0,1,.12109.22461c.00586.02344.01465.05273.02637.08691.03418.11621.06348.22559.08594.3291a2.51879,2.51879,0,0,1,.06055.28516c.041.19629.07227.34961.0957.459q.06006.29443.15527.83008c.0293.13867.04883.248.06055.3291q.09521.35449.19043.35449c.06348.01758.09863.03809.10449.06055-.00586.08691-.08105.17969-.22559.27734a.85116.85116,0,0,1-.38086.13867.1739.1739,0,0,1-.16406-.12988c-.03418-.14453-.06055-.251-.07812-.32031q-.08643-.42334-.207-1.05566-.0791-.38086-.17383-.80469a2.09666,2.09666,0,0,0-.19043-.51953.28556.28556,0,0,0-.26758-.15527q-.312,0-.7793.623a6.76156,6.76156,0,0,0-.83887,1.7041,1.38123,1.38123,0,0,0-.05176.208l-.01758.06055c-.01758.08105-.05469.12109-.11328.12109a.57507.57507,0,0,1-.25879-.06934.22616.22616,0,0,1-.1123-.19043c0-.06934.01172-.24219.03418-.51855l.00879-.12988c.02344-.23047.041-.6582.05176-1.28027-.01074-.43359-.02637-.71289-.043-.83984a2.542,2.542,0,0,1-.03418-.3374c0-.03467.002-.05518.00781-.061a.04664.04664,0,0,1,.03516-.05176,1.491,1.491,0,0,1,.35449.12109c.15527.08691.24219.15527.25977.208l-.00879.07813c-.01172.167-.02344.29688-.03516.38867-.01172.06934-.02539.20215-.043.39844l-.02539.26758q-.03516.24316-.06934.70117c-.01172.13281-.02637.248-.04395.34668-.01172.11523-.01953.19336-.02539.2334A7.27556,7.27556,0,0,1,34.6543,33.748Z" style="fill: #e20806;stroke: #e20806;stroke-miterlimit: 10;stroke-width: 0.2704073190689087px"/>
  <g>
    <path d="M42.6377,34.19336a3.24541,3.24541,0,0,0-.02051-.35937.92777.92777,0,0,0-.09961-.33594.64826.64826,0,0,0-.24414-.252,1.11177,1.11177,0,0,0-.91992,0,.64826.64826,0,0,0-.24414.252.909.909,0,0,0-.09961.33594,3.24541,3.24541,0,0,0-.02051.35938v2.02441h-.97559V34.19336a3.08777,3.08777,0,0,1,.07617-.72754,2.11784,2.11784,0,0,1,.20313-.54,1.61694,1.61694,0,0,1,.28809-.37988,1.74734,1.74734,0,0,1,.32813-.248,1.91472,1.91472,0,0,1,.9043-.24023,1.89492,1.89492,0,0,1,.89551.24023,1.8,1.8,0,0,1,.332.248,1.45179,1.45179,0,0,1,.28809.37988,2.31707,2.31707,0,0,1,.2041.54,2.928,2.928,0,0,1,.08008.72754v2.02441H42.6377Zm2.624,0a3.24541,3.24541,0,0,0-.02051-.35937.92777.92777,0,0,0-.09961-.33594.64826.64826,0,0,0-.24414-.252,1.11177,1.11177,0,0,0-.91992,0,.64826.64826,0,0,0-.24414.252.909.909,0,0,0-.09961.33594,3.24541,3.24541,0,0,0-.02051.35938v2.02441H42.6377V34.19336a3.08777,3.08777,0,0,1,.07617-.72754,2.11784,2.11784,0,0,1,.20313-.54,1.61694,1.61694,0,0,1,.28809-.37988,1.74734,1.74734,0,0,1,.32813-.248,1.91472,1.91472,0,0,1,.9043-.24023,1.89492,1.89492,0,0,1,.89551.24023,1.8,1.8,0,0,1,.332.248,1.45179,1.45179,0,0,1,.28809.37988,2.31707,2.31707,0,0,1,.2041.54,2.928,2.928,0,0,1,.08008.72754v2.02441h-.97559Z" style="fill: #fff"/>
    <path d="M46.74121,34.19336a2.975,2.975,0,0,1,.08008-.72754,2.15539,2.15539,0,0,1,.21191-.54,1.49678,1.49678,0,0,1,.30469-.37988,1.8857,1.8857,0,0,1,.34766-.248,1.99152,1.99152,0,0,1,1.89648,0,1.919,1.919,0,0,1,.34766.248,1.51542,1.51542,0,0,1,.30371.37988,2.23253,2.23253,0,0,1,.21582.54,3.19748,3.19748,0,0,1,0,1.45605,2.15368,2.15368,0,0,1-.21582.53613,1.4716,1.4716,0,0,1-.30371.37207,2.071,2.071,0,0,1-.34766.24414,2.12214,2.12214,0,0,1-1.89648,0,2.03222,2.03222,0,0,1-.34766-.24414,1.45389,1.45389,0,0,1-.30469-.37207,2.08136,2.08136,0,0,1-.21191-.53613A2.98331,2.98331,0,0,1,46.74121,34.19336ZM48.6377,33.002a.85475.85475,0,0,0-.47656.11914.82672.82672,0,0,0-.27539.30078,1.20826,1.20826,0,0,0-.12793.3877,2.30722,2.30722,0,0,0,0,.76855,1.20042,1.20042,0,0,0,.12793.3877.824.824,0,0,0,.27539.2998,1.0035,1.0035,0,0,0,.95215,0,.8268.8268,0,0,0,.27637-.2998,1.22442,1.22442,0,0,0,.12793-.3877,2.30722,2.30722,0,0,0,0-.76855,1.23259,1.23259,0,0,0-.12793-.3877.82952.82952,0,0,0-.27637-.30078A.85129.85129,0,0,0,48.6377,33.002Z" style="fill: #fff"/>
    <path d="M51.05371,33.3457a1.07014,1.07014,0,0,1,.17578-.65186,1.2958,1.2958,0,0,1,.38477-.356,1.37818,1.37818,0,0,1,.55957-.17627h1.12012v.96826h-.752a.531.531,0,0,0-.25977.05566.58056.58056,0,0,0-.15625.12012.44927.44927,0,0,0-.08789.17676v2.73535h-.98437Z" style="fill: #fff"/>
    <path d="M57.541,33.67383c.01074.08008.02051.16211.02832.248s.01172.17578.01172.27148v.14453h-2.7998c.01074.09082.02441.18262.04.27637a1.29861,1.29861,0,0,0,.08008.27539,1.00618,1.00618,0,0,0,.27148.36816.89914.89914,0,0,0,1.02441,0,.9953.9953,0,0,0,.27148-.36816h1.04a1.8275,1.8275,0,0,1-.17969.48828,1.86712,1.86712,0,0,1-.25586.35938,1.50034,1.50034,0,0,1-.2998.25293,2.18846,2.18846,0,0,1-.3125.16309,2.095,2.095,0,0,1-.77539.14453,2.11886,2.11886,0,0,1-.95215-.22363,2.07714,2.07714,0,0,1-.34863-.24414,1.4716,1.4716,0,0,1-.30371-.37207,2.08136,2.08136,0,0,1-.21191-.53613,3.34945,3.34945,0,0,1,0-1.45605,2.15539,2.15539,0,0,1,.21191-.54,1.51542,1.51542,0,0,1,.30371-.37988,1.92453,1.92453,0,0,1,.34863-.248,2.11319,2.11319,0,0,1,.95215-.24023,2.242,2.242,0,0,1,.82324.18408,1.92408,1.92408,0,0,1,.32422.188,1.52946,1.52946,0,0,1,.30371.28809,1.84847,1.84847,0,0,1,.248.4082A2.06812,2.06812,0,0,1,57.541,33.67383Zm-1.00781,0a1.92122,1.92122,0,0,0-.09961-.25586.825.825,0,0,0-.16406-.23242.796.796,0,0,0-.248-.16406.977.977,0,0,0-.67187,0,.78487.78487,0,0,0-.248.16406.88116.88116,0,0,0-.168.23242,1.22328,1.22328,0,0,0-.09668.25586Z" style="fill: #fff"/>
  </g>
  <path d="M60.83792,32.152a28.22157,28.22157,0,0,1-9.49749,21.17618q-.63115.55387-1.28809,1.082a29.527,29.527,0,0,1-3.51221,2.36149,28.37518,28.37518,0,0,1-27.20439.48088L10.2762,61.11677a.86343.86343,0,0,1-1.19364-.89311l1.16791-9.695.08585-.72135A29.38813,29.38813,0,0,1,8.12079,46.6129v-.0086a28.23832,28.23832,0,0,1-3.23736-8.03765v-.0086c-.1031-.46369-.19754-.91884-.2748-1.39113a24.8228,24.8228,0,0,1-.34351-2.67922c-.05152-.57533-.08585-1.15931-.09445-1.75183-.0086-.18889-.0086-.38638-.0086-.58393a28.636,28.636,0,0,1,1.45125-8.99942A28.35657,28.35657,0,0,1,52.24207,11.81736a27.76209,27.76209,0,0,1,3.1601,3.64958,26.29786,26.29786,0,0,1,2.13822,3.40057v.0086a27.99555,27.99555,0,0,1,2.82524,8.14069c.07726.42077.146.85013.20609,1.27949A27.25952,27.25952,0,0,1,60.83792,32.152Z" style="fill: none;stroke: #fff;stroke-miterlimit: 10"/>
</svg>
