<svg id="Layer_1" data-name="Layer 1" xmlns="http://www.w3.org/2000/svg" width="65" height="65" viewBox="0 0 65 65">
  <title>news</title>
  <path d="M63.85,32.115A31.22128,31.22128,0,0,1,53.343,55.542q-.69824.61274-1.425,1.197a32.66553,32.66553,0,0,1-3.88553,2.6125,31.39123,31.39123,0,0,1-30.096.532L7.914,64.1585a.95521.95521,0,0,1-1.32051-.988L7.88553,52.445l.095-.798a32.51184,32.51184,0,0,1-2.451-3.534v-.00951a31.23982,31.23982,0,0,1-3.58146-8.892V39.202c-.11405-.513-.21854-1.01651-.304-1.539a27.46125,27.46125,0,0,1-.38-2.964c-.057-.63648-.095-1.28253-.10449-1.938C1.15,32.552,1.15,32.3335,1.15,32.115a31.67975,31.67975,0,0,1,1.6055-9.956,31.37063,31.37063,0,0,1,51.585-12.54,30.713,30.713,0,0,1,3.496,4.0375,29.0931,29.0931,0,0,1,2.36549,3.762V17.428a30.97124,30.97124,0,0,1,3.12554,9.006c.08547.46549.16148.94049.228,1.41549A30.157,30.157,0,0,1,63.85,32.115Z" style="fill: #2374c4"/>
  <rect x="6.78159" y="23.23626" width="37.67308" height="13.45467" rx="1" ry="1" style="opacity: 0.2"/>
  <rect x="12.16346" y="34" width="45.74589" height="13.45467" rx="1" ry="1" style="opacity: 0.2"/>
  <rect x="8.12706" y="31.30907" width="47.09135" height="13.45467" rx="1" ry="1" style="fill: #fff"/>
  <rect x="4.09065" y="20.54533" width="37.67308" height="13.45467" rx="1" ry="1"/>
  <g>
    <path d="M6.21631,24.062H7.42676l.99316,4.375,1.146-4.375H10.8252l1.08154,4.35107,1.001-4.35107h1.21875l-1.57373,5.63428h-1.332l-1.05762-4.01172L9.05762,29.69629l-1.32373.0083Z" style="fill: #fff"/>
    <path d="M18.13135,24.97412H15.99219v1.4126h1.897v.896h-1.897v1.49316h2.13916v.92041h-3.269V24.0542h3.269Z" style="fill: #fff"/>
    <path d="M21.58643,29.69629H19.15674V24.062h2.32471c1.17822,0,1.832.61377,1.832,1.45313a1.2992,1.2992,0,0,1-.96045,1.2915,1.36587,1.36587,0,0,1,1.08984,1.36426C23.44287,29.06689,22.75684,29.69629,21.58643,29.69629Zm-.2666-4.72217h-1.0332v1.4126h1.0332c.53271,0,.83936-.24219.83936-.70215C22.15918,25.23242,21.85254,24.97412,21.31982,24.97412Zm.08057,2.28467H20.28662v1.51709H21.4248c.54883,0,.87158-.26611.87158-.74219C22.29639,27.54932,21.94922,27.25879,21.40039,27.25879Z" style="fill: #fff"/>
    <path d="M26.293,29.75293c-1.17041,0-2.07471-.61377-2.09082-1.6792h1.21094a.77362.77362,0,0,0,.85547.751c.53271,0,.84766-.28271.84766-.68652,0-1.21875-2.90576-.48389-2.89795-2.52637,0-1.01709.82324-1.63037,1.98584-1.63037a1.78087,1.78087,0,0,1,2.01807,1.60645H26.979a.74343.74343,0,0,0-.80713-.66992c-.44434-.0166-.7749.20166-.7749.66162,0,1.12988,2.88965.50049,2.88965,2.48633A1.77761,1.77761,0,0,1,26.293,29.75293Z" style="fill: #fff"/>
    <path d="M29.26367,24.062h1.12988v5.63428H29.26367Z" style="fill: #fff"/>
    <path d="M31.20947,24.062H35.3418v.91211h-1.501v4.72217H32.71094V24.97412H31.20947Z" style="fill: #fff"/>
    <path d="M39.43555,24.97412H37.29688v1.4126h1.89648v.896H37.29688v1.49316h2.13867v.92041H36.166V24.0542h3.26953Z" style="fill: #fff"/>
  </g>
  <g>
    <path d="M13.93262,40.96191H11.68848l-.37109,1.07324H10.13086l2.02588-5.64258h1.31592l2.02588,5.64258H14.30371ZM12.81055,37.7002l-.81494,2.35742H13.626Z"/>
    <path d="M18.20361,42.0918c-1.17041,0-2.07471-.61328-2.09082-1.67871h1.21094a.77347.77347,0,0,0,.85547.75c.53271,0,.84766-.28223.84766-.68555,0-1.21875-2.90576-.48437-2.89795-2.52637,0-1.01758.82324-1.63086,1.98584-1.63086a1.78056,1.78056,0,0,1,2.01807,1.60645H18.88965a.74376.74376,0,0,0-.80713-.66992c-.44385-.0166-.7749.20117-.7749.66211,0,1.12988,2.88965.5,2.88965,2.48535A1.77739,1.77739,0,0,1,18.20361,42.0918Z"/>
    <path d="M23.11963,42.0918c-1.17041,0-2.07471-.61328-2.09082-1.67871h1.21094a.77347.77347,0,0,0,.85547.75c.53271,0,.84766-.28223.84766-.68555,0-1.21875-2.90576-.48437-2.89795-2.52637,0-1.01758.82324-1.63086,1.98584-1.63086a1.78056,1.78056,0,0,1,2.01807,1.60645H23.80566a.74376.74376,0,0,0-.80713-.66992c-.44385-.0166-.7749.20117-.7749.66211,0,1.12988,2.88965.5,2.88965,2.48535A1.77739,1.77739,0,0,1,23.11963,42.0918Z"/>
    <path d="M26.09082,36.40137H27.2207v5.63379H26.09082Z"/>
    <path d="M30.28027,42.0918c-1.17041,0-2.07471-.61328-2.09082-1.67871h1.21094a.77347.77347,0,0,0,.85547.75c.53271,0,.84766-.28223.84766-.68555,0-1.21875-2.90576-.48437-2.89795-2.52637,0-1.01758.82324-1.63086,1.98584-1.63086a1.78056,1.78056,0,0,1,2.01807,1.60645H30.96631a.74376.74376,0,0,0-.80713-.66992c-.44434-.0166-.7749.20117-.7749.66211,0,1.12988,2.88965.5,2.88965,2.48535A1.77739,1.77739,0,0,1,30.28027,42.0918Z"/>
    <path d="M32.95215,36.40137H37.085v.91211H35.584v4.72168H34.45313V37.31348h-1.501Z"/>
    <path d="M41.36328,40.96191H39.11914L38.748,42.03516H37.56152l2.02637-5.64258h1.31543l2.02637,5.64258H41.73438ZM40.24121,37.7002l-.81543,2.35742h1.63086Z"/>
    <path d="M48.50781,36.39258v5.64258H47.37793l-2.55859-3.86621v3.86621H43.68848V36.39258h1.13086l2.55859,3.875v-3.875Z"/>
    <path d="M49.32422,36.40137H53.457v.91211h-1.502v4.72168H50.8252V37.31348h-1.501Z"/>
  </g>
</svg>
