<svg id="Layer_1" data-name="Layer 1" xmlns="http://www.w3.org/2000/svg" width="65" height="65" viewBox="0 0 65 65">
  <title>news-01</title>
  <path d="M63.85,32.115A31.22128,31.22128,0,0,1,53.343,55.542q-.69824.61274-1.425,1.197a32.66553,32.66553,0,0,1-3.88553,2.6125,31.39123,31.39123,0,0,1-30.096.532L7.914,64.1585a.95521.95521,0,0,1-1.32051-.988L7.88553,52.445l.095-.798a32.51184,32.51184,0,0,1-2.451-3.534v-.00951a31.23982,31.23982,0,0,1-3.58146-8.892V39.202c-.11405-.513-.21854-1.01651-.304-1.539a27.46125,27.46125,0,0,1-.38-2.964c-.057-.63648-.095-1.28253-.10449-1.938C1.15,32.552,1.15,32.3335,1.15,32.115a31.67975,31.67975,0,0,1,1.6055-9.956,31.37063,31.37063,0,0,1,51.585-12.54,30.713,30.713,0,0,1,3.496,4.0375,29.0931,29.0931,0,0,1,2.36549,3.762V17.428a30.97124,30.97124,0,0,1,3.12554,9.006c.08547.46549.16148.94049.228,1.41549A30.157,30.157,0,0,1,63.85,32.115Z" style="fill: #ed1c24"/>
  <polygon points="41.606 32.307 5.376 32.307 6.508 17.532 42.738 17.532 41.606 32.307"/>
  <polygon points="43.656 33.784 7.707 33.784 8.83 19.01 44.78 19.01 43.656 33.784" style="opacity: 0.2"/>
  <polygon points="57.257 47.081 17.045 47.081 18.301 32.307 58.513 32.307 57.257 47.081" style="opacity: 0.2"/>
  <polygon points="54.907 44.126 14.424 44.126 15.523 30.829 56.007 30.829 54.907 44.126" style="fill: #fff"/>
  <g>
    <path d="M25.2793,34.2998H23.09082l-.521,6.125H21.09717l.521-6.125H19.458l.10449-1.22656h5.82129Z"/>
    <path d="M27.00244,40.4248H25.57861l.46436-5.46289H27.4668Zm-.92187-6.877a.79778.79778,0,0,1,.25977-.541.85025.85025,0,0,1,.59912-.21191.72784.72784,0,0,1,.561.21191.67212.67212,0,0,1,.16992.541.79719.79719,0,0,1-.26416.54492.86154.86154,0,0,1-.59521.21191.73333.73333,0,0,1-.55811-.21191A.66863.66863,0,0,1,26.08057,33.54785Z"/>
    <path d="M29.94043,34.96191l-.00928.62988a2.012,2.012,0,0,1,1.58838-.73145,1.3949,1.3949,0,0,1,1.21338.50977,2.29208,2.29208,0,0,1,.29346,1.52539l-.30029,3.5293H31.30713l.29736-3.49414a.90574.90574,0,0,0-.13916-.67383.79859.79859,0,0,0-.63525-.21,1.07248,1.07248,0,0,0-.94336.52539l-.32764,3.85254h-1.418l.46436-5.46289Z"/>
    <path d="M38.58105,33.61816l-.11426,1.34375h.9082l-.09082,1.07031H38.376l-.23145,2.72656a.62515.62515,0,0,0,.07617.43457.51369.51369,0,0,0,.41992.13184,2.17073,2.17073,0,0,0,.41992-.03613l-.09375,1.10645a2.96759,2.96759,0,0,1-.86914.13086q-1.49268,0-1.39062-1.5498l.25-2.94434h-.77539l.09082-1.07031h.77539l.11426-1.34375Z"/>
    <path d="M46.21387,34.48145A2.32829,2.32829,0,0,1,45.748,35.8418a1.69537,1.69537,0,0,1-1.14648.52246l-.3457,4.06055H42.91992l.00879-.55469a1.91914,1.91914,0,0,1-1.50879.65625,1.51744,1.51744,0,0,1-1.25977-.50488,2.059,2.059,0,0,1-.334-1.48047l.30469-3.5791h1.418L41.248,38.49609q-.07178.85254.68359.85352a1.1178,1.1178,0,0,0,1.03613-.51562l.3291-3.87207H44.7207l-.05957.70117a.75441.75441,0,0,0,.49512-.31348,2.02981,2.02981,0,0,0,.209-.86816Zm-3.29492-1.71191h1.5459L42.97266,34.335H41.81934Z"/>
    <path d="M48.13184,39.34961a.9798.9798,0,0,0,.65723-.22266.86727.86727,0,0,0,.30566-.59082H50.4248a2.06158,2.06158,0,0,1-.38184,1.01855,2.21646,2.21646,0,0,1-.85254.7168,2.57859,2.57859,0,0,1-1.13379.25488,2.08453,2.08453,0,0,1-1.7334-.74512,2.81016,2.81016,0,0,1-.48242-2.05859l.00781-.09473a3.21781,3.21781,0,0,1,.82422-2.01562,2.44806,2.44806,0,0,1,1.85547-.752,2.02757,2.02757,0,0,1,1.54785.583,1.94334,1.94334,0,0,1,.47949,1.55273H49.22559a.94308.94308,0,0,0-.19727-.69238.76271.76271,0,0,0-.624-.2666.92987.92987,0,0,0-.78125.37109,2.36463,2.36463,0,0,0-.35547,1.207l-.0127.15137a2.143,2.143,0,0,0,.14746,1.21387A.7806.7806,0,0,0,48.13184,39.34961Z"/>
  </g>
  <g>
    <path d="M17.187,21.916H14.99854l-.521,6.125H13.00488l.521-6.125H11.36572l.104-1.22705H17.291Z" style="fill: #fff"/>
    <path d="M20.42627,23.9458a3.60936,3.60936,0,0,0-.50732-.04,1.13547,1.13547,0,0,0-1.10254.56055L18.5127,28.041H17.09375l.46436-5.46338h1.33984l-.01611.65088a1.45389,1.45389,0,0,1,1.24756-.752,1.39058,1.39058,0,0,1,.436.06494Z" style="fill: #fff"/>
    <path d="M20.67285,25.2583a3.50429,3.50429,0,0,1,.43066-1.45361,2.56,2.56,0,0,1,.96436-.98291,2.67732,2.67732,0,0,1,1.35449-.34521,2.14378,2.14378,0,0,1,1.78418.78223.81707.81707,0,0,0,.34277-.45166,3.1327,3.1327,0,0,0,.14111-.73926h.86426a1.92745,1.92745,0,0,1-1.02,1.77637,3.18208,3.18208,0,0,1,.16943,1.41406l-.00879.106a3.51631,3.51631,0,0,1-.43018,1.45459,2.563,2.563,0,0,1-.95752.98,2.66877,2.66877,0,0,1-1.35742.34375,2.183,2.183,0,0,1-1.72168-.70264,2.58641,2.58641,0,0,1-.5752-1.89355Zm1.38184,4.00977a.70387.70387,0,0,1,.26318-.5.88835.88835,0,0,1,.58643-.19629.76519.76519,0,0,1,.55713.19629.5914.5914,0,0,1,.1792.5.72039.72039,0,0,1-.26123.50049.88128.88128,0,0,1-.59424.20117.74952.74952,0,0,1-.55713-.20117A.60917.60917,0,0,1,22.05469,29.26807Zm.03223-3.90576a1.9899,1.9899,0,0,0,.18408,1.19092.846.846,0,0,0,.7793.4126,1.01733,1.01733,0,0,0,.84033-.40967,2.47136,2.47136,0,0,0,.395-1.2998,1.99844,1.99844,0,0,0-.18359-1.18115.842.842,0,0,0-.77979-.42236,1.00746,1.00746,0,0,0-.83984.41748A2.4788,2.4788,0,0,0,22.08691,25.3623Z" style="fill: #fff"/>
    <path d="M30.50879,28.041H29.085l.65967-7.75586h1.42383Z" style="fill: #fff"/>
    <path d="M33.83691,25.97559l1.27051-3.39795h1.52148l-2.67187,6.312-.14258.28809A1.794,1.794,0,0,1,32.15332,30.248a2.097,2.097,0,0,1-.62109-.09619l.09424-1.10547.21533.00488a1.19943,1.19943,0,0,0,.6123-.12646.92616.92616,0,0,0,.34717-.41943l.20459-.44873-1.394-5.479h1.52686Zm.792-5.69043h1.54688l-1.49316,1.56445H33.5293Z" style="fill: #fff"/>
  </g>
  <rect x="31" y="49" width="14" height="1" rx="0.5" ry="0.5" style="fill: #fff"/>
  <rect x="48" y="49" width="4" height="1" rx="0.5" ry="0.5" style="fill: #fff"/>
</svg>
