<?xml version="1.0" encoding="UTF-8"?>
<!DOCTYPE svg PUBLIC "-//W3C//DTD SVG 1.1//EN" "http://www.w3.org/Graphics/SVG/1.1/DTD/svg11.dtd">
<!-- Creator: CorelDRAW 2018 (64-Bit) -->
<svg xmlns="http://www.w3.org/2000/svg" xml:space="preserve" width="250px" height="250px" version="1.1" style="shape-rendering:geometricPrecision; text-rendering:geometricPrecision; image-rendering:optimizeQuality; fill-rule:evenodd; clip-rule:evenodd"
viewBox="0 0 250 250"
 xmlns:xlink="http://www.w3.org/1999/xlink">
 <defs>
  <style type="text/css">
   <![CDATA[
    .fil27 {fill:none}
    .fil2 {fill:#001D42}
    .fil26 {fill:#890C14}
    .fil25 {fill:#A2141A}
    .fil3 {fill:#B6208F}
    .fil0 {fill:#D23576}
    .fil1 {fill:#ED1C24}
    .fil4 {fill:white}
    .fil15 {fill:#FEFEFE;fill-rule:nonzero}
    .fil22 {fill:#F8FBFB;fill-rule:nonzero}
    .fil11 {fill:#F1D5BB;fill-rule:nonzero}
    .fil6 {fill:#EDC7A5;fill-rule:nonzero}
    .fil12 {fill:#C9A98D;fill-rule:nonzero}
    .fil13 {fill:#BB9372;fill-rule:nonzero}
    .fil14 {fill:#473D2C;fill-rule:nonzero}
    .fil16 {fill:#393027;fill-rule:nonzero}
    .fil21 {fill:#484749;fill-rule:nonzero}
    .fil19 {fill:#3B3A3B;fill-rule:nonzero}
    .fil20 {fill:#302C2D;fill-rule:nonzero}
    .fil10 {fill:#2F3233;fill-rule:nonzero}
    .fil5 {fill:black;fill-rule:nonzero}
    .fil9 {fill:#890C14;fill-rule:nonzero}
    .fil8 {fill:#A2141A;fill-rule:nonzero}
    .fil23 {fill:#E6E6E6;fill-rule:nonzero}
    .fil7 {fill:#FBFBFD;fill-rule:nonzero}
    .fil32 {fill:white;fill-rule:nonzero}
    .fil31 {fill:url(#id24)}
    .fil18 {fill:url(#id25)}
    .fil29 {fill:url(#id26)}
    .fil30 {fill:url(#id27)}
    .fil24 {fill:url(#id28)}
    .fil28 {fill:url(#id29)}
    .fil17 {fill:url(#id30)}
   ]]>
  </style>
   <clipPath id="id0">
    <path d="M30.12 118.63c0,9.65 3.55,34 5.16,43.66 1.55,9.25 3.67,19.86 6.57,28.57 0.23,0.67 0.45,1.41 0.71,2.11 2.35,6.31 5.37,11.37 10.69,15.71 0.98,0.8 2.4,1.78 3.54,2.38 2.89,1.5 5.04,2.24 8.74,2.97 1.85,0.37 10.73,1.36 13,1.53l8.32 0.57c0.67,0 0.83,0.07 1.29,0.12 0.46,0.06 0.93,0.01 1.4,0.02 0.67,0.02 0.64,0.11 1.26,0.15 0.5,0.02 1.05,-0.03 1.55,0 0.62,0.03 0.59,0.12 1.27,0.14 0.51,0.02 1.05,-0.03 1.56,0 1.84,0.1 3.58,0.28 5.5,0.28 1.75,0 1.82,0.12 2.82,0.15 2.06,0.06 2.01,-0.06 4.24,0.12 0.47,0.04 1.07,0.01 1.55,0.01 1.26,0 5.33,0.09 9.22,0.14l7.26 0c0.37,-0.01 0.65,-0.03 0.81,-0.06 1.85,-0.28 3.92,0.12 5.83,-0.1 0.86,-0.1 1.64,-0.12 2.7,-0.12l13.68 -0.99c3.51,-0.3 9.21,-1.28 12.6,-2.22 2.21,-0.62 4.32,-1.36 6.21,-2.55 3.14,-1.97 6.28,-6.32 8.29,-9.34 5.87,-8.78 11.17,-22.58 14.48,-32.51 6.09,-18.25 11.49,-41.33 11.49,-61.04 0,-13.2 -5.5,-22.98 -14.77,-28.13 -0.29,-0.16 -0.5,-0.25 -0.76,-0.38 -5.21,-2.71 -8.52,-3.49 -14.65,-4.54 -1.31,-0.22 -2.62,-0.25 -4.07,-0.44 -3.05,-0.4 -13.92,-0.33 -17.44,0.14l-2.5 0.19c-2.44,0.05 -12.07,1.03 -14.72,1.36 -13.99,1.78 -23.14,3.09 -37.03,5.87 -12.23,2.44 -26.66,5.81 -37.92,10.34 -5.13,2.07 -6.33,2.73 -10.99,5.1 -1.84,0.93 -4.83,2.89 -6.54,4.18l-2.2 1.76c-0.27,0.24 -0.43,0.45 -0.7,0.7 -2.09,1.93 -3.31,3.25 -4.86,5.86 -1.29,2.17 -2.59,5.64 -2.59,8.29z"/>
   </clipPath>
    <clipPath id="id1">
     <path d="M184.34 185.48c-13.74,18.67 -36.15,29.83 -70.44,31.71l0 0c-2.11,-0.04 -3.86,-0.07 -4.61,-0.07 -0.48,0 -1.08,0.03 -1.55,-0.01 -2.23,-0.18 -2.18,-0.06 -4.24,-0.12 -1,-0.03 -1.07,-0.15 -2.82,-0.15 -1.92,0 -3.66,-0.18 -5.5,-0.28 -0.51,-0.03 -1.05,0.02 -1.56,0 -0.68,-0.02 -0.65,-0.11 -1.27,-0.14 -0.26,-0.02 -0.53,-0.01 -0.81,0 -12.76,-1.73 -23.62,-5.72 -32.73,-11.58 -6.87,-4.42 -12.75,-9.91 -17.7,-16.31 -2.52,-8.23 -4.41,-17.8 -5.83,-26.24 -1.61,-9.66 -5.16,-34.01 -5.16,-43.66 0,-2.65 1.3,-6.12 2.59,-8.29 1.55,-2.61 2.77,-3.93 4.86,-5.86 0.27,-0.25 0.43,-0.46 0.7,-0.7l2.2 -1.76c1.71,-1.29 4.7,-3.25 6.54,-4.18 4.66,-2.37 5.86,-3.03 10.99,-5.1 11.26,-4.53 25.69,-7.9 37.92,-10.34 13.89,-2.78 23.04,-4.09 37.03,-5.87 2.65,-0.33 12.28,-1.31 14.72,-1.36l2.5 -0.19c3.52,-0.47 14.39,-0.54 17.44,-0.14 1.45,0.19 2.76,0.22 4.07,0.44 6.13,1.05 9.44,1.83 14.65,4.54 0.26,0.13 0.47,0.22 0.76,0.38 9.27,5.15 14.77,14.93 14.77,28.13 0,19.71 -5.4,42.79 -11.49,61.04 -1.6,4.8 -3.66,10.51 -6.03,16.11z"/>
    </clipPath>
      <clipPath id="id2">
      </clipPath>
      <clipPath id="id3">
       <path d="M184.34 185.48c-13.74,18.67 -36.15,29.83 -70.44,31.71l0 0c-2.11,-0.04 -3.86,-0.07 -4.61,-0.07 -0.48,0 -1.08,0.03 -1.55,-0.01 -2.23,-0.18 -2.18,-0.06 -4.24,-0.12 -1,-0.03 -1.07,-0.15 -2.82,-0.15 -1.92,0 -3.66,-0.18 -5.5,-0.28 -0.51,-0.03 -1.05,0.02 -1.56,0 -0.68,-0.02 -0.65,-0.11 -1.27,-0.14 -0.26,-0.02 -0.53,-0.01 -0.81,0 -12.76,-1.73 -23.62,-5.72 -32.73,-11.58 -6.87,-4.42 -12.75,-9.91 -17.7,-16.31 -2.52,-8.23 -4.41,-17.8 -5.83,-26.24 -1.61,-9.66 -5.16,-34.01 -5.16,-43.66 0,-2.65 1.3,-6.12 2.59,-8.29 1.55,-2.61 2.77,-3.93 4.86,-5.86 0.27,-0.25 0.43,-0.46 0.7,-0.7l2.2 -1.76c1.71,-1.29 4.7,-3.25 6.54,-4.18 4.66,-2.37 5.86,-3.03 10.99,-5.1 11.26,-4.53 25.69,-7.9 37.92,-10.34 13.89,-2.78 23.04,-4.09 37.03,-5.87 2.65,-0.33 12.28,-1.31 14.72,-1.36l2.5 -0.19c3.52,-0.47 14.39,-0.54 17.44,-0.14 1.45,0.19 2.76,0.22 4.07,0.44 6.13,1.05 9.44,1.83 14.65,4.54 0.26,0.13 0.47,0.22 0.76,0.38 9.27,5.15 14.77,14.93 14.77,28.13 0,19.71 -5.4,42.79 -11.49,61.04 -1.6,4.8 -3.66,10.51 -6.03,16.11z"/>
      </clipPath>
      <clipPath id="id4">
       <path d="M122.81 79.73c0,0 -0.56,-0.52 -0.56,-1.37 0,-0.13 0.01,-0.28 0.04,-0.42 0.69,-0.1 1.38,-0.19 2.08,-0.29 -1.04,1.17 -1.56,2.08 -1.56,2.08l0 0z"/>
      </clipPath>
      <clipPath id="id5">
       <path d="M184.34 185.48c-13.74,18.67 -36.15,29.83 -70.44,31.71l0 0c-2.11,-0.04 -3.86,-0.07 -4.61,-0.07 -0.48,0 -1.08,0.03 -1.55,-0.01 -2.23,-0.18 -2.18,-0.06 -4.24,-0.12 -1,-0.03 -1.07,-0.15 -2.82,-0.15 -1.92,0 -3.66,-0.18 -5.5,-0.28 -0.51,-0.03 -1.05,0.02 -1.56,0 -0.68,-0.02 -0.65,-0.11 -1.27,-0.14 -0.26,-0.02 -0.53,-0.01 -0.81,0 -12.76,-1.73 -23.62,-5.72 -32.73,-11.58 -6.87,-4.42 -12.75,-9.91 -17.7,-16.31 -2.52,-8.23 -4.41,-17.8 -5.83,-26.24 -1.61,-9.66 -5.16,-34.01 -5.16,-43.66 0,-2.65 1.3,-6.12 2.59,-8.29 1.55,-2.61 2.77,-3.93 4.86,-5.86 0.27,-0.25 0.43,-0.46 0.7,-0.7l2.2 -1.76c1.71,-1.29 4.7,-3.25 6.54,-4.18 4.66,-2.37 5.86,-3.03 10.99,-5.1 11.26,-4.53 25.69,-7.9 37.92,-10.34 13.89,-2.78 23.04,-4.09 37.03,-5.87 2.65,-0.33 12.28,-1.31 14.72,-1.36l2.5 -0.19c3.52,-0.47 14.39,-0.54 17.44,-0.14 1.45,0.19 2.76,0.22 4.07,0.44 6.13,1.05 9.44,1.83 14.65,4.54 0.26,0.13 0.47,0.22 0.76,0.38 9.27,5.15 14.77,14.93 14.77,28.13 0,19.71 -5.4,42.79 -11.49,61.04 -1.6,4.8 -3.66,10.51 -6.03,16.11z"/>
      </clipPath>
      <clipPath id="id6">
      </clipPath>
      <clipPath id="id7">
       <path d="M184.34 185.48c-13.74,18.67 -36.15,29.83 -70.44,31.71l0 0c-2.11,-0.04 -3.86,-0.07 -4.61,-0.07 -0.48,0 -1.08,0.03 -1.55,-0.01 -2.23,-0.18 -2.18,-0.06 -4.24,-0.12 -1,-0.03 -1.07,-0.15 -2.82,-0.15 -1.92,0 -3.66,-0.18 -5.5,-0.28 -0.51,-0.03 -1.05,0.02 -1.56,0 -0.68,-0.02 -0.65,-0.11 -1.27,-0.14 -0.26,-0.02 -0.53,-0.01 -0.81,0 -12.76,-1.73 -23.62,-5.72 -32.73,-11.58 -6.87,-4.42 -12.75,-9.91 -17.7,-16.31 -2.52,-8.23 -4.41,-17.8 -5.83,-26.24 -1.61,-9.66 -5.16,-34.01 -5.16,-43.66 0,-2.65 1.3,-6.12 2.59,-8.29 1.55,-2.61 2.77,-3.93 4.86,-5.86 0.27,-0.25 0.43,-0.46 0.7,-0.7l2.2 -1.76c1.71,-1.29 4.7,-3.25 6.54,-4.18 4.66,-2.37 5.86,-3.03 10.99,-5.1 11.26,-4.53 25.69,-7.9 37.92,-10.34 13.89,-2.78 23.04,-4.09 37.03,-5.87 2.65,-0.33 12.28,-1.31 14.72,-1.36l2.5 -0.19c3.52,-0.47 14.39,-0.54 17.44,-0.14 1.45,0.19 2.76,0.22 4.07,0.44 6.13,1.05 9.44,1.83 14.65,4.54 0.26,0.13 0.47,0.22 0.76,0.38 9.27,5.15 14.77,14.93 14.77,28.13 0,19.71 -5.4,42.79 -11.49,61.04 -1.6,4.8 -3.66,10.51 -6.03,16.11z"/>
      </clipPath>
      <clipPath id="id8">
      </clipPath>
      <clipPath id="id9">
       <path d="M184.34 185.48c-13.74,18.67 -36.15,29.83 -70.44,31.71l0 0c-2.11,-0.04 -3.86,-0.07 -4.61,-0.07 -0.48,0 -1.08,0.03 -1.55,-0.01 -2.23,-0.18 -2.18,-0.06 -4.24,-0.12 -1,-0.03 -1.07,-0.15 -2.82,-0.15 -1.92,0 -3.66,-0.18 -5.5,-0.28 -0.51,-0.03 -1.05,0.02 -1.56,0 -0.68,-0.02 -0.65,-0.11 -1.27,-0.14 -0.26,-0.02 -0.53,-0.01 -0.81,0 -12.76,-1.73 -23.62,-5.72 -32.73,-11.58 -6.87,-4.42 -12.75,-9.91 -17.7,-16.31 -2.52,-8.23 -4.41,-17.8 -5.83,-26.24 -1.61,-9.66 -5.16,-34.01 -5.16,-43.66 0,-2.65 1.3,-6.12 2.59,-8.29 1.55,-2.61 2.77,-3.93 4.86,-5.86 0.27,-0.25 0.43,-0.46 0.7,-0.7l2.2 -1.76c1.71,-1.29 4.7,-3.25 6.54,-4.18 4.66,-2.37 5.86,-3.03 10.99,-5.1 11.26,-4.53 25.69,-7.9 37.92,-10.34 13.89,-2.78 23.04,-4.09 37.03,-5.87 2.65,-0.33 12.28,-1.31 14.72,-1.36l2.5 -0.19c3.52,-0.47 14.39,-0.54 17.44,-0.14 1.45,0.19 2.76,0.22 4.07,0.44 6.13,1.05 9.44,1.83 14.65,4.54 0.26,0.13 0.47,0.22 0.76,0.38 9.27,5.15 14.77,14.93 14.77,28.13 0,19.71 -5.4,42.79 -11.49,61.04 -1.6,4.8 -3.66,10.51 -6.03,16.11z"/>
      </clipPath>
       <mask id="id10">
  <linearGradient id="id11" gradientUnits="userSpaceOnUse" x1="74.07" y1="160.44" x2="113.46" y2="132.51">
   <stop offset="0" style="stop-opacity:1; stop-color:white"/>
   <stop offset="0.2" style="stop-opacity:-16.0667; stop-color:white"/>
   <stop offset="1" style="stop-opacity:0; stop-color:white"/>
  </linearGradient>
        <rect style="fill:url(#id11)" x="60.38" y="121.42" width="27.29" height="39.54"/>
       </mask>
    <clipPath id="id12">
     <path d="M30.12 118.63c0,9.65 3.55,34 5.16,43.66 1.55,9.25 3.67,19.86 6.57,28.57 0.23,0.67 0.45,1.41 0.71,2.11 2.35,6.31 5.37,11.37 10.69,15.71 0.98,0.8 2.4,1.78 3.54,2.38 2.89,1.5 5.04,2.24 8.74,2.97 1.85,0.37 10.73,1.36 13,1.53l8.32 0.57c0.67,0 0.83,0.07 1.29,0.12 0.46,0.06 0.93,0.01 1.4,0.02 0.67,0.02 0.64,0.11 1.26,0.15 0.5,0.02 1.05,-0.03 1.55,0 0.62,0.03 0.59,0.12 1.27,0.14 0.51,0.02 1.05,-0.03 1.56,0 1.84,0.1 3.58,0.28 5.5,0.28 1.75,0 1.82,0.12 2.82,0.15 2.06,0.06 2.01,-0.06 4.24,0.12 0.47,0.04 1.07,0.01 1.55,0.01 1.26,0 5.33,0.09 9.22,0.14l7.26 0c0.37,-0.01 0.65,-0.03 0.81,-0.06 1.85,-0.28 3.92,0.12 5.83,-0.1 0.86,-0.1 1.64,-0.12 2.7,-0.12l13.68 -0.99c3.51,-0.3 9.21,-1.28 12.6,-2.22 2.21,-0.62 4.32,-1.36 6.21,-2.55 3.14,-1.97 6.28,-6.32 8.29,-9.34 5.87,-8.78 11.17,-22.58 14.48,-32.51 6.09,-18.25 11.49,-41.33 11.49,-61.04 0,-13.2 -5.5,-22.98 -14.77,-28.13 -0.29,-0.16 -0.5,-0.25 -0.76,-0.38 -5.21,-2.71 -8.52,-3.49 -14.65,-4.54 -1.31,-0.22 -2.62,-0.25 -4.07,-0.44 -3.05,-0.4 -13.92,-0.33 -17.44,0.14l-2.5 0.19c-2.44,0.05 -12.07,1.03 -14.72,1.36 -13.99,1.78 -23.14,3.09 -37.03,5.87 -12.23,2.44 -26.66,5.81 -37.92,10.34 -5.13,2.07 -6.33,2.73 -10.99,5.1 -1.84,0.93 -4.83,2.89 -6.54,4.18l-2.2 1.76c-0.27,0.24 -0.43,0.45 -0.7,0.7 -2.09,1.93 -3.31,3.25 -4.86,5.86 -1.29,2.17 -2.59,5.64 -2.59,8.29z"/>
    </clipPath>
   <clipPath id="id13">
    <path d="M119.05 13.53c50.47,0 83.53,34.67 83.53,96.54 0,61.87 -21.56,101.3 -88.88,105 -22.88,1.26 -41.06,-3.32 -55.09,-12.35 -27.24,-17.52 -38.84,-51.81 -38.84,-92.65 0,-61.87 48.8,-96.54 99.28,-96.54z"/>
   </clipPath>
     <clipPath id="id14">
      <path d="M124.67 77.55c-0.47,-0.3 -0.92,-0.62 -1.34,-0.99 2.91,-2.32 6.82,-2.48 6.82,-2.48 -2.37,0.82 -4.19,2.2 -5.48,3.47l0 0z"/>
     </clipPath>
     <clipPath id="id15">
      <path d="M119.05 13.53c50.47,0 83.53,34.67 83.53,96.54 0,61.87 -21.56,101.3 -88.88,105 -22.88,1.26 -41.06,-3.32 -55.09,-12.35 -27.24,-17.52 -38.84,-51.81 -38.84,-92.65 0,-61.87 48.8,-96.54 99.28,-96.54z"/>
     </clipPath>
     <clipPath id="id16">
      <path d="M122.3 80.48c0,0 -0.57,-0.51 -0.57,-1.37 0,-0.53 0.22,-1.19 0.93,-1.94 0.51,0.28 0.99,0.6 1.46,0.94 -1.21,1.31 -1.82,2.37 -1.82,2.37l0 0z"/>
     </clipPath>
     <clipPath id="id17">
      <path d="M119.05 13.53c50.47,0 83.53,34.67 83.53,96.54 0,61.87 -21.56,101.3 -88.88,105 -22.88,1.26 -41.06,-3.32 -55.09,-12.35 -27.24,-17.52 -38.84,-51.81 -38.84,-92.65 0,-61.87 48.8,-96.54 99.28,-96.54z"/>
     </clipPath>
     <clipPath id="id18">
      <path d="M84.23 80.11c-0.27,-0.42 -0.53,-0.87 -0.73,-1.33 0.75,-0.18 1.49,-0.24 2.2,-0.24 2.43,0 4.41,0.82 4.41,0.82 -0.44,-0.05 -0.87,-0.07 -1.29,-0.07 -1.75,0 -3.33,0.38 -4.59,0.82l0 0z"/>
     </clipPath>
     <clipPath id="id19">
      <path d="M119.05 13.53c50.47,0 83.53,34.67 83.53,96.54 0,61.87 -21.56,101.3 -88.88,105 -22.88,1.26 -41.06,-3.32 -55.09,-12.35 -27.24,-17.52 -38.84,-51.81 -38.84,-92.65 0,-61.87 48.8,-96.54 99.28,-96.54z"/>
     </clipPath>
     <clipPath id="id20">
      <path d="M81.12 81.64c0,0 -0.1,-0.25 -0.1,-0.6 0,-0.58 0.27,-1.46 1.69,-2.01 0.31,0.42 0.58,0.87 0.85,1.34 -1.52,0.61 -2.44,1.27 -2.44,1.27l0 0z"/>
     </clipPath>
     <clipPath id="id21">
      <path d="M119.05 13.53c50.47,0 83.53,34.67 83.53,96.54 0,61.87 -21.56,101.3 -88.88,105 -22.88,1.26 -41.06,-3.32 -55.09,-12.35 -27.24,-17.52 -38.84,-51.81 -38.84,-92.65 0,-61.87 48.8,-96.54 99.28,-96.54z"/>
     </clipPath>
      <mask id="id22">
  <linearGradient id="id23" gradientUnits="userSpaceOnUse" x1="73.55" y1="161.2" x2="112.94" y2="133.27">
   <stop offset="0" style="stop-opacity:1; stop-color:white"/>
   <stop offset="0.2" style="stop-opacity:-16.0667; stop-color:white"/>
   <stop offset="1" style="stop-opacity:0; stop-color:white"/>
  </linearGradient>
       <rect style="fill:url(#id23)" x="59.86" y="122.18" width="27.3" height="39.53"/>
      </mask>
  <linearGradient id="id24" gradientUnits="userSpaceOnUse" x1="30.8" y1="220.88" x2="205.61" y2="220.88">
   <stop offset="0" style="stop-opacity:1; stop-color:#001D42"/>
   <stop offset="1" style="stop-opacity:1; stop-color:#ED1C24"/>
  </linearGradient>
  <radialGradient id="id25" gradientUnits="userSpaceOnUse" gradientTransform="matrix(1.26027 -2.11377 2.11376 1.26025 -179 153)" cx="81.74" cy="74.48" r="0.14" fx="81.74" fy="74.48">
   <stop offset="0" style="stop-opacity:1; stop-color:#DF7D7E"/>
   <stop offset="0" style="stop-opacity:1; stop-color:#DF7D7E"/>
   <stop offset="1" style="stop-opacity:1; stop-color:#F1D5BB"/>
  </radialGradient>
  <radialGradient id="id26" gradientUnits="userSpaceOnUse" gradientTransform="matrix(1.26009 -2.11377 2.11346 1.26025 -180 152)" xlink:href="#id25" cx="81.23" cy="75.24" r="0.14" fx="81.23" fy="75.24">
  </radialGradient>
  <radialGradient id="id27" gradientUnits="userSpaceOnUse" gradientTransform="matrix(-1.74194 -2.13327E-16 2.13326E-16 -1.74194 87 10)" cx="31.83" cy="3.48" r="2.13" fx="31.83" fy="3.48">
   <stop offset="0" style="stop-opacity:1; stop-color:#FEFEFE"/>
   <stop offset="0" style="stop-opacity:1; stop-color:#FEFEFE"/>
   <stop offset="0.74902" style="stop-opacity:1; stop-color:#FEFEFE"/>
   <stop offset="1" style="stop-opacity:1; stop-color:#FEFEFE"/>
  </radialGradient>
  <radialGradient id="id28" gradientUnits="userSpaceOnUse" gradientTransform="matrix(-1.74194 -2.13327E-16 2.13326E-16 -1.74194 89 7)" xlink:href="#id27" cx="32.35" cy="2.73" r="2.13" fx="32.35" fy="2.73">
  </radialGradient>
  <radialGradient id="id29" gradientUnits="userSpaceOnUse" gradientTransform="matrix(-0.820198 0.054647 -0.0546545 -0.820097 236 122)" xlink:href="#id25" cx="127.59" cy="70.6" r="3.79" fx="127.59" fy="70.6">
  </radialGradient>
  <radialGradient id="id30" gradientUnits="userSpaceOnUse" gradientTransform="matrix(-0.820096 0.054647 -0.0546477 -0.820097 237 120)" xlink:href="#id25" cx="128.11" cy="69.84" r="3.79" fx="128.11" fy="69.84">
  </radialGradient>
 </defs>
 <g id="Layer_x0020_1">
  <metadata id="CorelCorpID_0Corel-Layer"/>
  <path class="fil0" d="M92.47 62.75l0.23 0.55c0.02,0.11 0.02,0.58 0.02,0.72 -0.19,55.33 -0.01,110.94 -0.01,166.28 0.57,0 0.74,-0.02 1.1,0.24 1.2,0.11 3.15,0.3 4.37,0.37 0.78,0.04 1.63,-0.05 2.4,-0.01l4.8 0.18c0.95,0.03 1.14,0.2 2.21,0.2 1.85,0 3.11,0.19 4.8,0.18l14.39 0.18c1.86,0 3.03,0.19 4.79,0.19 1.8,-0.01 2.9,-0.19 4.61,-0.19l12 -0.18c0.95,-0.02 1.27,-0.17 2.39,-0.18 4.18,-0.04 9.21,-1.03 13.25,-1.51 1.26,-0.15 2.84,-0.57 4.2,-0.71 0.35,-0.31 -0.44,-0.26 0.41,-0.26l0 -167.17c-1.22,0 -2.72,0.24 -3.86,0.35 -4,0.39 -25.62,2.72 -27.28,3.52 -0.7,-1.04 -2.96,-3.59 -4.06,-4.42 -0.84,-0.64 -2.11,-1.91 -3.46,-2.81 -0.49,-0.32 -0.88,-0.58 -1.33,-0.88 -1.58,-1.05 -3.66,-2.13 -5.65,-2.84 -2.05,-0.72 -4.53,-1.52 -6.74,-1.74 -7.69,-0.78 -14.36,1.07 -19.48,5.54 -1.47,1.28 -3.03,2.73 -4.1,4.4z"/>
  <path class="fil1" d="M162.6 62.18l2.66 166.4c-0.86,0 3.11,0.17 2.76,0.48l8.38 -1.47c0.18,0.8 0.62,1.75 0.98,2.52l4.74 9.64c0.21,0.38 0.4,0.76 0.66,1.19 0.99,1.6 2.42,4.46 4.31,4.9 0.71,-0.61 0.88,-0.75 0.93,-2.02 0.03,-0.8 0.05,-2.17 -0.01,-2.95 -0.26,-3.2 -2.76,-14.54 -2.76,-15.13 0.91,-0.07 2.63,-0.66 3.48,-0.94 1.19,-0.4 2.24,-0.78 3.35,-1.27 1,-0.44 2.08,-0.83 3.03,-1.4 1.07,-0.64 1.89,-1.02 2.9,-1.7 2.35,-1.57 3,-2.22 5.08,-3.96 1.47,-1.24 3.13,-3.19 4.32,-4.71 2.33,-2.96 6.38,-10.62 8.1,-14.41l11.4 -29.53c2.19,-7.13 4.43,-13.93 5.98,-21.32l3.14 -15.12 1.71 -11.75c0.54,-3.84 1.16,-12.56 1.19,-16.66l0 -0.42 -0.19 -4.4c-0.05,-1.62 -0.06,-2.84 -0.18,-4.26 -0.22,-2.58 -0.71,-5.21 -1.4,-7.63 -0.96,-3.4 -2.32,-6.46 -4.28,-9.37 -1.81,-2.68 -3.2,-4.01 -5.43,-6 -0.51,-0.45 -0.62,-0.58 -1.2,-1.02l-2.74 -1.87c-1.98,-1.18 -3.84,-2.15 -6.01,-3.03 -10.27,-4.11 -20.51,-4.45 -31.88,-4.45 -3.59,0 -11.11,0.48 -14.97,0.89 -7.91,0.76 -7.47,0.76 -8.05,0.77z"/>
  <path class="fil2" d="M62.4 235.33c0.42,-1.5 0.15,-33.73 0.15,-38.17l0 -114.51 -5.66 1.87c-4.73,1.57 -11.89,4.13 -16.5,6.18 -5.15,2.29 -5.81,2.74 -10.21,4.92 -5.7,2.82 -13.22,8.63 -16.42,14.01 -0.5,0.83 -0.86,1.49 -1.29,2.4 -0.87,1.86 -1.58,4.68 -1.72,7.17l0 1.73c0.02,0.25 0.04,0.5 0.08,0.74 1.6,10.9 2.81,22.47 4.38,33.6 0.92,6.52 2.4,16.5 3.61,22.76 1.72,8.89 3.43,19.24 6.74,27.56 2.48,6.26 7.13,13.7 13.01,17.24 4.34,2.62 9.7,3.46 14.69,4.31 0.97,0.16 2.49,0.42 3.42,0.45l-1.9 9.34c-0.24,1.49 -0.48,3.5 -0.65,5.07 -0.07,0.6 -0.08,2.1 -0.01,2.71 0.03,0.27 0.17,0.92 0.29,1.19 0.18,0.45 0.33,0.6 0.61,0.86 2.3,-0.19 5.13,-6.21 6.07,-8.13l1.14 -2.37c0.32,-0.66 0.32,-0.3 0.17,-0.93z"/>
  <path class="fil3" d="M62.55 82.65l0 114.51c0,4.44 0.27,36.67 -0.15,38.17 0.77,-0.48 0.25,-0.13 0.98,-1.6l2.16 -5.04c3.4,0 10.9,0.97 15.68,1.1l12.59 0.75c-0.36,-0.26 -0.53,-0.24 -1.1,-0.24 0,-55.34 -0.18,-110.95 0.01,-166.28 0,-0.14 0,-0.61 -0.02,-0.72l-0.23 -0.55c-1.58,2.25 -3.39,5.47 -4.17,8.17 -0.28,0.96 -0.47,1.48 -0.71,2.43 -0.76,3.05 -0.12,2.45 -1.8,2.81 -3.79,0.83 -9.56,2.63 -13.53,3.62l-7.26 2.16c-0.71,0.22 -1.72,0.55 -2.45,0.71z"/>
  <path class="fil4" d="M30.12 118.63c0,9.65 3.55,34 5.16,43.66 1.55,9.25 3.67,19.86 6.57,28.57 0.23,0.67 0.45,1.41 0.71,2.11 2.35,6.31 5.37,11.37 10.69,15.71 0.98,0.8 2.4,1.78 3.54,2.38 2.89,1.5 5.04,2.24 8.74,2.97 1.85,0.37 10.73,1.36 13,1.53l8.32 0.57c0.67,0 0.83,0.07 1.29,0.12 0.46,0.06 0.93,0.01 1.4,0.02 0.67,0.02 0.64,0.11 1.26,0.15 0.5,0.02 1.05,-0.03 1.55,0 0.62,0.03 0.59,0.12 1.27,0.14 0.51,0.02 1.05,-0.03 1.56,0 1.84,0.1 3.58,0.28 5.5,0.28 1.75,0 1.82,0.12 2.82,0.15 2.06,0.06 2.01,-0.06 4.24,0.12 0.47,0.04 1.07,0.01 1.55,0.01 1.26,0 5.33,0.09 9.22,0.14l7.26 0c0.37,-0.01 0.65,-0.03 0.81,-0.06 1.85,-0.28 3.92,0.12 5.83,-0.1 0.86,-0.1 1.64,-0.12 2.7,-0.12l13.68 -0.99c3.51,-0.3 9.21,-1.28 12.6,-2.22 2.21,-0.62 4.32,-1.36 6.21,-2.55 3.14,-1.97 6.28,-6.32 8.29,-9.34 5.87,-8.78 11.17,-22.58 14.48,-32.51 6.09,-18.25 11.49,-41.33 11.49,-61.04 0,-13.2 -5.5,-22.98 -14.77,-28.13 -0.29,-0.16 -0.5,-0.25 -0.76,-0.38 -5.21,-2.71 -8.52,-3.49 -14.65,-4.54 -1.31,-0.22 -2.62,-0.25 -4.07,-0.44 -3.05,-0.4 -13.92,-0.33 -17.44,0.14l-2.5 0.19c-2.44,0.05 -12.07,1.03 -14.72,1.36 -13.99,1.78 -23.14,3.09 -37.03,5.87 -12.23,2.44 -26.66,5.81 -37.92,10.34 -5.13,2.07 -6.33,2.73 -10.99,5.1 -1.84,0.93 -4.83,2.89 -6.54,4.18l-2.2 1.76c-0.27,0.24 -0.43,0.45 -0.7,0.7 -2.09,1.93 -3.31,3.25 -4.86,5.86 -1.29,2.17 -2.59,5.64 -2.59,8.29z"/>
  <g style="clip-path:url(#id0)">
   <g id="_2075667026720">
    <g>
    </g>
   </g>
   <g style="clip-path:url(#id1)">
    <g id="_2075667028672">
     <g>
      <path id="1" class="fil5" d="M157.19 44.46c0,0 8.66,14.7 8.14,39.64 -0.53,24.95 -14.71,56.19 -11.03,61.18l-91.11 0c0,0 7.88,-19.95 4.2,-33.08 -3.67,-13.13 -10.95,-43.86 -3.37,-62.5l93.17 -5.24z"/>
      <path class="fil6" d="M89.85 232.73c0,0 2.47,24.81 6.17,38.84 3.71,14.04 4.92,19.74 8.54,19.42 4.26,-0.37 3.81,-8.64 3.25,-21.66 -0.56,-13.03 -1.9,-35.93 -1.9,-35.93l-16.06 -0.67z"/>
      <path class="fil6" d="M133.41 228.13c0,0 4.49,21.1 7.19,38.84 2.17,14.35 3.44,21.39 -0.04,22.41 -4.11,1.21 -6.71,-6.65 -10.94,-18.98 -4.24,-12.33 -11.35,-34.13 -11.35,-34.13l15.14 -8.14z"/>
      <path class="fil5" d="M98.77 281.84c1.88,6.59 3.23,9.38 5.79,9.15 2.7,-0.23 3.51,-3.65 3.6,-9.43 -1.06,0.77 -2.57,1.4 -4.73,1.42 -1.81,0.03 -3.37,-0.46 -4.66,-1.14z"/>
      <path class="fil5" d="M133.27 280.68c2.39,6.14 4.5,9.53 7.29,8.7 2.21,-0.65 2.5,-3.73 1.87,-9.57 -0.96,0.77 -2.19,1.41 -3.75,1.71 -2.19,0.41 -4.01,-0.08 -5.41,-0.84z"/>
      <path class="fil7" d="M80.01 237.41c0,0 25.15,6.28 63.46,-2.85l-10.77 -47.15 -25.34 -20.75 -30.84 40.13c0,0 0.91,10.4 3.49,30.62z"/>
      <path class="fil8" d="M106.07 136.97l-22.5 -22.68c0,0 -4.31,15.27 -6.11,31.06l-0.94 3.84 4.69 1.32c0,0 -9.28,60.55 -10.03,77.62 0,0 16.02,1.76 34.95,1.51 1.01,-0.01 1.3,-45.33 1.56,-43.22 0.41,3.49 3.16,43.13 4.01,43.09 13.59,-0.46 27.98,-2.09 38.66,-6.17 0,0 -5.05,-51.41 -6.89,-67.96 -2.08,-18.84 -5.03,-37.16 -8.65,-39.29l-13.98 10.25 0 1.71 -14.77 8.92z"/>
      <path class="fil8" d="M83.57 114.29c0,0 -4.31,15.27 -6.11,31.06l-0.94 3.84 4.69 1.32c0,0 -9.28,60.55 -10.03,77.62 0,0 17.12,1.87 36.88,1.48 -0.26,-19.42 -0.16,-72.45 -1.99,-92.64l-22.5 -22.68z"/>
      <path class="fil9" d="M83.6 114.56l-4.41 2.37c0,0 -13.05,8.45 -18,23.69 -4.95,15.25 -1.99,30.44 17.66,27 0,0 9.83,-0.85 15.53,-4.22 0,0 6.4,-9.05 -1.33,-23.7 0,0 -11.69,2.61 -15.24,4.57 0,0 2.66,-18.46 4.69,-24.42l1.1 -5.29z"/>
      <path class="fil7" d="M105.58 138.01l0.11 -0.07c2.71,-2.56 5.43,-5.1 8.15,-7.65 3.3,-3.09 6.64,-6.15 9.79,-9.39 2.02,-2.08 4.44,-4.14 6.28,-6.5 -4.8,-3.64 -13.06,-8.82 -23.24,-8.82 -9.42,0 -16.86,5.13 -20.01,7.71 4.1,5.88 8.48,11.53 12.82,17.25 1.95,2.56 4.06,4.98 6.1,7.47z"/>
      <path class="fil9" d="M130 197.6l0.38 4.97c0,0 13.14,0.16 17.73,-1.99l-0.41 -4.13c0,0 -11.13,2.09 -17.7,1.15z"/>
      <path class="fil9" d="M74.43 197.97c0,0 6.55,1.94 13.81,0.74l0 4.87c0,0 -8.34,2.02 -14.53,0l0.72 -5.61z"/>
      <path class="fil9" d="M105.15 196.36c0,0.89 -0.72,1.61 -1.61,1.61 -0.89,0 -1.61,-0.72 -1.61,-1.61 0,-0.89 0.72,-1.61 1.61,-1.61 0.89,0 1.61,0.72 1.61,1.61z"/>
      <path class="fil9" d="M105.15 177.74c0,0.9 -0.72,1.62 -1.61,1.62 -0.89,0 -1.61,-0.72 -1.61,-1.62 0,-0.88 0.72,-1.6 1.61,-1.6 0.89,0 1.61,0.72 1.61,1.6z"/>
      <path class="fil9" d="M105.15 161.74c0,0.89 -0.72,1.61 -1.61,1.61 -0.89,0 -1.61,-0.72 -1.61,-1.61 0,-0.89 0.72,-1.61 1.61,-1.61 0.89,0 1.61,0.72 1.61,1.61z"/>
      <path class="fil10" d="M105.15 147.8c0,0.89 -0.72,1.62 -1.61,1.62 -0.89,0 -1.61,-0.73 -1.61,-1.62 0,-0.89 0.72,-1.61 1.61,-1.61 0.89,0 1.61,0.72 1.61,1.61z"/>
      <path class="fil8" d="M83.29 115.32l-4.4 2.37c0,0 -13.06,8.45 -18.01,23.7 -4.95,15.24 -1.99,30.44 17.67,27 0,0 9.82,-0.85 15.53,-4.23 0,0 6.7,-9.81 -1.03,-24.46 0,0 -12,3.38 -15.55,5.34 0,0 2.66,-18.46 4.7,-24.42l1.09 -5.3z"/>
      <path class="fil9" d="M93.05 139.7c0,0 -3.63,1.83 -3.43,11.79 0.19,9.95 4.46,12.67 4.46,12.67 0,0 6.7,-9.81 -1.03,-24.46z"/>
      <path class="fil9" d="M92.13 108.45c0,0 11.58,25.26 13.94,28.52 0,0 13.53,-19.99 16.75,-28.14 0,0 12.05,6.14 13.36,7.48l0 1.38 -8.8 6.11 4.78 3.59c0,0 -24.83,14.8 -26.25,15.71 0,0 -11.76,-4.44 -22.31,-11.98 0,0 3.82,-6.82 3.74,-7.11 -0.07,-0.29 -6.13,-3.44 -8.45,-6.32l0 -1.45 13.24 -7.79z"/>
      <path class="fil8" d="M136.18 117.69c0,0 2.92,7 4.34,16.09 1.43,9.09 2.49,17.54 2.49,17.54 0,0 8.47,10.53 16.11,9.99 7.63,-0.54 17.74,-15.62 20.66,-21.61 0,0 -2.56,-8.71 -7.83,-18.49 -4.98,-9.23 -8.12,-4.25 -8.12,-4.25l-8.34 15.86c0,0 -10.5,-9.59 -19.31,-15.13z"/>
      <path class="fil9" d="M164.08 116.63c-0.74,1.25 -0.2,7.4 5.16,15.3 5.36,7.9 9.85,8.75 10.54,7.77 0,0 -2.56,-8.71 -7.83,-18.49 -4.14,-7.68 -7.02,-5.52 -7.87,-4.58z"/>
      <path class="fil11" d="M165.42 124.89c0,0 5.15,-6.82 4.96,-7.12 -0.18,-0.3 -1.27,-1.05 -0.97,-4.04 0.3,-2.99 0.18,-5.2 -0.71,-6.92 -0.9,-1.72 -1.2,-2.85 0.56,-2.62 1.75,0.22 4.71,2.58 3.78,7.33 0,0 3.66,-0.11 5.65,-1.68 1.98,-1.57 7.59,-8.12 9.32,-7.3 1.72,0.82 -6.7,9.36 -6.7,9.36 0,0 2.99,-2.25 6.58,-5.28 3.6,-3.03 4.83,-2.96 5.28,-2.58 0.45,0.37 -1.88,3.81 -5.62,7 -3.73,3.18 -3.54,3.07 -3.54,3.07 0,0 5.98,-4.42 8,-6.25 2.02,-1.84 3.48,-2.18 4.16,-1.61 0.08,0.07 0.12,0.17 0.12,0.31 0,0.96 -1.92,3.42 -4.28,5.22 -2.7,2.06 -6.25,4.91 -6.25,4.91 0,0 5.54,-3.56 7.48,-4.98 1.95,-1.42 3.86,-1.2 2.1,1.09 -1.76,2.28 -6.1,5.91 -9.36,8.23 -3.25,2.32 -6.35,4.86 -9.43,3.7 0,0 -4.89,6.59 -6.17,8.8 0,0 -3.22,-4.07 -4.96,-8.64z"/>
      <path class="fil12" d="M178.26 124.98c-0.69,-0.14 -1.37,-0.12 -2.07,-0.33 -0.6,-0.18 -1.32,-0.49 -1.83,-0.86l-0.07 0.08c0.92,1.05 2.62,1.61 3.98,1.28 0.1,-0.02 0.1,-0.15 -0.01,-0.17z"/>
      <path class="fil12" d="M176.5 112.86c-0.74,-0.6 -2,-0.76 -2.92,-0.89 -0.7,-0.1 -0.42,-0.7 -0.36,-1.28 0.07,-0.55 -0.01,-1.12 -0.16,-1.65l-0.05 0c-0.08,0.91 -0.12,1.8 -0.27,2.7 -0.04,0.22 -0.03,0.51 0.24,0.57 1.02,0.21 1.99,0.31 2.97,0.72 2,0.84 1.45,2.96 0.77,4.46 -0.04,0.09 0.09,0.16 0.15,0.08 1.16,-1.64 1.27,-3.39 -0.37,-4.71z"/>
      <path class="fil6" d="M101.33 102.29c0,0 0,4.43 0,6.21 0,1.79 0.93,4.66 5.66,4.66 4.74,0 5.36,-2.87 5.36,-4.35 0,-1.47 0,-5.82 0,-5.82l-11.02 -0.7z"/>
      <path class="fil5" d="M103.85 18.48c-25.66,2.51 -35.7,19.56 -39.83,31.22 -4.13,11.67 -3.41,29.97 5.74,39.84 3.79,4.09 8.69,6.53 13.13,8 -1.04,-1.37 -1.89,-2.79 -2.56,-4.27 -1.32,-1.86 -2.28,-3.99 -2.76,-6.34 -1.73,-8.57 2.29,-16.58 6.2,-23.95 1.03,-1.96 1.86,-4.18 3.07,-6.02 0.57,-0.88 1.34,-1.69 2.41,-1.9 4.38,-0.85 9.18,-0.36 13.64,-0.68 4.48,-0.32 9.05,-0.67 13.48,-1.47 3.95,-0.73 8.1,-1.74 11.28,-4.33 0.14,-0.11 0.28,-0.18 0.42,-0.23 0.47,-0.3 1.22,-0.22 1.62,0.25l3.55 -6.42c0,0 1.3,-8.99 1.66,-9.88 0.37,-0.9 -5.39,-16.33 -31.05,-13.82z"/>
      <path class="fil5" d="M134.77 31.5c0,0 -1.63,9.52 -5.77,16.06 -0.12,0.18 -0.24,0.39 -0.37,0.62 0.61,-0.04 1.28,0.33 1.34,1.11 0.15,1.96 1.37,3.64 2.09,5.42 0.76,1.86 1.45,3.74 2.15,5.62 1.3,3.51 2.65,7.06 3.29,10.77 1.02,6 0.8,12.32 -2.69,17.52 -3.08,4.59 -7.54,8.93 -12.3,11.93 2.74,0.36 6.15,0.21 10.42,-0.82 18.3,-4.44 27.05,-23.42 27.59,-36.34 0.54,-12.92 -4.78,-34.3 -25.75,-31.89z"/>
      <path class="fil6" d="M139.45 72.38c0,0 1.58,-3.45 5.17,-4.01 3.61,-0.55 8.07,5.99 3.96,11.06 -4.11,5.07 -8.88,2.74 -9.13,-0.26 -0.25,-2.99 0,-6.79 0,-6.79z"/>
      <path class="fil6" d="M78.04 75.47c0,0 -1.73,-4.92 -4.82,-4.92 -3.1,0 -6.29,5.02 -4.52,9.64 1.78,4.61 6.55,3.65 7.82,0.61 1.26,-3.05 1.52,-5.33 1.52,-5.33z"/>
      <path class="fil13" d="M145.53 73.15c-2.29,0.23 -2.18,3.31 -2.02,4.97 0.01,0.11 0.18,0.11 0.2,0 0.08,-0.92 0.17,-1.84 0.46,-2.71l0.06 0.01c0.13,0.04 0.25,0.1 0.37,0.17 0.4,0.2 0.48,0.62 0.73,0.94 0.1,0.14 0.31,0.01 0.25,-0.15 -0.12,-0.29 -0.15,-0.57 -0.32,-0.86 -0.11,-0.17 -0.26,-0.32 -0.43,-0.43 -0.13,-0.09 -0.29,-0.18 -0.44,-0.24l0.05 -0.13c0.5,-1.04 1.93,-1.2 2.15,0.07 0.08,0.42 -0.04,0.86 0,1.28 0.03,0.21 0.32,0.28 0.44,0.12 0.84,-1.18 0.07,-3.19 -1.5,-3.04z"/>
      <path class="fil13" d="M72.93 75.45c-1,-1.24 -2.22,-0.38 -2.75,0.72 -0.05,0.11 0.11,0.19 0.18,0.1 0.37,-0.48 0.75,-1.11 1.52,-0.9 0.73,0.19 1.04,1.16 1.17,1.79 0.03,0.14 0.05,0.28 0.07,0.42 -0.23,-0.09 -0.48,-0.07 -0.74,0.04 -0.42,0.17 -0.68,0.61 -0.78,1.02 -0.03,0.14 0.16,0.23 0.25,0.15 0.27,-0.25 0.59,-0.76 1.02,-0.65 0.07,0.02 0.16,0.17 0.22,0.21l0.02 0.01c-0.05,0.71 -0.2,1.44 -0.24,2.13 -0.01,0.23 0.28,0.29 0.38,0.1 0.78,-1.5 0.75,-3.8 -0.32,-5.14z"/>
      <path class="fil11" d="M86.26 48.3c0,0 -6,15.76 -7.62,21.23 -1.61,5.48 -8.25,19.12 0.72,26.11 8.97,7 20.01,10.41 33.2,9.96 13.19,-0.44 29.52,-14.62 28.8,-29.25 -0.72,-14.62 -11.12,-22.88 -9.33,-34.81 0,0 -0.22,3.88 -15.16,7.35 -8.88,2.07 -25.67,2.49 -30.61,-0.59z"/>
      <path class="fil14" d="M93.38 70.38c0.21,2.48 -0.53,4.56 -1.65,4.66 -1.12,0.09 -2.19,-1.84 -2.4,-4.32 -0.21,-2.47 0.53,-4.56 1.64,-4.65 1.12,-0.1 2.2,1.83 2.41,4.31z"/>
      <path class="fil15" d="M91.16 69.23c0.07,0.8 -0.17,1.47 -0.53,1.5 -0.36,0.03 -0.7,-0.59 -0.77,-1.39 -0.07,-0.79 0.17,-1.46 0.53,-1.49 0.36,-0.03 0.7,0.59 0.77,1.38z"/>
      <path class="fil14" d="M122.82 68.27c0.21,2.47 -0.52,4.56 -1.64,4.65 -1.12,0.1 -2.2,-1.84 -2.41,-4.31 -0.21,-2.48 0.53,-4.56 1.65,-4.66 1.12,-0.09 2.19,1.84 2.4,4.32z"/>
      <path class="fil15" d="M120.61 67.12c0.06,0.79 -0.17,1.46 -0.53,1.49 -0.36,0.04 -0.71,-0.59 -0.77,-1.38 -0.07,-0.8 0.17,-1.47 0.53,-1.5 0.35,-0.03 0.7,0.59 0.77,1.39z"/>
      <path class="fil16" d="M124.63 59.96c0,0 -6.39,-6.49 -12.37,2.28 0,0 0.98,-6.45 6.38,-6.74 5.69,-0.3 5.99,4.46 5.99,4.46z"/>
      <path class="fil16" d="M96.9 64.37c0,0 -5.55,-8.87 -11.09,-1.01 0,0 0.59,-5.32 5.72,-4.97 5.27,0.36 5.37,5.98 5.37,5.98z"/>
      <path class="fil13" d="M105.23 72.8c0,0 -3.17,6.65 -2.51,7.64 1.09,1.63 7.17,-0.16 7.17,-0.16 0,0 -5.46,0.68 -6.15,-0.66 -0.71,-1.34 1.49,-6.82 1.49,-6.82z"/>
      <path class="fil17" d="M125.38 80.72c-1.76,0 -3.1,-0.52 -3.46,-1.53 -0.63,-1.72 1.81,-4.19 5.45,-5.53 1.52,-0.55 3.01,-0.82 4.28,-0.82 1.76,0 3.09,0.52 3.46,1.53 0.63,1.72 -1.82,4.2 -5.46,5.53 -1.52,0.55 -3,0.82 -4.27,0.82zm-3.13 -2.36c0,0.85 0.56,1.37 0.56,1.37 0,0 0.61,-1.07 1.83,-2.38l0 0c-0.48,-0.33 -0.96,-0.66 -1.46,-0.94 -0.71,0.75 -0.93,1.42 -0.93,1.95zm1.59 -2.55c0.43,0.36 0.87,0.69 1.35,0.99 1.29,-1.28 3.11,-2.66 5.48,-3.47l0 0c0,0 -3.91,0.16 -6.83,2.48l0 0z"/>
     </g>
     <g style="clip-path:url(#id2)">
      <image x="123.47" y="72.84" width="7.57" height="4.44" xlink:href="newsbot_Images\newsbot_ImgID1.png"/>
     </g>
     <g style="clip-path:url(#id3)">
     </g>
     <g style="clip-path:url(#id4)">
      <image x="121.9" y="75.92" width="3.14" height="4.22" xlink:href="newsbot_Images\newsbot_ImgID2.png"/>
     </g>
     <g style="clip-path:url(#id5)">
      <path class="fil18" d="M88.4 83.71c-0.37,0 -0.76,-0.01 -1.15,-0.05 -3.54,-0.3 -6.28,-1.9 -6.14,-3.57 0.13,-1.49 2.5,-2.53 5.51,-2.53 0.37,0 0.76,0.02 1.15,0.05 3.54,0.3 6.28,1.9 6.14,3.58 -0.13,1.48 -2.5,2.52 -5.51,2.52zm-6.86 -3.43c0,0.36 0.1,0.6 0.1,0.6 0,0 0.92,-0.65 2.43,-1.26 -0.26,-0.47 -0.53,-0.92 -0.84,-1.35 -1.42,0.56 -1.69,1.43 -1.69,2.01zm2.53 -0.66l0 0zm-0.05 -1.59c0.2,0.46 0.45,0.9 0.73,1.33 1.26,-0.45 2.83,-0.82 4.59,-0.82 0.42,0 0.85,0.02 1.29,0.07 0,0 -1.98,-0.83 -4.42,-0.83 -0.7,0 -1.45,0.07 -2.19,0.25l0 0zm6.61 0.58l0 0z"/>
     </g>
     <g style="clip-path:url(#id6)">
      <image x="83.56" y="77.21" width="7.57" height="2.66" xlink:href="newsbot_Images\newsbot_ImgID3.png"/>
     </g>
     <g style="clip-path:url(#id7)">
     </g>
     <g style="clip-path:url(#id8)">
      <image x="81.19" y="77.75" width="3.2" height="3.41" xlink:href="newsbot_Images\newsbot_ImgID4.png"/>
     </g>
     <g style="clip-path:url(#id9)">
      <path class="fil19" d="M110.35 117.69c0,3.44 -2.79,6.23 -6.23,6.23 -3.44,0 -6.22,-2.79 -6.22,-6.23 0,-3.44 2.78,-6.22 6.22,-6.22 3.44,0 6.23,2.78 6.23,6.22z"/>
      <path class="fil20" d="M103.29 113.91c0.05,-0.03 0.11,-0.05 0.16,-0.08 0.52,0.75 0.9,1.57 1.19,2.45 -0.76,0.43 -1.45,0.99 -2.04,1.65 -0.28,-0.99 -0.74,-1.95 -1.33,-2.78 0.63,-0.5 1.34,-0.91 2.02,-1.24zm2.68 -0.8c0.61,0.63 1.09,1.37 1.47,2.16 -0.9,0.15 -1.73,0.44 -2.5,0.84 -0.17,-0.46 -0.36,-0.92 -0.58,-1.37 -0.16,-0.33 -0.37,-0.69 -0.61,-1.04 0.73,-0.29 1.46,-0.44 2.22,-0.59zm2.24 4.05c-0.97,0.2 -1.87,0.69 -2.68,1.3 -0.08,-0.7 -0.26,-1.39 -0.48,-2.06 0.77,-0.44 1.6,-0.79 2.45,-0.98 0.27,0.56 0.5,1.15 0.71,1.74zm-8.87 -0.54c-0.43,0.65 -0.77,1.35 -1.02,2.08l0.5 0c0.2,-0.56 0.45,-1.1 0.77,-1.62 0.23,0.49 0.37,1.05 0.47,1.62l0.35 0c-0.09,-0.42 -0.22,-0.83 -0.4,-1.24 -0.07,-0.17 -0.17,-0.38 -0.29,-0.6 0.15,-0.22 0.3,-0.44 0.47,-0.65 0.25,-0.33 0.56,-0.63 0.9,-0.92 0.56,0.92 0.95,1.92 1.23,2.96 -0.12,0.14 -0.22,0.3 -0.33,0.45l0.8 0c-0.02,-0.11 -0.04,-0.22 -0.06,-0.33 0.25,-0.32 0.53,-0.63 0.85,-0.91 0.36,-0.32 0.75,-0.61 1.15,-0.87 0.21,0.68 0.37,1.39 0.51,2.1l-0.01 0.01 0.64 0c0.74,-0.53 1.56,-0.94 2.47,-1.16 0.09,0.27 0.17,0.54 0.27,0.81 0.03,0.12 0.21,0.06 0.2,-0.06 -0.03,-0.27 -0.08,-0.54 -0.14,-0.81 0.4,-0.08 0.81,-0.12 1.24,-0.13 0.14,0 0.17,-0.19 0.02,-0.22 -0.47,-0.08 -0.91,-0.08 -1.35,-0.03 -0.16,-0.59 -0.4,-1.18 -0.68,-1.75 0.37,-0.06 0.73,-0.1 1.09,-0.1 0.09,0 0.1,-0.12 0.02,-0.12 -0.4,0 -0.79,0.03 -1.18,0.08 -0.43,-0.81 -1,-1.55 -1.66,-2.14 0.17,-0.03 0.35,-0.07 0.53,-0.11 0.11,-0.03 0.09,-0.19 -0.03,-0.18 -0.26,0.03 -0.5,0.06 -0.75,0.09 -0.15,-0.12 -0.3,-0.23 -0.46,-0.34l-0.06 0.07c0.12,0.1 0.24,0.19 0.34,0.29 -0.75,0.1 -1.47,0.22 -2.22,0.49 -0.49,-0.63 -1.11,-1.2 -1.79,-1.43 -0.06,-0.02 -0.1,0.05 -0.05,0.09 0.61,0.43 1.12,0.93 1.54,1.46l-0.09 0.04c-0.72,0.31 -1.47,0.75 -2.12,1.26 -0.29,-0.37 -0.61,-0.71 -0.95,-1.01l-0.06 0.06c0.32,0.34 0.6,0.7 0.86,1.08 -0.28,0.23 -0.55,0.47 -0.78,0.73 -0.22,0.25 -0.42,0.51 -0.61,0.78 -0.32,-0.48 -0.72,-0.91 -1.18,-0.98 -0.09,-0.01 -0.1,0.1 -0.03,0.14 0.46,0.25 0.81,0.6 1.08,1.02z"/>
      <polygon class="fil20" points="100.27,128.05 101,158.14 106.99,158.14 107.72,128.05 "/>
      <polygon class="fil21" points="96.8,122.95 111.44,122.95 111.44,118.28 96.8,118.28 "/>
      <polygon class="fil5" points="91.43,131.72 116.81,131.72 116.81,121.43 91.43,121.43 "/>
      <polygon class="fil22" points="92.13,131.12 116.11,131.12 116.11,122.03 92.13,122.03 "/>
      <path class="fil5" d="M115.92 130.93l-23.6 0 0 -8.65 23.6 0 0 8.65zm-23.85 -8.92l0 9.13 24.12 0 0 -9.13 -24.12 0z"/>
      <polygon class="fil23" points="94.42,129.76 94.37,124.05 95.42,124.04 98.06,127.92 98.03,124.02 98.59,124.01 98.63,129.73 97.37,129.74 94.95,126.14 94.98,129.76 "/>
      <polygon class="fil23" points="99.58,129.72 99.53,124.01 103.24,123.97 103.25,124.55 101.2,124.57 101.21,126.3 102.94,126.28 102.94,126.85 101.22,126.87 101.24,129.13 103.63,129.11 103.64,129.69 "/>
      <polygon class="fil23" points="105.09,129.67 103.57,123.97 105.24,123.96 106.13,127.42 106.96,123.94 107.95,123.93 108.83,127.41 109.71,123.92 110.37,123.91 108.85,129.64 107.78,129.65 106.95,126.54 106.18,129.66 "/>
      <path class="fil23" d="M112.67 129.71c-1.39,0 -2.09,-0.54 -2.09,-1.62 0,-0.09 0,-0.2 0.01,-0.33l0.8 -0.19c-0.06,0.25 -0.08,0.46 -0.08,0.64 0.01,0.7 0.41,1.05 1.2,1.05 0.01,0 0.02,0 0.02,0 0.66,-0.01 0.97,-0.27 0.97,-0.78 0,-0.37 -0.39,-0.71 -1.17,-0.99 -1.13,-0.4 -1.7,-1.06 -1.71,-1.96 -0.01,-0.52 0.18,-0.93 0.56,-1.25 0.36,-0.32 0.86,-0.48 1.47,-0.48 0.01,0 0.02,0 0.03,0 1.24,0 1.86,0.56 1.87,1.68l-0.77 0.14c0.03,-0.15 0.05,-0.28 0.05,-0.38 -0.01,-0.66 -0.41,-0.99 -1.2,-0.99 -0.01,0 -0.01,0 -0.02,0 -0.63,0.01 -0.95,0.24 -0.95,0.7 0,0.34 0.36,0.63 1.08,0.88 1.37,0.45 2.07,1.14 2.08,2.07 0,0.54 -0.19,0.98 -0.58,1.31 -0.37,0.33 -0.89,0.5 -1.52,0.5 -0.02,0 -0.04,0 -0.05,0z"/>
      <polygon class="fil5" points="98.29,123.6 98.34,129.32 97.07,129.33 94.65,125.73 94.68,129.35 94.13,129.36 94.08,123.64 95.13,123.63 97.77,127.51 97.73,123.61 "/>
      <polygon class="fil5" points="102.95,123.56 102.95,124.14 100.91,124.15 100.92,125.88 102.64,125.87 102.64,126.44 100.92,126.46 100.94,128.72 103.34,128.7 103.34,129.28 99.29,129.31 99.24,123.6 "/>
      <polygon class="fil5" points="110.07,123.5 108.56,129.23 107.48,129.24 106.66,126.13 105.87,129.25 104.8,129.26 103.28,123.56 104.94,123.55 105.84,127.01 106.67,123.53 107.65,123.52 108.53,127 109.42,123.51 "/>
      <path class="fil5" d="M114.25 125.07l-0.77 0.14c0.03,-0.15 0.05,-0.28 0.05,-0.38 0,-0.67 -0.41,-0.99 -1.22,-0.99 -0.63,0.01 -0.95,0.24 -0.95,0.7 0.01,0.34 0.37,0.63 1.08,0.87 1.38,0.46 2.07,1.15 2.08,2.08 0,0.54 -0.18,0.98 -0.57,1.31 -0.38,0.33 -0.89,0.5 -1.54,0.5 -1.41,0.01 -2.12,-0.53 -2.13,-1.62 0,-0.09 0.01,-0.2 0.02,-0.34l0.8 -0.18c-0.06,0.24 -0.09,0.46 -0.09,0.63 0,0.71 0.41,1.07 1.23,1.06 0.65,-0.01 0.97,-0.27 0.97,-0.78 -0.01,-0.37 -0.4,-0.71 -1.18,-0.99 -1.13,-0.4 -1.7,-1.06 -1.71,-1.96 0,-0.52 0.19,-0.93 0.56,-1.25 0.37,-0.32 0.86,-0.48 1.47,-0.48 1.26,-0.01 1.89,0.55 1.9,1.68z"/>
      <path class="fil11" d="M89.83 154.63c0,0 4.44,-2.21 5.07,-1.72 0.64,0.49 1.09,2.51 3,2.73 1.9,0.23 3.36,0.16 4.26,-1.01 0.9,-1.16 1.26,-2.21 2.99,-2.32 1.73,-0.11 3.19,0.86 4.09,-0.15 0.89,-1.01 0.71,-2.8 0,-3.67 -0.71,-0.86 0.84,-1.27 0.83,-3.25 -0.01,-1.99 -0.03,-4.53 0,-6.03 0.03,-1.49 -0.54,-2.43 -2.82,-3.33 -2.28,-0.9 -3.43,-1.08 -5.66,-0.59 -2.23,0.48 -3.44,0.73 -4.22,2.17 -0.77,1.43 -2.33,4.65 -3,5.02 -0.66,0.36 -3.53,0.3 -3.53,0.3 0,0 -1.85,2.91 -1.01,11.85z"/>
      <path class="fil24" d="M65 55.48c0,0 1.68,-15.72 16.92,-26.54 7.96,-5.64 18.32,-8.63 27.78,-8.63 8.31,0 15.92,2.3 20.59,7.13l0 0c-4.65,-4.8 -12.22,-7.11 -20.49,-7.13l-0.21 0c-9.42,0.02 -19.74,3.01 -27.67,8.63 -15.24,10.82 -16.92,26.54 -16.92,26.54l0 0z"/>
      <path class="fil25" d="M92.22 63.51c-4.13,-0.22 -9.63,0.24 -10.63,0.56 -1.28,0.4 -1.32,0.5 -1.37,1.45 -0.06,0.94 0.1,1.76 0.86,2 1.03,0.34 1.04,1.6 1.72,5.24 0.61,3.31 2.12,5.93 8.59,6.41 0.29,0.02 0.57,0.03 0.83,0.04l0 -0.93c-2.93,-0.01 -6.19,-1.03 -7.36,-3.07 -1.66,-2.9 -2.07,-8.75 0.06,-9.97 0.92,-0.53 4.06,-0.89 7.3,-0.75l0 -0.98zm14.43 1.89c-1.43,0.03 -9.41,-1.5 -13.59,-1.84 -0.27,-0.02 -0.55,-0.03 -0.84,-0.05l0 0.98c3.38,0.15 6.87,0.85 8.12,2.47 2.06,2.68 -1.26,9.2 -4.42,10.65 -0.98,0.45 -2.3,0.67 -3.7,0.67l0 0.93c5.72,0.07 7.69,-3.61 8.35,-4.83 1.22,-2.29 2.92,-5.44 6.13,-5.44 3.21,0 3.94,2.91 5.17,5.2 0.66,1.22 2.58,4.96 8.29,4.88l0 -0.92c-1.4,0 -2.72,-0.22 -3.7,-0.67 -3.16,-1.45 -6.48,-7.97 -4.42,-10.65 1.25,-1.62 4.75,-2.32 8.12,-2.47l0 -0.98c-0.29,0.01 -0.57,0.03 -0.84,0.05 -3.74,0.3 -9.3,1.95 -12.67,2.02zm13.51 13.62c0.27,0 0.54,-0.01 0.83,-0.03 6.47,-0.48 7.98,-3.1 8.59,-6.41 0.68,-3.64 0.69,-4.91 1.72,-5.24 0.76,-0.24 0.92,-1.06 0.87,-2.01 -0.06,-0.94 -0.1,-1.05 -1.38,-1.44 -1,-0.32 -6.5,-0.78 -10.63,-0.56l0 0.98c3.24,-0.15 6.38,0.21 7.3,0.75 2.13,1.21 1.72,7.07 0.06,9.97 -1.16,2.04 -4.43,3.06 -7.36,3.07l0 0.92z"/>
      <path class="fil4" d="M118.5 89.8c-3.98,7.93 -16.75,7.93 -20.73,0 5.97,3.21 14.76,3.21 20.73,0z"/>
      <path class="fil26" style="mask:url(#id10)" d="M74.07 160.44c1.25,-2.57 2.6,-5.11 3.7,-7.78 0.65,-1.57 1.25,-3.12 1.81,-4.71 -3.66,1.44 -7.74,2.76 -10.38,2.76 -1.41,0 -2.4,-0.37 -2.7,-1.3 -0.48,-1.46 -0.76,-3.09 -0.82,-4.83 -0.52,1.39 -1.1,2.83 -1.72,4.33 -0.4,0.98 -2.09,4.72 -3.28,6.45 1.01,4.22 4.47,5.6 8.57,5.6l0 0c1.55,0 3.18,-0.2 4.82,-0.52zm-4.49 -32.01l-0.29 2.48c1.7,-3.11 4.06,-6.33 7.16,-9.49 0,0 -3.28,2.47 -6.87,7.01zm10 19.52c-0.56,1.59 -1.16,3.14 -1.81,4.71 -1.1,2.67 -2.45,5.21 -3.7,7.78 6.81,-1.31 13.6,-4.7 13.6,-4.7 0,0 -1.09,-2.79 -1.09,-6.15 0,-1.69 0.27,-3.52 1.09,-5.21 0,0 -3.74,1.87 -8.09,3.57zm-18.9 7.41c1.19,-1.73 2.88,-5.47 3.28,-6.45 0.62,-1.5 1.2,-2.94 1.72,-4.33l-0.02 -0.66c0,-3.89 1.1,-8.35 3.63,-13.01l0.29 -2.48c-4.17,5.26 -8.77,13.3 -9.19,23.5 -0.01,0.22 -0.01,0.43 -0.01,0.63 0,1.05 0.1,1.98 0.3,2.8z"/>
     </g>
     <polygon class="fil25" points="80.54,64.66 74.63,70.75 75.85,71.86 80.72,67.04 "/>
     <polygon class="fil25" points="131.99,64.46 142.31,68.86 141.08,69.58 131.81,66.82 "/>
    </g>
   </g>
   <g style="clip-path:url(#id12)">
    <path class="fil27" d="M119.24 15.65c50.48,0 83.53,34.66 83.53,96.54 0,61.87 -21.56,101.3 -88.87,105 -22.88,1.26 -41.06,-3.32 -55.09,-12.35 -27.24,-17.53 -38.84,-51.81 -38.84,-92.65 0,-61.88 48.79,-96.54 99.27,-96.54z"/>
   </g>
  </g>
  <path class="fil27" d="M30.12 118.63c0,9.65 3.55,34 5.16,43.66 1.55,9.25 3.67,19.86 6.57,28.57 0.23,0.67 0.45,1.41 0.71,2.11 2.35,6.31 5.37,11.37 10.69,15.71 0.98,0.8 2.4,1.78 3.54,2.38 2.89,1.5 5.04,2.24 8.74,2.97 1.85,0.37 10.73,1.36 13,1.53l8.32 0.57c0.67,0 0.83,0.07 1.29,0.12 0.46,0.06 0.93,0.01 1.4,0.02 0.67,0.02 0.64,0.11 1.26,0.15 0.5,0.02 1.05,-0.03 1.55,0 0.62,0.03 0.59,0.12 1.27,0.14 0.51,0.02 1.05,-0.03 1.56,0 1.84,0.1 3.58,0.28 5.5,0.28 1.75,0 1.82,0.12 2.82,0.15 2.06,0.06 2.01,-0.06 4.24,0.12 0.47,0.04 1.07,0.01 1.55,0.01 1.26,0 5.33,0.09 9.22,0.14l7.26 0c0.37,-0.01 0.65,-0.03 0.81,-0.06 1.85,-0.28 3.92,0.12 5.83,-0.1 0.86,-0.1 1.64,-0.12 2.7,-0.12l13.68 -0.99c3.51,-0.3 9.21,-1.28 12.6,-2.22 2.21,-0.62 4.32,-1.36 6.21,-2.55 3.14,-1.97 6.28,-6.32 8.29,-9.34 5.87,-8.78 11.17,-22.58 14.48,-32.51 6.09,-18.25 11.49,-41.33 11.49,-61.04 0,-13.2 -5.5,-22.98 -14.77,-28.13 -0.29,-0.16 -0.5,-0.25 -0.76,-0.38 -5.21,-2.71 -8.52,-3.49 -14.65,-4.54 -1.31,-0.22 -2.62,-0.25 -4.07,-0.44 -3.05,-0.4 -13.92,-0.33 -17.44,0.14l-2.5 0.19c-2.44,0.05 -12.07,1.03 -14.72,1.36 -13.99,1.78 -23.14,3.09 -37.03,5.87 -12.23,2.44 -26.66,5.81 -37.92,10.34 -5.13,2.07 -6.33,2.73 -10.99,5.1 -1.84,0.93 -4.83,2.89 -6.54,4.18l-2.2 1.76c-0.27,0.24 -0.43,0.45 -0.7,0.7 -2.09,1.93 -3.31,3.25 -4.86,5.86 -1.29,2.17 -2.59,5.64 -2.59,8.29z"/>
  <g>
  </g>
  <g style="clip-path:url(#id13)">
   <g>
    <g>
     <path class="fil5" d="M156.67 45.21c0,0 8.66,14.71 8.14,39.65 -0.52,24.94 -14.71,56.18 -11.03,61.17l-91.11 0c0,0 7.88,-19.95 4.21,-33.08 -3.68,-13.13 -10.96,-43.86 -3.38,-62.49l93.17 -5.25z"/>
     <path class="fil6" d="M89.33 233.48c0,0 2.47,24.81 6.18,38.85 3.7,14.03 4.91,19.73 8.53,19.42 4.26,-0.38 3.82,-8.65 3.25,-21.67 -0.56,-13.02 -1.9,-35.92 -1.9,-35.92l-16.06 -0.68z"/>
     <path class="fil6" d="M132.89 228.88c0,0 4.49,21.11 7.19,38.84 2.17,14.35 3.44,21.39 -0.04,22.42 -4.1,1.21 -6.71,-6.66 -10.94,-18.99 -4.24,-12.32 -11.35,-34.13 -11.35,-34.13l15.14 -8.14z"/>
     <path class="fil5" d="M98.25 282.59c1.88,6.6 3.23,9.38 5.79,9.16 2.7,-0.24 3.51,-3.65 3.6,-9.43 -1.05,0.77 -2.57,1.39 -4.72,1.42 -1.82,0.02 -3.38,-0.47 -4.67,-1.15z"/>
     <path class="fil5" d="M132.75 281.43c2.39,6.14 4.5,9.53 7.29,8.71 2.21,-0.66 2.51,-3.74 1.87,-9.57 -0.96,0.76 -2.19,1.41 -3.75,1.7 -2.19,0.41 -4.01,-0.08 -5.41,-0.84z"/>
     <path class="fil7" d="M79.49 238.16c0,0 25.15,6.29 63.47,-2.84l-10.78 -47.15 -25.33 -20.76 -30.85 40.14c0,0 0.91,10.4 3.49,30.61z"/>
     <path class="fil8" d="M105.56 137.72l-22.5 -22.68c0,0 -4.32,15.27 -6.12,31.07l-0.94 3.84 4.69 1.32c0,0 -9.28,60.55 -10.03,77.61 0,0 16.02,1.76 34.95,1.52 1.01,-0.01 1.31,-45.34 1.56,-43.23 0.42,3.49 3.16,43.13 4.01,43.1 13.59,-0.47 27.98,-2.09 38.67,-6.18 0,0 -5.06,-51.41 -6.89,-67.96 -2.09,-18.83 -5.04,-37.15 -8.66,-39.29l-13.98 10.26 0 1.71 -14.76 8.91z"/>
     <path class="fil8" d="M83.06 115.04c0,0 -4.32,15.27 -6.12,31.07l-0.94 3.84 4.69 1.32c0,0 -9.28,60.55 -10.03,77.61 0,0 17.12,1.88 36.88,1.49 -0.26,-19.43 -0.16,-72.45 -1.98,-92.65l-22.5 -22.68z"/>
     <path class="fil9" d="M83.08 115.31l-4.4 2.37c0,0 -13.06,8.45 -18.01,23.69 -4.95,15.25 -1.99,30.45 17.67,27.01 0,0 9.82,-0.85 15.53,-4.23 0,0 6.39,-9.04 -1.34,-23.69 0,0 -11.69,2.61 -15.24,4.57 0,0 2.66,-18.47 4.7,-24.42l1.09 -5.3z"/>
     <path class="fil7" d="M105.06 138.76l0.11 -0.07c2.71,-2.56 5.43,-5.1 8.16,-7.65 3.29,-3.09 6.63,-6.14 9.78,-9.39 2.02,-2.08 4.44,-4.13 6.29,-6.49 -4.81,-3.65 -13.07,-8.83 -23.25,-8.83 -9.42,0 -16.86,5.13 -20.01,7.71 4.1,5.88 8.48,11.54 12.82,17.25 1.95,2.56 4.06,4.99 6.1,7.47z"/>
     <path class="fil9" d="M129.48 198.35l0.39 4.97c0,0 13.13,0.16 17.72,-1.99l-0.41 -4.13c0,0 -11.13,2.09 -17.7,1.15z"/>
     <path class="fil9" d="M73.91 198.72c0,0 6.55,1.94 13.81,0.75l0 4.86c0,0 -8.33,2.02 -14.53,0l0.72 -5.61z"/>
     <path class="fil9" d="M104.63 197.11c0,0.89 -0.72,1.61 -1.61,1.61 -0.89,0 -1.61,-0.72 -1.61,-1.61 0,-0.89 0.72,-1.61 1.61,-1.61 0.89,0 1.61,0.72 1.61,1.61z"/>
     <path class="fil9" d="M104.63 178.5c0,0.89 -0.72,1.61 -1.61,1.61 -0.89,0 -1.61,-0.72 -1.61,-1.61 0,-0.89 0.72,-1.61 1.61,-1.61 0.89,0 1.61,0.72 1.61,1.61z"/>
     <path class="fil9" d="M104.63 162.5c0,0.89 -0.72,1.61 -1.61,1.61 -0.89,0 -1.61,-0.72 -1.61,-1.61 0,-0.9 0.72,-1.62 1.61,-1.62 0.89,0 1.61,0.72 1.61,1.62z"/>
     <path class="fil10" d="M104.63 148.56c0,0.89 -0.72,1.61 -1.61,1.61 -0.89,0 -1.61,-0.72 -1.61,-1.61 0,-0.89 0.72,-1.62 1.61,-1.62 0.89,0 1.61,0.73 1.61,1.62z"/>
     <path class="fil8" d="M82.77 116.08l-4.4 2.37c0,0 -13.06,8.44 -18.01,23.69 -4.95,15.25 -1.98,30.44 17.67,27 0,0 9.82,-0.85 15.53,-4.22 0,0 6.7,-9.81 -1.03,-24.46 0,0 -11.99,3.37 -15.55,5.33 0,0 2.67,-18.46 4.7,-24.42l1.09 -5.29z"/>
     <path class="fil9" d="M92.53 140.46c0,0 -3.63,1.83 -3.43,11.78 0.2,9.96 4.46,12.68 4.46,12.68 0,0 6.7,-9.81 -1.03,-24.46z"/>
     <path class="fil9" d="M91.61 109.21c0,0 11.59,25.26 13.95,28.51 0,0 13.52,-19.98 16.74,-28.14 0,0 12.05,6.14 13.36,7.49l0 1.38 -8.8 6.1 4.78 3.59c0,0 -24.83,14.8 -26.25,15.71 0,0 -11.75,-4.43 -22.31,-11.98 0,0 3.82,-6.81 3.74,-7.1 -0.07,-0.29 -6.13,-3.45 -8.45,-6.32l0 -1.46 13.24 -7.78z"/>
     <path class="fil8" d="M135.66 118.45c0,0 2.92,6.99 4.35,16.08 1.42,9.1 2.48,17.54 2.48,17.54 0,0 8.47,10.53 16.11,9.99 7.63,-0.54 17.74,-15.61 20.66,-21.6 0,0 -2.55,-8.71 -7.83,-18.49 -4.97,-9.23 -8.12,-4.26 -8.12,-4.26l-8.34 15.86c0,0 -10.5,-9.58 -19.31,-15.12z"/>
     <path class="fil9" d="M163.57 117.38c-0.75,1.25 -0.21,7.4 5.15,15.3 5.36,7.91 9.85,8.75 10.54,7.78 0,0 -2.55,-8.71 -7.83,-18.49 -4.14,-7.69 -7.02,-5.53 -7.86,-4.59z"/>
     <path class="fil11" d="M164.91 125.64c0,0 5.14,-6.81 4.95,-7.11 -0.18,-0.3 -1.27,-1.05 -0.97,-4.04 0.3,-3 0.18,-5.21 -0.71,-6.93 -0.9,-1.72 -1.2,-2.84 0.56,-2.62 1.76,0.23 4.71,2.59 3.78,7.34 0,0 3.67,-0.12 5.65,-1.69 1.99,-1.57 7.6,-8.12 9.32,-7.29 1.72,0.82 -6.7,9.35 -6.7,9.35 0,0 2.99,-2.25 6.59,-5.27 3.59,-3.04 4.82,-2.96 5.27,-2.59 0.45,0.38 -1.87,3.82 -5.61,7 -3.74,3.18 -3.55,3.07 -3.55,3.07 0,0 5.98,-4.42 8,-6.25 2.02,-1.83 3.48,-2.17 4.16,-1.61 0.08,0.07 0.12,0.18 0.12,0.32 0.01,0.96 -1.92,3.42 -4.28,5.22 -2.69,2.06 -6.25,4.9 -6.25,4.9 0,0 5.54,-3.55 7.49,-4.98 1.94,-1.42 3.85,-1.19 2.09,1.09 -1.75,2.28 -6.09,5.91 -9.36,8.23 -3.25,2.32 -6.35,4.87 -9.42,3.71 0,0 -4.9,6.58 -6.18,8.79 0,0 -3.21,-4.06 -4.95,-8.64z"/>
     <path class="fil12" d="M177.75 125.74c-0.69,-0.15 -1.38,-0.13 -2.08,-0.34 -0.6,-0.18 -1.32,-0.49 -1.83,-0.85l-0.07 0.07c0.93,1.05 2.63,1.62 3.98,1.29 0.1,-0.03 0.1,-0.15 0,-0.17z"/>
     <path class="fil12" d="M175.99 113.62c-0.75,-0.6 -2.01,-0.76 -2.92,-0.89 -0.71,-0.11 -0.43,-0.71 -0.37,-1.29 0.07,-0.55 -0.01,-1.11 -0.15,-1.65l-0.06 0c-0.08,0.92 -0.12,1.8 -0.27,2.71 -0.04,0.21 -0.02,0.5 0.25,0.56 1.02,0.21 1.98,0.31 2.96,0.73 2,0.84 1.45,2.96 0.77,4.45 -0.04,0.09 0.09,0.17 0.15,0.08 1.16,-1.64 1.27,-3.38 -0.36,-4.7z"/>
     <path class="fil6" d="M100.81 103.04c0,0 0,4.43 0,6.22 0,1.78 0.93,4.65 5.66,4.65 4.74,0 5.36,-2.87 5.36,-4.34 0,-1.48 0,-5.83 0,-5.83l-11.02 -0.7z"/>
     <path class="fil5" d="M103.34 19.23c-25.66,2.51 -35.71,19.57 -39.84,31.23 -4.13,11.66 -3.41,29.97 5.74,39.84 3.79,4.08 8.69,6.53 13.13,7.99 -1.03,-1.37 -1.89,-2.79 -2.56,-4.26 -1.32,-1.87 -2.28,-4 -2.75,-6.34 -1.74,-8.58 2.29,-16.58 6.19,-23.96 1.03,-1.95 1.86,-4.17 3.07,-6.02 0.57,-0.87 1.34,-1.69 2.41,-1.9 4.38,-0.85 9.19,-0.35 13.64,-0.67 4.49,-0.33 9.05,-0.67 13.48,-1.48 3.95,-0.72 8.1,-1.74 11.28,-4.32 0.14,-0.11 0.28,-0.19 0.43,-0.23 0.46,-0.3 1.21,-0.22 1.62,0.24l3.54 -6.42c0,0 1.3,-8.98 1.67,-9.88 0.36,-0.9 -5.39,-16.33 -31.05,-13.82z"/>
     <path class="fil5" d="M134.26 32.26c0,0 -1.63,9.51 -5.78,16.06 -0.11,0.17 -0.24,0.38 -0.36,0.62 0.6,-0.05 1.28,0.33 1.34,1.11 0.14,1.95 1.36,3.63 2.09,5.41 0.75,1.86 1.44,3.74 2.14,5.62 1.3,3.52 2.66,7.06 3.29,10.78 1.02,5.99 0.8,12.31 -2.69,17.52 -3.07,4.58 -7.53,8.92 -12.3,11.92 2.74,0.37 6.15,0.22 10.42,-0.82 18.31,-4.44 27.05,-23.42 27.59,-36.34 0.54,-12.92 -4.78,-34.3 -25.74,-31.88z"/>
     <path class="fil6" d="M138.93 73.13c0,0 1.58,-3.45 5.18,-4 3.6,-0.56 8.06,5.98 3.95,11.05 -4.11,5.07 -8.87,2.74 -9.13,-0.25 -0.25,-2.99 0,-6.8 0,-6.8z"/>
     <path class="fil6" d="M77.52 76.23c0,0 -1.73,-4.92 -4.82,-4.92 -3.09,0 -6.29,5.02 -4.51,9.63 1.77,4.62 6.54,3.65 7.81,0.61 1.27,-3.04 1.52,-5.32 1.52,-5.32z"/>
     <path class="fil13" d="M145.01 73.91c-2.29,0.22 -2.17,3.31 -2.02,4.96 0.01,0.12 0.19,0.11 0.2,0 0.08,-0.92 0.18,-1.84 0.46,-2.71l0.06 0.02c0.13,0.04 0.26,0.1 0.37,0.16 0.4,0.21 0.48,0.62 0.73,0.95 0.11,0.13 0.32,0 0.25,-0.15 -0.12,-0.3 -0.14,-0.58 -0.32,-0.86 -0.1,-0.18 -0.26,-0.33 -0.43,-0.44 -0.13,-0.09 -0.29,-0.18 -0.44,-0.23l0.05 -0.13c0.5,-1.04 1.94,-1.21 2.16,0.06 0.07,0.43 -0.05,0.86 0,1.29 0.02,0.21 0.31,0.27 0.43,0.11 0.84,-1.17 0.07,-3.19 -1.5,-3.03z"/>
     <path class="fil13" d="M72.41 76.21c-1,-1.24 -2.22,-0.39 -2.75,0.71 -0.05,0.11 0.11,0.19 0.18,0.1 0.38,-0.48 0.76,-1.1 1.53,-0.9 0.72,0.2 1.04,1.17 1.17,1.8 0.03,0.14 0.05,0.27 0.06,0.42 -0.22,-0.09 -0.48,-0.07 -0.74,0.03 -0.42,0.17 -0.68,0.62 -0.77,1.03 -0.04,0.13 0.15,0.23 0.24,0.14 0.27,-0.25 0.59,-0.76 1.02,-0.64 0.08,0.02 0.16,0.16 0.23,0.2l0.02 0.01c-0.05,0.72 -0.21,1.45 -0.24,2.14 -0.01,0.22 0.27,0.28 0.37,0.09 0.79,-1.49 0.75,-3.8 -0.32,-5.13z"/>
     <path class="fil11" d="M85.75 49.05c0,0 -6.01,15.76 -7.63,21.24 -1.61,5.47 -8.25,19.11 0.72,26.11 8.97,7 20.01,10.41 33.2,9.96 13.19,-0.45 29.52,-14.63 28.8,-29.25 -0.71,-14.63 -11.12,-22.88 -9.33,-34.82 0,0 -0.22,3.89 -15.16,7.36 -8.88,2.07 -25.67,2.49 -30.6,-0.6z"/>
     <path class="fil14" d="M92.86 71.14c0.21,2.47 -0.53,4.56 -1.65,4.65 -1.11,0.1 -2.19,-1.84 -2.4,-4.31 -0.21,-2.48 0.53,-4.56 1.64,-4.66 1.12,-0.09 2.2,1.84 2.41,4.32z"/>
     <path class="fil15" d="M90.65 69.99c0.06,0.79 -0.18,1.46 -0.53,1.5 -0.36,0.02 -0.71,-0.6 -0.78,-1.39 -0.07,-0.8 0.17,-1.47 0.53,-1.5 0.36,-0.03 0.71,0.59 0.78,1.39z"/>
     <path class="fil14" d="M122.31 69.02c0.21,2.48 -0.53,4.56 -1.65,4.66 -1.12,0.09 -2.19,-1.84 -2.4,-4.32 -0.21,-2.47 0.52,-4.56 1.64,-4.65 1.12,-0.1 2.2,1.83 2.41,4.31z"/>
     <path class="fil15" d="M120.09 67.87c0.07,0.8 -0.17,1.47 -0.53,1.5 -0.36,0.03 -0.7,-0.59 -0.77,-1.39 -0.07,-0.79 0.17,-1.46 0.53,-1.49 0.36,-0.03 0.7,0.59 0.77,1.38z"/>
     <path class="fil16" d="M124.11 60.72c0,0 -6.39,-6.49 -12.37,2.28 0,0 0.98,-6.46 6.39,-6.75 5.68,-0.3 5.98,4.47 5.98,4.47z"/>
     <path class="fil16" d="M96.38 65.13c0,0 -5.55,-8.88 -11.09,-1.02 0,0 0.6,-5.32 5.72,-4.97 5.28,0.37 5.37,5.99 5.37,5.99z"/>
     <path class="fil13" d="M104.71 73.55c0,0 -3.17,6.65 -2.51,7.64 1.09,1.63 7.17,-0.15 7.17,-0.15 0,0 -5.46,0.67 -6.15,-0.67 -0.7,-1.33 1.49,-6.82 1.49,-6.82z"/>
     <path class="fil28" d="M124.87 81.48c-1.77,0 -3.1,-0.53 -3.47,-1.54 -0.63,-1.72 1.81,-4.19 5.45,-5.52 1.53,-0.56 3.01,-0.83 4.28,-0.83 1.77,0 3.09,0.53 3.46,1.53 0.63,1.73 -1.81,4.2 -5.46,5.53 -1.52,0.56 -3,0.83 -4.26,0.83zm-3.14 -2.37c0,0.86 0.57,1.38 0.57,1.38 0,0 0.61,-1.07 1.82,-2.38l0 0c-0.47,-0.34 -0.95,-0.66 -1.46,-0.94 -0.71,0.75 -0.93,1.41 -0.93,1.94zm1.6 -2.55c0.42,0.37 0.87,0.69 1.34,0.99 1.29,-1.27 3.11,-2.65 5.48,-3.47l0 0c0,0 -3.91,0.16 -6.82,2.48l0 0z"/>
    </g>
    <g style="clip-path:url(#id14)">
     <image x="122.95" y="73.59" width="7.57" height="4.44" xlink:href="newsbot_Images\newsbot_ImgID5.png"/>
    </g>
    <g style="clip-path:url(#id15)">
    </g>
    <g style="clip-path:url(#id16)">
     <image x="121.38" y="76.67" width="3.14" height="4.22" xlink:href="newsbot_Images\newsbot_ImgID6.png"/>
    </g>
    <g style="clip-path:url(#id17)">
     <path class="fil29" d="M87.89 84.47c-0.38,0 -0.77,-0.02 -1.16,-0.05 -3.53,-0.31 -6.28,-1.91 -6.14,-3.58 0.13,-1.48 2.5,-2.53 5.51,-2.53 0.37,0 0.76,0.02 1.15,0.05 3.54,0.31 6.28,1.91 6.14,3.58 -0.12,1.49 -2.5,2.53 -5.5,2.53zm-6.87 -3.43c0,0.35 0.1,0.6 0.1,0.6 0,0 0.92,-0.66 2.44,-1.27 -0.27,-0.46 -0.54,-0.92 -0.85,-1.34 -1.42,0.55 -1.69,1.42 -1.69,2.01zm2.54 -0.67l0 0zm-0.06 -1.59c0.2,0.46 0.46,0.91 0.73,1.33 1.26,-0.44 2.83,-0.82 4.59,-0.82 0.42,0 0.85,0.02 1.29,0.07 0,0 -1.98,-0.82 -4.41,-0.82 -0.71,0 -1.45,0.06 -2.2,0.24l0 0zm6.61 0.58l0 0z"/>
    </g>
    <g style="clip-path:url(#id18)">
     <image x="83.04" y="77.97" width="7.57" height="2.66" xlink:href="newsbot_Images\newsbot_ImgID7.png"/>
    </g>
    <g style="clip-path:url(#id19)">
    </g>
    <g style="clip-path:url(#id20)">
     <image x="80.67" y="78.51" width="3.2" height="3.41" xlink:href="newsbot_Images\newsbot_ImgID8.png"/>
    </g>
    <g style="clip-path:url(#id21)">
     <path class="fil19" d="M109.83 118.45c0,3.44 -2.78,6.23 -6.23,6.23 -3.43,0 -6.22,-2.79 -6.22,-6.23 0,-3.45 2.79,-6.23 6.22,-6.23 3.45,0 6.23,2.78 6.23,6.23z"/>
     <path class="fil20" d="M102.77 114.66c0.05,-0.03 0.11,-0.05 0.17,-0.07 0.52,0.74 0.89,1.57 1.18,2.44 -0.76,0.44 -1.45,1 -2.04,1.65 -0.28,-0.98 -0.74,-1.94 -1.32,-2.78 0.62,-0.49 1.33,-0.91 2.01,-1.24zm2.68 -0.79c0.61,0.63 1.09,1.36 1.47,2.15 -0.89,0.16 -1.73,0.45 -2.5,0.85 -0.17,-0.47 -0.35,-0.93 -0.58,-1.38 -0.16,-0.33 -0.36,-0.69 -0.61,-1.03 0.73,-0.3 1.46,-0.44 2.22,-0.59zm2.24 4.05c-0.97,0.2 -1.86,0.68 -2.67,1.3 -0.09,-0.71 -0.26,-1.39 -0.49,-2.06 0.77,-0.45 1.6,-0.79 2.46,-0.99 0.26,0.57 0.49,1.16 0.7,1.75zm-8.87 -0.54c-0.43,0.64 -0.76,1.35 -1.01,2.08l0.49 0c0.2,-0.56 0.45,-1.11 0.77,-1.63 0.23,0.5 0.37,1.06 0.48,1.63l0.35 0c-0.1,-0.43 -0.23,-0.84 -0.4,-1.24 -0.07,-0.18 -0.18,-0.39 -0.29,-0.61 0.14,-0.22 0.29,-0.44 0.46,-0.65 0.25,-0.33 0.57,-0.63 0.9,-0.91 0.56,0.91 0.95,1.92 1.23,2.95 -0.12,0.15 -0.22,0.3 -0.33,0.46l0.8 0c-0.02,-0.12 -0.04,-0.22 -0.06,-0.34 0.25,-0.32 0.53,-0.63 0.86,-0.91 0.35,-0.32 0.74,-0.6 1.15,-0.87 0.2,0.68 0.36,1.39 0.5,2.11l-0.01 0.01 0.65 0c0.73,-0.54 1.55,-0.95 2.46,-1.17 0.09,0.28 0.18,0.55 0.27,0.82 0.04,0.11 0.21,0.05 0.2,-0.06 -0.03,-0.28 -0.08,-0.55 -0.14,-0.82 0.4,-0.07 0.81,-0.12 1.24,-0.12 0.14,0 0.17,-0.2 0.02,-0.23 -0.46,-0.08 -0.91,-0.08 -1.35,-0.02 -0.16,-0.6 -0.39,-1.19 -0.68,-1.75 0.37,-0.06 0.74,-0.1 1.1,-0.1 0.08,0 0.09,-0.13 0.01,-0.13 -0.4,0 -0.79,0.04 -1.18,0.09 -0.43,-0.81 -0.99,-1.55 -1.66,-2.14 0.17,-0.04 0.35,-0.08 0.53,-0.12 0.11,-0.02 0.09,-0.19 -0.02,-0.17 -0.26,0.03 -0.51,0.06 -0.76,0.09 -0.15,-0.12 -0.3,-0.24 -0.46,-0.34l-0.05 0.06c0.12,0.1 0.23,0.2 0.34,0.3 -0.76,0.09 -1.48,0.21 -2.23,0.49 -0.49,-0.64 -1.11,-1.2 -1.79,-1.44 -0.06,-0.01 -0.1,0.06 -0.05,0.09 0.61,0.44 1.12,0.93 1.54,1.47l-0.09 0.03c-0.72,0.32 -1.47,0.75 -2.12,1.27 -0.29,-0.37 -0.6,-0.72 -0.94,-1.02l-0.07 0.06c0.32,0.34 0.61,0.7 0.86,1.08 -0.28,0.23 -0.55,0.48 -0.78,0.74 -0.21,0.24 -0.42,0.5 -0.61,0.77 -0.32,-0.48 -0.72,-0.91 -1.17,-0.98 -0.09,-0.01 -0.11,0.11 -0.04,0.14 0.47,0.25 0.81,0.61 1.08,1.03z"/>
     <polygon class="fil20" points="99.75,128.81 100.49,158.89 106.47,158.89 107.2,128.81 "/>
     <polygon class="fil21" points="96.28,123.71 110.92,123.71 110.92,119.03 96.28,119.03 "/>
     <polygon class="fil5" points="90.92,132.48 116.29,132.48 116.29,122.18 90.92,122.18 "/>
     <polygon class="fil22" points="91.61,131.87 115.59,131.87 115.59,122.79 91.61,122.79 "/>
     <path class="fil5" d="M115.4 131.69l-23.6 0 0 -8.65 23.6 0 0 8.65zm-23.85 -8.93l0 9.14 24.12 0 0 -9.14 -24.12 0z"/>
     <polygon class="fil23" points="93.9,130.52 93.85,124.8 94.91,124.79 97.54,128.68 97.51,124.77 98.07,124.77 98.12,130.48 96.85,130.49 94.43,126.9 94.46,130.51 "/>
     <polygon class="fil23" points="99.07,130.48 99.02,124.76 102.73,124.73 102.73,125.3 100.68,125.32 100.7,127.05 102.42,127.03 102.42,127.61 100.7,127.62 100.72,129.89 103.12,129.87 103.12,130.44 "/>
     <polygon class="fil23" points="104.57,130.43 103.05,124.73 104.72,124.71 105.61,128.17 106.45,124.7 107.43,124.69 108.31,128.16 109.2,124.67 109.85,124.67 108.34,130.4 107.26,130.41 106.44,127.29 105.66,130.42 "/>
     <path class="fil23" d="M112.15 130.47c-1.38,0 -2.09,-0.54 -2.09,-1.63 0,-0.09 0,-0.2 0.02,-0.33l0.79 -0.18c-0.05,0.24 -0.08,0.45 -0.08,0.63 0.01,0.7 0.41,1.05 1.2,1.05 0.01,0 0.02,0 0.02,0 0.66,0 0.98,-0.26 0.98,-0.77 -0.01,-0.38 -0.4,-0.71 -1.18,-0.99 -1.13,-0.41 -1.7,-1.06 -1.71,-1.97 0,-0.51 0.18,-0.93 0.56,-1.25 0.37,-0.31 0.86,-0.47 1.47,-0.48 0.01,0 0.02,0 0.04,0 1.23,0 1.85,0.56 1.86,1.68l-0.77 0.15c0.03,-0.15 0.05,-0.28 0.05,-0.39 -0.01,-0.65 -0.4,-0.98 -1.2,-0.98 0,0 -0.01,0 -0.02,0 -0.63,0 -0.95,0.24 -0.95,0.69 0,0.35 0.36,0.64 1.08,0.88 1.38,0.46 2.07,1.15 2.08,2.07 0,0.54 -0.19,0.98 -0.57,1.31 -0.38,0.33 -0.9,0.5 -1.53,0.51 -0.02,0 -0.03,0 -0.05,0z"/>
     <polygon class="fil5" points="97.77,124.36 97.82,130.07 96.55,130.08 94.14,126.49 94.16,130.1 93.61,130.11 93.56,124.39 94.61,124.38 97.25,128.27 97.21,124.36 "/>
     <polygon class="fil5" points="102.43,124.32 102.43,124.89 100.39,124.91 100.4,126.64 102.12,126.62 102.13,127.2 100.4,127.21 100.43,129.48 102.82,129.46 102.82,130.03 98.77,130.07 98.72,124.35 "/>
     <polygon class="fil5" points="109.55,124.26 108.04,129.99 106.97,129.99 106.14,126.88 105.36,130.01 104.28,130.02 102.76,124.32 104.42,124.3 105.32,127.76 106.16,124.28 107.13,124.28 108.01,127.75 108.9,124.26 "/>
     <path class="fil5" d="M113.74 125.82l-0.78 0.15c0.04,-0.15 0.05,-0.28 0.05,-0.39 0,-0.66 -0.41,-0.99 -1.22,-0.98 -0.63,0 -0.95,0.24 -0.95,0.69 0.01,0.35 0.37,0.64 1.08,0.88 1.38,0.46 2.07,1.15 2.08,2.07 0,0.55 -0.18,0.98 -0.57,1.31 -0.38,0.33 -0.89,0.5 -1.53,0.51 -1.41,0.01 -2.13,-0.53 -2.14,-1.63 0,-0.09 0.01,-0.2 0.02,-0.33l0.8 -0.18c-0.06,0.24 -0.09,0.45 -0.09,0.63 0.01,0.71 0.42,1.06 1.23,1.05 0.65,0 0.97,-0.26 0.97,-0.77 -0.01,-0.38 -0.4,-0.71 -1.18,-0.99 -1.13,-0.41 -1.69,-1.06 -1.7,-1.97 -0.01,-0.51 0.18,-0.93 0.55,-1.25 0.37,-0.31 0.87,-0.47 1.48,-0.48 1.25,-0.01 1.89,0.55 1.9,1.68z"/>
     <path class="fil11" d="M89.32 155.39c0,0 4.43,-2.21 5.06,-1.72 0.64,0.48 1.09,2.5 3,2.73 1.91,0.22 3.36,0.15 4.27,-1.01 0.89,-1.16 1.25,-2.21 2.98,-2.33 1.73,-0.11 3.19,0.87 4.09,-0.14 0.9,-1.01 0.71,-2.81 0,-3.67 -0.71,-0.86 0.84,-1.27 0.83,-3.26 -0.01,-1.98 -0.03,-4.52 0,-6.02 0.03,-1.5 -0.53,-2.43 -2.82,-3.33 -2.28,-0.9 -3.43,-1.09 -5.66,-0.6 -2.23,0.49 -3.44,0.73 -4.22,2.17 -0.77,1.44 -2.33,4.65 -3,5.02 -0.66,0.37 -3.53,0.31 -3.53,0.31 0,0 -1.85,2.91 -1,11.85z"/>
     <path class="fil30" d="M64.48 56.24c0,0 1.68,-15.73 16.93,-26.54 7.95,-5.65 18.31,-8.63 27.77,-8.63 8.31,0 15.92,2.3 20.59,7.13l0 0c-4.65,-4.81 -12.22,-7.11 -20.48,-7.13l-0.21 0c-9.43,0.02 -19.75,3 -27.67,8.63 -15.25,10.81 -16.93,26.54 -16.93,26.54l0 0z"/>
     <path class="fil25" d="M91.7 64.26c-4.13,-0.21 -9.62,0.25 -10.63,0.56 -1.28,0.4 -1.31,0.5 -1.37,1.45 -0.06,0.95 0.1,1.76 0.86,2.01 1.03,0.33 1.04,1.6 1.72,5.23 0.62,3.32 2.12,5.94 8.6,6.41 0.28,0.02 0.56,0.04 0.82,0.04l0 -0.92c-2.93,-0.01 -6.19,-1.04 -7.36,-3.07 -1.65,-2.9 -2.07,-8.76 0.06,-9.98 0.93,-0.53 4.06,-0.89 7.3,-0.74l0 -0.99zm14.43 1.9c-1.43,0.03 -9.41,-1.51 -13.59,-1.84 -0.27,-0.02 -0.55,-0.04 -0.84,-0.06l0 0.99c3.38,0.15 6.87,0.85 8.12,2.47 2.06,2.67 -1.26,9.19 -4.41,10.64 -0.99,0.45 -2.31,0.68 -3.71,0.68l0 0.92c5.72,0.08 7.69,-3.61 8.35,-4.83 1.23,-2.29 2.92,-5.43 6.13,-5.43 3.21,0 3.95,2.91 5.17,5.19 0.66,1.23 2.58,4.96 8.29,4.89l0 -0.93c-1.39,0.01 -2.72,-0.22 -3.7,-0.67 -3.15,-1.45 -6.48,-7.97 -4.41,-10.64 1.25,-1.63 4.74,-2.32 8.11,-2.48l0 -0.98c-0.28,0.02 -0.56,0.04 -0.83,0.06 -3.75,0.3 -9.31,1.95 -12.68,2.02zm13.51 13.62c0.27,-0.01 0.54,-0.02 0.83,-0.04 6.48,-0.48 7.98,-3.1 8.6,-6.41 0.68,-3.63 0.69,-4.9 1.72,-5.23 0.75,-0.25 0.92,-1.06 0.86,-2.01 -0.06,-0.95 -0.1,-1.05 -1.38,-1.45 -1,-0.31 -6.5,-0.77 -10.63,-0.56l0 0.98c3.25,-0.14 6.38,0.22 7.31,0.75 2.12,1.22 1.71,7.08 0.05,9.97 -1.16,2.04 -4.42,3.07 -7.36,3.07l0 0.93z"/>
     <path class="fil4" d="M117.99 90.56c-3.98,7.93 -16.76,7.93 -20.74,0 5.98,3.2 14.76,3.2 20.74,0z"/>
     <path class="fil26" style="mask:url(#id22)" d="M73.55 161.2c1.26,-2.58 2.6,-5.11 3.7,-7.78 0.66,-1.57 1.25,-3.13 1.81,-4.71 -3.66,1.44 -7.74,2.76 -10.38,2.76 -1.41,0 -2.4,-0.38 -2.7,-1.3 -0.48,-1.46 -0.76,-3.09 -0.82,-4.84 -0.52,1.39 -1.1,2.83 -1.72,4.34 -0.4,0.98 -2.09,4.72 -3.28,6.44 1.01,4.22 4.47,5.6 8.58,5.6l0 0c1.54,0 3.17,-0.19 4.81,-0.51zm-4.49 -32.02l-0.28 2.49c1.7,-3.12 4.05,-6.33 7.15,-9.49 0,0 -3.28,2.46 -6.87,7zm10 19.53c-0.56,1.58 -1.15,3.14 -1.81,4.71 -1.1,2.67 -2.44,5.2 -3.7,7.78 6.81,-1.31 13.61,-4.7 13.61,-4.7 0,0 -1.1,-2.8 -1.1,-6.16 0,-1.69 0.27,-3.51 1.1,-5.2 0,0 -3.75,1.87 -8.1,3.57zm-18.9 7.4c1.19,-1.72 2.88,-5.46 3.28,-6.44 0.62,-1.51 1.2,-2.95 1.72,-4.34l-0.02 -0.66c0,-3.89 1.1,-8.35 3.64,-13l0.28 -2.49c-4.17,5.26 -8.77,13.3 -9.18,23.51 -0.01,0.22 -0.02,0.42 -0.02,0.63 0,1.05 0.1,1.97 0.3,2.79z"/>
    </g>
   </g>
  </g>
  <path class="fil27" d="M119.05 13.53c50.47,0 83.53,34.67 83.53,96.54 0,61.87 -21.56,101.3 -88.88,105 -22.88,1.26 -41.06,-3.32 -55.09,-12.35 -27.24,-17.52 -38.84,-51.81 -38.84,-92.65 0,-61.87 48.8,-96.54 99.28,-96.54z"/>
  <polygon class="fil31" points="30.8,236.71 42.47,204.86 205.61,204.74 192.63,237.02 "/>
  <path class="fil32" d="M45.37 229.68l4.63 -17.95 5.45 0 0.05 12.24 6.35 -12.24 5.46 0 -4.64 17.95 -3.36 0 3.64 -14.13 -7.19 14.13 -3.5 0 0.13 -14.13 -3.66 14.13 -3.36 0zm20.63 -3.66l3.6 -0.52c-0.03,0.66 0.14,1.17 0.5,1.51 0.36,0.35 0.95,0.52 1.75,0.52 0.89,0 1.6,-0.17 2.14,-0.49 0.36,-0.23 0.59,-0.54 0.69,-0.93 0.07,-0.25 0.04,-0.47 -0.08,-0.64 -0.13,-0.17 -0.47,-0.32 -1.03,-0.46 -2.62,-0.61 -4.24,-1.17 -4.85,-1.68 -0.85,-0.71 -1.11,-1.68 -0.79,-2.93 0.29,-1.14 0.98,-2.09 2.07,-2.85 1.09,-0.77 2.57,-1.16 4.44,-1.16 1.78,0 3.03,0.29 3.74,0.88 0.72,0.58 1.09,1.44 1.12,2.58l-3.39 0.6c0,-0.51 -0.17,-0.9 -0.49,-1.17 -0.32,-0.27 -0.84,-0.41 -1.56,-0.41 -0.91,0 -1.6,0.13 -2.06,0.38 -0.31,0.18 -0.5,0.42 -0.57,0.7 -0.07,0.25 -0.01,0.46 0.18,0.63 0.25,0.23 1.24,0.55 2.98,0.97 1.73,0.42 2.88,0.93 3.45,1.53 0.57,0.61 0.7,1.47 0.42,2.57 -0.31,1.19 -1.07,2.22 -2.29,3.07 -1.22,0.86 -2.8,1.29 -4.76,1.29 -1.77,0 -3.08,-0.36 -3.93,-1.07 -0.85,-0.72 -1.28,-1.69 -1.28,-2.92zm14.21 3.66l0.88 -3.43 3.44 0 -0.89 3.43 -3.43 0zm14.03 0l4.64 -17.95 3.64 0 -2.06 7.95 9.38 -7.95 4.88 0 -8.58 6.99 4.29 10.96 -4.69 0 -2.76 -8.43 -3.7 3 -1.4 5.43 -3.64 0zm18.07 0l4.63 -17.95 3.64 0 -1.83 7.07 7.08 0 1.82 -7.07 3.64 0 -4.64 17.95 -3.63 0 2.02 -7.85 -7.07 0 -2.03 7.85 -3.63 0zm34.29 0l-3.92 0 -0.49 -4.08 -7.21 0 -2.54 4.08 -3.85 0 11.61 -17.95 3.84 0 2.56 17.95zm-4.81 -7.12l-0.78 -6.64 -4.14 6.64 4.92 0zm11.38 -10.83l7.18 0c1.42,0 2.47,0.05 3.14,0.17 0.67,0.12 1.23,0.37 1.68,0.74 0.46,0.38 0.79,0.88 0.99,1.5 0.21,0.62 0.21,1.32 0.01,2.1 -0.21,0.83 -0.64,1.61 -1.27,2.3 -0.63,0.71 -1.38,1.23 -2.24,1.58 1,0.32 1.7,0.87 2.09,1.63 0.39,0.77 0.45,1.68 0.18,2.72 -0.21,0.82 -0.61,1.61 -1.19,2.38 -0.58,0.78 -1.25,1.4 -2.03,1.86 -0.78,0.46 -1.66,0.74 -2.66,0.85 -0.62,0.07 -2.09,0.11 -4.4,0.12l-6.12 0 4.64 -17.95zm2.86 2.98l-1.06 4.14 2.37 0c1.41,0 2.29,-0.02 2.65,-0.06 0.63,-0.07 1.18,-0.29 1.62,-0.64 0.45,-0.36 0.75,-0.82 0.9,-1.4 0.14,-0.55 0.1,-1 -0.12,-1.35 -0.21,-0.35 -0.61,-0.56 -1.2,-0.63 -0.35,-0.04 -1.37,-0.06 -3.07,-0.06l-2.09 0zm-1.83 7.12l-1.25 4.82 3.36 0c1.31,0 2.15,-0.04 2.52,-0.11 0.56,-0.1 1.06,-0.34 1.5,-0.72 0.44,-0.38 0.74,-0.89 0.91,-1.53 0.14,-0.54 0.12,-1 -0.04,-1.37 -0.16,-0.38 -0.47,-0.66 -0.92,-0.83 -0.45,-0.17 -1.5,-0.26 -3.15,-0.26l-2.93 0zm12.45 7.85l4.63 -17.95 7.64 0c1.92,0 3.27,0.16 4.06,0.48 0.79,0.32 1.33,0.9 1.64,1.72 0.31,0.83 0.33,1.77 0.06,2.83 -0.35,1.35 -1.03,2.46 -2.05,3.34 -1.01,0.88 -2.33,1.43 -3.96,1.66 0.66,0.45 1.17,0.96 1.54,1.5 0.37,0.55 0.8,1.53 1.3,2.92l1.29 3.5 -4.34 0 -1.58 -3.92c-0.58,-1.39 -0.99,-2.27 -1.24,-2.63 -0.25,-0.36 -0.55,-0.61 -0.9,-0.74 -0.36,-0.14 -0.95,-0.2 -1.79,-0.2l-0.73 0 -1.94 7.49 -3.63 0zm6.31 -10.35l2.68 0c1.74,0 2.84,-0.08 3.31,-0.23 0.47,-0.14 0.88,-0.4 1.22,-0.76 0.33,-0.36 0.57,-0.81 0.71,-1.35 0.16,-0.6 0.12,-1.09 -0.1,-1.46 -0.23,-0.38 -0.63,-0.61 -1.19,-0.71 -0.28,-0.04 -1.16,-0.06 -2.63,-0.06l-2.83 0 -1.17 4.57zm11.67 10.35l4.64 -17.95 3.63 0 -4.63 17.95 -3.64 0z"/>
 </g>
</svg>
