<svg width="190" height="100" viewBox="0 0 190 100" fill="none" xmlns="http://www.w3.org/2000/svg">
<g clip-path="url(#clip0_4564_77090)">
<path d="M98.1836 59.6387V30.1068H117.745C118.679 30.1144 119.605 30.2758 120.485 30.5843C121.335 30.8925 122.124 31.3431 122.82 31.9164C123.491 32.4918 124.043 33.1919 124.443 33.9774C124.873 34.8002 125.091 35.7153 125.078 36.6415V42.1709C125.082 43.1343 124.847 44.0839 124.393 44.9356C124.846 45.7877 125.081 46.737 125.078 47.7003V53.0788C125.091 54.0051 124.873 54.9202 124.443 55.743C124.057 56.5368 123.503 57.2395 122.82 57.8039C122.124 58.3772 121.335 58.8278 120.485 59.136C119.605 59.4446 118.679 59.6059 117.745 59.6136L98.1836 59.6387ZM115.944 37.7725H106.886V41.1907H115.995C116.042 41.1945 116.09 41.188 116.135 41.1716C116.18 41.1553 116.22 41.1295 116.254 41.096C116.288 41.0626 116.314 41.0223 116.331 40.9778C116.347 40.9334 116.354 40.886 116.35 40.8388V38.1244C116.359 38.0762 116.356 38.0266 116.341 37.9798C116.327 37.933 116.301 37.8904 116.266 37.8557C116.231 37.8211 116.188 37.7954 116.141 37.7809C116.093 37.7664 116.043 37.7635 115.995 37.7725H115.944ZM116.172 48.7056H106.886V52.1238H116.172C116.213 52.1277 116.254 52.1225 116.293 52.1088C116.332 52.095 116.367 52.0729 116.396 52.0441C116.425 52.0152 116.448 51.9804 116.461 51.942C116.475 51.9037 116.481 51.8627 116.477 51.8222V49.0072C116.481 48.9666 116.475 48.9257 116.461 48.8873C116.448 48.849 116.425 48.8141 116.396 48.7853C116.367 48.7565 116.332 48.7344 116.293 48.7206C116.254 48.7069 116.213 48.7017 116.172 48.7056V48.7056Z" fill="#075D63"/>
<path d="M136.064 37.9987V40.7886C136.064 41.0148 136.064 41.1153 136.42 41.1153H148.42C148.231 42.2437 147.916 43.3479 147.482 44.4078C147.155 45.3466 146.627 46.2041 145.934 46.9211C145.218 47.6006 144.348 48.1004 143.397 48.3789C142.265 48.7349 141.083 48.9047 139.896 48.8816C139.287 48.8816 138.703 48.8816 138.094 48.8816H136.293C136.064 48.8816 135.963 49.0072 135.963 49.2334V51.9981C135.963 52.2243 135.963 52.3248 136.318 52.3248H154.408C154.233 53.3096 153.97 54.2769 153.622 55.2152C153.299 56.1233 152.828 56.9725 152.226 57.7285C151.63 58.4228 150.896 58.9876 150.07 59.3874C149.097 59.8165 148.039 60.0227 146.974 59.9906H127.489V37.1191C127.477 36.1878 127.685 35.2667 128.098 34.4298C128.494 33.649 129.046 32.9563 129.721 32.394C130.417 31.8207 131.206 31.3701 132.056 31.0619C132.927 30.5748 133.882 30.2511 134.872 30.1068H154.51C154.332 31.0992 154.069 32.0746 153.723 33.0223C153.409 33.9342 152.937 34.7848 152.328 35.5357C151.738 36.2298 151.002 36.7874 150.171 37.1693C149.204 37.6194 148.143 37.8348 147.076 37.7977L136.47 37.6469C136.191 37.6469 136.064 37.7977 136.064 37.9987Z" fill="#075D63"/>
<path d="M167.044 38.049C167.044 37.8228 167.044 37.6972 166.714 37.6972H154.688C154.883 36.7062 155.154 35.7315 155.499 34.7817C155.796 33.9261 156.224 33.1207 156.768 32.394C157.354 31.7022 158.091 31.152 158.925 30.7855C159.932 30.3184 161.034 30.0863 162.147 30.1069H188.001C187.843 31.1197 187.579 32.1137 187.214 33.0726C186.892 33.9859 186.411 34.8364 185.793 35.586C185.202 36.2783 184.466 36.8356 183.637 37.2196C182.671 37.6435 181.622 37.8495 180.567 37.8228H176C175.951 37.8138 175.901 37.8167 175.854 37.8312C175.806 37.8457 175.764 37.8714 175.729 37.906C175.694 37.9407 175.668 37.9833 175.653 38.0301C175.638 38.0769 175.635 38.1265 175.645 38.1747V53.2548C175.685 54.3067 175.411 55.347 174.858 56.2457C174.357 57.0478 173.67 57.7198 172.854 58.2061C172.006 58.7236 171.081 59.1053 170.114 59.3371C169.111 59.5821 168.094 59.7667 167.069 59.8901L167.044 38.049Z" fill="#075D63"/>
<path fill-rule="evenodd" clip-rule="evenodd" d="M38.9147 54.0838C42.8648 52.3656 46.6884 50.3752 50.3574 48.1271C53.2918 46.2727 55.8692 43.9152 57.9689 41.1651C60.077 38.4169 61.3133 35.1102 61.5209 31.6647C61.8684 28.0375 61.0705 24.393 59.2374 21.2342C57.4029 18.162 54.7757 15.6289 51.6259 13.8953C48.3647 12.0607 44.7843 10.85 41.0713 10.3263C39.2845 10.0471 37.4749 9.93768 35.6671 9.99956H35.4895L24.5543 10.9798L18.6935 18.9974V20.9075C18.3518 21.626 18.0552 22.3646 17.8055 23.1193L18.7949 23.5717L19.0487 30.1064L30.06 28.5984C31.9375 23.2952 35.1343 21.0583 38.7371 21.7872C39.5606 21.8782 40.3529 22.1512 41.0556 22.5863C41.7582 23.0213 42.3532 23.6071 42.7966 24.3005C43.67 25.8259 44.0425 27.5827 43.8622 29.3272C43.4475 32.1814 42.1126 34.8262 40.0564 36.8673C37.5172 39.6695 34.6851 42.1969 31.6077 44.4074C28.3601 46.7448 25.0364 48.9063 21.6112 50.9421L14.3549 55.2399L13.5938 65.1425L57.2585 79.167L58.248 65.419L31.2778 57.7533V57.5773C31.8614 57.2757 34.3732 56.1447 38.9147 54.0838Z" fill="#C72929"/>
<path d="M46.1214 81.0773L47.1109 67.1533L19.7602 59.3871V59.186L27.3717 55.6673C31.3671 53.9297 35.2333 51.9139 38.9412 49.6353C41.9884 47.8052 44.6783 45.4469 46.8826 42.6733C49.0328 39.8598 50.2792 36.4709 50.46 32.9466C50.789 29.2613 49.9841 25.5637 48.1511 22.3403C46.3185 19.247 43.6925 16.6891 40.5396 14.9259C37.2088 13.0498 33.5504 11.8133 29.7567 11.2815C26.2586 10.7153 22.6794 10.8866 19.2528 11.7842C16.2279 12.6187 13.4626 14.1915 11.2099 16.3585C8.95628 18.5618 7.26844 21.268 6.28782 24.2504L19.0752 30.1065C20.978 24.7279 23.7436 22.3403 27.3717 22.9937C28.2149 23.1033 29.0223 23.3997 29.7339 23.8609C30.4455 24.3222 31.043 24.9364 31.4819 25.6579C32.3602 27.1814 32.733 28.9398 32.5475 30.6846C32.1314 33.5489 30.7764 36.1982 28.691 38.2246C26.1335 41.0364 23.2751 43.5646 20.1661 45.7647C16.8932 48.1272 13.5441 50.3139 10.0175 52.3748L2.76115 56.8486L2 66.902L46.1214 81.0773Z" fill="#F04C4D"/>
<path fill-rule="evenodd" clip-rule="evenodd" d="M71.9252 52.928L78.8263 30.6094L75.4265 21.9132L72.4326 22.3656C72.3411 20.7597 71.981 19.1799 71.367 17.6908L76.7204 13.5438L62.8928 11.6588C60.5703 11.3354 58.2083 11.4205 55.9156 11.9101C52.4529 12.5762 49.1584 13.9175 46.2236 15.8561C43.0382 17.9548 40.2832 20.6327 38.1047 23.748C35.7259 27.0483 34.0037 30.7673 33.0303 34.7062V34.7062L45.1326 37.9736L59.3408 27.0153C59.4336 27.5975 59.4845 28.1854 59.493 28.7747C59.2561 31.81 58.3186 34.7508 56.7529 37.3704C54.6515 41.4083 52.2693 45.2966 49.6234 49.0072C46.6296 53.2799 43.382 57.6615 39.8807 62.152L31.8125 72.4819V83.8674L43.8133 90L86.3363 57.3264L71.9252 52.928Z" fill="#045C63"/>
<path d="M86.3375 69.3904V57.2006L63.5029 66.9273V66.7262L70.5055 58.1557C74.4381 53.3803 77.5081 49.4092 79.7408 46.1419C81.8261 43.0834 83.5781 39.8145 84.9674 36.3901C86.2673 33.3341 86.9484 30.0549 86.9718 26.7388C87.1047 23.7944 86.3638 20.876 84.8405 18.3442C83.434 16.1996 81.2726 14.6498 78.7767 13.9961C75.7127 13.2076 72.5028 13.1559 69.4145 13.8453C65.7418 14.5401 62.2475 15.9589 59.139 18.0175C55.7682 20.2492 52.8507 23.0882 50.538 26.3869C48.014 29.8763 46.1802 33.8078 45.1338 37.9735L60.3568 37.4457C61.9045 30.911 64.4924 27.2415 67.9683 26.3618C68.6334 26.1027 69.3629 26.0529 70.0576 26.2193C70.7522 26.3858 71.3782 26.7602 71.8502 27.2917C72.7577 28.5751 73.1962 30.1266 73.0934 31.6901C72.8304 34.8994 71.8419 38.0089 70.2011 40.7884C67.9366 45.053 65.394 49.1668 62.5895 53.1038C59.4434 57.6279 55.9929 62.2524 52.2633 67.0278L43.8398 77.8604V89.9244L86.3375 69.3904Z" fill="#0A8F9B"/>
</g>
<defs>
<clipPath id="clip0_4564_77090">
<rect width="186" height="80" fill="white" transform="translate(2 10)"/>
</clipPath>
</defs>
</svg>
