<svg width="217" height="94" viewBox="0 0 217 94" fill="none" xmlns="http://www.w3.org/2000/svg">
<g clip-path="url(#clip0_14_6)">
<path d="M112.676 58.3255V23.6255H135.393C136.477 23.6345 137.553 23.8241 138.575 24.1865C139.561 24.5487 140.478 25.0783 141.286 25.7519C142.066 26.4278 142.707 27.2505 143.171 28.1735C143.67 29.1402 143.923 30.2155 143.908 31.3038V37.8009C143.914 38.9328 143.64 40.0485 143.113 41.0492C143.639 42.0506 143.912 43.1662 143.908 44.2978V50.6178C143.923 51.7059 143.67 52.7811 143.171 53.7481C142.722 54.6808 142.079 55.5064 141.286 56.1696C140.478 56.8433 139.561 57.3726 138.575 57.7348C137.553 58.0974 136.477 58.287 135.393 58.2959L112.676 58.3255ZM133.301 32.6327H122.782V36.6491H133.36C133.415 36.6537 133.471 36.646 133.523 36.6267C133.575 36.6075 133.622 36.5771 133.661 36.5379C133.701 36.4985 133.731 36.4512 133.75 36.3991C133.769 36.3467 133.777 36.291 133.772 36.2358V33.0461C133.783 32.9897 133.78 32.9313 133.763 32.8762C133.746 32.8212 133.715 32.7713 133.675 32.7306C133.634 32.6898 133.584 32.6597 133.529 32.6427C133.475 32.6255 133.416 32.6221 133.36 32.6327H133.301ZM133.566 45.479H122.782V49.4954H133.566C133.614 49.4999 133.662 49.4941 133.707 49.4778C133.752 49.4617 133.792 49.4356 133.826 49.4019C133.86 49.3679 133.886 49.3269 133.902 49.2818C133.918 49.2367 133.924 49.1887 133.92 49.1412V45.8335C133.924 45.7859 133.918 45.7377 133.902 45.6926C133.886 45.6475 133.86 45.6068 133.826 45.5728C133.792 45.5388 133.752 45.513 133.707 45.4967C133.662 45.4806 133.614 45.4745 133.566 45.479Z" fill="white"/>
<path d="M156.666 32.8986V36.1766C156.666 36.4423 156.666 36.5606 157.078 36.5606H171.015C170.795 37.8863 170.429 39.1837 169.925 40.4291C169.546 41.5324 168.933 42.5399 168.127 43.3822C167.296 44.1807 166.285 44.768 165.181 45.0953C163.867 45.5134 162.493 45.713 161.115 45.6858C160.408 45.6858 159.73 45.6858 159.023 45.6858H156.931C156.666 45.6858 156.548 45.8335 156.548 46.0992V49.3477C156.548 49.6137 156.548 49.7317 156.961 49.7317H177.968C177.765 50.8889 177.46 52.0253 177.055 53.1279C176.68 54.195 176.133 55.1927 175.434 56.0811C174.743 56.897 173.89 57.5604 172.93 58.0302C171.8 58.5344 170.571 58.7767 169.335 58.7389H146.707V31.8649C146.693 30.7706 146.935 29.6884 147.414 28.7051C147.874 27.7875 148.516 26.9737 149.3 26.313C150.107 25.6394 151.024 25.1098 152.011 24.7478C153.023 24.1754 154.131 23.7951 155.281 23.6255H178.086C177.88 24.7915 177.575 25.9377 177.173 27.0512C176.808 28.1228 176.26 29.1221 175.552 30.0044C174.867 30.82 174.013 31.4753 173.048 31.924C171.925 32.4529 170.693 32.7059 169.453 32.6624L157.137 32.485C156.813 32.485 156.666 32.6624 156.666 32.8986Z" fill="white"/>
<path d="M192.641 32.9578C192.641 32.6918 192.641 32.5442 192.258 32.5442H178.292C178.519 31.3799 178.834 30.2345 179.235 29.1185C179.58 28.1132 180.077 27.1669 180.708 26.313C181.389 25.5 182.245 24.8536 183.213 24.423C184.383 23.8742 185.663 23.6015 186.955 23.6255H216.978C216.795 24.8158 216.489 25.9836 216.065 27.1103C215.691 28.1835 215.132 29.1828 214.415 30.0635C213.728 30.8771 212.874 31.5319 211.911 31.9831C210.789 32.4812 209.572 32.7231 208.345 32.6918H203.042C202.986 32.6812 202.927 32.6846 202.872 32.7018C202.818 32.7188 202.768 32.7489 202.727 32.7897C202.687 32.8302 202.656 32.8803 202.639 32.9353C202.622 32.9904 202.619 33.0488 202.63 33.1052V50.8243C202.676 52.0604 202.359 53.2828 201.716 54.3388C201.134 55.2811 200.336 56.0709 199.388 56.6421C198.404 57.2503 197.33 57.6988 196.207 57.971C195.042 58.2589 193.861 58.4759 192.671 58.6209L192.641 32.9578Z" fill="white"/>
<path fill-rule="evenodd" clip-rule="evenodd" d="M43.8475 51.7985C48.4348 49.7797 52.875 47.441 57.1358 44.7995C60.5434 42.6205 63.5367 39.8503 65.9748 36.6192C68.4231 33.3899 69.8588 29.5044 70.0998 25.4561C70.5034 21.1942 69.5768 16.9118 67.4482 13.2003C65.3176 9.59043 62.2667 6.61408 58.6089 4.57702C54.8217 2.42138 50.6637 0.998827 46.352 0.383482C44.277 0.0554172 42.1755 -0.0731387 40.0761 -0.000432204H39.8698L27.171 1.15131L20.3647 10.572V12.8164C19.968 13.6606 19.6236 14.5285 19.3335 15.4152L20.4826 15.9468L20.7772 23.625L33.5646 21.8532C35.745 15.6219 39.4574 12.9936 43.6412 13.85C44.5976 13.9569 45.5176 14.2778 46.3337 14.7889C47.1496 15.3001 47.8405 15.9885 48.3555 16.8032C49.3697 18.5955 49.8024 20.6598 49.5929 22.7095C49.1115 26.0631 47.561 29.1708 45.1733 31.5693C42.2245 34.8618 38.9357 37.8315 35.3618 40.4288C31.5906 43.1752 27.7306 45.715 23.7531 48.1069L15.3264 53.1569L14.4425 64.7925L65.1499 81.2712L66.299 65.1173L34.9788 56.1101V55.9035C35.6564 55.549 38.5735 54.2201 43.8475 51.7985Z" fill="#C72929"/>
<path d="M52.2159 83.5151L53.3648 67.1544L21.6028 58.0289V57.7926L30.4419 53.6582C35.0819 51.6165 39.5715 49.2482 43.8775 46.5706C47.4162 44.4202 50.5399 41.6493 53.0998 38.3904C55.5967 35.0845 57.0443 31.1025 57.2542 26.9613C57.6362 22.6312 56.7015 18.2865 54.5729 14.499C52.4448 10.8644 49.3952 7.85883 45.7336 5.78707C41.8657 3.58264 37.6174 2.12984 33.2115 1.50495C29.1493 0.839619 24.9929 1.04088 21.0135 2.09559C17.5007 3.07615 14.2894 4.92415 11.6734 7.47039C9.05629 10.0592 7.09623 13.239 5.95744 16.7434L20.8073 23.6244C23.017 17.3045 26.2286 14.499 30.4419 15.2668C31.4211 15.3955 32.3588 15.7438 33.1851 16.2858C34.0116 16.8277 34.7054 17.5494 35.2152 18.3972C36.2351 20.1873 36.668 22.2534 36.4526 24.3035C35.9693 27.6692 34.3957 30.782 31.974 33.1631C29.004 36.4669 25.6845 39.4375 22.0742 42.0226C18.2733 44.7987 14.3841 47.3679 10.2886 49.7895L1.86194 55.0463L0.978027 66.859L52.2159 83.5151Z" fill="#F04C4D"/>
<path fill-rule="evenodd" clip-rule="evenodd" d="M82.1805 50.4404L90.1946 24.216L86.2465 13.998L82.7698 14.5296C82.6636 12.6426 82.2453 10.7863 81.5323 9.03666L87.7493 4.16388L71.6914 1.94899C68.9941 1.5691 66.2514 1.66907 63.5887 2.24431C59.5676 3.02698 55.7417 4.603 52.3336 6.88082C48.6343 9.34683 45.435 12.4934 42.9051 16.1538C40.1427 20.0316 38.1427 24.4015 37.0123 29.0297L51.0666 32.869L67.5664 19.993C67.6742 20.677 67.7333 21.3678 67.7433 22.0602C67.4681 25.6267 66.3793 29.082 64.5611 32.16C62.1207 36.9046 59.3543 41.4735 56.2817 45.8333C52.8049 50.8538 49.0335 56.0023 44.9675 61.2785L35.5981 73.4161V86.7942L49.5344 93.9998L98.916 55.6084L82.1805 50.4404Z" fill="#045C63"/>
<path d="M98.9169 69.7835V55.4606L72.3993 66.8894V66.6532L80.5313 56.5827C85.0983 50.9717 88.6634 46.3057 91.2561 42.4664C93.6777 38.8729 95.7123 35.032 97.3258 31.0082C98.8353 27.4173 99.6263 23.5643 99.6534 19.6679C99.8078 16.2082 98.9474 12.7791 97.1785 9.80424C95.5449 7.28441 93.0349 5.46339 90.1366 4.69524C86.5784 3.76876 82.8506 3.70801 79.2643 4.51804C74.9992 5.33444 70.9412 7.00154 67.3314 9.42033C63.4169 12.0426 60.029 15.3785 57.3432 19.2545C54.412 23.3545 52.2825 27.9741 51.0674 32.8687L68.7458 32.2485C70.5429 24.5702 73.5484 20.2585 77.5848 19.2249C78.3573 18.9205 79.2044 18.862 80.011 19.0576C80.8178 19.2531 81.5447 19.6931 82.0928 20.3176C83.1466 21.8255 83.6559 23.6485 83.5366 25.4857C83.2311 29.2566 82.0831 32.9103 80.1777 36.1763C77.548 41.1871 74.5954 46.0207 71.3385 50.6469C67.685 55.9625 63.6779 61.3964 59.3468 67.0074L49.5647 79.7357V93.9111L98.9169 69.7835Z" fill="#0A8F9B"/>
</g>
<defs>
<clipPath id="clip0_14_6">
<rect width="216" height="94" fill="white" transform="translate(0.978027)"/>
</clipPath>
</defs>
</svg>
