<svg id="Layer_1" data-name="Layer 1" xmlns="http://www.w3.org/2000/svg" width="65" height="65" viewBox="0 0 65 65">
  <title>news</title>
  <path d="M63.5497,32.11865A30.92221,30.92221,0,0,1,53.14335,55.32127q-.69155.60687-1.41135,1.18554a32.35263,32.35263,0,0,1-3.84831,2.58748,31.09053,31.09053,0,0,1-29.80771.5269L8.1495,63.85524a.94606.94606,0,0,1-1.30786-.97857L8.12131,52.25393l.09407-.79038a32.20041,32.20041,0,0,1-2.42754-3.50012V47.954A30.94058,30.94058,0,0,1,2.24068,39.1472v-.00942c-.113-.50807-.21645-1.00677-.30109-1.52425a27.1982,27.1982,0,0,1-.37638-2.9356c-.05645-.63039-.09407-1.27025-.10349-1.91947-.00942-.207-.00942-.42336-.00942-.63981A31.37629,31.37629,0,0,1,3.04042,22.258,31.07014,31.07014,0,0,1,54.13128,9.83814,30.41877,30.41877,0,0,1,57.59379,13.837a28.81442,28.81442,0,0,1,2.34283,3.726v.00942a30.67457,30.67457,0,0,1,3.0956,8.91971c.08465.461.15994.93148.22581,1.40193A29.86811,29.86811,0,0,1,63.5497,32.11865Z" style="fill: #0e0e0e"/>
  <rect x="9.00114" y="30.69451" width="49.60871" height="13.05492" style="fill: #fff"/>
  <rect x="6.39015" y="20.25057" width="28.72083" height="13.05492" style="fill: #cc181e"/>
  <g>
    <path d="M13.69727,23.90088v5.93018h-1.188l-2.68945-4.064v4.064H8.63232V23.90088h1.1875l2.68945,4.07227V23.90088Z" style="fill: #fff"/>
    <path d="M18.30518,24.86816H16.05664v1.48438h1.99414v.94189H16.05664v1.56934h2.24854v.96729h-3.436V23.90088h3.436Z" style="fill: #fff"/>
    <path d="M18.98486,23.90918h1.27295l1.04346,4.59863,1.20459-4.59863H23.8291l1.13721,4.57275,1.05176-4.57275h1.28125L25.645,29.83105h-1.3999l-1.11133-4.21631-1.1626,4.21631-1.39111.0083Z" style="fill: #fff"/>
    <path d="M30.11719,29.89063c-1.23,0-2.18018-.645-2.19727-1.76465h1.27246a.81337.81337,0,0,0,.89941.78906c.56006,0,.89063-.29736.89063-.72119,0-1.28125-3.05371-.50928-3.04541-2.65576,0-1.06885.86523-1.71387,2.08691-1.71387A1.87193,1.87193,0,0,1,32.145,25.5127H30.83838a.78155.78155,0,0,0-.84814-.7041c-.4668-.01709-.81445.21191-.81445.6958,0,1.1875,3.03711.52588,3.03711,2.61279A1.86825,1.86825,0,0,1,30.11719,29.89063Z" style="fill: #fff"/>
  </g>
  <g>
    <path d="M14.811,39.93164h-2.3584l-.39014,1.12793H10.81543l2.12939-5.93066h1.38281L16.457,41.05957H15.20166Zm-1.1792-3.42773-.85693,2.47754h1.71387Z"/>
    <path d="M19.30029,41.11914c-1.23,0-2.18018-.64453-2.19727-1.76465h1.27246a.81365.81365,0,0,0,.89941.78906c.56006,0,.89111-.29687.89111-.72168,0-1.28125-3.05469-.50879-3.0459-2.65527,0-1.06934.86523-1.71387,2.08691-1.71387a1.87135,1.87135,0,0,1,2.12109,1.68848H20.02148a.78155.78155,0,0,0-.84814-.7041c-.4668-.0166-.81445.21191-.81445.69531,0,1.18848,3.03711.52637,3.03711,2.61328A1.86825,1.86825,0,0,1,19.30029,41.11914Z"/>
    <path d="M24.46777,41.11914c-1.23,0-2.18018-.64453-2.19727-1.76465H23.543a.81365.81365,0,0,0,.89941.78906c.56006,0,.89063-.29687.89063-.72168,0-1.28125-3.05371-.50879-3.04541-2.65527,0-1.06934.86523-1.71387,2.08691-1.71387a1.87162,1.87162,0,0,1,2.12109,1.68848H25.189a.78155.78155,0,0,0-.84814-.7041c-.4668-.0166-.81445.21191-.81445.69531,0,1.18848,3.03711.52637,3.03711,2.61328A1.86825,1.86825,0,0,1,24.46777,41.11914Z"/>
    <path d="M27.59131,35.1377h1.1875v5.92188h-1.1875Z"/>
    <path d="M31.99463,41.11914c-1.23,0-2.18018-.64453-2.19727-1.76465h1.27246a.81365.81365,0,0,0,.89941.78906c.56006,0,.89111-.29687.89111-.72168,0-1.28125-3.05469-.50879-3.0459-2.65527,0-1.06934.86523-1.71387,2.08691-1.71387a1.87108,1.87108,0,0,1,2.12109,1.68848H32.71582a.78155.78155,0,0,0-.84814-.7041c-.4668-.0166-.81445.21191-.81445.69531,0,1.18848,3.03662.52637,3.03662,2.61328A1.8678,1.8678,0,0,1,31.99463,41.11914Z"/>
    <path d="M34.80469,35.1377h4.34375v.959H37.57031v4.96289h-1.1875V36.09668H34.80469Z"/>
    <path d="M43.64551,39.93164h-2.3584l-.39062,1.12793H39.64941l2.12891-5.93066h1.38379L45.291,41.05957H44.03516Zm-1.17969-3.42773-.85645,2.47754h1.71387Z"/>
    <path d="M51.15527,35.12891v5.93066h-1.1875l-2.68945-4.06348v4.06348H46.08984V35.12891h1.18848l2.68945,4.07227V35.12891Z"/>
    <path d="M52.0127,35.1377h4.34375v.959H54.77832v4.96289h-1.1875V36.09668H52.0127Z"/>
  </g>
  <polyline points="6.39 33.305 6.39 20.251 35.111 20.251" style="fill: #fff;opacity: 0.1"/>
  <path d="M28,45H46a0,0,0,0,1,0,0v0a1,1,0,0,1-1,1H27a0,0,0,0,1,0,0v0A1,1,0,0,1,28,45Z" style="fill: #fff"/>
  <path d="M49,45h3a0,0,0,0,1,0,0v0a1,1,0,0,1-1,1H48a0,0,0,0,1,0,0v0A1,1,0,0,1,49,45Z" style="fill: #fff"/>
</svg>
