<svg id="Layer_1" data-name="Layer 1" xmlns="http://www.w3.org/2000/svg" width="65" height="65" viewBox="0 0 65 65">
  <title>news</title>
  <path d="M32.5,63.5h0a31,31,0,0,1-31-31h0a31,31,0,0,1,31-31h28a3,3,0,0,1,3,3v28A31,31,0,0,1,32.5,63.5Z" style="fill: #0f69ff"/>
  <polygon points="58.628 44.576 12.323 44.576 13.437 31.842 59.742 31.842 58.628 44.576" style="opacity: 0.3"/>
  <polygon points="45.547 35.315 8.503 35.315 9.516 23.739 46.56 23.739 45.547 35.315" style="opacity: 0.3"/>
  <polygon points="56.313 42.261 10.008 42.261 11.122 29.527 57.427 29.527 56.313 42.261" style="fill: #fff"/>
  <polygon points="44.389 33 7.345 33 8.358 21.424 45.402 21.424 44.389 33"/>
  <g>
    <path d="M9.6465,24.8271h1.2148l.6128,4.3916,1.5347-4.3916h1.2637l.7041,4.3672,1.3867-4.3672h1.2227l-2.0737,5.6553H14.1753l-.7095-4.0269-1.4624,4.0269-1.33.0078Z" style="fill: #fff"/>
    <path d="M21.5264,25.7427H19.3789l-.124,1.4175h1.9043l-.0786.9H19.1763l-.1313,1.499h2.1475l-.0806.9233H17.83l.4956-5.6631h3.2822Z" style="fill: #fff"/>
    <path d="M24.58,30.4824H22.14l.4946-5.6553h2.334c1.1826,0,1.7852.6157,1.7114,1.4585a1.4581,1.4581,0,0,1-1.0776,1.2969,1.2323,1.2323,0,0,1,.9741,1.3687A1.7781,1.7781,0,0,1,24.58,30.4824Zm.0273-2.4468H23.4888l-.1333,1.5234H24.498c.5508,0,.8984-.2676.94-.7461C25.481,28.3276,25.1577,28.0356,24.6069,28.0356Zm.12-2.293H23.6895l-.124,1.4175h1.0371c.5352,0,.8643-.2422.9043-.7046C25.5469,26.0024,25.2617,25.7427,24.7266,25.7427Z" style="fill: #fff"/>
    <path d="M29.2993,30.5386c-1.1748,0-2.0283-.6157-1.9512-1.6846H28.564a.7025.7025,0,0,0,.7925.7539.8083.8083,0,0,0,.9106-.689c.1069-1.2236-2.8745-.4863-2.686-2.5361a1.9164,1.9164,0,0,1,2.1362-1.6362c1.1582,0,1.9.5913,1.8843,1.6118h-1.248a.6732.6732,0,0,0-.751-.6724.7249.7249,0,0,0-.8364.6646c-.0991,1.1343,2.8564.502,2.6821,2.4956A1.9782,1.9782,0,0,1,29.2993,30.5386Z" style="fill: #fff"/>
    <path d="M32.78,24.8271H33.915L33.42,30.4824H32.2852Z" style="fill: #fff"/>
    <path d="M34.7344,24.8271h4.1484l-.08.9155H37.2949l-.415,4.74H35.7461l.415-4.74H34.6543Z" style="fill: #fff"/>
    <path d="M42.9111,25.7427H40.7637L40.64,27.16h1.9043l-.0791.9H40.5605l-.1309,1.499h2.1475l-.0811.9233H39.2139l.4961-5.6631h3.2822Z" style="fill: #fff"/>
  </g>
  <g>
    <path d="M15.7661,39.1865H13.5132l-.4673,1.0781h-1.19l2.5288-5.6631h1.3213l1.5376,5.6631H16.0439Zm-.84-3.2725L13.9,38.2793h1.6367Z"/>
    <path d="M19.9531,40.32c-1.1748,0-2.0283-.6152-1.9512-1.6846h1.2158a.7025.7025,0,0,0,.7925.7539.808.808,0,0,0,.9106-.6885c.1074-1.2236-2.874-.4863-2.686-2.5361a1.9171,1.9171,0,0,1,2.1362-1.6367c1.1582,0,1.9.5918,1.8843,1.6123h-1.248a.6732.6732,0,0,0-.75-.6729.7254.7254,0,0,0-.8369.665c-.0991,1.1338,2.8564.502,2.6821,2.4951A1.9776,1.9776,0,0,1,19.9531,40.32Z"/>
    <path d="M24.8887,40.32c-1.1748,0-2.0283-.6152-1.9512-1.6846h1.2158a.7025.7025,0,0,0,.7925.7539.808.808,0,0,0,.9106-.6885c.1074-1.2236-2.874-.4863-2.686-2.5361a1.9171,1.9171,0,0,1,2.1362-1.6367c1.1582,0,1.9.5918,1.8843,1.6123h-1.248a.6732.6732,0,0,0-.75-.6729.7254.7254,0,0,0-.8369.665c-.0991,1.1338,2.8564.502,2.6821,2.4951A1.9776,1.9776,0,0,1,24.8887,40.32Z"/>
    <path d="M28.37,34.6094h1.1348L29.01,40.2646H27.875Z"/>
    <path d="M32.0762,40.32c-1.1748,0-2.0283-.6152-1.9512-1.6846h1.2158a.7023.7023,0,0,0,.792.7539.8085.8085,0,0,0,.9111-.6885c.1074-1.2236-2.874-.4863-2.686-2.5361a1.9171,1.9171,0,0,1,2.1362-1.6367c1.1582,0,1.9.5918,1.8848,1.6123h-1.248a.6738.6738,0,0,0-.751-.6729.7254.7254,0,0,0-.8369.665c-.0991,1.1338,2.8564.502,2.6826,2.4951A1.9784,1.9784,0,0,1,32.0762,40.32Z"/>
    <path d="M35.2578,34.6094h4.1484l-.08.915H37.8193l-.415,4.74H36.2705l.415-4.74H35.1777Z"/>
    <path d="M43.3018,39.1865H41.0488l-.4678,1.0781h-1.19l2.5283-5.6631H43.24l1.5381,5.6631H43.5791Zm-.8408-3.2725-1.0254,2.3652h1.6367Z"/>
    <path d="M50.873,34.6016l-.4951,5.6631H49.2432l-2.2285-3.8809-.34,3.8809H45.54l.4951-5.6631H47.17L49.3984,38.49l.34-3.8887Z"/>
    <path d="M51.6914,34.6094H55.84l-.08.915H54.2529l-.415,4.74H52.7041l.415-4.74H51.6113Z"/>
  </g>
  <path d="M35,47.1H54.2a.8.8,0,0,1,.8.8v0a0,0,0,0,1,0,0H35.8a.8.8,0,0,1-.8-.8v0A0,0,0,0,1,35,47.1Z" style="fill: #fff"/>
  <path d="M29,47.1h2.2a.8.8,0,0,1,.8.8v0a0,0,0,0,1,0,0H29.8a.8.8,0,0,1-.8-.8v0A0,0,0,0,1,29,47.1Z" style="fill: #fff"/>
</svg>
