<svg id="Layer_1" data-name="Layer 1" xmlns="http://www.w3.org/2000/svg" width="65" height="65" viewBox="0 0 65 65">
  <title>news</title>
  <path d="M32.5,63.5h0a31,31,0,0,1-31-31h0a31,31,0,0,1,31-31h28a3,3,0,0,1,3,3v28A31,31,0,0,1,32.5,63.5Z"/>
  <polygon points="59.377 44.725 12.012 44.725 13.048 32.883 60.413 32.883 59.377 44.725" style="fill: #fff;opacity: 0.1"/>
  <polygon points="37.931 34.199 7.67 34.199 8.706 22.358 38.967 22.358 37.931 34.199" style="fill: #fff;opacity: 0.1"/>
  <polygon points="58.294 43.642 10.929 43.642 11.965 31.801 59.33 31.801 58.294 43.642" style="fill: #fff"/>
  <polygon points="36.848 33.117 6.587 33.117 7.623 21.275 37.884 21.275 36.848 33.117" style="fill: #ed1b23"/>
  <g>
    <path d="M15.7085,24.082l-.4824,5.5142H14.1216l-2.17-3.7788-.3306,3.7788H10.5161l.4824-5.5142H12.103l2.17,3.7861.3311-3.7861Z" style="fill: #fff"/>
    <path d="M19.917,24.981H17.8262l-.1206,1.38H19.56l-.0767.8755H17.6289l-.1279,1.46h2.0908l-.0786.8989H16.3179L16.8,24.082h3.1953Z" style="fill: #fff"/>
    <path d="M20.63,24.09h1.1826l.5967,4.2754L23.9033,24.09h1.23l.6855,4.252,1.35-4.252H28.36l-2.02,5.5063H25.0386l-.69-3.9209-1.4243,3.9209L21.63,29.604Z" style="fill: #fff"/>
    <path d="M30.4976,29.6514c-1.1436,0-1.9746-.6-1.8994-1.6411h1.1836a.6833.6833,0,0,0,.772.7334.7872.7872,0,0,0,.8867-.67c.1045-1.1914-2.7983-.4736-2.6162-2.4687a1.8667,1.8667,0,0,1,2.08-1.5937c1.1289,0,1.8511.5762,1.8354,1.5693H31.5249a.6556.6556,0,0,0-.7319-.6548.7061.7061,0,0,0-.8135.647c-.0967,1.105,2.7813.4893,2.6118,2.43A1.928,1.928,0,0,1,30.4976,29.6514Z" style="fill: #fff"/>
  </g>
  <g>
    <path d="M17.0161,39.7207H14.8228l-.4541,1.05h-1.16l2.4629-5.5146h1.2852l1.498,5.5146h-1.168Zm-.8179-3.1875L15.2,38.8369h1.5937Z"/>
    <path d="M21.0962,40.8252c-1.1436,0-1.9746-.6-1.8994-1.6406H20.38a.6835.6835,0,0,0,.772.7334.7872.7872,0,0,0,.8867-.67c.104-1.1924-2.7983-.4746-2.6162-2.47a1.8667,1.8667,0,0,1,2.08-1.5937c1.1289,0,1.8506.5762,1.835,1.5693H22.123a.6551.6551,0,0,0-.7314-.6543.7055.7055,0,0,0-.8135.6465c-.0967,1.1055,2.7813.4893,2.6113,2.4307A1.9271,1.9271,0,0,1,21.0962,40.8252Z"/>
    <path d="M25.9038,40.8252c-1.1436,0-1.9746-.6-1.8994-1.6406H25.188a.6835.6835,0,0,0,.772.7334.7872.7872,0,0,0,.8867-.67c.104-1.1924-2.7983-.4746-2.6162-2.47a1.8667,1.8667,0,0,1,2.08-1.5937c1.1289,0,1.8506.5762,1.835,1.5693H26.9307a.6551.6551,0,0,0-.7314-.6543.7055.7055,0,0,0-.8135.6465c-.0967,1.1055,2.7813.4893,2.6113,2.4307A1.9271,1.9271,0,0,1,25.9038,40.8252Z"/>
    <path d="M29.2969,35.2637h1.1045l-.4819,5.5068H28.8149Z"/>
    <path d="M32.9058,40.8252c-1.1436,0-1.9746-.6-1.8994-1.6406H32.19a.6835.6835,0,0,0,.772.7334.7869.7869,0,0,0,.8867-.67c.1045-1.1924-2.7983-.4746-2.6162-2.47a1.8667,1.8667,0,0,1,2.08-1.5937c1.1289,0,1.8506.5762,1.835,1.5693H33.9326a.6551.6551,0,0,0-.7314-.6543.7055.7055,0,0,0-.8135.6465c-.0967,1.1055,2.7813.4893,2.6113,2.4307A1.9265,1.9265,0,0,1,32.9058,40.8252Z"/>
    <path d="M36.0068,35.2637h4.0391l-.0781.8916H38.501l-.4033,4.6152H36.9922l.4043-4.6152H35.9287Z"/>
    <path d="M43.8408,39.7207H41.6475l-.4541,1.05h-1.16l2.4629-5.5146h1.2852l1.498,5.5146h-1.168Zm-.8184-3.1875-.998,2.3037h1.5938Z"/>
    <path d="M51.2168,35.2559l-.4824,5.5146H49.6289l-2.17-3.7793-.33,3.7793H46.0234l.4824-5.5146h1.1055L49.78,39.042l.3311-3.7861Z"/>
    <path d="M52.0166,35.2637h4.0391l-.0781.8916H54.51l-.4043,4.6152H53.002l.4033-4.6152H51.9385Z"/>
  </g>
  <polygon points="6.587 33.117 7.623 21.275 37.884 21.275 6.587 33.117" style="fill: #fff;opacity: 0.1"/>
  <path d="M30,48.15h4.3a.7.7,0,0,1,.7.7v0a0,0,0,0,1,0,0H30.7a.7.7,0,0,1-.7-.7v0a0,0,0,0,1,0,0Z" style="fill: #fff"/>
  <path d="M37,48.15H52.3a.7.7,0,0,1,.7.7v0a0,0,0,0,1,0,0H37.7a.7.7,0,0,1-.7-.7v0A0,0,0,0,1,37,48.15Z" style="fill: #fff"/>
</svg>
