<svg id="Layer_1" data-name="Layer 1" xmlns="http://www.w3.org/2000/svg" width="65" height="65" viewBox="0 0 65 65">
  <title>logo</title>
  <path d="M63.85,32.115A31.22128,31.22128,0,0,1,53.343,55.542q-.69824.61274-1.425,1.197a32.66553,32.66553,0,0,1-3.88553,2.6125,31.39123,31.39123,0,0,1-30.096.532L7.914,64.1585a.95521.95521,0,0,1-1.32051-.988L7.88553,52.445l.095-.798a32.51184,32.51184,0,0,1-2.451-3.534v-.00951a31.23982,31.23982,0,0,1-3.58146-8.892V39.202c-.11405-.513-.21854-1.01651-.304-1.539a27.46125,27.46125,0,0,1-.38-2.964c-.057-.63648-.095-1.28253-.10449-1.938C1.15,32.552,1.15,32.3335,1.15,32.115a31.67975,31.67975,0,0,1,1.6055-9.956,31.37063,31.37063,0,0,1,51.585-12.54,30.713,30.713,0,0,1,3.496,4.0375,29.0931,29.0931,0,0,1,2.36549,3.762V17.428a30.97124,30.97124,0,0,1,3.12554,9.006c.08547.46549.16148.94049.228,1.41549A30.157,30.157,0,0,1,63.85,32.115Z" style="fill: #ed1c24"/>
  <path d="M60.79338,32.1525a28.17721,28.17721,0,0,1-9.48257,21.1429q-.63016.553-1.28606,1.0803a29.48064,29.48064,0,0,1-3.50669,2.35778,28.33058,28.33058,0,0,1-27.16163.48013l-9.0453,3.85819a.86208.86208,0,0,1-1.19176-.8917l1.16607-9.67974.08572-.72022a29.34193,29.34193,0,0,1-2.212-3.18941v-.00858a28.19394,28.19394,0,0,1-3.23227-8.025v-.00858c-.10293-.463-.19723-.9174-.27437-1.38894a24.78378,24.78378,0,0,1-.343-2.675c-.05144-.57443-.08572-1.15749-.0943-1.74908-.00858-.1886-.00858-.38578-.00858-.583a28.591,28.591,0,0,1,1.449-8.98527A28.312,28.312,0,0,1,52.211,11.84987a27.71845,27.71845,0,0,1,3.15513,3.64384A26.25652,26.25652,0,0,1,57.501,18.88893v.00858a27.95154,27.95154,0,0,1,2.8208,8.1279c.07713.42011.14574.84879.20576,1.27748A27.21667,27.21667,0,0,1,60.79338,32.1525Z" style="fill: none;stroke: #fff;stroke-miterlimit: 10"/>
  <g>
    <path d="M10.2666,35.332H13.25v1.31836H8.55273V29.541H10.2666Z" style="fill: #fff;stroke: #fff;stroke-miterlimit: 10;stroke-width: 0.25px"/>
    <path d="M18.10352,35.32227H15.75488l-.41016,1.32813H13.51367L16.12109,29.541h1.61133l2.627,7.10937H18.51855ZM16.165,33.999h1.52832l-.7666-2.46582Z" style="fill: #fff;stroke: #fff;stroke-miterlimit: 10;stroke-width: 0.25px"/>
    <path d="M26.79492,33.24219a4.198,4.198,0,0,1-.38574,1.84082,2.85837,2.85837,0,0,1-1.09668,1.23242,3.05093,3.05093,0,0,1-1.61816.43262,3.09577,3.09577,0,0,1-1.61133-.418,2.85,2.85,0,0,1-1.09668-1.19336,4.07381,4.07381,0,0,1-.41211-1.78223V32.9541a4.22029,4.22029,0,0,1,.38281-1.84375,2.843,2.843,0,0,1,1.09863-1.23242,3.07239,3.07239,0,0,1,1.62891-.43457,3.041,3.041,0,0,1,1.61133.42969,2.8947,2.8947,0,0,1,1.10059,1.22266,4.09333,4.09333,0,0,1,.39844,1.81934Zm-1.74316-.29785a2.98659,2.98659,0,0,0-.35449-1.60938,1.13355,1.13355,0,0,0-1.0127-.54883q-1.28906,0-1.3623,1.93359l-.00488.52246a3.07393,3.07393,0,0,0,.34668,1.60645,1.13337,1.13337,0,0,0,1.03027.56152,1.12184,1.12184,0,0,0,1.001-.55176,2.99935,2.99935,0,0,0,.35645-1.58691Z" style="fill: #fff;stroke: #fff;stroke-miterlimit: 10;stroke-width: 0.25px"/>
    <path d="M30.31543,36.65039V33.5498h-.83008v-.93262h.83008V29.541h2.29a3.37768,3.37768,0,0,1,1.69434.42676,3.00811,3.00811,0,0,1,1.17383,1.20605,3.64448,3.64448,0,0,1,.42773,1.74609v.32715a3.65783,3.65783,0,0,1-.41309,1.75A3.00359,3.00359,0,0,1,34.32617,36.208a3.29139,3.29139,0,0,1-1.67187.44238ZM33.0498,33.5498H32.0293V35.332h.5957a1.33234,1.33234,0,0,0,1.13281-.52539,2.57129,2.57129,0,0,0,.39551-1.55957v-.30762a2.54852,2.54852,0,0,0-.39551-1.55273,1.35643,1.35643,0,0,0-1.15234-.52246H32.0293v1.75293H33.0498Z" style="fill: #fff;stroke: #fff;stroke-miterlimit: 10;stroke-width: 0.25px"/>
    <path d="M42.80078,33.24219A4.198,4.198,0,0,1,42.415,35.083a2.85837,2.85837,0,0,1-1.09668,1.23242,3.05093,3.05093,0,0,1-1.61816.43262,3.09577,3.09577,0,0,1-1.61133-.418,2.85,2.85,0,0,1-1.09668-1.19336,4.07381,4.07381,0,0,1-.41211-1.78223V32.9541a4.22029,4.22029,0,0,1,.38281-1.84375,2.843,2.843,0,0,1,1.09863-1.23242,3.07239,3.07239,0,0,1,1.62891-.43457,3.041,3.041,0,0,1,1.61133.42969,2.8947,2.8947,0,0,1,1.10059,1.22266,4.09333,4.09333,0,0,1,.39844,1.81934Zm-1.04492-4.23633v.06348l-1.29883.00293-.77637-.66406-.77637.66406-1.26953-.00293v-.083l1.57715-1.34961h.94238Zm-.69824,3.93848a2.98659,2.98659,0,0,0-.35449-1.60938,1.13355,1.13355,0,0,0-1.0127-.54883q-1.28906,0-1.3623,1.93359l-.00488.52246a3.07393,3.07393,0,0,0,.34668,1.60645,1.13337,1.13337,0,0,0,1.03027.56152,1.12184,1.12184,0,0,0,1.001-.55176,2.99935,2.99935,0,0,0,.35645-1.58691Zm-2.24609,4.8291a.63633.63633,0,0,1,.26074-.52246,1.13852,1.13852,0,0,1,1.30371,0,.65235.65235,0,0,1,0,1.04492,1.13852,1.13852,0,0,1-1.30371,0A.63762.63762,0,0,1,38.81152,37.77344Z" style="fill: #fff;stroke: #fff;stroke-miterlimit: 10;stroke-width: 0.25px"/>
    <path d="M49.62207,36.65039H47.918l-2.51953-4.42383v4.42383H43.68457V29.541h1.71387l2.51465,4.42383V29.541h1.709Z" style="fill: #fff;stroke: #fff;stroke-miterlimit: 10;stroke-width: 0.25px"/>
    <path d="M56.52539,35.77148a2.75817,2.75817,0,0,1-1.15625.708,4.99944,4.99944,0,0,1-1.66992.26855,2.98006,2.98006,0,0,1-2.23242-.85449,3.45965,3.45965,0,0,1-.89258-2.37793l-.00488-.61523a4.24874,4.24874,0,0,1,.37012-1.834,2.76224,2.76224,0,0,1,1.0625-1.20605,3.00927,3.00927,0,0,1,1.59961-.42187,3.14976,3.14976,0,0,1,2.0625.60742,2.57739,2.57739,0,0,1,.85742,1.81445H54.87109a1.34623,1.34623,0,0,0-.38086-.84961,1.22664,1.22664,0,0,0-.83008-.25391,1.11694,1.11694,0,0,0-.99609.54688,2.92292,2.92292,0,0,0-.35742,1.5625v.42969a2.86126,2.86126,0,0,0,.36328,1.59863,1.29072,1.29072,0,0,0,1.14648.53516,1.444,1.444,0,0,0,.99609-.29785V34.02832H53.62109V32.85156h2.9043Z" style="fill: #fff;stroke: #fff;stroke-miterlimit: 10;stroke-width: 0.25px"/>
  </g>
</svg>
