<svg id="Layer_1" data-name="Layer 1" xmlns="http://www.w3.org/2000/svg" width="45" height="45" viewBox="0 0 45 45">
  <title>news</title>
  <path d="M43.9149,22.2365a21.1911,21.1911,0,0,1-.542,4.8174c-.12.557-.271,1.099-.4441,1.6409a21.43,21.43,0,0,1-6.1874,9.5445c-.3237.2785-.6473.557-.9785.82a22.6473,22.6473,0,0,1-2.65,1.7839,21.4629,21.4629,0,0,1-20.5643.3613L5.7068,44.1256a.65.65,0,0,1-.9033-.67l.8807-7.3315.0678-.5419A22.306,22.306,0,0,1,4.0734,33.166v-.0075A21.3366,21.3366,0,0,1,1.6271,27.084v-.0075c-.0753-.3462-.1506-.6925-.2032-1.0462A17.928,17.928,0,0,1,1.16,24.0054c-.0377-.4366-.0678-.8807-.0678-1.3248-.0075-.143-.0075-.2936-.0075-.4441a21.6563,21.6563,0,0,1,1.0915-6.8046,21.4381,21.4381,0,0,1,35.2424-8.566,20.8651,20.8651,0,0,1,2.3936,2.7625,18.851,18.851,0,0,1,1.43,2.2431c.06.1053.12.2107.1806.3237v.0075a21.2184,21.2184,0,0,1,2.1377,6.15q.09.4855.1581.971A20.7351,20.7351,0,0,1,43.9149,22.2365Z" style="fill: #015198"/>
  <path d="M22.3262,9.7334c4.7607,0,8.0859,2.6953,8.0859,7.4209S27.0166,24.19,22.3613,24.19l-.1406,2.6943H17.916l-.1758-5.95h1.5752c3.6406,0,6.3711-.665,6.3359-3.8154a3.0615,3.0615,0,0,0-3.3252-3.29,3.0661,3.0661,0,0,0-3.3955,3.29h-4.62C14.24,12.8838,17.2158,9.7334,22.3262,9.7334ZM20.0508,35.251a2.8751,2.8751,0,1,1,0-5.74,2.872,2.872,0,1,1,0,5.74Z" style="fill: #fff"/>
</svg>
