<svg id="Layer_1" data-name="Layer 1" xmlns="http://www.w3.org/2000/svg" width="45" height="45" viewBox="0 0 45 45">
  <title>news</title>
  <path d="M22.5,43.5h0a21,21,0,0,0,21-21h0a21,21,0,0,0-21-21H2.5a1,1,0,0,0-1,1v20A21,21,0,0,0,22.5,43.5Z" style="fill: #015198"/>
  <path d="M23.3262,9.7334c4.7607,0,8.0859,2.6953,8.0859,7.42s-3.3955,7.0356-8.0508,7.0356l-.1406,2.6953H18.916l-.1758-5.95h1.5752c3.6406,0,6.3711-.665,6.3359-3.8154a3.0619,3.0619,0,0,0-3.3252-3.2905,3.0665,3.0665,0,0,0-3.3955,3.2905h-4.62C15.24,12.8833,18.2158,9.7334,23.3262,9.7334ZM21.0508,35.251a2.8756,2.8756,0,1,1,0-5.7412,2.8725,2.8725,0,1,1,0,5.7412Z" style="fill: #fff"/>
</svg>
