<svg id="Layer_1" data-name="Layer 1" xmlns="http://www.w3.org/2000/svg" width="65" height="65" viewBox="0 0 65 65">
  <title>news</title>
  <path d="M63.85,32.115A31.2213,31.2213,0,0,1,53.343,55.542q-.6982.6127-1.425,1.197a32.6655,32.6655,0,0,1-3.8855,2.6125,31.3912,31.3912,0,0,1-30.096.532L7.914,64.1585a.9552.9552,0,0,1-1.3205-.988L7.8855,52.445l.095-.798a32.5118,32.5118,0,0,1-2.451-3.534v-.01a31.24,31.24,0,0,1-3.5815-8.892v-.01c-.1141-.513-.2185-1.0165-.304-1.539a27.4613,27.4613,0,0,1-.38-2.964c-.057-.6365-.095-1.2825-.1045-1.938-.01-.209-.01-.4275-.01-.646a31.68,31.68,0,0,1,1.6055-9.956A31.3706,31.3706,0,0,1,54.34,9.619a30.713,30.713,0,0,1,3.496,4.0375,29.0931,29.0931,0,0,1,2.3655,3.762v.01a30.9712,30.9712,0,0,1,3.1255,9.006c.0855.4655.1615.94.228,1.4155A30.157,30.157,0,0,1,63.85,32.115Z" style="fill: #860182"/>
  <g>
    <path d="M13.5,32.8h41a0,0,0,0,1,0,0V40a3,3,0,0,1-3,3h-41a0,0,0,0,1,0,0V35.8A3,3,0,0,1,13.5,32.8Z" style="opacity: 0.2"/>
    <path d="M12.5,21.2H46.7a0,0,0,0,1,0,0v9a3,3,0,0,1-3,3H9.5a0,0,0,0,1,0,0v-9A3,3,0,0,1,12.5,21.2Z" style="opacity: 0.2"/>
    <path d="M15.1,28.8H56.5a0,0,0,0,1,0,0v9a3,3,0,0,1-3,3H12.1a0,0,0,0,1,0,0v-9A3,3,0,0,1,15.1,28.8Z" style="fill: #fff"/>
    <path d="M11.5,19.2H45.7a0,0,0,0,1,0,0v9a3,3,0,0,1-3,3H8.5a0,0,0,0,1,0,0v-9A3,3,0,0,1,11.5,19.2Z"/>
    <g>
      <path d="M12.459,22.8057H13.54l.8857,3.9033,1.0229-3.9033h1.1235l.9648,3.8818.8931-3.8818h1.0879l-1.4048,5.0269h-1.188l-.9438-3.58-.9868,3.58-1.1807.0073Z" style="fill: #fff"/>
      <path d="M23.0869,23.6191H21.1787V24.88h1.6924v.7993H21.1787v1.3325h1.9082v.8208H20.17V22.7983h2.9165Z" style="fill: #fff"/>
      <path d="M26.1689,27.8325H24.001V22.8057h2.0742c1.0513,0,1.6348.5469,1.6348,1.2959a1.1586,1.1586,0,0,1-.8569,1.1523,1.2193,1.2193,0,0,1,.9722,1.2173C27.8252,27.2705,27.2129,27.8325,26.1689,27.8325Zm-.2378-4.2134h-.9219V24.88h.9219c.4751,0,.749-.2163.749-.627C26.68,23.85,26.4063,23.6191,25.9312,23.6191Zm.0718,2.0381h-.9937v1.3545h1.0151c.49,0,.7783-.2378.7783-.6631C26.8027,25.917,26.4927,25.6572,26.0029,25.6572Z" style="fill: #fff"/>
      <path d="M30.3662,27.8828c-1.0444,0-1.8511-.5474-1.8657-1.498h1.0806a.69.69,0,0,0,.7632.67c.4756,0,.7563-.252.7563-.6123,0-1.0874-2.5928-.4321-2.5854-2.2539,0-.9077.7344-1.4551,1.7715-1.4551a1.5892,1.5892,0,0,1,1.8008,1.4331H30.978a.6637.6637,0,0,0-.72-.5977c-.396-.0142-.6914.18-.6914.59,0,1.0088,2.5786.4468,2.5786,2.2188A1.5858,1.5858,0,0,1,30.3662,27.8828Z" style="fill: #fff"/>
      <path d="M33.0156,22.8057h1.0078v5.0269H33.0156Z" style="fill: #fff"/>
      <path d="M34.75,22.8057h3.6875v.8135h-1.34v4.2134H36.09V23.6191H34.75Z" style="fill: #fff"/>
      <path d="M42.0879,23.6191H40.1787V24.88h1.6924v.7993H40.1787v1.3325h1.9092v.8208h-2.917V22.7983h2.917Z" style="fill: #fff"/>
    </g>
    <g>
      <path d="M18.5615,37.0176H16.5591l-.3311.958H15.1689l1.8081-5.0342h1.1738l1.8076,5.0342H18.8926Zm-1.001-2.9092-.7275,2.1025h1.4546Z"/>
      <path d="M22.37,38.0264c-1.0444,0-1.8511-.5479-1.8657-1.498H21.585a.6893.6893,0,0,0,.7632.6689c.4756,0,.7563-.252.7563-.6113,0-1.0879-2.5928-.4326-2.5854-2.2549,0-.9072.7344-1.4541,1.7715-1.4541A1.5889,1.5889,0,0,1,24.0913,34.31H22.9819a.6634.6634,0,0,0-.72-.5977c-.396-.0146-.6914.18-.6914.5908,0,1.0078,2.5786.4463,2.5786,2.2178A1.5865,1.5865,0,0,1,22.37,38.0264Z"/>
      <path d="M26.7549,38.0264c-1.0444,0-1.8511-.5479-1.8657-1.498H25.97a.6893.6893,0,0,0,.7632.6689c.4756,0,.7563-.252.7563-.6113,0-1.0879-2.5928-.4326-2.5854-2.2549,0-.9072.7344-1.4541,1.7715-1.4541A1.5889,1.5889,0,0,1,28.4761,34.31H27.3667a.6634.6634,0,0,0-.72-.5977c-.396-.0146-.6914.18-.6914.5908,0,1.0078,2.5786.4463,2.5786,2.2178A1.5865,1.5865,0,0,1,26.7549,38.0264Z"/>
      <path d="M29.4038,32.9482h1.0083v5.0273H29.4038Z"/>
      <path d="M33.1406,38.0264c-1.0439,0-1.8506-.5479-1.8652-1.498H32.356a.69.69,0,0,0,.7632.6689c.4756,0,.7559-.252.7559-.6113,0-1.0879-2.5923-.4326-2.585-2.2549,0-.9072.7344-1.4541,1.7715-1.4541A1.5889,1.5889,0,0,1,34.8623,34.31H33.7529a.6632.6632,0,0,0-.72-.5977c-.3965-.0146-.6919.18-.6919.5908,0,1.0078,2.5786.4463,2.5786,2.2178A1.5866,1.5866,0,0,1,33.1406,38.0264Z"/>
      <path d="M35.5234,32.9482h3.6875v.8145h-1.34v4.2129H36.8633V33.7627h-1.34Z"/>
      <path d="M43.0264,37.0176h-2.002l-.3311.958H39.6348l1.8076-5.0342h1.1738l1.8076,5.0342H43.3584Zm-1.001-2.9092-.7275,2.1025h1.4551Z"/>
      <path d="M49.3994,32.9414v5.0342H48.3906l-2.2832-3.45v3.45H45.1V32.9414h1.0078l2.2832,3.457v-3.457Z"/>
      <path d="M50.125,32.9482h3.6875v.8145h-1.34v4.2129H51.4648V33.7627h-1.34Z"/>
    </g>
    <path d="M8.5,31.2v-9a3,3,0,0,1,3-3H45.7" style="fill: #fff;opacity: 0.1"/>
    <rect x="32.5" y="45.2" width="19" height="0.6" rx="0.3" ry="0.3" style="fill: #fff"/>
    <rect x="28.5" y="45.2" width="2" height="0.6" rx="0.3" ry="0.3" style="fill: #fff"/>
  </g>
</svg>
