<svg id="Layer_1" data-name="Layer 1" xmlns="http://www.w3.org/2000/svg" width="65" height="65" viewBox="0 0 65 65">
  <title>question</title>
  <path d="M32.5,63.5h-.00006A30.99994,30.99994,0,0,1,1.5,32.50006V32.5a31,31,0,0,1,31-31h28a3,3,0,0,1,3,3v28A31,31,0,0,1,32.5,63.5Z" style="fill: #001d42"/>
  <path d="M32.5,60.4775h-.00006A27.97744,27.97744,0,0,1,4.5225,32.50006V32.5A27.9775,27.9775,0,0,1,32.5,4.5225H57.77A2.7075,2.7075,0,0,1,60.4775,7.23V32.5A27.9775,27.9775,0,0,1,32.5,60.4775Z" style="fill: #0c0c0c"/>
  <path d="M34.18555,16.71582c6.52832,0,11.08887,3.69629,11.08887,10.17725,0,6.48-4.65723,9.64795-11.041,9.64795L34.041,40.23828h-5.9043L27.897,32.07715h2.16016c4.9917,0,8.73584-.91211,8.689-5.23242a4.19939,4.19939,0,0,0-4.56055-4.51221c-2.92871,0-4.65674,1.68018-4.65674,4.51221H23.19238C23.09619,21.03613,27.17676,16.71582,34.18555,16.71582ZM31.06494,51.71094a3.9434,3.9434,0,1,1,0-7.873,3.93907,3.93907,0,1,1,0,7.873Z" style="fill: #fff"/>
</svg>
