<svg id="Layer_1" data-name="Layer 1" xmlns="http://www.w3.org/2000/svg" viewBox="0 0 65 65"><defs><style>.cls-1{fill:#ef4136;}.cls-2{fill:#f6f5f5;}.cls-3{fill:#ea232c;}.cls-4{fill:#e9242d;}.cls-5{fill:#e9252e;}.cls-6{fill:#cd7275;}.cls-7{fill:#fe8283;}.cls-8{fill:#ea252d;}.cls-9{fill:#fac1c2;}.cls-10{fill:#f6c8c9;}.cls-11{fill:#f7c6c4;}.cls-12{fill:#a64043;}.cls-13{fill:#efd5d4;}</style></defs><path class="cls-1" d="M32.5,1.5h28a3,3,0,0,1,3,3v28a31,31,0,0,1-31,31h0a31,31,0,0,1-31-31h0A31,31,0,0,1,32.5,1.5Z"/><path d="M32.5,60A27.53,27.53,0,0,1,32.5,5H57.77A2.27,2.27,0,0,1,60,7.23V32.5A27.56,27.56,0,0,1,32.5,60Z"/><path d="M57.77,5.43a1.81,1.81,0,0,1,1.81,1.8V32.5A27.08,27.08,0,1,1,32.5,5.43H57.77m0-.91H32.5a28,28,0,0,0-28,28h0a28,28,0,0,0,28,28h0a28,28,0,0,0,28-28h0V7.23a2.71,2.71,0,0,0-2.71-2.71Z"/><path class="cls-2" d="M35.75,29.71v6.67c0,.28,0,.48.39.48,2.74,0,5.47,0,8.21,0,.38,0,.46-.14.46-.48,0-.79,0-1.57,0-2.36,0-.42-.1-.56-.54-.55-1.44,0-2.87,0-4.31,0-.41,0-.54-.13-.5-.52a7.75,7.75,0,0,0,0-1.18c0-.35.09-.47.45-.46,1.49,0,3,0,4.47,0,.33,0,.44-.1.44-.44,0-.8,0-1.61,0-2.41,0-.38-.13-.45-.47-.44-1.11,0-2.22,0-3.34,0-.49,0-1.15.17-1.43-.08s0-1-.11-1.47S39.59,26,40,26c1.42,0,2.84,0,4.26,0,.41,0,.57-.08.55-.52,0-.77,0-1.54,0-2.31,0-.44-.14-.54-.55-.54q-4,0-8,0c-.41,0-.51.12-.51.52C35.76,25.34,35.75,27.53,35.75,29.71Z"/><path class="cls-3" d="M57.26,28.57a8.92,8.92,0,0,0-.39,1.24,4.85,4.85,0,0,1-4.28,3.08,23.12,23.12,0,0,1-2.76,0c-.34,0-.45.09-.45.43,0,1,0,2,0,3,0,.36-.06.52-.47.5-.94,0-1.88,0-2.82,0-.32,0-.45-.08-.45-.43,0-4.46,0-8.92,0-13.38,0-.27,0-.41.36-.4,2.2,0,4.41-.09,6.61.06a4.76,4.76,0,0,1,4.52,4.22c0,.09,0,.18.1.21Zm-7.87-.77c0,.53,0,1.06,0,1.59,0,.2,0,.32.28.31.74,0,1.47,0,2.2,0a1.74,1.74,0,0,0,1.57-1.78A1.69,1.69,0,0,0,52.08,26a14.31,14.31,0,0,0-2.45-.06c-.26,0-.24.19-.24.36Z"/><path class="cls-4" d="M14,21.17c.52.17,1.07.13,1.58.35a4.29,4.29,0,0,1,2.58,4.55A6.32,6.32,0,0,1,17,29c-.82,1.15-1.66,2.28-2.49,3.42l-.46.65h4.27l.14.06v0c-.08,1.11,0,2.21,0,3.31h0l-9.84,0c-.84,0-.84,0-.85-.83.06-.1.12-.2.19-.3l5.55-7.42a4,4,0,0,0,.81-1.8,1.34,1.34,0,0,0-1.72-1.58c-.69.15-1.06.68-1.12,1.68,0,.31-.09.41-.41.41-.94,0-1.88,0-2.82,0-.33,0-.43-.11-.38-.41,0-.12,0-.24,0-.36.19-2.23,1.19-4.05,3.71-4.59.12,0,.23-.06.27-.19h.31c.18.21.41.05.61.1H14Zm-.12,1.76a9.74,9.74,0,0,1,1.52.59,1.83,1.83,0,0,0-1.2-.69,4.71,4.71,0,0,0-2.27,0c-1.29.25-2.34,1.26-2.1,2.08a5.18,5.18,0,0,1,.56-1,3.89,3.89,0,0,1,1.77-.93Zm-1.14,8.79c-.83,1-1.58,2.07-2.41,3.21h6c.14,0,.28,0,.31-.18-.13-.21-.34-.12-.51-.12H11.49c-.18,0-.38.07-.53-.1l1.92-2.67c.28-.44.77-.74.86-1.41A8.53,8.53,0,0,0,12.78,31.72Zm2.86-8a6.76,6.76,0,0,1,.46,1.07A4.53,4.53,0,0,1,15,28.66c-.3.39-.58.79-.89,1.22.22.05.28,0,.35-.11a18.19,18.19,0,0,0,1.37-2,4.11,4.11,0,0,0,.46-3.1A1.37,1.37,0,0,0,15.64,23.75Z"/><path class="cls-5" d="M39.81,40.58a8,8,0,0,1-.61-.53,1.4,1.4,0,1,1,2.17-1.78,1.43,1.43,0,0,1-.23,2,2.24,2.24,0,0,1-.6.25c-.21,0-.45-.12-.63.09Z"/><path class="cls-6" d="M7.66,35.65h.11c0,.83,0,.83.85.83l9.84,0c-.08.13-.21.09-.32.09H7.66Z"/><path class="cls-5" d="M13.62,21.18h-.83a.38.38,0,0,0,0-.1h.82Z"/><path class="cls-7" d="M12.8,21.08a.38.38,0,0,1,0,.1c-.2-.05-.43.11-.61-.1Z"/><path class="cls-7" d="M13.62,21.18v-.1H14s0,.06,0,.09Z"/><path class="cls-3" d="M25.24,22.64a19.22,19.22,0,0,1,4.19.24,6.53,6.53,0,0,1,5.09,6.33A7.34,7.34,0,0,1,33,34.39a6.5,6.5,0,0,1-4.72,2.38c-2,.17-4,0-6,.08-.35,0-.36-.18-.36-.45,0-1.59,0-3.18,0-4.77,0-.38-.08-.5-.47-.49-1,0-1,0-1-1.07,0-.48,0-1,0-1.43s.12-.4.41-.4c1.1,0,1.1,0,1.1-1.16,0-1.32,0-2.64,0-3.95,0-.38.07-.51.46-.5C23.24,22.66,24.11,22.64,25.24,22.64Zm2.48,7c0,.46,0,.83,0,1.21s-.08.33-.32.32c-.48,0-1,0-1.46,0-.31,0-.4.11-.39.41,0,.5,0,1,0,1.49,0,.32.07.46.42.44.5,0,1,0,1.5,0a3.08,3.08,0,0,0,3.25-2.72c.44-2.42-.53-4.82-3.4-4.75-.58,0-1.36-.27-1.68.11s-.07,1.18-.09,1.79c0,0,0,0,0,.05,0,.22.09.31.3.3a3.38,3.38,0,0,1,.45,0c.45,0,1.05-.15,1.32.08S27.67,29.23,27.72,29.62Z"/><path class="cls-8" d="M35.75,29.71c0-2.18,0-4.37,0-6.56,0-.4.1-.52.51-.52q4,0,8,0c.41,0,.57.1.55.54,0,.77,0,1.54,0,2.31,0,.44-.14.53-.55.52-1.42,0-2.84,0-4.26,0-.41,0-.6.07-.54.52s-.22,1.18.11,1.47.94.08,1.43.08c1.12,0,2.23,0,3.34,0,.34,0,.48.06.47.44,0,.8,0,1.61,0,2.41,0,.34-.11.44-.44.44-1.49,0-3,0-4.47,0-.36,0-.47.11-.45.46a7.75,7.75,0,0,1,0,1.18c0,.39.09.53.5.52,1.44,0,2.87,0,4.31,0,.44,0,.56.13.54.55,0,.79,0,1.57,0,2.36,0,.34-.08.48-.46.48-2.74,0-5.47,0-8.21,0-.4,0-.39-.2-.39-.48Z"/><path class="cls-6" d="M18.46,36.48c0-1.1-.06-2.2,0-3.31A15.26,15.26,0,0,1,18.46,36.48Z"/><path class="cls-6" d="M18.47,33.15l-.14-.06A.1.1,0,0,1,18.47,33.15Z"/><path class="cls-9" d="M12.88,31.85,11,34.52c-.11.38.2.19.3.19l5.41,0c0,.19-.17.18-.31.18h-6c.83-1.14,1.58-2.2,2.41-3.21Z"/><path class="cls-10" d="M15.64,23.75a1.37,1.37,0,0,1,.65.95,4.11,4.11,0,0,1-.46,3.1,18.19,18.19,0,0,1-1.37,2c-.07.09-.13.16-.35.11.31-.43.59-.83.89-1.22a4.53,4.53,0,0,0,1.1-3.84A6.76,6.76,0,0,0,15.64,23.75Z"/><path class="cls-11" d="M12.2,22.93a3.89,3.89,0,0,0-1.77.93,5.18,5.18,0,0,0-.56,1c-.24-.82.81-1.83,2.1-2.08C12,22.91,12.11,22.92,12.2,22.93Z"/><path class="cls-12" d="M16.67,34.75l-5.41,0c-.1,0-.41.19-.3-.19.15.17.35.1.53.1h4.67C16.33,34.63,16.54,34.54,16.67,34.75Z"/><path class="cls-13" d="M12.2,22.93c-.09,0-.18,0-.23-.11a4.71,4.71,0,0,1,2.27,0c-.09.11-.21.08-.32.1Z"/><path class="cls-11" d="M13.92,22.93c.11,0,.23,0,.32-.1a1.83,1.83,0,0,1,1.2.69A9.74,9.74,0,0,0,13.92,22.93Z"/><path class="cls-10" d="M12.88,31.85l-.1-.13a8.53,8.53,0,0,1,1-1.28C13.65,31.11,13.16,31.41,12.88,31.85Z"/></svg>