<svg id="Layer_1" data-name="Layer 1" xmlns="http://www.w3.org/2000/svg" viewBox="0 0 70 70"><defs><style>.cls-1{fill:#ef4136;}.cls-2{opacity:0.2;isolation:isolate;}.cls-3{fill:#fff;}</style></defs><path class="cls-1" d="M34.38.85H65.52a3.33,3.33,0,0,1,3.33,3.34V35.32A34.47,34.47,0,0,1,34.38,69.79h0A34.47,34.47,0,0,1-.09,35.32h0A34.47,34.47,0,0,1,34.38.85Z"/><polygon points="45.62 35.1 5.34 35.1 6.59 18.68 46.88 18.68 45.62 35.1"/><polygon class="cls-2" points="47.9 36.75 7.93 36.75 9.18 20.32 49.15 20.32 47.9 36.75"/><polygon class="cls-2" points="63.02 51.53 18.31 51.53 19.71 35.1 64.42 35.1 63.02 51.53"/><polygon class="cls-3" points="60.41 48.25 15.4 48.25 16.62 33.46 61.63 33.46 60.41 48.25"/><path d="M27.43,37.29H25l-.58,6.81H22.78l.58-6.81H21l.12-1.36h6.47Z"/><path d="M29.35,44.1H27.77L28.28,38h1.59Zm-1-7.65a.93.93,0,0,1,.29-.6,1,1,0,0,1,.67-.23.79.79,0,0,1,.62.23.73.73,0,0,1,.19.6.88.88,0,0,1-.29.61.94.94,0,0,1-.66.23.75.75,0,0,1-.82-.84Z"/><path d="M32.62,38v.71a2.22,2.22,0,0,1,1.76-.82,1.55,1.55,0,0,1,1.35.57,2.57,2.57,0,0,1,.33,1.69l-.34,3.93H34.14l.33-3.88a1,1,0,0,0-.16-.76.91.91,0,0,0-.7-.23,1.2,1.2,0,0,0-1,.59l-.37,4.28H30.62L31.13,38Z"/><path d="M42.22,36.53,42.1,38h1l-.1,1.2H42l-.26,3a.74.74,0,0,0,.08.48.58.58,0,0,0,.47.15,3.73,3.73,0,0,0,.47,0l-.11,1.23a3.48,3.48,0,0,1-1,.14c-1.11,0-1.63-.57-1.55-1.72l.28-3.27h-.86l.1-1.2h.86l.13-1.49Z"/><path d="M50.71,37.49A2.55,2.55,0,0,1,50.19,39a1.92,1.92,0,0,1-1.27.59l-.39,4.51H47.05v-.62a2.15,2.15,0,0,1-1.68.73,1.65,1.65,0,0,1-1.4-.56A2.27,2.27,0,0,1,43.61,42L44,38h1.57L45.19,42c0,.64.2.95.76.95a1.24,1.24,0,0,0,1.15-.57l.37-4.3h1.58L49,38.8a.83.83,0,0,0,.55-.34,2.47,2.47,0,0,0,.23-1Zm-3.66-1.9h1.72l-1.66,1.74H45.82Z"/><path d="M52.84,42.9a1.06,1.06,0,0,0,.73-.24,1,1,0,0,0,.34-.66h1.48A2.2,2.2,0,0,1,55,43.13a2.46,2.46,0,0,1-.95.8,2.73,2.73,0,0,1-1.26.28,2.31,2.31,0,0,1-1.93-.83,3.08,3.08,0,0,1-.53-2.28V41a3.59,3.59,0,0,1,.92-2.24,2.72,2.72,0,0,1,2.06-.84,2.28,2.28,0,0,1,1.73.65,2.18,2.18,0,0,1,.53,1.73H54.06a1.06,1.06,0,0,0-.22-.77.87.87,0,0,0-.69-.3,1,1,0,0,0-.87.41,2.69,2.69,0,0,0-.4,1.35v.16A2.39,2.39,0,0,0,52,42.49.86.86,0,0,0,52.84,42.9Z"/><path class="cls-3" d="M18.44,23.52H16l-.58,6.81H13.79l.58-6.81H12l.12-1.36h6.47Z"/><path class="cls-3" d="M22,25.78a3.66,3.66,0,0,0-.57-.05,1.25,1.25,0,0,0-1.22.63l-.34,4H18.33l.52-6.07h1.49l0,.72a1.62,1.62,0,0,1,1.39-.84,1.56,1.56,0,0,1,.48.08Z"/><path class="cls-3" d="M22.31,27.24a4,4,0,0,1,.48-1.62,2.8,2.8,0,0,1,1.07-1.09,3.06,3.06,0,0,1,1.51-.39,2.39,2.39,0,0,1,2,.87.83.83,0,0,0,.38-.5,3.31,3.31,0,0,0,.16-.82h1a2.14,2.14,0,0,1-1.13,2,3.68,3.68,0,0,1,.19,1.58v.11A4,4,0,0,1,27.42,29a2.87,2.87,0,0,1-1.07,1.09,3,3,0,0,1-1.51.38,2.42,2.42,0,0,1-1.91-.78,2.9,2.9,0,0,1-.64-2.1Zm1.54,4.45a.77.77,0,0,1,.29-.55,1,1,0,0,1,.65-.22.88.88,0,0,1,.62.22.64.64,0,0,1,.2.55.81.81,0,0,1-.29.56,1,1,0,0,1-.66.22.8.8,0,0,1-.62-.22.68.68,0,0,1-.19-.56Zm0-4.34a2.27,2.27,0,0,0,.21,1.33.92.92,0,0,0,.87.45,1.14,1.14,0,0,0,.93-.45,2.74,2.74,0,0,0,.44-1.45,2.14,2.14,0,0,0-.21-1.31.92.92,0,0,0-.86-.47,1.13,1.13,0,0,0-.94.47,2.86,2.86,0,0,0-.44,1.43Z"/><path class="cls-3" d="M33.25,30.33H31.67l.73-8.62H34Z"/><path class="cls-3" d="M37,28l1.41-3.77h1.69l-3,7-.16.32a2,2,0,0,1-1.84,1.19,2.26,2.26,0,0,1-.69-.1l.1-1.23h.24a1.23,1.23,0,0,0,.68-.14,1,1,0,0,0,.39-.46l.23-.5-1.55-6.09h1.69Zm.88-6.32h1.72l-1.66,1.74H36.61Z"/><path class="cls-3" d="M34.38,53.67H48.84a.55.55,0,0,1,.55.55h0a.56.56,0,0,1-.55.56H34.38a.56.56,0,0,1-.55-.56h0A.55.55,0,0,1,34.38,53.67Z"/></svg>