<svg id="Layer_1" data-name="Layer 1" xmlns="http://www.w3.org/2000/svg" width="65" height="65" viewBox="0 0 65 65">
  <title>news</title>
  <path d="M32.5,1.5h28a3,3,0,0,1,3,3v28a31,31,0,0,1-31,31H32.5a31,31,0,0,1-31-31V32.5a31,31,0,0,1,31-31Z" style="fill: #f8cf01"/>
  <polygon points="42.606 32.307 6.376 32.307 7.508 17.532 43.738 17.532 42.606 32.307"/>
  <polygon points="44.656 33.784 8.707 33.784 9.83 19.01 45.78 19.01 44.656 33.784" style="opacity: 0.2"/>
  <polygon points="58.257 47.081 18.045 47.081 19.301 32.307 59.513 32.307 58.257 47.081" style="opacity: 0.2"/>
  <polygon points="55.907 44.126 15.424 44.126 16.523 30.829 57.007 30.829 55.907 44.126" style="fill: #fff"/>
  <g>
    <path d="M26.25,34.27148H24.06152l-.52051,6.126H22.06836l.52051-6.126H20.42871l.10449-1.22656h5.82129Z"/>
    <path d="M27.97363,40.39746H26.5498l.46436-5.46387H28.438Zm-.92236-6.87793a.80242.80242,0,0,1,.26025-.541.85385.85385,0,0,1,.59912-.21191.73207.73207,0,0,1,.561.21191.67129.67129,0,0,1,.16943.541.79119.79119,0,0,1-.26416.54492.8549.8549,0,0,1-.59473.21191.73161.73161,0,0,1-.55859-.21191A.67082.67082,0,0,1,27.05127,33.51953Z"/>
    <path d="M30.91162,34.93359l-.00977.63086a2.01386,2.01386,0,0,1,1.58887-.73242,1.39421,1.39421,0,0,1,1.21338.51074,2.28508,2.28508,0,0,1,.293,1.52441l-.2998,3.53027H32.27832l.29688-3.49414a.91081.91081,0,0,0-.13867-.6748.80323.80323,0,0,0-.63574-.21,1.0717,1.0717,0,0,0-.94287.52539l-.32764,3.85352h-1.418l.46436-5.46387Z"/>
    <path d="M39.55273,33.58984l-.11426,1.34375h.9082l-.0918,1.07031h-.9082l-.23145,2.72656a.62925.62925,0,0,0,.07617.43457.51608.51608,0,0,0,.4209.13184,2.17073,2.17073,0,0,0,.41992-.03613l-.09473,1.10645a2.93546,2.93546,0,0,1-.86914.13086q-1.49268,0-1.39062-1.5498l.25-2.94434h-.77539l.0918-1.07031h.77539l.11426-1.34375Z"/>
    <path d="M47.18457,34.4541a2.32156,2.32156,0,0,1-.46582,1.36035,1.69967,1.69967,0,0,1-1.14648.52246l-.34473,4.06055H43.8916l.00781-.55566a1.92053,1.92053,0,0,1-1.50879.65625,1.51871,1.51871,0,0,1-1.25977-.50488,2.05174,2.05174,0,0,1-.333-1.47949l.30469-3.58008h1.418l-.30078,3.53418q-.07324.854.68262.85449a1.11972,1.11972,0,0,0,1.03613-.51562l.33008-3.873h1.42383l-.05957.70117a.75818.75818,0,0,0,.49512-.3125,2.04108,2.04108,0,0,0,.208-.86816Zm-3.29395-1.71289h1.54492l-1.49219,1.56543H42.79Z"/>
    <path d="M49.10254,39.32227a.98482.98482,0,0,0,.65723-.22266.86359.86359,0,0,0,.30566-.59082h1.33008a2.06035,2.06035,0,0,1-.38086,1.01758,2.21535,2.21535,0,0,1-.85449.7168,2.5579,2.5579,0,0,1-1.13281.25488,2.08579,2.08579,0,0,1-1.7334-.74512,2.81208,2.81208,0,0,1-.48242-2.05762l.00781-.0957a3.22044,3.22044,0,0,1,.82422-2.01465A2.44675,2.44675,0,0,1,49.499,34.832a2.03487,2.03487,0,0,1,1.54883.583,1.94167,1.94167,0,0,1,.47852,1.55371H50.19629A.94951.94951,0,0,0,50,36.27539a.7689.7689,0,0,0-.625-.2666.92763.92763,0,0,0-.78027.37207,2.35028,2.35028,0,0,0-.35645,1.20605l-.0127.15234a2.12928,2.12928,0,0,0,.14844,1.21289A.77864.77864,0,0,0,49.10254,39.32227Z"/>
  </g>
  <g>
    <path d="M18.15771,21.88818H15.96924l-.521,6.125H13.97559l.521-6.125H12.33643l.10449-1.22705h5.82129Z" style="fill: #fff"/>
    <path d="M21.39746,23.918a3.60936,3.60936,0,0,0-.50732-.04,1.13323,1.13323,0,0,0-1.10254.56055l-.3042,3.57471H18.06445l.46484-5.46338h1.33984l-.01611.65088a1.45443,1.45443,0,0,1,1.24756-.75244,1.38524,1.38524,0,0,1,.43555.06543Z" style="fill: #fff"/>
    <path d="M21.644,25.23047a3.50174,3.50174,0,0,1,.43018-1.45361,2.5578,2.5578,0,0,1,.96484-.98291,2.67765,2.67765,0,0,1,1.35449-.3457,2.14475,2.14475,0,0,1,1.78418.78271.821.821,0,0,0,.34277-.45166,3.13222,3.13222,0,0,0,.14111-.73975h.86426a1.92855,1.92855,0,0,1-1.02,1.77686,3.18208,3.18208,0,0,1,.16943,1.41406l-.00879.106a3.51886,3.51886,0,0,1-.43066,1.45459,2.56181,2.56181,0,0,1-.957.98,2.67366,2.67366,0,0,1-1.35742.34375,2.183,2.183,0,0,1-1.72168-.70264,2.58641,2.58641,0,0,1-.5752-1.89355Zm1.38184,4.00977a.70387.70387,0,0,1,.26318-.5.88735.88735,0,0,1,.58594-.19678.76664.76664,0,0,1,.55762.19678.5914.5914,0,0,1,.1792.5.72227.72227,0,0,1-.26123.50049.88216.88216,0,0,1-.59424.20117.74877.74877,0,0,1-.55713-.20117A.60762.60762,0,0,1,23.02588,29.24023Zm.03223-3.90576a1.9899,1.9899,0,0,0,.18408,1.19092.846.846,0,0,0,.7793.4126,1.01733,1.01733,0,0,0,.84033-.40967,2.47731,2.47731,0,0,0,.395-1.2998,1.99811,1.99811,0,0,0-.18408-1.18115.84121.84121,0,0,0-.7793-.42236,1.009,1.009,0,0,0-.84033.41748A2.482,2.482,0,0,0,23.05811,25.33447Z" style="fill: #fff"/>
    <path d="M31.47949,28.01318H30.05566l.65967-7.75586h1.42383Z" style="fill: #fff"/>
    <path d="M34.80762,25.94775l1.27051-3.39795h1.52148l-2.67187,6.312-.14258.28809A1.794,1.794,0,0,1,33.124,30.22021a2.09385,2.09385,0,0,1-.62061-.09619l.09375-1.10547.21582.00488a1.20144,1.20144,0,0,0,.61279-.12646.9368.9368,0,0,0,.34668-.41943l.20508-.44873L32.583,22.5498h1.52637Zm.793-5.69043h1.54688l-1.49414,1.56445H34.5Z" style="fill: #fff"/>
  </g>
  <rect x="32" y="49" width="14" height="1" rx="0.5" ry="0.5" style="fill: #fff"/>
  <rect x="49" y="49" width="4" height="1" rx="0.5" ry="0.5" style="fill: #fff"/>
</svg>
