<svg id="Layer_1" data-name="Layer 1" xmlns="http://www.w3.org/2000/svg" width="65" height="65" viewBox="0 0 65 65">
  <title>news</title>
  <path d="M63.85,32.115A31.22128,31.22128,0,0,1,53.343,55.542q-.69824.61274-1.425,1.197a32.66553,32.66553,0,0,1-3.88553,2.6125,31.39123,31.39123,0,0,1-30.096.532L7.914,64.1585a.95521.95521,0,0,1-1.32051-.988L7.88553,52.445l.095-.798a32.51184,32.51184,0,0,1-2.451-3.534v-.00951a31.23982,31.23982,0,0,1-3.58146-8.892V39.202c-.11405-.513-.21854-1.01651-.304-1.539a27.46125,27.46125,0,0,1-.38-2.964c-.057-.63648-.095-1.28253-.10449-1.938C1.15,32.552,1.15,32.3335,1.15,32.115a31.67975,31.67975,0,0,1,1.6055-9.956,31.37063,31.37063,0,0,1,51.585-12.54,30.713,30.713,0,0,1,3.496,4.0375,29.0931,29.0931,0,0,1,2.36549,3.762V17.428a30.97124,30.97124,0,0,1,3.12554,9.006c.08547.46549.16148.94049.228,1.41549A30.157,30.157,0,0,1,63.85,32.115Z" style="fill: #ed1c24"/>
  <polygon points="57.79 43.262 11.618 43.262 12.701 30.874 58.874 30.874 57.79 43.262" style="fill: #fff"/>
  <polygon points="46.289 33.126 9.126 33.126 10.21 20.738 47.373 20.738 46.289 33.126"/>
  <g>
    <path d="M12.53906,24.37939h1.18262l.59668,4.27588,1.49414-4.27588H17.043l.68555,4.25244,1.34961-4.25244h1.19141l-2.02,5.50635H16.94775l-.68994-3.92041L14.8335,29.88574l-1.29443.00781Z" style="fill: #fff"/>
    <path d="M24.09863,25.27051H22.00781l-.12061,1.38037H23.7417l-.07666.87549H21.81055l-.12793,1.46045h2.09082l-.07861.89893H20.49951l.48242-5.51416h3.19531Z" style="fill: #fff"/>
    <path d="M27.06787,29.88574h-2.375l.48193-5.50635h2.27246c1.15137,0,1.73828.59912,1.667,1.41943a1.41913,1.41913,0,0,1-1.05029,1.2627,1.20007,1.20007,0,0,1,.94873,1.333A1.73161,1.73161,0,0,1,27.06787,29.88574Zm.02686-2.38232H26.00586l-.12988,1.4834h1.1123c.53711,0,.87549-.26074.9165-.72656C27.9458,27.78711,27.63086,27.50342,27.09473,27.50342Zm.11621-2.23291H26.20117l-.12061,1.38037h1.00977c.52051,0,.84082-.23633.88037-.68555C28.00928,25.52344,27.73145,25.27051,27.21094,25.27051Z" style="fill: #fff"/>
    <path d="M31.65869,29.94141c-1.14355,0-1.97461-.60059-1.89893-1.6416h1.18359a.683.683,0,0,0,.77148.73389.78688.78688,0,0,0,.88672-.67041c.10449-1.19189-2.79834-.47363-2.61621-2.46924a1.86663,1.86663,0,0,1,2.08008-1.59326c1.12891,0,1.85059.57568,1.835,1.56885H32.686a.65505.65505,0,0,0-.73193-.6543.70573.70573,0,0,0-.81348.64648c-.09668,1.10547,2.78125.48975,2.61133,2.43018A1.92744,1.92744,0,0,1,31.65869,29.94141Z" style="fill: #fff"/>
    <path d="M35.04492,24.37939h1.10449L35.668,29.88574H34.5625Z" style="fill: #fff"/>
    <path d="M36.94434,24.37939H40.9834l-.07812.89111h-1.4668l-.40332,4.61523H37.92969l.4043-4.61523H36.86621Z" style="fill: #fff"/>
    <path d="M44.90234,25.27051H42.81152l-.12109,1.38037h1.85449l-.07617.87549H42.61426l-.12793,1.46045h2.09082l-.07812.89893H41.30371l.48242-5.51416h3.19531Z" style="fill: #fff"/>
  </g>
  <g>
    <path d="M17.67725,38.96191H15.48389l-.4541,1.0498H13.86963L16.33252,34.498h1.28516l1.498,5.51367h-1.168Zm-.81787-3.18652-.99854,2.30371h1.59375Z"/>
    <path d="M21.74951,40.06738c-1.14355,0-1.9751-.59961-1.89941-1.64062h1.18359a.68352.68352,0,0,0,.772.7334.78717.78717,0,0,0,.88672-.6709c.104-1.19141-2.79834-.47363-2.61621-2.46875a1.86668,1.86668,0,0,1,2.08008-1.59375c1.12891,0,1.85059.57617,1.835,1.56934H22.77637a.65463.65463,0,0,0-.73145-.6543.70549.70549,0,0,0-.81348.64648c-.09668,1.10547,2.78125.48926,2.61133,2.43066A1.92715,1.92715,0,0,1,21.74951,40.06738Z"/>
    <path d="M26.55029,40.06738c-1.14355,0-1.9751-.59961-1.89941-1.64062h1.18359a.68352.68352,0,0,0,.772.7334.78717.78717,0,0,0,.88672-.6709c.104-1.19141-2.79834-.47363-2.61621-2.46875A1.86668,1.86668,0,0,1,26.957,34.42676c1.12891,0,1.85059.57617,1.835,1.56934H27.57715a.65463.65463,0,0,0-.73145-.6543.70549.70549,0,0,0-.81348.64648c-.09668,1.10547,2.78125.48926,2.61133,2.43066A1.92715,1.92715,0,0,1,26.55029,40.06738Z"/>
    <path d="M29.93652,34.50586H31.041l-.48193,5.50586H29.45459Z"/>
    <path d="M33.543,40.06738c-1.144,0-1.97559-.59961-1.8999-1.64062h1.18359a.68352.68352,0,0,0,.772.7334.78687.78687,0,0,0,.88672-.6709c.10449-1.19141-2.79834-.47363-2.61621-2.46875a1.86668,1.86668,0,0,1,2.08008-1.59375c1.12891,0,1.85059.57617,1.835,1.56934H34.56934a.65463.65463,0,0,0-.73145-.6543.70573.70573,0,0,0-.81348.64648c-.09668,1.10547,2.78125.48926,2.61133,2.43066A1.927,1.927,0,0,1,33.543,40.06738Z"/>
    <path d="M36.63672,34.50586h4.03906l-.07812.89063h-1.4668l-.4043,4.61523H37.623l.40332-4.61523H36.55859Z"/>
    <path d="M44.46289,38.96191H42.26953l-.4541,1.0498H40.65527L43.11816,34.498h1.28516l1.498,5.51367h-1.168Zm-.81738-3.18652-.998,2.30371h1.59375Z"/>
    <path d="M51.83105,34.498l-.48242,5.51367H50.24414L48.07422,36.2334l-.33105,3.77832H46.63867l.48242-5.51367h1.10449l2.16992,3.78613.33105-3.78613Z"/>
    <path d="M52.623,34.50586h4.03906l-.07812.89063h-1.4668l-.4043,4.61523H53.6084l.4043-4.61523H52.54492Z"/>
  </g>
  <line x1="27" y1="48" x2="39" y2="48" style="fill: none;stroke: #fff;stroke-linecap: round;stroke-miterlimit: 10"/>
  <line x1="43" y1="48" x2="47" y2="48" style="fill: none;stroke: #fff;stroke-linecap: round;stroke-miterlimit: 10"/>
</svg>
