<svg id="Layer_1" data-name="Layer 1" xmlns="http://www.w3.org/2000/svg" width="65" height="65" viewBox="0 0 65 65">
  <title>news</title>
  <path d="M63.5497,32.11865A30.92221,30.92221,0,0,1,53.14335,55.32127q-.69155.60687-1.41135,1.18554a32.35263,32.35263,0,0,1-3.84831,2.58748,31.09053,31.09053,0,0,1-29.80771.5269L8.1495,63.85524a.94606.94606,0,0,1-1.30786-.97857L8.12131,52.25393l.09407-.79038a32.20041,32.20041,0,0,1-2.42754-3.50012V47.954A30.94058,30.94058,0,0,1,2.24068,39.1472v-.00942c-.113-.50807-.21645-1.00677-.30109-1.52425a27.1982,27.1982,0,0,1-.37638-2.9356c-.05645-.63039-.09407-1.27025-.10349-1.91947-.00942-.207-.00942-.42336-.00942-.63981A31.37629,31.37629,0,0,1,3.04042,22.258,31.07014,31.07014,0,0,1,54.13128,9.83814,30.41877,30.41877,0,0,1,57.59379,13.837a28.81442,28.81442,0,0,1,2.34283,3.726v.00942a30.67457,30.67457,0,0,1,3.0956,8.91971c.08465.461.15994.93148.22581,1.40193A29.86811,29.86811,0,0,1,63.5497,32.11865Z" style="fill: #9e0000"/>
  <polygon points="57.177 48.478 11.67 48.478 13.024 33 58.531 33 57.177 48.478" style="opacity: 0.3"/>
  <polygon points="41.4 34.814 7.525 34.814 8.879 19.336 42.754 19.336 41.4 34.814" style="opacity: 0.3"/>
  <polygon points="55.09 45.664 9.582 45.664 10.936 30.186 56.444 30.186 55.09 45.664" style="fill: #fff"/>
  <polygon points="40.343 32 6.469 32 7.823 16.522 41.697 16.522 40.343 32"/>
  <g>
    <path d="M12.59326,20.82031a2.95633,2.95633,0,0,0,.66846-.29492,3.27226,3.27226,0,0,0,.49609-.36768,2.528,2.528,0,0,0,.33594-.37061,2.14408,2.14408,0,0,0,.19385-.31641h.07617a2.16337,2.16337,0,0,1,.62354.88818,2.4022,2.4022,0,0,1,.13184,1.02734,2.79288,2.79288,0,0,1-.21338.83008,3.17684,3.17684,0,0,1-.4873.80225,3.40918,3.40918,0,0,1-.751.66943,3.184,3.184,0,0,1-1.00732.43213l-.00439.04639a5.069,5.069,0,0,1,.76172.24512q.42334.16992.83936.38525a8.52181,8.52181,0,0,1,.7749.45264,3.98138,3.98138,0,0,1,.57422.44727h.03516l.54346-6.2085h3.01367L19.083,20.80273H17.59375l-.667,7.627h-.8584a3.06224,3.06224,0,0,0-.502-.80859,4.79741,4.79741,0,0,0-.72607-.68359,6.287,6.287,0,0,0-.88818-.56641,8.80273,8.80273,0,0,0-.99072-.44922q-.512-.19556-1.03271-.33887-.52222-.14282-1.0166-.23633l.17432-1.99219a6.76165,6.76165,0,0,0,1.33838-.44092,3.24453,3.24453,0,0,0,.772-.4873,1.35829,1.35829,0,0,0,.36279-.47559,1.43706,1.43706,0,0,0,.10889-.40576,1.67578,1.67578,0,0,1-.36035.312,2.45728,2.45728,0,0,1-.44971.231,2.81975,2.81975,0,0,1-.50293.14307,2.84876,2.84876,0,0,1-.521.04932,2.41274,2.41274,0,0,1-.62939-.08154,1.50074,1.50074,0,0,1-.52393-.251,1.10783,1.10783,0,0,1-.3418-.43506,1.24376,1.24376,0,0,1-.0874-.62842,1.59749,1.59749,0,0,1,.12549-.51074,1.31411,1.31411,0,0,1,.26611-.397,1.17474,1.17474,0,0,1,.38428-.25977,1.25319,1.25319,0,0,1,.49023-.09326,1.146,1.146,0,0,1,.44531.08154.98917.98917,0,0,1,.32861.21924.83858.83858,0,0,1,.19629.32373.96665.96665,0,0,1,.04395.397l-.00439.05273a.31533.31533,0,0,1-.01025.05225Z" style="fill: #fff"/>
    <path d="M24.251,20.80273H18.26465l.11523-1.31445h9.00586l-.11523,1.31445H25.77539l-.667,7.627H24.25a3.06224,3.06224,0,0,0-.502-.80859,4.75169,4.75169,0,0,0-.72607-.68359,6.33251,6.33251,0,0,0-.88721-.56641,8.89725,8.89725,0,0,0-.9917-.44922q-.512-.19556-1.03271-.33887-.52222-.14282-1.0166-.23633l.14795-1.69385c.09277-.07373.23926-.17773.44287-.313.20215-.13428.43848-.2832.71094-.44678q.40649-.24463.89063-.50781c.32324-.1748.65186-.33936.98877-.49316q.50464-.23071,1.002-.40283a5.18529,5.18529,0,0,1,.93506-.2373Zm-3.09863,3.38135-.00586.07031c.37256.13623.70117.26855.9834.397a8.14922,8.14922,0,0,1,.73877.37646,5.62817,5.62817,0,0,1,.53564.35107,4.57036,4.57036,0,0,1,.3833.31787h.03516l.248-2.83252a2.28717,2.28717,0,0,0-.50977.11963q-.33472.10767-.74365.28564-.40942.17944-.84766.41553A8.68948,8.68948,0,0,0,21.15234,24.18408Z" style="fill: #fff"/>
    <path d="M32.43848,20.80273H26.45215l.11523-1.31445h9.00586L35.458,20.80273H33.96289l-.667,7.627h-.8584a3.06224,3.06224,0,0,0-.502-.80859,4.75169,4.75169,0,0,0-.72607-.68359,6.33251,6.33251,0,0,0-.88721-.56641,8.89725,8.89725,0,0,0-.9917-.44922q-.512-.19556-1.03271-.33887-.52222-.14282-1.0166-.23633l.14795-1.69385c.09277-.07373.23926-.17773.44287-.313.20215-.13428.43848-.2832.71094-.44678q.40649-.24463.89063-.50781c.32324-.1748.65186-.33936.98877-.49316q.50464-.23071,1.002-.40283a5.18529,5.18529,0,0,1,.93506-.2373Zm-4.38184,6.49463a1.02984,1.02984,0,0,1,.11377-.39209,1.12138,1.12138,0,0,1,.57715-.52832,1.04815,1.04815,0,0,1,.40137-.07861.92212.92212,0,0,1,.38379.07861.8833.8833,0,0,1,.48242.52832.92619.92619,0,0,1,.04443.39209,1.04529,1.04529,0,0,1-.11328.394,1.11135,1.11135,0,0,1-.24072.31787,1.14055,1.14055,0,0,1-.334.21338,1.024,1.024,0,0,1-.39795.07861.94472.94472,0,0,1-.38721-.07861.87214.87214,0,0,1-.48486-.53125A.94894.94894,0,0,1,28.05664,27.29736Zm1.2832-3.11328-.00586.07031c.37256.13623.70117.26855.9834.397a8.14922,8.14922,0,0,1,.73877.37646,5.62817,5.62817,0,0,1,.53564.35107,4.57036,4.57036,0,0,1,.3833.31787h.03516l.248-2.83252a2.28717,2.28717,0,0,0-.50977.11963q-.33472.10767-.74365.28564-.40942.17944-.84766.41553A8.68948,8.68948,0,0,0,29.33984,24.18408Z" style="fill: #fff"/>
  </g>
  <g>
    <path d="M18.49707,42.1416l.27734-3.1709a4.60107,4.60107,0,0,0-.24316-.42383,2.46423,2.46423,0,0,0-.25684-.332,1.264,1.264,0,0,0-.26123-.21973.48146.48146,0,0,0-.24609-.08008.56637.56637,0,0,0-.37207.2002,5.39946,5.39946,0,0,0-.436.501q-.23584.29883-.50537.64844a6.07769,6.07769,0,0,1-.57617.64844,3.24345,3.24345,0,0,1-.65674.5,1.46365,1.46365,0,0,1-.74512.2002,1.08835,1.08835,0,0,1-.59863-.16992,1.90159,1.90159,0,0,1-.46631-.41992,2.5566,2.5566,0,0,1-.32471-.53027,2.2838,2.2838,0,0,1-.167-.5l1.08545-.73242a2.69776,2.69776,0,0,0,.32764.7207.44826.44826,0,0,0,.34912.21973.668.668,0,0,0,.42871-.22266,4.73726,4.73726,0,0,0,.56885-.69043,3.02811,3.02811,0,0,0-.2915-.96387,2.888,2.888,0,0,0-.50439-.709,2.62727,2.62727,0,0,0-.63232-.47559,3.44016,3.44016,0,0,0-.66846-.27441l.06006-.68164h-1.418l.10791-1.2373H22.0498l-.10791,1.2373H20.54053l-.60889,6.958ZM16.7002,37.041a4.094,4.094,0,0,1,.59863-.40137,1.13066,1.13066,0,0,1,.53125-.1377,1.24713,1.24713,0,0,1,.55469.1377,2.4925,2.4925,0,0,1,.55957.39063l.16162-1.84668H15.478a2.91963,2.91963,0,0,1,.44775.40625,3.19664,3.19664,0,0,1,.3418.459,3.68556,3.68556,0,0,1,.252.48926Q16.62354,36.78857,16.7002,37.041Z"/>
    <path d="M25.51172,39.55273c.26709.125.53906.26855.81348.43164a8.96662,8.96662,0,0,1,.80273.53613q.38965.2915.74316.61523a6.75286,6.75286,0,0,1,.63721.666l-1.13623,1.05469a5.16429,5.16429,0,0,0-.67578-.82715,6.43319,6.43319,0,0,0-.83252-.69824,7.28,7.28,0,0,0-.937-.5625,8.7298,8.7298,0,0,0-.99268-.42969,8.47713,8.47713,0,0,0-1.00293-.293,8.23066,8.23066,0,0,0-.96143-.16309l.26953-1.43457c.04639.00391.12939.01367.24707.03027s.24219.03516.374.05762c.13184.02148.25879.04395.38184.06543q.18311.03369.26514.0498a.65156.65156,0,0,0,.0874.00586h.09277c.13184,0,.28125-.00781.44727-.02246a4.38094,4.38094,0,0,0,.50439-.07422,4.33423,4.33423,0,0,0,.49854-.13379,2.38791,2.38791,0,0,0,.437-.19824,1.15629,1.15629,0,0,0,.31738-.26953.63512.63512,0,0,0,.14111-.35156.50683.50683,0,0,0-.07617-.3252.89827.89827,0,0,0-.23145-.24121,1.13346,1.13346,0,0,0-.2915-.15039.81248.81248,0,0,0-.25732-.05273,1.13241,1.13241,0,0,1-.251.39355,1.529,1.529,0,0,1-.37012.27637,1.86081,1.86081,0,0,1-.42969.168,1.72657,1.72657,0,0,1-.43359.05859,1.10863,1.10863,0,0,1-.42822-.07422.74661.74661,0,0,1-.27979-.19824.69719.69719,0,0,1-.14453-.28613.99762.99762,0,0,1-.02637-.33789,1.03255,1.03255,0,0,1,.09082-.34668,1.35613,1.35613,0,0,1,.45117-.5332,2.12333,2.12333,0,0,1,.31543-.18164c-.01221-.07324-.0293-.168-.05225-.28516s-.04492-.21973-.06641-.30762H21.17236l.10791-1.2373h8.53027l-.10791,1.2373H24.95947l.06055.37891a3.4847,3.4847,0,0,1,.61328.05566,3.33849,3.33849,0,0,1,.60352.16406,2.81331,2.81331,0,0,1,.54541.27539,1.95,1.95,0,0,1,.43359.38184,1.537,1.537,0,0,1,.27539.48633,1.38351,1.38351,0,0,1,.06689.58789,1.648,1.648,0,0,1-.21729.69824,2.31047,2.31047,0,0,1-.46436.56055,3.12471,3.12471,0,0,1-.63428.43164,5.73907,5.73907,0,0,1-.72754.31641Z"/>
    <path d="M30.20654,36.01855a.7579.7579,0,0,0-.04-.32129.76789.76789,0,0,0-.43945-.44824.94569.94569,0,0,0-.35937-.06543h-.43457l.10791-1.2373h.69824a2.1185,2.1185,0,0,1,.30273.02441,1.93275,1.93275,0,0,1,.35254.08887,2.197,2.197,0,0,1,.35645.16406,1.48747,1.48747,0,0,1,.31641.25l.00391-.04395a.632.632,0,0,1,.126-.3457.32362.32362,0,0,1,.2627-.1377h1.76367l-.1084,1.2373h-.47217a1.0337,1.0337,0,0,0-.37109.06543,1.04526,1.04526,0,0,0-.31006.18164.95132.95132,0,0,0-.22119.2666.77892.77892,0,0,0-.09961.32129l-.53564,6.123H29.6709Z"/>
    <path d="M41.78809,33.94629l-.1084,1.2373H40.27832l-.62793,7.17773H38.8418a2.875,2.875,0,0,0-.47168-.76172,4.55592,4.55592,0,0,0-.68262-.64258,6.0086,6.0086,0,0,0-.83594-.5332,8.64048,8.64048,0,0,0-.93262-.42285q-.48193-.18457-.97266-.31836c-.32812-.09082-.64648-.16406-.95605-.22266l.10352-1.18262c.11816-.09473.24414-.19336.38086-.2959.13477-.10254.27441-.20215.418-.29687q.2168-.14355.42773-.26953.2124-.12744.40723-.21973a2.09567,2.09567,0,0,0-.40039-.39062,6.1055,6.1055,0,0,0-.58008-.39844,6.56089,6.56089,0,0,0-.62207-.332,3.21211,3.21211,0,0,0-.52539-.19824l.06055-.69238h-1.313l.10791-1.2373ZM35.9209,38.43164q.52881.19189.92676.374a7.43073,7.43073,0,0,1,.69434.35449,5.56244,5.56244,0,0,1,.50488.33008,4.29854,4.29854,0,0,1,.36133.2998h.0332l.40234-4.60645H35.5293a4.2542,4.2542,0,0,1,.60254.376,4.93248,4.93248,0,0,1,.6123.53613,5.19863,5.19863,0,0,1,.54492.65918,3.68743,3.68743,0,0,1,.40137.74707c-.11133.04785-.24316.10742-.39746.17676s-.31445.14453-.47852.22559q-.24756.12158-.4834.24414a4.15986,4.15986,0,0,0-.40625.23926Z"/>
    <path d="M36.459,43.65332a.95127.95127,0,0,1,.10742-.36816,1.04965,1.04965,0,0,1,.543-.49707.97313.97313,0,0,1,.37793-.07422.86036.86036,0,0,1,.36133.07422.83164.83164,0,0,1,.4541.49707.88017.88017,0,0,1,.041.36816.96183.96183,0,0,1-.10645.37109,1.06038,1.06038,0,0,1-.22656.2998,1.07246,1.07246,0,0,1-.31445.2002.94777.94777,0,0,1-.374.0752.88548.88548,0,0,1-.36523-.0752.8664.8664,0,0,1-.28223-.2002.85522.85522,0,0,1-.17383-.2998A.91648.91648,0,0,1,36.459,43.65332Z"/>
    <path d="M46.54395,35.18359H40.91016l.1084-1.2373h11.543l-.1084,1.2373H47.97852l-.03711.42871a3.50457,3.50457,0,0,1,.80566.12012,4.06324,4.06324,0,0,1,.7793.30273,3.62768,3.62768,0,0,1,.68945.46387,3.03891,3.03891,0,0,1,.541.60547,2.54778,2.54778,0,0,1,.33789.72266,2.21838,2.21838,0,0,1,.07715.82422,2.76655,2.76655,0,0,1-.18555.76953,2.55813,2.55813,0,0,1-.39746.67871,1.9986,1.9986,0,0,1-.5752.4834,1.44242,1.44242,0,0,1-.71484.18555,1.23257,1.23257,0,0,1-.50488-.09961,1.1,1.1,0,0,1-.376-.26367,1.03906,1.03906,0,0,1-.22168-.38184,1.12454,1.12454,0,0,1-.05176-.4541,1.35746,1.35746,0,0,1,.1123-.43652,1.2831,1.2831,0,0,1,.24414-.36328,1.12721,1.12721,0,0,1,.34863-.24707,1.01246,1.01246,0,0,1,.42773-.09082,1.12834,1.12834,0,0,1,.626.20313l.03027-.0332a.9371.9371,0,0,0-.16406-.582,1.6965,1.6965,0,0,0-.4834-.46973,2.56788,2.56788,0,0,0-.69238-.31543,2.73879,2.73879,0,0,0-.78418-.11621l-.459,5.24316H46.543a2.93,2.93,0,0,0-.47266-.76172,4.50928,4.50928,0,0,0-.68262-.64258,5.94051,5.94051,0,0,0-.835-.5332,8.74273,8.74273,0,0,0-.93359-.42285c-.32031-.123-.64551-.22852-.97266-.31836-.32715-.09082-.64551-.16406-.95605-.22266l.13965-1.59473c.08594-.06934.22559-.167.416-.29395.19043-.126.41309-.2666.66895-.41992q.38379-.23145.83887-.47852.45557-.24756.93066-.46387c.31641-.14551.63184-.27148.94238-.37988a4.90606,4.90606,0,0,1,.87988-.22266Zm-2.917,3.18262-.00586.06543q.52881.19189.92773.374a7.55476,7.55476,0,0,1,.69434.35449,5.56244,5.56244,0,0,1,.50488.33008,4.123,4.123,0,0,1,.36035.2998h.0332l.23242-2.666a2.21781,2.21781,0,0,0-.47949.11133q-.31348.10254-.69922.26953-.38672.16846-.79883.39063A8.21892,8.21892,0,0,0,43.627,38.36621Z"/>
  </g>
  <path d="M32,50H46a0,0,0,0,1,0,0v0a1,1,0,0,1-1,1H31a0,0,0,0,1,0,0v0A1,1,0,0,1,32,50Z" style="fill: #fff"/>
  <path d="M49,50h2a0,0,0,0,1,0,0v0a1,1,0,0,1-1,1H48a0,0,0,0,1,0,0v0A1,1,0,0,1,49,50Z" style="fill: #fff"/>
</svg>
