<svg width="180" height="179" viewBox="0 0 180 179" fill="none" xmlns="http://www.w3.org/2000/svg">
<g filter="url(#filter0_d_1_5)">
<circle cx="37.5" cy="37.5" r="37.5" transform="matrix(1 0 -0.180862 0.983508 60.5647 55)" fill="url(#paint0_linear_1_5)"/>
<g filter="url(#filter1_f_1_5)">
<circle cx="37.5" cy="37.5" r="37.5" transform="matrix(1 0 -0.180862 0.983508 60.5647 55)" fill="url(#paint1_linear_1_5)"/>
</g>
<g filter="url(#filter2_i_1_5)">
<circle cx="37.5" cy="37.5" r="37.5" transform="matrix(1 0 -0.180862 0.983508 57.5647 50)" fill="url(#paint2_linear_1_5)"/>
</g>
<g filter="url(#filter3_f_1_5)">
<circle cx="37.5" cy="37.5" r="37.5" transform="matrix(1 0 -0.180862 0.983508 57.5647 50)" fill="url(#paint3_linear_1_5)"/>
</g>
<g filter="url(#filter4_d_1_5)">
<path d="M87.0292 66.2805C78.6685 66.9514 70.5972 73.5002 67.991 81.7263C67.5026 83.2724 67.0039 86.5395 67.0525 87.9397C67.0792 88.5085 67.1818 89.4565 67.2905 90.0545C68.3536 96.1658 72.7286 100.6 78.8625 101.81C80.3543 102.102 83.2913 102.146 84.8559 101.883C86.5689 101.606 88.2174 101.125 88.2139 100.906C88.2035 100.804 87.2916 99.5789 86.1641 98.1786L84.1231 95.6407L82.6375 95.5531C80.965 95.4512 79.8907 95.1886 78.6501 94.5615C75.8963 93.2049 73.9741 90.2588 73.7213 87.0354C73.5962 85.4164 74.0617 82.8056 74.7715 81.245C75.6424 79.3635 76.9503 77.6424 78.6473 76.1839C80.3761 74.7108 81.7575 73.9378 83.8491 73.2668C85.2126 72.8293 85.4685 72.7855 87.2909 72.7855C88.9265 72.7709 89.4552 72.8293 90.3519 73.1064C93.9824 74.2149 96.2946 76.9423 96.8853 80.8658C97.1025 82.2222 96.7057 84.9351 96.0687 86.4957C95.8195 87.1375 95.532 87.7501 95.452 87.8667C95.3207 88.0272 95.7657 88.6981 97.2001 90.4921C98.2534 91.8194 99.1576 92.9279 99.228 92.9424C99.4013 93.0299 101.098 90.3025 101.735 88.9023C104.613 82.5285 104.06 76.0235 100.233 71.3853C97.196 67.6806 92.4458 65.8429 87.0292 66.2805Z" fill="white"/>
<path d="M86.2145 89.5003C84.9107 90.565 83.847 91.5132 83.8309 91.6007C83.8148 91.6882 83.9257 91.8777 84.0566 92.038C84.2048 92.1839 85.6639 94.0801 87.3054 96.2533C91.0167 101.125 91.6646 101.883 92.7285 102.598C94.5855 103.838 97.0861 103.954 99.5974 102.904C100.449 102.554 102.31 101.315 102.356 101.066C102.374 100.964 101.675 99.9287 100.796 98.7621L99.2199 96.6325L98.4953 97.0845C97.5397 97.6827 96.8254 97.6827 96.0606 97.0845C95.092 96.3263 95.0893 96.3408 96.384 95.247L97.5404 94.2698L95.7083 92.0236C94.6969 90.7838 93.8059 89.7628 93.7183 89.7628C93.6455 89.7628 93.1237 90.1421 92.574 90.5942L91.5728 91.4401L90.0781 89.5003L88.5805 87.575L86.2145 89.5003Z" fill="white"/>
</g>
</g>
<defs>
<filter id="filter0_d_1_5" x="0.167377" y="0" width="179.23" height="178.763" filterUnits="userSpaceOnUse" color-interpolation-filters="sRGB">
<feFlood flood-opacity="0" result="BackgroundImageFix"/>
<feColorMatrix in="SourceAlpha" type="matrix" values="0 0 0 0 0 0 0 0 0 0 0 0 0 0 0 0 0 0 127 0" result="hardAlpha"/>
<feOffset/>
<feGaussianBlur stdDeviation="25"/>
<feColorMatrix type="matrix" values="0 0 0 0 0.831373 0 0 0 0 0.890196 0 0 0 0 0.290196 0 0 0 0.5 0"/>
<feBlend mode="normal" in2="BackgroundImageFix" result="effect1_dropShadow_1_5"/>
<feBlend mode="normal" in="SourceGraphic" in2="effect1_dropShadow_1_5" result="shape"/>
</filter>
<filter id="filter1_f_1_5" x="49.1674" y="51" width="84.2299" height="81.7631" filterUnits="userSpaceOnUse" color-interpolation-filters="sRGB">
<feFlood flood-opacity="0" result="BackgroundImageFix"/>
<feBlend mode="normal" in="SourceGraphic" in2="BackgroundImageFix" result="shape"/>
<feGaussianBlur stdDeviation="2" result="effect1_foregroundBlur_1_5"/>
</filter>
<filter id="filter2_i_1_5" x="49.1674" y="49" width="77.2299" height="74.7631" filterUnits="userSpaceOnUse" color-interpolation-filters="sRGB">
<feFlood flood-opacity="0" result="BackgroundImageFix"/>
<feBlend mode="normal" in="SourceGraphic" in2="BackgroundImageFix" result="shape"/>
<feColorMatrix in="SourceAlpha" type="matrix" values="0 0 0 0 0 0 0 0 0 0 0 0 0 0 0 0 0 0 127 0" result="hardAlpha"/>
<feOffset dx="-1" dy="-1"/>
<feGaussianBlur stdDeviation="1"/>
<feComposite in2="hardAlpha" operator="arithmetic" k2="-1" k3="1"/>
<feColorMatrix type="matrix" values="0 0 0 0 0.584314 0 0 0 0 0.941176 0 0 0 0 0.529412 0 0 0 1 0"/>
<feBlend mode="normal" in2="shape" result="effect1_innerShadow_1_5"/>
</filter>
<filter id="filter3_f_1_5" x="48.1674" y="48" width="80.2299" height="77.7631" filterUnits="userSpaceOnUse" color-interpolation-filters="sRGB">
<feFlood flood-opacity="0" result="BackgroundImageFix"/>
<feBlend mode="normal" in="SourceGraphic" in2="BackgroundImageFix" result="shape"/>
<feGaussianBlur stdDeviation="1" result="effect1_foregroundBlur_1_5"/>
</filter>
<filter id="filter4_d_1_5" x="63.0492" y="62.217" width="44.5079" height="45.4002" filterUnits="userSpaceOnUse" color-interpolation-filters="sRGB">
<feFlood flood-opacity="0" result="BackgroundImageFix"/>
<feColorMatrix in="SourceAlpha" type="matrix" values="0 0 0 0 0 0 0 0 0 0 0 0 0 0 0 0 0 0 127 0" result="hardAlpha"/>
<feOffset/>
<feGaussianBlur stdDeviation="2"/>
<feComposite in2="hardAlpha" operator="out"/>
<feColorMatrix type="matrix" values="0 0 0 0 1 0 0 0 0 1 0 0 0 0 1 0 0 0 0.25 0"/>
<feBlend mode="normal" in2="BackgroundImageFix" result="effect1_dropShadow_1_5"/>
<feBlend mode="normal" in="SourceGraphic" in2="effect1_dropShadow_1_5" result="shape"/>
</filter>
<linearGradient id="paint0_linear_1_5" x1="59.1872" y1="78.7995" x2="52.9319" y2="17.8162" gradientUnits="userSpaceOnUse">
<stop stop-color="#44490D"/>
<stop offset="1" stop-color="#888A39"/>
</linearGradient>
<linearGradient id="paint1_linear_1_5" x1="59.1872" y1="78.7995" x2="52.9319" y2="17.8162" gradientUnits="userSpaceOnUse">
<stop stop-color="#44490D"/>
<stop offset="1" stop-color="#888A39"/>
</linearGradient>
<linearGradient id="paint2_linear_1_5" x1="37.5" y1="0" x2="37.5" y2="75" gradientUnits="userSpaceOnUse">
<stop stop-color="#EDF67F"/>
<stop offset="1" stop-color="#CCDA2F"/>
</linearGradient>
<linearGradient id="paint3_linear_1_5" x1="37.5" y1="0" x2="37.5" y2="75" gradientUnits="userSpaceOnUse">
<stop stop-color="#EDF77F"/>
<stop offset="1" stop-color="#CCDA2F"/>
</linearGradient>
</defs>
</svg>
