<svg width="21" height="20" viewBox="0 0 21 20" fill="#ffcc5b" xmlns="http://www.w3.org/2000/svg"><path d="M7.87879 18.8985V14.282C7.87879 13.8406 8.06574 13.6499 8.50333 13.6496C9.83456 13.6496 11.1658 13.6496 12.497 13.6496C12.936 13.6496 13.1233 13.8382 13.1236 14.2796C13.1236 15.7428 13.1236 17.206 13.1236 18.6692V18.8848C13.188 18.8903 13.2372 18.8978 13.2865 18.8978C13.6996 18.8978 14.1128 18.8937 14.5259 18.9013C14.6602 18.9037 14.7036 18.8669 14.7025 18.7291C14.6967 17.897 14.6994 17.0652 14.6994 16.2331C14.6994 14.5461 14.6994 12.8591 14.6994 11.1721C14.6994 10.6791 14.8795 10.4997 15.3746 10.4997H19.2994C19.7628 10.4997 19.947 10.6804 19.9474 11.1445C19.9487 13.6576 19.9479 16.1709 19.9449 18.6844C19.9449 18.8613 19.9928 18.9209 20.1667 18.9016C20.2813 18.8913 20.3967 18.893 20.5109 18.9068C20.8081 18.9357 21.0115 19.1647 20.9995 19.4473C20.9947 19.581 20.9381 19.7077 20.8418 19.8005C20.7455 19.8934 20.6169 19.9452 20.4831 19.9452C20.0758 19.9544 19.6685 19.95 19.2609 19.95C13.0582 19.95 6.85546 19.9505 0.652599 19.9517C0.377171 19.9517 0.150632 19.8877 0.0380513 19.6119C0.00908913 19.5413 -0.00361486 19.4651 0.0008848 19.389C0.00538446 19.3128 0.0269713 19.2387 0.0640429 19.172C0.101115 19.1053 0.152721 19.0479 0.215033 19.0039C0.277345 18.9599 0.348764 18.9304 0.423993 18.9178C0.572242 18.8971 0.722284 18.8922 0.871564 18.9033C1.01444 18.9113 1.05713 18.8634 1.0561 18.7195C1.0499 17.876 1.053 17.0325 1.053 16.189C1.053 13.4694 1.053 10.7495 1.053 8.02946C1.053 7.98367 1.053 7.93753 1.05507 7.89174C1.07091 7.55159 1.273 7.35259 1.61556 7.3519C2.80335 7.35007 3.99113 7.35007 5.17891 7.3519C5.37412 7.3519 5.56899 7.34812 5.7642 7.3519C6.06613 7.35741 6.26926 7.54746 6.29853 7.84871C6.30507 7.91756 6.30266 7.98642 6.30266 8.05528C6.30266 11.5899 6.30266 15.1246 6.30266 18.6593C6.30266 18.9003 6.30266 18.9003 6.54366 18.9003L7.87879 18.8985ZM2.11237 8.40645V18.8861H5.234V8.40645H2.11237ZM15.7626 18.882H18.8883V11.5604H15.7626V18.882ZM8.94126 14.7038V18.883C8.97359 18.8892 9.00623 18.8936 9.03903 18.8961C10.003 18.8961 10.967 18.8961 11.929 18.9009C12.0598 18.9009 12.0773 18.8448 12.0773 18.7353C12.0746 17.4394 12.0738 16.1436 12.0749 14.8477C12.0725 14.7995 12.0675 14.7514 12.0601 14.7038H8.94126Z"></path><path d="M15.6835 6.54701C15.2982 6.02163 15.1326 5.44737 15.2727 4.80941C15.3758 4.31514 15.6558 3.8755 16.0601 3.57308C16.8303 2.98401 17.9461 3.00983 18.6708 3.63471C19.5396 4.38364 19.642 5.35636 18.9783 6.55286C19.3866 6.76288 19.7357 7.04347 20.0008 7.42322C20.2905 7.83326 20.4542 8.31894 20.4718 8.82067C20.4886 9.22727 20.28 9.44451 19.8748 9.44486C18.5268 9.44623 17.1789 9.44623 15.8312 9.44486C15.4755 9.44486 15.1199 9.4483 14.7639 9.44486C14.3776 9.44176 14.1645 9.22658 14.1827 8.84064C14.2295 7.85702 14.6926 7.12438 15.5378 6.62757C15.5819 6.60279 15.6267 6.57938 15.6835 6.54701ZM16.2808 5.23597C16.2785 5.37356 16.3035 5.51025 16.3544 5.63809C16.4053 5.76594 16.4811 5.8824 16.5774 5.98072C16.6737 6.07905 16.7885 6.15728 16.9152 6.21087C17.042 6.26446 17.1781 6.29236 17.3157 6.29293C17.5939 6.29542 17.8618 6.18778 18.0609 5.99351C18.26 5.79924 18.3742 5.5341 18.3785 5.25594C18.3785 4.97791 18.2694 4.71098 18.0748 4.51246C17.8801 4.31394 17.6154 4.19967 17.3374 4.19417C17.0593 4.19279 16.792 4.30164 16.594 4.49689C16.3959 4.69214 16.2833 4.95789 16.2808 5.23597ZM19.3105 8.38653C19.1931 7.9183 18.7125 7.4604 18.1885 7.39568C17.7251 7.33887 17.2517 7.35608 16.7828 7.35264C16.3617 7.34954 15.9995 7.5086 15.6993 7.80021C15.5351 7.9603 15.4005 8.1445 15.3354 8.38549L19.3105 8.38653Z"></path><path d="M8.85146 9.70474C7.9849 8.4815 8.52405 7.28132 9.18507 6.7611C9.99139 6.12659 11.121 6.15 11.8784 6.81172C12.589 7.43143 12.9354 8.61542 12.1511 9.69613C12.1883 9.71954 12.2241 9.74433 12.2616 9.76499C13.1292 10.257 13.5902 11.0044 13.6498 11.9963C13.6714 12.363 13.4473 12.5929 13.0769 12.5933C11.3616 12.5951 9.6463 12.5951 7.93084 12.5933C7.55213 12.5933 7.32766 12.3616 7.35245 11.9839C7.41786 10.9855 7.88505 10.2363 8.76642 9.75191C8.79121 9.74055 8.81428 9.72574 8.85146 9.70474ZM10.4982 7.35018C10.3602 7.35036 10.2235 7.37777 10.0961 7.43085C9.96871 7.48393 9.85302 7.56163 9.7557 7.6595C9.65837 7.75737 9.58132 7.87348 9.52895 8.00118C9.47658 8.12889 9.44993 8.26567 9.45052 8.40369C9.45304 8.67954 9.5639 8.94334 9.75919 9.13817C9.95448 9.33301 10.2185 9.44326 10.4944 9.44515C10.7732 9.44552 11.0408 9.33561 11.2388 9.13939C11.4368 8.94318 11.5492 8.6766 11.5513 8.39784C11.5513 8.25979 11.5241 8.12311 11.4711 7.99564C11.4181 7.86817 11.3404 7.75243 11.2425 7.65508C11.1447 7.55772 11.0285 7.48066 10.9008 7.42834C10.773 7.37601 10.6362 7.34945 10.4982 7.35018ZM8.51303 11.5298H12.4885C12.3184 10.9752 11.7562 10.5358 11.1523 10.5076C10.7178 10.487 10.2806 10.488 9.8461 10.5093C9.2405 10.5389 8.6745 10.9817 8.51303 11.5298Z"></path><path d="M2.03187 3.39811C1.25791 2.34701 1.56536 1.13823 2.31487 0.498203C2.69937 0.173104 3.18755 -0.00360696 3.69106 5.58174e-05C4.19456 0.00371859 4.68012 0.187514 5.05985 0.518173C5.78285 1.14787 6.0989 2.33634 5.32254 3.39364C5.37487 3.426 5.42582 3.45802 5.47712 3.48832C6.32406 3.98615 6.77508 4.72774 6.81983 5.70723C6.8367 6.07631 6.62876 6.29252 6.25934 6.29252C4.53792 6.29527 2.81764 6.29527 1.09851 6.29252C0.731158 6.29252 0.516324 6.0739 0.53044 5.70999C0.564869 4.76906 0.99488 4.05019 1.78191 3.54099C1.85766 3.49279 1.93891 3.45113 2.03187 3.39811ZM4.72211 2.10223C4.72302 1.96425 4.69667 1.82746 4.64458 1.6997C4.59249 1.57193 4.51569 1.45571 4.41857 1.3577C4.32146 1.25969 4.20595 1.18182 4.07866 1.12856C3.95138 1.0753 3.81484 1.0477 3.67686 1.04734C3.39803 1.04852 3.13096 1.15983 2.93383 1.35702C2.73669 1.55422 2.62547 1.82133 2.62438 2.10016C2.62801 2.37588 2.73882 2.63935 2.93334 2.83478C3.12787 3.03021 3.39083 3.14223 3.66653 3.14713C3.80445 3.14795 3.94117 3.12155 4.06888 3.06945C4.19658 3.01735 4.31275 2.94057 4.41074 2.84351C4.50872 2.74645 4.5866 2.63102 4.63992 2.50382C4.69323 2.37662 4.72092 2.24015 4.72142 2.10223H4.72211ZM5.66889 5.24107C5.663 5.20834 5.6546 5.17611 5.64376 5.14467C5.41102 4.6403 5.02714 4.29876 4.47629 4.23438C3.9808 4.18119 3.48133 4.17601 2.98485 4.21889C2.73008 4.2392 2.46842 4.3659 2.24119 4.49707C1.96576 4.65648 1.78501 4.91779 1.6714 5.24107H5.66889Z"></path></svg>