<svg xmlns="http://www.w3.org/2000/svg" xmlns:xlink="http://www.w3.org/1999/xlink" width="1306" height="1080" viewBox="0 0 1306 1080"><defs><style>.a{fill:#fff;}.b{clip-path:url(#a);}.c{opacity:0.257;}.d{fill:#ebebeb;}</style><clipPath id="a"><rect class="a" width="1306" height="1080" transform="translate(614 0.165)"/></clipPath></defs><g class="b" transform="translate(-614 -0.165)"><g transform="translate(477.313 -119.5)"><g class="c" transform="translate(1164.952 -346.04)"><path class="d" d="M255.139,609.743A109.061,109.061,0,0,1,146.073,500.688v-.008A109.061,109.061,0,0,1,255.128,391.614h.011A109.064,109.064,0,0,1,364.2,500.677h0a109.064,109.064,0,0,1-109.06,109.066Zm0-245.749A136.685,136.685,0,0,0,118.453,500.677v0A136.688,136.688,0,0,0,255.138,637.37h0a136.688,136.688,0,1,0,0-273.376Z" transform="translate(0 0)"/><path class="d" d="M243.421,564.889a75.929,75.929,0,1,1,75.93-75.929,75.929,75.929,0,0,1-75.93,75.929Zm0-171.684a95.757,95.757,0,1,0,95.752,95.761v-.006A95.753,95.753,0,0,0,243.421,393.2Z" transform="translate(11.72 11.721)"/><path class="d" d="M231.7,520.036a42.8,42.8,0,1,1,42.8-42.8,42.8,42.8,0,0,1-42.8,42.8Zm0-97.62a54.824,54.824,0,1,0,54.826,54.823A54.825,54.825,0,0,0,231.7,422.416Z" transform="translate(23.442 23.442)"/><path class="d" d="M219.3,471.962a7.124,7.124,0,1,1,7.124-7.124,7.124,7.124,0,0,1-7.124,7.124Zm0-18.637a11.513,11.513,0,1,0,11.513,11.513A11.512,11.512,0,0,0,219.3,453.325Z" transform="translate(35.845 35.845)"/><g transform="translate(225.389 470.931)"><path class="d" d="M224.52,491.888a21.829,21.829,0,1,1,21.827-21.83v0a21.827,21.827,0,0,1-21.827,21.827Zm0-51.579a29.752,29.752,0,1,0,29.75,29.753h0a29.749,29.749,0,0,0-29.749-29.752Z" transform="translate(-194.767 -440.309)"/></g></g><g class="c" transform="translate(697.952 -346.04)"><path class="d" d="M203.14,516.253a67.571,67.571,0,0,1-67.574-67.567v-.005a67.571,67.571,0,0,1,67.567-67.574h.007a67.573,67.573,0,0,1,67.572,67.572h0a67.573,67.573,0,0,1-67.57,67.574Zm0-152.259a84.686,84.686,0,0,0-84.687,84.685v0a84.688,84.688,0,0,0,84.686,84.689h0a84.688,84.688,0,1,0,0-169.376Z" transform="translate(0 0)"/><path class="d" d="M206.991,499.575a47.043,47.043,0,1,1,47.044-47.043,47.043,47.043,0,0,1-47.044,47.043Zm0-106.37a59.328,59.328,0,1,0,59.325,59.331v0A59.326,59.326,0,0,0,206.991,393.2Z" transform="translate(-3.85 -3.851)"/><path class="d" d="M210.841,482.9a26.515,26.515,0,1,1,26.516-26.516A26.516,26.516,0,0,1,210.841,482.9Zm0-60.483a33.968,33.968,0,1,0,33.968,33.967,33.968,33.968,0,0,0-33.968-33.967Z" transform="translate(-7.701 -7.701)"/><path class="d" d="M214.916,464.872a4.414,4.414,0,1,1,4.414-4.414,4.414,4.414,0,0,1-4.414,4.414Zm0-11.547a7.133,7.133,0,1,0,7.133,7.133,7.132,7.132,0,0,0-7.133-7.133Z" transform="translate(-11.775 -11.776)"/><g transform="translate(184.707 430.249)"><path class="d" d="M213.2,472.266a13.525,13.525,0,1,1,13.524-13.525v0A13.524,13.524,0,0,1,213.2,472.266Zm0-31.957a18.433,18.433,0,1,0,18.432,18.434h0A18.432,18.432,0,0,0,213.2,440.309Z" transform="translate(-194.767 -440.309)"/></g></g><g class="c" transform="translate(947.577 232.272)"><path class="d" d="M203.14,516.253a67.571,67.571,0,0,1-67.574-67.567v-.005a67.571,67.571,0,0,1,67.567-67.574h.007a67.573,67.573,0,0,1,67.572,67.572h0a67.573,67.573,0,0,1-67.57,67.574Zm0-152.259a84.686,84.686,0,0,0-84.687,84.685v0a84.688,84.688,0,0,0,84.686,84.689h0a84.688,84.688,0,1,0,0-169.376Z" transform="translate(0 0)"/><path class="d" d="M206.991,499.575a47.043,47.043,0,1,1,47.044-47.043,47.043,47.043,0,0,1-47.044,47.043Zm0-106.37a59.328,59.328,0,1,0,59.325,59.331v0A59.326,59.326,0,0,0,206.991,393.2Z" transform="translate(-3.85 -3.851)"/><path class="d" d="M210.841,482.9a26.515,26.515,0,1,1,26.516-26.516A26.516,26.516,0,0,1,210.841,482.9Zm0-60.483a33.968,33.968,0,1,0,33.968,33.967,33.968,33.968,0,0,0-33.968-33.967Z" transform="translate(-7.701 -7.701)"/><path class="d" d="M214.916,464.872a4.414,4.414,0,1,1,4.414-4.414,4.414,4.414,0,0,1-4.414,4.414Zm0-11.547a7.133,7.133,0,1,0,7.133,7.133,7.132,7.132,0,0,0-7.133-7.133Z" transform="translate(-11.775 -11.776)"/><g transform="translate(184.707 430.249)"><path class="d" d="M213.2,472.266a13.525,13.525,0,1,1,13.524-13.525v0A13.524,13.524,0,0,1,213.2,472.266Zm0-31.957a18.433,18.433,0,1,0,18.432,18.434h0A18.432,18.432,0,0,0,213.2,440.309Z" transform="translate(-194.767 -440.309)"/></g></g><g class="c" transform="translate(1116.952 612.96)"><path class="d" d="M255.139,609.743A109.061,109.061,0,0,1,146.073,500.688v-.008A109.061,109.061,0,0,1,255.128,391.614h.011A109.064,109.064,0,0,1,364.2,500.677h0a109.064,109.064,0,0,1-109.06,109.066Zm0-245.749A136.685,136.685,0,0,0,118.453,500.677v0A136.688,136.688,0,0,0,255.138,637.37h0a136.688,136.688,0,1,0,0-273.376Z" transform="translate(0 0)"/><path class="d" d="M243.421,564.889a75.929,75.929,0,1,1,75.93-75.929,75.929,75.929,0,0,1-75.93,75.929Zm0-171.684a95.757,95.757,0,1,0,95.752,95.761v-.006A95.753,95.753,0,0,0,243.421,393.2Z" transform="translate(11.72 11.721)"/><path class="d" d="M231.7,520.036a42.8,42.8,0,1,1,42.8-42.8,42.8,42.8,0,0,1-42.8,42.8Zm0-97.62a54.824,54.824,0,1,0,54.826,54.823A54.825,54.825,0,0,0,231.7,422.416Z" transform="translate(23.442 23.442)"/><path class="d" d="M219.3,471.962a7.124,7.124,0,1,1,7.124-7.124,7.124,7.124,0,0,1-7.124,7.124Zm0-18.637a11.513,11.513,0,1,0,11.513,11.513A11.512,11.512,0,0,0,219.3,453.325Z" transform="translate(35.845 35.845)"/><g transform="translate(225.389 470.931)"><path class="d" d="M224.52,491.888a21.829,21.829,0,1,1,21.827-21.83v0a21.827,21.827,0,0,1-21.827,21.827Zm0-51.579a29.752,29.752,0,1,0,29.75,29.753h0a29.749,29.749,0,0,0-29.749-29.752Z" transform="translate(-194.767 -440.309)"/></g></g><g class="c" transform="translate(-118.453 316.96)"><path class="d" d="M266.451,630.081A118.086,118.086,0,0,1,148.359,512v-.009A118.086,118.086,0,0,1,266.439,393.9h.012A118.09,118.09,0,0,1,384.539,511.989h0A118.09,118.09,0,0,1,266.454,630.081Zm0-266.087a148,148,0,0,0-148,147.995v0a148,148,0,0,0,148,148h0a148,148,0,1,0,0-296Z" transform="translate(0 0)"/><path class="d" d="M251.346,579.1a82.212,82.212,0,1,1,82.214-82.212A82.213,82.213,0,0,1,251.346,579.1Zm0-185.892A103.681,103.681,0,1,0,355.022,496.891v-.006A103.678,103.678,0,0,0,251.346,393.2Z" transform="translate(15.107 15.109)"/><path class="d" d="M236.234,528.115a46.338,46.338,0,1,1,46.339-46.339,46.338,46.338,0,0,1-46.339,46.339Zm0-105.7a59.361,59.361,0,1,0,59.363,59.36,59.362,59.362,0,0,0-59.363-59.36Z" transform="translate(30.217 30.217)"/><path class="d" d="M220.248,473.5a7.714,7.714,0,1,1,7.714-7.714,7.713,7.713,0,0,1-7.714,7.714Zm0-20.179a12.465,12.465,0,1,0,12.466,12.465,12.465,12.465,0,0,0-12.466-12.465Z" transform="translate(46.204 46.204)"/><g transform="translate(234.239 479.781)"><path class="d" d="M226.982,496.157a23.635,23.635,0,1,1,23.634-23.637v0a23.634,23.634,0,0,1-23.634,23.634Zm0-55.848a32.214,32.214,0,1,0,32.212,32.215v0a32.211,32.211,0,0,0-32.211-32.214Z" transform="translate(-194.767 -440.309)"/></g></g><g class="c" transform="translate(203.547 749.648)"><path class="d" d="M221.3,548.9a82.057,82.057,0,0,1-82.061-82.052v-.006a82.057,82.057,0,0,1,82.052-82.061h.008a82.059,82.059,0,0,1,82.059,82.059h0A82.059,82.059,0,0,1,221.3,548.9Zm0-184.9a102.841,102.841,0,0,0-102.842,102.84v0A102.844,102.844,0,0,0,221.294,569.682h0a102.844,102.844,0,1,0,0-205.688Z" transform="translate(0 0)"/><path class="d" d="M219.71,522.38a57.129,57.129,0,1,1,57.13-57.129,57.129,57.129,0,0,1-57.13,57.129Zm0-129.175a72.047,72.047,0,1,0,72.044,72.05v0A72.045,72.045,0,0,0,219.71,393.2Z" transform="translate(1.586 1.586)"/><path class="d" d="M218.123,495.865a32.2,32.2,0,1,1,32.2-32.2,32.2,32.2,0,0,1-32.2,32.2Zm0-73.449a41.25,41.25,0,1,0,41.251,41.249,41.25,41.25,0,0,0-41.251-41.249Z" transform="translate(3.173 3.173)"/><path class="d" d="M216.445,467.347a5.36,5.36,0,1,1,5.36-5.36,5.36,5.36,0,0,1-5.36,5.36Zm0-14.022a8.662,8.662,0,1,0,8.662,8.662,8.662,8.662,0,0,0-8.662-8.662Z" transform="translate(4.851 4.851)"/><g transform="translate(198.911 444.453)"><path class="d" d="M217.153,479.117a16.424,16.424,0,1,1,16.423-16.425v0a16.423,16.423,0,0,1-16.423,16.423Zm0-38.808A22.385,22.385,0,1,0,239.537,462.7h0a22.383,22.383,0,0,0-22.383-22.385Z" transform="translate(-194.767 -440.309)"/></g></g><g class="c" transform="translate(67.391 -363.994)"><path class="d" d="M237.951,578.841A95.347,95.347,0,0,1,142.6,483.5v-.007a95.347,95.347,0,0,1,95.341-95.351h.01A95.349,95.349,0,0,1,333.3,483.49h0a95.349,95.349,0,0,1-95.346,95.351Zm0-214.847a119.5,119.5,0,0,0-119.5,119.5v0a119.5,119.5,0,0,0,119.5,119.5h0a119.5,119.5,0,0,0,0-239Z" transform="translate(0 0)"/><path class="d" d="M231.379,543.3a66.381,66.381,0,1,1,66.382-66.381A66.381,66.381,0,0,1,231.379,543.3Zm0-150.1a83.716,83.716,0,1,0,83.712,83.719v0A83.713,83.713,0,0,0,231.379,393.2Z" transform="translate(6.573 6.574)"/><path class="d" d="M224.8,507.761a37.415,37.415,0,1,1,37.416-37.416A37.415,37.415,0,0,1,224.8,507.761Zm0-85.345a47.93,47.93,0,1,0,47.932,47.929A47.931,47.931,0,0,0,224.8,422.416Z" transform="translate(13.148 13.148)"/><path class="d" d="M217.848,469.618a6.228,6.228,0,1,1,6.228-6.228,6.228,6.228,0,0,1-6.228,6.228Zm0-16.293a10.065,10.065,0,1,0,10.065,10.065,10.064,10.064,0,0,0-10.065-10.065Z" transform="translate(20.104 20.105)"/><g transform="translate(211.942 457.484)"><path class="d" d="M220.779,485.4a19.084,19.084,0,1,1,19.083-19.085v0A19.083,19.083,0,0,1,220.779,485.4Zm0-45.093a26.01,26.01,0,1,0,26.009,26.012h0a26.008,26.008,0,0,0-26.008-26.01Z" transform="translate(-194.767 -440.309)"/></g></g><g class="c" transform="translate(242.546 -21.728)"><path class="d" d="M208.159,525.277a71.576,71.576,0,0,1-71.579-71.572V453.7a71.576,71.576,0,0,1,71.572-71.579h.007A71.578,71.578,0,0,1,279.736,453.7h0a71.578,71.578,0,0,1-71.575,71.579Zm0-161.283a89.705,89.705,0,0,0-89.706,89.7v0a89.707,89.707,0,0,0,89.705,89.709h0a89.707,89.707,0,1,0,0-179.415Z" transform="translate(0 0)"/><path class="d" d="M196.438,480.656a38.676,38.676,0,1,1,38.677-38.676,38.676,38.676,0,0,1-38.677,38.676Zm0-87.451a48.776,48.776,0,1,0,48.774,48.778v0A48.775,48.775,0,0,0,196.438,393.2Z" transform="translate(11.72 11.721)"/><path class="d" d="M231.7,520.036a42.8,42.8,0,1,1,42.8-42.8,42.8,42.8,0,0,1-42.8,42.8Zm0-97.62a54.824,54.824,0,1,0,54.826,54.823A54.825,54.825,0,0,0,231.7,422.416Z" transform="translate(-23.538 -23.539)"/><path class="d" d="M219.3,471.962a7.124,7.124,0,1,1,7.124-7.124,7.124,7.124,0,0,1-7.124,7.124Zm0-18.637a11.513,11.513,0,1,0,11.513,11.513A11.512,11.512,0,0,0,219.3,453.325Z" transform="translate(-11.136 -11.136)"/><g transform="translate(178.408 423.95)"><path class="d" d="M224.52,491.888a21.829,21.829,0,1,1,21.827-21.83v0a21.827,21.827,0,0,1-21.827,21.827Zm0-51.579a29.752,29.752,0,1,0,29.75,29.753h0a29.749,29.749,0,0,0-29.749-29.752Z" transform="translate(-194.767 -440.309)"/></g></g></g></g></svg>