<svg version="1.2" baseProfile="tiny-ps" xmlns="http://www.w3.org/2000/svg" viewBox="0 0 32 32" width="32" height="32">
	<title>ic_quiz_category_dark</title>
	<defs>
		<linearGradient id="grd1" gradientUnits="userSpaceOnUse"  x1="8.16" y1="13.423" x2="8.16" y2="3.038">
			<stop offset="0.001" stop-color="#1e1e33"  />
			<stop offset="1" stop-color="#373978"  />
		</linearGradient>
		<linearGradient id="grd2" gradientUnits="userSpaceOnUse"  x1="8.16" y1="27.961" x2="8.16" y2="17.577">
			<stop offset="0.001" stop-color="#1e1e33"  />
			<stop offset="1" stop-color="#373978"  />
		</linearGradient>
		<linearGradient id="grd3" gradientUnits="userSpaceOnUse"  x1="22.699" y1="27.961" x2="22.699" y2="17.577">
			<stop offset="0.001" stop-color="#1e1e33"  />
			<stop offset="1" stop-color="#373978"  />
		</linearGradient>
	</defs>
	<style>
		tspan { white-space:pre }
		.shp0 { fill: #4782f4;stroke: #4782f4;stroke-width: 0.4 } 
		.shp1 { fill: url(#grd1) } 
		.shp2 { fill: #fafafa } 
		.shp3 { fill: url(#grd2) } 
		.shp4 { fill: url(#grd3) } 
	</style>
	<path id="Layer" fill-rule="evenodd" class="shp0" d="M22.77 1.8C26.31 1.8 29.2 4.69 29.2 8.23C29.2 11.77 26.31 14.66 22.77 14.66C19.23 14.66 16.34 11.77 16.34 8.23C16.34 4.69 19.23 1.8 22.77 1.8ZM22.77 12.81C25.25 12.81 27.35 10.72 27.35 8.23C27.35 5.75 25.25 3.65 22.77 3.65C20.28 3.65 18.19 5.75 18.19 8.23C18.19 10.72 20.28 12.81 22.77 12.81Z" />
	<path id="Layer" class="shp1" d="M6.15 13.42C5.29 13.42 3.45 12.8 3.04 10.31C2.52 7.19 3.56 3.56 4.08 3.56C4.6 3.56 8.75 3.04 9.79 3.04C10.83 3.04 13.42 4.6 13.42 6.15L6.15 6.15L6.15 13.42Z" />
	<path id="Layer" fill-rule="evenodd" class="shp2" d="M10.31 14.46L6.15 14.46C3.87 14.46 2 12.59 2 10.31L2 6.15C2 3.87 3.87 2 6.15 2L10.31 2C12.59 2 14.46 3.87 14.46 6.15L14.46 10.31C14.46 12.59 12.59 14.46 10.31 14.46ZM6.15 3.45C4.7 3.45 3.45 4.7 3.45 6.15L3.45 10.31C3.45 11.76 4.7 13.01 6.15 13.01L10.31 13.01C11.76 13.01 13.01 11.76 13.01 10.31L13.01 6.15C13.01 4.7 11.76 3.45 10.31 3.45L6.15 3.45Z" />
	<path id="Layer" class="shp3" d="M6.15 27.96C5.29 27.96 3.45 27.34 3.04 24.85C2.52 21.73 3.56 18.1 4.08 18.1C4.6 18.1 8.75 17.58 9.79 17.58C10.83 17.58 13.42 19.13 13.42 20.69L6.15 20.69L6.15 27.96Z" />
	<path id="Layer" fill-rule="evenodd" class="shp2" d="M10.31 29L6.15 29C3.87 29 2 27.13 2 24.85L2 20.69C2 18.41 3.87 16.54 6.15 16.54L10.31 16.54C12.59 16.54 14.46 18.41 14.46 20.69L14.46 24.85C14.46 27.13 12.59 29 10.31 29ZM6.15 17.99C4.7 17.99 3.45 19.24 3.45 20.69L3.45 24.85C3.45 26.3 4.7 27.55 6.15 27.55L10.31 27.55C11.76 27.55 13.01 26.3 13.01 24.85L13.01 20.69C13.01 19.24 11.76 17.99 10.31 17.99L6.15 17.99Z" />
	<path id="Layer" class="shp4" d="M20.69 27.96C19.83 27.96 17.99 27.34 17.58 24.85C17.06 21.73 18.1 18.1 18.62 18.1C19.13 18.1 23.29 17.58 24.33 17.58C25.37 17.58 27.96 19.13 27.96 20.69L20.69 20.69L20.69 27.96Z" />
	<path id="Layer" fill-rule="evenodd" class="shp2" d="M24.85 29L20.69 29C18.41 29 16.54 27.13 16.54 24.85L16.54 20.69C16.54 18.41 18.41 16.54 20.69 16.54L24.85 16.54C27.13 16.54 29 18.41 29 20.69L29 24.85C29 27.13 27.13 29 24.85 29ZM20.69 17.99C19.24 17.99 17.99 19.24 17.99 20.69L17.99 24.85C17.99 26.3 19.24 27.55 20.69 27.55L24.85 27.55C26.3 27.55 27.55 26.3 27.55 24.85L27.55 20.69C27.55 19.24 26.3 17.99 24.85 17.99L20.69 17.99Z" />
</svg>