<svg width="25" height="25" viewBox="0 0 25 25" fill="#ffcc5b" xmlns="http://www.w3.org/2000/svg"><mask id="path-1-inside-1" fill="white"><path fill-rule="evenodd" clip-rule="evenodd" d="M11.6423 0.657983L10.6318 2.76678L11.0272 2.85464C16.5628 3.46971 21.0001 5.0513 21.0001 10.7187C21.0001 12.4321 20.6047 14.0137 19.9017 15.4635C19.9457 15.0241 19.9896 14.5848 19.9896 14.1455C19.9896 8.82956 15.9917 7.42369 10.8954 6.45716H10.6318L11.6423 8.56596C11.818 8.96136 11.4226 9.35675 11.0272 9.18102L1.80127 4.61197H1.8452L11.0272 0.0429186C11.4226 -0.132814 11.818 0.262585 11.6423 0.657983ZM9.44563 21.2187L10.3682 19.2856L9.97283 19.1977C4.43725 18.5827 0 17.0011 0 11.3776C0 9.66424 0.395399 8.08264 1.09833 6.63285C1.0544 7.07218 1.01046 7.51151 1.01046 7.95084C1.01046 13.2228 5.00838 14.6287 10.1046 15.6391H10.3682L9.44563 13.6622C9.22597 13.2228 9.70923 12.7396 10.1486 12.9592L19.2427 17.4404H19.1988L10.1486 21.9216C9.70923 22.1413 9.22597 21.658 9.44563 21.2187Z"></path></mask><path d="M10.6318 2.76678L9.73002 2.33466L9.18606 3.46989L10.4149 3.74296L10.6318 2.76678ZM11.6423 0.657983L12.5441 1.0901L12.5503 1.0772L12.5561 1.06412L11.6423 0.657983ZM11.0272 2.85464L10.8103 3.83083L10.8631 3.84256L10.9168 3.84853L11.0272 2.85464ZM19.9017 15.4635L18.9067 15.364L20.8016 15.8997L19.9017 15.4635ZM10.8954 6.45716L11.0818 5.47468L10.9894 5.45716H10.8954V6.45716ZM10.6318 6.45716V5.45716H9.0438L9.73002 6.88929L10.6318 6.45716ZM11.6423 8.56596L12.5561 8.15982L12.5503 8.14674L12.5441 8.13384L11.6423 8.56596ZM11.0272 9.18102L10.5834 10.0771L10.6021 10.0864L10.6211 10.0948L11.0272 9.18102ZM1.80127 4.61197V3.61197L1.35747 5.5081L1.80127 4.61197ZM1.8452 4.61197V5.61197H2.08026L2.2907 5.50725L1.8452 4.61197ZM11.0272 0.0429186L10.6211 -0.870893L10.6012 -0.862056L10.5817 -0.852364L11.0272 0.0429186ZM10.3682 19.2856L11.2707 19.7163L11.8121 18.5821L10.5852 18.3094L10.3682 19.2856ZM9.44563 21.2187L10.3401 21.6659L10.3442 21.6577L10.3481 21.6494L9.44563 21.2187ZM9.97283 19.1977L10.1898 18.2216L10.137 18.2098L10.0833 18.2039L9.97283 19.1977ZM1.09833 6.63285L2.09337 6.73235L0.198516 6.19657L1.09833 6.63285ZM10.1046 15.6391L9.91014 16.6201L10.0064 16.6391H10.1046V15.6391ZM10.3682 15.6391V16.6391H11.9384L11.2744 15.2163L10.3682 15.6391ZM9.44563 13.6622L10.3518 13.2393L10.3461 13.227L10.3401 13.2149L9.44563 13.6622ZM10.1486 12.9592L9.70134 13.8537L9.70656 13.8562L10.1486 12.9592ZM19.2427 17.4404V18.4404L19.6847 16.5434L19.2427 17.4404ZM19.1988 17.4404V16.4404H18.9648L18.7551 16.5443L19.1988 17.4404ZM10.1486 21.9216L9.70483 21.0254L9.70135 21.0272L10.1486 21.9216ZM11.5337 3.1989L12.5441 1.0901L10.7405 0.225863L9.73002 2.33466L11.5337 3.1989ZM11.2442 1.87846L10.8488 1.79059L10.4149 3.74296L10.8103 3.83083L11.2442 1.87846ZM22.0001 10.7187C22.0001 7.56452 20.7345 5.43015 18.6377 4.0557C16.6278 2.73825 13.9327 2.17131 11.1377 1.86076L10.9168 3.84853C13.6574 4.15304 15.9487 4.68443 17.5413 5.72838C19.047 6.71534 20.0001 8.20547 20.0001 10.7187H22.0001ZM20.8016 15.8997C21.5667 14.3216 22.0001 12.5915 22.0001 10.7187H20.0001C20.0001 12.2727 19.6426 13.7057 19.0019 15.0272L20.8016 15.8997ZM18.9896 14.1455C18.9896 14.5266 18.9515 14.9161 18.9067 15.364L20.8968 15.563C20.9399 15.1322 20.9896 14.6431 20.9896 14.1455H18.9896ZM10.7091 7.43965C13.2582 7.92309 15.3389 8.48838 16.7831 9.4916C18.1362 10.4315 18.9896 11.7972 18.9896 14.1455H20.9896C20.9896 11.1778 19.8441 9.18265 17.9241 7.849C16.0953 6.57867 13.629 5.95777 11.0818 5.47468L10.7091 7.43965ZM10.6318 7.45716H10.8954V5.45716H10.6318V7.45716ZM12.5441 8.13384L11.5337 6.02504L9.73002 6.88929L10.7405 8.99808L12.5441 8.13384ZM10.6211 10.0948C11.8533 10.6425 13.1038 9.39203 12.5561 8.15982L10.7285 8.9721C10.5323 8.53068 10.992 8.07103 11.4334 8.26721L10.6211 10.0948ZM1.35747 5.5081L10.5834 10.0771L11.471 8.28489L2.24506 3.71584L1.35747 5.5081ZM1.8452 3.61197H1.80127V5.61197H1.8452V3.61197ZM10.5817 -0.852364L1.3997 3.71669L2.2907 5.50725L11.4727 0.938201L10.5817 -0.852364ZM12.5561 1.06412C13.1038 -0.168086 11.8533 -1.41854 10.6211 -0.870893L11.4334 0.95673C10.992 1.15291 10.5323 0.693255 10.7285 0.251843L12.5561 1.06412ZM9.46575 18.8549L8.54315 20.7879L10.3481 21.6494L11.2707 19.7163L9.46575 18.8549ZM9.7559 20.1739L10.1513 20.2618L10.5852 18.3094L10.1898 18.2216L9.7559 20.1739ZM-1 11.3776C-1 14.5131 0.268268 16.6359 2.36415 18.0033C4.37323 19.3141 7.06721 19.881 9.8624 20.1916L10.0833 18.2039C7.34287 17.8994 5.05044 17.3679 3.457 16.3283C1.95036 15.3453 1 13.8656 1 11.3776H-1ZM0.198516 6.19657C-0.566636 7.7747 -1 9.50482 -1 11.3776H1C1 9.82365 1.35743 8.39059 1.99814 7.06912L0.198516 6.19657ZM2.01046 7.95084C2.01046 7.56976 2.04858 7.1802 2.09337 6.73235L0.103292 6.53334C0.0602107 6.96416 0.0104634 7.45326 0.0104634 7.95084H2.01046ZM10.2991 14.6582C7.74772 14.1524 5.66423 13.5771 4.21695 12.5718C2.86085 11.6298 2.01046 10.2733 2.01046 7.95084H0.0104634C0.0104634 10.9003 1.15903 12.8828 3.07596 14.2144C4.9017 15.4826 7.3653 16.1155 9.91014 16.6201L10.2991 14.6582ZM10.3682 14.6391H10.1046V16.6391H10.3682V14.6391ZM8.53945 14.085L9.46205 16.062L11.2744 15.2163L10.3518 13.2393L8.53945 14.085ZM10.5958 12.0648C9.29689 11.4154 7.90177 12.8105 8.55121 14.1094L10.3401 13.2149C10.4524 13.4397 10.3634 13.6643 10.2571 13.7707C10.1507 13.877 9.92606 13.966 9.70135 13.8537L10.5958 12.0648ZM19.6847 16.5434L10.5906 12.0622L9.70656 13.8562L18.8007 18.3374L19.6847 16.5434ZM19.1988 18.4404H19.2427V16.4404H19.1988V18.4404ZM10.5923 22.8178L19.6425 18.3366L18.7551 16.5443L9.70484 21.0254L10.5923 22.8178ZM8.55121 20.7715C7.90177 22.0703 9.29688 23.4655 10.5958 22.816L9.70135 21.0272C9.92606 20.9148 10.1507 21.0038 10.2571 21.1101C10.3634 21.2165 10.4524 21.4412 10.3401 21.6659L8.55121 20.7715Z" mask="url(#path-1-inside-1)"></path></svg>