<svg width="29" height="27" viewBox="0 0 29 27" fill="#ffcc5b" xmlns="http://www.w3.org/2000/svg"><path fill-rule="evenodd" clip-rule="evenodd" d="M14.5301 24.7302C14.575 24.8009 14.604 24.8806 14.6152 24.9637V24.9537C14.6293 25.0329 14.6259 25.1143 14.6051 25.192C14.5844 25.2698 14.5469 25.342 14.4952 25.4037C14.3697 25.5322 14.2036 25.6134 14.0252 25.6337C12.4687 25.9003 10.875 25.857 9.33527 25.5064C7.79557 25.1559 6.34021 24.5048 5.0526 23.5907C3.765 22.6766 2.67048 21.5173 1.8318 20.1793C0.993107 18.8413 0.426741 17.351 0.165166 15.7937C-0.319033 12.9163 0.269862 9.96134 1.82011 7.48942C3.37035 5.01751 5.77407 3.20068 8.57517 2.38368C9.25059 2.20223 9.93946 2.07515 10.6352 2.00368V1.96368L11.0352 1.90368C11.115 1.86068 11.176 1.85164 11.2112 1.84643C11.2333 1.84316 11.2452 1.84139 11.2452 1.83368V1.64368C11.2513 1.53043 11.2513 1.41693 11.2452 1.30368C11.2568 1.26453 11.2568 1.22283 11.2452 1.18368H11.1152H9.68517C9.50536 1.18733 9.32945 1.13104 9.18517 1.02368C9.12474 0.969639 9.07654 0.90333 9.04377 0.829179C9.01101 0.755029 8.99444 0.674743 8.99517 0.59368C8.99002 0.512021 9.0046 0.430322 9.03767 0.355482C9.07073 0.280642 9.12132 0.214856 9.18517 0.16368C9.32945 0.0563176 9.50536 2.64238e-05 9.68517 0.0036796H11.9452H14.1852C14.3962 -0.0161368 14.607 0.0445906 14.7752 0.17368C14.8402 0.224363 14.8923 0.289787 14.927 0.364553C14.9618 0.439318 14.9783 0.521282 14.9752 0.60368C14.9791 0.687624 14.963 0.771301 14.9282 0.847805C14.8935 0.924309 14.841 0.991447 14.7752 1.04368C14.6265 1.14983 14.4478 1.20587 14.2652 1.20368H12.7852V1.31368C12.6552 1.26368 12.5952 1.29368 12.5952 1.31368V1.51368V1.83368C12.5873 1.8733 12.5873 1.91406 12.5952 1.95368C12.6307 1.97953 12.6718 1.99666 12.7152 2.00368H13.0452V1.95368C15.6225 2.18822 18.055 3.2497 19.9797 4.97978C21.9044 6.70987 23.2182 9.01582 23.7252 11.5537C23.7718 11.7373 23.7541 11.9314 23.6752 12.1037C23.6365 12.1795 23.5798 12.2447 23.5101 12.2935C23.4403 12.3424 23.3597 12.3733 23.2752 12.3837C23.1953 12.4013 23.1122 12.3986 23.0336 12.3759C22.955 12.3532 22.8834 12.3112 22.8252 12.2537C22.6947 12.1203 22.6106 11.9485 22.5852 11.7637C22.3194 10.3708 21.776 9.04566 20.9874 7.86713C20.1989 6.6886 19.1813 5.68078 17.9952 4.90368V4.84368L17.9352 4.93368C16.4249 3.92693 14.6849 3.3178 12.8765 3.16278C11.0681 3.00776 9.24983 3.31186 7.59028 4.04689C5.93073 4.78192 4.48364 5.92408 3.38317 7.36747C2.28271 8.81085 1.56451 10.5087 1.29517 12.3037C1.08292 13.7208 1.15774 15.1661 1.51517 16.5537C1.87713 17.9433 2.50915 19.2482 3.37517 20.3937C4.24323 21.537 5.3307 22.4956 6.57389 23.2134C7.81708 23.9311 9.191 24.3936 10.6152 24.5737V24.5837C11.6829 24.7222 12.7656 24.6952 13.8252 24.5037V24.4937C14.0037 24.4556 14.1897 24.4766 14.3552 24.5537C14.4256 24.5992 14.4852 24.6594 14.5301 24.7302ZM1.80517 5.44376C1.90443 5.55132 2.03957 5.61889 2.18517 5.63376C2.25807 5.64185 2.33186 5.63347 2.40109 5.60924C2.47032 5.58501 2.53323 5.54555 2.58517 5.49376C3.02769 5.10969 3.40747 4.71864 3.78271 4.33227L3.78281 4.33216C3.85696 4.25582 3.93093 4.17965 4.00517 4.10376C4.06769 4.01598 4.10252 3.9115 4.10517 3.80376C4.13015 3.70532 4.13015 3.6022 4.10517 3.50376C4.08339 3.43346 4.03731 3.3732 3.97517 3.33376C3.92591 3.29149 3.87228 3.25462 3.81517 3.22376L3.66517 3.10376H3.42517C3.33876 3.12698 3.25964 3.17171 3.19517 3.23376C2.72517 3.69376 2.25517 4.15376 1.80517 4.63376C1.73964 4.69152 1.68971 4.76485 1.66 4.847C1.63029 4.92914 1.62175 5.01745 1.63517 5.10376C1.65204 5.23297 1.71192 5.35274 1.80517 5.44376ZM13.4543 14.3761C13.3269 14.7455 13.0671 15.0545 12.7252 15.2436L12.7752 15.2236C12.5468 15.3543 12.2883 15.423 12.0252 15.423C11.7621 15.423 11.5035 15.3543 11.2752 15.2236C11.0184 15.0936 10.8029 14.8948 10.6528 14.6493C10.5027 14.4038 10.4239 14.1213 10.4252 13.8336V13.7636C10.4122 13.7043 10.4122 13.6429 10.4252 13.5836C10.4593 13.5206 10.4772 13.4502 10.4772 13.3786C10.4772 13.307 10.4593 13.2365 10.4252 13.1736C10.3441 13.039 10.2429 12.9176 10.1252 12.8136C9.83268 12.5511 9.55706 12.2717 9.28145 11.9924L9.28142 11.9923C9.18955 11.8992 9.09767 11.8061 9.00517 11.7136L8.62517 11.3336C8.48629 11.2106 8.39147 11.0455 8.35517 10.8636C8.34394 10.7812 8.35261 10.6974 8.38045 10.6191C8.40829 10.5408 8.45449 10.4703 8.51517 10.4136C8.56838 10.3501 8.63625 10.3005 8.71291 10.2692C8.78958 10.2378 8.87273 10.2256 8.95517 10.2336C9.13941 10.2651 9.30811 10.3565 9.43517 10.4936C10.0152 11.0636 10.5952 11.6436 11.1652 12.2336L11.1552 12.2436C11.1972 12.2922 11.253 12.3271 11.3152 12.3436C11.377 12.3628 11.4433 12.3628 11.5052 12.3436C11.8793 12.2343 12.2802 12.2627 12.6352 12.4236C12.9864 12.5928 13.2637 12.8843 13.4152 13.2436C13.5678 13.6033 13.5818 14.0067 13.4543 14.3761ZM12.2352 14.1836C12.3116 14.1054 12.3577 14.0026 12.3652 13.8936V13.8836C12.3734 13.8003 12.3559 13.7166 12.3152 13.6436C12.273 13.573 12.2102 13.5172 12.1352 13.4836C12.0564 13.4641 11.974 13.4641 11.8952 13.4836C11.8162 13.4998 11.7435 13.538 11.6852 13.5936C11.6268 13.6513 11.5853 13.7239 11.5652 13.8036C11.5453 13.8823 11.5453 13.9648 11.5652 14.0436C11.595 14.1179 11.6475 14.1809 11.7152 14.2236C11.7817 14.2735 11.8621 14.3015 11.9452 14.3036C12.0531 14.2997 12.156 14.2571 12.2352 14.1836ZM12.5252 6.66355V6.65355L12.5153 6.65257C12.5252 6.56655 12.5251 6.47967 12.5152 6.39366V6.30366C12.5252 6.18053 12.5252 6.05679 12.5152 5.93366C12.4992 5.79627 12.4355 5.66885 12.3352 5.57366C12.2264 5.48004 12.0886 5.42703 11.9452 5.42366L11.9552 5.41366C11.8121 5.40875 11.6725 5.45884 11.5652 5.55366C11.4639 5.63982 11.3995 5.76148 11.3852 5.89366C11.3502 6.15248 11.3502 6.41484 11.3852 6.67366C11.3906 6.74205 11.4103 6.80854 11.443 6.86883C11.4757 6.92912 11.5208 6.98187 11.5752 7.02366C11.6879 7.10652 11.8254 7.14881 11.9652 7.14366C12.1011 7.1418 12.2321 7.09225 12.3352 7.00366C12.4297 6.91144 12.4923 6.79148 12.5139 6.66131L12.5252 6.66355ZM8.95517 6.00373V6.00366H8.96517L8.96017 6.0537L8.96517 6.1037V6.0237C9.04767 6.02928 9.12797 6.05274 9.20049 6.09246C9.27302 6.13217 9.33603 6.1872 9.38517 6.2537C9.46423 6.37187 9.52807 6.49955 9.57517 6.6337C9.65517 6.7037 9.65517 6.7737 9.65517 6.8337C9.71512 6.95459 9.74268 7.08897 9.73517 7.2237C9.71533 7.36713 9.64429 7.49854 9.53517 7.5937C9.47127 7.64899 9.39625 7.68992 9.31517 7.7137C9.23249 7.72849 9.14784 7.72849 9.06517 7.7137C8.98289 7.69514 8.90486 7.66122 8.83517 7.6137C8.76361 7.56546 8.70519 7.50016 8.66517 7.4237C8.54398 7.2048 8.44675 6.97346 8.37517 6.7337C8.35381 6.6463 8.35273 6.55517 8.372 6.46728C8.39127 6.3794 8.43039 6.29708 8.48636 6.22664C8.54233 6.15619 8.61367 6.09948 8.69493 6.06084C8.77618 6.0222 8.8652 6.00266 8.95517 6.0037L8.95517 6.00373ZM9.79516 20.6337V20.5737L9.67516 20.4337C9.59203 20.3175 9.48666 20.2189 9.36516 20.1437C9.30621 20.1128 9.24168 20.0939 9.17535 20.0882C9.10903 20.0826 9.04223 20.0902 8.9789 20.1107C8.91556 20.1312 8.85695 20.1641 8.80651 20.2076C8.75607 20.251 8.71481 20.3041 8.68516 20.3637C8.55644 20.5907 8.45571 20.8325 8.38516 21.0837C8.35744 21.1432 8.34308 21.208 8.34308 21.2737C8.34308 21.3393 8.35744 21.4042 8.38516 21.4637C8.44189 21.5784 8.53271 21.6727 8.64516 21.7337C8.75407 21.8015 8.88456 21.8258 9.01059 21.8018C9.13663 21.7777 9.24895 21.7069 9.32516 21.6037C9.45013 21.4121 9.55406 21.2076 9.63516 20.9937C9.6768 20.9045 9.70782 20.8329 9.73665 20.7665L9.73672 20.7663C9.75633 20.7211 9.77492 20.6782 9.79516 20.6337ZM28.2152 20.1638C28.2205 20.0128 28.1667 19.8657 28.0652 19.7538C27.9465 19.6479 27.7941 19.5876 27.6352 19.5838H25.8752L26.0152 19.4538C26.1752 19.3038 26.3352 19.1538 26.4852 18.9938C26.622 18.8775 26.7081 18.7125 26.7252 18.5338C26.7312 18.4524 26.7191 18.3707 26.6897 18.2946C26.6603 18.2185 26.6144 18.1499 26.5552 18.0938C26.4985 18.0358 26.4296 17.9913 26.3534 17.9636C26.2772 17.9359 26.1958 17.9257 26.1152 17.9338C25.9384 17.9639 25.7766 18.0518 25.6552 18.1838L25.4788 18.3601L25.4652 18.3738C25.1252 18.7038 24.7852 19.0338 24.4652 19.3738C24.4051 19.4433 24.3298 19.498 24.2452 19.5338C24.1597 19.5538 24.0707 19.5538 23.9852 19.5338H21.5852V19.4238L21.8252 19.0138L21.8863 18.9072L21.8863 18.9072L21.8863 18.9072L21.8863 18.9071L21.8864 18.9071L21.8864 18.9071L21.8864 18.9071L21.8864 18.9071L21.8864 18.9071L21.8864 18.907L21.8864 18.907L21.8864 18.907L21.8864 18.907L21.8865 18.907L21.8865 18.9069L21.8865 18.9069C22.1763 18.4014 22.4702 17.8889 22.8252 17.3938C22.8975 17.274 23.0114 17.185 23.1452 17.1438C23.4018 17.0631 23.6585 16.9932 23.9191 16.9222L23.9195 16.9221C24.0141 16.8963 24.1093 16.8704 24.2052 16.8438L24.8952 16.6638C24.9945 16.637 25.087 16.5892 25.1664 16.5237C25.2457 16.4581 25.3101 16.3763 25.3552 16.2838C25.3945 16.1934 25.4051 16.093 25.3854 15.9964C25.3657 15.8998 25.3167 15.8116 25.2452 15.7438C25.1665 15.6681 25.0703 15.6131 24.9652 15.5838C24.8599 15.5594 24.7504 15.5594 24.6452 15.5838C24.6251 15.5866 24.6051 15.5895 24.5852 15.5926C24.3618 15.6269 24.1412 15.6774 23.9252 15.7438H23.7752L24.1152 15.2038C24.2852 14.9138 24.4552 14.6238 24.6152 14.3238C24.6564 14.2586 24.6839 14.1858 24.6961 14.1097C24.7084 14.0336 24.705 13.9558 24.6863 13.881C24.6676 13.8062 24.634 13.736 24.5874 13.6746C24.5407 13.6132 24.4822 13.5619 24.4152 13.5238C24.286 13.4464 24.1322 13.4214 23.9852 13.4538C23.838 13.5003 23.711 13.5955 23.6252 13.7238C23.5816 13.7848 23.5416 13.8482 23.5052 13.9138L23.4552 14.0038L23.2452 14.3538C23.0852 14.6338 22.9252 14.9138 22.7552 15.1938C22.7552 15.0974 22.718 15.0009 22.6808 14.9045L22.6808 14.9045C22.6601 14.8509 22.6395 14.7974 22.6252 14.7438H22.6152L22.5352 14.4538C22.4922 14.275 22.3943 14.1141 22.2552 13.9938C22.1878 13.946 22.1106 13.9141 22.0293 13.9002C21.9479 13.8864 21.8645 13.891 21.7852 13.9138C21.7034 13.9325 21.6272 13.9703 21.5628 14.0242C21.4985 14.0781 21.4479 14.1465 21.4152 14.2238C21.3592 14.3994 21.3592 14.5881 21.4152 14.7638C21.4431 14.8532 21.468 14.9458 21.4932 15.0398L21.4932 15.0399C21.513 15.1139 21.5331 15.1889 21.5552 15.2638C21.6652 15.6638 21.7652 16.0538 21.8652 16.4538C21.9 16.5679 21.9 16.6897 21.8652 16.8038C21.5452 17.3738 21.2152 17.9438 20.8652 18.5138L20.6552 18.8738L20.5852 18.9638L20.2752 18.4338L19.2752 16.7138C19.2637 16.678 19.2637 16.6395 19.2752 16.6038C19.2703 16.5539 19.2703 16.5037 19.2752 16.4538C19.3329 16.197 19.399 15.9443 19.4653 15.6905L19.4653 15.6905C19.5023 15.5489 19.5394 15.407 19.5752 15.2638L19.7252 14.6538H19.7352C19.791 14.5021 19.791 14.3355 19.7352 14.1838C19.6986 14.1151 19.6475 14.0553 19.5852 14.0087C19.523 13.962 19.4513 13.9296 19.3752 13.9138C19.2996 13.892 19.2202 13.8869 19.1424 13.899C19.0647 13.9111 18.9905 13.94 18.9252 13.9838C18.7892 14.0883 18.6938 14.2367 18.6552 14.4038C18.6052 14.6138 18.5352 14.8337 18.4652 15.0537L18.4652 15.0538L18.4152 15.2038L18.1152 14.7238L17.5552 13.7238C17.4802 13.5774 17.351 13.4662 17.1952 13.4138C17.1209 13.3897 17.0424 13.3817 16.9648 13.3903C16.8872 13.3989 16.8123 13.424 16.7452 13.4638C16.6776 13.4992 16.6185 13.5489 16.5719 13.6093C16.5253 13.6697 16.4923 13.7394 16.4752 13.8138C16.4393 13.9737 16.4643 14.1412 16.5452 14.2838L16.8752 14.8638L17.0452 15.1738H17.1052L17.0152 15.2238L17.3452 15.8038H17.2352L16.5752 15.6338C16.4097 15.5781 16.2306 15.5781 16.0652 15.6338C15.9938 15.6641 15.9304 15.7106 15.8801 15.7696C15.8297 15.8286 15.7938 15.8985 15.7752 15.9738H15.7852C15.7556 16.0539 15.7447 16.1396 15.7534 16.2246C15.7621 16.3095 15.79 16.3913 15.8352 16.4638C15.9467 16.6081 16.1064 16.7075 16.2852 16.7438V16.7338L16.8652 16.8938C16.9781 16.9243 17.091 16.9539 17.2036 16.9834L17.204 16.9835L17.2043 16.9836L17.2047 16.9837L17.2051 16.9838C17.461 17.0508 17.7155 17.1175 17.9652 17.1938C18.0998 17.2383 18.2159 17.3262 18.2952 17.4438C18.5617 17.8832 18.8178 18.3278 19.0748 18.7738L19.0748 18.7739L19.075 18.7742C19.1747 18.9472 19.2746 19.1205 19.3752 19.2938L19.4552 19.4438C19.4826 19.4918 19.506 19.5419 19.5252 19.5938H18.9852H17.4452C17.2515 19.6111 17.0565 19.5837 16.8752 19.5138C16.6992 19.435 16.5449 19.3149 16.4252 19.1638C16.1437 18.8491 15.8467 18.5487 15.5352 18.2638L15.3652 18.1038L15.2952 18.1738L15.3452 18.1138C15.2917 18.054 15.2262 18.0061 15.153 17.9733C15.0797 17.9406 15.0004 17.9236 14.9202 17.9236C14.8399 17.9236 14.7606 17.9406 14.6874 17.9733C14.6141 18.0061 14.5486 18.054 14.4952 18.1138C14.4409 18.1647 14.3985 18.227 14.3709 18.2961C14.3432 18.3652 14.331 18.4395 14.3352 18.5138C14.3553 18.6696 14.4215 18.8158 14.5252 18.9338L14.7052 19.1038L14.7952 19.1938L15.1152 19.5238C15.0355 19.5334 14.9549 19.5334 14.8752 19.5238H14.4552H13.4552C13.2886 19.5187 13.1268 19.5798 13.0052 19.6938C12.9494 19.7478 12.9061 19.8134 12.8784 19.886C12.8508 19.9586 12.8394 20.0363 12.8452 20.1138C12.8454 20.1908 12.8614 20.267 12.8924 20.3376C12.9234 20.4081 12.9686 20.4715 13.0252 20.5238C13.1523 20.6262 13.312 20.6794 13.4752 20.6738V20.6838H15.1152C14.9714 20.8959 14.8073 21.0935 14.6252 21.2738C14.4957 21.3931 14.408 21.5508 14.3752 21.7238C14.3696 21.806 14.3829 21.8884 14.4141 21.9647C14.4453 22.0409 14.4936 22.109 14.5552 22.1638C14.6097 22.2229 14.6763 22.2696 14.7505 22.3006C14.8247 22.3317 14.9048 22.3464 14.9852 22.3438C15.1386 22.3176 15.2808 22.2479 15.3951 22.1437L15.4252 22.1738C15.5952 22.0138 15.7552 21.8538 15.9152 21.6838C16.1652 21.4338 16.4152 21.1838 16.6752 20.9438C16.7802 20.8476 16.9135 20.788 17.0552 20.7738H18.7652H19.5252L19.2552 21.2438H19.2352C18.9152 21.8038 18.6052 22.3438 18.2352 22.8738C18.1524 23.0008 18.029 23.096 17.8852 23.1438L16.8852 23.4238L16.1352 23.6238C15.9765 23.6634 15.84 23.764 15.7552 23.9038C15.7154 23.9709 15.6896 24.0453 15.6793 24.1227C15.669 24.2 15.6744 24.2786 15.6952 24.3538C15.7096 24.4292 15.7416 24.5002 15.7885 24.561C15.8354 24.6218 15.8959 24.6707 15.9652 24.7038C16.1202 24.7604 16.2902 24.7604 16.4452 24.7038L16.7152 24.6338V24.6238H16.8352L17.2652 24.5038C17.2394 24.5626 17.2093 24.6194 17.1752 24.6738H17.1652L16.9152 25.1038L16.4052 26.0038C16.328 26.1405 16.3065 26.3016 16.3452 26.4538C16.3686 26.5268 16.4063 26.5945 16.4561 26.6528C16.5059 26.7112 16.5667 26.7591 16.6352 26.7938C16.697 26.8327 16.7664 26.8582 16.8388 26.8686C16.9111 26.8789 16.9849 26.8739 17.0552 26.8538C17.1285 26.8343 17.1973 26.8005 17.2574 26.7541C17.3175 26.7077 17.3677 26.6498 17.4052 26.5838C17.5452 26.3638 17.6752 26.1338 17.8052 25.9038L17.8326 25.8529L17.8518 25.817C17.8968 25.7325 17.9432 25.6454 17.9952 25.5638L18.2452 25.1438V25.2338L18.4352 25.9238C18.4742 26.0959 18.5735 26.2484 18.7152 26.3538C18.7795 26.4035 18.8551 26.4368 18.9353 26.4508C19.0154 26.4647 19.0978 26.4589 19.1752 26.4338C19.2536 26.4134 19.3265 26.3759 19.3887 26.324C19.4509 26.2722 19.501 26.2072 19.5352 26.1338C19.5963 25.9658 19.5963 25.7817 19.5352 25.6138C19.4999 25.4586 19.4547 25.2985 19.4101 25.1404C19.3914 25.0743 19.3728 25.0086 19.3552 24.9438L19.0852 23.9438C19.0501 23.84 19.0501 23.7276 19.0852 23.6238C19.2881 23.2618 19.494 22.9028 19.703 22.5386L19.7031 22.5384C19.8751 22.2386 20.0491 21.9353 20.2252 21.6238L20.3252 21.4538V21.4038C20.3463 21.4408 20.3675 21.4785 20.3888 21.5165L20.3889 21.5167L20.3889 21.5167L20.3889 21.5167L20.3889 21.5167L20.3889 21.5168L20.3889 21.5168L20.389 21.5168L20.389 21.5169L20.389 21.5169L20.389 21.5169L20.389 21.5169L20.3891 21.517C20.4483 21.6227 20.509 21.7309 20.5752 21.8338C20.7402 22.1238 20.9077 22.4138 21.0752 22.7038C21.2427 22.9938 21.4102 23.2838 21.5752 23.5738C21.6153 23.6767 21.6153 23.7909 21.5752 23.8938L21.3052 24.8938C21.2752 25.0138 21.2427 25.1338 21.2102 25.2538C21.1777 25.3738 21.1452 25.4938 21.1152 25.6138C21.0532 25.7816 21.0532 25.966 21.1152 26.1338C21.1505 26.2064 21.2008 26.2708 21.2629 26.3225C21.325 26.3742 21.3973 26.4121 21.4752 26.4338C21.5536 26.4551 21.6359 26.458 21.7157 26.4424C21.7954 26.4268 21.8705 26.393 21.9352 26.3438C22.0739 26.2315 22.1722 26.077 22.2152 25.9038L22.2152 25.9036L22.2152 25.9035C22.2752 25.6936 22.3352 25.4837 22.3952 25.2538V25.1438C22.4287 25.1881 22.4587 25.2349 22.4852 25.2838H22.4952L22.4952 25.2839L22.4952 25.2839L22.4953 25.2839L22.4953 25.2839L22.4953 25.284L22.4953 25.284L22.4953 25.284L22.4953 25.284L22.4953 25.284L22.4953 25.284L22.4953 25.2841L22.4954 25.2841L22.4954 25.2841L22.4954 25.2841L22.4954 25.2841L22.4954 25.2841C22.5853 25.434 22.6752 25.5839 22.7552 25.7338L22.8452 25.6838L23.1152 25.7038L23.6252 26.5738C23.6616 26.6424 23.7116 26.7029 23.7722 26.7515C23.8328 26.8002 23.9028 26.8359 23.9777 26.8565C24.0526 26.8771 24.1309 26.8821 24.2079 26.8714C24.2849 26.8606 24.3588 26.8342 24.4252 26.7938C24.5538 26.7221 24.6503 26.6041 24.6952 26.4638C24.7448 26.3247 24.7448 26.1728 24.6952 26.0338C24.6478 25.9372 24.5944 25.8436 24.5352 25.7538C24.5223 25.7218 24.5055 25.6916 24.4852 25.6638L23.8352 24.5238L24.6052 24.7138C24.7731 24.7749 24.9572 24.7749 25.1252 24.7138C25.202 24.6765 25.2691 24.6219 25.3212 24.5542C25.3733 24.4865 25.4089 24.4076 25.4252 24.3238C25.4449 24.2474 25.4479 24.1677 25.4341 24.0901C25.4203 24.0124 25.39 23.9387 25.3452 23.8738C25.2267 23.7344 25.0646 23.6393 24.8852 23.6038V23.6138L24.3252 23.4638L23.1152 23.1038C22.9878 23.0663 22.878 22.9848 22.8052 22.8738C22.4252 22.2438 22.0552 21.6038 21.6952 20.9638L21.6352 20.8638C21.6116 20.8187 21.5916 20.7719 21.5752 20.7238H21.7752H23.9852C24.0639 20.7039 24.1464 20.7039 24.2252 20.7238C24.3043 20.755 24.3759 20.8028 24.4352 20.8638L24.4645 20.8944C24.8752 21.3238 25.2954 21.7435 25.7252 22.1538L25.7152 22.1638C25.8255 22.2787 25.976 22.3468 26.1352 22.3538C26.2104 22.3517 26.2845 22.3347 26.3532 22.3038C26.4218 22.2729 26.4837 22.2287 26.5352 22.1738V22.1238C26.5915 22.0714 26.6364 22.0079 26.6671 21.9374C26.6979 21.8668 26.7137 21.7907 26.7137 21.7138C26.7137 21.6368 26.6979 21.5607 26.6671 21.4902C26.6364 21.4196 26.5915 21.3562 26.5352 21.3038C26.4524 21.2059 26.3639 21.1194 26.2783 21.0356L26.2781 21.0355C26.2501 21.0081 26.2223 20.9809 26.1952 20.9538L25.9552 20.7138V20.6438H26.6352H27.6352C27.7132 20.6463 27.7908 20.6324 27.8631 20.6032C27.9355 20.5739 28.0009 20.5298 28.0552 20.4738C28.1102 20.4229 28.1538 20.361 28.1831 20.292C28.2124 20.2231 28.2267 20.1487 28.2252 20.0738L28.2152 20.1638ZM16.6052 8.47378C16.7919 8.20367 17.0297 7.97267 17.3052 7.79378C17.3832 7.74408 17.4742 7.71852 17.5667 7.7203C17.6592 7.72208 17.7491 7.75112 17.8252 7.80378C17.9052 7.85642 17.9715 7.92747 18.0185 8.01098C18.0655 8.09449 18.0917 8.18803 18.0952 8.28378C18.0948 8.4012 18.0601 8.51594 17.9952 8.61378C17.9202 8.72947 17.8331 8.83676 17.7352 8.93378C17.6394 9.02909 17.5357 9.11607 17.4252 9.19378C17.3258 9.25687 17.2125 9.29464 17.0952 9.30378C16.9975 9.29767 16.9026 9.26925 16.8176 9.22071C16.7327 9.17217 16.66 9.1048 16.6052 9.02378C16.5514 8.94214 16.5227 8.84654 16.5227 8.74878C16.5227 8.65103 16.5514 8.55542 16.6052 8.47378ZM12.5352 21.3936V21.4836L12.5152 21.6036C12.5248 21.6933 12.5248 21.7839 12.5152 21.8736C12.4873 22.0085 12.4173 22.1311 12.3152 22.2236C12.2028 22.3155 12.0601 22.3618 11.9152 22.3536V22.3436C11.7788 22.3398 11.6484 22.2873 11.5475 22.1956C11.4466 22.1038 11.3819 21.979 11.3652 21.8436C11.3452 21.6241 11.3452 21.4031 11.3652 21.1836C11.3652 21.1066 11.3805 21.0303 11.4103 20.9593C11.44 20.8883 11.4837 20.8239 11.5386 20.7699C11.5935 20.7159 11.6586 20.6734 11.7302 20.6448C11.8017 20.6163 11.8782 20.6023 11.9552 20.6036C12.0314 20.6031 12.107 20.6179 12.1774 20.6471C12.2478 20.6763 12.3117 20.7193 12.3652 20.7736C12.4712 20.8882 12.5316 21.0376 12.5352 21.1936C12.5402 21.2602 12.5402 21.327 12.5352 21.3936ZM3.98516 14.4637H4.11516H4.21516H4.40516H4.72516C4.80147 14.4589 4.87583 14.4376 4.94315 14.4014C5.01047 14.3651 5.06915 14.3147 5.11516 14.2537C5.19583 14.1584 5.24168 14.0385 5.24516 13.9137C5.25041 13.783 5.21551 13.6539 5.14516 13.5437C5.10951 13.4861 5.06131 13.4373 5.00417 13.4009C4.94704 13.3646 4.88243 13.3416 4.81516 13.3337C4.51314 13.2937 4.20718 13.2937 3.90516 13.3337C3.83901 13.3448 3.77609 13.3702 3.72081 13.4082C3.66553 13.4463 3.61923 13.4959 3.58516 13.5537C3.52558 13.6709 3.50126 13.8029 3.51516 13.9337C3.5237 14.066 3.58066 14.1906 3.67516 14.2837C3.76252 14.3709 3.87395 14.4301 3.99516 14.4537L3.98516 14.4637ZM5.77243 16.7538H5.77517C5.78292 16.66 5.76992 16.5657 5.73708 16.4776C5.70424 16.3894 5.65237 16.3096 5.58517 16.2438C5.52603 16.1812 5.45145 16.1353 5.36894 16.1107C5.28643 16.0861 5.1989 16.0837 5.11517 16.1038C4.85187 16.1714 4.5994 16.2758 4.36517 16.4138C4.29118 16.4579 4.22933 16.5198 4.18517 16.5938C4.13482 16.6646 4.1038 16.7473 4.09517 16.8338C4.08494 16.9242 4.09172 17.0158 4.11517 17.1038C4.14537 17.1781 4.18949 17.246 4.24517 17.3038C4.32941 17.3992 4.44366 17.4631 4.56909 17.4849C4.69452 17.5067 4.82364 17.4852 4.93517 17.4238C5.01522 17.3827 5.09891 17.3493 5.18517 17.3238C5.31863 17.269 5.4433 17.1948 5.55517 17.1038C5.61887 17.0619 5.67192 17.0057 5.71011 16.9398C5.74327 16.8825 5.76442 16.8192 5.77243 16.7538ZM4.26516 11.2637C4.46413 11.3876 4.67127 11.4978 4.88516 11.5937L5.20516 11.7337H5.26516V11.6837L5.41516 11.5537L5.57516 11.4037C5.63244 11.3548 5.67126 11.2877 5.68516 11.2137C5.71486 11.1023 5.71486 10.9851 5.68516 10.8737C5.64689 10.768 5.58538 10.6723 5.50516 10.5937C5.28013 10.4228 5.01499 10.3127 4.73516 10.2737C4.62503 10.2643 4.51443 10.2851 4.41516 10.3337C4.31647 10.383 4.2282 10.4509 4.15516 10.5337C4.10706 10.5803 4.0725 10.639 4.05516 10.7037C4.04029 10.7661 4.04029 10.8312 4.05516 10.8937C4.0572 10.9676 4.07783 11.0398 4.11516 11.1037C4.14782 11.1565 4.19233 11.201 4.24516 11.2337L4.26516 11.2637ZM15.5108 6.80228C15.4884 6.8405 15.4652 6.88018 15.4652 6.92372H15.4952C15.4112 7.12814 15.3109 7.32544 15.1952 7.51372L15.1525 7.48173C15.1175 7.52918 15.0742 7.56999 15.0246 7.60212C14.9689 7.63825 14.9064 7.66267 14.8409 7.67389C14.7754 7.68512 14.7084 7.68291 14.6438 7.66741C14.5792 7.65191 14.5184 7.62344 14.4652 7.58372C14.3485 7.5284 14.2561 7.43239 14.2052 7.31372C14.1799 7.25358 14.1668 7.18898 14.1668 7.12372C14.1668 7.05847 14.1799 6.99387 14.2052 6.93372V6.87372C14.2581 6.64621 14.3567 6.43185 14.4952 6.24372C14.5719 6.16591 14.6638 6.10465 14.7652 6.06372C14.8633 6.0228 14.9688 6.00238 15.0752 6.00372V6.09372C15.1441 6.09578 15.2114 6.11519 15.2708 6.15015C15.3302 6.18511 15.3799 6.23449 15.4152 6.29372C15.4995 6.42503 15.5446 6.57768 15.5452 6.73372C15.5376 6.7564 15.5243 6.77907 15.5108 6.80228ZM5.90515 8.63357C6.06348 8.84369 6.25222 9.02906 6.46515 9.18357C6.55001 9.22524 6.64129 9.25229 6.73515 9.26357C6.83101 9.26746 6.92656 9.25039 7.01515 9.21357C7.12946 9.14719 7.22297 9.05022 7.28515 8.93357V8.87358C7.28469 8.73912 7.24658 8.60749 7.17515 8.49358C7.13188 8.35649 7.0714 8.22544 6.99515 8.10357C6.90349 7.99993 6.79537 7.91208 6.67515 7.84357C6.57872 7.77573 6.46303 7.74067 6.34515 7.74358C6.2443 7.74909 6.14672 7.7813 6.06241 7.83692C5.97809 7.89254 5.91007 7.96957 5.86531 8.06011C5.82054 8.15066 5.80064 8.25147 5.80765 8.35223C5.81465 8.453 5.8483 8.55009 5.90515 8.63357ZM7.28516 19.3136C7.3419 19.2294 7.37222 19.1302 7.37222 19.0286C7.37222 18.9271 7.3419 18.8278 7.28516 18.7436C7.22954 18.6588 7.15396 18.5889 7.06504 18.5401C6.97612 18.4913 6.87658 18.465 6.77516 18.4636C6.6641 18.4731 6.55735 18.511 6.46516 18.5736C6.35331 18.6458 6.2494 18.7296 6.15516 18.8236C6.05985 18.9194 5.97287 19.0231 5.89516 19.1336C5.83088 19.2287 5.79293 19.3391 5.78516 19.4536C5.78642 19.5537 5.8127 19.6519 5.8616 19.7392C5.91051 19.8265 5.98048 19.9002 6.06516 19.9536C6.14885 20.0117 6.24829 20.0428 6.35016 20.0428C6.45202 20.0428 6.55146 20.0117 6.63516 19.9536C6.89028 19.7832 7.11083 19.5661 7.28516 19.3136ZM19.7355 11.044C19.7053 11.1278 19.6602 11.2054 19.6026 11.2729L19.6052 11.2736L19.5972 11.2792C19.5839 11.2945 19.5698 11.3094 19.5552 11.3236L19.5473 11.3131C19.3455 11.4457 19.1212 11.5408 18.8852 11.5936C18.7627 11.6396 18.6276 11.6396 18.5052 11.5936C18.3919 11.5304 18.2984 11.4369 18.2352 11.3236C18.1648 11.2111 18.14 11.0759 18.1661 10.9458C18.1921 10.8156 18.2669 10.7004 18.3752 10.6236C18.5679 10.5097 18.7684 10.4095 18.9752 10.3236L19.2952 10.1936H19.3552V10.2436L19.4952 10.3636C19.5534 10.4081 19.607 10.4584 19.6552 10.5136C19.7121 10.5686 19.7534 10.6375 19.7752 10.7136C19.7872 10.8253 19.7737 10.9383 19.7355 11.044Z"></path></svg>