<?xml version="1.0" standalone="no"?>
<!DOCTYPE svg PUBLIC "-//W3C//DTD SVG 20010904//EN"
 "http://www.w3.org/TR/2001/REC-SVG-20010904/DTD/svg10.dtd">
<svg version="1.0" xmlns="http://www.w3.org/2000/svg"
 width="200.000000pt" height="200.000000pt" viewBox="0 0 200.000000 200.000000"
 preserveAspectRatio="xMidYMid meet">

<g transform="translate(0.000000,200.000000) scale(0.100000,-0.100000)"
fill="#ffffff" stroke="none">
<path d="M487 1512 c-521 -521 -514 -513 -464 -560 54 -51 45 -59 529 425
l448 448 448 -448 c394 -394 451 -447 478 -447 37 0 74 36 74 71 0 36 -964
999 -1000 999 -20 0 -129 -104 -513 -488z"/>
<path d="M317 840 l-27 -21 0 -390 c0 -376 1 -390 20 -409 20 -20 33 -20 690
-20 657 0 670 0 690 20 19 19 20 33 20 409 l0 390 -27 21 c-32 25 -69 20 -95
-12 -16 -18 -18 -51 -18 -354 l0 -334 -570 0 -570 0 0 334 c0 303 -2 336 -17
354 -27 32 -64 37 -96 12z"/>
</g>
</svg>
