<svg width="24" height="24" viewBox="0 0 24 24" fill="white" xmlns="http://www.w3.org/2000/svg" class="fill-current text-[#bbbddd]"><path fill-rule="evenodd" clip-rule="evenodd" d="M6.11977 11.9416L12.4675 5.59392C12.6081 5.45327 12.6871 5.2625 12.6871 5.06359C12.6871 4.86468 12.6081 4.67391 12.4675 4.53326C12.3268 4.39261 12.136 4.31359 11.9371 4.31359C11.7382 4.31359 11.5475 4.39261 11.4068 4.53326L4.52948 11.4106C4.38926 11.5512 4.31052 11.7416 4.31052 11.9402C4.31052 12.1388 4.38926 12.3292 4.52948 12.4698L11.4068 19.3471C11.5475 19.4878 11.7382 19.5668 11.9371 19.5668C12.136 19.5668 12.3268 19.4878 12.4675 19.3471C12.6081 19.2065 12.6871 19.0157 12.6871 18.8168C12.6871 18.6179 12.6081 18.4271 12.4675 18.2865L6.11977 11.9416Z"></path></svg>