<svg width="27" height="27" viewBox="0 0 24 24" fill="#bbbddd" xmlns="http://www.w3.org/2000/svg"> <path d="M4.707 7.414H19.793C19.9805 7.414 20.1603 7.33951 20.2929 7.20692C20.4255 7.07434 20.5 6.89451 20.5 6.707C20.5 6.51949 20.4255 6.33967 20.2929 6.20708C20.1603 6.07449 19.9805 6 19.793 6H4.707C4.51949 6 4.33966 6.07449 4.20708 6.20708C4.07449 6.33967 4 6.51949 4 6.707C4 6.89451 4.07449 7.07434 4.20708 7.20692C4.33966 7.33951 4.51949 7.414 4.707 7.414V7.414Z"></path><path d="M4.57903 12.723H16.921C17.084 12.6904 17.2306 12.6023 17.3359 12.4738C17.4413 12.3452 17.4988 12.1842 17.4988 12.018C17.4988 11.8518 17.4413 11.6908 17.3359 11.5622C17.2306 11.4337 17.084 11.3456 16.921 11.313H4.57903C4.41608 11.3456 4.26947 11.4337 4.16413 11.5622C4.05879 11.6908 4.00122 11.8518 4.00122 12.018C4.00122 12.1842 4.05879 12.3452 4.16413 12.4738C4.26947 12.6023 4.41608 12.6904 4.57903 12.723V12.723Z"></path><path d="M4.45 18.0361H14.05C14.298 18.0361 14.5 17.7191 14.5 17.3311C14.5 16.9431 14.3 16.6311 14.05 16.6311H4.45C4.203 16.6311 4 16.9481 4 17.3311C4 17.7141 4.2 18.0361 4.45 18.0361Z"></path></svg>