<svg width="32" height="32" viewBox="0 0 32 32" fill="none" xmlns="http://www.w3.org/2000/svg">
<path d="M7.67892 22.318V7.83801C7.67892 6.42501 9.22291 5.401 11.1139 5.401H29L27.7139 3.5L24.5079 1.852H11.1079C10.4538 1.84816 9.80751 1.9946 9.21892 2.28001H8.11891C5.69291 2.28001 3.71191 3.82401 3.71191 5.71501V22.315C3.71191 24.207 5.69291 25.758 8.11891 25.758H12.0799C9.66192 25.762 7.67892 24.21 7.67892 22.318Z" fill="url(#paint0_linear)"/>
<path d="M16.459 30.762L11.904 26.479H7.157C6.05499 26.478 4.99841 26.0398 4.21908 25.2607C3.43975 24.4815 3.00132 23.425 3 22.323V5.72302C3.00132 4.62102 3.43975 3.56454 4.21908 2.7854C4.99841 2.00626 6.05499 1.56808 7.157 1.56702H25.757C26.859 1.56808 27.9156 2.00626 28.6949 2.7854C29.4743 3.56454 29.9127 4.62102 29.914 5.72302V8.87502C29.914 9.06544 29.8384 9.24807 29.7037 9.38272C29.5691 9.51737 29.3864 9.59302 29.196 9.59302C29.0056 9.59302 28.823 9.51737 28.6883 9.38272C28.5536 9.24807 28.478 9.06544 28.478 8.87502V5.72302C28.4769 5.00179 28.1899 4.31041 27.6798 3.80051C27.1697 3.29061 26.4782 3.00381 25.757 3.00302H7.157C6.43568 3.00355 5.74404 3.29026 5.2339 3.80022C4.72376 4.31017 4.4368 5.0017 4.436 5.72302V22.323C4.43679 23.0444 4.72372 23.7361 5.23384 24.2462C5.74395 24.7563 6.43559 25.0432 7.157 25.044H12.474L16.458 28.791L20.435 25.044H25.76C26.4813 25.043 27.1728 24.7559 27.6829 24.2459C28.1929 23.7358 28.4799 23.0444 28.481 22.323V18.131C28.481 17.9406 28.5566 17.758 28.6913 17.6233C28.8259 17.4887 29.0086 17.413 29.199 17.413C29.3894 17.413 29.5721 17.4887 29.7067 17.6233C29.8414 17.758 29.917 17.9406 29.917 18.131V22.323C29.9157 23.425 29.4773 24.4815 28.6979 25.2607C27.9186 26.0398 26.862 26.478 25.76 26.479H21.004L16.459 30.762Z" fill="white"/>
<path d="M29.2019 15.77C29.1076 15.7701 29.0142 15.7517 28.9271 15.7157C28.8399 15.6798 28.7607 15.627 28.6939 15.5604C28.6271 15.4938 28.5741 15.4148 28.5379 15.3277C28.5017 15.2406 28.483 15.1473 28.4829 15.053V11.703C28.4829 11.5126 28.5586 11.3299 28.6932 11.1953C28.8279 11.0606 29.0105 10.985 29.2009 10.985C29.3913 10.985 29.574 11.0606 29.7086 11.1953C29.8433 11.3299 29.9189 11.5126 29.9189 11.703V15.053C29.9186 15.2431 29.843 15.4253 29.7086 15.5597C29.5742 15.6941 29.392 15.7697 29.2019 15.77Z" fill="white"/>
<path d="M16.0979 8.698H11.8129C11.5929 8.698 11.3819 8.78539 11.2263 8.94096C11.0708 9.09652 10.9834 9.3075 10.9834 9.5275C10.9834 9.74749 11.0708 9.95848 11.2263 10.114C11.3819 10.2696 11.5929 10.357 11.8129 10.357H16.0979C16.3179 10.357 16.5289 10.2696 16.6844 10.114C16.84 9.95848 16.9274 9.74749 16.9274 9.5275C16.9274 9.3075 16.84 9.09652 16.6844 8.94096C16.5289 8.78539 16.3179 8.698 16.0979 8.698Z" fill="#4782F4"/>
<path d="M21.0739 12.015H11.8139C11.5939 12.015 11.3829 12.1024 11.2273 12.258C11.0718 12.4135 10.9844 12.6245 10.9844 12.8445C10.9844 13.0645 11.0718 13.2755 11.2273 13.4311C11.3829 13.5866 11.5939 13.674 11.8139 13.674H21.0739C21.2939 13.674 21.5049 13.5866 21.6604 13.4311C21.816 13.2755 21.9034 13.0645 21.9034 12.8445C21.9034 12.6245 21.816 12.4135 21.6604 12.258C21.5049 12.1024 21.2939 12.015 21.0739 12.015Z" fill="#4782F4"/>
<path d="M21.0739 15.332H11.8139C11.5939 15.332 11.3829 15.4194 11.2273 15.575C11.0718 15.7305 10.9844 15.9415 10.9844 16.1615C10.9844 16.3815 11.0718 16.5925 11.2273 16.7481C11.3829 16.9036 11.5939 16.991 11.8139 16.991H21.0739C21.2939 16.991 21.5049 16.9036 21.6604 16.7481C21.816 16.5925 21.9034 16.3815 21.9034 16.1615C21.9034 15.9415 21.816 15.7305 21.6604 15.575C21.5049 15.4194 21.2939 15.332 21.0739 15.332Z" fill="#4782F4"/>
<path d="M21.0739 18.649H11.8139C11.5939 18.649 11.3829 18.7364 11.2273 18.892C11.0718 19.0476 10.9844 19.2585 10.9844 19.4785C10.9844 19.6985 11.0718 19.9095 11.2273 20.0651C11.3829 20.2207 11.5939 20.308 11.8139 20.308H21.0739C21.2939 20.308 21.5049 20.2207 21.6604 20.0651C21.816 19.9095 21.9034 19.6985 21.9034 19.4785C21.9034 19.2585 21.816 19.0476 21.6604 18.892C21.5049 18.7364 21.2939 18.649 21.0739 18.649Z" fill="#4782F4"/>
<defs>
<linearGradient id="paint0_linear" x1="16.356" y1="25.758" x2="16.356" y2="1.85193" gradientUnits="userSpaceOnUse">
<stop offset="0.001" stop-color="#1E1E33"/>
<stop offset="1" stop-color="#373978"/>
</linearGradient>
</defs>
</svg>
