<svg width="32" height="32" viewBox="0 0 32 32" fill="none" xmlns="http://www.w3.org/2000/svg">
<path d="M24.9824 13.3828L28.8083 7.98159C28.9078 7.84002 28.9666 7.6739 28.9784 7.50127C28.9902 7.32863 28.9545 7.15606 28.8751 7.00227C28.7958 6.84849 28.6759 6.71937 28.5284 6.62891C28.3809 6.53845 28.2114 6.49011 28.0384 6.48914H20.7775V8.12373H26.6999L23.0161 13.3473L26.7946 19.1158H14.9498V17.8247H13.2915V19.5777C13.2915 19.8919 13.4163 20.1931 13.6384 20.4153C13.8606 20.6374 14.1618 20.7622 14.476 20.7622H28.0502C28.2215 20.7626 28.3896 20.7166 28.5368 20.629C28.684 20.5415 28.8047 20.4157 28.8861 20.2651C28.9675 20.1144 29.0066 19.9445 28.9991 19.7734C28.9917 19.6023 28.938 19.4365 28.8438 19.2934L24.9824 13.3828Z" fill="#4782F4"/>
<path d="M8.5 7.5H19.5V4.5H6V31.5H8.5V7.5Z" fill="url(#paint0_linear)"/>
<path d="M13.2915 17.8247H19.7943C20.0456 17.8247 20.2867 17.7249 20.4644 17.5472C20.6421 17.3695 20.7419 17.1284 20.7419 16.8771V8.12376V6.48917V4.48739C20.7419 4.23607 20.6421 3.99505 20.4644 3.81734C20.2867 3.63964 20.0456 3.5398 19.7943 3.5398H6.61099V2.80542C6.61259 2.6992 6.59285 2.59375 6.55293 2.49531C6.51302 2.39686 6.45375 2.30743 6.37864 2.23232C6.30353 2.15721 6.2141 2.09794 6.11565 2.05802C6.01721 2.01811 5.91176 1.99837 5.80554 1.99997C5.69933 1.99837 5.59387 2.01811 5.49543 2.05802C5.39698 2.09794 5.30756 2.15721 5.23244 2.23232C5.15733 2.30743 5.09806 2.39686 5.05815 2.49531C5.01823 2.59375 4.99849 2.6992 5.00009 2.80542V30.8067C4.99849 30.9129 5.01823 31.0183 5.05815 31.1168C5.09806 31.2152 5.15733 31.3047 5.23244 31.3798C5.30756 31.4549 5.39698 31.5142 5.49543 31.5541C5.59387 31.594 5.69933 31.6137 5.80554 31.6121C5.91176 31.6137 6.01721 31.594 6.11565 31.5541C6.2141 31.5142 6.30353 31.4549 6.37864 31.3798C6.45375 31.3047 6.51302 31.2152 6.55293 31.1168C6.59285 31.0183 6.61259 30.9129 6.61099 30.8067V17.7773L13.2915 17.8247ZM6.61099 16.2138V5.18624H19.2139V16.2138H6.61099Z" fill="#FAFAFA"/>
<defs>
<linearGradient id="paint0_linear" x1="12.75" y1="31.5" x2="12.75" y2="4.5" gradientUnits="userSpaceOnUse">
<stop offset="0.001" stop-color="#1E1E33"/>
<stop offset="1" stop-color="#373978"/>
</linearGradient>
</defs>
</svg>
