<?xml version="1.0" standalone="no"?>
<!DOCTYPE svg PUBLIC "-//W3C//DTD SVG 20010904//EN"
 "http://www.w3.org/TR/2001/REC-SVG-20010904/DTD/svg10.dtd">
<svg version="1.0" xmlns="http://www.w3.org/2000/svg"
 width="200.000000pt" height="200.000000pt" viewBox="0 0 200.000000 200.000000"
 preserveAspectRatio="xMidYMid meet">

<g transform="translate(0.000000,200.000000) scale(0.100000,-0.100000)"
fill="#ffffff" stroke="none">
<path d="M880 1986 c-82 -21 -138 -48 -205 -99 -256 -194 -280 -572 -50 -802
67 -67 174 -126 263 -144 335 -69 644 183 644 524 0 290 -221 519 -512 531
-52 2 -107 -2 -140 -10z m266 -157 c77 -29 165 -113 206 -197 31 -62 33 -74
33 -167 0 -91 -3 -106 -31 -165 -56 -118 -160 -197 -292 -222 -165 -31 -341
63 -416 222 -28 59 -31 74 -31 165 0 88 3 107 27 158 52 111 165 203 278 227
62 12 160 3 226 -21z"/>
<path d="M883 779 c-350 -45 -644 -259 -790 -577 -46 -99 -53 -152 -24 -181
l21 -21 910 0 c897 0 910 0 930 20 28 28 25 69 -12 158 -67 161 -205 329 -354
432 -200 138 -448 200 -681 169z m377 -177 c212 -70 404 -231 499 -419 l21
-43 -780 0 -780 0 21 42 c89 177 285 348 469 410 122 41 169 47 315 44 125 -3
150 -7 235 -34z"/>
</g>
</svg>
