<svg width="63" height="14" viewBox="0 0 63 14" fill="none" xmlns="http://www.w3.org/2000/svg">
<path d="M6.07624 0.0237616C3.00629 0.274909 0.447092 2.72633 0.0395759 5.8056C-0.0364937 6.38433 0.00154109 7.60732 0.115645 8.13145C0.164547 8.34438 0.267785 8.69926 0.349287 8.92311C1.16432 11.2107 3.09866 12.8705 5.46768 13.3237C6.04364 13.4329 7.14122 13.4492 7.70631 13.3509C8.32573 13.2472 8.90712 13.067 8.89081 12.9852C8.87995 12.9469 8.45614 12.4884 7.93995 11.9642L7.00538 11.0142L6.44572 10.9814C5.81543 10.9432 5.39705 10.8449 4.89173 10.6102C3.77242 10.1024 2.85416 8.99955 2.53901 7.79295C2.38144 7.18692 2.376 6.20962 2.53357 5.62543C2.72918 4.92113 3.09866 4.27688 3.63115 3.73091C4.1745 3.17948 4.63635 2.89012 5.36988 2.63897C5.84804 2.47518 5.9404 2.4588 6.61959 2.4588C7.22815 2.45334 7.42919 2.47518 7.78238 2.57891C9.21139 2.99385 10.26 4.01482 10.7491 5.48348C10.923 5.99123 10.961 7.00674 10.8306 7.59094C10.7817 7.83117 10.7165 8.06047 10.6947 8.10415C10.6568 8.16421 10.8686 8.41536 11.5261 9.0869C12.0097 9.58373 12.4226 9.99869 12.4498 10.0041C12.5204 10.0369 12.966 9.01592 13.1073 8.49179C13.743 6.10589 13.0909 3.67086 11.3468 1.93467C9.96121 0.547895 8.06492 -0.14003 6.07624 0.0237616Z" fill="#D6E246"/>
<path d="M7.36399 8.71564C6.95105 9.1142 6.61959 9.46912 6.61959 9.50188C6.61959 9.53464 6.67393 9.60557 6.7337 9.66558C6.7989 9.72018 7.47267 10.43 8.23336 11.2435C9.95039 13.067 10.2438 13.3509 10.6893 13.6184C11.4664 14.0826 12.4063 14.1263 13.2702 13.7331C13.5637 13.6021 14.1722 13.138 14.1722 13.0452C14.1722 13.007 13.8408 12.6193 13.4332 12.1826L12.6997 11.3854L12.4606 11.5546C12.1455 11.7786 11.8793 11.7786 11.5533 11.5546C11.1403 11.2708 11.1403 11.2762 11.5478 10.8668L11.9118 10.501L11.0751 9.66017C10.6132 9.19609 10.2112 8.81391 10.1785 8.81391C10.1514 8.81391 9.98293 8.95587 9.80904 9.12512L9.4939 9.44177L8.80388 8.71564L8.11382 7.99496L7.36399 8.71564Z" fill="#D6E246"/>
<path d="M22.1616 9.70665L24.5275 11.585L23.2572 12.6583L20.932 10.78L22.1616 9.70665ZM24.6266 6.69082V7.03499C24.6266 7.68443 24.5353 8.26776 24.3527 8.78498C24.174 9.29832 23.9176 9.73773 23.5835 10.1033C23.2533 10.465 22.8628 10.743 22.4122 10.9375C21.9615 11.128 21.4642 11.2233 20.9203 11.2233C20.3726 11.2233 19.8714 11.128 19.4169 10.9375C18.9663 10.743 18.5738 10.465 18.2397 10.1033C17.9095 9.73773 17.6531 9.29832 17.4705 8.78498C17.2918 8.26776 17.2025 7.68443 17.2025 7.03499V6.69082C17.2025 6.04138 17.2918 5.45805 17.4705 4.94082C17.6531 4.4236 17.9075 3.98416 18.2339 3.62249C18.5641 3.25694 18.9546 2.97889 19.4052 2.78833C19.8598 2.59389 20.3609 2.49666 20.9087 2.49666C21.4525 2.49666 21.9499 2.59389 22.4005 2.78833C22.855 2.97889 23.2474 3.25694 23.5776 3.62249C23.9117 3.98416 24.1701 4.4236 24.3527 4.94082C24.5353 5.45805 24.6266 6.04138 24.6266 6.69082ZM22.5461 7.03499V6.67916C22.5461 6.25916 22.5093 5.88972 22.4355 5.57082C22.3655 5.24805 22.2606 4.97777 22.1208 4.75999C21.9809 4.54222 21.8081 4.37888 21.6022 4.26999C21.4001 4.15722 21.169 4.10083 20.9087 4.10083C20.6367 4.10083 20.3998 4.15722 20.1977 4.26999C19.9957 4.37888 19.8268 4.54222 19.6908 4.75999C19.5548 4.97777 19.4518 5.24805 19.3819 5.57082C19.3159 5.88972 19.2828 6.25916 19.2828 6.67916V7.03499C19.2828 7.4511 19.3159 7.82054 19.3819 8.14332C19.4518 8.46221 19.5548 8.73248 19.6908 8.95415C19.8307 9.17582 20.0016 9.34302 20.2036 9.45577C20.4095 9.56861 20.6484 9.62498 20.9203 9.62498C21.1807 9.62498 21.4118 9.56861 21.6138 9.45577C21.8158 9.34302 21.9848 9.17582 22.1208 8.95415C22.2606 8.73248 22.3655 8.46221 22.4355 8.14332C22.5093 7.82054 22.5461 7.4511 22.5461 7.03499ZM29.2593 9.57244V4.79499H31.229V11.1066H29.3876L29.2593 9.57244ZM29.4458 8.28915L29.9586 8.27749C29.9586 8.70138 29.9081 9.09415 29.8072 9.45577C29.7061 9.81361 29.5565 10.1247 29.3584 10.3891C29.1642 10.6536 28.9233 10.8597 28.6358 11.0075C28.3522 11.1514 28.0239 11.2233 27.6509 11.2233C27.3402 11.2233 27.0547 11.1806 26.7944 11.095C26.538 11.0056 26.3165 10.8675 26.13 10.6809C25.9436 10.4903 25.7979 10.2472 25.6929 9.95165C25.592 9.65224 25.5415 9.29443 25.5415 8.87832V4.79499H27.5053V8.88998C27.5053 9.02998 27.5228 9.15054 27.5577 9.25165C27.5928 9.35273 27.6432 9.43832 27.7093 9.50832C27.7753 9.5744 27.8569 9.62498 27.954 9.65998C28.055 9.69106 28.1696 9.70665 28.2978 9.70665C28.5931 9.70665 28.8242 9.6444 28.9913 9.51998C29.1583 9.39557 29.2749 9.22638 29.341 9.01248C29.4109 8.79859 29.4458 8.55748 29.4458 8.28915ZM34.3874 4.79499V11.1066H32.4178V4.79499H34.3874ZM32.3013 3.16749C32.3013 2.8875 32.4023 2.65805 32.6043 2.47916C32.8063 2.30027 33.0685 2.21083 33.391 2.21083C33.7134 2.21083 33.9757 2.30027 34.1776 2.47916C34.3797 2.65805 34.4806 2.8875 34.4806 3.16749C34.4806 3.44749 34.3797 3.67693 34.1776 3.85583C33.9757 4.03472 33.7134 4.12416 33.391 4.12416C33.0685 4.12416 32.8063 4.03472 32.6043 3.85583C32.4023 3.67693 32.3013 3.44749 32.3013 3.16749ZM40.786 9.58998V11.1066H35.9025V9.58998H40.786ZM40.7276 5.85666L36.7825 11.1066H35.4363V10.01L39.3757 4.79499H40.7276V5.85666ZM40.0808 4.79499V6.31166H35.5529V4.79499H40.0808ZM45.0749 4.79499V6.15999H41.2755V4.79499H45.0749ZM42.0738 3.22583H44.0376V9.04748C44.0376 9.21471 44.0571 9.34498 44.0959 9.43832C44.1347 9.52773 44.2007 9.59194 44.294 9.63086C44.3911 9.66577 44.5193 9.68332 44.6787 9.68332C44.7913 9.68332 44.8845 9.68136 44.9584 9.67753C45.0321 9.66969 45.1021 9.65998 45.1682 9.64832V11.0542C45.0011 11.1086 44.8263 11.1494 44.6436 11.1766C44.4611 11.2077 44.2668 11.2233 44.0609 11.2233C43.6413 11.2233 43.282 11.1572 42.9829 11.025C42.6876 10.8927 42.4623 10.6847 42.3069 10.4009C42.1515 10.1169 42.0738 9.74753 42.0738 9.29248V3.22583ZM47.773 9.22832L48.9385 4.79499H50.168L49.731 7.01749L48.5772 11.1066H47.5924L47.773 9.22832ZM47.3127 4.79499L48.0353 9.19332L48.1167 11.1066H46.9222L45.4304 4.79499H47.3127ZM51.2054 9.09998L51.9337 4.79499H53.816L52.3358 11.1066H51.1412L51.2054 9.09998ZM50.3078 4.79499L51.4851 9.21665L51.6657 11.1066H50.6692L49.5386 7.02915L49.1191 4.79499H50.3078ZM56.6014 4.79499V11.1066H54.6319V4.79499H56.6014ZM54.5153 3.16749C54.5153 2.8875 54.6163 2.65805 54.8183 2.47916C55.0203 2.30027 55.2826 2.21083 55.605 2.21083C55.9274 2.21083 56.1897 2.30027 56.3916 2.47916C56.5937 2.65805 56.6947 2.8875 56.6947 3.16749C56.6947 3.44749 56.5937 3.67693 56.3916 3.85583C56.1897 4.03472 55.9274 4.12416 55.605 4.12416C55.2826 4.12416 55.0203 4.03472 54.8183 3.85583C54.6163 3.67693 54.5153 3.44749 54.5153 3.16749ZM63 9.58998V11.1066H58.1166V9.58998H63ZM62.9416 5.85666L58.9965 11.1066H57.6504V10.01L61.5897 4.79499H62.9416V5.85666ZM62.2948 4.79499V6.31166H57.7669V4.79499H62.2948Z" fill="#D6E246"/>
</svg>
