<svg
    width="30"
    height="30"
    viewBox="0 0 30 30"
    fill="none"
    xmlns="http://www.w3.org/2000/svg"
>
    <path
        d="M29.4603 2.94603C29.4603 1.31746 28.1405 0 26.5143 0H14.7301H2.94603C1.31982 0 0 1.31746 0 2.94603V26.5143C0 28.1428 1.31982 29.4603 2.94603 29.4603H14.7301H26.5143C28.1405 29.4603 29.4603 28.1428 29.4603 26.5143V2.94603Z"
        fill="#FEDE34"
    ></path>
    <path
        fill-rule="evenodd"
        clip-rule="evenodd"
        d="M18.2135 15.5149L18.2041 15.6068C18.1192 16.328 17.9495 17.0068 17.6974 17.6408L17.6549 17.7421L17.9001 17.9401L19.2458 15.6705H18.8121C18.5977 15.6728 18.3926 15.6163 18.2135 15.5149ZM10.4548 6.25732C12.6396 6.25732 14.5133 6.98794 15.8732 8.36904C16.4624 8.96767 16.9314 9.66529 17.2731 10.443C17.431 10.7235 17.5725 11.0181 17.6927 11.3245C17.9118 10.9215 18.3361 10.641 18.8121 10.641H25.1661C25.654 10.641 26.0853 10.8861 26.3233 11.2986C26.5567 11.7134 26.552 12.2201 26.3116 12.6302L24.3318 16.0216H25.1237C25.8473 16.0216 26.4129 16.5826 26.4129 17.2967V19.7195C26.4129 20.4053 25.8614 20.9663 25.1756 20.9922L25.1237 20.9945H18.4256C18.3125 20.9969 18.1994 20.9828 18.0933 20.9568L16.1631 22.8706L16.1042 22.9153C15.8096 23.1369 15.5244 23.1934 15.3264 23.1982H15.291C15.0719 23.1982 14.6524 23.1369 14.2941 22.7174L14.2776 22.6962L13.4268 21.6497C12.6538 21.9043 11.8195 22.0386 10.9427 22.0551L10.7777 22.0575C8.59532 22.0575 6.72164 21.3292 5.36176 19.9505C4.76784 19.3495 4.29647 18.6495 3.95238 17.867C3.30425 16.7169 2.96722 15.3594 2.96722 13.8534C2.96722 11.6403 3.6837 9.74307 5.04123 8.36432C6.3964 6.98794 8.27007 6.25732 10.4548 6.25732Z"
        fill="#8848ED"
    ></path>
    <path
        d="M10.4571 7.32263C14.3129 7.32263 16.8842 9.92928 16.8842 13.8581C16.8842 15.324 16.5213 16.6109 15.8519 17.6597L17.3367 18.8546C17.4993 18.9818 17.4993 19.1091 17.3721 19.2175L15.1449 21.4259C15.0011 21.5343 14.8903 21.5154 14.7819 21.3905L13.4432 19.7431C12.5736 20.1414 11.5601 20.3582 10.4571 20.3582C6.60138 20.3582 4.03009 17.7516 4.03009 13.8581C4.03009 9.93164 6.60138 7.32263 10.4571 7.32263ZM24.9987 11.2821C25.1119 11.2821 25.2179 11.3434 25.2745 11.4424C25.3311 11.5413 25.3311 11.6615 25.2745 11.7605L22.7645 16.1513C22.7079 16.2503 22.7079 16.3705 22.7645 16.4695C22.821 16.5684 22.9271 16.6297 23.0402 16.6297H24.8762C25.053 16.6297 25.1967 16.7735 25.1967 16.9503V19.2434C25.1967 19.4202 25.053 19.564 24.8762 19.564H18.4091C18.2959 19.564 18.1899 19.5027 18.1333 19.4061C18.0768 19.3071 18.0744 19.1869 18.131 19.0879L20.5585 14.789C20.6151 14.6901 20.6127 14.5699 20.5561 14.4709C20.4996 14.3719 20.3935 14.313 20.2804 14.313H18.7649C18.5882 14.313 18.4468 14.1716 18.4444 13.9948L18.4373 11.605C18.4373 11.5201 18.4703 11.4376 18.5316 11.3787C18.5905 11.3198 18.673 11.2845 18.7579 11.2845H24.9987V11.2821ZM10.4571 10.872C8.89929 10.872 7.86936 12.0669 7.86936 13.8581C7.86936 15.6493 8.90164 16.8442 10.4571 16.8442C10.6457 16.8442 10.8342 16.8277 11.0181 16.79L10.476 16.1206C10.3676 15.9934 10.3676 15.885 10.4949 15.7577L11.6709 14.5981C11.7982 14.4709 11.8877 14.4355 12.015 14.5439L12.8116 15.1968C12.9742 14.7985 13.0473 14.346 13.0473 13.8581C13.0449 12.0669 12.0126 10.872 10.4571 10.872ZM11.4093 13.3113C11.4588 13.349 11.4894 13.4079 11.4918 13.4692C11.4941 13.5305 11.4706 13.5918 11.4258 13.6342L9.70061 15.2863C9.65583 15.3288 9.59455 15.35 9.53091 15.3453C9.46964 15.3382 9.41307 15.3075 9.37772 15.2557C8.94171 14.6453 8.9747 13.8298 9.48849 13.3372C9.99992 12.847 10.8177 12.8494 11.4093 13.3113Z"
        fill="white"
    ></path>
</svg>
