<svg width="67" height="18" viewBox="0 0 67 18" class="fill-current text-white" xmlns="http://www.w3.org/2000/svg">
    <path d="M13.922 12.3267C14.1459 12.5883 14.1271 12.824 13.856 13.0479L12.2345 14.3889C11.9729 14.6057 11.7184 14.568 11.5133 14.3229L10.5659 13.2317C9.67502 13.6394 8.67808 13.8633 7.62222 13.8633C3.7806 13.8633 0.697876 10.8749 0.697876 6.98141C0.697876 3.08794 3.7806 0.0994873 7.62222 0.0994873C11.4638 0.0994873 14.5466 3.08794 14.5466 6.98141C14.5466 8.64297 13.9856 10.1396 13.0429 11.3109L13.922 12.3267ZM7.62222 10.5732C7.82491 10.5732 8.02052 10.5591 8.21143 10.5284L7.32762 9.51028C7.10137 9.24867 7.12022 9.01299 7.39361 8.78909L9.02453 7.44806C9.28614 7.23123 9.54068 7.26894 9.74572 7.51405L10.7827 8.70896C11.0373 8.20932 11.1787 7.62482 11.1787 6.98377C11.1787 4.87441 9.63966 3.39668 7.62222 3.39668C5.60478 3.39668 4.06577 4.87441 4.06577 6.98377C4.06577 9.09312 5.60478 10.5732 7.62222 10.5732Z"></path>
    <path d="M23.4459 4.15788C23.7735 4.15788 23.9621 4.34407 23.9621 4.67402V13.0714C23.9621 13.399 23.7759 13.5875 23.4459 13.5875H21.3413C21.0137 13.5875 20.8251 13.4013 20.8251 13.0714V12.7956C20.3538 13.4225 19.5807 13.8491 18.506 13.8491C16.7525 13.8491 15.4893 12.5081 15.4893 10.1513V4.67166C15.4893 4.34406 15.6755 4.15552 16.0054 4.15552H18.1101C18.4377 4.15552 18.6262 4.34171 18.6262 4.67166V9.80011C18.6262 10.5237 19.041 10.8937 19.6703 10.8937C20.4315 10.8937 20.8275 10.4223 20.8275 9.57386V4.67166C20.8275 4.34406 21.0137 4.15552 21.3436 4.15552L23.4459 4.15788Z"></path>
    <path d="M24.9967 2.5977V0.900788C24.9967 0.57319 25.1829 0.384644 25.5128 0.384644H27.6175C27.9451 0.384644 28.1336 0.570833 28.1336 0.900788V2.5977C28.1336 2.9253 27.9474 3.11385 27.6175 3.11385H25.5128C25.1852 3.11385 24.9967 2.9253 24.9967 2.5977ZM24.9967 13.0691V4.67171C24.9967 4.34411 25.1829 4.15556 25.5128 4.15556H27.6175C27.9451 4.15556 28.1336 4.34175 28.1336 4.67171V13.0691C28.1336 13.3967 27.9474 13.5852 27.6175 13.5852H25.5128C25.1852 13.5852 24.9967 13.3967 24.9967 13.0691Z"></path>
    <path d="M36.2411 10.6816C36.5687 10.6816 36.7572 10.8678 36.7572 11.1978V13.0715C36.7572 13.3991 36.5711 13.5876 36.2411 13.5876H29.5548C29.2272 13.5876 29.0387 13.4014 29.0387 13.0715V11.7941C29.0387 11.5419 29.1046 11.3533 29.2531 11.1577L32.3806 7.06392H29.741C29.4134 7.06392 29.2248 6.87774 29.2248 6.54778V4.6741C29.2248 4.34651 29.411 4.15796 29.741 4.15796H36.0502C36.3778 4.15796 36.5663 4.34415 36.5663 4.6741V5.9515C36.5663 6.20368 36.5004 6.39223 36.3519 6.58784L33.2244 10.6816H36.2411Z"></path>
    <path d="M44.8199 10.6816C45.1475 10.6816 45.3361 10.8678 45.3361 11.1978V13.0715C45.3361 13.3991 45.1499 13.5876 44.8199 13.5876H38.1336C37.806 13.5876 37.6175 13.4014 37.6175 13.0715V11.7941C37.6175 11.5419 37.6835 11.3533 37.832 11.1577L40.9595 7.06392H38.3198C37.9922 7.06392 37.8037 6.87774 37.8037 6.54778V4.6741C37.8037 4.34651 37.9899 4.15796 38.3198 4.15796H44.629C44.9566 4.15796 45.1452 4.34415 45.1452 4.6741V5.9515C45.1452 6.20368 45.0792 6.39223 44.9307 6.58784L41.8032 10.6816H44.8199Z"></path>
    <path d="M45.8074 8.86921C45.8074 6.05045 48.0417 3.8916 50.8393 3.8916C53.6368 3.8916 55.8711 6.05045 55.8711 8.86921C55.8711 11.688 53.6368 13.8468 50.8393 13.8468C48.0582 13.8492 45.8074 11.688 45.8074 8.86921ZM52.7341 8.86921C52.7341 7.69787 51.9234 6.90834 50.8393 6.90834C49.7551 6.90834 48.9444 7.69787 48.9444 8.86921C48.9444 10.0406 49.7551 10.8301 50.8393 10.8301C51.9234 10.8301 52.7341 10.0429 52.7341 8.86921Z"></path>
    <path d="M62.4938 3.8916C65.0085 3.8916 67 6.04338 67 8.86921C67 11.6974 65.0085 13.8468 62.4938 13.8468C61.3578 13.8468 60.5117 13.4933 59.9036 12.8876V16.84C59.9036 17.1676 59.7174 17.3561 59.3875 17.3561H57.2828C56.9552 17.3561 56.7667 17.1699 56.7667 16.84V4.67171C56.7667 4.34411 56.9529 4.15556 57.2828 4.15556H59.3875C59.7151 4.15556 59.9036 4.34175 59.9036 4.67171V4.85319C60.5093 4.24513 61.3578 3.8916 62.4938 3.8916ZM63.8631 8.86921C63.8631 7.64838 63.0523 6.85177 61.8833 6.85177C60.7144 6.85177 59.9036 7.65073 59.9036 8.86921C59.9036 10.0877 60.7144 10.8867 61.8833 10.8867C63.0523 10.8867 63.8631 10.09 63.8631 8.86921Z"></path>
</svg>
