<svg width="17" height="16" viewBox="0 0 17 16" fill="white" xmlns="http://www.w3.org/2000/svg"><path d="M15.7719 14.113L12.5789 10.92C13.2655 9.96352 13.6749 8.83625 13.7621 7.66215C13.8493 6.48806 13.611 5.31266 13.0733 4.26527C12.5357 3.21788 11.7195 2.33908 10.7147 1.72558C9.70985 1.11208 8.55525 0.787642 7.37792 0.787964C5.67912 0.787964 4.04988 1.46274 2.84855 2.66388C1.64722 3.86503 0.972189 5.49416 0.971924 7.19297C0.971917 8.37004 1.29653 9.52432 1.91005 10.5289C2.52358 11.5334 3.40225 12.3493 4.44944 12.8868C5.49663 13.4243 6.67177 13.6626 7.84562 13.5754C9.01947 13.4883 10.1466 13.0792 11.1029 12.393L14.2969 15.588C14.4953 15.7695 14.756 15.8676 15.0249 15.8616C15.2937 15.8557 15.5499 15.7462 15.7401 15.5561C15.9302 15.366 16.0396 15.1098 16.0456 14.8409C16.0515 14.5721 15.9535 14.3113 15.7719 14.113ZM4.32592 10.245C3.61957 9.53881 3.17993 8.60957 3.08192 7.6156C2.98391 6.62163 3.23358 5.62442 3.7884 4.79391C4.34323 3.96339 5.16886 3.35095 6.12463 3.06094C7.08039 2.77094 8.10714 2.82132 9.02993 3.20349C9.95271 3.58567 10.7144 4.27599 11.1853 5.15684C11.6561 6.03768 11.807 7.05454 11.6121 8.03414C11.4173 9.01375 10.8888 9.89548 10.1167 10.5291C9.34462 11.1627 8.37672 11.509 7.37792 11.509C6.81091 11.5105 6.24922 11.3995 5.72535 11.1826C5.20148 10.9656 4.72584 10.6469 4.32592 10.245Z"></path></svg>