<svg width="32" height="32" viewBox="0 0 32 32" fill="none" xmlns="http://www.w3.org/2000/svg">
<path d="M4.5 25.5V8.5L2 6L1.5 10V25C1.5 25.8 3.16667 26 4 26L4.5 25.5Z" fill="url(#paint0_linear)"/>
<path d="M3.73233 26.9951C3.00766 26.9946 2.31283 26.7006 1.80051 26.1778C1.28818 25.6549 1.00026 24.946 1 24.2068V6.79224C1.00077 6.05194 1.28939 5.34218 1.80254 4.8187C2.31569 4.29523 3.01144 4.00078 3.73714 4H24.2657C24.9907 4.00078 25.6857 4.29491 26.1983 4.81783C26.7109 5.34075 26.9992 6.04978 27 6.7893V12.4475C27 12.6227 26.9318 12.7908 26.8103 12.9147C26.6888 13.0386 26.5241 13.1082 26.3524 13.1082C26.1806 13.1082 26.0159 13.0386 25.8944 12.9147C25.7729 12.7908 25.7047 12.6227 25.7047 12.4475V6.7893C25.7042 6.40014 25.5524 6.02704 25.2827 5.75186C25.0129 5.47668 24.6472 5.32188 24.2657 5.32136H3.73714C3.35346 5.32136 2.98549 5.47684 2.71418 5.7536C2.44287 6.03037 2.29045 6.40576 2.29045 6.79717V24.2117C2.28983 24.4051 2.32704 24.5967 2.39991 24.7753C2.47278 24.9539 2.57984 25.1158 2.71482 25.2516C2.84923 25.3881 3.00874 25.4961 3.18417 25.5696C3.3596 25.643 3.54751 25.6804 3.73714 25.6796L23.5491 25.6117C23.7208 25.6117 23.8854 25.6813 24.0068 25.8051C24.1281 25.9289 24.1963 26.0968 24.1963 26.2719C24.1963 26.447 24.1281 26.6149 24.0068 26.7387C23.8854 26.8626 23.7208 26.9321 23.5491 26.9321L3.73811 27L3.73233 26.9951Z" fill="white" stroke="white" stroke-width="0.3"/>
<path d="M13.9911 17C13.6376 17.0006 13.2874 16.9301 12.9607 16.7925C12.6339 16.655 12.3372 16.4532 12.0874 16.1986L2.16789 6.1071C2.05668 5.98381 1.99658 5.82157 2.00015 5.65427C2.00372 5.48697 2.07067 5.32754 2.18703 5.20928C2.30339 5.09101 2.46016 5.02308 2.6246 5.01963C2.78904 5.01617 2.94842 5.07747 3.06948 5.19074L12.988 15.2832C13.2547 15.5524 13.6151 15.7034 13.9907 15.7034C14.3663 15.7034 14.7267 15.5524 14.9934 15.2832L24.9128 5.1898C25.0323 5.06829 25.1942 5 25.3632 5C25.5321 5 25.694 5.06829 25.8135 5.1898C25.9329 5.31132 26 5.47612 26 5.64796C26 5.81981 25.9329 5.98461 25.8135 6.10613L15.895 16.1976C15.6453 16.4525 15.3486 16.6546 15.0218 16.7923C14.6951 16.93 14.3448 17.0006 13.9911 17Z" fill="white" stroke="white" stroke-width="0.3"/>
<path d="M29.89 18.67L25.997 14.87C25.7967 14.6832 25.5312 14.5822 25.2574 14.5885C24.9835 14.5949 24.723 14.7082 24.5315 14.9041C24.3401 15.1 24.2328 15.363 24.2327 15.6369C24.2326 15.9108 24.3397 16.1739 24.531 16.37L26.6121 18.402L18.653 18.496C18.5152 18.4976 18.3789 18.5264 18.2522 18.5807C18.1254 18.635 18.0106 18.7137 17.9142 18.8124C17.7197 19.0116 17.6122 19.28 17.6156 19.5585C17.6189 19.837 17.7327 20.1027 17.9319 20.2973C18.1312 20.4918 18.3996 20.5993 18.6781 20.596L26.6371 20.502L24.6051 22.582C24.505 22.6797 24.4254 22.7964 24.3711 22.9252C24.3168 23.0541 24.2888 23.1925 24.2888 23.3323C24.2887 23.4722 24.3166 23.6106 24.3709 23.7395C24.4251 23.8684 24.5045 23.9851 24.6046 24.0829C24.7046 24.1806 24.8231 24.2574 24.9532 24.3086C25.0833 24.3599 25.2223 24.3846 25.3622 24.3814C25.502 24.3781 25.6397 24.347 25.7673 24.2897C25.8949 24.2325 26.0097 24.1503 26.105 24.048L29.9051 20.156C30.0017 20.0575 30.0781 19.9409 30.1296 19.8128C30.1812 19.6848 30.207 19.5479 30.2057 19.4099C30.2043 19.2718 30.1757 19.1355 30.1215 19.0085C30.0674 18.8815 29.9887 18.7665 29.89 18.67Z" fill="#4782F4"/>
<path d="M7.81572 6H20.1875C20.3621 6.02315 20.5266 6.09642 20.6622 6.21137C20.7978 6.32632 20.8988 6.47824 20.9536 6.64955C21.0084 6.82086 21.0148 7.00455 20.972 7.1794C20.9291 7.35425 20.8388 7.51312 20.7115 7.63761L14.5978 13.7757C14.5298 13.8463 14.449 13.9024 14.3598 13.9409C14.2706 13.9794 14.1749 13.9995 14.0781 14C13.9814 14.0005 13.8855 13.9815 13.7959 13.9439C13.7064 13.9064 13.6249 13.8512 13.5562 13.7814L7.29353 7.64422C7.1647 7.51999 7.073 7.36079 7.02914 7.18521C6.98527 7.00962 6.99104 6.82489 7.04577 6.65254C7.10051 6.48019 7.20196 6.32731 7.33828 6.21177C7.4746 6.09624 7.64019 6.0228 7.81572 6Z" fill="url(#paint1_linear)"/>
<defs>
<linearGradient id="paint0_linear" x1="3" y1="26" x2="3" y2="6" gradientUnits="userSpaceOnUse">
<stop offset="0.001" stop-color="#1E1E33"/>
<stop offset="1" stop-color="#373978"/>
</linearGradient>
<linearGradient id="paint1_linear" x1="14" y1="14" x2="14" y2="6" gradientUnits="userSpaceOnUse">
<stop offset="0.001" stop-color="#1E1E33"/>
<stop offset="1" stop-color="#373978"/>
</linearGradient>
</defs>
</svg>
