<svg width="32" height="32" viewBox="0 0 32 32" fill="none" xmlns="http://www.w3.org/2000/svg">
<path d="M16.5598 28.9943C13.8677 28.9913 11.2295 28.2404 8.93981 26.8255C6.65014 25.4107 4.79921 23.3876 3.5938 20.9823C3.50867 20.812 3.49472 20.6149 3.55502 20.4343C3.61531 20.2538 3.7449 20.1046 3.91531 20.0195C4.08571 19.9344 4.28295 19.9205 4.46365 19.9807C4.64434 20.041 4.79367 20.1705 4.87881 20.3408C5.91428 22.4464 7.49741 24.235 9.46233 25.5192C11.4273 26.8033 13.7017 27.5358 16.0472 27.6399C18.3928 27.744 20.7232 27.2158 22.7943 26.1107C24.8654 25.0056 26.6009 23.3642 27.8191 21.3586C29.0372 19.3529 29.6932 17.0569 29.7182 14.7109C29.7432 12.3649 29.1363 10.0554 27.9611 8.02427C26.786 5.99317 25.0858 4.31526 23.0387 3.16634C20.9917 2.01741 18.6731 1.43975 16.3258 1.49389C16.2468 1.49389 16.1668 1.4939 16.0868 1.50189C13.6302 1.59847 11.2501 2.38291 9.21804 3.76576C7.18597 5.14861 5.58364 7.07422 4.5938 9.32302C4.51248 9.4894 4.37002 9.61798 4.19613 9.68194C4.02224 9.74591 3.83035 9.74031 3.66048 9.66633C3.49062 9.59235 3.3559 9.4557 3.28442 9.28487C3.21293 9.11404 3.21021 8.92223 3.27682 8.74945C4.3102 6.3769 5.96131 4.32461 8.05816 2.80635C10.155 1.28809 12.6209 0.359391 15.1989 0.11699C17.777 -0.125412 20.373 0.32736 22.7165 1.42812C25.0599 2.52889 27.0652 4.23738 28.5233 6.37566C29.9815 8.51395 30.8392 11.0038 31.0071 13.5859C31.1751 16.168 30.6471 18.7478 29.4783 21.0567C28.3094 23.3656 26.5424 25.3191 24.3612 26.7138C22.1801 28.1084 19.6646 28.8931 17.0768 28.9863C16.9068 28.9923 16.7308 28.9943 16.5598 28.9943Z" fill="#FAFAFA"/>
<path d="M16.5049 14.9318L7.50488 9.336C7.50488 9.336 10.8129 4.02499 16.8389 4.53261L16.5049 14.9318Z" fill="url(#paint0_linear_2220_15987)"/>
<path d="M16.5049 14.9318L7.50488 9.336C7.50488 9.336 10.8129 4.02499 16.8389 4.53261L16.5049 14.9318Z" fill="url(#paint1_linear_2220_15987)"/>
<path d="M16.5714 14.7286L25.8521 19.846C25.8521 19.846 22.8268 25.3228 16.7825 25.131L16.5714 14.7286Z" fill="url(#paint2_linear_2220_15987)"/>
<path d="M16.5714 14.7286L25.8521 19.846C25.8521 19.846 22.8268 25.3228 16.7825 25.131L16.5714 14.7286Z" fill="url(#paint3_linear_2220_15987)"/>
<path d="M16.48 15.8001C16.3773 15.8003 16.2755 15.7802 16.1806 15.7409C16.0856 15.7017 15.9994 15.6441 15.9267 15.5716C15.8541 15.499 15.7965 15.4128 15.7573 15.3179C15.718 15.223 15.6979 15.1214 15.698 15.0187V5.07717C15.698 4.87006 15.7803 4.67144 15.9269 4.52499C16.0734 4.37854 16.2722 4.29626 16.4795 4.29626C16.6868 4.29626 16.8855 4.37854 17.0321 4.52499C17.1787 4.67144 17.261 4.87006 17.261 5.07717V15.0177C17.2613 15.1204 17.2413 15.2221 17.2021 15.317C17.163 15.4119 17.1055 15.4982 17.033 15.5709C16.9604 15.6435 16.8742 15.7012 16.7793 15.7405C16.6844 15.7799 16.5827 15.8001 16.48 15.8001V15.8001Z" fill="#FAFAFA"/>
<path d="M16.4749 15.8001C16.3379 15.8003 16.2033 15.7641 16.0849 15.6952L7.4699 10.7249C7.29034 10.6214 7.15931 10.4509 7.10558 10.2509C7.05185 10.0508 7.07983 9.83763 7.1834 9.65821C7.28696 9.4788 7.45763 9.34784 7.65782 9.29415C7.85802 9.24046 8.07135 9.26844 8.2509 9.37193L16.8659 14.3422C17.0149 14.4283 17.1313 14.561 17.1971 14.7199C17.2629 14.8788 17.2744 15.0549 17.2298 15.221C17.1853 15.387 17.0872 15.5338 16.9507 15.6385C16.8142 15.7432 16.647 15.8 16.4749 15.8001V15.8001Z" fill="#FAFAFA"/>
<path d="M7.86488 20.7703C7.69249 20.7706 7.52483 20.714 7.38798 20.6092C7.25114 20.5045 7.15277 20.3575 7.10817 20.1911C7.06357 20.0247 7.07523 19.8482 7.14137 19.6891C7.20751 19.5301 7.3244 19.3973 7.47386 19.3115L16.0889 14.3412C16.2684 14.2377 16.4818 14.2097 16.682 14.2634C16.8822 14.3171 17.0528 14.448 17.1564 14.6275C17.26 14.8069 17.2879 15.0201 17.2342 15.2201C17.1805 15.4201 17.0494 15.5907 16.8699 15.6942L8.25487 20.6654C8.13647 20.7343 8.00189 20.7705 7.86488 20.7703V20.7703Z" fill="#FAFAFA"/>
<path d="M16.48 25.7407C16.3772 25.7407 16.2755 25.7204 16.1805 25.6811C16.0856 25.6418 15.9993 25.5841 15.9267 25.5115C15.8541 25.4388 15.7965 25.3525 15.7572 25.2576C15.718 25.1627 15.6979 25.061 15.698 24.9583V15.0177C15.698 14.8106 15.7803 14.612 15.9269 14.4655C16.0734 14.3191 16.2722 14.2368 16.4795 14.2368C16.6868 14.2368 16.8855 14.3191 17.0321 14.4655C17.1787 14.612 17.261 14.8106 17.261 15.0177V24.9583C17.2611 25.0609 17.241 25.1625 17.2018 25.2574C17.1627 25.3522 17.1052 25.4384 17.0327 25.5111C16.9601 25.5838 16.874 25.6414 16.7792 25.6808C16.6843 25.7202 16.5827 25.7406 16.48 25.7407V25.7407Z" fill="#FAFAFA"/>
<path d="M25.0938 20.7703C24.9568 20.7705 24.8222 20.7343 24.7038 20.6654L16.0888 15.6942C15.9092 15.5907 15.7782 15.4201 15.7245 15.2201C15.6707 15.0201 15.6987 14.8069 15.8023 14.6275C15.9059 14.448 16.0765 14.3171 16.2767 14.2634C16.4769 14.2097 16.6902 14.2377 16.8698 14.3412L25.4848 19.3115C25.6343 19.3973 25.7511 19.5301 25.8173 19.6891C25.8834 19.8482 25.8951 20.0247 25.8505 20.1911C25.8059 20.3575 25.7075 20.5045 25.5707 20.6092C25.4338 20.714 25.2662 20.7706 25.0938 20.7703V20.7703Z" fill="#FAFAFA"/>
<path d="M16.4808 15.8001C16.3087 15.8002 16.1413 15.7436 16.0046 15.639C15.868 15.5343 15.7697 15.3876 15.725 15.2214C15.6804 15.0553 15.6918 14.8791 15.7576 14.7201C15.8233 14.5611 15.9398 14.4283 16.0888 14.3422L24.7038 9.37192C24.7927 9.32068 24.8909 9.28744 24.9926 9.2741C25.0944 9.26075 25.1978 9.26756 25.2969 9.29415C25.3961 9.32073 25.489 9.36656 25.5704 9.42903C25.6518 9.49149 25.72 9.56937 25.7713 9.65821C25.8226 9.74705 25.8559 9.84511 25.8692 9.94679C25.8826 10.0485 25.8758 10.1518 25.8492 10.2509C25.8226 10.3499 25.7767 10.4428 25.7142 10.5241C25.6517 10.6054 25.5737 10.6737 25.4848 10.7249L16.8698 15.6952C16.7518 15.7639 16.6175 15.8002 16.4808 15.8001V15.8001Z" fill="#FAFAFA"/>
<path d="M7.48493 14.6499L1.51893 10.8528C1.43982 10.8024 1.35154 10.7682 1.25916 10.7519C1.16679 10.7356 1.0721 10.7377 0.980538 10.7581C0.888972 10.7784 0.802308 10.8165 0.725502 10.8703C0.648697 10.9241 0.58328 10.9925 0.532936 11.0716C0.46559 11.1767 0.427269 11.2977 0.421913 11.4224L0.121926 18.2992C0.116853 18.4242 0.144688 18.5483 0.202675 18.6591C0.260662 18.77 0.34678 18.8637 0.45237 18.9308C0.55796 18.998 0.679344 19.0363 0.80439 19.0419C0.929437 19.0475 1.05375 19.0202 1.16492 18.9627L7.44093 15.7002C7.53498 15.6508 7.61438 15.5775 7.67118 15.4878C7.72798 15.3981 7.76018 15.295 7.76453 15.1889C7.76889 15.0828 7.74524 14.9775 7.69599 14.8834C7.64674 14.7893 7.57362 14.7099 7.48393 14.6529L7.48493 14.6499Z" fill="#4782F4"/>
<path d="M16.4619 30.0044C16.2889 30.0044 16.1149 30.0044 15.9419 29.9944C14.8788 29.9523 13.8237 29.7925 12.7959 29.5178L11.3669 31.9999H21.7399L20.2909 29.4858C19.0438 29.8302 17.7558 30.0046 16.4619 30.0044V30.0044Z" fill="#4782F4"/>
<path d="M16.538 16.0559C17.1577 16.0559 17.66 15.554 17.66 14.9348C17.66 14.3156 17.1577 13.8136 16.538 13.8136C15.9184 13.8136 15.416 14.3156 15.416 14.9348C15.416 15.554 15.9184 16.0559 16.538 16.0559Z" fill="#4782F4"/>
<defs>
<linearGradient id="paint0_linear_2220_15987" x1="9.39035" y1="10.1742" x2="16.7542" y2="6.46353" gradientUnits="userSpaceOnUse">
<stop stop-color="#E1E1E1"/>
<stop offset="1" stop-color="#FAFAFA"/>
</linearGradient>
<linearGradient id="paint1_linear_2220_15987" x1="12.1719" y1="14.9318" x2="12.1719" y2="4.49841" gradientUnits="userSpaceOnUse">
<stop offset="0.001" stop-color="#1E1E33"/>
<stop offset="1" stop-color="#373978"/>
</linearGradient>
<linearGradient id="paint2_linear_2220_15987" x1="16.8277" y1="24.5673" x2="25.3943" y2="20.4409" gradientUnits="userSpaceOnUse">
<stop stop-color="#FAFAFA"/>
<stop offset="1" stop-color="#E1E1E1"/>
</linearGradient>
<linearGradient id="paint3_linear_2220_15987" x1="20.8984" y1="14.502" x2="21.4441" y2="24.9211" gradientUnits="userSpaceOnUse">
<stop offset="0.001" stop-color="#1E1E33"/>
<stop offset="1" stop-color="#373978"/>
</linearGradient>
</defs>
</svg>
