<svg id="Layer_1" data-name="Layer 1" xmlns="http://www.w3.org/2000/svg" width="65" height="65" viewBox="0 0 65 65">
  <title>news</title>
  <path d="M32.5,1.5h28a3,3,0,0,1,3,3v28a31,31,0,0,1-31,31h-.00006A30.99994,30.99994,0,0,1,1.5,32.50006V32.5a31,31,0,0,1,31-31Z" style="fill: #0c3576"/>
  <polygon points="45.315 33 11.318 33 12.003 19.939 46 19.939 45.315 33" style="opacity: 0.2"/>
  <polygon points="56.251 46 15.976 46 16.725 32 57 32 56.251 46" style="opacity: 0.2"/>
  <polygon points="54.979 44.061 13.437 44.061 14.209 29.32 55.752 29.32 54.979 44.061" style="fill: #fff"/>
  <polygon points="43.621 30.66 8.778 30.66 9.481 17.259 44.323 17.259 43.621 30.66"/>
  <g>
    <path d="M17.09082,28.12646l.13867-2.64258a3.85621,3.85621,0,0,0-.21484-.353,2.37833,2.37833,0,0,0-.22363-.27734,1.13074,1.13074,0,0,0-.22412-.18311.41335.41335,0,0,0-.20752-.06641.44967.44967,0,0,0-.30469.168,4.46187,4.46187,0,0,0-.34863.416c-.125.167-.2583.34619-.40137.54053a4.89716,4.89716,0,0,1-.46094.54,2.56142,2.56142,0,0,1-.53271.41748,1.20443,1.20443,0,0,1-.61621.167.93346.93346,0,0,1-.50342-.1416,1.625,1.625,0,0,1-.40039-.35107,2.21322,2.21322,0,0,1-.28662-.44189,1.925,1.925,0,0,1-.15381-.416l.88379-.60986a2.35514,2.35514,0,0,0,.29346.6001.38778.38778,0,0,0,.29736.18311.53412.53412,0,0,0,.35107-.18506,3.8591,3.8591,0,0,0,.4541-.57471,2.57823,2.57823,0,0,0-.27246-.80469,2.52934,2.52934,0,0,0-.44043-.59082,2.31043,2.31043,0,0,0-.54-.396,3.0906,3.0906,0,0,0-.56494-.229l.02979-.56787H11.66064l.05371-1.03076H19.812l-.05371,1.03076h-1.168l-.3042,5.79883Zm-1.646-4.251a3.27172,3.27172,0,0,1,.48682-.3335.91449.91449,0,0,1,.439-.11523,1.047,1.047,0,0,1,.46533.11523,2.1665,2.1665,0,0,1,.47852.32471l.08057-1.53906H14.37158a2.49814,2.49814,0,0,1,.38525.33838,2.82585,2.82585,0,0,1,.29834.3833,3.11837,3.11837,0,0,1,.22412.40771A4.42961,4.42961,0,0,1,15.44482,23.87549Z" style="fill: #fff"/>
    <path d="M22.20117,28.87354a3.19708,3.19708,0,0,0-.21631-.58691,5.35111,5.35111,0,0,0-.34229-.605,6.56387,6.56387,0,0,0-.43555-.58984,7.19581,7.19581,0,0,0-.499-.543,5.677,5.677,0,0,0-.52783-.46045,3.76834,3.76834,0,0,0-.52686-.34326l.00293-.05566.97363-.65039a5.6685,5.6685,0,0,1,.85791.623,6.29209,6.29209,0,0,1,.76367.79688,5.7363,5.7363,0,0,1,.59473.896,3.62858,3.62858,0,0,1,.34863.91406l-.939.60449Zm-.4668-4.20508a1.22572,1.22572,0,0,1-.521-.11035,1.25344,1.25344,0,0,1-.40625-.29541,1.29924,1.29924,0,0,1-.25879-.42822,1.25594,1.25594,0,0,1-.07666-.50781,1.29442,1.29442,0,0,1,.13525-.52,1.43645,1.43645,0,0,1,.75049-.69824,1.3071,1.3071,0,0,1,.50732-.10156,1.27125,1.27125,0,0,1,.519.10547,1.25145,1.25145,0,0,1,.6748.708,1.21048,1.21048,0,0,1,.0791.50635,1.34482,1.34482,0,0,1-.13525.52637,1.51032,1.51032,0,0,1-.31348.42627,1.41987,1.41987,0,0,1-.44043.28564A1.31774,1.31774,0,0,1,21.73438,24.66846Zm.09131-1.74951a.40241.40241,0,0,0-.16357.03418.48828.48828,0,0,0-.1377.08936.42608.42608,0,0,0-.09668.12988.42119.42119,0,0,0-.04053.1582.39936.39936,0,0,0,.10352.30225.36531.36531,0,0,0,.28271.12354.40038.40038,0,0,0,.1665-.03564A.52363.52363,0,0,0,22.082,23.626a.42182.42182,0,0,0,.09863-.13477.4263.4263,0,0,0,.04053-.16064.38779.38779,0,0,0-.02539-.16211.38866.38866,0,0,0-.21338-.21729A.38484.38484,0,0,0,21.82568,22.91895Z" style="fill: #fff"/>
    <path d="M28.65088,22.32764H23.95654l.05371-1.03076h7.0625L31.019,22.32764H29.84619l-.31348,5.98242h-.67285a2.51508,2.51508,0,0,0-.416-.63525,3.91889,3.91889,0,0,0-.58838-.53516,5.0848,5.0848,0,0,0-.71094-.44482,7.47964,7.47964,0,0,0-.79-.35205q-.40649-.15381-.82031-.26611c-.27539-.07422-.54248-.13672-.80273-.18555l.06982-1.32812c.06934-.05859.18213-.13916.33789-.24463q.23218-.1582.54492-.35107.312-.19189.68506-.39795c.248-.1377.502-.26611.76221-.38721a8.32777,8.32777,0,0,1,.77441-.31592,3.86079,3.86079,0,0,1,.72656-.18555Zm-2.3374,2.65186-.00293.05566q.44458.15967.78271.311a6.33074,6.33074,0,0,1,.58887.29541,4.82923,4.82923,0,0,1,.43018.2749,3.69146,3.69146,0,0,1,.31006.25h.02734l.11621-2.22168a1.75444,1.75444,0,0,0-.39648.09375c-.17187.05615-.36426.13135-.5752.22412-.21094.09375-.42822.20166-.65381.32568A6.592,6.592,0,0,0,26.31348,24.97949Z" style="fill: #fff"/>
    <path d="M31.69824,23.02393a.62631.62631,0,0,0-.04346-.26807.662.662,0,0,0-.14648-.22217.67984.67984,0,0,0-.23242-.15137.80963.80963,0,0,0-.30176-.05469h-.36133l.05371-1.03076h.58105a1.7585,1.7585,0,0,1,.25391.021,1.60475,1.60475,0,0,1,.2959.07324,1.7529,1.7529,0,0,1,.30176.1377,1.25143,1.25143,0,0,1,.271.208l.002-.03662a.51532.51532,0,0,1,.09521-.28857.26.26,0,0,1,.21387-.11475h1.47119l-.05469,1.03076H33.7041a.85617.85617,0,0,0-.30762.05469.84594.84594,0,0,0-.25293.15137.77892.77892,0,0,0-.17627.22217.63833.63833,0,0,0-.07373.26807L32.626,28.12646H31.43066Z" style="fill: #fff"/>
    <path d="M38.71,28.65332a4.76539,4.76539,0,0,1-.62207-1.4082,4.9001,4.9001,0,0,1-.13867-1.459,5.53194,5.53194,0,0,1,.08887-.74414,7.655,7.655,0,0,1,.18652-.7627l-.0127-.02344a1.792,1.792,0,0,0-.38379.23584q-.22412.17285-.48145.40967c-.1709.15918-.35059.33252-.53613.521q-.27832.28052-.53711.56738c-.17383.19141-.33691.37451-.49023.55225-.15234.17725-.2832.33447-.39062.47168h-.02734l-.50586-.752.20605-3.93408h-1.374l.05469-1.03076h6.86133l-.05469,1.03076h-4.292l-.11523,2.19824h.02734q.25049-.22339.56836-.48047.31787-.25635.67676-.49463a7.82391,7.82391,0,0,1,.74414-.438,4.30058,4.30058,0,0,1,.76758-.30908l.7832.87988a4.83936,4.83936,0,0,0-.39062,1.022,5.47572,5.47572,0,0,0-.16992,1.09424,4.60362,4.60362,0,0,0,.00586.5957,3.75591,3.75591,0,0,0,.07813.522,3.895,3.895,0,0,0,.1377.47656q.08057.22852.18359.45752l-.793.80176Z" style="fill: #fff"/>
  </g>
  <g>
    <path d="M21.64307,42.00293l.13867-2.64258a3.93441,3.93441,0,0,0-.21484-.35352,2.31523,2.31523,0,0,0-.22412-.27637,1.11548,1.11548,0,0,0-.22363-.18359.41335.41335,0,0,0-.20752-.06641.44871.44871,0,0,0-.30469.168,4.38516,4.38516,0,0,0-.34912.416q-.18677.25049-.40137.54a4.856,4.856,0,0,1-.46094.541,2.59287,2.59287,0,0,1-.53223.417,1.20443,1.20443,0,0,1-.61621.167.93346.93346,0,0,1-.50342-.1416,1.64334,1.64334,0,0,1-.40039-.35059,2.19518,2.19518,0,0,1-.28662-.44238,1.925,1.925,0,0,1-.15381-.416l.8833-.60937a2.35678,2.35678,0,0,0,.29395.59961.38639.38639,0,0,0,.29688.18359.53385.53385,0,0,0,.35156-.18555,3.90889,3.90889,0,0,0,.4541-.57422,2.5903,2.5903,0,0,0-.27246-.80469,2.48731,2.48731,0,0,0-.44092-.59082,2.28654,2.28654,0,0,0-.53955-.39648,3.08407,3.08407,0,0,0-.56543-.22949l.02979-.56738H16.2124l.0542-1.03027h8.09766l-.0542,1.03027h-1.168l-.30371,5.79883Zm-1.64648-4.251a3.18087,3.18087,0,0,1,.4873-.333.91308.91308,0,0,1,.439-.11523,1.04856,1.04856,0,0,1,.46533.11523,2.11167,2.11167,0,0,1,.478.32422l.08057-1.53906H18.92334a2.5017,2.5017,0,0,1,.38574.33887,2.83059,2.83059,0,0,1,.29834.38281,3.08877,3.08877,0,0,1,.22363.4082A4.31948,4.31948,0,0,1,19.99658,37.752Z"/>
    <path d="M27.64795,39.8457c.22607.10352.457.22363.69092.36035a7.79294,7.79294,0,0,1,.68359.44531c.22217.16211.43457.334.63721.5127a6.078,6.078,0,0,1,.55127.55469l-.9165.87988a4.51232,4.51232,0,0,0-.58691-.68945,5.77717,5.77717,0,0,0-.71338-.582,6.52177,6.52177,0,0,0-.79785-.46875,7.71813,7.71813,0,0,0-.84082-.3584,7.05655,7.05655,0,0,0-.84326-.24414,7.16465,7.16465,0,0,0-.80566-.13477l.18066-1.19629c.04.00293.10889.01172.208.02539.09766.01367.20264.0293.314.04785.11035.01855.2168.03613.31934.05469s.17676.03223.22217.042a.6135.6135,0,0,0,.07324.00391h.07813c.10938,0,.2334-.00586.37207-.01855a3.49428,3.49428,0,0,0,.417-.06152,3.40175,3.40175,0,0,0,.41113-.1123,1.81966,1.81966,0,0,0,.35938-.16406.93507.93507,0,0,0,.25684-.22461.516.516,0,0,0,.10742-.29395.436.436,0,0,0-.07275-.26953.80561.80561,0,0,0-.20068-.20215,1.00981,1.00981,0,0,0-.24707-.126.71777.71777,0,0,0-.21582-.043.88751.88751,0,0,1-.19775.32715,1.201,1.201,0,0,1-.30127.23145,1.55536,1.55536,0,0,1-.353.13965,1.423,1.423,0,0,1-.35986.04785.92912.92912,0,0,1-.35791-.06152.64693.64693,0,0,1-.23926-.16406.61972.61972,0,0,1-.12939-.23926.8681.8681,0,0,1-.03125-.28125.82927.82927,0,0,1,.06592-.28809,1.05016,1.05016,0,0,1,.14795-.24609,1.14036,1.14036,0,0,1,.21143-.19922,1.6158,1.6158,0,0,1,.25781-.15039c-.01221-.06055-.02979-.14062-.05176-.23828-.02246-.09766-.043-.18359-.064-.25684h-1.9834l.0542-1.03027h7.1084l-.0542,1.03027H27.05908l.062.31641a2.99575,2.99575,0,0,1,.51318.0459,2.86621,2.86621,0,0,1,.50732.1377,2.38318,2.38318,0,0,1,.4624.22852,1.749,1.749,0,0,1,.373.31836,1.37205,1.37205,0,0,1,.24463.40527,1.17661,1.17661,0,0,1,.07178.48926,1.34031,1.34031,0,0,1-.16016.583,1.84252,1.84252,0,0,1-.37061.4668,2.491,2.491,0,0,1-.51562.36035,4.813,4.813,0,0,1-.59766.2627Z"/>
    <path d="M35.30078,36.2041H30.606l.0542-1.03027h9.61816l-.05371,1.03027H36.49609l-.01855.35742a2.91889,2.91889,0,0,1,.6748.10156,3.29923,3.29923,0,0,1,.6582.251,3.1471,3.1471,0,0,1,.58887.3877,2.58156,2.58156,0,0,1,.46777.50293,2.26609,2.26609,0,0,1,.30273.60254,1.86639,1.86639,0,0,1,.08789.6875,2.19033,2.19033,0,0,1-.13184.64063,2.02016,2.02016,0,0,1-.31152.56543,1.56938,1.56938,0,0,1-.46582.40332,1.16543,1.16543,0,0,1-.58887.1543,1.04682,1.04682,0,0,1-.4248-.083.954.954,0,0,1-.32031-.21973.9161.9161,0,0,1-.19629-.31836.94608.94608,0,0,1-.05566-.37793,1.07122,1.07122,0,0,1,.08105-.36328.99781.99781,0,0,1,.19141-.30273.92119.92119,0,0,1,.2832-.207.83908.83908,0,0,1,.35449-.0752.96634.96634,0,0,1,.52734.16895l.02441-.02734a.808.808,0,0,0-.15234-.48535,1.48874,1.48874,0,0,0-.417-.3916,2.28241,2.28241,0,0,0-.58691-.2627,2.30842,2.30842,0,0,0-.65723-.09668l-.22852,4.37012h-.67285a2.50843,2.50843,0,0,0-.416-.63477,3.96868,3.96868,0,0,0-.58789-.53613,5.246,5.246,0,0,0-.71191-.44434,7.14777,7.14777,0,0,0-.79-.35156c-.27051-.10254-.54443-.19141-.81982-.2666-.27539-.07422-.54248-.13672-.80273-.18555l.06982-1.32812c.06934-.05859.18164-.13965.33789-.24512q.23218-.15674.54492-.35059.31128-.19189.68457-.39844.37207-.20508.7627-.38672a8.27925,8.27925,0,0,1,.77441-.31641,3.9303,3.9303,0,0,1,.72656-.18457Zm-2.3374,2.65137-.00293.05566c.29639.10645.55713.21094.78271.31152a6.44959,6.44959,0,0,1,.58887.2959,4.449,4.449,0,0,1,.42969.27441,3.70422,3.70422,0,0,1,.31055.25h.02734l.11621-2.22168a1.75445,1.75445,0,0,0-.39648.09375c-.17187.05664-.36426.13184-.5752.22461s-.42871.20117-.6543.3252A6.85015,6.85015,0,0,0,32.96338,38.85547Z"/>
    <path d="M40.90332,36.90039a.62763.62763,0,0,0-.043-.26758.66534.66534,0,0,0-.37891-.374.80963.80963,0,0,0-.30176-.05469h-.36133l.05371-1.03027h.58105a1.82352,1.82352,0,0,1,.25391.02051,1.6144,1.6144,0,0,1,.2959.07324,1.692,1.692,0,0,1,.30176.13672,1.21529,1.21529,0,0,1,.27051.209l.002-.03711a.50924.50924,0,0,1,.0957-.28711.25806.25806,0,0,1,.21387-.11523h1.4707l-.05371,1.03027h-.39355a.85617.85617,0,0,0-.30762.05469.834.834,0,0,0-.25293.15137.758.758,0,0,0-.17676.22266.624.624,0,0,0-.07422.26758l-.2666,5.10254H40.63672Z"/>
    <path d="M47.5918,36.2041H42.89746l.05371-1.03027h7.0625L49.96,36.2041H48.78711l-.31348,5.98242h-.67285a2.50843,2.50843,0,0,0-.416-.63477,3.96868,3.96868,0,0,0-.58789-.53613,5.246,5.246,0,0,0-.71191-.44434,7.14778,7.14778,0,0,0-.79-.35156c-.27051-.10254-.54492-.19141-.81934-.2666-.27539-.07422-.543-.13672-.80371-.18555l.07031-1.32812c.06934-.05859.18164-.13965.33789-.24512q.23291-.15674.54492-.35059.312-.19189.68457-.39844.37207-.20508.7627-.38672a8.27925,8.27925,0,0,1,.77441-.31641,3.9303,3.9303,0,0,1,.72656-.18457ZM44.333,41.29785a.796.796,0,0,1,.0791-.30762.8548.8548,0,0,1,.17969-.24707.84229.84229,0,0,1,.25879-.167.79859.79859,0,0,1,.31152-.06152.73981.73981,0,0,1,.543.22852.73383.73383,0,0,1,.19922.55469.81718.81718,0,0,1-.07715.30957.85372.85372,0,0,1-.18066.249.83309.83309,0,0,1-.25684.167.77924.77924,0,0,1-.30957.0625.757.757,0,0,1-.30566-.0625.71364.71364,0,0,1-.39453-.416A.77749.77749,0,0,1,44.333,41.29785Zm.9209-2.44238-.00293.05566c.29688.10645.55762.21094.7832.31152a6.44959,6.44959,0,0,1,.58887.2959,4.449,4.449,0,0,1,.42969.27441,3.70422,3.70422,0,0,1,.31055.25h.02734l.11621-2.22168a1.75445,1.75445,0,0,0-.39648.09375c-.17187.05664-.36426.13184-.5752.22461s-.42871.20117-.6543.3252A6.927,6.927,0,0,0,45.25391,38.85547Z"/>
    <path d="M49.60742,35.17383h1.168a3.95009,3.95009,0,0,0-.03809-.541,2.52338,2.52338,0,0,0-.13477-.53125,2.1067,2.1067,0,0,0-.25684-.48047,1.69141,1.69141,0,0,0-.39844-.39258,1.9692,1.9692,0,0,0-.5625-.2627,2.68664,2.68664,0,0,0-.751-.0957H45.98145c-.10352,0-.21191.00391-.32129.01074a1.17356,1.17356,0,0,0-.30078.05957.55749.55749,0,0,0-.22754.14746.40079.40079,0,0,0-.10059.2666.33661.33661,0,0,0,.0498.2207.34691.34691,0,0,0,.1748.11719,1.09977,1.09977,0,0,0,.2832.04785c.11133.00586.23828.00879.38281.00879h1.8457a1.60878,1.60878,0,0,1,.57813.09668,1.0656,1.0656,0,0,1,.42285.2793,1.11414,1.11414,0,0,1,.249.44922,1.74114,1.74114,0,0,1,.0625.59961H47.88477a.382.382,0,0,0-.03516-.20605.26453.26453,0,0,0-.13867-.11914.812.812,0,0,0-.249-.05566c-.10059-.00879-.22363-.01367-.36719-.01367H45.17578a1.30671,1.30671,0,0,1-.623-.13477,1.19168,1.19168,0,0,1-.40527-.34082,1.23339,1.23339,0,0,1-.21484-.458,1.72046,1.72046,0,0,1-.04785-.48633,1.42447,1.42447,0,0,1,.16992-.61328,1.47673,1.47673,0,0,1,.41895-.48047,2.00414,2.00414,0,0,1,.64453-.31445,2.93358,2.93358,0,0,1,.83887-.11182h2.46875a5.6357,5.6357,0,0,1,1.1582.10693,3.70475,3.70475,0,0,1,.875.29395,2.55,2.55,0,0,1,.62988.42969,2.58145,2.58145,0,0,1,.4248.51758,2.72,2.72,0,0,1,.26172.55762,3.41891,3.41891,0,0,1,.1377.54883,3.77875,3.77875,0,0,1,.05078.49219c.00391.15137.00684.28125.00684.3877h1.168L53.085,36.2041H51.917l-.30371,5.79883H50.418l.30371-5.79883h-1.168Z"/>
  </g>
  <polyline points="8.778 30.66 9.481 17.259 44.323 17.259" style="fill: #fff;opacity: 0.15"/>
  <path d="M27,48H41a0,0,0,0,1,0,0v0a1,1,0,0,1-1,1H26a0,0,0,0,1,0,0v0A1,1,0,0,1,27,48Z" style="fill: #fff"/>
  <path d="M45,48h4a0,0,0,0,1,0,0v0a1,1,0,0,1-1,1H44a0,0,0,0,1,0,0v0A1,1,0,0,1,45,48Z" style="fill: #fff"/>
</svg>
