<svg id="Layer_1" data-name="Layer 1" xmlns="http://www.w3.org/2000/svg" width="65" height="65" viewBox="0 0 65 65">
  <title>logo</title>
  <path d="M32.5,63.5H32.5a31,31,0,0,1-31-31V32.5a31,31,0,0,1,31-31h28a3,3,0,0,1,3,3v28A31,31,0,0,1,32.5,63.5Z" style="fill: #f8832b"/>
  <path d="M57.83708,5.46676a1.69808,1.69808,0,0,1,1.69616,1.69616v25.886A26.51433,26.51433,0,0,1,33.04891,59.53324H31.95109A26.51433,26.51433,0,0,1,5.46676,33.04891V31.95109A26.51432,26.51432,0,0,1,31.95109,5.46676h25.886m0-.95972h-25.886a27.44405,27.44405,0,0,0-27.444,27.444v1.09782A27.44405,27.44405,0,0,0,31.95109,60.493h1.09782A27.44405,27.44405,0,0,0,60.493,33.04891V7.16292A2.65589,2.65589,0,0,0,57.83708,4.507Z" style="fill: #fff"/>
  <g>
    <path d="M12.17236,30.439H11.103l-.18555-.97656a1.88634,1.88634,0,0,0-.542-.20508,3.15232,3.15232,0,0,0-.75684-.08789,1.45492,1.45492,0,0,0-.90576.24658.769.769,0,0,0-.31982.63721.697.697,0,0,0,.33447.59326,4.61639,4.61639,0,0,0,1.15479.49072,4.50836,4.50836,0,0,1,1.78467.86426,1.79279,1.79279,0,0,1,.60791,1.41162,1.688,1.688,0,0,1-.72266,1.44043,3.15765,3.15765,0,0,1-1.9043.52734,4.13687,4.13687,0,0,1-1.52588-.26855,3.15584,3.15584,0,0,1-1.13525-.74219V32.88525H8.09033l.15137,1.01123a1.72157,1.72157,0,0,0,.5835.29,2.73947,2.73947,0,0,0,.82275.11523,1.42412,1.42412,0,0,0,.89111-.23926.7722.7722,0,0,0,.30518-.63965.82579.82579,0,0,0-.29053-.65967,2.94215,2.94215,0,0,0-1.01807-.46875,5.7938,5.7938,0,0,1-1.91406-.86914,1.64683,1.64683,0,0,1-.64941-1.377,1.69265,1.69265,0,0,1,.73242-1.41357,3.05293,3.05293,0,0,1,1.84082-.564,4.2823,4.2823,0,0,1,1.49414.249,3.44819,3.44819,0,0,1,1.13281.66406Z" style="fill: #fff"/>
    <path d="M17.42627,32.15283H15.019v2.03174H17.314l.06348-.84961h1.084v1.94336h-5.625v-.85449l.75684-.14648v-5.103l-.75684-.14648v-.85937h5.61523V30.1167H17.35791l-.06348-.84961H15.019V31.0542h2.40723Z" style="fill: #fff"/>
    <path d="M19.22314,35.27832v-.85449l.75684-.14648v-5.103l-.75684-.14648v-.85937h2.94434v.85938l-.76172.14648v5.01025H23.4126L23.481,33.291h1.08887v1.9873Z" style="fill: #fff"/>
    <path d="M29.67236,32.15283H27.26514v2.03174h2.29492l.06348-.84961h1.084v1.94336h-5.625v-.85449l.75684-.14648v-5.103l-.75684-.14648v-.85937h5.61523V30.1167H29.604l-.06348-.84961H27.26514V31.0542h2.40723Z" style="fill: #fff"/>
    <path d="M34.66309,28.16846a2.94984,2.94984,0,0,1,1.89941.5542,1.85736,1.85736,0,0,1,.68848,1.53076,1.54591,1.54591,0,0,1-.28809.93262,2.0147,2.0147,0,0,1-.84473.63965,1.53123,1.53123,0,0,1,.90527.61768,1.94922,1.94922,0,0,1,.27637,1.07227V33.877a.60939.60939,0,0,0,.09277.36328.412.412,0,0,0,.30762.1543l.17578.02441v.85938h-.7373a1.15472,1.15472,0,0,1-.98145-.376,1.56968,1.56968,0,0,1-.2832-.97168v-.40527a1.14152,1.14152,0,0,0-.27637-.81348,1.05763,1.05763,0,0,0-.77832-.31006h-1.167v1.87549l.76172.14648v.85449H31.46924v-.85449l.75684-.14648v-5.103l-.75684-.14648v-.85937h3.19385Zm-1.01074,3.13477h.98633a1.35007,1.35007,0,0,0,.89355-.25391.91068.91068,0,0,0,.29785-.73242,1.01324,1.01324,0,0,0-.2959-.76416,1.20492,1.20492,0,0,0-.87109-.28564H33.65234Z" style="fill: #fff"/>
    <path d="M38.27148,34.42383l.50781-.07324,2.16309-6.18213h1.46l2.14844,6.18213.50781.07324v.85449H42.63672v-.85449l.49316-.08789-.3125-.97656H40.5127l-.3125.97656.49316.08789v.85449H38.27148Zm2.57813-2.11475h1.63086l-.80078-2.50488h-.0293Z" style="fill: #fff"/>
    <path d="M50.92773,30.439H49.8584l-.18555-.97656a1.898,1.898,0,0,0-.542-.20508,3.15818,3.15818,0,0,0-.75684-.08789,1.45743,1.45743,0,0,0-.90625.24658.76978.76978,0,0,0-.31934.63721.69763.69763,0,0,0,.334.59326,4.63009,4.63009,0,0,0,1.15527.49072,4.50929,4.50929,0,0,1,1.78418.86426,1.79317,1.79317,0,0,1,.6084,1.41162,1.6892,1.6892,0,0,1-.72266,1.44043,3.15967,3.15967,0,0,1-1.9043.52734A4.13767,4.13767,0,0,1,46.877,35.1123a3.1538,3.1538,0,0,1-1.13477-.74219V32.88525H46.8457l.15137,1.01123a1.71877,1.71877,0,0,0,.583.29,2.745,2.745,0,0,0,.82324.11523,1.42161,1.42161,0,0,0,.89063-.23926.7713.7713,0,0,0,.30566-.63965.82469.82469,0,0,0-.291-.65967,2.93882,2.93882,0,0,0-1.01758-.46875,5.78428,5.78428,0,0,1-1.91406-.86914,1.64554,1.64554,0,0,1-.64941-1.377A1.69265,1.69265,0,0,1,46.46,28.63477a3.05188,3.05188,0,0,1,1.84082-.564,4.2823,4.2823,0,0,1,1.49414.249,3.45324,3.45324,0,0,1,1.13281.66406Z" style="fill: #fff"/>
    <path d="M51.51855,34.42383l.50781-.07324,2.16309-6.18213h1.46l2.14844,6.18213.50781.07324v.85449H55.88379v-.85449l.49316-.08789-.3125-.97656H53.75977l-.3125.97656.49316.08789v.85449H51.51855Zm2.57813-2.11475h1.63086l-.80078-2.50488h-.0293Z" style="fill: #fff"/>
  </g>
</svg>
