<svg id="Layer_1" data-name="Layer 1" xmlns="http://www.w3.org/2000/svg" width="65" height="65" viewBox="0 0 65 65">
  <title>news</title>
  <path d="M32.5,63.5H32.5a31,31,0,0,1-31-31V32.5a31,31,0,0,1,31-31h28a3,3,0,0,1,3,3v28A31,31,0,0,1,32.5,63.5Z" style="fill: #f8832b"/>
  <polygon points="57.829 45.657 11.001 45.657 12.171 29.698 59 29.698 57.829 45.657" style="fill: #fff"/>
  <polygon points="49.837 32.89 7 32.89 8.163 18.527 51 18.527 49.837 32.89"/>
  <g>
    <path d="M15.95557,29.666H12.65771l.66943-7.64941h3.15527c1.59961,0,2.41455.833,2.31445,1.97217a1.96962,1.96962,0,0,1-1.457,1.75391,1.66815,1.66815,0,0,1,1.31641,1.85205C18.5498,28.811,17.54443,29.666,15.95557,29.666Zm.0376-3.30957H14.48145L14.30127,28.417h1.54492c.74414,0,1.21436-.36182,1.271-1.00879C17.1748,26.75049,16.73828,26.35645,15.99316,26.35645Zm.16211-3.10156H14.75293l-.168,1.91748H15.9873c.72266,0,1.16748-.32861,1.22217-.95312C17.26318,23.60547,16.87793,23.25488,16.15527,23.25488Z" style="fill: #fff"/>
    <path d="M22.34668,29.76416a2.6608,2.6608,0,0,1-2.772-3.13428A3.2365,3.2365,0,0,1,22.895,23.49512a2.57944,2.57944,0,0,1,2.72852,3.00342,3.66658,3.66658,0,0,1-.0957.59229h-4.4375a1.28161,1.28161,0,0,0,1.334,1.40283,1.38891,1.38891,0,0,0,1.28125-.73437h1.6543A3.14047,3.14047,0,0,1,22.34668,29.76416Zm-1.15576-3.70361h2.88184a1.21731,1.21731,0,0,0-1.332-1.3042A1.57036,1.57036,0,0,0,21.19092,26.06055Z" style="fill: #fff"/>
    <path d="M27.99854,29.666H26.46436l.53125-6.07129h1.53418l-.08252.94238a2.328,2.328,0,0,1,1.95264-1.03027l-.14111,1.61133h-.40527c-.90918,0-1.48779.3501-1.59033,1.52344Z" style="fill: #fff"/>
    <path d="M31.42334,23.59473h1.53418L32.42627,29.666H30.89209Zm-.022-1.62207a.99953.99953,0,0,1,1.021-.89893.81752.81752,0,0,1,.86279.89893,1.00673,1.00673,0,0,1-1.02.89795A.81211.81211,0,0,1,31.40137,21.97266Z" style="fill: #fff"/>
    <path d="M34.60059,24.85449H33.877l.11035-1.25977h.72363l.13086-1.50244h1.54492l-.13086,1.50244h1.3584l-.11035,1.25977h-1.3584l-.25684,2.938c-.03613.40479.11328.58057.5957.58057h.71094l-.1123,1.293h-.96387c-1.16211,0-1.89648-.49316-1.77441-1.88525Z" style="fill: #fff"/>
    <path d="M41.10742,23.49512a2.17931,2.17931,0,0,1,1.9209.96533l.07617-.86572h1.54395L44.11719,29.666H42.57324l.07715-.88818a2.63681,2.63681,0,0,1-2.10254.98633c-1.5332,0-2.65039-1.25977-2.48437-3.15576A3.15766,3.15766,0,0,1,41.10742,23.49512Zm.27637,1.34863a1.79846,1.79846,0,0,0-1.75391,1.76465A1.5,1.5,0,0,0,41.07129,28.417a1.81633,1.81633,0,0,0,1.76758-1.78711A1.47948,1.47948,0,0,0,41.38379,24.84375Z" style="fill: #fff"/>
  </g>
  <g>
    <path d="M19.19971,40.59473H16.14111l-.50586,1.46289H14.01807l2.76123-7.69043h1.79346L21.334,42.05762H19.70557Zm-1.5293-4.44531L16.55957,39.3623h2.22217Z"/>
    <path d="M24.69922,42.15625a2.40293,2.40293,0,0,1-2.66211-2.02344h1.55127a1.01086,1.01086,0,0,0,1.1001.81348c.605,0,.93506-.27441.93506-.627,0-1.08887-3.44336-.39648-3.44336-2.62891,0-1.0127.90186-1.82715,2.40918-1.82715A2.18385,2.18385,0,0,1,27.04248,37.877H25.56836a.908.908,0,0,0-1.02295-.792c-.57227,0-.86914.23145-.86914.583,0,1.11133,3.37744.418,3.42139,2.65137C27.09766,41.36426,26.18457,42.15625,24.69922,42.15625Z"/>
    <path d="M28.19678,34.335a.94715.94715,0,1,1,.9458.90137A.9028.9028,0,0,1,28.19678,34.335Zm.165,1.62793h1.54v6.09473h-1.54Z"/>
    <path d="M33.75293,42.15625a2.40427,2.40427,0,0,1-2.66309-2.02344H32.6416a1.01032,1.01032,0,0,0,1.09961.81348c.60547,0,.93555-.27441.93555-.627,0-1.08887-3.44336-.39648-3.44336-2.62891,0-1.0127.90234-1.82715,2.40918-1.82715A2.18358,2.18358,0,0,1,36.0957,37.877H34.62207a.90818.90818,0,0,0-1.02344-.792c-.57227,0-.86914.23145-.86914.583,0,1.11133,3.377.418,3.42188,2.65137C36.15137,41.36426,35.23828,42.15625,33.75293,42.15625Z"/>
    <path d="M37.65723,37.22754h-.72559V35.96289h.72559V34.45508H39.209v1.50781h1.36426v1.26465H39.209v2.94922c0,.40625.165.583.64844.583h.71582v1.29785h-.96875c-1.166,0-1.94727-.49512-1.94727-1.89258Z"/>
    <path d="M44.3457,42.15625a2.95136,2.95136,0,0,1-3.05859-3.14648,2.9287,2.9287,0,0,1,3.05859-3.14648,2.86128,2.86128,0,0,1,3.00293,3.01465,3.58616,3.58616,0,0,1-.04395.59473H42.84863a1.42689,1.42689,0,0,0,1.46387,1.4082,1.25428,1.25428,0,0,0,1.2207-.7373h1.66113A2.83177,2.83177,0,0,1,44.3457,42.15625Zm-1.48535-3.71777h2.89355a1.35438,1.35438,0,0,0-1.45215-1.30957A1.41521,1.41521,0,0,0,42.86035,38.43848Z"/>
    <path d="M52.73828,38.69141a1.37065,1.37065,0,1,0-2.72754,0v3.36621h-1.541V35.96289h1.541v.75879a2.27589,2.27589,0,0,1,1.83691-.84668,2.34435,2.34435,0,0,1,2.43164,2.60742v3.5752h-1.541Z"/>
  </g>
  <line x1="28" y1="49" x2="43" y2="49" style="fill: #fff;stroke: #fff;stroke-linecap: round;stroke-miterlimit: 10"/>
  <line x1="46" y1="49" x2="52" y2="49" style="fill: #fff;stroke: #fff;stroke-linecap: round;stroke-miterlimit: 10"/>
</svg>
