<svg id="Layer_1" data-name="Layer 1" xmlns="http://www.w3.org/2000/svg" width="65" height="65" viewBox="0 0 65 65">
  <title>news</title>
  <path d="M64.1932,32.11074a31.56307,31.56307,0,0,1-10.622,23.6835q-.70588.61945-1.4406,1.21011a33.02313,33.02313,0,0,1-3.92806,2.6411,31.73488,31.73488,0,0,1-30.42546.53782L7.64484,64.50507a.96567.96567,0,0,1-1.335-.99885L7.61606,52.66333l.096-.80676A32.86776,32.86776,0,0,1,5.23423,48.2839v-.00961A31.58182,31.58182,0,0,1,1.61356,39.285v-.00961c-.1153-.51859-.22093-1.02764-.30734-1.55584A27.76188,27.76188,0,0,1,.922,34.72306c-.05762-.64345-.096-1.29658-.10563-1.95925C.8068,32.55255.8068,32.33167.8068,32.11074a32.02656,32.02656,0,0,1,1.62308-10.065A31.71406,31.71406,0,0,1,54.57959,9.36848a31.04919,31.04919,0,0,1,3.53426,4.0817,29.4116,29.4116,0,0,1,2.39139,3.80321V17.263A31.31029,31.31029,0,0,1,63.665,26.36757c.0864.47059.16325.95079.23049,1.431A30.48712,30.48712,0,0,1,64.1932,32.11074Z" style="fill: #0be6af"/>
  <path d="M61.14814,32.14814a28.53052,28.53052,0,0,1-9.60147,21.408q-.63806.55993-1.30219,1.09385a29.85029,29.85029,0,0,1-3.55066,2.38735,28.68582,28.68582,0,0,1-27.50221.48615l-9.15871,3.90656a.87289.87289,0,0,1-1.20671-.90288L10.00689,50.726l.08679-.72925A29.70985,29.70985,0,0,1,7.8539,46.7674v-.00869a28.54746,28.54746,0,0,1-3.2728-8.12564v-.00869c-.10422-.46877-.1997-.9289-.27781-1.40636A25.09454,25.09454,0,0,1,3.956,34.50947c-.05209-.58163-.08679-1.172-.09548-1.771-.00869-.191-.00869-.39061-.00869-.59032A28.94947,28.94947,0,0,1,5.319,23.0502,28.667,28.667,0,0,1,52.4582,11.59094a28.066,28.066,0,0,1,3.1947,3.68953,26.58575,26.58575,0,0,1,2.16162,3.4378V18.727a28.302,28.302,0,0,1,2.85617,8.22981c.0781.42537.14757.85944.20834,1.2935A27.55794,27.55794,0,0,1,61.14814,32.14814Z"/>
  <polygon points="56.717 43.631 12.194 43.631 13.219 31.914 57.742 31.914 56.717 43.631" style="fill: #fff;opacity: 0.30000000000000004"/>
  <polygon points="44.649 34.257 8.327 34.257 9.352 22.541 45.674 22.541 44.649 34.257" style="fill: #fff;opacity: 0.30000000000000004"/>
  <polygon points="54.476 42.459 9.953 42.459 10.978 30.743 55.501 30.743 54.476 42.459" style="fill: #fff"/>
  <polygon points="42.408 33.086 7.258 33.086 8.283 21.369 43.433 21.369 42.408 33.086" style="fill: #0be6af"/>
  <g>
    <path d="M9.83057,24.812h1.1416l.57568,4.12793L12.98975,24.812h1.18848l.66064,4.10449L16.14209,24.812H17.2915l-1.94922,5.31543H14.08643l-.667-3.78516-1.374,3.78516-1.25.00781Z" style="fill: #fff"/>
    <path d="M20.99561,25.67285H18.978l-.1167,1.332h1.78906l-.07373.84521H18.7876l-.12354,1.40967h2.01758l-.07568.86768H17.522l.46582-5.32324h3.084Z" style="fill: #fff"/>
    <path d="M23.86475,30.12744h-2.292L22.0376,24.812H24.23c1.1123,0,1.67822.57861,1.60889,1.37061a1.37135,1.37135,0,0,1-1.01221,1.21924,1.15858,1.15858,0,0,1,.915,1.28564A1.67168,1.67168,0,0,1,23.86475,30.12744Zm.02637-2.2998H22.84033l-.12549,1.43213h1.07324c.51758,0,.84424-.252.88379-.70166C24.71191,28.10205,24.40869,27.82764,23.89111,27.82764Zm.1123-2.15479h-.97461l-.1167,1.332h.97461c.502,0,.811-.228.84912-.6626C24.77295,25.916,24.50537,25.67285,24.00342,25.67285Z" style="fill: #fff"/>
    <path d="M28.30029,30.18115c-1.10449,0-1.90625-.5791-1.833-1.584h1.1416a.66044.66044,0,0,0,.74561.7085.75937.75937,0,0,0,.85547-.64795c.10059-1.1499-2.70117-.45752-2.5249-2.38379a1.80246,1.80246,0,0,1,2.00781-1.53809c1.08887,0,1.78613.55566,1.77051,1.51514H29.2915a.63256.63256,0,0,0-.70654-.63135.67939.67939,0,0,0-.78467.62451c-.09326,1.06592,2.68408.47168,2.52,2.34521A1.85984,1.85984,0,0,1,28.30029,30.18115Z" style="fill: #fff"/>
    <path d="M31.57275,24.812h1.06689l-.46582,5.31543H31.10791Z" style="fill: #fff"/>
    <path d="M33.40918,24.812h3.89844l-.0752.86084h-1.418l-.38965,4.45459H34.35938L34.75,25.67285H33.334Z" style="fill: #fff"/>
    <path d="M41.09375,25.67285H39.07617l-.11719,1.332H40.748l-.07422.84521H38.88477l-.123,1.40967H40.7793l-.07617.86768h-3.084L38.085,24.8042h3.084Z" style="fill: #fff"/>
  </g>
  <g>
    <path d="M15.84766,38.87891H13.73145l-.439,1.0127H12.17334l2.377-5.32324H15.7915l1.44531,5.32324h-1.127Zm-.78906-3.07715-.96338,2.22461H15.6333Z"/>
    <path d="M19.78418,39.94531c-1.10449,0-1.90674-.5791-1.8335-1.584h1.1416a.66056.66056,0,0,0,.74561.709.75936.75936,0,0,0,.85547-.64844c.10059-1.14941-2.70117-.457-2.52441-2.38379A1.802,1.802,0,0,1,20.17627,34.5c1.08887,0,1.78662.55566,1.771,1.51563H20.77539a.63341.63341,0,0,0-.70654-.63184.68012.68012,0,0,0-.78516.625c-.09326,1.06543,2.68408.47168,2.52051,2.34473A1.85984,1.85984,0,0,1,19.78418,39.94531Z"/>
    <path d="M24.42188,39.94531c-1.10449,0-1.90674-.5791-1.8335-1.584H23.73a.66056.66056,0,0,0,.74561.709.75936.75936,0,0,0,.85547-.64844c.10059-1.14941-2.70117-.457-2.52441-2.38379A1.802,1.802,0,0,1,24.814,34.5c1.08887,0,1.78662.55566,1.771,1.51563H25.41309a.63341.63341,0,0,0-.70654-.63184.68012.68012,0,0,0-.78516.625c-.09326,1.06543,2.68408.47168,2.52051,2.34473A1.85984,1.85984,0,0,1,24.42188,39.94531Z"/>
    <path d="M27.69434,34.57617h1.06641l-.46533,5.31543H27.229Z"/>
    <path d="M31.17676,39.94531c-1.10449,0-1.90674-.5791-1.8335-1.584h1.1416a.66056.66056,0,0,0,.74561.709.75936.75936,0,0,0,.85547-.64844c.10059-1.14941-2.70117-.457-2.52441-2.38379A1.802,1.802,0,0,1,31.56885,34.5c1.08936,0,1.78662.55566,1.771,1.51563H32.168a.63341.63341,0,0,0-.70654-.63184.68012.68012,0,0,0-.78516.625c-.09326,1.06543,2.68408.47168,2.52,2.34473A1.85933,1.85933,0,0,1,31.17676,39.94531Z"/>
    <path d="M34.168,34.57617h3.89844l-.0752.86133h-1.417l-.38965,4.4541H35.11914l.38965-4.4541h-1.416Z"/>
    <path d="M41.72559,38.87891H39.60938l-.43848,1.0127H38.05176l2.376-5.32324h1.24219l1.44531,5.32324h-1.127Zm-.78906-3.07715-.96289,2.22461h1.53809Z"/>
    <path d="M48.84375,34.56836l-.46582,5.32324H47.31152L45.2168,36.24414l-.31836,3.64746H43.832l.46484-5.32324h1.06641L47.457,38.22461l.32031-3.65625Z"/>
    <path d="M49.61328,34.57617h3.89844l-.0752.86133h-1.417l-.38965,4.4541H50.56445l.38965-4.4541h-1.416Z"/>
  </g>
  <polygon points="7.258 33.086 8.283 21.369 43.433 21.369 7.258 33.086" style="fill: #fff;opacity: 0.3"/>
</svg>
