<svg id="Layer_1" data-name="Layer 1" xmlns="http://www.w3.org/2000/svg" width="65" height="65" viewBox="0 0 65 65">
  <title>news</title>
  <path d="M63.85,32.115A31.22128,31.22128,0,0,1,53.343,55.542q-.69824.61274-1.425,1.197a32.66553,32.66553,0,0,1-3.88553,2.6125,31.39123,31.39123,0,0,1-30.096.532L7.914,64.1585a.95521.95521,0,0,1-1.32051-.988L7.88553,52.445l.095-.798a32.51184,32.51184,0,0,1-2.451-3.534v-.00951a31.23982,31.23982,0,0,1-3.58146-8.892V39.202c-.11405-.513-.21854-1.01651-.304-1.539a27.46125,27.46125,0,0,1-.38-2.964c-.057-.63648-.095-1.28253-.10449-1.938C1.15,32.552,1.15,32.3335,1.15,32.115a31.67975,31.67975,0,0,1,1.6055-9.956,31.37063,31.37063,0,0,1,51.585-12.54,30.713,30.713,0,0,1,3.496,4.0375,29.0931,29.0931,0,0,1,2.36549,3.762V17.428a30.97124,30.97124,0,0,1,3.12554,9.006c.08547.46549.16148.94049.228,1.41549A30.157,30.157,0,0,1,63.85,32.115Z" style="fill: #ca3447"/>
  <rect x="7.39394" y="30.18182" width="52.60606" height="13.57576" rx="6.78787" ry="6.78787" style="fill: #fff"/>
  <rect x="4" y="20" width="32.24242" height="11.87879" rx="5.93939" ry="5.93939"/>
  <g>
    <path d="M13.79834,23.56787V29.498h-1.188l-2.68945-4.064v4.064H8.7334V23.56787H9.9209l2.68945,4.07227V23.56787Z" style="fill: #fff"/>
    <path d="M18.40576,24.53516H16.15723v1.48438h1.99414v.94189H16.15723v1.56934h2.24854V29.498h-3.436V23.56787h3.436Z" style="fill: #fff"/>
    <path d="M19.08447,23.57617h1.27295l1.04346,4.59863,1.20459-4.59863h1.32324l1.13721,4.57275,1.05176-4.57275h1.28125L25.74463,29.498h-1.3999L23.2334,25.28174,22.0708,29.498l-1.39111.0083Z" style="fill: #fff"/>
    <path d="M30.21631,29.55762c-1.23,0-2.18018-.645-2.19727-1.76465H29.2915a.81337.81337,0,0,0,.89941.78906c.56006,0,.89111-.29736.89111-.72119,0-1.28125-3.05469-.50928-3.0459-2.65576,0-1.06885.86523-1.71387,2.08691-1.71387a1.87166,1.87166,0,0,1,2.12109,1.68848H30.9375a.78155.78155,0,0,0-.84814-.7041c-.4668-.01709-.81445.21191-.81445.6958,0,1.1875,3.03711.52588,3.03711,2.61279A1.86825,1.86825,0,0,1,30.21631,29.55762Z" style="fill: #fff"/>
  </g>
  <g>
    <path d="M15.22656,39.5625h-2.3584L12.478,40.69043H11.231l2.12939-5.93066h1.38281l2.12939,5.93066H15.61719Zm-1.1792-3.42773-.85693,2.47754H14.9043Z"/>
    <path d="M19.71533,40.75c-1.23,0-2.18018-.64453-2.19727-1.76465h1.27246a.81365.81365,0,0,0,.89941.78906c.56006,0,.89111-.29687.89111-.72168,0-1.28125-3.05469-.50879-3.0459-2.65527,0-1.06934.86523-1.71387,2.08691-1.71387a1.87135,1.87135,0,0,1,2.12109,1.68848H20.43652a.78155.78155,0,0,0-.84814-.7041c-.4668-.0166-.81445.21191-.81445.69531,0,1.18848,3.03711.52637,3.03711,2.61328A1.86825,1.86825,0,0,1,19.71533,40.75Z"/>
    <path d="M24.88232,40.75c-1.23,0-2.18018-.64453-2.19727-1.76465h1.27246a.81365.81365,0,0,0,.89941.78906c.56006,0,.89111-.29687.89111-.72168,0-1.28125-3.05469-.50879-3.0459-2.65527,0-1.06934.86523-1.71387,2.08691-1.71387a1.87135,1.87135,0,0,1,2.12109,1.68848H25.60352a.78155.78155,0,0,0-.84814-.7041c-.4668-.0166-.81445.21191-.81445.69531,0,1.18848,3.03711.52637,3.03711,2.61328A1.86825,1.86825,0,0,1,24.88232,40.75Z"/>
    <path d="M28.00537,34.76855h1.1875v5.92188h-1.1875Z"/>
    <path d="M32.4082,40.75c-1.23,0-2.18018-.64453-2.19727-1.76465H31.4834a.81365.81365,0,0,0,.89941.78906c.56006,0,.89063-.29687.89063-.72168,0-1.28125-3.05371-.50879-3.04541-2.65527,0-1.06934.86523-1.71387,2.08691-1.71387a1.87089,1.87089,0,0,1,2.12061,1.68848H33.12988a.78264.78264,0,0,0-.84863-.7041c-.4668-.0166-.81445.21191-.81445.69531,0,1.18848,3.03711.52637,3.03711,2.61328A1.86853,1.86853,0,0,1,32.4082,40.75Z"/>
    <path d="M35.2168,34.76855h4.34375v.959H37.98242v4.96289h-1.1875V35.72754H35.2168Z"/>
    <path d="M44.05859,39.5625H41.7002l-.39062,1.12793H40.0625l2.12891-5.93066h1.38281l2.12988,5.93066H44.44824Zm-1.17969-3.42773-.85645,2.47754h1.71387Z"/>
    <path d="M51.56738,34.75977v5.93066h-1.1875L47.69043,36.627v4.06348H46.502V34.75977h1.18848L50.37988,38.832V34.75977Z"/>
    <path d="M52.42383,34.76855h4.34375v.959H55.18945v4.96289H54.002V35.72754H52.42383Z"/>
  </g>
  <path d="M24.5,46h17a1,1,0,0,1,1,1v0a0,0,0,0,1,0,0h-17a1,1,0,0,1-1-1v0A0,0,0,0,1,24.5,46Z" style="fill: #fff"/>
  <path d="M44,46h5a1,1,0,0,1,1,1v0a0,0,0,0,1,0,0H45a1,1,0,0,1-1-1v0A0,0,0,0,1,44,46Z" style="fill: #fff"/>
  <path d="M9.93939,31.87879A5.93939,5.93939,0,0,1,4,25.9394H4A5.93939,5.93939,0,0,1,9.93939,20H30.303C33.58327,20,9.93939,31.87879,9.93939,31.87879Z" style="fill: #fff;opacity: 0.15"/>
</svg>
