<svg id="Layer_1" data-name="Layer 1" xmlns="http://www.w3.org/2000/svg" width="65" height="65" viewBox="0 0 65 65">
  <title>news</title>
  <path d="M63.8698,32.11471A31.241,31.241,0,0,1,53.35617,55.55654q-.69868.61313-1.4259,1.19777a32.68616,32.68616,0,0,1-3.888,2.61415,31.41105,31.41105,0,0,1-30.115.53233L7.89847,64.17849a.95581.95581,0,0,1-1.32135-.98866L7.87,52.45758l.095-.79853a32.53237,32.53237,0,0,1-2.45256-3.5362v-.00952a31.25955,31.25955,0,0,1-3.58372-8.8976v-.00952c-.11413-.5133-.21868-1.01715-.3042-1.54a27.4786,27.4786,0,0,1-.38026-2.96587c-.057-.63689-.095-1.28334-.10455-1.93926-.00952-.2091-.00952-.42772-.00952-.6464a31.69976,31.69976,0,0,1,1.60652-9.96227A31.39045,31.39045,0,0,1,54.35428,9.60451a30.73236,30.73236,0,0,1,3.4982,4.04005,29.11148,29.11148,0,0,1,2.367,3.7644v.00952A30.9908,30.9908,0,0,1,63.347,26.43015c.08552.46578.16159.94108.22813,1.41638A30.176,30.176,0,0,1,63.8698,32.11471Z" style="fill: #5b1818"/>
  <polygon points="56.568 42.885 7.989 42.885 8.955 31.844 57.534 31.844 56.568 42.885" style="fill: #fff"/>
  <polygon points="36.363 34.052 6.553 34.052 7.423 24.115 37.233 24.115 36.363 34.052" style="fill: #d5771b"/>
  <g>
    <path d="M13.90283,29.1543c-.00391.043-.00781.09082-.01318.14209-.00586.05176-.01025.09131-.0127.11963l-.19189,2.05078h-.82129l.18262-1.94385.00684-.07764c.00244-.02832.00488-.05566.0083-.08057.00391-.02637.00586-.04785.00732-.06543l.00244-.0293a3.22615,3.22615,0,0,0-.02246-.8335,1.55253,1.55253,0,0,0-.2417-.63232,1.17354,1.17354,0,0,0-.48242-.40186,1.781,1.781,0,0,0-.74658-.14014,2.4378,2.4378,0,0,0-.73633.11084,1.86968,1.86968,0,0,0-.62646.34131,1.85067,1.85067,0,0,0-.45557.57813,2.15689,2.15689,0,0,0-.22217.81934,2.396,2.396,0,0,0,.00732.51758,1.64921,1.64921,0,0,0,.124.45508,1.32964,1.32964,0,0,0,.24219.37158,1.28813,1.28813,0,0,0,.36084.27051l.01416-.0166a1.03953,1.03953,0,0,1-.11816-.28613.8919.8919,0,0,1-.022-.28662.84138.84138,0,0,1,.11768-.36426,1.04274,1.04274,0,0,1,.25781-.28857,1.24807,1.24807,0,0,1,.36328-.19287,1.34252,1.34252,0,0,1,.43506-.06885,1.17107,1.17107,0,0,1,.42578.07568.94626.94626,0,0,1,.33838.21777.91334.91334,0,0,1,.21289.34668,1.08828,1.08828,0,0,1,.04883.459,1.28776,1.28776,0,0,1-.13965.48828,1.18873,1.18873,0,0,1-.3208.38525,1.49211,1.49211,0,0,1-.48877.252,2.14273,2.14273,0,0,1-.64844.09082,2.3048,2.3048,0,0,1-.70605-.10059,1.867,1.867,0,0,1-.55273-.27588,1.7964,1.7964,0,0,1-.40723-.41553,2.15789,2.15789,0,0,1-.26709-.51758,2.59149,2.59149,0,0,1-.13281-.58105,2.96473,2.96473,0,0,1-.0083-.60693,2.78509,2.78509,0,0,1,.16455-.74512,2.59946,2.59946,0,0,1,.33789-.62549,2.64839,2.64839,0,0,1,.48438-.502,2.88018,2.88018,0,0,1,.60156-.36865,3.32149,3.32149,0,0,1,.69189-.22705,3.70279,3.70279,0,0,1,.75977-.07666,2.83908,2.83908,0,0,1,1.0498.17822,1.74955,1.74955,0,0,1,.72363.51074,1.89663,1.89663,0,0,1,.374.84033A4.07181,4.07181,0,0,1,13.90283,29.1543Zm-2.34326,1.20361a.32.32,0,0,0-.02-.15576.30024.30024,0,0,0-.08008-.10791.33088.33088,0,0,0-.12061-.06543.50817.50817,0,0,0-.14648-.021.46555.46555,0,0,0-.16943.02881.395.395,0,0,0-.12939.082.35853.35853,0,0,0-.08643.11768.37654.37654,0,0,0-.03809.13721.44833.44833,0,0,0,.042.22363.40007.40007,0,0,0,.15869.18115.78278.78278,0,0,0,.42041-.12842A.39063.39063,0,0,0,11.55957,30.35791Z" style="fill: #fff"/>
    <path d="M18.29688,28.36816l-.06689.7666h1.35156l-.06738.76953H18.1626l-.00928.10742a1.9074,1.9074,0,0,1-.09033.43945,1.77755,1.77755,0,0,1-.17871.37842,1.449,1.449,0,0,1-.57275.52051,1.68062,1.68062,0,0,1-.45947.14795,2.95216,2.95216,0,0,1-.47314.04,2.23087,2.23087,0,0,1-.67725-.0957,1.38115,1.38115,0,0,1-.50146-.27148,1.071,1.071,0,0,1-.2998-.42383,1.20525,1.20525,0,0,1-.07031-.54785,1.15861,1.15861,0,0,1,.23438-.62646,1.08811,1.08811,0,0,1,.57666-.36377l.14111-1.61426h3.99219l-.06738.77344Zm-.959,1.52637H16.1377a.823.823,0,0,0-.15625.01465.40206.40206,0,0,0-.13525.05176.31148.31148,0,0,0-.09961.09912.34071.34071,0,0,0-.04785.15479.44952.44952,0,0,0,.0293.20215.45746.45746,0,0,0,.127.17822.66468.66468,0,0,0,.23291.12744,1.077,1.077,0,0,0,.34814.04883.95631.95631,0,0,0,.62256-.19287.81342.81342,0,0,0,.27148-.58936Zm.13379-1.52637H16.5332l-.06689.7666h.93848Z" style="fill: #fff"/>
    <path d="M22.71338,31.4668l.03662-.42041h-.0166a1.29533,1.29533,0,0,1-.45557.36426,1.37851,1.37851,0,0,1-.6001.12744,1.49994,1.49994,0,0,1-.24023-.01953,1.38518,1.38518,0,0,1-.22656-.05664,1.05168,1.05168,0,0,1-.20117-.09326.82246.82246,0,0,1-.16211-.13135.73865.73865,0,0,1-.124-.17627.92232.92232,0,0,1-.08105-.23828,1.72607,1.72607,0,0,1-.03418-.312,3.27421,3.27421,0,0,1,.01367-.40186l.21973-2.51416h.82227l-.2085,2.3877c-.00879.09912-.01416.18359-.01465.25391a1.1087,1.1087,0,0,0,.00977.17773.54271.54271,0,0,0,.0332.12256.32684.32684,0,0,0,.0542.08594.4384.4384,0,0,0,.16064.10693.6198.6198,0,0,0,.24023.042.836.836,0,0,0,.26953-.04395.7853.7853,0,0,0,.23389-.12451.712.712,0,0,0,.17041-.189.55317.55317,0,0,0,.07715-.24121l.2251-2.57812h.82227l-.271,3.09863h2.083l.271-3.09863h.82129l-.33838,3.87207Z" style="fill: #fff"/>
    <path d="M23.21387,26.35645a.64472.64472,0,0,1,.07275-.249.74579.74579,0,0,1,.15137-.20215.71086.71086,0,0,1,.21143-.13623.64544.64544,0,0,1,.25146-.0498.59223.59223,0,0,1,.24463.0498.55159.55159,0,0,1,.18994.13623.558.558,0,0,1,.11816.20215.58405.58405,0,0,1,.02881.249.63513.63513,0,0,1-.07178.24414.73573.73573,0,0,1-.15332.20068.71012.71012,0,0,1-.21436.13525.64425.64425,0,0,1-.25293.05029.578.578,0,0,1-.24316-.05029.54678.54678,0,0,1-.187-.13525.5948.5948,0,0,1-.11621-.20068A.56734.56734,0,0,1,23.21387,26.35645Z" style="fill: #fff"/>
    <path d="M31.34766,28.36816l-.06689.7666h.25293a2.16753,2.16753,0,0,1,.70166.10156,1.18357,1.18357,0,0,1,.481.29639,1.0839,1.0839,0,0,1,.26123.47412,1.85622,1.85622,0,0,1,.04395.63818,2.06107,2.06107,0,0,1-.22852.80518,1.75453,1.75453,0,0,1-.52295.5957,2.41978,2.41978,0,0,1-.80859.36865A4.23158,4.23158,0,0,1,30.375,32.541h-.35254c-.123,0-.24609-.001-.36865-.002l-.35547-.00293q-.17139-.00146-.30908-.00293c-.09082-.002-.168-.002-.23047-.002h-.12012a1.04732,1.04732,0,0,0-.18555.0127.339.339,0,0,0-.10693.03662.12925.12925,0,0,0-.0498.05566.23307.23307,0,0,0-.01562.06885.37177.37177,0,0,0,.00342.10254.55137.55137,0,0,0,.03906.11182h-.73437a1.123,1.123,0,0,1-.04346-.20557,1.034,1.034,0,0,1-.00146-.20215.80568.80568,0,0,1,.09326-.33154.63915.63915,0,0,1,.20361-.21729.92185.92185,0,0,1,.29541-.11963,1.72965,1.72965,0,0,1,.36865-.03711h.165c.08789,0,.19531.001.32031.002q.18677.00146.40186.00293l.4126.00293c.13086.002.248.002.35059.002h.21484c.08008,0,.14746-.001.20459-.00293q.0835-.00293.14795-.00879c.04248-.00244.07861-.00537.11035-.00928.03125-.00293.063-.00684.09375-.01074a2.29938,2.29938,0,0,0,.52246-.13623,1.2072,1.2072,0,0,0,.37012-.22949.99265.99265,0,0,0,.228-.32324,1.32772,1.32772,0,0,0,.10156-.42139.96773.96773,0,0,0-.03906-.4375.512.512,0,0,0-.1709-.2334.50373.50373,0,0,0-.23389-.0918,1.888,1.888,0,0,0-.23242-.0166h-.25879l-.00977.11719a1.8214,1.8214,0,0,1-.09033.4375,1.66629,1.66629,0,0,1-.1792.37549,1.53562,1.53562,0,0,1-.25586.30078,1.46781,1.46781,0,0,1-.31885.21875,1.72261,1.72261,0,0,1-.45752.1499,2.63844,2.63844,0,0,1-.47168.04395,2.23087,2.23087,0,0,1-.67725-.0957,1.38115,1.38115,0,0,1-.50146-.27148,1.071,1.071,0,0,1-.2998-.42383,1.20525,1.20525,0,0,1-.07031-.54785,1.07772,1.07772,0,0,1,.32568-.72168,1.51721,1.51721,0,0,1-.24023-.291,1.86884,1.86884,0,0,1-.18213-.37061,2.05551,2.05551,0,0,1-.10742-.43506,2.07724,2.07724,0,0,1-.01172-.48145,2.10892,2.10892,0,0,1,.3208-.96387,2.39453,2.39453,0,0,1,.74463-.73291,3.74792,3.74792,0,0,1,1.12012-.46582,5.90208,5.90208,0,0,1,1.44385-.16357,5.1779,5.1779,0,0,1,1.61475.22754,2.36682,2.36682,0,0,1,1.0918.70459,2.19972,2.19972,0,0,1,.45313.96484,4.57685,4.57685,0,0,1,.05762,1.37012c-.00391.04346-.00977.09814-.0166.165-.00684.06641-.0127.13232-.01855.1958-.00488.063-.01074.12061-.0166.16943-.00488.04932-.00879.07764-.00879.08447l-.19922,2.01172h-.82129l.19531-1.94092c.00293-.02979.00684-.06885.0127-.11768.00488-.04834.01074-.09814.01465-.14795.00391-.04932.00879-.09521.01172-.13721l.00879-.09229q.03076-.36475.02832-.66748a3.45309,3.45309,0,0,0-.04492-.54932,2.08132,2.08132,0,0,0-.12793-.4458,1.316,1.316,0,0,0-.2207-.35205,1.77877,1.77877,0,0,0-.83154-.50586,4.45043,4.45043,0,0,0-1.32812-.17041,5.33745,5.33745,0,0,0-1.11084.105,2.8326,2.8326,0,0,0-.83594.30762,1.62359,1.62359,0,0,0-.54541.49512,1.39058,1.39058,0,0,0-.22949.66748,1.56272,1.56272,0,0,0,.05615.57764,1.25505,1.25505,0,0,0,.103.25.92131.92131,0,0,0,.145.20459l.11816-1.35254h3.97559l-.06738.77344Zm-.958,1.52637h-1.2002a.823.823,0,0,0-.15625.01465.39424.39424,0,0,0-.13525.05176.31148.31148,0,0,0-.09961.09912.34071.34071,0,0,0-.04785.15479.44952.44952,0,0,0,.0293.20215.45746.45746,0,0,0,.127.17822.66468.66468,0,0,0,.23291.12744,1.077,1.077,0,0,0,.34814.04883.95815.95815,0,0,0,.62256-.19287.81342.81342,0,0,0,.27148-.58936Zm.13379-1.52637H29.585l-.06689.7666h.93848Z" style="fill: #fff"/>
  </g>
  <g>
    <path d="M9.94189,40.42676a.95545.95545,0,0,1-.34229-.05859.75982.75982,0,0,1-.26611-.16406.66588.66588,0,0,1-.167-.26758.86042.86042,0,0,1-.03662-.36035.95937.95937,0,0,1,.09521-.35059.83386.83386,0,0,1,.21289-.27051.95813.95813,0,0,1,.32275-.1748,1.38569,1.38569,0,0,1,.42432-.06152h.92773a1.73227,1.73227,0,0,0,.87354-.17969.7243.7243,0,0,0,.34082-.60547.86852.86852,0,0,0-.03613-.36621.59136.59136,0,0,0-.17285-.25781.78625.78625,0,0,0-.29932-.15137,1.53837,1.53837,0,0,0-.40967-.0498c-.043,0-.07812.001-.105.00293-.02734.002-.05176.00391-.07373.00684l-.001.00977a.60571.60571,0,0,1,.23242.2793.6911.6911,0,0,1,.04639.30957.72784.72784,0,0,1-.1001.30762.87655.87655,0,0,1-.23291.26074,1.167,1.167,0,0,1-.34863.18164,1.38335,1.38335,0,0,1-.44775.06738,1.31269,1.31269,0,0,1-.41992-.0625A.90933.90933,0,0,1,9.6416,38.293a.69067.69067,0,0,1-.19385-.27637.78582.78582,0,0,1-.04639-.36133.96185.96185,0,0,1,.18115-.48535,1.42023,1.42023,0,0,1,.42187-.38086,2.22784,2.22784,0,0,1,.62061-.249,3.20786,3.20786,0,0,1,.78027-.08789,2.73251,2.73251,0,0,1,.8125.10742,1.51982,1.51982,0,0,1,.5708.30957,1.14079,1.14079,0,0,1,.32471.4834,1.49237,1.49237,0,0,1,.06982.63281,1.59855,1.59855,0,0,1-.17432.61523,1.37568,1.37568,0,0,1-.39258.46289,1.84528,1.84528,0,0,1-.59619.291,2.76912,2.76912,0,0,1-.78418.10254h-.9375a.96087.96087,0,0,0-.22607.02051c-.05518.01465-.084.043-.08789.085-.00635.07129.07373.10742.24072.10742h5.65723l-.06641.75684Zm.854-2.84961a.24245.24245,0,0,0-.08154-.21973.41213.41213,0,0,0-.2334-.09766.48.48,0,0,0-.23877.10742.30024.30024,0,0,0-.11279.21289.25154.25154,0,0,0,.0708.207.31172.31172,0,0,0,.23682.084.37414.37414,0,0,0,.24951-.08105A.29615.29615,0,0,0,10.7959,37.57715Z"/>
    <path d="M20.10449,37.32813l-.06689.7666H20.312a2.18108,2.18108,0,0,1,.70313.10156,1.17677,1.17677,0,0,1,.48.29688,1.08156,1.08156,0,0,1,.26123.47363,1.82917,1.82917,0,0,1,.04492.6377,2.07019,2.07019,0,0,1-.23.80566,1.75762,1.75762,0,0,1-.52246.5957,2.4046,2.4046,0,0,1-.80859.36816,4.21167,4.21167,0,0,1-1.08643.127h-.35059c-.12207,0-.24316-.001-.3623-.002l-.34717-.00293c-.1123-.001-.21289-.002-.30078-.00293-.08838-.002-.16357-.002-.2251-.002h-.11719a1.04232,1.04232,0,0,0-.186.0127.30742.30742,0,0,0-.10645.03711.12949.12949,0,0,0-.05078.05469.249.249,0,0,0-.01562.06934.37.37,0,0,0,.00439.10254.463.463,0,0,0,.03809.11133H16.3999a1.13711,1.13711,0,0,1-.04248-.20508.99685.99685,0,0,1-.002-.20215.81557.81557,0,0,1,.09375-.332.62643.62643,0,0,1,.20313-.2168.8823.8823,0,0,1,.29492-.11914,1.7349,1.7349,0,0,1,.36816-.03711h.16406c.08691,0,.19141.001.31348.002s.25293.002.39453.00293l.40576.00293c.12891.002.24414.002.34473.002h.21191c.0791,0,.14746-.001.20313-.00293.05713-.002.106-.00488.14844-.00879.042-.00293.07861-.00586.11133-.00977.03027-.00293.062-.00684.09229-.01074a2.27771,2.27771,0,0,0,.52295-.13672,1.17184,1.17184,0,0,0,.36963-.22949.958.958,0,0,0,.22852-.32324,1.33122,1.33122,0,0,0,.10205-.4209.96591.96591,0,0,0-.03955-.4375.52113.52113,0,0,0-.16992-.2334.5091.5091,0,0,0-.23535-.0918,1.87238,1.87238,0,0,0-.231-.0166h-.28125l-.01025.11719a1.88953,1.88953,0,0,1-.08984.4375,1.71589,1.71589,0,0,1-.18066.376,1.51557,1.51557,0,0,1-.25586.2998,1.41211,1.41211,0,0,1-.31885.21875,1.7121,1.7121,0,0,1-.45752.15039,2.62492,2.62492,0,0,1-.47119.04395,2.22861,2.22861,0,0,1-.67725-.0957,1.39077,1.39077,0,0,1-.502-.27148,1.0724,1.0724,0,0,1-.2998-.42383,1.21962,1.21962,0,0,1-.07031-.54785,1.16213,1.16213,0,0,1,.23486-.627,1.0895,1.0895,0,0,1,.57666-.36328l.14111-1.61426h3.99219l-.06787.77344Zm-.9585,1.52637H17.9458a.82819.82819,0,0,0-.15674.01465.41018.41018,0,0,0-.13525.05176.32317.32317,0,0,0-.09961.09961.33474.33474,0,0,0-.04736.1543.44253.44253,0,0,0,.02881.20215.45525.45525,0,0,0,.12744.17773.65651.65651,0,0,0,.23291.12793,1.077,1.077,0,0,0,.34814.04883.95146.95146,0,0,0,.62207-.19336.80775.80775,0,0,0,.27148-.58887Zm.1333-1.52637h-.93848l-.06689.7666h.93848Z"/>
    <path d="M25.25,36.45215a2.38214,2.38214,0,0,1,.87451.14648,1.732,1.732,0,0,1,.625.40527,1.55609,1.55609,0,0,1,.35693.6084,1.92587,1.92587,0,0,1,.07422.75391,3.22446,3.22446,0,0,1-.12109.62988,2.7098,2.7098,0,0,1-.29785.65723H28.2041l.15283-1.74609a1.52809,1.52809,0,0,1-.68066-.15918A1.1813,1.1813,0,0,1,27.252,37.377a1.329,1.329,0,0,1-.2085-.50684,2.02213,2.02213,0,0,1-.02881-.55762,1.89375,1.89375,0,0,1,.21387-.74219,1.85736,1.85736,0,0,1,.46-.55859,2.042,2.042,0,0,1,.647-.35156,2.38717,2.38717,0,0,1,.77539-.124,2.02279,2.02279,0,0,1,.8042.15039,1.49415,1.49415,0,0,1,.57373.42969,1.67382,1.67382,0,0,1,.32373.67383,2.68973,2.68973,0,0,1,.05518.8877l-.32812,3.749h-.8252l.31689-3.623a2.50862,2.50862,0,0,0-.01953-.69043,1.16,1.16,0,0,0-.19043-.4668.77328.77328,0,0,0-.34131-.26367,1.24783,1.24783,0,0,0-.47119-.083,1.49252,1.49252,0,0,0-.44727.06543,1.13968,1.13968,0,0,0-.374.19141,1.00415,1.00415,0,0,0-.26758.32227,1.15422,1.15422,0,0,0-.12744.45313,1.17193,1.17193,0,0,0,.01416.31836.699.699,0,0,0,.10547.25781.57076.57076,0,0,0,.20313.17578.78134.78134,0,0,0,.30664.0791l.05322-.6084h.82129l-.33887,3.87207H25.65869l.06006-.68555a2.088,2.088,0,0,0,.40137-.59082,2.04345,2.04345,0,0,0,.17725-.66113,1.56429,1.56429,0,0,0-.03076-.47949.96755.96755,0,0,0-.56982-.68652,1.38489,1.38489,0,0,0-.57275-.10449,1.5768,1.5768,0,0,0-.53223.08008,1.54918,1.54918,0,0,0-.39795.20508,1.3187,1.3187,0,0,0-.28174.27637,1.92566,1.92566,0,0,0-.1792.293,1.62244,1.62244,0,0,0-.09814.252,1.06508,1.06508,0,0,0-.03467.16113l.01953.00293a1.50828,1.50828,0,0,1,.34326-.19629,1.14657,1.14657,0,0,1,.4375-.082,1.069,1.069,0,0,1,.38867.07129.83752.83752,0,0,1,.50684.543,1.16466,1.16466,0,0,1,.042.459,1.35372,1.35372,0,0,1-.14111.50781,1.30141,1.30141,0,0,1-.29492.38086,1.28571,1.28571,0,0,1-.40771.24121,1.39752,1.39752,0,0,1-.48193.084,1.178,1.178,0,0,1-.58936-.14453,1.20917,1.20917,0,0,1-.42139-.39258,1.68584,1.68584,0,0,1-.23828-.584,2.383,2.383,0,0,1-.03857-.71973,2.43093,2.43093,0,0,1,.25977-.92578,2.28694,2.28694,0,0,1,.55518-.69434,2.40348,2.40348,0,0,1,.77637-.43555A2.85472,2.85472,0,0,1,25.25,36.45215Zm-.75,2.875a.35443.35443,0,0,0-.08691-.28809.36569.36569,0,0,0-.28223-.10937.51108.51108,0,0,0-.17773.03027.56782.56782,0,0,0-.15186.084.43952.43952,0,0,0-.10986.12793.40659.40659,0,0,0-.04932.165.35124.35124,0,0,0,.021.16211.39654.39654,0,0,0,.084.12988.3736.3736,0,0,0,.1333.08789.44519.44519,0,0,0,.57373-.22168A.4614.4614,0,0,0,24.5,39.32715Z"/>
    <path d="M34.01074,40.42676l.03613-.41992h-.0166a1.28985,1.28985,0,0,1-.45508.36328,1.37479,1.37479,0,0,1-.6001.12793,1.51066,1.51066,0,0,1-.24072-.01953,1.39779,1.39779,0,0,1-.22656-.05664,1.04877,1.04877,0,0,1-.20068-.09375.80313.80313,0,0,1-.1626-.13086.77047.77047,0,0,1-.124-.17578.91666.91666,0,0,1-.08057-.23828,1.742,1.742,0,0,1-.03418-.3125,3.2819,3.2819,0,0,1,.01367-.40234l.21973-2.51367h.82227l-.209,2.3877c-.0083.09863-.01416.18359-.01416.25391a1.0546,1.0546,0,0,0,.00977.17773.52948.52948,0,0,0,.0332.123.309.309,0,0,0,.0542.085.42921.42921,0,0,0,.16064.10742.61811.61811,0,0,0,.24023.042.83818.83818,0,0,0,.26953-.04395.77882.77882,0,0,0,.2334-.125.69726.69726,0,0,0,.1709-.18848.56177.56177,0,0,0,.07715-.24121l.22559-2.57812h.82227l-.27148,3.09863h2.083l.27148-3.09863h.82129l-.33887,3.87207Z"/>
    <path d="M42.22559,37.32813l-.27051,3.09863h-.8252l.27051-3.09863H39.99023l-.27051,3.09863h-.8252l.33887-3.87207h4.02441l-.06836.77344Z"/>
    <path d="M49.60059,37.32813l-.27051,3.09863h-.8252l.27051-3.09863H47.543l-.27051,3.09863h-.82422l.1709-1.957A1.282,1.282,0,0,0,46.417,37.54a.91989.91989,0,0,0-.76953-.32129,1.254,1.254,0,0,0-.43066.06738,1.191,1.191,0,0,0-.33105.17773,1.17672,1.17672,0,0,0-.24023.248,1.77722,1.77722,0,0,0-.16113.27441,1.45146,1.45146,0,0,0-.0957.26074,1.38656,1.38656,0,0,0-.03906.20313l-.001.01367a.06338.06338,0,0,0,.002.02246l.01855.00293a1.45825,1.45825,0,0,1,.35352-.19629,1.2257,1.2257,0,0,1,.44727-.082,1.069,1.069,0,0,1,.38867.07129.84059.84059,0,0,1,.50684.543,1.17378,1.17378,0,0,1,.042.459,1.3625,1.3625,0,0,1-.14062.50781,1.30428,1.30428,0,0,1-.2959.38086,1.27668,1.27668,0,0,1-.40918.24121,1.40985,1.40985,0,0,1-.4834.084,1.18441,1.18441,0,0,1-.58691-.14258,1.20709,1.20709,0,0,1-.4209-.39258,1.70794,1.70794,0,0,1-.2373-.59277,2.5355,2.5355,0,0,1-.03711-.73828,2.66184,2.66184,0,0,1,.23535-.90723,2.26329,2.26329,0,0,1,.48926-.68652,2.13029,2.13029,0,0,1,.68652-.43457,2.23013,2.23013,0,0,1,.82422-.15137,2.199,2.199,0,0,1,.28906.01855,1.41367,1.41367,0,0,1,.28223.06738,1.26221,1.26221,0,0,1,.2666.13379,1.141,1.141,0,0,1,.24023.21H46.835l.0293-.32715H50.4707l-.06836.77344Zm-4.33105,1.999a.35611.35611,0,0,0-.08691-.28809.365.365,0,0,0-.28223-.10937.51108.51108,0,0,0-.17773.03027.57828.57828,0,0,0-.15234.084.44536.44536,0,0,0-.10937.12793.42279.42279,0,0,0-.0498.165.35789.35789,0,0,0,.02148.16211.38146.38146,0,0,0,.084.12988.376.376,0,0,0,.13281.08789.44544.44544,0,0,0,.57422-.22168A.4614.4614,0,0,0,45.26953,39.32715Z"/>
    <path d="M54.19727,40.4043l-1.77539,1.41992-.48926-.60449,1.46875-1.15918.23926-2.73242H52.2627l-.27051,3.09863H51.167l.33887-3.87207H55.498l-.06836.77344h-.96387Z"/>
    <path d="M52.77539,35.31641a.62772.62772,0,0,1,.07227-.249.74579.74579,0,0,1,.15137-.20215.71328.71328,0,0,1,.21094-.13672.64785.64785,0,0,1,.252-.0498.58994.58994,0,0,1,.24414.0498.566.566,0,0,1,.19043.13672.558.558,0,0,1,.11816.20215.584.584,0,0,1,.02832.249.63442.63442,0,0,1-.07129.24414.73346.73346,0,0,1-.15332.2002.70567.70567,0,0,1-.21387.13574.64423.64423,0,0,1-.25391.05078.56642.56642,0,0,1-.24219-.05078.539.539,0,0,1-.1875-.13574.59258.59258,0,0,1-.11621-.2002A.56721.56721,0,0,1,52.77539,35.31641Z"/>
  </g>
  <path d="M29,46H44a0,0,0,0,1,0,0v0a1,1,0,0,1-1,1H28a0,0,0,0,1,0,0v0A1,1,0,0,1,29,46Z" style="fill: #fff"/>
  <path d="M47,46h4a0,0,0,0,1,0,0v0a1,1,0,0,1-1,1H46a0,0,0,0,1,0,0v0A1,1,0,0,1,47,46Z" style="fill: #fff"/>
</svg>
