<svg id="Layer_1" data-name="Layer 1" xmlns="http://www.w3.org/2000/svg" width="65" height="65" viewBox="0 0 65 65">
  <title>news</title>
  <path d="M63.85,32.115A31.22128,31.22128,0,0,1,53.343,55.542q-.69824.61274-1.425,1.197a32.66553,32.66553,0,0,1-3.88553,2.6125,31.39123,31.39123,0,0,1-30.096.532L7.914,64.1585a.95521.95521,0,0,1-1.32051-.988L7.88553,52.445l.095-.798a32.51184,32.51184,0,0,1-2.451-3.534v-.00951a31.23982,31.23982,0,0,1-3.58146-8.892V39.202c-.11405-.513-.21854-1.01651-.304-1.539a27.46125,27.46125,0,0,1-.38-2.964c-.057-.63648-.095-1.28253-.10449-1.938C1.15,32.552,1.15,32.3335,1.15,32.115a31.67975,31.67975,0,0,1,1.6055-9.956,31.37063,31.37063,0,0,1,51.585-12.54,30.713,30.713,0,0,1,3.496,4.0375,29.0931,29.0931,0,0,1,2.36549,3.762V17.428a30.97124,30.97124,0,0,1,3.12554,9.006c.08547.46549.16148.94049.228,1.41549A30.157,30.157,0,0,1,63.85,32.115Z" style="fill: #e93521"/>
  <g>
    <path d="M42.402,36.60065H10.17715a1.87977,1.87977,0,0,1-1.90231-2.0847l.986-11.27058a2.32086,2.32086,0,0,1,2.26709-2.0847H43.7528a1.87977,1.87977,0,0,1,1.90231,2.0847l-.986,11.27058A2.32086,2.32086,0,0,1,42.402,36.60065Z" style="opacity: 0.2"/>
    <path d="M55.67774,48.73206H17.93863a1.87977,1.87977,0,0,1-1.90231-2.0847l.79307-9.06487a2.32086,2.32086,0,0,1,2.26709-2.0847h37.7391a1.87977,1.87977,0,0,1,1.90231,2.0847l-.79307,9.06487A2.32086,2.32086,0,0,1,55.67774,48.73206Z" style="opacity: 0.2"/>
    <path d="M53.665,46.52634H17.02875a1.87977,1.87977,0,0,1-1.90231-2.0847L16.016,34.27392a2.32086,2.32086,0,0,1,2.26709-2.0847H54.91934a1.87977,1.87977,0,0,1,1.90231,2.0847l-.88956,10.16772A2.32086,2.32086,0,0,1,53.665,46.52634Z" style="fill: #fff"/>
    <path d="M40.38924,34.39494H8.16441a1.87977,1.87977,0,0,1-1.90231-2.0847l.986-11.27058A2.32086,2.32086,0,0,1,9.51524,18.955H41.74007a1.87977,1.87977,0,0,1,1.90231,2.0847l-.986,11.27058A2.32086,2.32086,0,0,1,40.38924,34.39494Z"/>
    <g>
      <path d="M26.09277,37.07813h-2.2041l-.5249,6.168h-1.4834l.5249-6.168h-2.1748l.105-1.23535h5.8623Z"/>
      <path d="M27.82568,43.24609H26.39307l.46826-5.502h1.43262Zm-.92725-6.9248a.79754.79754,0,0,1,.26074-.54395.85517.85517,0,0,1,.60449-.21484.73168.73168,0,0,1,.56445.21484.674.674,0,0,1,.1709.54395.80069.80069,0,0,1-.2666.54883.86121.86121,0,0,1-.59814.21387.73562.73562,0,0,1-.563-.21387A.678.678,0,0,1,26.89844,36.32129Z"/>
      <path d="M30.78613,37.74414l-.00928.63574a2.02323,2.02323,0,0,1,1.59961-.73633,1.40252,1.40252,0,0,1,1.22119.5127,2.30448,2.30448,0,0,1,.29395,1.53516l-.30273,3.55469H32.16162l.29932-3.51855a.9106.9106,0,0,0-.14062-.67871.80615.80615,0,0,0-.63916-.21191,1.08236,1.08236,0,0,0-.94922.5293l-.33008,3.87988H28.97314l.46826-5.502Z"/>
      <path d="M39.48633,36.3916l-.11523,1.35254h.91406l-.0918,1.07813H39.2793l-.2334,2.74609a.63389.63389,0,0,0,.07617.4375.52193.52193,0,0,0,.42383.13184,2.20244,2.20244,0,0,0,.42285-.03613L39.874,43.21582a2.97777,2.97777,0,0,1-.876.13281q-1.50293,0-1.39941-1.5625l.252-2.96387h-.78027l.0918-1.07812h.78027l.11523-1.35254Z"/>
      <path d="M47.17188,37.26172a2.35619,2.35619,0,0,1-.46973,1.37012,1.71634,1.71634,0,0,1-1.15527.52637l-.34766,4.08789H43.85547l.00684-.55957a1.93332,1.93332,0,0,1-1.51855.66211,1.53371,1.53371,0,0,1-1.26855-.50879,2.0783,2.0783,0,0,1-.33594-1.49023l.30664-3.60547h1.42871l-.30273,3.55859q-.07324.85986.6875.86035a1.12507,1.12507,0,0,0,1.043-.51953l.332-3.89941H45.667l-.06055.707a.76278.76278,0,0,0,.5-.31543,2.04042,2.04042,0,0,0,.21-.874Zm-3.31836-1.72461h1.55664l-1.50293,1.57715H42.74609Z"/>
      <path d="M49.10156,42.16309a.99861.99861,0,0,0,.66211-.22363.8696.8696,0,0,0,.30664-.59473h1.33984a2.0659,2.0659,0,0,1-.38379,1.02441,2.24463,2.24463,0,0,1-.85937.72266,2.593,2.593,0,0,1-1.14062.25684,2.10022,2.10022,0,0,1-1.74609-.751,2.835,2.835,0,0,1-.48535-2.07227l.00781-.09668a3.237,3.237,0,0,1,.83008-2.02832,2.4658,2.4658,0,0,1,1.86816-.75684,2.04458,2.04458,0,0,1,1.55957.58691,1.957,1.957,0,0,1,.48145,1.56348H50.20215a.95359.95359,0,0,0-.19727-.69824.77468.77468,0,0,0-.62988-.26855.93524.93524,0,0,0-.78516.375,2.36621,2.36621,0,0,0-.35742,1.21387l-.0127.15332a2.15075,2.15075,0,0,0,.14746,1.22168A.78588.78588,0,0,0,49.10156,42.16309Z"/>
    </g>
    <g>
      <path d="M18.042,23.50391h-2.2041l-.52441,6.168h-1.4834l.52441-6.168h-2.1748l.105-1.23486H18.147Z" style="fill: #fff"/>
      <path d="M21.30273,25.54834a3.6736,3.6736,0,0,0-.51025-.041,1.14428,1.14428,0,0,0-1.11133.56445l-.30615,3.6001H17.94727l.46777-5.50146h1.34863l-.01562.65576a1.46072,1.46072,0,0,1,1.25586-.75684,1.4184,1.4184,0,0,1,.43848.06494Z" style="fill: #fff"/>
      <path d="M21.55176,26.87061a3.52452,3.52452,0,0,1,.43311-1.46436,2.58294,2.58294,0,0,1,.97168-.98975,2.69938,2.69938,0,0,1,1.36377-.34717,2.15773,2.15773,0,0,1,1.7959.78711.82062.82062,0,0,0,.3457-.45459,3.16638,3.16638,0,0,0,.14258-.74512h.87012a1.94594,1.94594,0,0,1-1.02734,1.79053,3.206,3.206,0,0,1,.16992,1.42334l-.00928.106a3.5368,3.5368,0,0,1-.43311,1.46436,2.57668,2.57668,0,0,1-.96387.98682,2.68594,2.68594,0,0,1-1.36621.34668,2.19945,2.19945,0,0,1-1.73389-.70752,2.60368,2.60368,0,0,1-.5791-1.90625Zm1.39063,4.0376a.71236.71236,0,0,1,.26563-.50488.90229.90229,0,0,1,.59033-.19727.77905.77905,0,0,1,.561.19727.59562.59562,0,0,1,.17969.50488.723.723,0,0,1-.26221.50293.89263.89263,0,0,1-.59863.20313.753.753,0,0,1-.56055-.20312A.61243.61243,0,0,1,22.94238,30.9082Zm.03418-3.93359a1.99307,1.99307,0,0,0,.18408,1.19873.8508.8508,0,0,0,.78467.41553,1.01889,1.01889,0,0,0,.8457-.4126,2.485,2.485,0,0,0,.39844-1.30859,2.00336,2.00336,0,0,0-.186-1.189.844.844,0,0,0-.78418-.42529,1.01593,1.01593,0,0,0-.84619.42041A2.48929,2.48929,0,0,0,22.97656,26.97461Z" style="fill: #fff"/>
      <path d="M31.45508,29.67188H30.02246l.66406-7.80957h1.43262Z" style="fill: #fff"/>
      <path d="M34.80469,27.59277,36.085,24.17041h1.53223l-2.69141,6.356-.14258.29a1.81073,1.81073,0,0,1-1.67383,1.07813,2.10241,2.10241,0,0,1-.624-.09766l.09473-1.11328.21729.00488a1.20551,1.20551,0,0,0,.61572-.127.9265.9265,0,0,0,.34961-.42139l.20605-.45264-1.40332-5.51709h1.53711Zm.79883-5.73047h1.55762l-1.50391,1.57617H34.49512Z" style="fill: #fff"/>
    </g>
  </g>
</svg>
