<svg id="Layer_1" data-name="Layer 1" xmlns="http://www.w3.org/2000/svg" width="65" height="65" viewBox="0 0 65 65">
  <title>logo</title>
  <path d="M60.92611,33.55437a28.56436,28.56436,0,0,1-10.74218,18.625l-.858.64447a26.5376,26.5376,0,0,1-5.58644,3.16588,13.84477,13.84477,0,0,0-1.45737.70961L29.52924,63.98292a1.02842,1.02842,0,0,1-1.42988-1.353l2.218-4.43593c-.59238-.03421-1.18475-.10255-1.78846-.1823A28.70316,28.70316,0,1,1,60.92611,33.55437Z" style="fill: #354395"/>
  <circle cx="32.5" cy="29.5" r="24.7" style="fill: #fff"/>
  <g>
    <path d="M32.43531,25.42879a8.90478,8.90478,0,0,1,1.58144-.70446,12.255,12.255,0,0,1,1.26515-.23c.25878-.07188,1.73958-.44568,2.24277-.57507a10.32292,10.32292,0,0,1,1.96961-.28753c.79072-.05751,1.9121-.14377,2.45842-.15814a19.6132,19.6132,0,0,1,2.41529.02875c.6757.07188.6182.04313.77634.15814.14377.115.21565.08626.23.04313.02875-.02875-.14377-.115-.14377-.115s.2444.04313.47443.08626c.2444.05751.4313.05751.50318.08626.07188.01438.05751.08626.12939.08626a1.6088,1.6088,0,0,1,.53194.05751c.20127.07188.33066.04313.41692.08626.08626.02875.08626.08626.15814.08626s.05751-.04313.1869,0c.115.04313.3738.08626.647.1869a4.51989,4.51989,0,0,1,.57507.1869c.15814.05751.24441.20127.31629.21565,0,0-.1869,0-.3738-.01438-.1869-.02875-.70446-.04313-.79072-.05751-.14377-.01438-.30191-.15814-.53194-.20127-.21565-.02875-.27316.08626-.41692.08626s-.04313-.14377-.25878-.12939c-.20127.01438-.27316.02875-.33066.02875-.02875,0,.01438.08626-.01438.10064-.02875,0-.53194-.01438-.66133-.02875a3.16832,3.16832,0,0,0-.647-.14377,2.81653,2.81653,0,0,0-.83385.10064,9.5492,9.5492,0,0,1-1.42329.04313,25.03833,25.03833,0,0,0-2.50155.33066c-.74759.14377-1.02075.07188-1.61019.20127a9.12592,9.12592,0,0,1-1.03512.20127,7.94447,7.94447,0,0,0-1.337.47443,2.41217,2.41217,0,0,1-.93449.1869c-.20127,0-.33066-.07188-.58945-.07188s-.96324.15814-.96324.40255a1.06292,1.06292,0,0,0-.27316.04313,3.78034,3.78034,0,0,0-.647.21565.67619.67619,0,0,1-.46005-.01438.28552.28552,0,0,0-.21565.01438.1402.1402,0,0,0-.02875-.115.547.547,0,0,1-.15814-.31629.71712.71712,0,0,1,.30191-.57507Z" style="fill: #f37321"/>
    <path d="M50.895,26.60768a1.46693,1.46693,0,0,1,.31629.21565s.05751.02875-.33066-.05751c-.17252-.02875-.71884-.07188-.8051-.08626-.25878-.04313-.38817-.1869-.53194-.21565a.98647.98647,0,0,0-.40255.07188c-.17252-.01438-.02876-.12939-.21565-.12939a1.58821,1.58821,0,0,1-.345.01438c-.04313,0-.02875.10064-.05751.10064a4.21631,4.21631,0,0,1-.647-.05751,5.24676,5.24676,0,0,0-.70446-.15814,2.94127,2.94127,0,0,0-.81947.08626c-.31629.04313-.8051-.02875-1.452-.01438s-1.78271.10064-2.55905.20127-1.03512.02875-1.65332.12939c-.6182.08626-.762.115-1.06388.14377a8.84268,8.84268,0,0,0-1.38016.38817,2.601,2.601,0,0,1-.96324.12939c-.20127,0-.33066-.07188-.58945-.08626-.27316,0-1.0495.10064-1.03512.345a1.565,1.565,0,0,0-.27316.02875,3.76944,3.76944,0,0,0-.60382.15814.57861.57861,0,0,1-.46005-.02875c-.04313-.01438-.17252-.02875-.21565.01438,0,0,.01438-.07188-.02875-.10064a.50478.50478,0,0,1-.15814-.28753.61231.61231,0,0,1,.345-.53194,7.88046,7.88046,0,0,1,1.62457-.58945c.53194-.14377.762-.05751,1.27953-.15814.27316-.04313,1.79709-.345,2.31465-.46005a14.205,14.205,0,0,1,2.01274-.17252c.81947-.02875,1.95523-.08626,2.51592-.08626s1.84022.02875,2.5303.10064c.69008.08626.6182.07188.77634.17252s.27316.08626.30191.04313c.02875-.02875-.12939-.10064-.12939-.10064s.12939.04313.35942.10064c.2444.05751.51756.08626.58945.115s.05751.08626.12939.10064a1.42626,1.42626,0,0,1,.44568.04313,3.94844,3.94844,0,0,0,.4313.10064c.08626.02875.08626.08626.15814.08626s.05751-.02875.1869.01438c.115.04313.30191.08626.58945.17252.07188.02875.24441.10064.28753.115.04312.07188.17251.08626.23.12939Z" style="fill: #449d46"/>
    <path d="M49.673,24.60932c.01438.02875,0,.07188.02876.07188a.18235.18235,0,0,1,.08626.01438c.02876.01438.02876,0,.04313.02875s.02876.02875.07188.02875c.02876-.01438.04313-.04313.02876-.05751-.02876-.01438-.02876-.02875-.07188-.02875-.02876,0-.02876.01438-.05751,0-.02876-.02875-.02876-.02875-.02876-.04313-.02876-.02875-.02876-.02875-.07188-.02875s-.02876.01438-.02876.01438Z" style="fill: #f37321"/>
    <path d="M50.26242,24.85373c.02876.02875-.02876.02875.01438.05751.02876.01438.02876,0,.04313.02875s.02876.02875.04313.02875c.02876,0,.02876.02875.04313-.01438,0-.02875,0-.07188-.02876-.07188-.02876-.01438-.02876.01438-.02876-.01438-.01438-.01438,0-.02875-.02876-.02875-.04312,0-.07187-.01438-.0575.01438Z" style="fill: #f37321"/>
    <path d="M48.62348,24.85373c0,.02875-.01438.04313.01438.07188a.28027.28027,0,0,0,.115.01438.36074.36074,0,0,0,.14376.02875.64814.64814,0,0,0,.15814.04313.42533.42533,0,0,0,.14377.02875c.07188.01438.07188.02875.10064.02875.04313.01438.08626.02875.14377.04313s.07188,0,.12939.01438a.64676.64676,0,0,0,.115.02875.19328.19328,0,0,0,.12939.02875h.07188a.10039.10039,0,0,1-.02876-.05751.1374.1374,0,0,0-.14377-.08626.779.779,0,0,1-.21565-.02875.58973.58973,0,0,1-.15814-.01438c-.02876-.01438-.08626-.02875-.10064-.05751-.02876-.01438-.04313-.04313-.08626-.07188-.02876-.02875-.02876-.05751-.07188-.07188a.84849.84849,0,0,0-.20127-.02875.93928.93928,0,0,0-.20127,0,.15238.15238,0,0,0-.0575.08626Z" style="fill: #f37321"/>
    <path d="M49.96052,25.22752c.05751-.01438.02876-.02875.10064-.02875a.59537.59537,0,0,1,.20127.02875.24977.24977,0,0,1,.17252.04313c.07188.04313.08626.02875.12939.07188.02876.02875.08626.02875.05751.04313a.93864.93864,0,0,1-.15814-.02875.71174.71174,0,0,0-.1869-.05751c-.07188-.01438-.10064-.01438-.15814-.02875a.91634.91634,0,0,1-.12939-.02875c-.02876.01438-.08627-.01438-.02876-.01438Z" style="fill: #f37321"/>
    <path d="M51.38381,25.50068c-.01438.01438.04313.08626.12939.10064.08626.02875.08626.07188.15814.10064a1.00724,1.00724,0,0,0,.14377.115,1.3262,1.3262,0,0,1,.115.07188c.05751.02875.115.07188.14377.04313.01438-.02875,0-.04313-.04313-.08626a2.47474,2.47474,0,0,0-.25878-.1869c-.07188-.04313-.15814-.10064-.21565-.12939-.04313-.01438-.15814-.05751-.17252-.02875Z" style="fill: #f37321"/>
    <path d="M15.58581,29.41114a3.06612,3.06612,0,1,0,0,6.12448,3.01514,3.01514,0,0,0,3.1485-3.06224,3.05783,3.05783,0,0,0-3.1485-3.06224Zm-.04313,4.84495a1.79063,1.79063,0,1,1,1.73958-1.78271,1.75512,1.75512,0,0,1-1.73958,1.78271Z" style="fill: #354395"/>
    <path d="M19.23749,29.52616H20.5889v1.00637a1.82332,1.82332,0,0,1,1.869-1.107c1.50955,0,2.07025.96324,2.07025,2.214v3.78107H23.13358v-3.1485c0-.69008-.1869-1.58144-1.12138-1.58144a1.29981,1.29981,0,0,0-1.337,1.4808v3.206H19.23749V29.52616Z" style="fill: #354395"/>
    <path d="M28.1223,34.38548a1.58821,1.58821,0,0,1-1.62457-1.43767h4.48553a4.55928,4.55928,0,0,0-.21565-1.89773A2.543,2.543,0,0,0,28.25169,29.368a3.03153,3.03153,0,0,0-3.19163,3.06224,3.07356,3.07356,0,0,0,3.206,3.11975,2.99692,2.99692,0,0,0,2.48717-1.17889l-1.03512-.79072a2.04544,2.04544,0,0,1-1.59582.8051ZM28.036,30.475a1.36,1.36,0,0,1,1.50955,1.39454H26.52648A1.52134,1.52134,0,0,1,28.036,30.475Z" style="fill: #354395"/>
    <polygon points="32.464 35.377 31.688 35.377 31.688 29.656 32.464 29.656 32.464 35.377" style="fill: #354395"/>
    <path d="M36.202,30.245c1.63894,0,1.46642,1.7252,1.46642,2.38653v2.746h.79072v-3.551a2.14327,2.14327,0,0,0-.63257-1.81146,2.2538,2.2538,0,0,0-1.4808-.48881,2.39814,2.39814,0,0,0-1.32266.40255,2.30053,2.30053,0,0,0-.66133.647v-.93449h-.79072V35.3631h.77634V32.76092a2.82613,2.82613,0,0,1,.345-1.69645A1.65427,1.65427,0,0,1,36.202,30.245Z" style="fill: #354395"/>
    <path d="M44.3536,27.13962v3.50792a2.81855,2.81855,0,0,0-2.329-1.15014,3.01926,3.01926,0,0,0,.04313,6.03822,2.73134,2.73134,0,0,0,2.30027-1.107v.96324h.77634V27.13962ZM42.154,34.83116a2.30839,2.30839,0,0,1,0-4.61492,2.3268,2.3268,0,0,1,2.25714,2.3434A2.26407,2.26407,0,0,1,42.154,34.83116Z" style="fill: #354395"/>
    <polygon points="47.013 35.377 46.251 35.377 46.251 29.684 47.013 29.684 47.013 35.377" style="fill: #354395"/>
    <path d="M47.21456,27.94472a.61362.61362,0,0,1-.6182.6182.62593.62593,0,0,1-.63257-.6182.62543.62543,0,0,1,1.25077,0Z" style="fill: #354395"/>
    <path d="M32.69409,27.94472a.6182.6182,0,1,1-.6182-.6182.61362.61362,0,0,1,.6182.6182Z" style="fill: #354395"/>
    <path d="M52.51957,33.91105V31.51014a1.80784,1.80784,0,0,0-1.03512-1.76833,3.5043,3.5043,0,0,0-3.436.58944l.47443.58944a2.771,2.771,0,0,1,.96324-.57507c.53194-.17252,1.76833-.21565,2.099.54631a2.38238,2.38238,0,0,1,.1869,1.02075s-1.00637,0-1.46643.02875c-.4313.02875-2.5303.12939-2.5303,2.01274,0,.40255.23,1.56706,2.07024,1.56706a2.11661,2.11661,0,0,0,1.94086-1.0495s.05751.92011.14377.92011l.70446-.02875a6.07644,6.07644,0,0,1-.115-1.452Zm-2.48717.90573c-1.78271,0-1.89772-1.9121-.05751-2.17088a8.09266,8.09266,0,0,1,1.78271-.08626c0,.01438.2444,2.25714-1.7252,2.25714Z" style="fill: #354395"/>
    <path d="M50.67935,26.99586c0,.02875.02876.02875.115.04313a2.42053,2.42053,0,0,1,.345.08626,2.56742,2.56742,0,0,0,.27316.12939c.10064.02875.04313,0-.07188-.07188s-.14377-.05751-.17252-.12939-.04313-.10064-.15814-.10064c-.10064,0-.21565-.01438-.25878-.01438-.01437,0-.07188.01438-.07188.05751Z" style="fill: #449d46"/>
  </g>
</svg>
