<svg id="Layer_1" data-name="Layer 1" xmlns="http://www.w3.org/2000/svg" width="65" height="65" viewBox="0 0 65 65">
  <title>news</title>
  <path d="M60.92611,33.55437a28.56436,28.56436,0,0,1-10.74218,18.625l-.858.64447a26.5376,26.5376,0,0,1-5.58644,3.16588,13.84477,13.84477,0,0,0-1.45737.70961L29.52924,63.98292a1.02842,1.02842,0,0,1-1.42988-1.353l2.218-4.43593c-.59238-.03421-1.18475-.10255-1.78846-.1823A28.70316,28.70316,0,1,1,60.92611,33.55437Z" style="fill: #354395"/>
  <polygon points="56.118 39.517 9.786 39.517 10.799 27.921 57.131 27.921 56.118 39.517" style="fill: #fff"/>
  <polygon points="36.314 30.498 8 30.498 8.901 20.19 37.215 20.19 36.314 30.498"/>
  <g>
    <path d="M16.71582,22.95459l-.47266,5.40771H15.16211L13.0376,24.65576l-.32373,3.70654H11.63379l.47266-5.40771h1.08008L15.31006,26.668l.32471-3.71338Z" style="fill: #fff"/>
    <path d="M20.832,23.83594H18.78516l-.11816,1.354h1.81445l-.0752.85889H18.5918L18.4668,27.48h2.04688l-.07715.88232h-3.127l.47266-5.40771h3.127Z" style="fill: #fff"/>
    <path d="M21.52539,22.9624h1.1582l.583,4.19287,1.46289-4.19287h1.2041l.6709,4.16943,1.32129-4.16943h1.166l-1.97754,5.3999H25.84082L25.165,24.5166l-1.39355,3.8457-1.26758.00781Z" style="fill: #fff"/>
    <path d="M31.17969,28.417c-1.11914,0-1.93311-.58838-1.85937-1.60986h1.1582a.66957.66957,0,0,0,.75537.71973.77038.77038,0,0,0,.86816-.65771c.10205-1.16846-2.73877-.46387-2.56006-2.42139a1.82845,1.82845,0,0,1,2.03613-1.56348c1.10449,0,1.81055.56543,1.7959,1.54H32.18457a.642.642,0,0,0-.71582-.64209.69174.69174,0,0,0-.79687.63428c-.09473,1.083,2.72266.47949,2.55664,2.38281A1.88808,1.88808,0,0,1,31.17969,28.417Z" style="fill: #fff"/>
  </g>
  <g>
    <path d="M16.48633,36.06055H14.33984l-.44434,1.0293H12.76074l2.41016-5.40771h1.25879l1.46484,5.40771H16.752ZM15.686,32.93506l-.97656,2.25928H16.269Z"/>
    <path d="M20.47754,37.14453c-1.11914,0-1.93311-.58887-1.85937-1.61035h1.1582a.66914.66914,0,0,0,.75537.71973.77039.77039,0,0,0,.86816-.65723c.10205-1.168-2.73877-.46387-2.56006-2.42187a1.82811,1.82811,0,0,1,2.03613-1.563c1.10449,0,1.811.56543,1.7959,1.54053H21.48242a.64207.64207,0,0,0-.71582-.64258.69178.69178,0,0,0-.79687.63477c-.09473,1.082,2.72266.47949,2.55664,2.38184A1.88839,1.88839,0,0,1,20.47754,37.14453Z"/>
    <path d="M25.17969,37.14453c-1.11914,0-1.93311-.58887-1.85937-1.61035h1.1582a.66914.66914,0,0,0,.75537.71973.77039.77039,0,0,0,.86816-.65723c.10205-1.168-2.73877-.46387-2.56006-2.42187a1.82811,1.82811,0,0,1,2.03613-1.563c1.10449,0,1.811.56543,1.7959,1.54053H26.18457a.64207.64207,0,0,0-.71582-.64258.6913.6913,0,0,0-.79687.63477c-.09473,1.082,2.72266.47949,2.55664,2.38184A1.88839,1.88839,0,0,1,25.17969,37.14453Z"/>
    <path d="M28.499,31.68945H29.5791l-.47168,5.40039H28.02734Z"/>
    <path d="M32.0293,37.14453c-1.11914,0-1.93311-.58887-1.85937-1.61035h1.1582a.66914.66914,0,0,0,.75537.71973.77039.77039,0,0,0,.86816-.65723c.10205-1.168-2.73877-.46387-2.56006-2.42187a1.82811,1.82811,0,0,1,2.03613-1.563c1.10449,0,1.81055.56543,1.7959,1.54053H33.03418a.64207.64207,0,0,0-.71582-.64258.6913.6913,0,0,0-.79687.63477c-.09473,1.082,2.72266.47949,2.55664,2.38184A1.88807,1.88807,0,0,1,32.0293,37.14453Z"/>
    <path d="M35.06152,31.68945h3.95313l-.07617.874H37.502l-.39551,4.52637H36.02637l.39551-4.52637H34.98535Z"/>
    <path d="M42.72559,36.06055H40.5791l-.44434,1.0293H39l2.41016-5.40771h1.25879l1.46484,5.40771H42.99121Zm-.7998-3.12549-.97656,2.25928h1.55957Z"/>
    <path d="M49.94238,31.68213l-.47266,5.40771H48.38867l-2.124-3.70605-.32422,3.70605H44.86035l.47266-5.40771h1.08008l2.124,3.71338.32422-3.71338Z"/>
    <path d="M50.72168,31.68945H54.6748l-.07617.874H53.16211l-.39551,4.52637H51.68652l.39551-4.52637H50.64551Z"/>
  </g>
</svg>
