<svg id="Layer_1" data-name="Layer 1" xmlns="http://www.w3.org/2000/svg" width="65" height="65" viewBox="0 0 65 65">
  <title>news</title>
  <path d="M64.1932,32.11074a31.56307,31.56307,0,0,1-10.622,23.6835q-.70588.61945-1.4406,1.21011a33.02313,33.02313,0,0,1-3.92806,2.6411,31.73488,31.73488,0,0,1-30.42546.53782L7.64484,64.50507a.96567.96567,0,0,1-1.335-.99885L7.61606,52.66333l.096-.80676A32.86776,32.86776,0,0,1,5.23423,48.2839v-.00961A31.58182,31.58182,0,0,1,1.61356,39.285v-.00961c-.1153-.51859-.22093-1.02764-.30734-1.55584A27.76188,27.76188,0,0,1,.922,34.72306c-.05762-.64345-.096-1.29658-.10563-1.95925C.8068,32.55255.8068,32.33167.8068,32.11074a32.02656,32.02656,0,0,1,1.62308-10.065A31.71406,31.71406,0,0,1,54.57959,9.36848a31.04919,31.04919,0,0,1,3.53426,4.0817,29.4116,29.4116,0,0,1,2.39139,3.80321V17.263A31.31029,31.31029,0,0,1,63.665,26.36757c.0864.47059.16325.95079.23049,1.431A30.48712,30.48712,0,0,1,64.1932,32.11074Z" style="fill: #d01f25"/>
  <polygon points="58.419 44.355 8.998 44.355 10.199 30.627 59.62 30.627 58.419 44.355" style="opacity: 0.2"/>
  <polygon points="34.669 33.373 5.841 33.373 6.922 21.018 35.75 21.018 34.669 33.373" style="opacity: 0.2"/>
  <polygon points="57.046 42.982 7.625 42.982 8.826 29.254 58.247 29.254 57.046 42.982" style="fill: #fff"/>
  <polygon points="33.296 32 4.468 32 5.549 19.645 34.377 19.645 33.296 32"/>
  <g>
    <path d="M13.397,22.667l-.50391,5.75928H11.73975L9.47266,24.47949l-.34521,3.94678H7.97412L8.478,22.667H9.63135l2.26611,3.95508.34619-3.95508Z" style="fill: #fff"/>
    <path d="M17.78662,23.60693H15.603l-.12646,1.44189h1.93652l-.08008.91455H15.39648l-.1333,1.52441h2.18359l-.082.93848H14.02783l.50391-5.75928h3.33691Z" style="fill: #fff"/>
    <path d="M18.52588,22.67578h1.23535l.623,4.46533,1.56055-4.46533H23.23l.71631,4.44043L25.356,22.67578H26.6001l-2.10937,5.75049H23.13135l-.7207-4.09473-1.4873,4.09473-1.35205.00781Z" style="fill: #fff"/>
    <path d="M28.82568,28.48389c-1.19531,0-2.06348-.62549-1.98486-1.71338h1.23633a.71327.71327,0,0,0,.80566.76563.82188.82188,0,0,0,.92676-.69922c.10889-1.24414-2.92236-.49512-2.73242-2.5791A1.95,1.95,0,0,1,29.25,22.59326c1.17773,0,1.93262.60107,1.916,1.63916H29.89746a.68486.68486,0,0,0-.76416-.68359.7377.7377,0,0,0-.8501.67578c-.10107,1.15381,2.90527.51074,2.728,2.53711A2.01236,2.01236,0,0,1,28.82568,28.48389Z" style="fill: #fff"/>
  </g>
  <g>
    <path d="M14.501,39.49512h-2.29l-.47461,1.0957H10.52441L13.09619,34.832h1.34375l1.564,5.75879H14.78516Zm-.85352-3.3291L12.604,38.57227h1.665Z"/>
    <path d="M18.75732,40.64844c-1.19531,0-2.06348-.626-1.98486-1.71289h1.23633a.71409.71409,0,0,0,.80615.76563.82169.82169,0,0,0,.92627-.7002c.10889-1.24414-2.92236-.49512-2.73242-2.5791a1.95081,1.95081,0,0,1,2.17334-1.66406c1.17773,0,1.93262.60156,1.916,1.63965H19.82959a.68581.68581,0,0,0-.76416-.68457.73858.73858,0,0,0-.85059.67676c-.10059,1.15332,2.90576.51074,2.72852,2.53711A2.01322,2.01322,0,0,1,18.75732,40.64844Z"/>
    <path d="M23.77295,40.64844c-1.19531,0-2.06348-.626-1.98486-1.71289h1.23633a.71409.71409,0,0,0,.80615.76563.82169.82169,0,0,0,.92627-.7002c.10889-1.24414-2.92236-.49512-2.73242-2.5791a1.95081,1.95081,0,0,1,2.17334-1.66406c1.17773,0,1.93262.60156,1.916,1.63965H24.84521a.68581.68581,0,0,0-.76416-.68457.73858.73858,0,0,0-.85059.67676c-.10059,1.15332,2.90576.51074,2.72852,2.53711A2.01322,2.01322,0,0,1,23.77295,40.64844Z"/>
    <path d="M27.31152,34.83984h1.15332l-.50293,5.751H26.80859Z"/>
    <path d="M31.07959,40.64844c-1.19531,0-2.06348-.626-1.98486-1.71289h1.23633a.71409.71409,0,0,0,.80615.76563.82169.82169,0,0,0,.92627-.7002c.10938-1.24414-2.92236-.49512-2.73242-2.5791a1.95081,1.95081,0,0,1,2.17334-1.66406c1.17725,0,1.93213.60156,1.91553,1.63965H32.15137a.68538.68538,0,0,0-.76367-.68457.73858.73858,0,0,0-.85059.67676c-.10059,1.15332,2.90527.51074,2.72852,2.53711A2.01256,2.01256,0,0,1,31.07959,40.64844Z"/>
    <path d="M34.3125,34.83984h4.21875l-.082.93164H36.918l-.42187,4.81934H35.3418l.42188-4.81934h-1.5332Z"/>
    <path d="M42.48926,39.49512h-2.29l-.47461,1.0957H38.5127L41.085,34.832h1.34375l1.56348,5.75879H42.77344Zm-.85352-3.3291-1.043,2.40625h1.665Z"/>
    <path d="M50.1875,34.832l-.50391,5.75879H48.53027L46.2627,36.64453,45.918,40.59082H44.76465l.50391-5.75879h1.15332l2.26563,3.9541.34668-3.9541Z"/>
    <path d="M51.0166,34.83984h4.21875l-.08105.93164h-1.5332l-.4209,4.81934H52.0459l.4209-4.81934H50.93555Z"/>
  </g>
  <polygon points="4.468 32 5.549 19.645 34.377 19.645 4.468 32" style="fill: #fff;opacity: 0.1"/>
  <path d="M29,46H43a0,0,0,0,1,0,0v0a1,1,0,0,1-1,1H28a0,0,0,0,1,0,0v0A1,1,0,0,1,29,46Z" style="fill: #fff"/>
  <path d="M45,46h2a0,0,0,0,1,0,0v0a1,1,0,0,1-1,1H44a0,0,0,0,1,0,0v0A1,1,0,0,1,45,46Z" style="fill: #fff"/>
</svg>
