<svg id="Layer_1" data-name="Layer 1" xmlns="http://www.w3.org/2000/svg" xmlns:xlink="http://www.w3.org/1999/xlink" width="65" height="65" viewBox="0 0 65 65">
  <defs>
    <linearGradient id="linear-gradient" x1="32.5" y1="0.76496" x2="32.5" y2="64.23504" gradientUnits="userSpaceOnUse">
      <stop offset="0" stop-color="#c4e24e"/>
      <stop offset="0.57096" stop-color="#6ebd07"/>
      <stop offset="1" stop-color="#386f06"/>
    </linearGradient>
  </defs>
  <title>news</title>
  <path d="M63.85,32.115A31.22128,31.22128,0,0,1,53.343,55.542q-.69824.61274-1.425,1.197a32.66553,32.66553,0,0,1-3.88553,2.6125,31.39123,31.39123,0,0,1-30.096.532L7.914,64.1585a.95521.95521,0,0,1-1.32051-.988L7.88553,52.445l.095-.798a32.51184,32.51184,0,0,1-2.451-3.534v-.00951a31.23982,31.23982,0,0,1-3.58146-8.892V39.202c-.11405-.513-.21854-1.01651-.304-1.539a27.46125,27.46125,0,0,1-.38-2.964c-.057-.63648-.095-1.28253-.10449-1.938C1.15,32.552,1.15,32.3335,1.15,32.115a31.67975,31.67975,0,0,1,1.6055-9.956,31.37063,31.37063,0,0,1,51.585-12.54,30.713,30.713,0,0,1,3.496,4.0375,29.0931,29.0931,0,0,1,2.36549,3.762V17.428a30.97124,30.97124,0,0,1,3.12554,9.006c.08547.46549.16148.94049.228,1.41549A30.157,30.157,0,0,1,63.85,32.115Z" style="fill: url(#linear-gradient)"/>
  <rect x="11.4491" y="31.8532" width="47.86345" height="12.93607" rx="6.46803" ry="6.46803" style="opacity: 0.2"/>
  <path d="M45.08287,27.97238a6.44851,6.44851,0,0,1-6.468,6.468H12.7427a6.468,6.468,0,1,1,0-12.93607H38.61484A6.47038,6.47038,0,0,1,45.08287,27.97238Z" style="fill: #1c1c1c;opacity: 0.2"/>
  <rect x="9.86188" y="30.55959" width="47.86345" height="12.93607" rx="6.46803" ry="6.46803" style="fill: #fff"/>
  <path d="M43.49566,26.67877a6.44851,6.44851,0,0,1-6.468,6.468H11.15549a6.468,6.468,0,1,1,0-12.93607H37.02762A6.47038,6.47038,0,0,1,43.49566,26.67877Z" style="fill: #1c1c1c"/>
  <g>
    <path d="M7.65918,24.16553h1.165l.95508,4.21,1.103-4.21h1.21143l1.041,4.18652.96289-4.18652h1.17285l-1.51465,5.42139H12.47461L11.457,25.72705l-1.064,3.85986-1.27393.00781Z" style="fill: #fff"/>
    <path d="M19.11768,25.04346H17.05908v1.35889h1.8252v.8623h-1.8252v1.437h2.05859v.88525H15.97217V24.1582h3.14551Z" style="fill: #fff"/>
    <path d="M22.439,29.58691h-2.3374V24.16553h2.23682c1.13379,0,1.7627.59033,1.7627,1.39844a1.24982,1.24982,0,0,1-.92432,1.24268,1.31382,1.31382,0,0,1,1.04883,1.3125C24.22559,28.981,23.56543,29.58691,22.439,29.58691Zm-.25635-4.54346h-.99414v1.35889h.99414c.5127,0,.80811-.23291.80811-.67529C22.99072,25.292,22.69531,25.04346,22.18262,25.04346Zm.07764,2.19775H21.18848v1.46045h1.09521c.52832,0,.83887-.25635.83887-.71484C23.12256,27.521,22.78857,27.24121,22.26025,27.24121Z" style="fill: #fff"/>
    <path d="M26.96387,29.64111c-1.126,0-1.99609-.59033-2.01172-1.61523h1.165a.74414.74414,0,0,0,.82324.72217c.5127,0,.81543-.272.81543-.66016,0-1.17285-2.7959-.46582-2.78809-2.43115,0-.97852.792-1.56885,1.91064-1.56885a1.71393,1.71393,0,0,1,1.94189,1.5459H27.624a.71527.71527,0,0,0-.77686-.64453c-.42725-.01562-.74561.19385-.74561.63672,0,1.0874,2.78076.48145,2.78076,2.39209A1.71014,1.71014,0,0,1,26.96387,29.64111Z" style="fill: #fff"/>
    <path d="M29.81885,24.16553h1.08691v5.42139H29.81885Z" style="fill: #fff"/>
    <path d="M31.689,24.16553H35.666v.87793H34.2207v4.54346H33.13379V25.04346H31.689Z" style="fill: #fff"/>
    <path d="M39.60059,25.04346H37.542v1.35889h1.8252v.8623H37.542v1.437h2.05859v.88525H36.45508V24.1582h3.14551Z" style="fill: #fff"/>
  </g>
  <g>
    <path d="M17.27783,39.32422H15.11865l-.35693,1.0332h-1.1416l1.94922-5.42871h1.26611l1.94922,5.42871H17.63525Zm-1.07959-3.1377-.78418,2.26758h1.56885Z"/>
    <path d="M21.38281,40.41211c-1.126,0-1.99609-.59082-2.01172-1.61621h1.165a.74422.74422,0,0,0,.82324.72266c.5127,0,.81543-.27148.81543-.66016,0-1.17285-2.7959-.46582-2.78809-2.43066,0-.97852.792-1.56934,1.91064-1.56934a1.71393,1.71393,0,0,1,1.94189,1.5459H22.043a.7156.7156,0,0,0-.77686-.64453c-.42725-.01562-.74561.19434-.74561.63672,0,1.08691,2.78076.48145,2.78076,2.3916A1.7108,1.7108,0,0,1,21.38281,40.41211Z"/>
    <path d="M26.10986,40.41211c-1.126,0-1.99609-.59082-2.01172-1.61621h1.165a.74422.74422,0,0,0,.82324.72266c.5127,0,.81543-.27148.81543-.66016,0-1.17285-2.7959-.46582-2.78809-2.43066,0-.97852.792-1.56934,1.91064-1.56934a1.71393,1.71393,0,0,1,1.94189,1.5459H26.77a.7156.7156,0,0,0-.77686-.64453c-.42676-.01562-.74561.19434-.74561.63672,0,1.08691,2.78076.48145,2.78076,2.3916A1.7108,1.7108,0,0,1,26.10986,40.41211Z"/>
    <path d="M28.96484,34.93555h1.08691v5.42188H28.96484Z"/>
    <path d="M32.99414,40.41211c-1.126,0-1.99609-.59082-2.01172-1.61621h1.165a.74422.74422,0,0,0,.82324.72266c.5127,0,.81543-.27148.81543-.66016,0-1.17285-2.7959-.46582-2.78809-2.43066,0-.97852.792-1.56934,1.91064-1.56934a1.71393,1.71393,0,0,1,1.94189,1.5459H33.6543a.7156.7156,0,0,0-.77686-.64453c-.42725-.01562-.74561.19434-.74561.63672,0,1.08691,2.78027.48145,2.78027,2.3916A1.71063,1.71063,0,0,1,32.99414,40.41211Z"/>
    <path d="M35.5625,34.93555h3.97656v.87793H38.09375v4.54395H37.00684V35.81348H35.5625Z"/>
    <path d="M43.65234,39.32422H41.49316l-.35742,1.0332h-1.1416l1.94922-5.42871H43.209l1.9502,5.42871H44.00977Zm-1.08008-3.1377-.78418,2.26758h1.56836Z"/>
    <path d="M50.52148,34.92871v5.42871H49.43359l-2.46191-3.7207v3.7207H45.88477V34.92871h1.08691l2.46191,3.72754V34.92871Z"/>
    <path d="M51.30273,34.93555H55.2793v.87793H53.834v4.54395H52.74707V35.81348H51.30273Z"/>
  </g>
  <path d="M24.09156,20.21074V33.1468H11.15549a6.468,6.468,0,1,1,0-12.93607Z" style="fill: #fff;opacity: 0.08"/>
  <line x1="26" y1="48" x2="39" y2="48" style="fill: none;stroke: #fff;stroke-linecap: round;stroke-miterlimit: 10"/>
  <line x1="43" y1="48" x2="48" y2="48" style="fill: none;stroke: #fff;stroke-linecap: round;stroke-miterlimit: 10"/>
</svg>
