<svg id="Layer_1" data-name="Layer 1" xmlns="http://www.w3.org/2000/svg" xmlns:xlink="http://www.w3.org/1999/xlink" width="65" height="65" viewBox="0 0 65 65">
  <defs>
    <linearGradient id="linear-gradient" x1="32.5" y1="1.05919" x2="32.5" y2="63.94081" gradientUnits="userSpaceOnUse">
      <stop offset="0" stop-color="#001c54"/>
      <stop offset="1" stop-color="#0081cc"/>
    </linearGradient>
  </defs>
  <title>news</title>
  <path d="M63.55934,32.11853A30.93181,30.93181,0,0,1,53.14975,55.32835q-.69176.60706-1.41179,1.18591a32.36267,32.36267,0,0,1-3.8495,2.58828,31.10018,31.10018,0,0,1-29.817.52707L8.14195,63.865a.94635.94635,0,0,1-1.30827-.97888l1.28006-10.626.0941-.79063a32.2104,32.2104,0,0,1-2.42829-3.50121v-.00942a30.95018,30.95018,0,0,1-3.54825-8.80954v-.00942c-.113-.50822-.21651-1.00708-.30119-1.52473a27.20665,27.20665,0,0,1-.3765-2.93651c-.05647-.63058-.0941-1.27064-.10352-1.92007-.00942-.207-.00942-.42349-.00942-.64a31.386,31.386,0,0,1,1.59062-9.86367A31.07978,31.07978,0,0,1,54.138,9.83111a30.42821,30.42821,0,0,1,3.46358,4.00007,28.82336,28.82336,0,0,1,2.34356,3.72714v.00942a30.68409,30.68409,0,0,1,3.09656,8.92248c.08468.46117.16.93177.22588,1.40237A29.87738,29.87738,0,0,1,63.55934,32.11853Z" style="fill: url(#linear-gradient)"/>
  <polygon points="60.405 42.732 6.206 42.732 7.284 30.414 61.483 30.414 60.405 42.732" style="fill: #fff"/>
  <polygon points="37.863 32.878 4.605 32.878 5.575 21.792 38.833 21.792 37.863 32.878"/>
  <g>
    <path d="M12.76758,27.36572c-.00439.04785-.00977.10107-.01611.15869-.00586.05713-.01074.10205-.01367.1333l-.21484,2.28809h-.916l.20459-2.16846.00732-.08643c.00293-.03223.00537-.06152.00928-.09082.00439-.02881.00635-.05322.00781-.07178l.00293-.0332a3.64925,3.64925,0,0,0-.0249-.93115,1.72717,1.72717,0,0,0-.27-.70508,1.31629,1.31629,0,0,0-.53809-.44775,1.96652,1.96652,0,0,0-.833-.15625,2.65831,2.65831,0,0,0-.82031.12451,2.03962,2.03962,0,0,0-.69971.38037,2.06857,2.06857,0,0,0-.50928.644,2.43666,2.43666,0,0,0-.248.91553,2.69092,2.69092,0,0,0,.00928.57666,1.83675,1.83675,0,0,0,.13818.50684,1.486,1.486,0,0,0,.27.41553,1.42025,1.42025,0,0,0,.40332.30127l.0166-.01807a1.16461,1.16461,0,0,1-.1333-.31934.98652.98652,0,0,1-.02393-.31982.92584.92584,0,0,1,.13135-.40576,1.1612,1.1612,0,0,1,.28809-.32324,1.39708,1.39708,0,0,1,.4043-.21484,1.50389,1.50389,0,0,1,.48535-.07666,1.30868,1.30868,0,0,1,.47607.08447,1.05421,1.05421,0,0,1,.377.24316,1.00489,1.00489,0,0,1,.23682.38623,1.21761,1.21761,0,0,1,.05469.5127,1.43085,1.43085,0,0,1-.15625.54492,1.32278,1.32278,0,0,1-.35645.42871,1.67176,1.67176,0,0,1-.54639.28223,2.39493,2.39493,0,0,1-.72363.10107,2.595,2.595,0,0,1-.78711-.11182,2.09308,2.09308,0,0,1-.61768-.30908,2.00032,2.00032,0,0,1-.45312-.46338,2.3818,2.3818,0,0,1-.29834-.57764,2.93051,2.93051,0,0,1-.14844-.64795,3.33008,3.33008,0,0,1-.01025-.67627,3.13451,3.13451,0,0,1,.18506-.83154,2.89,2.89,0,0,1,.37646-.69873,2.9296,2.9296,0,0,1,.54053-.55908,3.23024,3.23024,0,0,1,.67041-.41162,3.68843,3.68843,0,0,1,.77344-.252,4.02526,4.02526,0,0,1,.84619-.08691,3.17471,3.17471,0,0,1,1.17236.19873,1.95024,1.95024,0,0,1,.80615.56982,2.09442,2.09442,0,0,1,.418.938A4.54,4.54,0,0,1,12.76758,27.36572ZM10.15283,28.7085a.34588.34588,0,0,0-.02295-.17334.33271.33271,0,0,0-.08887-.12158.3669.3669,0,0,0-.13428-.07178.5623.5623,0,0,0-.16406-.02344.53352.53352,0,0,0-.18848.03174.46488.46488,0,0,0-.14551.09082.43077.43077,0,0,0-.0957.13232.42322.42322,0,0,0-.04248.15283.5065.5065,0,0,0,.04639.249.44458.44458,0,0,0,.17773.20215.86864.86864,0,0,0,.46875-.14307A.43414.43414,0,0,0,10.15283,28.7085Z" style="fill: #fff"/>
    <path d="M17.66846,26.48828l-.07471.855h1.50879l-.0752.85938H17.51855l-.01074.11963a2.10961,2.10961,0,0,1-.10059.49023,1.91014,1.91014,0,0,1-.19873.42236,1.62939,1.62939,0,0,1-.28467.3374,1.60687,1.60687,0,0,1-.355.24316,1.82064,1.82064,0,0,1-.5127.16455,3.23567,3.23567,0,0,1-.52637.04541,2.47125,2.47125,0,0,1-.75635-.10693,1.57606,1.57606,0,0,1-.55957-.30225,1.19058,1.19058,0,0,1-.33447-.47314,1.344,1.344,0,0,1-.07812-.61182,1.28286,1.28286,0,0,1,.26221-.69824,1.20306,1.20306,0,0,1,.64307-.40576l.15723-1.80078h4.45312l-.0752.86182Zm-1.06885,1.70361H15.26074a.93219.93219,0,0,0-.17529.0166.43825.43825,0,0,0-.15088.05713.36044.36044,0,0,0-.11084.10986.37251.37251,0,0,0-.05322.17334.48817.48817,0,0,0,.03271.22559.50853.50853,0,0,0,.14209.19873.71062.71062,0,0,0,.25977.14258,1.22226,1.22226,0,0,0,.3877.05371,1.06412,1.06412,0,0,0,.69385-.21387.90706.90706,0,0,0,.30371-.65869Zm.14893-1.70361H15.70166l-.07471.855h1.04688Z" style="fill: #fff"/>
    <path d="M22.59521,29.9458l.041-.46875h-.01758a1.45529,1.45529,0,0,1-.50879.40527,1.51637,1.51637,0,0,1-.66895.14307,1.675,1.675,0,0,1-.26855-.022,1.41512,1.41512,0,0,1-.25244-.06348,1.12,1.12,0,0,1-.22412-.104.84093.84093,0,0,1-.31982-.34326,1.0448,1.0448,0,0,1-.09082-.26465,2.12558,2.12558,0,0,1-.03809-.34863,3.90072,3.90072,0,0,1,.01611-.44922l.24512-2.80371h.917l-.23291,2.6626c-.00977.11084-.01514.20508-.01611.28418a1.1688,1.1688,0,0,0,.01221.19824.60709.60709,0,0,0,.03564.13721.319.319,0,0,0,.061.09521.4889.4889,0,0,0,.1792.11865.6963.6963,0,0,0,.26807.04688.91728.91728,0,0,0,.30029-.04883.8851.8851,0,0,0,.26123-.1377.79352.79352,0,0,0,.18945-.21143.61843.61843,0,0,0,.08691-.26953l.25146-2.87549h.916L23.43555,29.083h2.32422l.30225-3.45654h.917l-.37793,4.31934Z" style="fill: #fff"/>
    <path d="M23.15576,24.24414a.741.741,0,0,1,.08008-.27832.82329.82329,0,0,1,.16992-.22461.77375.77375,0,0,1,.23486-.15186.70782.70782,0,0,1,.28125-.05664.64363.64363,0,0,1,.27246.05664.60539.60539,0,0,1,.2124.15186.61176.61176,0,0,1,.13184.22461.65807.65807,0,0,1,.03223.27832.69326.69326,0,0,1-.08057.272.8045.8045,0,0,1-.40967.376.73783.73783,0,0,1-.28223.05518.66134.66134,0,0,1-.27148-.05518.62132.62132,0,0,1-.2085-.15186.66468.66468,0,0,1-.13086-.22412A.65469.65469,0,0,1,23.15576,24.24414Z" style="fill: #fff"/>
    <path d="M32.23,26.48828l-.07471.855h.28125a2.412,2.412,0,0,1,.78418.11377,1.31865,1.31865,0,0,1,.53613.33105,1.20645,1.20645,0,0,1,.291.52832,2.0351,2.0351,0,0,1,.0498.71289,2.2975,2.2975,0,0,1-.25586.89795,1.95249,1.95249,0,0,1-.583.66455,2.711,2.711,0,0,1-.90234.41162,4.76166,4.76166,0,0,1-1.21191.14111H30.751c-.1377,0-.27393-.001-.41162-.002-.13672-.002-.26855-.00293-.396-.00391-.12793-.001-.24219-.00293-.34473-.00391s-.188-.002-.25732-.002h-.13379a1.14549,1.14549,0,0,0-.20654.01465.336.336,0,0,0-.12012.0415.12734.12734,0,0,0-.05469.06152.24489.24489,0,0,0-.01855.07764.4132.4132,0,0,0,.00439.11377.603.603,0,0,0,.04395.12451h-.81934a1.19117,1.19117,0,0,1-.04834-.22949,1.15688,1.15688,0,0,1-.00293-.22559.90775.90775,0,0,1,.105-.36963.69749.69749,0,0,1,.22705-.24219.99365.99365,0,0,1,.3291-.1333,1.93333,1.93333,0,0,1,.41211-.042h.18359c.09863,0,.21729.001.35693.002.13965.002.28906.00293.44873.00391.16016.001.31348.002.46.00391.14648.001.27686.002.39111.002h.24023c.08887,0,.16553-.002.228-.00391.063-.00293.11768-.00586.165-.00879l.124-.01074c.03418-.00391.06885-.00879.10352-.0127a2.58376,2.58376,0,0,0,.5835-.15186,1.33607,1.33607,0,0,0,.41211-.25684,1.08982,1.08982,0,0,0,.25537-.36084,1.50088,1.50088,0,0,0,.11328-.46875,1.08628,1.08628,0,0,0-.04395-.48828.58431.58431,0,0,0-.19043-.26074.55716.55716,0,0,0-.26172-.10205,1.96141,1.96141,0,0,0-.25781-.01855h-.28906l-.01172.13037a2.058,2.058,0,0,1-.1001.48828,1.86942,1.86942,0,0,1-.20068.41943,1.72137,1.72137,0,0,1-.28516.33545,1.6746,1.6746,0,0,1-.35547.24316,1.9428,1.9428,0,0,1-.51074.16846,3.02314,3.02314,0,0,1-.52588.04834,2.47125,2.47125,0,0,1-.75635-.10693,1.57606,1.57606,0,0,1-.55957-.30225,1.20032,1.20032,0,0,1-.33447-.47314,1.35748,1.35748,0,0,1-.07715-.61182,1.20132,1.20132,0,0,1,.3623-.80469,1.74444,1.74444,0,0,1-.26758-.32471,2.09062,2.09062,0,0,1-.2041-.41357,2.38488,2.38488,0,0,1-.11963-.48535,2.31835,2.31835,0,0,1-.01221-.53809A2.34976,2.34976,0,0,1,28.48,24.89014a2.66606,2.66606,0,0,1,.83154-.81738,4.18977,4.18977,0,0,1,1.24854-.51953,6.58905,6.58905,0,0,1,1.61084-.18311,5.77024,5.77024,0,0,1,1.80176.25488,2.632,2.632,0,0,1,1.21875.78516,2.46586,2.46586,0,0,1,.50586,1.07715,5.12591,5.12591,0,0,1,.0625,1.52832c-.00391.04785-.00977.10889-.0166.18359-.00879.0752-.01562.14795-.02148.21924-.00586.06982-.0127.1333-.01855.18848-.00586.05566-.00977.08691-.00977.09473l-.22168,2.24414h-.917l.21875-2.16553c.00293-.0332.00781-.07666.0127-.13135.00586-.05469.01172-.10889.0166-.16455.00488-.05518.00977-.106.01367-.15381l.00879-.10205a7.32986,7.32986,0,0,0,.03223-.74512,3.76625,3.76625,0,0,0-.05078-.61377,2.2088,2.2088,0,0,0-.14258-.49609,1.505,1.505,0,0,0-.24414-.39307,2.00909,2.00909,0,0,0-.92969-.56543,4.97215,4.97215,0,0,0-1.48047-.18945,5.94061,5.94061,0,0,0-1.23975.11768,3.16569,3.16569,0,0,0-.93311.34229,1.81151,1.81151,0,0,0-.60791.55273,1.54843,1.54843,0,0,0-.25684.74512,1.76878,1.76878,0,0,0,.00146.32959,1.68367,1.68367,0,0,0,.06152.31445,1.47153,1.47153,0,0,0,.11426.28027,1.053,1.053,0,0,0,.1626.22656l.13184-1.50781h4.43506l-.07617.86182Zm-1.06885,1.70361H29.82227a.9141.9141,0,0,0-.17432.0166.43592.43592,0,0,0-.15186.05713.36044.36044,0,0,0-.11084.10986.384.384,0,0,0-.05225.17334.50067.50067,0,0,0,.03174.22559.50853.50853,0,0,0,.14209.19873.71062.71062,0,0,0,.25977.14258,1.22448,1.22448,0,0,0,.38867.05371,1.06778,1.06778,0,0,0,.69385-.21387.91007.91007,0,0,0,.30273-.65869Zm.14893-1.70361H30.26318l-.07471.855h1.04688Z" style="fill: #fff"/>
  </g>
  <g>
    <path d="M8.34766,39.94238a1.08793,1.08793,0,0,1-.38184-.06445.82468.82468,0,0,1-.29541-.18457.72853.72853,0,0,1-.187-.29687.96912.96912,0,0,1-.041-.40332,1.08014,1.08014,0,0,1,.10645-.39062.92767.92767,0,0,1,.2373-.30176,1.05781,1.05781,0,0,1,.35986-.19434,1.51759,1.51759,0,0,1,.47412-.06934H9.65527a1.938,1.938,0,0,0,.97314-.19922.81217.81217,0,0,0,.38037-.67773.97888.97888,0,0,0-.03906-.40723.66441.66441,0,0,0-.19385-.28711.84457.84457,0,0,0-.333-.16895,1.67977,1.67977,0,0,0-.457-.05664c-.04883,0-.08789.001-.11816.00391-.02979.002-.05713.00488-.08154.00684l-.001.01074a.6796.6796,0,0,1,.25977.3125.76819.76819,0,0,1,.05078.34375.818.818,0,0,1-.11133.3457,1.00287,1.00287,0,0,1-.25977.29,1.348,1.348,0,0,1-.38965.20215,1.54888,1.54888,0,0,1-.499.07617,1.45387,1.45387,0,0,1-.46826-.07031,1.06289,1.06289,0,0,1-.355-.19824.79722.79722,0,0,1-.21582-.30957.8855.8855,0,0,1-.05176-.4043,1.06877,1.06877,0,0,1,.20264-.54,1.56534,1.56534,0,0,1,.4707-.4248,2.4661,2.4661,0,0,1,.69141-.27832,3.64207,3.64207,0,0,1,.87109-.09863,3.09654,3.09654,0,0,1,.90625.12012,1.702,1.702,0,0,1,.6377.3457,1.2932,1.2932,0,0,1,.3623.53906,1.66232,1.66232,0,0,1,.07666.70508,1.80327,1.80327,0,0,1-.19287.6875,1.538,1.538,0,0,1-.43848.51563,2.04457,2.04457,0,0,1-.66553.3252,3.08948,3.08948,0,0,1-.874.11426H8.74609a1.05786,1.05786,0,0,0-.25293.02344c-.06006.01465-.09326.04688-.09766.0957-.00684.0791.08252.11914.26807.11914H14.9751l-.07373.84375Zm.95313-3.17871a.27519.27519,0,0,0-.08984-.24512.47343.47343,0,0,0-.26123-.10937.55747.55747,0,0,0-.26709.12012.33407.33407,0,0,0-.12549.23828.279.279,0,0,0,.07959.23047.35208.35208,0,0,0,.26416.09473A.41955.41955,0,0,0,9.1792,37.002.33684.33684,0,0,0,9.30078,36.76367Z"/>
    <path d="M19.68652,36.48535l-.0752.85547H19.918a2.3956,2.3956,0,0,1,.78418.11328,1.31159,1.31159,0,0,1,.53564.33105,1.20238,1.20238,0,0,1,.2915.52832,2.04678,2.04678,0,0,1,.0498.71289,2.28718,2.28718,0,0,1-.25635.89746,1.943,1.943,0,0,1-.58252.665A2.70985,2.70985,0,0,1,19.83789,41a4.73993,4.73993,0,0,1-1.2124.1416h-.3916c-.13574,0-.27051-.001-.40381-.002-.13281-.002-.2627-.00293-.3877-.00391s-.23682-.00293-.33545-.00391-.18164-.002-.25-.002H16.7251a1.15526,1.15526,0,0,0-.207.01465.32616.32616,0,0,0-.11914.042.12985.12985,0,0,0-.05615.06055.29678.29678,0,0,0-.01758.07813.41685.41685,0,0,0,.00488.11426.58934.58934,0,0,0,.043.124h-.81934a1.27831,1.27831,0,0,1-.04834-.22949,1.12095,1.12095,0,0,1-.002-.22559.91016.91016,0,0,1,.10449-.37012.68941.68941,0,0,1,.22754-.24219.99494.99494,0,0,1,.3291-.13281,1.91929,1.91929,0,0,1,.41064-.042h.18262c.09766,0,.21387.001.34961.002.13672.002.28271.00293.43994.00391.1582.001.30859.002.45264.00391.14453.001.27246.002.38477.002h.23633c.08887,0,.16406-.002.22705-.00391.0625-.00293.11865-.00586.16553-.00879.04736-.00391.08789-.00781.123-.01074.03564-.00391.07031-.00879.10449-.0127a2.61147,2.61147,0,0,0,.583-.15137,1.34033,1.34033,0,0,0,.41211-.25684,1.10324,1.10324,0,0,0,.25586-.36133,1.47432,1.47432,0,0,0,.11328-.46875,1.07851,1.07851,0,0,0-.04395-.48828.58361.58361,0,0,0-.18994-.26074.56306.56306,0,0,0-.26172-.10254,1.97993,1.97993,0,0,0-.2583-.01855h-.31445l-.01123.13086a2.08791,2.08791,0,0,1-.10059.48828,1.86566,1.86566,0,0,1-.20068.41895,1.65437,1.65437,0,0,1-.64062.5791,1.92408,1.92408,0,0,1-.51074.168,2.98515,2.98515,0,0,1-.52539.04883,2.47073,2.47073,0,0,1-.75635-.10742,1.57533,1.57533,0,0,1-.55957-.30176,1.19583,1.19583,0,0,1-.33447-.47266,1.348,1.348,0,0,1-.07861-.6123,1.28328,1.28328,0,0,1,.2627-.69824,1.20416,1.20416,0,0,1,.64258-.40625l.15771-1.80078H21.335l-.0752.8623Zm-1.06934,1.70313H17.27832a.93611.93611,0,0,0-.17529.0166.44637.44637,0,0,0-.15039.05762.36353.36353,0,0,0-.11133.11035.3782.3782,0,0,0-.05322.17285.48847.48847,0,0,0,.0332.22559.51067.51067,0,0,0,.1416.19824.71807.71807,0,0,0,.26025.14355,1.25063,1.25063,0,0,0,.3877.05273,1.05909,1.05909,0,0,0,.69336-.21387.90321.90321,0,0,0,.30371-.6582Zm.14941-1.70312H17.71973l-.0752.85547h1.04688Z"/>
    <path d="M25.42725,35.50781a2.673,2.673,0,0,1,.97559.16406,1.91868,1.91868,0,0,1,.69678.45215,1.71247,1.71247,0,0,1,.39844.67969,2.14274,2.14274,0,0,1,.084.83984,3.65112,3.65112,0,0,1-.13574.70313,3.018,3.018,0,0,1-.33252.7334h1.60938l.17041-1.94922a1.70975,1.70975,0,0,1-.75928-.17578,1.337,1.337,0,0,1-.47314-.415,1.48477,1.48477,0,0,1-.23291-.56543,2.27738,2.27738,0,0,1-.03174-.62207,2.10271,2.10271,0,0,1,.23877-.82812,2.04919,2.04919,0,0,1,.51221-.623,2.285,2.285,0,0,1,.72217-.39258,2.68474,2.68474,0,0,1,.86572-.1377,2.249,2.249,0,0,1,.896.168,1.65278,1.65278,0,0,1,.64014.47852,1.89428,1.89428,0,0,1,.36182.752,3.0223,3.0223,0,0,1,.06152.99121l-.36572,4.18164h-.9209l.35352-4.042a2.78786,2.78786,0,0,0-.02246-.77051,1.29722,1.29722,0,0,0-.21191-.52148.87668.87668,0,0,0-.38086-.29395,1.425,1.425,0,0,0-.52588-.0918,1.6976,1.6976,0,0,0-.49854.07227,1.27047,1.27047,0,0,0-.418.21484,1.12686,1.12686,0,0,0-.29834.3584,1.291,1.291,0,0,0-.1416.50586,1.24649,1.24649,0,0,0,.01563.35547.75552.75552,0,0,0,.11768.28711.61665.61665,0,0,0,.22656.19629.85976.85976,0,0,0,.3418.08887l.05957-.67871h.917l-.37793,4.31934H25.88281l.06689-.76465a2.34383,2.34383,0,0,0,.44824-.6582,2.25646,2.25646,0,0,0,.19727-.73828,1.7029,1.7029,0,0,0-.03418-.53418,1.07177,1.07177,0,0,0-.63525-.7666,1.5318,1.5318,0,0,0-.63867-.11816,1.76972,1.76972,0,0,0-.59424.09082,1.69481,1.69481,0,0,0-.44385.22852,1.45471,1.45471,0,0,0-.314.30957,2.05675,2.05675,0,0,0-.20068.32617,1.72666,1.72666,0,0,0-.10937.28223,1.09326,1.09326,0,0,0-.03906.17773l.022.00391a1.58515,1.58515,0,0,1,.3833-.21777,1.2531,1.2531,0,0,1,.48779-.09277,1.16185,1.16185,0,0,1,.43359.08008.9508.9508,0,0,1,.34766.23047.96454.96454,0,0,1,.21826.375,1.28849,1.28849,0,0,1,.04688.5127,1.48367,1.48367,0,0,1-.15771.56445,1.42463,1.42463,0,0,1-.3291.42578,1.40581,1.40581,0,0,1-.45508.26855,1.54407,1.54407,0,0,1-.53662.09473,1.3222,1.3222,0,0,1-.65723-.16016,1.35443,1.35443,0,0,1-.47021-.43945,1.86684,1.86684,0,0,1-.26611-.65137,2.64067,2.64067,0,0,1-.04395-.80273,2.71539,2.71539,0,0,1,.29053-1.03418,2.55772,2.55772,0,0,1,.61865-.77441,2.70677,2.70677,0,0,1,.86621-.48437A3.21085,3.21085,0,0,1,25.42725,35.50781Zm-.83643,3.208a.39873.39873,0,0,0-.09717-.32129.41046.41046,0,0,0-.31543-.12207.55677.55677,0,0,0-.19824.03418.62871.62871,0,0,0-.16846.09277.48684.48684,0,0,0-.12256.14355.44853.44853,0,0,0-.05615.18359.381.381,0,0,0,.02441.17969.44.44,0,0,0,.09326.14746.41381.41381,0,0,0,.14893.09668.51719.51719,0,0,0,.18848.03418.49691.49691,0,0,0,.19043-.03613.46535.46535,0,0,0,.1543-.09668.51274.51274,0,0,0,.10742-.14844A.53371.53371,0,0,0,24.59082,38.71582Z"/>
    <path d="M35.2002,39.94238l.041-.46875h-.01758a1.46135,1.46135,0,0,1-.50879.40625,1.53139,1.53139,0,0,1-.66895.14258A1.62495,1.62495,0,0,1,33.77734,40a1.39941,1.39941,0,0,1-.252-.06348,1.04875,1.04875,0,0,1-.22461-.10352.89122.89122,0,0,1-.18164-.14648.83971.83971,0,0,1-.13818-.19727,1.01968,1.01968,0,0,1-.09082-.26465,2.10683,2.10683,0,0,1-.03809-.34766,3.70725,3.70725,0,0,1,.01611-.4502l.24512-2.80371h.917l-.2334,2.66309c-.00977.11035-.01465.20508-.01562.28418a1.18111,1.18111,0,0,0,.01172.19824.56424.56424,0,0,0,.03613.13672.34824.34824,0,0,0,.06055.0957.50227.50227,0,0,0,.17969.11914.71859.71859,0,0,0,.26855.0459.94.94,0,0,0,.2998-.04785.87884.87884,0,0,0,.26074-.13867.77535.77535,0,0,0,.18945-.21094.61843.61843,0,0,0,.08691-.26953l.252-2.876h.916l-.30273,3.457h2.32422l.30273-3.457h.917l-.37793,4.31934Z"/>
    <path d="M44.36621,36.48535l-.30273,3.457h-.91992l.30273-3.457H41.87207l-.30273,3.457h-.91992l.37793-4.31934H45.5166l-.0752.8623Z"/>
    <path d="M52.59473,36.48535l-.30273,3.457h-.91992l.30273-3.457h-1.375l-.30273,3.457h-.91992l.19141-2.18262a1.43477,1.43477,0,0,0-.22559-1.03809,1.0285,1.0285,0,0,0-.8584-.35937,1.41512,1.41512,0,0,0-.48145.07617,1.30686,1.30686,0,0,0-.63672.47461,1.85367,1.85367,0,0,0-.17969.30664,1.664,1.664,0,0,0-.10645.291,1.33679,1.33679,0,0,0-.04395.22754l-.002.01367.002.02539.02148.00391a1.559,1.559,0,0,1,.39453-.21777,1.33252,1.33252,0,0,1,.498-.09277,1.16,1.16,0,0,1,.43359.08008.94649.94649,0,0,1,.34863.23047.96973.96973,0,0,1,.21777.375,1.28849,1.28849,0,0,1,.04688.5127,1.47528,1.47528,0,0,1-.1582.56445,1.4085,1.4085,0,0,1-.78613.69434,1.55631,1.55631,0,0,1-.53809.09473,1.29522,1.29522,0,0,1-1.124-.59766,1.88076,1.88076,0,0,1-.26465-.66016,2.78258,2.78258,0,0,1-.043-.8252,2.96151,2.96151,0,0,1,.2627-1.01172,2.53007,2.53007,0,0,1,.54688-.76562,2.40721,2.40721,0,0,1,.76563-.48535,2.50527,2.50527,0,0,1,.91895-.16895,2.35048,2.35048,0,0,1,.32227.02148,1.59507,1.59507,0,0,1,.31543.0752,1.36114,1.36114,0,0,1,.29688.14844,1.33728,1.33728,0,0,1,.26855.23438h.02832L49.541,35.623h4.02441l-.0752.8623Zm-4.832,2.23047a.402.402,0,0,0-.09668-.32129.41118.41118,0,0,0-.31543-.12207.55677.55677,0,0,0-.19824.03418.63155.63155,0,0,0-.16895.09277.49581.49581,0,0,0-.123.14355.448.448,0,0,0-.05566.18359.38727.38727,0,0,0,.02441.17969.42653.42653,0,0,0,.09375.14746.40769.40769,0,0,0,.14844.09668.51719.51719,0,0,0,.18848.03418.49691.49691,0,0,0,.19043-.03613.47037.47037,0,0,0,.1543-.09668.50385.50385,0,0,0,.10742-.14844A.54432.54432,0,0,0,47.7627,38.71582Z"/>
    <path d="M57.72168,39.917l-1.97949,1.584-.54687-.67383,1.64063-1.292.2666-3.0498H55.56445l-.30273,3.457H54.3418l.37793-4.31934h4.45313l-.0752.8623h-1.0752Z"/>
    <path d="M56.13574,34.24121a.73838.73838,0,0,1,.08008-.27832.81595.81595,0,0,1,.16992-.22461.77472.77472,0,0,1,.23535-.15234.70611.70611,0,0,1,.28125-.05664.63762.63762,0,0,1,.27148.05664.61475.61475,0,0,1,.21289.15234.62137.62137,0,0,1,.13184.22461.65714.65714,0,0,1,.03223.27832.70947.70947,0,0,1-.08105.27246.78312.78312,0,0,1-.1709.22363.7927.7927,0,0,1-.23828.15137.73094.73094,0,0,1-.28223.05566.65214.65214,0,0,1-.27148-.05566.62874.62874,0,0,1-.209-.15137.689.689,0,0,1-.13086-.22363A.65082.65082,0,0,1,56.13574,34.24121Z"/>
  </g>
  <path d="M29.53227,46.20785H46.383a0,0,0,0,1,0,0v.11567a1,1,0,0,1-1,1H28.53227a0,0,0,0,1,0,0v-.11567A1,1,0,0,1,29.53227,46.20785Z" style="fill: #fff"/>
  <path d="M49.6143,46.20785h4.57834a0,0,0,0,1,0,0v.11567a1,1,0,0,1-1,1H48.6143a0,0,0,0,1,0,0v-.11567A1,1,0,0,1,49.6143,46.20785Z" style="fill: #fff"/>
</svg>
