<svg id="Layer_1" data-name="Layer 1" xmlns="http://www.w3.org/2000/svg" width="65" height="65" viewBox="0 0 65 65">
  <title>news</title>
  <path d="M63.85,32.115A31.22128,31.22128,0,0,1,53.343,55.542q-.69824.61274-1.425,1.197a32.66553,32.66553,0,0,1-3.88553,2.6125,31.39123,31.39123,0,0,1-30.096.532L7.914,64.1585a.95521.95521,0,0,1-1.32051-.988L7.88553,52.445l.095-.798a32.51184,32.51184,0,0,1-2.451-3.534v-.00951a31.23982,31.23982,0,0,1-3.58146-8.892V39.202c-.11405-.513-.21854-1.01651-.304-1.539a27.46125,27.46125,0,0,1-.38-2.964c-.057-.63648-.095-1.28253-.10449-1.938C1.15,32.552,1.15,32.3335,1.15,32.115a31.67975,31.67975,0,0,1,1.6055-9.956,31.37063,31.37063,0,0,1,51.585-12.54,30.713,30.713,0,0,1,3.496,4.0375,29.0931,29.0931,0,0,1,2.36549,3.762V17.428a30.97124,30.97124,0,0,1,3.12554,9.006c.08547.46549.16148.94049.228,1.41549A30.157,30.157,0,0,1,63.85,32.115Z" style="fill: #58bff6"/>
  <polygon points="55.79 42.262 9.618 42.262 10.701 29.874 56.874 29.874 55.79 42.262" style="fill: #fff"/>
  <polygon points="44.289 32.126 7.126 32.126 8.21 19.738 45.373 19.738 44.289 32.126"/>
  <g>
    <path d="M10.50391,23.34082h1.18262l.59668,4.27539,1.49414-4.27539h1.23047l.68555,4.25244L17.043,23.34082h1.19141l-2.01953,5.50635H14.91309l-.69043-3.9209-1.42383,3.9209-1.29492.00781Z" style="fill: #fff"/>
    <path d="M22.064,24.23193H19.97314l-.12109,1.38037h1.85449l-.07666.87549H19.77539l-.12744,1.46045h2.09082l-.07861.89893H18.46484l.48242-5.51416h3.19531Z" style="fill: #fff"/>
    <path d="M25.0332,28.84717h-2.375l.48145-5.50635h2.27246c1.15137,0,1.73877.59912,1.667,1.41943a1.41919,1.41919,0,0,1-1.0498,1.2627,1.2,1.2,0,0,1,.94873,1.33252A1.7319,1.7319,0,0,1,25.0332,28.84717Zm.02686-2.38281H23.97119l-.12988,1.48389h1.1123c.53711,0,.87549-.26074.916-.72705C25.91113,26.74854,25.59619,26.46436,25.06006,26.46436Zm.11621-2.23242H24.1665l-.12109,1.38037h1.00977c.52051,0,.84131-.23633.88037-.686C25.97412,24.48486,25.69678,24.23193,25.17627,24.23193Z" style="fill: #fff"/>
    <path d="M29.624,28.90234c-1.14355,0-1.9751-.6001-1.89941-1.64111H28.9082a.68292.68292,0,0,0,.77148.7334.78656.78656,0,0,0,.88672-.66992c.10449-1.19189-2.79785-.47412-2.61572-2.46924a1.86619,1.86619,0,0,1,2.07959-1.59375c1.12891,0,1.85107.57617,1.83545,1.56934H30.65088a.65548.65548,0,0,0-.73145-.65479.70583.70583,0,0,0-.81348.647c-.09668,1.10547,2.78125.48926,2.61133,2.43018A1.92713,1.92713,0,0,1,29.624,28.90234Z" style="fill: #fff"/>
    <path d="M33.00977,23.34082h1.10449l-.48145,5.50635H32.52832Z" style="fill: #fff"/>
    <path d="M34.90918,23.34082h4.03906l-.07812.89111h-1.4668L37,28.84717H35.89551l.40332-4.61523H34.832Z" style="fill: #fff"/>
    <path d="M42.86719,24.23193H40.77637l-.12012,1.38037h1.85449l-.07715.87549H40.5791l-.12793,1.46045H42.542l-.07812.89893H39.26855L39.751,23.333h3.19531Z" style="fill: #fff"/>
  </g>
  <g>
    <path d="M15.64209,37.92383H13.44873l-.4541,1.0498H11.83447L14.29736,33.459h1.28516l1.498,5.51465h-1.168Zm-.81787-3.1875-.998,2.30371h1.59375Z"/>
    <path d="M19.71436,39.02832c-1.14355,0-1.97461-.59961-1.89941-1.64062h1.18359a.68352.68352,0,0,0,.772.7334.7869.7869,0,0,0,.88672-.66992c.10449-1.19238-2.79834-.47363-2.61621-2.46875a1.86627,1.86627,0,0,1,2.08008-1.59375c1.12891,0,1.85107.57617,1.83545,1.56836H20.7417a.65556.65556,0,0,0-.73193-.6543.70573.70573,0,0,0-.81348.64648c-.09668,1.10547,2.78125.49023,2.61182,2.43066A1.92727,1.92727,0,0,1,19.71436,39.02832Z"/>
    <path d="M24.51514,39.02832c-1.14355,0-1.97461-.59961-1.89941-1.64062h1.18359a.68352.68352,0,0,0,.772.7334.7869.7869,0,0,0,.88672-.66992c.10449-1.19238-2.79834-.47363-2.61621-2.46875a1.86627,1.86627,0,0,1,2.08008-1.59375c1.12891,0,1.85107.57617,1.83545,1.56836H25.54248a.65556.65556,0,0,0-.73193-.6543.70573.70573,0,0,0-.81348.64648c-.09668,1.10547,2.78125.49023,2.61182,2.43066A1.92727,1.92727,0,0,1,24.51514,39.02832Z"/>
    <path d="M27.90137,33.4668h1.10449l-.48193,5.50684H27.41943Z"/>
    <path d="M31.50732,39.02832c-1.14355,0-1.97461-.59961-1.89941-1.64062H30.7915a.68352.68352,0,0,0,.772.7334.7869.7869,0,0,0,.88672-.66992c.10449-1.19238-2.79834-.47363-2.61621-2.46875a1.86627,1.86627,0,0,1,2.08008-1.59375c1.12891,0,1.85156.57617,1.83594,1.56836H32.53467a.65556.65556,0,0,0-.73193-.6543.70573.70573,0,0,0-.81348.64648c-.09668,1.10547,2.78125.49023,2.6123,2.43066A1.92779,1.92779,0,0,1,31.50732,39.02832Z"/>
    <path d="M34.60156,33.4668h4.03906l-.07812.8916H37.0957l-.4043,4.61523H35.58789l.40332-4.61523H34.52344Z"/>
    <path d="M42.42871,37.92383H40.23535l-.4541,1.0498H38.62109L41.084,33.459h1.28516l1.498,5.51465h-1.168Zm-.81836-3.1875L40.6123,37.04h1.59375Z"/>
    <path d="M49.79688,33.459l-.48242,5.51465H48.21l-2.1709-3.77832L45.709,38.97363H44.60449l.48242-5.51465h1.10449l2.16895,3.78613.332-3.78613Z"/>
    <path d="M50.58789,33.4668H54.627l-.07812.8916H53.082l-.40332,4.61523H51.57422l.40332-4.61523H50.50977Z"/>
  </g>
  <line x1="25" y1="47" x2="37" y2="47" style="fill: none;stroke: #fff;stroke-linecap: round;stroke-miterlimit: 10"/>
  <line x1="41" y1="47" x2="45" y2="47" style="fill: none;stroke: #fff;stroke-linecap: round;stroke-miterlimit: 10"/>
</svg>
