<?xml version="1.0" encoding="UTF-8"?>
<!DOCTYPE svg PUBLIC "-//W3C//DTD SVG 1.1//EN" "http://www.w3.org/Graphics/SVG/1.1/DTD/svg11.dtd">
<!-- Creator: CorelDRAW 2018 (64-Bit) -->
<svg xmlns="http://www.w3.org/2000/svg" xml:space="preserve" width="100px" height="100px" version="1.1" style="shape-rendering:geometricPrecision; text-rendering:geometricPrecision; image-rendering:optimizeQuality; fill-rule:evenodd; clip-rule:evenodd"
viewBox="0 0 100 100"
 xmlns:xlink="http://www.w3.org/1999/xlink">
 <defs>
  <style type="text/css">
   <![CDATA[
    .fil2 {fill:#FEFEFE}
    .fil0 {fill:#0060AA}
    .fil1 {fill:#FEFEFE;fill-rule:nonzero}
   ]]>
  </style>
 </defs>
 <g id="Layer_x0020_1">
  <metadata id="CorelCorpID_0Corel-Layer"/>
  <polygon class="fil0" points="0,100 100,100 100,0 0,0 "/>
  <g id="_2033019963120">
   <path class="fil1" d="M39.43 55.9l0 2.12 -3.03 0 0 19.39 -2.39 0 0 -9.7 -8.36 0c-0.5,0.34 -1.12,0.54 -1.83,0.61l-0.03 0.07c0.94,1.46 1.96,2.82 3.08,4.08 1.11,1.26 2.38,2.43 3.81,3.51l-1.55 1.77c-0.82,-0.61 -1.59,-1.26 -2.33,-1.96 -0.73,-0.7 -1.42,-1.43 -2.07,-2.19 -0.66,-0.75 -1.26,-1.52 -1.83,-2.29 -0.57,-0.77 -1.08,-1.54 -1.56,-2.28 -0.47,-0.76 -0.89,-1.48 -1.27,-2.17 -0.37,-0.7 -0.7,-1.35 -0.98,-1.94l1.98 -1.07c0.18,0.42 0.36,0.77 0.54,1.06 0.18,0.28 0.36,0.51 0.54,0.67 0.18,0.17 0.37,0.3 0.58,0.37 0.2,0.07 0.42,0.1 0.65,0.1 0.66,0 1.15,-0.25 1.46,-0.77 0.31,-0.52 0.47,-1.21 0.47,-2.05 0,-0.5 -0.05,-1 -0.15,-1.48 -0.09,-0.49 -0.21,-0.95 -0.36,-1.4 -0.15,-0.45 -0.31,-0.87 -0.48,-1.26 -0.18,-0.4 -0.34,-0.75 -0.5,-1.07l-6.68 0 0 -2.12 22.29 0zm-5.42 2.12l-7.69 0c0.4,0.87 0.72,1.76 0.95,2.64 0.23,0.88 0.34,1.76 0.34,2.64 0,0.4 -0.03,0.8 -0.09,1.19 -0.06,0.39 -0.16,0.76 -0.31,1.11l0.03 0.02 6.77 0 0 -7.6zm-0.57 -6.52c0,-0.55 0.16,-0.99 0.49,-1.33 0.32,-0.34 0.74,-0.52 1.26,-0.52 0.24,0 0.46,0.05 0.68,0.15 0.22,0.09 0.41,0.23 0.57,0.4 0.17,0.16 0.29,0.36 0.39,0.59 0.08,0.22 0.13,0.47 0.13,0.74 0,0.55 -0.16,0.99 -0.48,1.33 -0.32,0.33 -0.74,0.5 -1.26,0.5 -0.25,0 -0.49,-0.04 -0.7,-0.14 -0.22,-0.09 -0.41,-0.22 -0.56,-0.39 -0.17,-0.16 -0.29,-0.36 -0.38,-0.59 -0.09,-0.22 -0.14,-0.47 -0.14,-0.74zm23.35 6.52l-3.02 0 0 19.39 -2.37 0 0 -5.15 -0.06 -0.02c-0.19,0.18 -0.42,0.37 -0.68,0.57 -0.26,0.2 -0.55,0.38 -0.89,0.53 -0.34,0.17 -0.71,0.29 -1.13,0.4 -0.42,0.11 -0.89,0.16 -1.41,0.16 -0.95,0 -1.82,-0.18 -2.6,-0.55 -0.78,-0.36 -1.46,-0.85 -2.03,-1.46 -0.57,-0.61 -1.01,-1.31 -1.32,-2.11 -0.31,-0.79 -0.47,-1.62 -0.47,-2.49 0,-0.86 0.16,-1.67 0.47,-2.41 0.31,-0.75 0.75,-1.39 1.29,-1.94 0.55,-0.55 1.19,-0.98 1.92,-1.29 0.73,-0.31 1.52,-0.47 2.35,-0.47 0.23,0 0.52,0.02 0.88,0.06 0.35,0.04 0.72,0.12 1.13,0.26 0.4,0.13 0.82,0.32 1.25,0.58 0.43,0.26 0.85,0.6 1.24,1.03l0.06 -0.01 0 -5.08 -12.98 0 0 -2.12 18.37 0 0 2.12zm-5.33 7.78c-0.61,-0.74 -1.27,-1.32 -1.98,-1.77 -0.71,-0.45 -1.52,-0.68 -2.42,-0.68 -0.71,0 -1.32,0.14 -1.81,0.41 -0.5,0.27 -0.9,0.61 -1.22,1.02 -0.32,0.41 -0.55,0.86 -0.7,1.36 -0.14,0.5 -0.21,0.98 -0.21,1.44 0,0.5 0.08,1 0.24,1.49 0.17,0.49 0.41,0.93 0.73,1.32 0.33,0.39 0.73,0.7 1.21,0.95 0.48,0.25 1.04,0.37 1.69,0.37 0.66,0 1.27,-0.13 1.81,-0.39 0.55,-0.25 1.02,-0.58 1.42,-0.97 0.39,-0.39 0.7,-0.84 0.91,-1.32 0.22,-0.5 0.33,-0.97 0.33,-1.43l0 -1.8zm13 -7.78l-3.02 0 0 19.39 -2.37 0 0 -19.39 -3.29 0 0 -2.12 8.68 0 0 2.12zm18.4 0l-4.89 0 0 6.33 -4.87 0c-1.5,0 -2.64,0.37 -3.41,1.12 -0.77,0.75 -1.15,1.81 -1.15,3.21 0,0.79 0.12,1.48 0.37,2.09 0.26,0.6 0.61,1.11 1.06,1.52 0.45,0.41 0.98,0.72 1.59,0.93 0.62,0.21 1.29,0.32 2.01,0.32 0.75,0 1.37,-0.12 1.83,-0.34 -0.04,-0.25 -0.07,-0.46 -0.09,-0.64 -0.02,-0.19 -0.02,-0.37 -0.02,-0.55 0,-0.4 0.04,-0.82 0.15,-1.25 0.1,-0.42 0.25,-0.81 0.46,-1.16 0.2,-0.36 0.47,-0.64 0.79,-0.86 0.32,-0.23 0.71,-0.33 1.16,-0.33 0.28,0 0.55,0.04 0.79,0.14 0.25,0.1 0.48,0.24 0.66,0.44 0.19,0.2 0.34,0.45 0.45,0.74 0.11,0.3 0.16,0.65 0.16,1.04 0,0.39 -0.05,0.76 -0.16,1.09 -0.1,0.33 -0.24,0.64 -0.4,0.92 -0.18,0.29 -0.36,0.55 -0.57,0.79 -0.22,0.25 -0.42,0.47 -0.62,0.67 0.21,0.47 0.43,0.88 0.67,1.24 0.23,0.37 0.48,0.7 0.73,0.99 0.25,0.29 0.51,0.55 0.77,0.78 0.26,0.23 0.52,0.45 0.78,0.65l-1.77 1.86c-0.51,-0.45 -0.95,-0.91 -1.31,-1.35 -0.36,-0.45 -0.66,-0.87 -0.91,-1.27 -0.24,-0.39 -0.44,-0.74 -0.59,-1.06 -0.16,-0.32 -0.28,-0.58 -0.38,-0.77 -0.66,0.26 -1.48,0.39 -2.45,0.39 -1.25,0 -2.34,-0.2 -3.27,-0.61 -0.94,-0.41 -1.72,-0.96 -2.34,-1.64 -0.62,-0.69 -1.08,-1.48 -1.39,-2.36 -0.31,-0.89 -0.46,-1.8 -0.46,-2.76 0,-0.99 0.16,-1.86 0.48,-2.62 0.31,-0.75 0.76,-1.39 1.32,-1.9 0.57,-0.51 1.25,-0.9 2.03,-1.17 0.78,-0.26 1.64,-0.39 2.58,-0.39l2.95 0 0 -4.23 -12.14 0 0 -2.12 19.4 0 0 2.12z"/>
   <path class="fil2" d="M32.97 20.24l33.07 0 0 2.92 -2.69 0 0 16.77 -3.84 -1.95 0 -14.82 -12.59 0 0 3.51c0.9,-1.04 2.18,-1.56 3.85,-1.56 1.25,0 2.53,0.7 3.82,2.09 1.3,1.39 1.95,2.77 1.95,4.15 0,3.11 -2.74,6.4 -5.89,7.2l-1.61 -3.49c1.61,-0.63 2.91,-1.56 3.9,-2.81 0.99,-1.25 1.48,-2.59 1.48,-4.02 0,-0.52 -0.32,-0.78 -0.96,-0.78 -0.9,0 -1.92,0.4 -3.08,1.19 -1.15,0.79 -2.3,1.89 -3.46,3.3l0 7.99 -3.84 -1.95 0 -3.12c-1.23,1.04 -2.39,1.56 -3.46,1.56 -1.34,0 -2.69,-0.7 -4.08,-2.1 -1.38,-1.41 -2.08,-2.79 -2.08,-4.14 0,-1.33 0.53,-2.47 1.58,-3.43 1.05,-0.96 2.32,-1.44 3.81,-1.44 1.87,0 3.28,0.58 4.23,1.75l0 -3.9 -10.11 0 0 -2.92zm33.08 0l23.83 0 1.17 2.92 -7.35 0 0 2.15c0.74,0 1.48,0.18 2.23,0.56 0.74,0.38 1.41,0.96 2,1.74 1.28,1.71 1.92,3.61 1.92,5.69 0,1.85 -0.64,3.41 -1.9,4.7 -1.27,1.29 -2.82,1.93 -4.64,1.93 -1.31,0 -2.78,-0.71 -4.42,-2.14 -1.18,1.43 -2.78,2.14 -4.81,2.14 -1.84,0 -3.62,-0.89 -5.32,-2.67 -1.71,-1.78 -2.56,-3.62 -2.56,-5.52 0,-1.71 0.62,-3.18 1.85,-4.41 1.23,-1.22 2.73,-1.83 4.5,-1.83 0.89,0 1.77,0.23 2.63,0.7 0.86,0.47 1.65,1.15 2.36,2.03 0.21,-0.47 0.98,-1.25 2.31,-2.34l0 -2.73 -13.8 0 0 -2.92zm4 15.21c0,0.83 0.18,1.52 0.53,2.08 0.36,0.56 0.83,0.84 1.39,0.84 0.72,0 1.38,-0.44 2,-1.32 0.61,-0.89 1.04,-2.04 1.27,-3.46 0.23,-1.41 0.74,-2.81 1.54,-4.19 -0.39,-0.52 -0.97,-0.78 -1.73,-0.78 -1.39,0 -2.57,0.66 -3.54,1.99 -0.98,1.33 -1.46,2.94 -1.46,4.84zm9.42 1.56c0.61,0.49 1.23,0.74 1.84,0.74 1.57,0 2.9,-0.79 4,-2.38 1.1,-1.59 1.66,-3.51 1.66,-5.77 0,-0.6 -0.18,-1.11 -0.54,-1.52 -0.36,-0.42 -0.82,-0.63 -1.39,-0.63 -1,0 -1.91,0.55 -2.75,1.66 -0.83,1.1 -1.39,2.5 -1.67,4.19 -0.36,1.98 -0.74,3.21 -1.15,3.71zm-70.52 -16.77l24.03 0 0 2.92 -2.46 0 0 16.77 -3.84 -1.95 0 -5.85c-0.62,0.26 -1.39,0.39 -2.31,0.39 -0.72,0 -1.51,-0.23 -2.38,-0.7 -0.88,-0.47 -1.75,-1.15 -2.62,-2.03 -0.2,1.15 -0.64,2.19 -1.31,3.14 -0.66,0.95 -1.51,1.72 -2.53,2.32 1.28,2.29 3.29,4.1 6.03,5.42 2.74,1.33 5.86,1.99 9.35,1.99 2.76,0 5.31,-0.35 7.63,-1.05 2.32,-0.7 3.75,-1.14 5.31,-2.46l0.19 0.19c-1.71,2.11 -3.26,3.16 -5.66,4.32 -2.39,1.16 -4.88,1.73 -7.47,1.73 -2.05,0 -4.19,-0.46 -6.41,-1.4 -2.21,-0.94 -4.39,-2.28 -6.53,-4.04 -2.14,-1.75 -3.79,-3.57 -4.94,-5.46 -1.16,-1.88 -1.73,-3.71 -1.73,-5.48 0,-0.65 0.12,-1.2 0.38,-1.66 0.26,-0.45 0.58,-0.68 0.96,-0.68 0.39,0 0.77,0.21 1.16,0.62 0.38,0.42 0.7,0.99 0.96,1.72 0.77,-1.38 1.15,-2.68 1.15,-3.9l-0.19 -1.95 -5.6 0 -1.17 -2.92zm8.5 2.92c1.07,1.33 1.78,3.02 2.11,5.07 0.52,0.26 1.22,0.39 2.12,0.39 2.1,0 3.77,-0.52 5,-1.56l0 -3.9 -9.23 0zm18.13 9.56c0,0.65 0.26,0.97 0.77,0.97 1.33,0 2.79,-0.61 4.36,-1.83 1.58,-1.22 2.37,-2.3 2.37,-3.24 0,-0.52 -0.26,-0.78 -0.77,-0.78 -1.31,0 -2.74,0.57 -4.29,1.72 -1.55,1.14 -2.36,2.19 -2.44,3.16z"/>
  </g>
 </g>
</svg>
