<svg id="Layer_1" data-name="Layer 1" xmlns="http://www.w3.org/2000/svg" width="65" height="65" viewBox="0 0 65 65">
  <title>news</title>
  <path d="M63.55,32.1186A30.9222,30.9222,0,0,1,53.1433,55.3213q-.6915.6069-1.4113,1.1855a32.3526,32.3526,0,0,1-3.8483,2.5875,31.0905,31.0905,0,0,1-29.8077.5269L8.15,63.8552a.9461.9461,0,0,1-1.3079-.9786l1.28-10.6227.0941-.79a32.2,32.2,0,0,1-2.4275-3.5V47.954a30.9406,30.9406,0,0,1-3.5472-8.8068v-.0094c-.113-.5081-.2164-1.0068-.3011-1.5243a27.1982,27.1982,0,0,1-.3764-2.9356c-.0565-.63-.0941-1.27-.1035-1.9195-.0094-.207-.0094-.4234-.0094-.64A31.3763,31.3763,0,0,1,3.04,22.258a31.07,31.07,0,0,1,51.0909-12.42,30.4188,30.4188,0,0,1,3.4625,3.9988,28.8144,28.8144,0,0,1,2.3428,3.726v.0094a30.6746,30.6746,0,0,1,3.0956,8.92c.0846.461.16.9315.2258,1.4019A29.8681,29.8681,0,0,1,63.55,32.1186Z" style="fill: #069"/>
  <path d="M60.4447,32.1568A27.83,27.83,0,0,1,51.079,53.0391q-.6224.5462-1.27,1.067a29.1174,29.1174,0,0,1-3.4635,2.3287,27.9815,27.9815,0,0,1-26.8269.4742L10.5846,60.72a.8515.8515,0,0,1-1.1771-.8807l1.1517-9.56.0847-.7113a28.98,28.98,0,0,1-2.1848-3.15v-.0085a27.8465,27.8465,0,0,1-3.1924-7.9261V38.474c-.1017-.4573-.1948-.9061-.271-1.3718a24.4784,24.4784,0,0,1-.3387-2.642c-.0508-.5673-.0847-1.1432-.0931-1.7275-.0085-.1863-.0085-.381-.0085-.5758a28.2387,28.2387,0,0,1,1.4311-8.8746A27.9631,27.9631,0,0,1,51.9682,12.1043a27.3769,27.3769,0,0,1,3.1163,3.5989,25.933,25.933,0,0,1,2.1085,3.3534v.0085a27.6071,27.6071,0,0,1,2.786,8.0277c.0762.4149.1439.8383.2032,1.2617A26.8813,26.8813,0,0,1,60.4447,32.1568Z" style="fill: #fff"/>
  <polygon points="54.642 41.87 11.89 41.87 12.799 31.31 55.551 31.31 54.642 41.87"/>
  <polygon points="44.66 32.27 10.93 32.27 11.76 21.71 45.49 21.71 44.66 32.27" style="fill: #069"/>
  <g>
    <path d="M12.6929,24.9966h1.124l.5659,4.0615,1.4194-4.0615H16.97l.6509,4.04,1.2827-4.04h1.1309l-1.9185,5.231H16.88l-.6558-3.7241-1.3521,3.7241-1.229.0078Z" style="fill: #fff"/>
    <path d="M23.6729,25.8442H21.6875l-.1152,1.311H23.333l-.0728.832H21.5l-.1211,1.3862h1.9854l-.0747.854H20.2549l.458-5.2378h3.0342Z" style="fill: #fff"/>
    <path d="M26.4941,30.2275H24.2383l.4575-5.231H26.854c1.0938,0,1.65.57,1.5825,1.35a1.3459,1.3459,0,0,1-.9966,1.1982,1.1408,1.1408,0,0,1,.9009,1.2666A1.6443,1.6443,0,0,1,26.4941,30.2275Zm.0254-2.2627H25.4854l-.1235,1.4087h1.0566c.51,0,.8311-.2471.87-.69C27.3276,28.2344,27.0293,27.9648,26.52,27.9648Zm.11-2.1206h-.959l-.1152,1.311h.959c.4951,0,.7993-.2246.8364-.6519C27.3882,26.0835,27.125,25.8442,26.63,25.8442Z" style="fill: #fff"/>
    <path d="M30.854,30.28c-1.0859,0-1.875-.57-1.8042-1.5586h1.124a.65.65,0,0,0,.7329.6968.7478.7478,0,0,0,.8428-.6372c.0991-1.1318-2.6577-.45-2.4839-2.3457a1.7724,1.7724,0,0,1,1.9751-1.5137c1.0713,0,1.7578.5479,1.7427,1.4912H31.8291a.6222.6222,0,0,0-.6948-.6216.6691.6691,0,0,0-.7725.6138c-.0918,1.05,2.6411.4653,2.4795,2.3086A1.83,1.83,0,0,1,30.854,30.28Z" style="fill: #fff"/>
    <path d="M34.07,24.9966h1.0488l-.458,5.231H33.6123Z" style="fill: #fff"/>
    <path d="M35.875,24.9966h3.8359l-.0742.8477H38.2441L37.86,30.2275h-1.05l.3838-4.3833H35.8008Z" style="fill: #fff"/>
    <path d="M43.4326,25.8442H41.4473l-.1152,1.311h1.7607l-.0723.832H41.26l-.1211,1.3862H43.123l-.0742.854H40.0146l.458-5.2378h3.0342Z" style="fill: #fff"/>
  </g>
  <g>
    <path d="M16.9785,38.1553h-2.083l-.4321.9971H13.3618l2.3389-5.2373h1.2217l1.4219,5.2373H17.2358Zm-.7764-3.0273-.9482,2.1885h1.5127Z" style="fill: #fff"/>
    <path d="M20.8462,39.2051c-1.0859,0-1.8745-.57-1.8037-1.5586h1.124a.65.65,0,0,0,.7329.6963.7478.7478,0,0,0,.8428-.6367c.0991-1.1318-2.6582-.4492-2.4844-2.3457a1.7732,1.7732,0,0,1,1.9756-1.5137c1.0713,0,1.7573.5479,1.7422,1.4912H21.8213a.6212.6212,0,0,0-.6943-.6211.6685.6685,0,0,0-.7725.6133c-.0918,1.05,2.6406.4648,2.4795,2.3086A1.8307,1.8307,0,0,1,20.8462,39.2051Z" style="fill: #fff"/>
    <path d="M25.4058,39.2051c-1.0859,0-1.8745-.57-1.8037-1.5586h1.124a.65.65,0,0,0,.7329.6963.7478.7478,0,0,0,.8428-.6367c.0991-1.1318-2.6582-.4492-2.4844-2.3457a1.7732,1.7732,0,0,1,1.9756-1.5137c1.0713,0,1.7573.5479,1.7422,1.4912H26.3809a.6212.6212,0,0,0-.6943-.6211.6685.6685,0,0,0-.7725.6133c-.0918,1.05,2.6406.4648,2.4795,2.3086A1.8307,1.8307,0,0,1,25.4058,39.2051Z" style="fill: #fff"/>
    <path d="M28.623,33.9219h1.0488l-.4575,5.23H28.1655Z" style="fill: #fff"/>
    <path d="M32.0483,39.2051c-1.0859,0-1.8745-.57-1.8037-1.5586h1.124a.65.65,0,0,0,.7329.6963.7478.7478,0,0,0,.8428-.6367c.0986-1.1318-2.6582-.4492-2.4844-2.3457a1.7732,1.7732,0,0,1,1.9756-1.5137c1.0713,0,1.7578.5479,1.7422,1.4912H33.0234a.6212.6212,0,0,0-.6943-.6211.6685.6685,0,0,0-.7725.6133c-.0918,1.05,2.6406.4648,2.4795,2.3086A1.83,1.83,0,0,1,32.0483,39.2051Z" style="fill: #fff"/>
    <path d="M34.9883,33.9219h3.8359l-.0742.8467H37.3564l-.3838,4.3838H35.9238l.3828-4.3838H34.9141Z" style="fill: #fff"/>
    <path d="M42.4219,38.1553h-2.083l-.4326.9971H38.8047l2.34-5.2373h1.2217l1.4209,5.2373H42.6787Zm-.7764-3.0273-.9482,2.1885H42.21Z" style="fill: #fff"/>
    <path d="M49.42,33.915l-.459,5.2373H47.9121l-2.0605-3.59-.3145,3.59H44.4883l.459-5.2373h1.0488l2.06,3.5967.3154-3.5967Z" style="fill: #fff"/>
    <path d="M50.1738,33.9219H54.01l-.0742.8467H52.542l-.3838,4.3838h-1.05l.3838-4.3838H50.1Z" style="fill: #fff"/>
  </g>
  <rect x="34.6481" y="43.39" width="12" height="0.8" rx="0.4" ry="0.4" style="fill: #069"/>
  <rect x="29.0481" y="43.39" width="4" height="0.8" rx="0.4" ry="0.4" style="fill: #069"/>
</svg>
