<svg id="Layer_1" data-name="Layer 1" xmlns="http://www.w3.org/2000/svg" width="65" height="65" viewBox="0 0 65 65">
  <title>news</title>
  <path d="M63.85,32.115A31.22128,31.22128,0,0,1,53.343,55.542q-.69824.61274-1.425,1.197a32.66553,32.66553,0,0,1-3.88553,2.6125,31.39123,31.39123,0,0,1-30.096.532L7.914,64.1585a.95521.95521,0,0,1-1.32051-.988L7.88553,52.445l.095-.798a32.51184,32.51184,0,0,1-2.451-3.534v-.00951a31.23982,31.23982,0,0,1-3.58146-8.892V39.202c-.11405-.513-.21854-1.01651-.304-1.539a27.46125,27.46125,0,0,1-.38-2.964c-.057-.63648-.095-1.28253-.10449-1.938C1.15,32.552,1.15,32.3335,1.15,32.115a31.67975,31.67975,0,0,1,1.6055-9.956,31.37063,31.37063,0,0,1,51.585-12.54,30.713,30.713,0,0,1,3.496,4.0375,29.0931,29.0931,0,0,1,2.36549,3.762V17.428a30.97124,30.97124,0,0,1,3.12554,9.006c.08547.46549.16148.94049.228,1.41549A30.157,30.157,0,0,1,63.85,32.115Z" style="fill: #2fa1b3"/>
  <polygon points="41.606 34.307 5.376 34.307 6.508 19.532 42.738 19.532 41.606 34.307"/>
  <polygon points="43.656 35.784 7.707 35.784 8.83 21.01 44.78 21.01 43.656 35.784" style="opacity: 0.2"/>
  <polygon points="56.759 48 17.045 48 18.286 34.307 58 34.307 56.759 48" style="opacity: 0.2"/>
  <polygon points="54.907 46.126 14.424 46.126 15.523 32.829 56.007 32.829 54.907 46.126" style="fill: #fff"/>
  <g>
    <path d="M25.6416,36.90527H23.32129l-.55176,6.49219H21.209l.55176-6.49219H19.47168l.11084-1.2998h6.16992Z"/>
    <path d="M27.4668,43.39746H25.958l.49219-5.791H27.959Zm-.97705-7.28906a.84933.84933,0,0,1,.27441-.57324.90247.90247,0,0,1,.63623-.22363.77075.77075,0,0,1,.59424.22363.71284.71284,0,0,1,.18066.57324.84475.84475,0,0,1-.28076.57813.91271.91271,0,0,1-.63037.22461.77609.77609,0,0,1-.59229-.22461A.71427.71427,0,0,1,26.48975,36.1084Z"/>
    <path d="M30.58105,37.60645l-.00977.66895A2.13169,2.13169,0,0,1,32.25537,37.5a1.47947,1.47947,0,0,1,1.28564.54,2.43186,2.43186,0,0,1,.31055,1.61719l-.31836,3.74023H32.0293l.31494-3.70312a.96547.96547,0,0,0-.14746-.71484.85022.85022,0,0,0-.67236-.22168,1.1326,1.1326,0,0,0-.99951.55664l-.34717,4.083H28.67383l.49219-5.791Z"/>
    <path d="M39.73828,36.18359l-.12109,1.42285h.96289l-.09668,1.13477h-.96289l-.24512,2.88965a.66964.66964,0,0,0,.08008.46094.55351.55351,0,0,0,.44629.13867,2.36224,2.36224,0,0,0,.44629-.03809l-.09961,1.17285a3.1388,3.1388,0,0,1-.92383.13867q-1.58057,0-1.47266-1.6416l.26563-3.12109h-.82227l.09668-1.13477h.82227l.12109-1.42285Z"/>
    <path d="M47.82813,37.09766A2.47642,2.47642,0,0,1,47.334,38.541a1.80415,1.80415,0,0,1-1.21484.55371l-.36621,4.30273h-1.415l.00781-.58887a2.03465,2.03465,0,0,1-1.59961.69531,1.60861,1.60861,0,0,1-1.335-.53516,2.18243,2.18243,0,0,1-.35254-1.56836l.32227-3.79395h1.50293l-.31836,3.74512q-.07764.90527.72461.90527a1.18433,1.18433,0,0,0,1.09766-.5459l.34863-4.10449h1.50879l-.06348.74414a.79741.79741,0,0,0,.52441-.332,2.13279,2.13279,0,0,0,.22168-.9209ZM44.335,35.28418h1.63867l-1.58105,1.65918H43.16992Z"/>
    <path d="M49.85938,42.25684a1.04621,1.04621,0,0,0,.69727-.23535.92247.92247,0,0,0,.32324-.626H52.29a2.18193,2.18193,0,0,1-.4043,1.07813,2.33855,2.33855,0,0,1-.9043.75977,2.71131,2.71131,0,0,1-1.20215.27051,2.21,2.21,0,0,1-1.83691-.78906,2.981,2.981,0,0,1-.51074-2.18066l.00879-.10156a3.413,3.413,0,0,1,.873-2.13574A2.59235,2.59235,0,0,1,50.2793,37.5a2.15578,2.15578,0,0,1,1.6416.61719,2.06391,2.06391,0,0,1,.50781,1.64648H51.01855a1.00389,1.00389,0,0,0-.208-.73437.81491.81491,0,0,0-.66211-.2832.98934.98934,0,0,0-.82812.39453,2.48952,2.48952,0,0,0-.376,1.27832l-.01367.16016a2.26622,2.26622,0,0,0,.15625,1.28613A.8228.8228,0,0,0,49.85938,42.25684Z"/>
  </g>
  <g>
    <path d="M16.48633,23.26367H14.166l-.55225,6.49219H12.05322l.55225-6.49219H10.31641l.11035-1.30029h6.16992Z" style="fill: #fff"/>
    <path d="M19.91846,25.416a3.77755,3.77755,0,0,0-.5376-.043,1.20213,1.20213,0,0,0-1.16846.59375l-.32227,3.78906H16.38623l.49268-5.79053h1.4209l-.01758.68994a1.53749,1.53749,0,0,1,1.32129-.79736,1.49179,1.49179,0,0,1,.46191.06934Z" style="fill: #fff"/>
    <path d="M20.18018,26.80762a3.72151,3.72151,0,0,1,.45605-1.5415,2.72,2.72,0,0,1,1.022-1.041,2.84088,2.84088,0,0,1,1.43555-.36719,2.27208,2.27208,0,0,1,1.8916.83008.87044.87044,0,0,0,.36279-.47949,3.31137,3.31137,0,0,0,.1499-.7832h.916A2.04815,2.04815,0,0,1,25.333,25.30908a3.37319,3.37319,0,0,1,.1792,1.49854l-.00977.11182a3.72655,3.72655,0,0,1-.45605,1.541A2.71855,2.71855,0,0,1,24.03223,29.499a2.83467,2.83467,0,0,1-1.43848.36377,2.31454,2.31454,0,0,1-1.8252-.74365,2.74383,2.74383,0,0,1-.60937-2.00732Zm1.46484,4.248a.74682.74682,0,0,1,.27832-.5293.94063.94063,0,0,1,.62109-.208.81712.81712,0,0,1,.5918.208.62644.62644,0,0,1,.18848.5293.76132.76132,0,0,1-.27686.53027.92909.92909,0,0,1-.62939.21436.79.79,0,0,1-.59033-.21436A.6425.6425,0,0,1,21.645,31.05566Zm.03467-4.13916a2.10737,2.10737,0,0,0,.19434,1.2627.89574.89574,0,0,0,.82617.436,1.07342,1.07342,0,0,0,.89014-.43408,2.60876,2.60876,0,0,0,.41895-1.37646,2.11525,2.11525,0,0,0-.19531-1.25244.89139.89139,0,0,0-.82617-.44775,1.06983,1.06983,0,0,0-.89014.44287A2.62348,2.62348,0,0,0,21.67969,26.9165Z" style="fill: #fff"/>
    <path d="M30.604,29.75586H29.09521l.69922-8.22021h1.50879Z" style="fill: #fff"/>
    <path d="M34.12891,27.56641l1.34766-3.60107h1.6123l-2.832,6.68945-.15039.30566a1.90273,1.90273,0,0,1-1.76172,1.13428,2.19375,2.19375,0,0,1-.65625-.10205l.09961-1.17236.228.00586a1.27234,1.27234,0,0,0,.64893-.13428.98785.98785,0,0,0,.36816-.44385l.2168-.47656-1.47754-5.80615h1.61816Zm.8418-6.03076h1.63867l-1.583,1.65869H33.80469Z" style="fill: #fff"/>
  </g>
  <rect x="31" y="51" width="14" height="1" rx="0.5" ry="0.5" style="fill: #fff"/>
  <rect x="48" y="51" width="4" height="1" rx="0.5" ry="0.5" style="fill: #fff"/>
</svg>
