<svg id="Layer_1" data-name="Layer 1" xmlns="http://www.w3.org/2000/svg" width="65" height="65" viewBox="0 0 65 65">
  <title>news</title>
  <path d="M32.5,63.5h-.00006A30.99994,30.99994,0,0,1,1.5,32.50006V32.5a31,31,0,0,1,31-31h28a3,3,0,0,1,3,3v28A31,31,0,0,1,32.5,63.5Z" style="fill: #0018fe"/>
  <polygon points="58.685 45.763 12.739 45.763 13.856 33 59.802 33 58.685 45.763" style="opacity: 0.2"/>
  <polygon points="46.816 35.553 8.527 35.553 9.644 22.79 47.932 22.79 46.816 35.553" style="opacity: 0.2"/>
  <polygon points="56.356 43.21 10.41 43.21 11.527 30.447 57.473 30.447 56.356 43.21" style="fill: #fff"/>
  <polygon points="44.487 33 6.198 33 7.315 20.237 45.603 20.237 44.487 33"/>
  <g>
    <path d="M10.09961,24.35645H11.248l.57959,4.15186,1.45068-4.15186h1.19434l.66553,4.12939,1.311-4.12939h1.15625L15.64453,29.7041H14.38086l-.67041-3.80762L12.32813,29.7041l-1.25732.00781Z" style="fill: #fff"/>
    <path d="M21.32764,25.22217H19.29736l-.11719,1.34033H20.981l-.07422.85059H19.106l-.124,1.41748h2.03027l-.07666.87354H17.833l.46875-5.35547H21.4043Z" style="fill: #fff"/>
    <path d="M24.21191,29.7041H21.90625l.46777-5.34766h2.20605c1.11816,0,1.68848.58252,1.61865,1.37939a1.37719,1.37719,0,0,1-1.019,1.22559,1.16682,1.16682,0,0,1,.9209,1.29492A1.68105,1.68105,0,0,1,24.21191,29.7041Zm.02686-2.31348H23.18115l-.126,1.43994h1.08008c.52148,0,.84912-.25293.88867-.70459C25.06445,27.666,24.75928,27.39063,24.23877,27.39063Zm.1123-2.16846h-.98047l-.11719,1.34033h.98047c.50586,0,.81689-.22949.85547-.666C25.127,25.46729,24.85693,25.22217,24.35107,25.22217Z" style="fill: #fff"/>
    <path d="M28.67236,29.75781c-1.11133,0-1.918-.582-1.84521-1.59375h1.14941a.663.663,0,0,0,.74951.71191.7636.7636,0,0,0,.86133-.65088c.10156-1.15625-2.71729-.459-2.54-2.39795a1.81191,1.81191,0,0,1,2.019-1.54687c1.0957,0,1.79785.55859,1.78174,1.52441H29.66846a.63586.63586,0,0,0-.71-.63623.68582.68582,0,0,0-.79053.62842c-.09375,1.07227,2.70068.4751,2.53613,2.35938A1.87151,1.87151,0,0,1,28.67236,29.75781Z" style="fill: #fff"/>
    <path d="M31.96191,24.35645h1.07227l-.46777,5.34766H31.49414Z" style="fill: #fff"/>
    <path d="M33.80762,24.35645h3.92188l-.0752.86572h-1.4248l-.39258,4.48193H34.76465l.39258-4.48193h-1.4248Z" style="fill: #fff"/>
    <path d="M41.53613,25.22217H39.50586l-.11719,1.34033h1.80078l-.0752.85059H39.31348l-.124,1.41748h2.03027l-.07617.87354H38.041l.46875-5.35547H41.6123Z" style="fill: #fff"/>
  </g>
  <g>
    <path d="M16.29395,38.89453H14.165l-.44189,1.01855h-1.126l2.3916-5.35547h1.248l1.4541,5.35547H16.55713ZM15.5,35.79883l-.96924,2.2373h1.54688Z"/>
    <path d="M20.251,39.9668c-1.11133,0-1.918-.582-1.84521-1.59375h1.14941a.66324.66324,0,0,0,.74951.71191.76391.76391,0,0,0,.86133-.65039c.10107-1.15723-2.71777-.459-2.54-2.39844a1.81191,1.81191,0,0,1,2.019-1.54687c1.0957,0,1.79785.55859,1.78174,1.52441H21.24707a.636.636,0,0,0-.71-.63574.68518.68518,0,0,0-.79053.62793c-.09375,1.07227,2.70068.47461,2.53564,2.35938A1.87031,1.87031,0,0,1,20.251,39.9668Z"/>
    <path d="M24.915,39.9668c-1.11133,0-1.918-.582-1.84521-1.59375h1.14941a.66324.66324,0,0,0,.74951.71191.76391.76391,0,0,0,.86133-.65039c.10107-1.15723-2.71777-.459-2.54-2.39844a1.81191,1.81191,0,0,1,2.019-1.54687c1.0957,0,1.79785.55859,1.78174,1.52441H25.91113a.636.636,0,0,0-.71-.63574.68518.68518,0,0,0-.79053.62793c-.09375,1.07227,2.70068.47461,2.53564,2.35938A1.87031,1.87031,0,0,1,24.915,39.9668Z"/>
    <path d="M28.20361,34.56543h1.07227l-.46777,5.34766H27.73584Z"/>
    <path d="M31.707,39.9668c-1.11133,0-1.918-.582-1.84521-1.59375h1.14941a.66324.66324,0,0,0,.74951.71191.76391.76391,0,0,0,.86133-.65039c.10107-1.15723-2.71777-.459-2.54-2.39844a1.81191,1.81191,0,0,1,2.019-1.54687c1.09521,0,1.79736.55859,1.78174,1.52441H32.70313a.636.636,0,0,0-.71-.63574.6847.6847,0,0,0-.79053.62793c-.09375,1.07227,2.70068.47461,2.53564,2.35938A1.87031,1.87031,0,0,1,31.707,39.9668Z"/>
    <path d="M34.71387,34.56543h3.92188l-.07617.86621h-1.4248l-.3916,4.48145H35.6709l.3916-4.48145H34.6377Z"/>
    <path d="M42.31445,38.89453H40.18555l-.44141,1.01855h-1.126l2.39063-5.35547h1.248l1.45508,5.35547H42.57813Zm-.79395-3.0957-.96875,2.2373h1.54688Z"/>
    <path d="M49.4707,34.55762l-.46777,5.35547H47.93066l-2.1084-3.66992L45.502,39.91309H44.42969l.46777-5.35547h1.07227l2.10742,3.67773.32129-3.67773Z"/>
    <path d="M50.24316,34.56543H54.165l-.07617.86621h-1.4248l-.3916,4.48145H51.2002l.3916-4.48145H50.167Z"/>
  </g>
  <path d="M33,48H48a0,0,0,0,1,0,0v0a1,1,0,0,1-1,1H32a0,0,0,0,1,0,0v0A1,1,0,0,1,33,48Z" style="fill: #fff"/>
  <path d="M51,48h3a0,0,0,0,1,0,0v0a1,1,0,0,1-1,1H50a0,0,0,0,1,0,0v0A1,1,0,0,1,51,48Z" style="fill: #fff"/>
</svg>
