<svg xmlns="http://www.w3.org/2000/svg" xmlns:xlink="http://www.w3.org/1999/xlink" width="120" height="120" viewBox="0 0 120 120"><defs><style>.a,.f{fill:#fff;}.b{clip-path:url(#a);}.c{fill:#ffbe00;}.d{fill:url(#b);}.e{mix-blend-mode:screen;fill:url(#c);}.e,.j{isolation:isolate;}.f,.g,.h,.i{fill-rule:evenodd;}.g{fill:url(#d);}.h{fill:url(#e);}.i{fill:url(#f);}.j{opacity:0.2;mix-blend-mode:overlay;}.k{opacity:0.1;}.l{fill:none;}.m{opacity:0.22;}</style><clipPath id="a"><rect class="a" width="120" height="120" rx="5" transform="translate(34 34)"/></clipPath><linearGradient id="b" x1="0.5" y1="-0.16" x2="0.5" y2="0.902" gradientUnits="objectBoundingBox"><stop offset="0" stop-color="#91dd00"/><stop offset="0.299" stop-color="#64c211"/><stop offset="1" stop-color="#00853a"/></linearGradient><linearGradient id="c" x1="0.5" y1="0.024" x2="0.5" y2="0.958" gradientUnits="objectBoundingBox"><stop offset="0" stop-color="#91dd00"/><stop offset="0.044" stop-color="#7fc200"/><stop offset="0.128" stop-color="#619400"/><stop offset="0.219" stop-color="#476c00"/><stop offset="0.313" stop-color="#314b00"/><stop offset="0.414" stop-color="#1f2f00"/><stop offset="0.522" stop-color="#111a00"/><stop offset="0.643" stop-color="#070b00"/><stop offset="0.784" stop-color="#010200"/><stop offset="1"/></linearGradient><radialGradient id="d" cx="0.497" cy="0.499" r="0.409" gradientTransform="translate(-24257.598 -1078.865) scale(4.047 0.894)" gradientUnits="objectBoundingBox"><stop offset="0.302" stop-color="#96ff00"/><stop offset="0.414" stop-color="#91fb00"/><stop offset="0.528" stop-color="#85f100"/><stop offset="0.644" stop-color="#71e100"/><stop offset="0.76" stop-color="#54c900"/><stop offset="0.877" stop-color="#2fab00"/><stop offset="0.993" stop-color="#028700"/><stop offset="1" stop-color="#008500"/></radialGradient><radialGradient id="e" cx="0.498" cy="0.5" r="0.414" gradientTransform="translate(-11984.776 -1165.989) scale(2.926 0.894)" xlink:href="#d"/><radialGradient id="f" cx="0.497" cy="0.498" r="0.404" gradientTransform="translate(-73014.625 -1637.816) scale(5.478 0.894)" xlink:href="#d"/></defs><g class="b" transform="translate(-34 -34)"><g transform="translate(33.983 33.996)"><rect class="c" width="120" height="120.004" transform="translate(0)"/><g transform="translate(0 64.27)"><g transform="translate(0)"><rect class="d" width="119.93" height="52.019" transform="translate(0 3.715)"/><rect class="e" width="119.93" height="25.481" transform="translate(0 3.715)"/><path class="f" d="M399.749,566.6v0Z" transform="translate(-339.784 -545.754)"/><path class="g" d="M399.733,570.281l0-.016a.07.07,0,0,1,.006-.01C399.733,570.264,399.734,570.273,399.733,570.281Z" transform="translate(-339.766 -548.868)"/><path class="h" d="M399.73,569.97a.06.06,0,0,1-.008-.016.037.037,0,0,1,.008-.008Z" transform="translate(-339.761 -548.606)"/><path class="i" d="M399.742,427.222l0,0c0-.005,0-.009,0-.014Z" transform="translate(-339.776 -427.205)"/><g class="j" transform="translate(0 3.715)"><path d="M0,464.089l21.743-12.117H17.634L0,460.08Z" transform="translate(0 -451.972)"/><path d="M0,483.386l36.213-31.414H32.1L0,472.906Z" transform="translate(0 -451.972)"/><path d="M50.684,451.972H46.57L0,503.991H24l26.682-52.019" transform="translate(0 -451.972)"/><path d="M512.4,503.991l-46.554-52.019h-4.114l26.682,52.019Z" transform="translate(-392.469 -451.972)"/><path d="M594.393,472.837l-32.088-20.865H558.2l36.2,31.316Z" transform="translate(-474.464 -451.972)"/><path d="M676.359,460.028l-17.618-8.056h-4.114l21.732,12.057Z" transform="translate(-556.429 -451.972)"/></g><path class="k" d="M335.992,451.906l-9.662,52.029h22.027l-9.606-52.029Z" transform="translate(-277.379 -448.201)"/></g></g><rect class="l" width="120" height="120.004" transform="translate(0)"/></g><rect class="m" width="120" height="52" transform="translate(34 102)"/></g></svg>