<svg id="Capa_1" enable-background="new 0 0 497.002 497.002" height="512" viewBox="0 0 497.002 497.002" width="512" xmlns="http://www.w3.org/2000/svg"><g><path d="m418.363 439.577 53.033 53.033c5.855 5.855 15.358 5.855 21.213 0s5.855-15.358 0-21.213l-53.033-53.033h-21.213z" fill="#ff7a3c"/><path d="m397.15 418.364 21.213 21.213 21.214-21.213-21.214-21.213h-21.213z" fill="#ff372b"/><path d="m375.937 397.151 21.213 21.213 21.213-21.213-21.213-21.213h-21.213z" fill="#ffba48"/><path d="m355.634 348.135h30v45h-30z" fill="#0ab84f" transform="matrix(.707 -.707 .707 .707 -153.522 370.634)"/><path d="m322.747 227.289-53.033 53.033-239.715-239.715-21.213 21.213c-11.717 11.717-11.71 30.717 0 42.426l287.602 287.602c11.717 11.717 30.71 11.717 42.426 0l21.213-21.213 5.146-100.92z" fill="#ffba48"/><path d="m104.245 8.787c-11.71-11.71-30.71-11.717-42.426 0l-31.82 31.82c-11.717 11.717-11.71 30.717 0 42.426l218.502 218.502 74.246-74.246z" fill="#ffd185"/><path d="m290.927 343.961 26.673 26.673c11.717 11.717 30.71 11.717 42.426 0l31.82-31.82c11.717-11.717 11.717-30.71 0-42.426l-26.673-26.673z" fill="#ffd185"/><path d="m78.638 439.577-53.033 53.033c-5.855 5.855-15.358 5.855-21.213 0s-5.855-15.358 0-21.213l53.033-53.033h21.213z" fill="#ff7a3c"/><path d="m99.852 418.364-21.214 21.213-21.213-21.213 21.213-21.213h21.214z" fill="#ff372b"/><path d="m121.065 397.151-21.213 21.213-21.214-21.213 21.214-21.213h21.213z" fill="#ffba48"/><path d="m103.868 355.635h45v30h-45z" fill="#0ab84f" transform="matrix(.707 -.707 .707 .707 -225.066 197.912)"/><path d="m488.216 61.82-21.213-21.213-330.028 330.028 21.213 21.213c11.717 11.717 30.71 11.717 42.426 0l287.602-287.602c11.71-11.71 11.717-30.709 0-42.426z" fill="#ffd185"/><path d="m467.003 40.607-31.82-31.82c-11.717-11.717-30.717-11.71-42.426 0l-287.602 287.601c-11.717 11.717-11.717 30.71 0 42.426l31.82 31.82c11.717 11.717 30.71 11.717 42.426 0l287.602-287.601c11.709-11.71 11.716-30.71 0-42.426z" fill="#ffe8c2"/><circle cx="248.503" cy="37.5" fill="#ff372b" r="37.5"/></g></svg>