<svg id="Layer_1" data-name="Layer 1" xmlns="http://www.w3.org/2000/svg" width="65" height="65" viewBox="0 0 65 65">
  <title>news</title>
  <path d="M32.5,63.5h0a31,31,0,0,1-31-31h0a31,31,0,0,1,31-31H62A1.5,1.5,0,0,1,63.5,3V32.5A31,31,0,0,1,32.5,63.5Z" style="fill: #119fcf"/>
  <path d="M32.5,59.78h0A27.28,27.28,0,0,1,5.22,32.5h0A27.28,27.28,0,0,1,32.5,5.22H58.46a1.32,1.32,0,0,1,1.32,1.32V32.5A27.28,27.28,0,0,1,32.5,59.78Z" style="fill: #191919"/>
  <polygon points="54.86 40.6 12.86 40.6 13.805 29.8 55.805 29.8 54.86 40.6" style="fill: #fff"/>
  <polygon points="44.795 32.2 11.195 32.2 12.14 21.4 45.74 21.4 44.795 32.2" style="fill: #119fcf"/>
  <g>
    <path d="M13.6514,24.4976h1.0811l.5439,3.9058,1.3643-3.9058h1.123l.626,3.8833,1.2324-3.8833H20.71l-1.8442,5.0293H17.6772l-.63-3.5811-1.3,3.5811-1.1812.0068Z" style="fill: #fff"/>
    <path d="M24.209,25.3115H22.3l-.11,1.2612h1.6934l-.07.8H22.12l-.1167,1.333h1.9092l-.0718.8208h-2.917l.44-5.0361h2.917Z" style="fill: #fff"/>
    <path d="M26.9214,29.5269h-2.168l.44-5.0293h2.0742c1.0518,0,1.5869.5479,1.5215,1.2979a1.2966,1.2966,0,0,1-.9585,1.1528,1.0961,1.0961,0,0,1,.8662,1.2168A1.5809,1.5809,0,0,1,26.9214,29.5269Zm.0244-2.1758h-.9941l-.1187,1.355h1.0156c.49,0,.7993-.2383.8364-.6636C27.7227,27.61,27.436,27.3511,26.9458,27.3511Zm.106-2.04H26.13l-.11,1.2612h.9219c.4756,0,.7681-.2163.8037-.627C27.7808,25.5425,27.5273,25.3115,27.0518,25.3115Z" style="fill: #fff"/>
    <path d="M31.1143,29.5776c-1.0439,0-1.8027-.5479-1.7344-1.499h1.08a.625.625,0,0,0,.7051.67.718.718,0,0,0,.81-.6123c.0952-1.0884-2.5537-.4326-2.3877-2.2559a1.7044,1.7044,0,0,1,1.8989-1.4556c1.03,0,1.69.5264,1.6753,1.4341H32.0518a.5994.5994,0,0,0-.6675-.5981.6453.6453,0,0,0-.7432.5913c-.0884,1.0088,2.5386.4468,2.3843,2.2192A1.7594,1.7594,0,0,1,31.1143,29.5776Z" style="fill: #fff"/>
    <path d="M34.208,24.4976h1.0078l-.44,5.0293H33.7676Z" style="fill: #fff"/>
    <path d="M35.9424,24.4976H39.63l-.0713.814h-1.34L37.85,29.5269H36.8418l.3691-4.2153h-1.34Z" style="fill: #fff"/>
    <path d="M43.209,25.3115H41.3l-.11,1.2612h1.6934l-.07.8H41.1191l-.1162,1.333h1.9092l-.0723.8208h-2.917l.4414-5.0361h2.917Z" style="fill: #fff"/>
  </g>
  <g>
    <path d="M18.1709,37.5693h-2.002l-.415.959H14.6953l2.2485-5.0371h1.1738l1.3667,5.0371H18.4189Zm-.7466-2.91-.9116,2.1025h1.4551Z"/>
    <path d="M21.8911,38.5781c-1.0439,0-1.8027-.5479-1.7339-1.499h1.08a.6249.6249,0,0,0,.7051.6709.7175.7175,0,0,0,.8091-.6123c.0952-1.0889-2.5537-.4326-2.3872-2.2559a1.7036,1.7036,0,0,1,1.8984-1.4561c1.03,0,1.6895.5264,1.6753,1.4346H22.8286a.5993.5993,0,0,0-.6675-.5986.646.646,0,0,0-.7432.5918c-.0879,1.0088,2.5391.4463,2.3843,2.2188A1.7594,1.7594,0,0,1,21.8911,38.5781Z"/>
    <path d="M26.2759,38.5781c-1.0439,0-1.8027-.5479-1.7339-1.499h1.08a.6249.6249,0,0,0,.7051.6709.7175.7175,0,0,0,.8091-.6123c.0952-1.0889-2.5537-.4326-2.3872-2.2559a1.7036,1.7036,0,0,1,1.8984-1.4561c1.03,0,1.6895.5264,1.6753,1.4346H27.2134a.5993.5993,0,0,0-.6675-.5986.646.646,0,0,0-.7432.5918c-.0879,1.0088,2.5391.4463,2.3843,2.2188A1.7594,1.7594,0,0,1,26.2759,38.5781Z"/>
    <path d="M29.37,33.498h1.0078l-.44,5.03H28.93Z"/>
    <path d="M32.6616,38.5781c-1.0439,0-1.8027-.5479-1.7339-1.499h1.08a.6249.6249,0,0,0,.7051.6709.719.719,0,0,0,.8105-.6123c.0947-1.0889-2.5562-.4326-2.3887-2.2559a1.7036,1.7036,0,0,1,1.8984-1.4561c1.03,0,1.69.5264,1.6758,1.4346H33.6a.5994.5994,0,0,0-.668-.5986.646.646,0,0,0-.7432.5918c-.0879,1.0088,2.5391.4463,2.3838,2.2188A1.7593,1.7593,0,0,1,32.6616,38.5781Z"/>
    <path d="M35.4893,33.498h3.6875l-.0713.8145h-1.34l-.3691,4.2158H36.3887l.3691-4.2158h-1.34Z"/>
    <path d="M42.6367,37.5693h-2.002l-.415.959H39.1611l2.248-5.0371H42.583L43.95,38.5283H42.8848Zm-.7461-2.91-.9121,2.1025h1.4551Z"/>
    <path d="M49.3652,33.4912l-.44,5.0371H47.916l-1.9814-3.4521-.3018,3.4521H44.625l.44-5.0371h1.0078l1.98,3.459.3027-3.459Z"/>
    <path d="M50.0908,33.498h3.6875l-.0713.8145h-1.34l-.3691,4.2158H50.99l.3691-4.2158H50.02Z"/>
  </g>
  <path d="M32.7,42.15H52a0,0,0,0,1,0,0v0a.7.7,0,0,1-.7.7H32a0,0,0,0,1,0,0v0A.7.7,0,0,1,32.7,42.15Z" style="fill: #fff"/>
  <path d="M27.7,42.15H30a0,0,0,0,1,0,0v0a.7.7,0,0,1-.7.7H27a0,0,0,0,1,0,0v0A.7.7,0,0,1,27.7,42.15Z" style="fill: #fff"/>
</svg>
