<?xml version="1.0" encoding="UTF-8"?>
<!DOCTYPE svg PUBLIC "-//W3C//DTD SVG 1.1//EN" "http://www.w3.org/Graphics/SVG/1.1/DTD/svg11.dtd">
<!-- Creator: CorelDRAW X8 -->
<svg xmlns="http://www.w3.org/2000/svg" xml:space="preserve" width="10.1438in" height="2.317in" version="1.1" style="shape-rendering:geometricPrecision; text-rendering:geometricPrecision; image-rendering:optimizeQuality; fill-rule:evenodd; clip-rule:evenodd"
viewBox="0 0 10144 2317"
 xmlns:xlink="http://www.w3.org/1999/xlink">
 <defs>
  <style type="text/css">
   <![CDATA[
    .fil0 {fill:#2E2E2E}
    .fil1 {fill:#F0F0F0}
    .fil2 {fill:url(#id0)}
   ]]>
  </style>
  <linearGradient id="id0" gradientUnits="userSpaceOnUse" x1="6791.27" y1="161.858" x2="6705.96" y2="2059.98">
   <stop offset="0" style="stop-opacity:1; stop-color:#3325BB"/>
   <stop offset="0.74902" style="stop-opacity:1; stop-color:#7F13A9"/>
   <stop offset="1" style="stop-opacity:1; stop-color:#CC0096"/>
  </linearGradient>
 </defs>
 <g id="Layer_x0020_1">
  <metadata id="CorelCorpID_0Corel-Layer"/>
  <g id="_675850672">
   <path class="fil0" d="M3782 0c123,0 246,0 370,0 -25,113 -48,227 -73,340 -123,-1 -246,0 -369,-1 24,-113 48,-226 72,-339z"/>
   <path class="fil0" d="M285 9c132,-1 263,0 394,0 -86,406 -173,812 -259,1219 -18,87 -27,185 21,265 43,69 127,98 204,105 119,10 246,-5 345,-77 88,-63 138,-166 159,-270 84,-392 167,-783 250,-1174 6,-23 7,-46 17,-68 130,-1 261,0 392,0 -76,358 -152,716 -229,1074 -24,112 -43,225 -86,331 -61,158 -170,300 -317,387 -183,111 -405,138 -615,129 -157,-8 -322,-50 -437,-162 -87,-82 -124,-203 -124,-319 -2,-112 27,-221 49,-329 79,-371 158,-741 236,-1111z"/>
   <g>
    <path class="fil0" d="M4483 9c124,0 248,-1 372,0 -48,225 -96,450 -144,675 86,-95 195,-174 321,-203 113,-26 235,-21 341,29 124,59 211,184 233,319 25,151 -1,305 -43,451 -49,165 -134,320 -254,443 -97,99 -226,167 -363,185 -110,14 -227,10 -327,-44 -63,-33 -113,-89 -147,-151 -11,56 -24,111 -35,168 -117,1 -235,0 -352,0 133,-624 265,-1248 398,-1872l0 0zm429 777c-58,11 -113,38 -157,77 -81,73 -124,178 -153,281 -27,101 -45,209 -15,312 15,55 53,107 107,130 91,39 200,29 283,-25 101,-61 169,-163 203,-274 31,-97 51,-201 39,-303 -9,-63 -33,-129 -88,-165 -63,-43 -146,-45 -219,-33z"/>
   </g>
   <path class="fil0" d="M8315 136c123,0 246,-1 369,0 -26,121 -52,243 -77,364 74,0 149,0 224,0 -18,85 -36,170 -54,254 -75,1 -151,0 -226,1 -53,247 -105,494 -158,741 -6,31 -15,62 -7,93 4,21 26,27 44,31 55,9 110,7 166,3 -20,93 -40,186 -60,280 -128,2 -257,11 -384,-13 -53,-10 -112,-30 -139,-80 -34,-61 -25,-134 -12,-199 60,-286 121,-571 181,-856 -63,0 -126,0 -189,-1 18,-84 35,-170 54,-254 63,0 127,0 190,0 26,-122 52,-243 78,-364z"/>
   <path class="fil0" d="M2705 483c115,-26 241,-25 353,20 80,35 152,99 181,183 26,76 21,159 4,237 -67,319 -136,638 -203,958 -124,1 -247,0 -371,0 59,-279 119,-559 178,-838 13,-62 21,-129 -6,-188 -19,-43 -64,-70 -109,-78 -104,-19 -218,9 -298,80 -70,59 -110,146 -129,234 -57,263 -112,527 -168,790 -124,0 -247,1 -370,0 98,-460 195,-921 293,-1381 118,0 237,0 355,0 -15,70 -30,139 -44,209 85,-107 199,-194 334,-226z"/>
   <path class="fil0" d="M9126 610c110,-89 251,-128 390,-139 122,-10 247,-8 364,28 84,27 170,71 216,149 51,85 53,188 44,284 -121,1 -242,0 -363,0 0,-51 -5,-111 -48,-145 -57,-40 -130,-42 -196,-41 -67,4 -141,14 -190,63 -29,32 -50,85 -21,122 31,38 81,50 126,64 124,38 255,44 378,85 71,24 142,56 191,114 42,49 62,114 60,178 -5,142 -76,277 -184,369 -95,84 -217,134 -342,156 -109,19 -221,22 -332,13 -115,-11 -231,-41 -326,-109 -52,-37 -92,-91 -112,-152 -24,-72 -22,-151 -11,-226 127,0 253,0 380,0 -6,45 -6,95 23,132 36,48 98,66 155,74 96,14 198,4 287,-40 51,-25 91,-90 68,-146 -23,-41 -72,-53 -114,-64 -95,-26 -193,-41 -290,-59 -97,-21 -196,-50 -273,-115 -57,-48 -89,-123 -87,-197 4,-155 85,-304 207,-398z"/>
   <path class="fil0" d="M3672 500c124,0 248,0 372,0 -98,460 -196,920 -293,1381 -124,1 -248,0 -372,0 98,-460 196,-920 293,-1381z"/>
   <g id="_675849232">
    <ellipse class="fil1" cx="6755" cy="2052" rx="1090" ry="265"/>
    <path class="fil2" d="M7600 500c29,0 50,24 47,53 -3,29 -27,52 -56,52 -28,0 -49,-23 -46,-52 2,-29 27,-53 55,-53zm-75 144c25,17 38,10 74,10l68 164c-95,69 -75,165 -14,181l-72 207c-29,-7 -68,-30 -94,-43 7,-45 26,-126 23,-173 -48,0 -58,-8 -109,-8 -1,-29 6,-63 10,-88 8,-41 8,-33 40,-50 90,-47 106,-190 -27,-190 -66,0 -72,44 -101,56 -37,16 -110,-3 -146,-4 -211,-7 -92,12 -102,-164 -43,-10 -65,-8 -117,-8 0,-27 8,-65 16,-90 19,-64 45,-97 94,-120 28,-12 43,-22 77,-23 15,49 63,58 111,55 53,-3 67,-33 97,-55 43,10 48,23 78,43 -11,27 -15,82 -19,119 -7,62 -22,105 15,105 52,0 35,-49 45,-103 28,2 30,6 51,17 -7,32 -77,109 2,162zm-105 58c28,0 49,23 47,52 -3,29 -28,52 -56,52 -28,0 -49,-23 -47,-52 3,-29 28,-52 56,-52zm-51 150c-6,32 -17,106 -26,130 -49,0 -70,-9 -126,-9 -11,-21 -11,-35 -27,-53 -36,-40 -47,18 -19,-154l126 0c22,44 19,72 72,86zm-113 -657c28,0 49,23 47,52 -3,29 -28,52 -56,52 -28,0 -49,-23 -47,-52 3,-29 28,-52 56,-52zm452 664c28,0 49,24 47,52 -3,29 -28,53 -56,53 -28,0 -49,-24 -47,-53 3,-28 28,-52 56,-52zm-591 261c-2,-35 28,-31 52,-47 19,-13 27,-40 51,-40l235 9c2,55 -20,93 -16,155 35,19 61,35 100,55 32,15 69,42 98,49 6,103 -8,140 -6,198 -50,4 -76,29 -87,70 -18,75 43,67 -20,102 -12,-45 -6,-107 -10,-172 145,-82 58,-207 -12,-207 -98,0 -71,69 -112,69l-151 -9c-2,-34 -13,-79 -20,-116 -18,-98 0,-91 -101,-91l-1 -25zm-59 -125c3,-29 28,-52 56,-52 28,0 49,23 47,52 -3,29 -28,52 -56,52 -28,0 -49,-23 -47,-52zm37 -99c-51,4 -149,89 -55,179 1,2 3,3 5,4 1,2 7,7 8,9 16,19 11,-11 13,23 3,44 -26,26 -40,26l-159 0c-6,-104 60,-451 77,-552l67 0c-1,30 -9,67 -15,100 -14,85 -8,73 117,73 2,49 -11,96 -18,138zm82 396c31,195 20,91 188,123 72,14 33,57 99,75l11 190c-153,86 -62,145 -47,198 -9,15 -26,41 -39,51 -22,-5 -31,-15 -50,-26 -11,-87 -23,-108 -12,-172 -57,-38 -64,-26 -168,-26l-4 -60c132,-32 82,-207 -28,-207 -75,0 -76,70 -111,73 -230,21 -180,-2 -164,-259 2,-35 -5,-63 26,-63 44,0 89,-4 132,2 37,5 80,1 120,5 38,4 32,6 47,96zm471 262c29,0 49,24 47,52 -3,29 -28,53 -56,53 -28,0 -49,-24 -46,-53 2,-28 27,-52 55,-52zm-148 -212c29,0 49,23 47,52 -3,29 -28,52 -56,52 -28,0 -49,-23 -46,-52 2,-29 27,-52 55,-52zm0 391c29,0 49,23 47,52 -3,29 -28,52 -56,52 -28,0 -49,-23 -46,-52 2,-29 27,-52 55,-52zm-363 -246c28,0 49,23 46,52 -2,29 -27,52 -55,52 -29,0 -50,-23 -47,-52 2,-29 27,-52 56,-52zm-103 81c19,67 70,61 72,94 4,72 -52,104 165,104 -1,42 -2,18 3,60 2,26 3,52 5,78 -33,18 -61,35 -62,86 -69,0 -106,-9 -168,-9 -18,-57 -75,-97 -154,-77 -12,-20 -55,-82 -56,-104 -5,-71 -7,-184 2,-241 70,0 117,9 193,9zm296 388c28,0 49,24 46,53 -2,28 -27,52 -55,52 -29,0 -50,-24 -47,-52 2,-29 27,-53 56,-53zm-332 42c-2,29 -27,52 -55,52 -29,0 -50,-23 -47,-52 2,-29 27,-52 56,-52 28,0 49,23 46,52zm-305 -1421l67 0c2,47 -75,452 -69,543l-134 0c-42,0 -38,-8 -76,-9 11,-65 12,-40 57,-75 75,-57 44,-149 -20,-166 -4,-68 7,-86 8,-138l134 0c6,-28 6,-13 12,-37l21 -118zm-221 174c-4,108 -24,106 -57,125 -90,51 26,64 -187,45 -1,-30 3,-36 7,-67 0,0 3,-33 4,-36 12,-46 73,-26 86,-95 28,0 105,-4 126,0 28,6 22,9 21,28zm136 -590c28,0 49,23 46,52 -2,29 -27,52 -55,52 -29,0 -49,-23 -47,-52 3,-29 28,-52 56,-52zm-109 97c5,39 31,60 70,60 89,0 64,0 123,-43 31,8 95,49 96,78 7,114 -8,117 -7,163 -164,0 -134,-25 -166,164l-276 -17c-115,-200 -337,79 -152,129l-17 121c-17,19 -93,8 -126,8 -16,40 -13,105 -24,148 -10,40 -73,56 -114,59l-19 -189c-3,-43 90,-30 84,-138 -2,-33 -24,-52 -38,-78 37,-10 97,-95 135,-129 23,-21 24,-14 65,-18 45,-4 86,-36 98,-75 19,-66 -42,-94 59,-97l-28 95c67,35 57,-10 117,-171 6,-16 10,-35 20,-45 18,-17 66,-25 100,-25zm-25 646c28,0 49,24 46,52 -2,29 -27,53 -55,53 -29,0 -49,-24 -47,-53 3,-28 28,-52 56,-52zm-198 -207c-3,29 -28,53 -56,53 -28,0 -49,-24 -46,-53 2,-28 27,-52 55,-52 29,0 49,24 47,52zm-187 276c59,0 82,9 143,9 57,-1 89,5 134,8 9,65 61,47 63,87 4,56 -34,27 -81,34 -35,6 -30,24 -40,59 -55,195 -38,131 -225,131 -11,-39 -43,-78 -88,-78 -166,0 -172,171 -55,198 2,45 0,144 -7,181 -70,-37 -5,-35 -32,-110 -14,-42 -45,-67 -95,-71 -4,-63 5,-145 14,-198l195 -70c81,-27 45,-7 74,-180zm-221 -211c28,0 49,23 47,52 -3,29 -28,52 -56,52 -28,0 -49,-23 -47,-52 3,-29 28,-52 56,-52zm264 -338c28,0 49,23 47,52 -3,29 -28,52 -56,52 -28,0 -49,-23 -47,-52 3,-29 28,-52 56,-52zm-37 937l192 8c41,-69 17,-18 46,-102 10,-30 29,-69 34,-104 67,0 114,3 168,8 72,6 138,-17 148,17 2,8 -20,269 -21,311 -55,-13 -125,-9 -192,-9 -18,-33 -10,-36 -43,-63 -108,-88 -281,84 -92,184 -11,24 -10,-17 -6,51 -200,0 -186,-38 -172,190 -24,12 -27,10 -49,26 -12,-17 -16,-18 -28,-33 -11,-13 -17,-24 -26,-36 58,-99 28,-142 -61,-190 -4,-65 2,-108 -2,-181 17,-12 38,-22 55,-36 27,-22 23,-41 49,-41zm-250 163c-3,28 -28,52 -56,52 -28,0 -49,-24 -47,-52 3,-29 28,-53 56,-53 28,0 49,24 47,53zm619 18l201 8c2,53 -8,135 -5,190 3,96 6,40 -42,146 -26,0 -134,-32 -155,69 -67,0 -110,-8 -167,-8 -14,-49 -32,-75 -80,-86 -10,-167 -44,-138 159,-138 14,-36 13,-51 10,-104 46,-33 54,-21 79,-77zm-489 -269c28,0 49,23 47,52 -3,29 -28,52 -56,52 -28,0 -49,-23 -47,-52 3,-29 28,-52 56,-52zm3 399c29,0 49,24 47,53 -3,28 -28,52 -56,52 -28,0 -49,-24 -46,-52 2,-29 27,-53 55,-53zm388 -215c28,0 49,23 47,52 -3,29 -28,52 -56,52 -28,0 -49,-23 -47,-52 3,-29 28,-52 56,-52zm253 522c-3,29 -28,52 -56,52 -28,0 -49,-23 -47,-52 3,-29 28,-52 56,-52 28,0 49,23 47,52zm-385 -26c-2,29 -27,52 -56,52 -28,0 -49,-23 -46,-52 2,-29 27,-52 55,-52 29,0 50,23 47,52z"/>
   </g>
  </g>
 </g>
</svg>
