<svg id="Layer_1" data-name="Layer 1" xmlns="http://www.w3.org/2000/svg" width="65" height="65" viewBox="0 0 65 65">
  <title>news</title>
  <path d="M60.92611,33.55437a28.56436,28.56436,0,0,1-10.74218,18.625l-.858.64447a26.5376,26.5376,0,0,1-5.58644,3.16588,13.84477,13.84477,0,0,0-1.45737.70961L29.52924,63.98292a1.02842,1.02842,0,0,1-1.42988-1.353l2.218-4.43593c-.59238-.03421-1.18475-.10255-1.78846-.1823A28.70316,28.70316,0,1,1,60.92611,33.55437Z" style="fill: #f88c00"/>
  <g>
    <polygon points="41.213 31.043 8.539 31.043 9.56 17.719 42.234 17.719 41.213 31.043"/>
    <polygon points="43.062 32.376 10.642 32.376 11.655 19.051 44.075 19.051 43.062 32.376" style="opacity: 0.2"/>
    <polygon points="55.328 44.368 19.063 44.368 20.196 31.043 56.461 31.043 55.328 44.368" style="opacity: 0.2"/>
    <polygon points="53.209 41.703 16.699 41.703 17.69 29.711 54.2 29.711 53.209 41.703" style="fill: #fff"/>
    <g>
      <path d="M26.46387,32.81641H24.48926l-.46973,5.52344H22.69141l.46973-5.52344H21.21289l.09424-1.10742h5.251Z"/>
      <path d="M28.0166,38.33984H26.73242l.41895-4.92676h1.28418Zm-.832-6.20264a.72247.72247,0,0,1,.23389-.48682.77212.77212,0,0,1,.541-.19141.65776.65776,0,0,1,.50586.19141.60375.60375,0,0,1,.15381.48682.71456.71456,0,0,1-.23877.49219.77285.77285,0,0,1-.53662.19043.65811.65811,0,0,1-.50342-.19043A.60764.60764,0,0,1,27.18457,32.13721Z"/>
      <path d="M30.667,33.41309l-.0083.56836a1.81387,1.81387,0,0,1,1.43311-.66016,1.25849,1.25849,0,0,1,1.09375.46,2.068,2.068,0,0,1,.26367,1.375l-.27051,3.18359h-1.2793l.26855-3.15137a.827.827,0,0,0-.126-.6084.72555.72555,0,0,0-.57227-.18848.9659.9659,0,0,0-.85107.47363l-.29541,3.47461h-1.2793l.41895-4.92676Z"/>
      <path d="M38.46,32.20117l-.10352,1.21191h.81836l-.082.96484h-.81836l-.209,2.459a.56314.56314,0,0,0,.06836.3916.46344.46344,0,0,0,.37891.11914,2.009,2.009,0,0,0,.37891-.03223l-.085.99707a2.652,2.652,0,0,1-.78418.11914q-1.34619,0-1.25293-1.39844l.22559-2.65527h-.7002l.082-.96484h.7002l.10352-1.21191Z"/>
      <path d="M45.34375,32.97949a2.10677,2.10677,0,0,1-.4209,1.22852,1.53714,1.53714,0,0,1-1.03418.4707l-.31152,3.66113H42.373l.00781-.501a1.73346,1.73346,0,0,1-1.36133.59277,1.37114,1.37114,0,0,1-1.13672-.45508,1.86217,1.86217,0,0,1-.30078-1.335l.27441-3.22852h1.28027l-.27051,3.18652q-.06592.77051.61621.77051a1.00642,1.00642,0,0,0,.93262-.46484l.29688-3.49219h1.28418l-.05371.63184a.67984.67984,0,0,0,.44727-.28223,1.836,1.836,0,0,0,.1875-.7832Zm-2.97266-1.543h1.39453l-1.34668,1.41162h-1.04Z"/>
      <path d="M47.07227,37.37012a.89406.89406,0,0,0,.59277-.2002.77953.77953,0,0,0,.27539-.53223h1.2002a1.85375,1.85375,0,0,1-.34375.917,2.01152,2.01152,0,0,1-.77051.64648,2.30385,2.30385,0,0,1-1.02148.23047,1.87694,1.87694,0,0,1-1.5625-.67285,2.53977,2.53977,0,0,1-.43652-1.85547l.00781-.08594A2.90127,2.90127,0,0,1,45.75684,34a2.209,2.209,0,0,1,1.67383-.67871,1.82434,1.82434,0,0,1,1.39551.52637,1.75252,1.75252,0,0,1,.43262,1.40039h-1.2002a.85287.85287,0,0,0-.17676-.625.69323.69323,0,0,0-.56348-.24023.83748.83748,0,0,0-.70312.335,2.103,2.103,0,0,0-.32129,1.08789l-.01172.13672a1.93822,1.93822,0,0,0,.13184,1.09473A.70654.70654,0,0,0,47.07227,37.37012Z"/>
    </g>
    <g>
      <path d="M19.166,21.64648H17.19141l-.46973,5.52393H15.39355l.46973-5.52393H13.915l.09375-1.10742h5.251Z" style="fill: #fff"/>
      <path d="M22.08643,23.47705a3.28482,3.28482,0,0,0-.457-.03613,1.02438,1.02438,0,0,0-.99512.50488l-.27393,3.22461h-1.2793L19.5,22.24316h1.209l-.01514.5874a1.311,1.311,0,0,1,1.12451-.6792,1.25921,1.25921,0,0,1,.39307.05957Z" style="fill: #fff"/>
      <path d="M22.30908,24.66113a3.17311,3.17311,0,0,1,.3877-1.31152,2.31962,2.31962,0,0,1,.87012-.88574,2.41778,2.41778,0,0,1,1.22217-.3125,1.93282,1.93282,0,0,1,1.60889.70654.73687.73687,0,0,0,.30908-.40771,2.84331,2.84331,0,0,0,.12793-.66748h.77832a1.74148,1.74148,0,0,1-.91943,1.60352,2.86625,2.86625,0,0,1,.15332,1.2749l-.0083.09521a3.17159,3.17159,0,0,1-.38867,1.31152,2.30478,2.30478,0,0,1-.86328.88379,2.3998,2.3998,0,0,1-1.22363.31055,1.96666,1.96666,0,0,1-1.55273-.63379,2.335,2.335,0,0,1-.519-1.70752Zm1.24609,3.61572a.63514.63514,0,0,1,.2373-.45068.79969.79969,0,0,1,.52881-.17773.69091.69091,0,0,1,.50244.17773.53281.53281,0,0,1,.16113.45068.65028.65028,0,0,1-.23486.45166.79925.79925,0,0,1-.53613.18164.67447.67447,0,0,1-.502-.18164A.54839.54839,0,0,1,23.55518,28.27686Zm.02979-3.52246a1.78871,1.78871,0,0,0,.16553,1.07422.76192.76192,0,0,0,.70264.37158.91562.91562,0,0,0,.7583-.36963,2.22672,2.22672,0,0,0,.35547-1.17139,1.80327,1.80327,0,0,0-.16553-1.06543.75768.75768,0,0,0-.70264-.38037.91168.91168,0,0,0-.75781.37549A2.2359,2.2359,0,0,0,23.585,24.75439Z" style="fill: #fff"/>
      <path d="M31.17969,27.17041H29.89551l.59473-6.99512h1.28418Z" style="fill: #fff"/>
      <path d="M34.18066,25.30811l1.14551-3.06494h1.37207l-2.40918,5.69238-.12891.25977a1.61779,1.61779,0,0,1-1.499.96533,1.85523,1.85523,0,0,1-.55859-.08691l.085-.99707.19336.00488a1.08278,1.08278,0,0,0,.55273-.11426.83818.83818,0,0,0,.31348-.37744l.18555-.40576L32.1748,22.24316h1.376Zm.71484-5.13281H36.29L34.94336,21.5874h-1.04Z" style="fill: #fff"/>
    </g>
    <rect x="31.6481" y="46.09815" width="12.62583" height="0.90185" rx="0.4278" ry="0.4278" style="fill: #fff"/>
    <rect x="46.97947" y="46.09815" width="3.60738" height="0.90185" rx="0.4278" ry="0.4278" style="fill: #fff"/>
  </g>
</svg>
