<svg id="Layer_1" data-name="Layer 1" xmlns="http://www.w3.org/2000/svg" xmlns:xlink="http://www.w3.org/1999/xlink" width="65" height="65" viewBox="0 0 65 65">
  <defs>
    <linearGradient id="linear-gradient" x1="32.5" y1="0.41754" x2="32.5" y2="64.58246" gradientUnits="userSpaceOnUse">
      <stop offset="0.24753" stop-color="#082f70"/>
      <stop offset="0.88449"/>
    </linearGradient>
  </defs>
  <title>news</title>
  <path d="M64.1932,32.11074a31.56307,31.56307,0,0,1-10.622,23.6835q-.70588.61945-1.4406,1.21011a33.02313,33.02313,0,0,1-3.92806,2.6411,31.73488,31.73488,0,0,1-30.42546.53782L7.64484,64.50507a.96567.96567,0,0,1-1.335-.99885L7.61606,52.66333l.096-.80676A32.86776,32.86776,0,0,1,5.23423,48.2839v-.00961A31.58182,31.58182,0,0,1,1.61356,39.285v-.00961c-.1153-.51859-.22093-1.02764-.30734-1.55584A27.76188,27.76188,0,0,1,.922,34.72306c-.05762-.64345-.096-1.29658-.10563-1.95925C.8068,32.55255.8068,32.33167.8068,32.11074a32.02656,32.02656,0,0,1,1.62308-10.065A31.71406,31.71406,0,0,1,54.57959,9.36848a31.04919,31.04919,0,0,1,3.53426,4.0817,29.4116,29.4116,0,0,1,2.39139,3.80321V17.263A31.31029,31.31029,0,0,1,63.665,26.36757c.0864.47059.16325.95079.23049,1.431A30.48712,30.48712,0,0,1,64.1932,32.11074Z" style="fill: url(#linear-gradient)"/>
  <polygon points="58.429 46.569 13.392 46.569 14.799 30.484 59.836 30.484 58.429 46.569" style="opacity: 0.3"/>
  <polygon points="46.687 33.701 9.693 33.701 10.959 19.225 47.953 19.225 46.687 33.701" style="opacity: 0.3"/>
  <polygon points="56.961 44.96 11.925 44.96 13.332 28.876 58.368 28.876 56.961 44.96" style="fill: #fff"/>
  <polygon points="45.219 32.093 8.225 32.093 9.491 17.617 46.486 17.617 45.219 32.093"/>
  <g>
    <path d="M18.4043,28.72266l.23828-2.71924a4.02026,4.02026,0,0,0-.20947-.36279,2.11451,2.11451,0,0,0-.21924-.28516,1.12893,1.12893,0,0,0-.22461-.189.41563.41563,0,0,0-.21094-.06787.482.482,0,0,0-.31885.17236,4.6829,4.6829,0,0,0-.37451.42871c-.13428.17139-.27832.356-.43262.55566a5.34816,5.34816,0,0,1-.49365.55664,2.80364,2.80364,0,0,1-.563.42871,1.26653,1.26653,0,0,1-.63916.17139.937.937,0,0,1-.5127-.146,1.59554,1.59554,0,0,1-.3999-.35986,2.17959,2.17959,0,0,1-.27832-.45557,1.90247,1.90247,0,0,1-.14355-.42773l.93115-.62744a2.29852,2.29852,0,0,0,.28076.61768.38356.38356,0,0,0,.29883.18848A.56977.56977,0,0,0,15.5,26.01025a4.11641,4.11641,0,0,0,.48828-.59082,2.58326,2.58326,0,0,0-.25049-.82764,2.44748,2.44748,0,0,0-.43262-.60693,2.19462,2.19462,0,0,0-.5415-.40771,2.92829,2.92829,0,0,0-.57275-.23633l.05078-.584H13.02588l.09277-1.06006h8.33105l-.09277,1.06006H20.15576l-.522,5.96582Zm-1.54-4.373a3.47777,3.47777,0,0,1,.5127-.34424.9806.9806,0,0,1,.45557-.11816,1.07347,1.07347,0,0,1,.4751.11816,2.13265,2.13265,0,0,1,.48047.33447l.13818-1.583H15.81592a2.49114,2.49114,0,0,1,.38379.34863,2.736,2.736,0,0,1,.29346.39355,2.98732,2.98732,0,0,1,.21533.41943A4.526,4.526,0,0,1,16.86426,24.34961Z" style="fill: #fff"/>
    <path d="M23.39307,29.49121a3.17034,3.17034,0,0,0-.20117-.60352,5.28892,5.28892,0,0,0-.32959-.62256,6.27141,6.27141,0,0,0-.42822-.60791,7.05482,7.05482,0,0,0-.49219-.55859A5.71441,5.71441,0,0,0,21.415,26.626a3.67583,3.67583,0,0,0-.5293-.354l.00488-.05664L21.915,25.5459a5.487,5.487,0,0,1,.86084.64111,6.14226,6.14226,0,0,1,.75732.82031,5.58,5.58,0,0,1,.57861.92139,3.59063,3.59063,0,0,1,.32568.93945l-.98779.623Zm-.32764-4.32666a1.22342,1.22342,0,0,1-.939-.417,1.24821,1.24821,0,0,1-.25146-.44092,1.2832,1.2832,0,0,1-.06006-.52246,1.3842,1.3842,0,0,1,.15723-.53516,1.56643,1.56643,0,0,1,.79834-.71875,1.39145,1.39145,0,0,1,.52441-.103,1.29911,1.29911,0,0,1,.53076.10791,1.21181,1.21181,0,0,1,.41162.29492,1.23891,1.23891,0,0,1,.25684.43359,1.224,1.224,0,0,1,.063.52051,1.39779,1.39779,0,0,1-.15869.542,1.6095,1.6095,0,0,1-.33691.438,1.55,1.55,0,0,1-.46436.29443A1.37954,1.37954,0,0,1,23.06543,25.16455Zm.15723-1.79932a.4245.4245,0,0,0-.1709.03467.56806.56806,0,0,0-.14453.0918.46412.46412,0,0,0-.10352.13379.4551.4551,0,0,0-.04687.16357.39648.39648,0,0,0,.09521.31055.36435.36435,0,0,0,.28564.12744A.416.416,0,0,0,23.311,24.189a.5993.5993,0,0,0,.14893-.09619.46512.46512,0,0,0,.1543-.30371.37741.37741,0,0,0-.02051-.167.3717.3717,0,0,0-.083-.13428.39637.39637,0,0,0-.28809-.12256Z" style="fill: #fff"/>
    <path d="M30.02295,22.75684H25.19287l.09277-1.06006h7.2666l-.09277,1.06006H31.25342l-.53809,6.1543H30.022a2.46724,2.46724,0,0,0-.40479-.65283,3.87033,3.87033,0,0,0-.58594-.55127,5.00349,5.00349,0,0,0-.71582-.45752,7.482,7.482,0,0,0-.80029-.36279q-.41235-.15747-.8335-.27344-.42041-.115-.81934-.19043l.11963-1.36621q.1106-.09009.35645-.25293c.16357-.10791.355-.22852.57324-.35986.21875-.13232.459-.26855.71973-.41064q.39038-.21167.79736-.39795c.27148-.12354.542-.23242.80859-.32471a4.15508,4.15508,0,0,1,.75391-.19092Zm-2.5,2.728-.00537.05615c.30127.11133.56641.21729.79443.32129a6.54575,6.54575,0,0,1,.5957.30371,4.63694,4.63694,0,0,1,.43213.28271,3.79183,3.79183,0,0,1,.30957.25684h.02832l.19971-2.28516a1.82985,1.82985,0,0,0-.41064.09619q-.26953.08789-.6001.231c-.22021.09619-.44873.207-.68457.33447A6.98986,6.98986,0,0,0,27.52295,25.48486Z" style="fill: #fff"/>
    <path d="M32.89111,23.47314a.632.632,0,0,0-.03467-.27539.64163.64163,0,0,0-.14209-.22852.67485.67485,0,0,0-.23437-.15576.80234.80234,0,0,0-.30859-.05664h-.37207l.09277-1.06006h.59863a1.84018,1.84018,0,0,1,.26025.021,1.59378,1.59378,0,0,1,.30176.0752,1.79929,1.79929,0,0,1,.30664.14209,1.20367,1.20367,0,0,1,.26953.21387l.00391-.03809a.53543.53543,0,0,1,.1084-.29639.27377.27377,0,0,1,.22363-.11768h1.51367l-.09375,1.06006h-.4043a.881.881,0,0,0-.31836.05664.902.902,0,0,0-.26562.15576.807.807,0,0,0-.18945.22852.67519.67519,0,0,0-.08594.27539l-.459,5.24951H32.43164Z" style="fill: #fff"/>
    <path d="M39.66113,29.26416a4.70806,4.70806,0,0,1-.58887-1.44824,4.97576,4.97576,0,0,1-.09082-1.50146,5.95812,5.95812,0,0,1,.11914-.76562,7.63849,7.63849,0,0,1,.21875-.78467l-.01172-.02344a1.86927,1.86927,0,0,0-.40332.24219c-.15723.11865-.32812.25879-.51074.42236q-.27246.24463-.56934.53467c-.19727.19287-.38867.38818-.57422.584-.18457.19629-.35937.38623-.52344.56787-.16309.18213-.30371.34473-.41895.48584H36.2793l-.49316-.77246.35449-4.04834H34.72656l.0918-1.06006h7.06055l-.09277,1.06006h-4.416L37.17188,25.019h.02832c.17676-.15381.37793-.31934.60156-.49561q.33691-.26367.71387-.50879a8.45443,8.45443,0,0,1,.78125-.44922,4.47944,4.47944,0,0,1,.80176-.31836l.77344.90479a5.15383,5.15383,0,0,0-.43848,1.05078,5.66433,5.66433,0,0,0-.21387,1.12549,4.55761,4.55761,0,0,0-.01562.61328,3.54606,3.54606,0,0,0,.06152.53662,3.80747,3.80747,0,0,0,.124.49023q.07617.23657.17285.47119l-.84473.82471Z" style="fill: #fff"/>
  </g>
  <g>
    <path d="M21.87354,42.87207l.23779-2.71875a3.79,3.79,0,0,0-.20947-.3623,2.01748,2.01748,0,0,0-.21924-.28516,1.09012,1.09012,0,0,0-.22461-.18945.41938.41938,0,0,0-.21094-.06738.47912.47912,0,0,0-.31836.17188,4.67406,4.67406,0,0,0-.37451.42871c-.13428.17188-.27832.35645-.43262.55566a5.3545,5.3545,0,0,1-.49365.55664,2.78565,2.78565,0,0,1-.563.42871,1.26215,1.26215,0,0,1-.63916.17188.93332.93332,0,0,1-.5127-.14648,1.5936,1.5936,0,0,1-.3999-.35937,2.16467,2.16467,0,0,1-.27881-.45605,1.89066,1.89066,0,0,1-.14307-.42773l.93066-.62793a2.30168,2.30168,0,0,0,.28125.61816.38158.38158,0,0,0,.29883.18848.56851.56851,0,0,0,.36719-.19141,4.08889,4.08889,0,0,0,.48828-.59082,2.58421,2.58421,0,0,0-.251-.82715,2.43656,2.43656,0,0,0-.43213-.60742,2.20152,2.20152,0,0,0-.5415-.40723,2.86128,2.86128,0,0,0-.57324-.23633l.05127-.584H16.49512l.09277-1.06055h8.33105l-.09277,1.06055H23.625l-.522,5.96484ZM20.3335,38.5a3.48416,3.48416,0,0,1,.51221-.34473.98249.98249,0,0,1,.45605-.11816,1.07148,1.07148,0,0,1,.47461.11816,2.13568,2.13568,0,0,1,.48047.335l.13867-1.583H19.28516a2.50875,2.50875,0,0,1,.38379.34766,2.71711,2.71711,0,0,1,.29346.39453,2.98211,2.98211,0,0,1,.21533.41895Q20.26709,38.28369,20.3335,38.5Z"/>
    <path d="M27.88721,40.65332a7.51547,7.51547,0,0,1,.69775.37012,7.8074,7.8074,0,0,1,.68848.459,8.20875,8.20875,0,0,1,.63672.52832,5.78212,5.78212,0,0,1,.54639.57031l-.97461.9043a4.32679,4.32679,0,0,0-.57861-.709,5.47693,5.47693,0,0,0-.71289-.59863,6.42114,6.42114,0,0,0-.80469-.4834,7.81945,7.81945,0,0,0-.85059-.36816,7.32469,7.32469,0,0,0-1.68359-.39062l.22949-1.22949c.041.00293.11133.01172.21289.02637.1001.01367.207.03027.3208.04883.11279.01855.22217.03711.32715.05664.105.01855.18066.0332.22656.042a.65634.65634,0,0,0,.07568.00488h.08008c.1123,0,.24121-.00586.38281-.01855a3.74021,3.74021,0,0,0,.43213-.06445,3.33608,3.33608,0,0,0,.42725-.11426,2.04259,2.04259,0,0,0,.375-.16992.99913.99913,0,0,0,.27246-.23145.54255.54255,0,0,0,.12109-.30078.43256.43256,0,0,0-.06543-.27832.73651.73651,0,0,0-.19873-.207,1.01534,1.01534,0,0,0-.24951-.12988.69723.69723,0,0,0-.2207-.04492.9517.9517,0,0,1-.21484.33691,1.35064,1.35064,0,0,1-.31787.23828,1.56214,1.56214,0,0,1-.36914.14258,1.481,1.481,0,0,1-.37158.0498.92513.92513,0,0,1-.36621-.06348.63.63,0,0,1-.24023-.16895.6076.6076,0,0,1-.124-.24512.88276.88276,0,0,1-.02246-.29.86635.86635,0,0,1,.07861-.29687,1.13042,1.13042,0,0,1,.16064-.25293,1.17046,1.17046,0,0,1,.2251-.2041,1.70881,1.70881,0,0,1,.27051-.15527c-.01025-.06348-.02441-.14551-.04395-.24512-.01953-.10059-.03906-.18945-.05713-.26367H24.167l.09277-1.06055h7.31348l-.09277,1.06055H27.41406l.05176.3252a3.03028,3.03028,0,0,1,.52588.0459,2.92429,2.92429,0,0,1,.51807.14258,2.34969,2.34969,0,0,1,.4668.23535,1.63919,1.63919,0,0,1,.37158.32813,1.30334,1.30334,0,0,1,.23682.416,1.19067,1.19067,0,0,1,.05762.50488,1.40581,1.40581,0,0,1-.187.59863,1.98951,1.98951,0,0,1-.39746.48047,2.69274,2.69274,0,0,1-.54443.36914,4.737,4.737,0,0,1-.624.27148Z"/>
    <path d="M35.65039,36.90723H30.82031l.09277-1.06055h9.89551l-.09277,1.06055h-3.835l-.03223.36719a2.94068,2.94068,0,0,1,.69043.10352,3.42976,3.42976,0,0,1,.668.25977,3.06124,3.06124,0,0,1,.5918.39746,2.57481,2.57481,0,0,1,.46289.51855,2.22348,2.22348,0,0,1,.29.62012,1.90158,1.90158,0,0,1,.06543.70605,2.33362,2.33362,0,0,1-.1582.66016,2.17,2.17,0,0,1-.3418.582,1.712,1.712,0,0,1-.49316.415,1.24006,1.24006,0,0,1-.6123.15723,1.06219,1.06219,0,0,1-.43262-.085.932.932,0,0,1-.32227-.22656.89773.89773,0,0,1-.19043-.32617.96607.96607,0,0,1-.04395-.38965,1.15493,1.15493,0,0,1,.09668-.374,1.07672,1.07672,0,0,1,.209-.31152.963.963,0,0,1,.29883-.21191.869.869,0,0,1,.36719-.07812.96105.96105,0,0,1,.53613.1748l.02539-.02832a.81073.81073,0,0,0-.13965-.5,1.44726,1.44726,0,0,0-.415-.40234,2.16861,2.16861,0,0,0-.59277-.27051,2.34467,2.34467,0,0,0-.67285-.09961l-.39258,4.49609h-.69434a2.43543,2.43543,0,0,0-.4043-.65332,3.85285,3.85285,0,0,0-.58594-.55176,5.16278,5.16278,0,0,0-.71484-.457,7.575,7.575,0,0,0-.80078-.3623q-.41235-.1582-.8335-.27344c-.28027-.07715-.5542-.14062-.81934-.19141l.11963-1.36523q.1106-.09082.356-.25293.24609-.1626.57373-.36035c.21875-.13184.459-.26855.71875-.41016.26172-.1416.52637-.27344.79883-.39844.27148-.123.541-.23242.80859-.32422a4.06975,4.06975,0,0,1,.75391-.19141Zm-2.5,2.72754-.00586.05664c.30078.11035.56641.2168.79492.32129.22852.10254.42578.20508.5957.30273a4.97016,4.97016,0,0,1,.43164.2832,3.89459,3.89459,0,0,1,.30957.25684h.02832l.2002-2.28516a1.81826,1.81826,0,0,0-.41113.09668c-.17969.05859-.37988.13477-.59961.23047-.2207.09668-.44922.207-.68555.335A7.09657,7.09657,0,0,0,33.15039,39.63477Z"/>
    <path d="M41.14844,37.623a.6188.6188,0,0,0-.03516-.27539.64309.64309,0,0,0-.376-.38379.80408.80408,0,0,0-.30859-.05664h-.37207l.09277-1.06055H40.748a1.77081,1.77081,0,0,1,.25977.02148,1.5668,1.5668,0,0,1,.30176.0752,1.69337,1.69337,0,0,1,.30664.1416,1.23123,1.23123,0,0,1,.27051.21387l.00293-.03809a.54747.54747,0,0,1,.1084-.29687.2789.2789,0,0,1,.22461-.11719h1.5127l-.09277,1.06055H43.2373a.8987.8987,0,0,0-.584.21191.794.794,0,0,0-.18848.22852.6775.6775,0,0,0-.08594.27539l-.459,5.249H40.68945Z"/>
    <path d="M47.8125,36.90723H42.98242l.09277-1.06055h7.2666L50.249,36.90723H49.043l-.53809,6.1543h-.69336a2.46379,2.46379,0,0,0-.40527-.65332,3.89142,3.89142,0,0,0-.585-.55176,5.17392,5.17392,0,0,0-.71582-.457,7.48657,7.48657,0,0,0-.80078-.3623c-.27539-.10547-.55273-.19629-.834-.27344-.28027-.07715-.55371-.14062-.81836-.19141l.11914-1.36523q.10986-.09082.35645-.25293.24463-.1626.57324-.36035.32813-.19775.71973-.41016c.25977-.1416.52539-.27344.79688-.39844.27148-.123.542-.23242.80859-.32422a4.11763,4.11763,0,0,1,.75488-.19141Zm-3.53516,5.23926a.82454.82454,0,0,1,.09082-.31445.886.886,0,0,1,.19531-.25488.90255.90255,0,0,1,.27051-.17285.85248.85248,0,0,1,.32422-.06348.73143.73143,0,0,1,.5498.23633.7065.7065,0,0,1,.14941.25488.743.743,0,0,1,.03613.31445.85519.85519,0,0,1-.0918.31836.90974.90974,0,0,1-.19434.25684.9005.9005,0,0,1-.26953.17188.827.827,0,0,1-.32129.06348.76716.76716,0,0,1-.3125-.06348.70961.70961,0,0,1-.24121-.17187.71691.71691,0,0,1-.15039-.25684A.78146.78146,0,0,1,44.27734,42.14648Zm1.03516-2.51172-.00488.05664c.30078.11035.56543.2168.79395.32129.22852.10254.42578.20508.5957.30273a4.82439,4.82439,0,0,1,.43164.2832,3.726,3.726,0,0,1,.30957.25684h.02832l.2002-2.28516a1.81826,1.81826,0,0,0-.41113.09668c-.17969.05859-.37988.13477-.59961.23047-.2207.09668-.44922.207-.68457.335A6.86518,6.86518,0,0,0,45.3125,39.63477Z"/>
    <path d="M49.68164,35.84668h1.20215a4.11841,4.11841,0,0,0-.01953-.55664,2.45405,2.45405,0,0,0-.12012-.5459A2.13016,2.13016,0,0,0,50.498,34.249a1.59813,1.59813,0,0,0-.39648-.40234,1.89559,1.89559,0,0,0-.57031-.27148,2.67036,2.67036,0,0,0-.76855-.09863H46.03418q-.15967,0-.33105.01172a1.17591,1.17591,0,0,0-.31055.06152.60966.60966,0,0,0-.24023.15039.43589.43589,0,0,0-.11328.27539.32747.32747,0,0,0,.04395.22559.339.339,0,0,0,.17578.12109,1.143,1.143,0,0,0,.29.0498c.11426.00586.24414.00977.39258.00977h1.89844a1.64894,1.64894,0,0,1,.5918.09766,1.08314,1.08314,0,0,1,.42578.28809,1.0998,1.0998,0,0,1,.23926.46094,1.77829,1.77829,0,0,1,.043.61816H47.91016a.39987.39987,0,0,0-.02832-.21191.26431.26431,0,0,0-.1377-.123.8445.8445,0,0,0-.25488-.05664c-.10352-.00879-.23047-.01367-.37793-.01367H45.13672a1.30223,1.30223,0,0,1-.63477-.13867,1.20326,1.20326,0,0,1-.40625-.35156,1.23715,1.23715,0,0,1-.2041-.47168,1.77788,1.77788,0,0,1-.03125-.499,1.50354,1.50354,0,0,1,.19727-.63086,1.608,1.608,0,0,1,.44824-.49561,2.15966,2.15966,0,0,1,.67383-.32275,3.05067,3.05067,0,0,1,.86719-.11475h2.54a5.65262,5.65262,0,0,1,1.1875.11084,3.624,3.624,0,0,1,.88965.30127,2.488,2.488,0,0,1,.63379.44287,2.52246,2.52246,0,0,1,.417.53223,2.70508,2.70508,0,0,1,.249.57324,3.62816,3.62816,0,0,1,.123.56445,3.80673,3.80673,0,0,1,.0332.50684c-.001.15625-.00293.28809-.00684.39844h1.20215l-.09277,1.06055H52.02051L51.499,42.87207H50.26953l.52148-5.96484H49.58887Z"/>
  </g>
  <polygon points="8.225 32.093 9.491 17.617 46.486 17.617 8.225 32.093" style="fill: #fff;opacity: 0.1"/>
  <line x1="31" y1="49" x2="44.53846" y2="49" style="fill: none;stroke: #fff;stroke-linecap: round;stroke-miterlimit: 10;stroke-width: 0.699999988079071px"/>
  <line x1="47.92308" y1="49" x2="53" y2="49" style="fill: none;stroke: #fff;stroke-linecap: round;stroke-miterlimit: 10;stroke-width: 0.699999988079071px"/>
</svg>
