<svg id="Layer_1" data-name="Layer 1" xmlns="http://www.w3.org/2000/svg" width="60" height="60" viewBox="0 0 60 60">
  <title>news</title>
  <path d="M59,29.64a28.92,28.92,0,0,1-9.73,21.7q-.65.57-1.32,1.11a30.26,30.26,0,0,1-3.6,2.42,29.08,29.08,0,0,1-27.88.49l-9.28,4A.88.88,0,0,1,6,58.41l1.2-9.94.09-.74A30.12,30.12,0,0,1,5,44.46H5A28.94,28.94,0,0,1,1.7,36.22h0c-.11-.48-.2-.94-.28-1.43A25.44,25.44,0,0,1,1.07,32C1,31.45,1,30.85,1,30.24c0-.19,0-.4,0-.6a29.35,29.35,0,0,1,1.49-9.22A29.06,29.06,0,0,1,50.23,8.8a28.45,28.45,0,0,1,3.24,3.74A27,27,0,0,1,55.66,16h0a28.69,28.69,0,0,1,2.9,8.34c.08.43.15.87.21,1.31A27.93,27.93,0,0,1,59,29.64Z" style="fill: #d02027"/>
  <path d="M11,27.72H54.06a0,0,0,0,1,0,0v5a7,7,0,0,1-7,7H9.22a0,0,0,0,1,0,0V29.47A1.75,1.75,0,0,1,11,27.72Z" style="fill: #fff"/>
  <path d="M35.47,19v4.56A7.47,7.47,0,0,1,28,31H5.94V20.49A1.52,1.52,0,0,1,7.46,19Z"/>
  <text transform="translate(10.77 27.54)" style="font-size: 6.560999870300293px;fill: #fff;font-family: Poppins-Bold, Poppins;font-weight: 700">NEWS</text>
  <text transform="translate(13.14 36.81)" style="font-size: 6.560999870300293px;font-family: Poppins-Bold, Poppins;font-weight: 700">ASSISTANT</text>
  <line x1="29.75" y1="41.94" x2="28.74" y2="43.03" style="stroke: #fff;stroke-miterlimit: 10;stroke-width: 0.3156662657646838px"/>
  <line x1="31.94" y1="41.94" x2="30.93" y2="43.03" style="stroke: #fff;stroke-miterlimit: 10;stroke-width: 0.3156662657646838px"/>
  <line x1="34.12" y1="41.94" x2="33.12" y2="43.03" style="stroke: #fff;stroke-miterlimit: 10;stroke-width: 0.3156662657646838px"/>
  <line x1="36.31" y1="41.94" x2="35.3" y2="43.03" style="stroke: #fff;stroke-miterlimit: 10;stroke-width: 0.3156662657646838px"/>
  <line x1="30.84" y1="41.94" x2="29.84" y2="43.03" style="stroke: #fff;stroke-miterlimit: 10;stroke-width: 0.3156662657646838px"/>
  <line x1="33.03" y1="41.94" x2="32.02" y2="43.03" style="stroke: #fff;stroke-miterlimit: 10;stroke-width: 0.3156662657646838px"/>
  <line x1="35.22" y1="41.94" x2="34.21" y2="43.03" style="stroke: #fff;stroke-miterlimit: 10;stroke-width: 0.3156662657646838px"/>
  <line x1="37.4" y1="41.94" x2="36.4" y2="43.03" style="stroke: #fff;stroke-miterlimit: 10;stroke-width: 0.3156662657646838px"/>
  <polygon points="18.58 18.97 14.47 31 11.01 31 15.12 18.97 18.58 18.97" style="fill: #fff;opacity: 0.15"/>
  <polygon points="22.06 18.97 17.94 31 16.78 31 20.89 18.97 22.06 18.97" style="fill: #fff;opacity: 0.15"/>
</svg>
