<svg height="512pt" viewBox="0 -20 512 512" width="512pt" xmlns="http://www.w3.org/2000/svg"><path d="m44.152344 472.660156v-.011718c-24.382813-.003907-44.152344-19.753907-44.152344-44.136719v-342.574219c0-10.4375 8.460938-18.898438 18.898438-18.898438h168.464843v405.621094zm0 0" fill="#e8e9ea"/><path d="m44.152344 67.039062h6.765625v361.46875c0 17.703126-10.421875 32.953126-25.457031 39.988282 5.675781 2.65625 12.007812 4.148437 18.691406 4.148437v.015625h143.210937v-405.621094zm0 0" fill="#d0d1d2"/><path d="m107.199219 0c-10.433594 0-18.894531 8.460938-18.894531 18.898438v409.613281c0 24.382812-19.769532 44.152343-44.152344 44.152343h423.695312c24.382813 0 44.152344-19.769531 44.152344-44.152343v-409.613281c0-10.4375-8.460938-18.898438-18.898438-18.898438zm0 0" fill="#f2f3f3"/><path d="m267.519531 292.839844h-105.964843c-5.832032 0-10.558594-4.726563-10.558594-10.554688v-105.964844c0-5.832031 4.726562-10.558593 10.558594-10.558593h105.964843c5.832031 0 10.558594 4.726562 10.558594 10.558593v105.964844c-.003906 5.828125-4.726563 10.554688-10.558594 10.554688zm0 0" fill="#ffce71"/><path d="m181.902344 282.285156v-105.964844c0-5.832031 4.726562-10.558593 10.558594-10.558593h-30.90625c-5.828126 0-10.558594 4.726562-10.558594 10.558593v105.964844c0 5.828125 4.726562 10.554688 10.558594 10.554688h30.90625c-5.832032 0-10.558594-4.726563-10.558594-10.554688zm0 0" fill="#e5b965"/><g fill="#4a5359"><path d="m457.289062 173.265625h-143.402343c-4.144531 0-7.5-3.359375-7.5-7.5 0-4.144531 3.355469-7.5 7.5-7.5h143.402343c4.140626 0 7.5 3.355469 7.5 7.5 0 4.140625-3.359374 7.5-7.5 7.5zm0 0"/><path d="m457.289062 236.800781h-143.402343c-4.144531 0-7.5-3.355469-7.5-7.5 0-4.140625 3.355469-7.5 7.5-7.5h143.402343c4.140626 0 7.5 3.359375 7.5 7.5 0 4.144531-3.359374 7.5-7.5 7.5zm0 0"/><path d="m457.289062 300.339844h-143.402343c-4.144531 0-7.5-3.355469-7.5-7.5 0-4.140625 3.355469-7.5 7.5-7.5h143.402343c4.140626 0 7.5 3.359375 7.5 7.5 0 4.144531-3.359374 7.5-7.5 7.5zm0 0"/><path d="m457.289062 363.878906h-306.292968c-4.140625 0-7.5-3.355468-7.5-7.5 0-4.140625 3.359375-7.5 7.5-7.5h306.292968c4.140626 0 7.5 3.359375 7.5 7.5 0 4.144532-3.359374 7.5-7.5 7.5zm0 0"/><path d="m457.289062 427.421875h-306.292968c-4.140625 0-7.5-3.359375-7.5-7.5 0-4.144531 3.359375-7.5 7.5-7.5h306.292968c4.140626 0 7.5 3.355469 7.5 7.5 0 4.140625-3.359374 7.5-7.5 7.5zm0 0"/><path d="m143.46875 118.5v-81.640625c0-1.679687.796875-2.957031 2.390625-3.839844 1.59375-.878906 3.523437-1.320312 5.789063-1.320312 3.015624 0 5.324218.546875 6.917968 1.636719 1.589844 1.089843 3.351563 3.441406 5.285156 7.042968l24.277344 46.925782v-50.570313c0-1.679687.796875-2.9375 2.390625-3.777344 1.589844-.835937 3.523438-1.257812 5.785157-1.257812 2.265624 0 4.195312.421875 5.789062 1.257812 1.59375.839844 2.390625 2.097657 2.390625 3.777344v81.769531c0 1.59375-.820313 2.851563-2.453125 3.773438-1.636719.921875-3.546875 1.382812-5.726562 1.382812-4.445313 0-7.589844-1.71875-9.433594-5.15625l-27.046875-50.574218v50.574218c0 1.59375-.816407 2.851563-2.453125 3.773438-1.636719.921875-3.542969 1.382812-5.722656 1.382812-2.265626 0-4.195313-.460937-5.789063-1.382812-1.59375-.925782-2.390625-2.179688-2.390625-3.777344zm0 0"/><path d="m219.578125 118.5v-81.640625c0-1.59375.710937-2.851563 2.140625-3.777344 1.421875-.921875 3.101562-1.382812 5.03125-1.382812h44.785156c1.675782 0 2.953125.714843 3.835938 2.140625.882812 1.425781 1.320312 3.0625 1.320312 4.902344 0 2.015624-.460937 3.734374-1.382812 5.160156-.925782 1.425781-2.183594 2.136718-3.773438 2.136718h-35.601562v25.160157h19.121094c1.589843 0 2.847656.652343 3.773437 1.953125.921875 1.300781 1.382813 2.828125 1.382813 4.589844 0 1.59375-.441407 3.039062-1.320313 4.339843s-2.160156 1.949219-3.835937 1.949219h-19.121094v25.289062h35.601562c1.589844 0 2.847656.710938 3.773438 2.136719.921875 1.429688 1.382812 3.144531 1.382812 5.160157 0 1.84375-.4375 3.480468-1.320312 4.902343-.878906 1.429688-2.160156 2.140625-3.835938 2.140625h-44.785156c-1.929688 0-3.609375-.460937-5.03125-1.382812-1.429688-.925782-2.140625-2.179688-2.140625-3.777344zm0 0"/><path d="m284.867188 38.242188c0-1.761719 1.132812-3.292969 3.398437-4.59375 2.261719-1.296876 4.609375-1.949219 7.042969-1.949219 3.019531 0 4.824218 1.089843 5.410156 3.269531l19.875 68.183594 10.691406-43.777344c.757813-3.019531 3.441406-4.527344 8.054688-4.527344 4.527344 0 7.167968 1.507813 7.921875 4.527344l10.695312 43.777344 19.875-68.183594c.585938-2.179688 2.390625-3.269531 5.410157-3.269531 2.429687 0 4.777343.652343 7.042968 1.949219 2.265625 1.300781 3.398438 2.832031 3.398438 4.59375 0 .5-.085938 1.003906-.253906 1.507812l-24.90625 79.128906c-1.257813 3.691406-4.824219 5.535156-10.695313 5.535156-2.515625 0-4.777344-.484374-6.792969-1.449218-2.011718-.960938-3.226562-2.324219-3.644531-4.085938l-8.050781-33.96875-8.179688 33.96875c-.421875 1.761719-1.632812 3.125-3.648437 4.085938-2.011719.964844-4.277344 1.449218-6.792969 1.449218-2.601562 0-4.90625-.484374-6.917969-1.449218-2.011719-.960938-3.269531-2.324219-3.773437-4.085938l-24.910156-79.128906c-.167969-.503906-.25-1.007812-.25-1.507812zm0 0"/><path d="m397.835938 109.191406c0-1.929687.730468-3.878906 2.199218-5.847656 1.46875-1.972656 3.125-2.957031 4.96875-2.957031 1.089844 0 2.328125.523437 3.710938 1.566406 1.386718 1.046875 2.726562 2.203125 4.027344 3.464844 1.296874 1.265625 3.164062 2.417969 5.597656 3.464843 2.433594 1.042969 5.113281 1.566407 8.050781 1.566407 4.027344 0 7.378906-.921875 10.0625-2.769531 2.683594-1.839844 4.027344-4.566407 4.027344-8.175782 0-2.515625-.734375-4.757812-2.203125-6.730468-1.464844-1.96875-3.394532-3.605469-5.785156-4.90625-2.390626-1.296876-5.011719-2.554688-7.863282-3.773438-2.851562-1.214844-5.722656-2.578125-8.617187-4.085938-2.890625-1.511718-5.535157-3.210937-7.925781-5.097656-2.390626-1.886718-4.320313-4.402344-5.785157-7.546875-1.46875-3.144531-2.203125-6.730469-2.203125-10.757812 0-4.507813.902344-8.492188 2.707032-11.9375 1.800781-3.449219 4.214843-6.128907 7.230468-8.042969 3.019532-1.914062 6.246094-3.320312 9.6875-4.214844 3.4375-.890625 7.085938-1.339844 10.945313-1.339844 2.179687 0 4.484375.152344 6.917969.453126 2.433593.300781 5.011718.796874 7.738281 1.484374 2.722656.691407 4.945312 1.769532 6.667969 3.230469 1.71875 1.464844 2.578124 3.183594 2.578124 5.167969 0 1.867188-.589843 3.796875-1.761718 5.792969-1.175782 1.996093-2.769532 2.992187-4.78125 2.992187-.753906 0-2.808594-.796875-6.164063-2.390625-3.355469-1.589843-7.085937-2.390625-11.195312-2.390625-4.527344 0-8.03125.863282-10.503907 2.578125-2.476562 1.722657-3.710937 4.089844-3.710937 7.109375 0 2.433594 1.007813 4.550782 3.019531 6.351563 2.011719 1.804687 4.507813 3.273437 7.484375 4.402343 2.976563 1.132813 6.203125 2.558594 9.6875 4.28125 3.476563 1.71875 6.707031 3.585938 9.683594 5.597657s5.472656 4.925781 7.488281 8.742187c2.011719 3.816406 3.019532 8.28125 3.019532 13.394532 0 8.605468-2.75 15.242187-8.242188 19.914062s-12.726562 7.007812-21.699219 7.007812c-7.96875 0-14.804687-1.636718-20.503906-4.90625-5.707031-3.269531-8.554687-6.832031-8.554687-10.691406zm0 0"/></g></svg>