<svg id="Layer_1" data-name="Layer 1" xmlns="http://www.w3.org/2000/svg" width="70" height="70" viewBox="0 0 70 70">
  <title>news</title>
  <path d="M68,34.59a33.02331,33.02331,0,0,1-1.52,9.95c-.15.49-.32.98-.5,1.46a32.97315,32.97315,0,0,1-5.04,9,31.55113,31.55113,0,0,1-4,4.25q-.735.645-1.5,1.26a34.38477,34.38477,0,0,1-4.09,2.75,33.0434,33.0434,0,0,1-31.68.56L9.12,68.32a1.00548,1.00548,0,0,1-1.39-1.04L9.09,55.99l.1-.84A1.429,1.429,0,0,1,9.08,55a32.8147,32.8147,0,0,1-2.47-3.57v-.01a32.72612,32.72612,0,0,1-3.77-9.36v-.01c-.12006-.54-.23-1.07-.32-1.62a28.90658,28.90658,0,0,1-.4-3.12c-.06-.67-.1-1.35-.11-2.04C2,35.05,2,34.82,2,34.59A33.34711,33.34711,0,0,1,3.69,24.11a33.02172,33.02172,0,0,1,54.3-13.2,32.32944,32.32944,0,0,1,3.68,4.25,30.62432,30.62432,0,0,1,2.49,3.96v.01a32.60131,32.60131,0,0,1,3.29,9.48c.09.49.17.99.24,1.49A31.74419,31.74419,0,0,1,68,34.59Z" style="fill: #ed1926"/>
  <rect x="8.41314" y="25.58659" width="39.56794" height="12.71827" style="opacity: 0.2"/>
  <rect x="12.65256" y="36.89171" width="50.87307" height="11.30513" style="opacity: 0.2"/>
  <rect x="11.23942" y="34.06543" width="50.87307" height="12.71827" style="fill: #fff"/>
  <rect x="7" y="24.17345" width="39.56794" height="12.71827"/>
  <g>
    <path d="M9.292,28.20264h1.27246l1.04395,4.59814,1.2041-4.59814h1.32422l1.13672,4.57275,1.05176-4.57275h1.28125l-1.6543,5.92188H14.55176L13.44043,29.9082l-1.16211,4.21631-1.3916.0083Z" style="fill: #fff"/>
    <path d="M21.80957,29.16162h-2.248V30.646h1.99316v.94189H19.56152v1.56934h2.248v.96729H18.373V28.19434h3.43652Z" style="fill: #fff"/>
    <path d="M25.4375,34.12451H22.88379V28.20264h2.44336c1.23926,0,1.92676.645,1.92676,1.52734a1.36653,1.36653,0,0,1-1.00977,1.35742A1.43494,1.43494,0,0,1,27.38867,32.521C27.38867,33.46289,26.668,34.12451,25.4375,34.12451Zm-.2793-4.96289H24.07227V30.646H25.1582c.55957,0,.88184-.25439.88184-.73779C26.04,29.43311,25.71777,29.16162,25.1582,29.16162Zm.085,2.40088h-1.1709v1.59473h1.19629c.57617,0,.916-.27979.916-.78027C26.18457,31.86768,25.81934,31.5625,25.24316,31.5625Z" style="fill: #fff"/>
    <path d="M30.37988,34.18408c-1.23047,0-2.18066-.645-2.19727-1.76465h1.27246a.81275.81275,0,0,0,.89941.78857c.55957,0,.89063-.29687.89063-.7207,0-1.28125-3.05371-.50928-3.0459-2.65576,0-1.06885.86621-1.71338,2.08789-1.71338a1.87067,1.87067,0,0,1,2.12012,1.688H31.10156a.782.782,0,0,0-.84863-.7041c-.4668-.01709-.81445.21191-.81445.6958,0,1.1875,3.03711.52588,3.03711,2.61279A1.86881,1.86881,0,0,1,30.37988,34.18408Z" style="fill: #fff"/>
    <path d="M33.499,28.20264H34.6875v5.92188H33.499Z" style="fill: #fff"/>
    <path d="M35.542,28.20264h4.34375v.959H38.30762v4.96289h-1.1875V29.16162H35.542Z" style="fill: #fff"/>
    <path d="M44.18457,29.16162h-2.248V30.646h1.99316v.94189H41.93652v1.56934h2.248v.96729H40.748V28.19434h3.43652Z" style="fill: #fff"/>
  </g>
  <g>
    <path d="M18.05176,43.60547h-2.3584l-.39062,1.12793H14.05566l2.12891-5.93066h1.38379l2.12891,5.93066H18.44141Zm-1.17969-3.42773-.85645,2.47754h1.71387Z"/>
    <path d="M22.53516,44.793c-1.23047,0-2.18066-.64453-2.19727-1.76465h1.27246a.81339.81339,0,0,0,.89941.78906c.55957,0,.89063-.29687.89063-.72168,0-1.28125-3.05371-.50879-3.0459-2.65527,0-1.06934.86621-1.71387,2.08789-1.71387A1.8707,1.8707,0,0,1,24.5625,40.415H23.25684a.78264.78264,0,0,0-.84863-.7041c-.4668-.0166-.81445.21191-.81445.69531,0,1.18848,3.03711.52637,3.03711,2.61328A1.86853,1.86853,0,0,1,22.53516,44.793Z"/>
    <path d="M27.69922,44.793c-1.23047,0-2.18066-.64453-2.19727-1.76465h1.27246a.81339.81339,0,0,0,.89941.78906c.55957,0,.89063-.29687.89063-.72168,0-1.28125-3.05371-.50879-3.0459-2.65527,0-1.06934.86621-1.71387,2.08789-1.71387A1.8707,1.8707,0,0,1,29.72656,40.415H28.4209a.78264.78264,0,0,0-.84863-.7041c-.4668-.0166-.81445.21191-.81445.69531,0,1.18848,3.03711.52637,3.03711,2.61328A1.86853,1.86853,0,0,1,27.69922,44.793Z"/>
    <path d="M30.81738,38.81152h1.18848V44.7334H30.81738Z"/>
    <path d="M35.21973,44.793c-1.23047,0-2.18066-.64453-2.19727-1.76465h1.27246a.81339.81339,0,0,0,.89941.78906c.55957,0,.89063-.29687.89063-.72168,0-1.28125-3.05371-.50879-3.0459-2.65527,0-1.06934.86621-1.71387,2.08789-1.71387A1.8707,1.8707,0,0,1,37.24707,40.415H35.94141a.782.782,0,0,0-.84863-.7041c-.4668-.0166-.81445.21191-.81445.69531,0,1.18848,3.03711.52637,3.03711,2.61328A1.86853,1.86853,0,0,1,35.21973,44.793Z"/>
    <path d="M38.02539,38.81152h4.34375v.959H40.791V44.7334h-1.1875V39.77051H38.02539Z"/>
    <path d="M46.8623,43.60547h-2.3584l-.39062,1.12793H42.86621l2.12891-5.93066h1.38379l2.12891,5.93066H47.252Zm-1.17969-3.42773-.85645,2.47754H46.54Z"/>
    <path d="M54.36719,38.80273V44.7334h-1.1875l-2.68945-4.06348V44.7334H49.30176V38.80273h1.18848L53.17969,42.875V38.80273Z"/>
    <path d="M55.21973,38.81152h4.34375v.959H57.98535V44.7334h-1.1875V39.77051H55.21973Z"/>
  </g>
  <polygon points="7 36.892 7 24.173 46.568 24.173 7 36.892" style="fill: #fff;opacity: 0.1"/>
  <path d="M59,21c0,.13833-2.64885-.35115-4,1s-.86167,4-1,4,.35115-2.64885-1-4-4-.86167-4-1,2.64885.35115,4-1,.86167-4,1-4-.35115,2.64885,1,4S59,20.86167,59,21Z" style="fill: #fff"/>
  <line x1="30.5" y1="51" x2="48.5" y2="51" style="fill: none;stroke: #fff;stroke-linecap: round;stroke-miterlimit: 10;stroke-width: 1.1766968108291043px"/>
  <line x1="51" y1="51" x2="55" y2="51" style="fill: none;stroke: #fff;stroke-linecap: round;stroke-miterlimit: 10"/>
</svg>
