<svg id="Layer_1" data-name="Layer 1" xmlns="http://www.w3.org/2000/svg" width="65" height="65" viewBox="0 0 65 65">
  <title>news</title>
  <path d="M63.55,32.1186A30.9222,30.9222,0,0,1,53.1433,55.3213q-.6915.6069-1.4113,1.1855a32.3526,32.3526,0,0,1-3.8483,2.5875,31.0905,31.0905,0,0,1-29.8077.5269L8.15,63.8552a.9461.9461,0,0,1-1.3079-.9786l1.28-10.6227.0941-.79a32.2,32.2,0,0,1-2.4275-3.5V47.954a30.9406,30.9406,0,0,1-3.5472-8.8068v-.0094c-.113-.5081-.2164-1.0068-.3011-1.5243a27.1982,27.1982,0,0,1-.3764-2.9356c-.0565-.63-.0941-1.27-.1035-1.9195-.0094-.207-.0094-.4234-.0094-.64A31.3763,31.3763,0,0,1,3.04,22.258a31.07,31.07,0,0,1,51.0909-12.42,30.4188,30.4188,0,0,1,3.4625,3.9988,28.8144,28.8144,0,0,1,2.3428,3.726v.0094a30.6746,30.6746,0,0,1,3.0956,8.92c.0846.461.16.9315.2258,1.4019A29.8681,29.8681,0,0,1,63.55,32.1186Z" style="fill: #1d9d3b"/>
  <path d="M60.4447,32.1568A27.83,27.83,0,0,1,51.079,53.0391q-.6224.5462-1.27,1.067a29.1174,29.1174,0,0,1-3.4635,2.3287,27.9815,27.9815,0,0,1-26.8269.4742L10.5846,60.72a.8515.8515,0,0,1-1.1771-.8807l1.1517-9.56.0847-.7113a28.98,28.98,0,0,1-2.1848-3.15v-.0085a27.8465,27.8465,0,0,1-3.1924-7.9261V38.474c-.1017-.4573-.1948-.9061-.271-1.3718a24.4784,24.4784,0,0,1-.3387-2.642c-.0508-.5673-.0847-1.1432-.0931-1.7275-.0085-.1863-.0085-.381-.0085-.5758a28.2387,28.2387,0,0,1,1.4311-8.8746A27.9631,27.9631,0,0,1,51.9682,12.1043a27.3769,27.3769,0,0,1,3.1163,3.5989,25.933,25.933,0,0,1,2.1085,3.3534v.0085a27.6071,27.6071,0,0,1,2.786,8.0277c.0762.4149.1439.8383.2032,1.2617A26.8813,26.8813,0,0,1,60.4447,32.1568Z" style="fill: #fff"/>
  <polygon points="53.436 45.161 13.15 45.161 14.244 32.659 54.529 32.659 53.436 45.161"/>
  <polygon points="41.082 35.437 8.444 35.437 9.362 22.935 42 22.935 41.082 35.437" style="opacity: 0.2"/>
  <polygon points="40.075 34.048 7.177 34.048 8.102 21.546 41 21.546 40.075 34.048" style="fill: #1d9d3b"/>
  <g>
    <path d="M16.7246,25.4351,15.13,29.9688H13.998L13.5,27.06a2.3335,2.3335,0,0,1-.0278-.5088H13.459a3.1966,3.1966,0,0,1-.1274.5088l-1.0249,2.9092h-1.18l-.7959-4.5337h1.1162l.375,3.019a3.5941,3.5941,0,0,1,.0151.5181h.0186a2.6722,2.6722,0,0,1,.1382-.5308l1.085-3.0063h1.0938L14.65,28.479a3.5717,3.5717,0,0,1,.03.4878h.0127a3.5948,3.5948,0,0,1,.11-.5063l.8906-3.0254Z" style="fill: #fff"/>
    <path d="M19.6221,29.9688H16.9033L17.3,25.4351h2.6143l-.0723.8311H18.249l-.0884,1.0088h1.4824l-.0728.8276H18.0879l-.09,1.0371h1.6973Z" style="fill: #fff"/>
    <path d="M20.35,29.9688l.3965-4.5337h1.65a1.94,1.94,0,0,1,1.1431.2783.8143.8143,0,0,1,.3384.7842,1.0118,1.0118,0,0,1-.3042.6411,1.4534,1.4534,0,0,1-.667.3823l-.0015.0137a1.1358,1.1358,0,0,1,.7422.3569.922.922,0,0,1,.2261.7236,1.3377,1.3377,0,0,1-.5327.9888,2.0018,2.0018,0,0,1-1.249.3647Zm1.1919-1.9478-.1045,1.1948H21.99a.92.92,0,0,0,.57-.1636.6062.6062,0,0,0,.24-.45.47.47,0,0,0-.16-.4268.8184.8184,0,0,0-.5381-.1548Zm.1606-1.834-.0942,1.0752h.4482a.8064.8064,0,0,0,.5117-.1538.5748.5748,0,0,0,.2192-.4224q.0439-.4988-.7031-.499Z" style="fill: #fff"/>
    <path d="M24.3071,29.7944l.0889-1.0117a1.7293,1.7293,0,0,0,.5674.3462,1.8323,1.8323,0,0,0,.6411.1157,1.4949,1.4949,0,0,0,.34-.0347.8741.8741,0,0,0,.2485-.0967.4667.4667,0,0,0,.1567-.1455.3885.3885,0,0,0,.0635-.1821.3638.3638,0,0,0-.0557-.2363.7117.7117,0,0,0-.19-.1938,1.9281,1.9281,0,0,0-.2964-.17c-.1157-.0547-.24-.1113-.374-.1675a1.7593,1.7593,0,0,1-.7451-.541,1.1038,1.1038,0,0,1-.1929-.7715,1.3021,1.3021,0,0,1,.1958-.6089,1.3634,1.3634,0,0,1,.4233-.4185,1.8977,1.8977,0,0,1,.5884-.2422,3.0317,3.0317,0,0,1,.69-.0767,4.11,4.11,0,0,1,.623.0415,2.4286,2.4286,0,0,1,.4937.1313l-.0825.9458a1.4055,1.4055,0,0,0-.2363-.1392,1.8007,1.8007,0,0,0-.2686-.0991,1.9337,1.9337,0,0,0-.543-.0781,1.4128,1.4128,0,0,0-.3193.0332.91.91,0,0,0-.248.0933.51.51,0,0,0-.1641.144.3631.3631,0,0,0-.07.188.335.335,0,0,0,.042.2041.5919.5919,0,0,0,.1558.17,1.5574,1.5574,0,0,0,.2549.1587c.1006.0513.2153.105.3433.1592a3.554,3.554,0,0,1,.4673.2427,1.533,1.533,0,0,1,.3467.2886,1.0213,1.0213,0,0,1,.2051.3687,1.2626,1.2626,0,0,1,.04.4819,1.3663,1.3663,0,0,1-.2.6372,1.3205,1.3205,0,0,1-.4258.417,1.8551,1.8551,0,0,1-.5947.23,3.4672,3.4672,0,0,1-.6973.0688,3.7271,3.7271,0,0,1-.7036-.063A1.9844,1.9844,0,0,1,24.3071,29.7944Z" style="fill: #fff"/>
    <path d="M29.1523,29.9688H28.1309l.3965-4.5337h1.0215Z" style="fill: #fff"/>
    <path d="M33.69,26.2661h-1.293l-.3242,3.7026H31.0488l.3242-3.7026H30.0859l.0723-.8311h3.6045Z" style="fill: #fff"/>
    <path d="M36.6953,29.9688H33.9766l.3965-4.5337h2.6143l-.0723.8311H35.3223l-.0889,1.0088h1.4824l-.0723.8276H35.1611L35.07,29.14h1.6973Z" style="fill: #fff"/>
  </g>
  <polygon points="54.703 46.551 15.807 46.551 16.901 34.048 55.797 34.048 54.703 46.551" style="opacity: 0.2"/>
  <g>
    <path d="M21.0742,41.332H19.9609l-.2344-1.0088H18.1143L17.707,41.332H16.6l2.0469-4.5342h1.2109Zm-1.5132-1.793-.353-1.5234a1.8893,1.8893,0,0,1-.0405-.4082h-.0254a1.8684,1.8684,0,0,1-.1138.3955l-.6274,1.5361Z" style="fill: #fff"/>
    <path d="M21.4458,41.1572l.0884-1.0117a1.7408,1.7408,0,0,0,.5674.3467,1.8344,1.8344,0,0,0,.6416.1152,1.5252,1.5252,0,0,0,.34-.0342.8741.8741,0,0,0,.2485-.0967.4672.4672,0,0,0,.1563-.1465.3767.3767,0,0,0,.064-.1816.3652.3652,0,0,0-.0557-.2363.71.71,0,0,0-.19-.1934,1.8571,1.8571,0,0,0-.2969-.17c-.1152-.0547-.24-.1113-.374-.168a1.7565,1.7565,0,0,1-.7446-.541,1.1016,1.1016,0,0,1-.1934-.7715,1.3041,1.3041,0,0,1,.1963-.6084,1.3686,1.3686,0,0,1,.4229-.4189,1.9174,1.9174,0,0,1,.5889-.2422,3.0016,3.0016,0,0,1,.69-.0762,4.1838,4.1838,0,0,1,.623.041,2.4055,2.4055,0,0,1,.4937.1318l-.083.9453a1.38,1.38,0,0,0-.2358-.1387,1.8436,1.8436,0,0,0-.2686-.1,1.94,1.94,0,0,0-.543-.0781,1.4128,1.4128,0,0,0-.3193.0332.8975.8975,0,0,0-.2485.0938.5259.5259,0,0,0-.1641.1436.3684.3684,0,0,0-.07.1885.34.34,0,0,0,.0415.2041.5859.5859,0,0,0,.1563.17,1.5724,1.5724,0,0,0,.2544.1592c.1011.0508.2153.1045.3438.1592a3.5162,3.5162,0,0,1,.4668.2422,1.5135,1.5135,0,0,1,.3467.2891,1.0192,1.0192,0,0,1,.2051.3682,1.2549,1.2549,0,0,1,.04.4824,1.3625,1.3625,0,0,1-.2.6367,1.3171,1.3171,0,0,1-.4263.417,1.853,1.853,0,0,1-.5942.23,3.5034,3.5034,0,0,1-.6973.0684,3.765,3.765,0,0,1-.7036-.0625A1.9643,1.9643,0,0,1,21.4458,41.1572Z" style="fill: #fff"/>
    <path d="M25.0757,41.1572l.0884-1.0117a1.7408,1.7408,0,0,0,.5674.3467,1.8344,1.8344,0,0,0,.6416.1152,1.5252,1.5252,0,0,0,.34-.0342.8741.8741,0,0,0,.2485-.0967.4672.4672,0,0,0,.1563-.1465.3767.3767,0,0,0,.064-.1816.3652.3652,0,0,0-.0557-.2363.71.71,0,0,0-.19-.1934,1.8571,1.8571,0,0,0-.2969-.17c-.1152-.0547-.24-.1113-.374-.168a1.7565,1.7565,0,0,1-.7446-.541,1.1016,1.1016,0,0,1-.1934-.7715,1.3041,1.3041,0,0,1,.1963-.6084,1.3686,1.3686,0,0,1,.4229-.4189,1.9174,1.9174,0,0,1,.5889-.2422,3.0016,3.0016,0,0,1,.69-.0762,4.1838,4.1838,0,0,1,.623.041,2.4055,2.4055,0,0,1,.4937.1318l-.083.9453a1.38,1.38,0,0,0-.2358-.1387,1.8436,1.8436,0,0,0-.2686-.1,1.94,1.94,0,0,0-.543-.0781,1.4128,1.4128,0,0,0-.3193.0332.8975.8975,0,0,0-.2485.0938.5259.5259,0,0,0-.1641.1436.3684.3684,0,0,0-.07.1885.34.34,0,0,0,.0415.2041.5859.5859,0,0,0,.1563.17,1.5724,1.5724,0,0,0,.2544.1592c.1011.0508.2153.1045.3438.1592a3.5162,3.5162,0,0,1,.4668.2422,1.5135,1.5135,0,0,1,.3467.2891,1.0192,1.0192,0,0,1,.2051.3682,1.2549,1.2549,0,0,1,.04.4824,1.3625,1.3625,0,0,1-.2.6367,1.3171,1.3171,0,0,1-.4263.417,1.853,1.853,0,0,1-.5942.23,3.5034,3.5034,0,0,1-.6973.0684,3.765,3.765,0,0,1-.7036-.0625A1.9643,1.9643,0,0,1,25.0757,41.1572Z" style="fill: #fff"/>
    <path d="M29.9209,41.332H28.8994l.3965-4.5342h1.0215Z" style="fill: #fff"/>
    <path d="M30.7578,41.1572l.0879-1.0117a1.7357,1.7357,0,0,0,.5674.3467,1.8344,1.8344,0,0,0,.6416.1152,1.5252,1.5252,0,0,0,.34-.0342.865.865,0,0,0,.248-.0967A.4662.4662,0,0,0,32.8,40.33a.3761.3761,0,0,0,.0635-.1816.3652.3652,0,0,0-.0557-.2363.7126.7126,0,0,0-.19-.1934,1.8234,1.8234,0,0,0-.2959-.17c-.1152-.0547-.24-.1113-.374-.168a1.7553,1.7553,0,0,1-.7451-.541,1.1016,1.1016,0,0,1-.1934-.7715,1.2932,1.2932,0,0,1,.1963-.6084,1.3633,1.3633,0,0,1,.4229-.4189,1.9124,1.9124,0,0,1,.5889-.2422,3.0046,3.0046,0,0,1,.69-.0762,4.1792,4.1792,0,0,1,.623.041,2.3757,2.3757,0,0,1,.4932.1318l-.082.9453a1.4037,1.4037,0,0,0-.2363-.1387,1.8025,1.8025,0,0,0-.2686-.1,1.94,1.94,0,0,0-.543-.0781,1.4128,1.4128,0,0,0-.3193.0332.8881.8881,0,0,0-.248.0938.5152.5152,0,0,0-.1641.1436.3647.3647,0,0,0-.07.1885.3365.3365,0,0,0,.042.2041.5815.5815,0,0,0,.1553.17,1.5786,1.5786,0,0,0,.2549.1592c.1006.0508.2158.1045.3438.1592a3.5162,3.5162,0,0,1,.4668.2422,1.5031,1.5031,0,0,1,.3467.2891,1.0049,1.0049,0,0,1,.2051.3682,1.2646,1.2646,0,0,1,.04.4824,1.3737,1.3737,0,0,1-.2.6367,1.3156,1.3156,0,0,1-.4258.417,1.86,1.86,0,0,1-.5947.23,3.5034,3.5034,0,0,1-.6973.0684,3.7778,3.7778,0,0,1-.7041-.0625A1.9575,1.9575,0,0,1,30.7578,41.1572Z" style="fill: #fff"/>
    <path d="M38.0889,37.6289h-1.293l-.3242,3.7031H35.4473l.3242-3.7031H34.4844l.0723-.8311h3.6045Z" style="fill: #fff"/>
    <path d="M41.875,41.332H40.7617l-.2344-1.0088H38.915l-.4072,1.0088H37.4l2.0469-4.5342h1.2109Zm-1.5137-1.793-.3525-1.5234a1.8321,1.8321,0,0,1-.04-.4082h-.0254a1.87,1.87,0,0,1-.1143.3955l-.6279,1.5361Z" style="fill: #fff"/>
    <path d="M46.5205,41.332H45.4893L43.87,38.4834a3.6347,3.6347,0,0,1-.1953-.377h-.0117c.002.1611-.0107.4053-.04.7334l-.2178,2.4922h-.9639l.3965-4.5342h1.1006l1.5576,2.7607c.0713.124.1367.2471.1953.3691h.0127a4.8994,4.8994,0,0,1,.0283-.623l.22-2.5068h.9648Z" style="fill: #fff"/>
    <path d="M51.0645,37.6289h-1.293l-.3242,3.7031H48.4229l.3242-3.7031H47.46l.0723-.8311h3.6045Z" style="fill: #fff"/>
  </g>
</svg>
