<svg id="Layer_1" data-name="Layer 1" xmlns="http://www.w3.org/2000/svg" width="70" height="70" viewBox="0 0 70 70">
  <title>news</title>
  <path d="M67.87,34.52A33.12,33.12,0,0,1,56.72,59.37Q56,60,55.21,60.64a34.65,34.65,0,0,1-4.12,2.77A33.3,33.3,0,0,1,19.16,64L8.53,68.52a1,1,0,0,1-1.4-1L8.5,56.09l.1-.85A34.49,34.49,0,0,1,6,51.49v-.07L3,42.06v-.12c-.12-.54-.23-1.06-.32-1.61a28.76,28.76,0,0,1-.4-3.1c-.06-.67-.1-1.34-.11-2,0-.22,0-.45,0-.68A33.17,33.17,0,0,1,3.85,24.1,32.85,32.85,0,0,1,57.86,11a32.16,32.16,0,0,1,3.66,4.23A30.46,30.46,0,0,1,64,19.14v-.2a32.86,32.86,0,0,1,3.32,9.55c.09.49.17,1,.24,1.5A32,32,0,0,1,67.87,34.52Z" style="fill: #ed1926"/>
  <path d="M13,25H43a5,5,0,0,1,5,5v8a0,0,0,0,1,0,0H13a0,0,0,0,1,0,0V25A0,0,0,0,1,13,25Z" style="fill: #011515;opacity: 0.2"/>
  <path d="M18,35H56a5,5,0,0,1,5,5v8a0,0,0,0,1,0,0H18a0,0,0,0,1,0,0V35A0,0,0,0,1,18,35Z" style="opacity: 0.2"/>
  <rect x="27" y="49" width="18" height="1" rx="0.5" ry="0.5" style="fill: #fff"/>
  <rect x="49" y="49" width="6" height="1" rx="0.5" ry="0.5" style="fill: #fff"/>
  <path d="M51.73,25A4.6,4.6,0,0,0,50.61,23,4.67,4.67,0,0,0,48,21.73a4.67,4.67,0,0,0,2.37-1.65,4.6,4.6,0,0,0,.85-2,4.67,4.67,0,0,0,1.65,2.37,4.6,4.6,0,0,0,2,.85A4.6,4.6,0,0,0,53,22.39,4.67,4.67,0,0,0,51.73,25Z" style="fill: #fff;stroke: #fff;stroke-miterlimit: 10;stroke-width: 0.307461351396425px"/>
  <path d="M16,33H54a5,5,0,0,1,5,5v8a0,0,0,0,1,0,0H16a0,0,0,0,1,0,0V33A0,0,0,0,1,16,33Z" style="fill: #fff"/>
  <path d="M11,23H41a5,5,0,0,1,5,5v8a0,0,0,0,1,0,0H11a0,0,0,0,1,0,0V23A0,0,0,0,1,11,23Z" style="fill: #011515"/>
  <text transform="translate(13.11 32.84)" style="font-size: 6.900000095367432px;fill: #fff;font-family: Poppins-SemiBold, Poppins;font-weight: 700">WEBSITE</text>
  <text transform="translate(19.52 42.65)" style="font-size: 6.900000095367432px;font-family: Poppins-SemiBold, Poppins;font-weight: 700">ASSISTANT</text>
  <path d="M11,23.41,40.88,23A47.79,47.79,0,0,0,11,35.41Z" style="fill: #fff;stroke: #fff;stroke-miterlimit: 10;stroke-width: 0.307461351396425px;opacity: 0.1"/>
</svg>
