<svg id="Layer_1" data-name="Layer 1" xmlns="http://www.w3.org/2000/svg" width="65" height="65" viewBox="0 0 65 65">
  <title>news</title>
  <path d="M32.5,63.5h0a31,31,0,0,1-31-31h0a31,31,0,0,1,31-31h28a3,3,0,0,1,3,3v28A31,31,0,0,1,32.5,63.5Z" style="fill: #0d6aa2"/>
  <polygon points="37.321 34.236 9.538 34.236 10.449 23.818 38.232 23.818 37.321 34.236" style="opacity: 0.2"/>
  <polygon points="58.607 42.34 11.144 42.34 12.056 31.921 59.518 31.921 58.607 42.34" style="opacity: 0.2"/>
  <polygon points="57.551 41.182 10.088 41.182 10.999 30.764 58.462 30.764 57.551 41.182" style="fill: #fff"/>
  <polygon points="36.265 33.079 8.482 33.079 9.393 22.66 37.176 22.66 36.265 33.079"/>
  <g>
    <path d="M17.1567,24.9741l-.4951,5.6631H15.5269l-2.229-3.8809-.3394,3.8809H11.8237l.4951-5.6631h1.1348l2.228,3.8887.34-3.8887Z" style="fill: #fff"/>
    <path d="M21.4766,25.8975H19.3291l-.124,1.4175h1.9043l-.0786.9H19.1265l-.1313,1.499h2.1475l-.0806.9233H17.78l.4951-5.6631h3.2822Z" style="fill: #fff"/>
    <path d="M22.2051,24.9819H23.42l.6128,4.3916,1.5347-4.3916h1.2637l.7036,4.3672,1.3872-4.3672h1.2227l-2.0737,5.6553H26.7339l-.7095-4.0264L24.562,30.6372l-1.33.0078Z" style="fill: #fff"/>
    <path d="M32.3359,30.6938c-1.1748,0-2.0278-.6162-1.9512-1.6851h1.2158a.7025.7025,0,0,0,.7925.7539.808.808,0,0,0,.9106-.689c.1074-1.2236-2.874-.4863-2.686-2.5361a1.9167,1.9167,0,0,1,2.1362-1.6362c1.1582,0,1.9.5913,1.8848,1.6118h-1.248a.6734.6734,0,0,0-.751-.6719.7245.7245,0,0,0-.8364.6641c-.0991,1.1348,2.8569.502,2.6821,2.4956A1.9791,1.9791,0,0,1,32.3359,30.6938Z" style="fill: #fff"/>
  </g>
  <g>
    <path d="M16.3652,38.792H14.1123l-.4678,1.0771h-1.19l2.5288-5.6621h1.3213l1.5376,5.6621H16.6426Zm-.8408-3.2734L14.499,37.8848h1.6367Z"/>
    <path d="M20.5518,39.9258c-1.1748,0-2.0283-.6152-1.9512-1.6846h1.2158a.7025.7025,0,0,0,.7925.7539.808.808,0,0,0,.9106-.6895c.1074-1.2236-2.874-.4863-2.686-2.5361A1.9164,1.9164,0,0,1,20.97,34.1338c1.1582,0,1.9.5918,1.8843,1.6123H21.606a.6732.6732,0,0,0-.75-.6729.7244.7244,0,0,0-.8364.665c-.1,1.1338,2.8564.502,2.6821,2.4951A1.9791,1.9791,0,0,1,20.5518,39.9258Z"/>
    <path d="M25.4863,39.9258c-1.1748,0-2.0283-.6152-1.9512-1.6846H24.751a.7025.7025,0,0,0,.7925.7539.808.808,0,0,0,.9106-.6895c.1074-1.2236-2.874-.4863-2.686-2.5361a1.9164,1.9164,0,0,1,2.1362-1.6357c1.1582,0,1.9.5918,1.8843,1.6123h-1.248a.6732.6732,0,0,0-.75-.6729.7244.7244,0,0,0-.8364.665c-.1,1.1338,2.8564.502,2.6821,2.4951A1.9791,1.9791,0,0,1,25.4863,39.9258Z"/>
    <path d="M28.9688,34.2148h1.1348l-.4951,5.6543H28.4736Z"/>
    <path d="M32.6748,39.9258c-1.1748,0-2.0283-.6152-1.9512-1.6846h1.2158a.7025.7025,0,0,0,.7925.7539.8077.8077,0,0,0,.9106-.6895c.1074-1.2236-2.874-.4863-2.686-2.5361a1.9164,1.9164,0,0,1,2.1362-1.6357c1.1582,0,1.9.5918,1.8848,1.6123h-1.248a.6738.6738,0,0,0-.751-.6729.7244.7244,0,0,0-.8364.665c-.1,1.1338,2.856.502,2.6821,2.4951A1.9791,1.9791,0,0,1,32.6748,39.9258Z"/>
    <path d="M35.8574,34.2148h4.1484l-.08.915H38.418l-.415,4.7393H36.8691l.415-4.7393H35.7773Z"/>
    <path d="M43.9,38.792H41.6475L41.18,39.8691h-1.19l2.5283-5.6621H43.84l1.5371,5.6621H44.1777ZM43.06,35.5186l-1.0254,2.3662h1.6367Z"/>
    <path d="M51.4727,34.207l-.4961,5.6621H49.8418l-2.2285-3.88-.34,3.88H46.1387l.4961-5.6621H47.77l2.2275,3.8877.3408-3.8877Z"/>
    <path d="M52.291,34.2148h4.1484l-.08.915H54.8516l-.415,4.7393H53.3027l.415-4.7393H52.2109Z"/>
  </g>
  <path d="M22.7,44H43a0,0,0,0,1,0,0v.3a.7.7,0,0,1-.7.7H22a0,0,0,0,1,0,0v-.3A.7.7,0,0,1,22.7,44Z" style="fill: #fff"/>
  <path d="M45.7,44H50a0,0,0,0,1,0,0v.3a.7.7,0,0,1-.7.7H45a0,0,0,0,1,0,0v-.3A.7.7,0,0,1,45.7,44Z" style="fill: #fff"/>
</svg>
