<svg id="Layer_1" data-name="Layer 1" xmlns="http://www.w3.org/2000/svg" width="65" height="65" viewBox="0 0 65 65">
  <title>news</title>
  <path d="M63.85,32.115A31.22128,31.22128,0,0,1,53.343,55.542q-.69824.61274-1.425,1.197a32.66553,32.66553,0,0,1-3.88553,2.6125,31.39123,31.39123,0,0,1-30.096.532L7.914,64.1585a.95521.95521,0,0,1-1.32051-.988L7.88553,52.445l.095-.798a32.51184,32.51184,0,0,1-2.451-3.534v-.00951a31.23982,31.23982,0,0,1-3.58146-8.892V39.202c-.11405-.513-.21854-1.01651-.304-1.539a27.46125,27.46125,0,0,1-.38-2.964c-.057-.63648-.095-1.28253-.10449-1.938C1.15,32.552,1.15,32.3335,1.15,32.115a31.67975,31.67975,0,0,1,1.6055-9.956,31.37063,31.37063,0,0,1,51.585-12.54,30.713,30.713,0,0,1,3.496,4.0375,29.0931,29.0931,0,0,1,2.36549,3.762V17.428a30.97124,30.97124,0,0,1,3.12554,9.006c.08547.46549.16148.94049.228,1.41549A30.157,30.157,0,0,1,63.85,32.115Z" style="fill: #4c79ae"/>
  <rect x="10.89857" y="34" width="48.12313" height="12.06086" style="opacity: 0.3"/>
  <rect x="6.4436" y="24.61933" width="39.70576" height="12.06086" style="opacity: 0.3"/>
  <rect x="9.18193" y="31.31981" width="47.92074" height="12.06086" style="fill: #fff"/>
  <rect x="5.07444" y="21.93914" width="39.70576" height="12.06086"/>
  <g>
    <path d="M7.9624,24.77539H9.16895l.98877,4.3584,1.14209-4.3584H12.5542l1.07764,4.334.99707-4.334h1.21436L14.2749,30.38818H12.94824L11.895,26.3916,10.793,30.38818,9.47412,30.396Z" style="fill: #fff"/>
    <path d="M19.83057,25.68408H17.69971v1.40723h1.88965v.89258H17.69971v1.48779h2.13086v.9165H16.57373V24.76709h3.25684Z" style="fill: #fff"/>
    <path d="M23.272,30.38818H20.85156V24.77539h2.31592c1.17432,0,1.82568.61084,1.82568,1.44727a1.29394,1.29394,0,0,1-.957,1.28662,1.361,1.361,0,0,1,1.08545,1.35889C25.12158,29.76074,24.438,30.38818,23.272,30.38818Zm-.26514-4.7041h-1.0293v1.40723h1.0293c.53076,0,.83643-.24121.83643-.69971C23.84326,25.94141,23.5376,25.68408,23.00684,25.68408Zm.08057,2.27539H21.97754v1.51221h1.13379c.54688,0,.86865-.26562.86865-.74023C23.98,28.249,23.63428,27.95947,23.0874,27.95947Z" style="fill: #fff"/>
    <path d="M27.95947,30.44434c-1.166,0-2.06641-.61084-2.08252-1.67236H27.083a.77047.77047,0,0,0,.85254.74756c.53076,0,.84424-.28125.84424-.68311,0-1.21436-2.895-.48291-2.88672-2.51709,0-1.01318.82031-1.62451,1.978-1.62451a1.77371,1.77371,0,0,1,2.01025,1.6001H28.64307a.74067.74067,0,0,0-.8042-.667c-.44238-.01611-.772.20068-.772.65918,0,1.126,2.87891.49854,2.87891,2.47656A1.77061,1.77061,0,0,1,27.95947,30.44434Z" style="fill: #fff"/>
    <path d="M30.918,24.77539h1.126v5.61279H30.918Z" style="fill: #fff"/>
    <path d="M32.85547,24.77539h4.11719v.90869H35.47754v4.7041h-1.126v-4.7041H32.85547Z" style="fill: #fff"/>
    <path d="M41.0498,25.68408H38.91895v1.40723h1.88965v.89258H38.91895v1.48779H41.0498v.9165H37.793V24.76709H41.0498Z" style="fill: #fff"/>
  </g>
  <g>
    <path d="M14.75684,39.77539H12.52148l-.37012,1.06934H10.96924l2.01855-5.62109h1.31055l2.01855,5.62109H15.127Zm-1.11768-3.249-.8125,2.34863h1.62451Z"/>
    <path d="M19.00977,40.90137c-1.166,0-2.06641-.61133-2.08252-1.67285H18.1333a.77083.77083,0,0,0,.85254.748c.53076,0,.84424-.28223.84424-.68359,0-1.21484-2.895-.48242-2.88672-2.51758,0-1.0127.82031-1.624,1.978-1.624A1.77374,1.77374,0,0,1,20.93164,36.752H19.69336a.741.741,0,0,0-.8042-.668c-.44189-.01562-.772.20117-.772.65918,0,1.126,2.87891.499,2.87891,2.47754A1.77116,1.77116,0,0,1,19.00977,40.90137Z"/>
    <path d="M23.90674,40.90137c-1.166,0-2.06641-.61133-2.08252-1.67285h1.20605a.77083.77083,0,0,0,.85254.748c.53076,0,.84424-.28223.84424-.68359,0-1.21484-2.895-.48242-2.88672-2.51758,0-1.0127.82031-1.624,1.978-1.624A1.77374,1.77374,0,0,1,25.82861,36.752H24.59033a.741.741,0,0,0-.8042-.668c-.44238-.01562-.772.20117-.772.65918,0,1.126,2.87891.499,2.87891,2.47754A1.77116,1.77116,0,0,1,23.90674,40.90137Z"/>
    <path d="M26.86523,35.23145h1.126v5.61328h-1.126Z"/>
    <path d="M31.03906,40.90137c-1.1665,0-2.06689-.61133-2.083-1.67285h1.20605a.77083.77083,0,0,0,.85254.748c.53027,0,.84473-.28223.84473-.68359,0-1.21484-2.89551-.48242-2.88721-2.51758,0-1.0127.82031-1.624,1.978-1.624A1.77394,1.77394,0,0,1,32.96094,36.752H31.72266a.74183.74183,0,0,0-.80469-.668c-.44238-.01562-.772.20117-.772.65918,0,1.126,2.87939.499,2.87939,2.47754A1.77143,1.77143,0,0,1,31.03906,40.90137Z"/>
    <path d="M33.69922,35.23145h4.11719v.90918H36.32129v4.7041h-1.126v-4.7041H33.69922Z"/>
    <path d="M42.07813,39.77539H39.84277l-.36914,1.06934H38.291l2.01855-5.62109h1.31055l2.01855,5.62109H42.44824Zm-1.11719-3.249-.8125,2.34863h1.625Z"/>
    <path d="M49.19434,35.22363v5.62109h-1.126l-2.54883-3.85156v3.85156h-1.126V35.22363h1.126L48.06836,39.084V35.22363Z"/>
    <path d="M50.00586,35.23145H54.123v.90918H52.627v4.7041H51.501v-4.7041H50.00586Z"/>
  </g>
  <path d="M25,48H41a0,0,0,0,1,0,0v0a1,1,0,0,1-1,1H24a0,0,0,0,1,0,0v0A1,1,0,0,1,25,48Z" style="fill: #fff"/>
  <path d="M44,48h3a0,0,0,0,1,0,0v0a1,1,0,0,1-1,1H43a0,0,0,0,1,0,0v0A1,1,0,0,1,44,48Z" style="fill: #fff"/>
</svg>
