<svg id="Layer_1" data-name="Layer 1" xmlns="http://www.w3.org/2000/svg" width="65" height="65" viewBox="0 0 65 65">
  <title>news</title>
  <g>
    <path d="M64.1932,32.11074a31.56307,31.56307,0,0,1-10.622,23.6835q-.70588.61945-1.4406,1.21011a33.02313,33.02313,0,0,1-3.92806,2.6411,31.73488,31.73488,0,0,1-30.42546.53782L7.64484,64.50507a.96567.96567,0,0,1-1.335-.99885L7.61606,52.66333l.096-.80676A32.86776,32.86776,0,0,1,5.23423,48.2839v-.00961A31.58182,31.58182,0,0,1,1.61356,39.285v-.00961c-.1153-.51859-.22093-1.02764-.30734-1.55584A27.76188,27.76188,0,0,1,.922,34.72306c-.05762-.64345-.096-1.29658-.10563-1.95925C.8068,32.55255.8068,32.33167.8068,32.11074a32.02656,32.02656,0,0,1,1.62308-10.065A31.71406,31.71406,0,0,1,54.57959,9.36848a31.04919,31.04919,0,0,1,3.53426,4.0817,29.4116,29.4116,0,0,1,2.39139,3.80321V17.263A31.31029,31.31029,0,0,1,63.665,26.36757c.0864.47059.16325.95079.23049,1.431A30.48712,30.48712,0,0,1,64.1932,32.11074Z" style="fill: #20840e"/>
    <polygon points="58.429 46.569 13.392 46.569 14.799 30.484 59.836 30.484 58.429 46.569" style="opacity: 0.30000000000000004"/>
    <polygon points="46.687 33.701 9.693 33.701 10.959 19.225 47.953 19.225 46.687 33.701" style="opacity: 0.30000000000000004"/>
    <polygon points="56.961 44.96 11.925 44.96 13.332 28.876 58.368 28.876 56.961 44.96" style="fill: #fff"/>
    <polygon points="45.219 32.093 8.225 32.093 9.491 17.617 46.486 17.617 45.219 32.093"/>
    <g>
      <path d="M18.36963,28.68359l.23779-2.71875a4.09989,4.09989,0,0,0-.20947-.36328,1.99775,1.99775,0,0,0-.22021-.28467,1.0705,1.0705,0,0,0-.22363-.189.41563.41563,0,0,0-.21094-.06787.48318.48318,0,0,0-.31885.17188,4.63023,4.63023,0,0,0-.37451.4292c-.13379.17139-.27832.356-.43213.55566a5.35288,5.35288,0,0,1-.49414.55615,2.77483,2.77483,0,0,1-.563.4292,1.26522,1.26522,0,0,1-.63916.17139.93418.93418,0,0,1-.51221-.146,1.59862,1.59862,0,0,1-.40039-.35986,2.17959,2.17959,0,0,1-.27832-.45557,1.90552,1.90552,0,0,1-.14355-.42822l.93115-.62744a2.32659,2.32659,0,0,0,.28076.61816.38356.38356,0,0,0,.29883.18848.57179.57179,0,0,0,.36768-.19141,4.11916,4.11916,0,0,0,.48779-.59082,2.58326,2.58326,0,0,0-.25049-.82764,2.45823,2.45823,0,0,0-.43213-.60742,2.223,2.223,0,0,0-.5415-.40723,2.94745,2.94745,0,0,0-.57324-.23682l.05127-.5835H12.99121l.09277-1.06055H21.415l-.09277,1.06055H20.12109l-.522,5.96533ZM16.8291,24.311a3.525,3.525,0,0,1,.5127-.34473.98583.98583,0,0,1,.45557-.11768,1.07931,1.07931,0,0,1,.4751.11768,2.15166,2.15166,0,0,1,.48047.335l.13867-1.583H15.78125a2.50733,2.50733,0,0,1,.3833.34814,2.678,2.678,0,0,1,.29346.394,2.98732,2.98732,0,0,1,.21533.41943A4.526,4.526,0,0,1,16.8291,24.311Z" style="fill: #fff"/>
      <path d="M23.35791,29.45215a3.16621,3.16621,0,0,0-.20117-.603,5.25076,5.25076,0,0,0-.32959-.62256,6.35165,6.35165,0,0,0-.42773-.60791,7.2574,7.2574,0,0,0-.49219-.55859,5.71131,5.71131,0,0,0-.52734-.47266,3.67583,3.67583,0,0,0-.5293-.354l.00488-.05664,1.02441-.66943a5.487,5.487,0,0,1,.86084.64111,6.14226,6.14226,0,0,1,.75732.82031,5.55973,5.55973,0,0,1,.57861.92139,3.57288,3.57288,0,0,1,.32568.93945l-.98779.62256ZM23.03027,25.126a1.22163,1.22163,0,0,1-.939-.41748,1.25356,1.25356,0,0,1-.25146-.44043,1.27471,1.27471,0,0,1-.05957-.52246,1.37526,1.37526,0,0,1,.15674-.53516,1.57245,1.57245,0,0,1,.33691-.43066,1.55509,1.55509,0,0,1,.46143-.28809,1.38448,1.38448,0,0,1,.5249-.103,1.28888,1.28888,0,0,1,.53027.10791,1.21058,1.21058,0,0,1,.41162.29443,1.24957,1.24957,0,0,1,.32031.95459,1.40084,1.40084,0,0,1-.15918.542,1.605,1.605,0,0,1-.33691.4375A1.54535,1.54535,0,0,1,23.562,25.02,1.38864,1.38864,0,0,1,23.03027,25.126Zm.15771-1.7998a.42724.42724,0,0,0-.17139.03516.58918.58918,0,0,0-.14453.09131.473.473,0,0,0-.10352.13428.44209.44209,0,0,0-.04639.16357.3962.3962,0,0,0,.09473.31055.36435.36435,0,0,0,.28564.12744.416.416,0,0,0,.17334-.03809.60421.60421,0,0,0,.14893-.09619.45919.45919,0,0,0,.10693-.13916.47046.47046,0,0,0,.04785-.16455.38111.38111,0,0,0-.10352-.30176.38876.38876,0,0,0-.12891-.08936A.38126.38126,0,0,0,23.188,23.32617Z" style="fill: #fff"/>
      <path d="M29.98828,22.71826H25.1582l.09277-1.06055h7.2666l-.09277,1.06055H31.21875l-.53857,6.1543h-.69336a2.45946,2.45946,0,0,0-.40479-.65283,3.89392,3.89392,0,0,0-.58545-.55176,5.07754,5.07754,0,0,0-.71631-.457,7.47431,7.47431,0,0,0-.7998-.36279q-.41309-.15747-.834-.27344c-.28027-.07715-.55371-.14014-.81885-.19092l.11963-1.36572q.10986-.09009.356-.25293c.16357-.10791.355-.22852.57324-.35986.21875-.13232.459-.26855.71973-.41064q.39038-.21167.79736-.39795c.27148-.12354.542-.23242.80859-.32471a4.11509,4.11509,0,0,1,.75391-.19092Zm-2.50049,2.728-.00488.05615c.30078.11084.56592.21729.79395.32129a6.61322,6.61322,0,0,1,.5957.30322,4.73341,4.73341,0,0,1,.43213.2832,3.61678,3.61678,0,0,1,.30957.25684h.02832l.2002-2.28516a1.83266,1.83266,0,0,0-.41113.09619q-.26953.08789-.6001.23047c-.22021.09668-.44873.20752-.68457.335A6.98986,6.98986,0,0,0,27.48779,25.44629Z" style="fill: #fff"/>
      <path d="M32.856,23.43408a.63056.63056,0,0,0-.03418-.2749.66213.66213,0,0,0-.14209-.229.67832.67832,0,0,0-.23437-.15527.80408.80408,0,0,0-.30859-.05664h-.37207l.09277-1.06055h.59863a1.77081,1.77081,0,0,1,.25977.02148,1.58468,1.58468,0,0,1,.30176.0752,1.7626,1.7626,0,0,1,.30664.14209,1.169,1.169,0,0,1,.26953.21387l.00391-.03809a.53845.53845,0,0,1,.1084-.29687.27678.27678,0,0,1,.22461-.11768h1.5127l-.09277,1.06055h-.40527a.881.881,0,0,0-.31836.05664.90065.90065,0,0,0-.26562.15527.81573.81573,0,0,0-.18945.229.69055.69055,0,0,0-.08594.2749l-.459,5.24951h-1.23Z" style="fill: #fff"/>
      <path d="M39.626,29.22559a4.70574,4.70574,0,0,1-.58887-1.44873,4.97254,4.97254,0,0,1-.09082-1.501,5.95812,5.95812,0,0,1,.11914-.76562,7.93976,7.93976,0,0,1,.21875-.78516l-.01172-.02295a1.86927,1.86927,0,0,0-.40332.24219c-.15723.11865-.32812.25879-.50977.42188q-.27393.24536-.56934.53516c-.19824.19287-.38965.38818-.5752.584-.18457.19629-.35937.38623-.52344.56787q-.24463.27319-.41895.48535h-.02832l-.49316-.77246.35449-4.04785H34.69141l.09277-1.06055h7.05957L41.751,22.71826H37.335L37.13672,24.98H37.165q.26514-.23.60254-.49512.33545-.26367.71289-.50879a8.34436,8.34436,0,0,1,.78125-.44922,4.49994,4.49994,0,0,1,.80078-.31836l.77441.90479a5.15383,5.15383,0,0,0-.43848,1.05078,5.66433,5.66433,0,0,0-.21387,1.12549,4.55046,4.55046,0,0,0-.01562.61279,3.55264,3.55264,0,0,0,.06152.53711,3.99737,3.99737,0,0,0,.124.49023q.07617.23657.17285.47119l-.84473.82471Z" style="fill: #fff"/>
    </g>
    <g>
      <path d="M21.83838,42.834l.23779-2.71973a3.79,3.79,0,0,0-.20947-.3623,2.00368,2.00368,0,0,0-.22021-.28516,1.02676,1.02676,0,0,0-.22363-.18848.412.412,0,0,0-.21094-.06836.4834.4834,0,0,0-.31836.17188,4.57038,4.57038,0,0,0-.37451.42969q-.20142.25635-.43262.55469a5.256,5.256,0,0,1-.49365.55664,2.791,2.791,0,0,1-.563.42969,1.271,1.271,0,0,1-.63916.1709.93332.93332,0,0,1-.5127-.14648,1.5936,1.5936,0,0,1-.3999-.35937,2.18324,2.18324,0,0,1-.27881-.45508,1.91271,1.91271,0,0,1-.14307-.42871l.93066-.627a2.29252,2.29252,0,0,0,.28125.61719.383.383,0,0,0,.29883.18945.57056.57056,0,0,0,.36719-.19238,4.07072,4.07072,0,0,0,.48828-.58984,2.58258,2.58258,0,0,0-.251-.82812,2.45465,2.45465,0,0,0-.43213-.60742,2.20152,2.20152,0,0,0-.5415-.40723,2.92829,2.92829,0,0,0-.57275-.23633l.05078-.584H16.46l.09277-1.06055h8.33105L24.791,36.86816H23.58984l-.522,5.96582Zm-1.54-4.373a3.48416,3.48416,0,0,1,.51221-.34473.993.993,0,0,1,.45605-.11719,1.08322,1.08322,0,0,1,.47461.11719,2.13568,2.13568,0,0,1,.48047.335l.13867-1.583H19.25a2.514,2.514,0,0,1,.38379.34863,2.70928,2.70928,0,0,1,.29346.39355,2.99253,2.99253,0,0,1,.21533.41992Q20.23193,38.24414,20.29834,38.46094Z"/>
      <path d="M27.85205,40.61426a8.06564,8.06564,0,0,1,1.38623.8291c.22168.167.43506.34277.63672.52832a5.89233,5.89233,0,0,1,.54639.57031l-.97461.9043a4.32679,4.32679,0,0,0-.57861-.709,5.55527,5.55527,0,0,0-.71289-.59863,6.42114,6.42114,0,0,0-.80469-.4834A7.62544,7.62544,0,0,0,26.5,41.28809a7.39739,7.39739,0,0,0-1.68359-.3916L25.0459,39.667c.041.00293.11133.01172.21289.02637.1001.01367.207.03027.3208.04883.11279.01953.22217.03809.32715.05762.105.01855.18066.0332.22656.041a.65634.65634,0,0,0,.07568.00488h.08008c.1123,0,.24121-.00586.38281-.01758a3.74021,3.74021,0,0,0,.43213-.06445,3.50811,3.50811,0,0,0,.42725-.11523,1.97946,1.97946,0,0,0,.375-.16992,1.01369,1.01369,0,0,0,.27246-.23047.54553.54553,0,0,0,.12109-.30176.434.434,0,0,0-.06543-.27832.74279.74279,0,0,0-.19873-.207,1.01534,1.01534,0,0,0-.24951-.12988.72025.72025,0,0,0-.2207-.04395.94776.94776,0,0,1-.21484.33594,1.32449,1.32449,0,0,1-.31787.23828,1.6082,1.6082,0,0,1-.36914.14355,1.481,1.481,0,0,1-.37158.0498.92513.92513,0,0,1-.36621-.06348.64643.64643,0,0,1-.24023-.16992.60142.60142,0,0,1-.124-.24512.87687.87687,0,0,1-.02246-.28906.85471.85471,0,0,1,.07861-.29687,1.12751,1.12751,0,0,1,.38574-.457,1.7142,1.7142,0,0,1,.27051-.15625c-.01025-.06348-.02441-.14453-.04395-.24512s-.03906-.18848-.05713-.26367h-2.041l.09277-1.06055h7.31348l-.09277,1.06055H27.37891l.05176.3252a3.04239,3.04239,0,0,1,.52637.04688,2.92805,2.92805,0,0,1,.51758.1416,2.40323,2.40323,0,0,1,.4668.23535,1.66309,1.66309,0,0,1,.37158.32813,1.30334,1.30334,0,0,1,.23682.416,1.19253,1.19253,0,0,1,.05762.50488,1.40155,1.40155,0,0,1-.187.59863,1.97106,1.97106,0,0,1-.39746.48047,2.69631,2.69631,0,0,1-.54443.37012,5.01145,5.01145,0,0,1-.624.27148Z"/>
      <path d="M35.61523,36.86816H30.78516l.09277-1.06055h9.89551l-.09277,1.06055h-3.835l-.03223.36816a2.99033,2.99033,0,0,1,.69043.10254,3.49293,3.49293,0,0,1,.668.25977,3.06589,3.06589,0,0,1,.5918.39844,2.52315,2.52315,0,0,1,.46289.51855,2.17817,2.17817,0,0,1,.29.61914,1.90158,1.90158,0,0,1,.06543.70605,2.31794,2.31794,0,0,1-.1582.66016,2.19085,2.19085,0,0,1-.3418.583,1.72407,1.72407,0,0,1-.49316.41406,1.22977,1.22977,0,0,1-.6123.15723,1.07842,1.07842,0,0,1-.43262-.084.95865.95865,0,0,1-.32227-.22656.90993.90993,0,0,1-.19043-.32715.96607.96607,0,0,1-.04395-.38965,1.15493,1.15493,0,0,1,.09668-.374,1.09006,1.09006,0,0,1,.209-.31152.97929.97929,0,0,1,.29883-.21191.869.869,0,0,1,.36719-.07812.95489.95489,0,0,1,.53613.17578l.02539-.02832a.80723.80723,0,0,0-.13965-.5,1.45012,1.45012,0,0,0-.415-.40332A2.198,2.198,0,0,0,37.373,38.626a2.34336,2.34336,0,0,0-.67285-.09863l-.39258,4.49512h-.69434a2.43036,2.43036,0,0,0-.4043-.65234,3.75841,3.75841,0,0,0-.58594-.55176,4.98723,4.98723,0,0,0-.71484-.457,7.49285,7.49285,0,0,0-.80078-.36328c-.2749-.10547-.55322-.19531-.8335-.27344-.28027-.07715-.5542-.13965-.81934-.19043l.11963-1.36621c.07373-.06055.19238-.14355.356-.25293.16406-.10742.355-.22852.57373-.35937.21875-.13281.459-.26855.71875-.41113.26172-.14062.52637-.27344.79883-.39746q.40723-.186.80859-.3252a4.08229,4.08229,0,0,1,.75391-.19043Zm-2.5,2.72754-.00586.05664c.30078.11133.56641.2168.79492.32129a6.67328,6.67328,0,0,1,.5957.30371,4.43148,4.43148,0,0,1,.43164.2832,3.51381,3.51381,0,0,1,.30957.25684h.02832l.2002-2.28516a1.80439,1.80439,0,0,0-.41113.0957q-.26953.08789-.59961.23047-.33105.145-.68457.335A7.19833,7.19833,0,0,0,33.11523,39.5957Z"/>
      <path d="M41.11328,37.584a.63462.63462,0,0,0-.03418-.27539.64826.64826,0,0,0-.377-.38379.80408.80408,0,0,0-.30859-.05664h-.37207l.09277-1.06055h.59863a1.77081,1.77081,0,0,1,.25977.02148,1.5668,1.5668,0,0,1,.30176.0752,1.8376,1.8376,0,0,1,.30664.1416,1.23734,1.23734,0,0,1,.27051.21387l.00293-.03711a.54166.54166,0,0,1,.1084-.29687.27732.27732,0,0,1,.22461-.11816h1.5127l-.09277,1.06055h-.40527a.881.881,0,0,0-.31836.05664.93559.93559,0,0,0-.26562.15527.80726.80726,0,0,0-.18848.22852.68216.68216,0,0,0-.08594.27539l-.459,5.25H40.6543Z"/>
      <path d="M47.77734,36.86816H42.94727L43.04,35.80762h7.2666l-.09277,1.06055H49.00781l-.53809,6.1543h-.69336a2.45865,2.45865,0,0,0-.40527-.65234,3.795,3.795,0,0,0-.585-.55176,4.99789,4.99789,0,0,0-.71582-.457,7.49285,7.49285,0,0,0-.80078-.36328c-.27539-.10547-.55273-.19531-.833-.27344-.28125-.07715-.55469-.13965-.81934-.19043l.11914-1.36621c.07324-.06055.19238-.14355.35645-.25293.16309-.10742.35449-.22852.57324-.35937.21875-.13281.459-.26855.71973-.41113q.38965-.21094.79688-.39746c.27148-.124.542-.23242.80859-.3252a4.1106,4.1106,0,0,1,.75488-.19043ZM44.24219,42.1084A.82426.82426,0,0,1,44.333,41.793a.89951.89951,0,0,1,.19531-.25488.88135.88135,0,0,1,.27051-.17187.85248.85248,0,0,1,.32422-.06348.74348.74348,0,0,1,.30957.06348.72508.72508,0,0,1,.24023.17188.71485.71485,0,0,1,.14941.25488.74568.74568,0,0,1,.03613.31543.85037.85037,0,0,1-.0918.31738.89614.89614,0,0,1-.19434.25684.9228.9228,0,0,1-.26953.17285.82634.82634,0,0,1-.32129.0625.76669.76669,0,0,1-.3125-.0625.72552.72552,0,0,1-.24121-.17285.70864.70864,0,0,1-.15039-.25684A.77673.77673,0,0,1,44.24219,42.1084Zm1.03516-2.5127-.00488.05664c.30078.11133.56543.2168.79395.32129a6.67328,6.67328,0,0,1,.5957.30371,4.43148,4.43148,0,0,1,.43164.2832,3.37606,3.37606,0,0,1,.30957.25684h.02832l.2002-2.28516a1.80439,1.80439,0,0,0-.41113.0957q-.26953.08789-.59961.23047-.33105.145-.68457.335A7.06811,7.06811,0,0,0,45.27734,39.5957Z"/>
      <path d="M49.64648,35.80762h1.20215a4.12389,4.12389,0,0,0-.01953-.55664,2.43369,2.43369,0,0,0-.12012-.54492,2.05618,2.05618,0,0,0-.24609-.49512,1.60172,1.60172,0,0,0-.39648-.40332,1.92484,1.92484,0,0,0-.56934-.27148,2.67929,2.67929,0,0,0-.76953-.09766H45.999q-.15967,0-.33105.01172a1.13822,1.13822,0,0,0-.31055.06055.60081.60081,0,0,0-.24023.15137.43136.43136,0,0,0-.11328.27539.33.33,0,0,0,.04395.22559.33774.33774,0,0,0,.17578.12012,1.143,1.143,0,0,0,.29.0498c.11426.00586.24414.00977.39258.00977h1.89844a1.62735,1.62735,0,0,1,.5918.09863,1.0642,1.0642,0,0,1,.42578.28711,1.09778,1.09778,0,0,1,.23926.46191,1.77079,1.77079,0,0,1,.043.61719H47.875a.40143.40143,0,0,0-.02832-.21191.25881.25881,0,0,0-.1377-.12207.8445.8445,0,0,0-.25488-.05664c-.10352-.00977-.23047-.01465-.37793-.01465H45.10156a1.30223,1.30223,0,0,1-.63477-.13867,1.20083,1.20083,0,0,1-.40625-.35059,1.23337,1.23337,0,0,1-.20312-.47168,1.74788,1.74788,0,0,1-.03223-.499,1.50341,1.50341,0,0,1,.19727-.63184,1.61742,1.61742,0,0,1,.44824-.49512,2.15966,2.15966,0,0,1,.67383-.32275,3.05021,3.05021,0,0,1,.86719-.11523h2.54a5.65036,5.65036,0,0,1,1.1875.11133,3.624,3.624,0,0,1,.88965.30127,2.48683,2.48683,0,0,1,.63379.44238,2.54742,2.54742,0,0,1,.417.53223,2.74892,2.74892,0,0,1,.249.57324,3.63931,3.63931,0,0,1,.123.56543,3.78627,3.78627,0,0,1,.0332.50684c-.001.15527-.00293.28809-.00684.39746h1.20215l-.09277,1.06055H51.98535L51.46387,42.834H50.23438l.52148-5.96582H49.55371Z"/>
    </g>
    <polygon points="8.225 32.093 9.491 17.617 46.486 17.617 8.225 32.093" style="fill: #fff;opacity: 0.1"/>
    <line x1="31" y1="49" x2="44.53846" y2="49" style="fill: none;stroke: #fff;stroke-linecap: round;stroke-miterlimit: 10;stroke-width: 0.699999988079071px"/>
    <line x1="47.92308" y1="49" x2="53" y2="49" style="fill: none;stroke: #fff;stroke-linecap: round;stroke-miterlimit: 10;stroke-width: 0.699999988079071px"/>
  </g>
</svg>
