<svg id="Layer_1" data-name="Layer 1" xmlns="http://www.w3.org/2000/svg" width="65" height="65" viewBox="0 0 65 65">
  <title>news</title>
  <path d="M32.5,1.5H61.6444A1.8556,1.8556,0,0,1,63.5,3.3556V32.5a31,31,0,0,1-31,31h0a31,31,0,0,1-31-31v0A31,31,0,0,1,32.5,1.5Z" style="fill: #478cc9"/>
  <g>
    <polygon points="45.264 34.497 9.085 34.497 10.461 18.767 46.64 18.767 45.264 34.497" style="opacity: 0.2"/>
    <polygon points="56.609 48.654 12.565 48.654 14.079 31.351 58.123 31.351 56.609 48.654" style="opacity: 0.2"/>
    <polygon points="54.401 46.234 10.357 46.234 11.871 28.931 55.915 28.931 54.401 46.234" style="fill: #fff"/>
    <polygon points="43.056 32.077 6.877 32.077 8.253 16.347 44.432 16.347 43.056 32.077"/>
    <g>
      <path d="M18.332,22.0742H17.3271l-.5107,5.834H15.6143l.1553-1.7744-.0181-.0039a2.241,2.241,0,0,1-1.1641.3452c-.0674,0-.1626-.0068-.2847-.0186a1.6655,1.6655,0,0,1-.3921-.0942,1.8272,1.8272,0,0,1-.4224-.2256,1.3672,1.3672,0,0,1-.3726-.4106,2.07,2.07,0,0,1-.2417-.6519,3.25,3.25,0,0,1-.0352-.9492l.18-2.0508H11.9912l.09-1.0371h6.3408Zm-2.207,0H14.2217l-.186,2.1245a2.0305,2.0305,0,0,0,.0161.5732.8546.8546,0,0,0,.1489.353.5186.5186,0,0,0,.25.1768,1.0131,1.0131,0,0,0,.3179.0488,1.1231,1.1231,0,0,0,.6323-.1733,1.8968,1.8968,0,0,0,.4956-.4951Z" style="fill: #fff"/>
      <path d="M21.2354,22.0742H20.23l-.5112,5.8389H18.5171l.5112-5.8389H18.01l.09-1.0371h1.0371a2.4663,2.4663,0,0,1-.166-1.06,1.9457,1.9457,0,0,1,.1948-.6968,1.7051,1.7051,0,0,1,.4629-.5708,2.24,2.24,0,0,1,.7476-.3853,3.5364,3.5364,0,0,1,1.0513-.14,4.2554,4.2554,0,0,1,1.3481.207,4.4675,4.4675,0,0,1,1.1675.5879,5.7938,5.7938,0,0,1,1.0176.9175,10.1135,10.1135,0,0,1,.8955,1.19H24.75c-.0981-.1069-.2124-.2285-.3442-.3638s-.2778-.2725-.44-.4106a6.4738,6.4738,0,0,0-.5293-.4023,4.65,4.65,0,0,0-.603-.3506,3.7057,3.7057,0,0,0-.67-.2471,2.8587,2.8587,0,0,0-.7246-.0913,2.0248,2.0248,0,0,0-.5723.0728,1.2226,1.2226,0,0,0-.415.2085.9044.9044,0,0,0-.2578.3149,1.1186,1.1186,0,0,0-.11.4038,1.4035,1.4035,0,0,0,.0234.394,1.9846,1.9846,0,0,0,.1406.4214h1.0781Z" style="fill: #fff"/>
      <path d="M24.6016,25.7886l-.0264-.0137-2.6157,1.77-.5728-.8853,3.3218-2.0918.0054-.06c-.1812-.1411-.335-.2607-.459-.3594a3.7187,3.7187,0,0,0-.33-.2354,1.4451,1.4451,0,0,0-.25-.1265.61.61,0,0,0-.2134-.04,1.129,1.129,0,0,0-.251.0347q-.1516.0352-.3691.1079c-.146.05-.3193.1133-.5215.1919s-.439.1733-.7095.2832L21.2651,23.36c.2681-.1055.5083-.1978.7227-.2793s.4087-.1509.5825-.2075a4.5232,4.5232,0,0,1,.4683-.1294,1.8364,1.8364,0,0,1,.3721-.0435.9688.9688,0,0,1,.332.0552,1.4959,1.4959,0,0,1,.3086.1587,3.7282,3.7282,0,0,1,.335.2539c.1182.1.2568.2139.4146.3433l.126-1.4375H20.9131l.09-1.0371h6.2207l-.09,1.0371H26.13l-.5107,5.834H24.416Z" style="fill: #fff"/>
      <path d="M32.0835,26.019a3.2542,3.2542,0,0,0,.5356-.332,2.5007,2.5007,0,0,0,.3945-.3716,1.7124,1.7124,0,0,0,.251-.3823,1.12,1.12,0,0,0,.1025-.3657,1.0357,1.0357,0,0,0-.01-.249.6693.6693,0,0,0-.0869-.2441.5778.5778,0,0,0-.1807-.1851.5271.5271,0,0,0-.2886-.0728.7853.7853,0,0,0-.3574.0894,1.4771,1.4771,0,0,0-.3394.2393,2.3708,2.3708,0,0,0-.2993.3418,2.9911,2.9911,0,0,0-.2446.3989l-.2646,3.0225H30.0938l.1328-1.5156-.0093-.0049c-.04.0244-.09.0542-.1538.0894a1.7851,1.7851,0,0,1-.2227.104,1.9008,1.9008,0,0,1-.2939.0879,1.6711,1.6711,0,0,1-.3574.0366,1.7574,1.7574,0,0,1-.7661-.1729,1.9136,1.9136,0,0,1-.6221-.47,2.0642,2.0642,0,0,1-.498-1.55,2.1489,2.1489,0,0,1,.19-.7192,2.0117,2.0117,0,0,1,.4155-.5991,1.9471,1.9471,0,0,1,1.4019-.5625,1.7936,1.7936,0,0,1,.5908.0972,2.1137,2.1137,0,0,1,.605.3506l.01-.0049.0879-1h-3.793l.09-1.0371h8.8716l-.0908,1.0371h-3.876l-.0952,1.0874.0093.0049a1.8785,1.8785,0,0,1,.3521-.24,1.9939,1.9939,0,0,1,.6689-.2119,2.3231,2.3231,0,0,1,.269-.0186,1.5006,1.5006,0,0,1,.709.1611,1.5358,1.5358,0,0,1,.5029.4224,1.676,1.676,0,0,1,.2861.5918,1.93,1.93,0,0,1,.0586.6777,2.191,2.191,0,0,1-.1865.7075,3.0139,3.0139,0,0,1-.4131.6655,3.9166,3.9166,0,0,1-.61.5972,5.036,5.036,0,0,1-.7759.5039Zm-1.6382-1.8164c-.0562-.0615-.1172-.1235-.1816-.189a1.32,1.32,0,0,0-.2153-.1719,1.1371,1.1371,0,0,0-.2607-.1245.9931.9931,0,0,0-.3188-.0488.927.927,0,0,0-.38.0742.9018.9018,0,0,0-.48.4883,1.1511,1.1511,0,0,0-.0864.35,1.0877,1.0877,0,0,0,.0347.396.8312.8312,0,0,0,.1724.3228.8188.8188,0,0,0,.2944.2163.9822.9822,0,0,0,.4053.0786.9378.9378,0,0,0,.4438-.0962.8841.8841,0,0,0,.2964-.252,1.1157,1.1157,0,0,0,.1729-.3437,1.773,1.773,0,0,0,.0742-.3726Z" style="fill: #fff"/>
      <path d="M38.5859,22.0742H37.5811l-.5107,5.834H35.8682l.5107-5.834H35.36l.0908-1.0371h3.2256Z" style="fill: #fff"/>
    </g>
    <g>
      <path d="M18.2119,35.5244h7.8525l-.0908,1.0371H24.9688l-.5107,5.834H23.2559l.25-2.8525h-2.374a1.94,1.94,0,0,1-.6631.2578l-.01.0186a4.3123,4.3123,0,0,0,.2529.5342,4.6279,4.6279,0,0,0,.3267.5078,5.4743,5.4743,0,0,0,.41.4922q.2278.2461.501.4932l-.8335.8438a6.4991,6.4991,0,0,1-.5811-.6377c-.1885-.2344-.3682-.4795-.5415-.7344s-.3345-.5146-.4873-.7793-.2925-.5215-.4209-.7715-.2432-.4883-.3428-.7129-.1846-.4238-.2524-.5986l1.0645-.5205a1.8094,1.8094,0,0,0,.314.6514.51.51,0,0,0,.3853.2051.379.379,0,0,0,.2158-.0645.5628.5628,0,0,0,.1626-.1777,1.038,1.038,0,0,0,.1089-.27,2.0955,2.0955,0,0,0,.0576-.3447,2.33,2.33,0,0,0-.0435-.71,2.2466,2.2466,0,0,0-.269-.6641H18.1211Zm5.3838,2.99.1709-1.9531H21.7344a3.9982,3.9982,0,0,1,.2114.707,2.5777,2.5777,0,0,1,.0361.7266c-.0078.0889-.0205.1768-.0366.2627s-.0366.1719-.06.2568Z"/>
      <path d="M28.8306,40.9854a1.8959,1.8959,0,0,0,.5269-.2715.5216.5216,0,0,0,.1548-.5879.43.43,0,0,0-.1543-.1885.8377.8377,0,0,0-.291-.127,1.8153,1.8153,0,0,0-.438-.0459,2.4912,2.4912,0,0,0-.4272.0381,1.1166,1.1166,0,0,0-.3809.1436.88.88,0,0,0-.2852.2793.9415.9415,0,0,0-.1382.4424,1.24,1.24,0,0,0,.0605.5225A1.6022,1.6022,0,0,0,27.7,41.64a2.1446,2.1446,0,0,0,.37.3809,4.2507,4.2507,0,0,0,.4438.3154,4.9292,4.9292,0,0,0,.4644.252c.1548.0713.3.1338.4331.1855l-.5415.9727c-.23-.1016-.46-.21-.688-.3271a6.7381,6.7381,0,0,1-.6484-.38,4.3521,4.3521,0,0,1-.5625-.4473,2.705,2.705,0,0,1-.4351-.5293,2.21,2.21,0,0,1-.2651-.63,2.2329,2.2329,0,0,1-.05-.7422,2.158,2.158,0,0,1,.18-.7207,1.9924,1.9924,0,0,1,.3735-.5508,2.8159,2.8159,0,0,1-.1533-.3018,2.2047,2.2047,0,0,1-.1128-.3213,2.3373,2.3373,0,0,1-.0635-.3193,1.3851,1.3851,0,0,1-.0083-.3066,1.1627,1.1627,0,0,1,.0967-.374.917.917,0,0,1,.2378-.3164,1.1737,1.1737,0,0,1,.3955-.2227,1.75,1.75,0,0,1,.5688-.082h1.8809l.0537-.6133H25.6514l.0908-1.0371h6.3l-.0908,1.0371H30.8818l-.14,1.5947h-2.751a.458.458,0,0,0-.1235.0166.3761.3761,0,0,0-.12.0547.324.324,0,0,0-.0972.1084.413.413,0,0,0-.05.1758.6252.6252,0,0,0,.0122.1953.6623.6623,0,0,0,.0664.168,3.36,3.36,0,0,1,1.0415-.1611,3.254,3.254,0,0,1,.8145.0986,1.9379,1.9379,0,0,1,.6572.3018,1.3158,1.3158,0,0,1,.4229.5166,1.4444,1.4444,0,0,1,.1079.7412,1.5759,1.5759,0,0,1-.18.6348,1.7648,1.7648,0,0,1-.3652.458,2.32,2.32,0,0,1-.4829.33,5.4018,5.4018,0,0,1-.5361.2373Z"/>
      <path d="M34.8535,36.5615H33.8486l-.5107,5.834H32.1357l.5107-5.834H31.6279l.0908-1.0371h3.2256Z"/>
      <path d="M34.5313,36.5615l.0908-1.0371h6.6172l-.0908,1.0371H40.1445l-.5107,5.834H38.4307l.1494-1.709-.0127-.0049c-.0762.0527-.1572.1035-.2471.1543a2.0924,2.0924,0,0,1-.29.1357,2.0606,2.0606,0,0,1-.7588.1338,1.9863,1.9863,0,0,1-1.6992-.8457,2.7975,2.7975,0,0,1-.41-.8594,4.3537,4.3537,0,0,1-.1631-.9766,1.8407,1.8407,0,0,0,.5078-.13,1.1277,1.1277,0,0,0,.3418-.2236.8845.8845,0,0,0,.2-.29,1.1,1.1,0,0,0,.082-.3291,1.27,1.27,0,0,0-.0371-.4248,1.9253,1.9253,0,0,0-.1943-.4648ZM37.335,37.64a1.4771,1.4771,0,0,1-.2988.7861,1.7591,1.7591,0,0,1-.7285.5371,1.48,1.48,0,0,0,.1406.4648,1.0462,1.0462,0,0,0,.2422.3164.9268.9268,0,0,0,.3164.18,1.17,1.17,0,0,0,.3672.0576,1.3947,1.3947,0,0,0,.7666-.2139,1.9217,1.9217,0,0,0,.5723-.5977l.2285-2.6084H37.0938a2.1379,2.1379,0,0,1,.207.5557A1.7833,1.7833,0,0,1,37.335,37.64Z"/>
      <path d="M46.0986,40.5068a3.28,3.28,0,0,0,.5361-.332,2.5026,2.5026,0,0,0,.3945-.3721,1.71,1.71,0,0,0,.251-.3818,1.1222,1.1222,0,0,0,.1025-.3662,1.0375,1.0375,0,0,0-.01-.249.6758.6758,0,0,0-.0869-.2441.5813.5813,0,0,0-.1807-.1846.519.519,0,0,0-.2881-.0732.7784.7784,0,0,0-.3574.09,1.4445,1.4445,0,0,0-.34.2393,2.3136,2.3136,0,0,0-.2988.3418,2.8912,2.8912,0,0,0-.2451.3984l-.2646,3.0225H44.1094l.1328-1.5156-.01-.0049c-.0391.0244-.09.0547-.1533.09a1.8546,1.8546,0,0,1-.2227.1045,2.0378,2.0378,0,0,1-.2939.0869,1.64,1.64,0,0,1-.3574.0371,1.768,1.768,0,0,1-.7666-.1729,1.9471,1.9471,0,0,1-.6221-.47A2.0733,2.0733,0,0,1,41.3184,39a2.1585,2.1585,0,0,1,.19-.72,2.0107,2.0107,0,0,1,.415-.5986,1.9441,1.9441,0,0,1,1.4023-.5625,1.7813,1.7813,0,0,1,.5908.0977,2.1115,2.1115,0,0,1,.6055.35l.01-.0049.0879-1h-3.793l.0908-1.0371h8.8711l-.0908,1.0371h-3.876l-.0957,1.0879.01.0049a1.9078,1.9078,0,0,1,.3516-.24,2.1,2.1,0,0,1,.35-.1436,2.0677,2.0677,0,0,1,.3193-.0684,2.3309,2.3309,0,0,1,.27-.0186,1.4948,1.4948,0,0,1,.709.1611,1.5345,1.5345,0,0,1,.5029.4219,1.6841,1.6841,0,0,1,.2861.5918,1.93,1.93,0,0,1,.0586.6777,2.1873,2.1873,0,0,1-.1865.708,3,3,0,0,1-.4131.665,3.977,3.977,0,0,1-.6094.5977,5.1117,5.1117,0,0,1-.7773.5039ZM44.4609,38.69c-.0557-.0615-.1172-.124-.1816-.1885a1.2889,1.2889,0,0,0-.2158-.1729,1.119,1.119,0,0,0-.26-.124,1,1,0,0,0-.3193-.0488.9286.9286,0,0,0-.38.0742.9031.9031,0,0,0-.4795.4883,1.1487,1.1487,0,0,0-.0869.35,1.101,1.101,0,0,0,.0352.3965.8392.8392,0,0,0,.1719.3232.8273.8273,0,0,0,.2939.2158.9935.9935,0,0,0,.4053.0781.9459.9459,0,0,0,.4443-.0957.9012.9012,0,0,0,.2969-.252,1.1029,1.1029,0,0,0,.1719-.3437,1.7119,1.7119,0,0,0,.0752-.3721Z"/>
    </g>
    <path d="M6.8767,32.0765l1.3762-15.73h36.179A61.4936,61.4936,0,0,0,21.836,22.215,64.9646,64.9646,0,0,0,6.8767,32.0765Z" style="fill: #fff;opacity: 0.2"/>
  </g>
</svg>
