<svg id="Layer_1" data-name="Layer 1" xmlns="http://www.w3.org/2000/svg" width="65" height="65" viewBox="0 0 65 65">
  <title>news</title>
  <path d="M32.5,1.5H61.6444A1.8556,1.8556,0,0,1,63.5,3.3556V32.5a31,31,0,0,1-31,31h0a31,31,0,0,1-31-31v0A31,31,0,0,1,32.5,1.5Z" style="fill: #478cc9"/>
  <path d="M32.5,4.6H58.73A1.67,1.67,0,0,1,60.4,6.27V32.5A27.9,27.9,0,0,1,32.5,60.4h0A27.9,27.9,0,0,1,4.6,32.5v0A27.9,27.9,0,0,1,32.5,4.6Z" style="fill: #fff"/>
  <g>
    <polygon points="44.104 34.315 11.214 34.315 12.465 20.015 45.355 20.015 44.104 34.315" style="opacity: 0.2"/>
    <polygon points="54.418 47.185 14.378 47.185 15.754 31.455 55.794 31.455 54.418 47.185" style="opacity: 0.2"/>
    <polygon points="52.41 44.985 12.37 44.985 13.746 29.255 53.786 29.255 52.41 44.985"/>
    <polygon points="42.096 32.115 9.206 32.115 10.457 17.815 43.347 17.815 42.096 32.115" style="fill: #478cc9"/>
    <g>
      <path d="M19.62,23.0215H18.707l-.4644,5.3042H17.1489l.1411-1.6133-.0161-.0039a2.0314,2.0314,0,0,1-1.0586.3145c-.0605,0-.147-.0059-.2573-.0176A1.4668,1.4668,0,0,1,15.6,26.92a1.6241,1.6241,0,0,1-.3843-.2056,1.223,1.223,0,0,1-.3374-.3726,1.8734,1.8734,0,0,1-.2207-.5923,2.9721,2.9721,0,0,1-.0308-.8638l.1631-1.8643h-.9346l.0825-.9424h5.7646Zm-2.0068,0h-1.73l-.1689,1.9312a1.8459,1.8459,0,0,0,.0146.5225.7754.7754,0,0,0,.1362.32.4708.4708,0,0,0,.2261.1616.9324.9324,0,0,0,.29.0439,1.0284,1.0284,0,0,0,.5752-.1577,1.7264,1.7264,0,0,0,.45-.4492Z" style="fill: #fff"/>
      <path d="M22.26,23.0215h-.9131L20.8823,28.33H19.7886l.4644-5.3081h-.9258l.0825-.9424h.9424a2.2482,2.2482,0,0,1-.15-.9634,1.7541,1.7541,0,0,1,.1768-.6333,1.5733,1.5733,0,0,1,.42-.52,2.0138,2.0138,0,0,1,.68-.3491,3.1983,3.1983,0,0,1,.9565-.1274,3.8769,3.8769,0,0,1,1.2261.1875,4.13,4.13,0,0,1,1.0605.5342,5.2437,5.2437,0,0,1,.9238.834,8.9881,8.9881,0,0,1,.8145,1.0835H25.4551c-.09-.0981-.1934-.208-.3125-.3315s-.2529-.2471-.4014-.3726a5.8647,5.8647,0,0,0-.4814-.3667,4.213,4.213,0,0,0-.5474-.3184,3.3008,3.3008,0,0,0-.6094-.2236,2.5491,2.5491,0,0,0-.6587-.085,1.8168,1.8168,0,0,0-.5215.0674,1.1347,1.1347,0,0,0-.3765.1885.844.844,0,0,0-.2344.2871,1.0294,1.0294,0,0,0-.1.3667,1.2564,1.2564,0,0,0,.0215.3584,1.8291,1.8291,0,0,0,.1279.3833h.98Z" style="fill: #fff"/>
      <path d="M25.3188,26.3984l-.0234-.0127-2.3779,1.6089L22.397,27.19l3.019-1.9023.0044-.0542q-.2468-.1926-.4165-.3271a3.6517,3.6517,0,0,0-.3-.2139,1.3025,1.3025,0,0,0-.2271-.1147.5726.5726,0,0,0-.1934-.0361,1.0254,1.0254,0,0,0-.229.0322c-.0918.0205-.2031.0537-.3359.0981s-.29.1021-.4741.1743-.3984.1567-.6445.2568l-.314-.9126q.364-.1428.6572-.2539c.1948-.0737.3711-.1372.53-.1885a4.0768,4.0768,0,0,1,.4238-.1172,1.6381,1.6381,0,0,1,.34-.04.8984.8984,0,0,1,.3013.0493,1.3847,1.3847,0,0,1,.28.145,3.451,3.451,0,0,1,.3037.23q.1626.1362.377.3125l.1147-1.3076H21.9658l.0825-.9424h5.6553l-.0825.9424H26.708l-.4644,5.3042H25.15Z" style="fill: #fff"/>
      <path d="M32.1216,26.6074a2.84,2.84,0,0,0,.4873-.3013,2.3523,2.3523,0,0,0,.3589-.3369,1.5714,1.5714,0,0,0,.2275-.3481,1.0322,1.0322,0,0,0,.0938-.333.9533.9533,0,0,0-.01-.2266A.6141.6141,0,0,0,33.2,24.84a.5132.5132,0,0,0-.1631-.1675.4745.4745,0,0,0-.2627-.0669.7239.7239,0,0,0-.3257.0815,1.3825,1.3825,0,0,0-.3081.2178,2.1693,2.1693,0,0,0-.272.3105,2.82,2.82,0,0,0-.2222.3618l-.2407,2.7485H30.313l.1206-1.3789-.0083-.0034c-.0352.022-.0815.0493-.1392.0815a1.6785,1.6785,0,0,1-.2031.0942,1.8961,1.8961,0,0,1-.2671.08,1.51,1.51,0,0,1-.3252.0327,1.5932,1.5932,0,0,1-.6963-.1567,1.7794,1.7794,0,0,1-.5659-.4277,1.877,1.877,0,0,1-.4526-1.41,1.9873,1.9873,0,0,1,.1724-.6538,1.8529,1.8529,0,0,1,.3784-.5439,1.7762,1.7762,0,0,1,.5591-.3735,1.8056,1.8056,0,0,1,.7153-.1382,1.6162,1.6162,0,0,1,.5371.0889,1.9188,1.9188,0,0,1,.55.3179l.0093-.0039.08-.91H27.3291l.0825-.9424h8.064l-.082.9424H31.87l-.0864.9883.0083.0049a1.7014,1.7014,0,0,1,.3208-.2178,1.8193,1.8193,0,0,1,.3169-.13,1.7882,1.7882,0,0,1,.2905-.062,1.9043,1.9043,0,0,1,.2437-.0176,1.357,1.357,0,0,1,.6455.147,1.3881,1.3881,0,0,1,.457.3833,1.5085,1.5085,0,0,1,.26.5386,1.7416,1.7416,0,0,1,.0537.6162,1.9957,1.9957,0,0,1-.1689.6431,2.7386,2.7386,0,0,1-.377.605,3.5856,3.5856,0,0,1-.5537.543,4.6307,4.6307,0,0,1-.7061.458Zm-1.4893-1.65c-.0508-.0566-.1055-.1138-.1646-.1724a1.1794,1.1794,0,0,0-.1963-.1562.9966.9966,0,0,0-.2373-.1138.8959.8959,0,0,0-.2891-.0439.8236.8236,0,0,0-.6084.2471.8417.8417,0,0,0-.1738.2646,1.0545,1.0545,0,0,0-.0786.3179.9834.9834,0,0,0,.0322.36.7793.7793,0,0,0,.1558.2935.7648.7648,0,0,0,.2681.1968.8964.8964,0,0,0,.3687.0708.8521.8521,0,0,0,.4033-.0874.8131.8131,0,0,0,.27-.2285,1.028,1.028,0,0,0,.1572-.3125,1.6956,1.6956,0,0,0,.0669-.3394Z" style="fill: #fff"/>
      <path d="M38.0332,23.0215H37.12l-.4639,5.3042H35.5625l.4639-5.3042h-.9258l.082-.9424h2.9326Z" style="fill: #fff"/>
    </g>
    <g>
      <path d="M19.51,35.249h7.1387l-.0825.9434h-.9131l-.4639,5.3037H24.0957l.2266-2.5937H22.165a1.7836,1.7836,0,0,1-.6035.2354l-.0093.0166a4.0872,4.0872,0,0,0,.23.4854,4.2321,4.2321,0,0,0,.2969.4609,4.8911,4.8911,0,0,0,.3735.4492q.2065.2212.4551.4482l-.7588.7666a6.012,6.012,0,0,1-.5269-.5811q-.2578-.3193-.4927-.668t-.4429-.708q-.2073-.36-.3828-.7021c-.1167-.2275-.2212-.4434-.3115-.6465s-.1675-.3857-.23-.5449L20.73,37.44a1.63,1.63,0,0,0,.2852.5928.4619.4619,0,0,0,.35.1865.3375.3375,0,0,0,.1953-.0586A.5.5,0,0,0,21.71,38a.9343.9343,0,0,0,.0986-.2461,1.8379,1.8379,0,0,0,.0527-.3135,2.1007,2.1007,0,0,0-.04-.6455,2.0482,2.0482,0,0,0-.2441-.6025H19.4277Zm4.894,2.72.1553-1.7764H22.7119a3.5788,3.5788,0,0,1,.1929.6426,2.3229,2.3229,0,0,1,.0327.6592,2.3709,2.3709,0,0,1-.0332.24c-.0156.0771-.0332.1563-.0537.2344Z" style="fill: #fff"/>
      <path d="M29.1636,40.2139a1.7574,1.7574,0,0,0,.479-.2471.47.47,0,0,0,.14-.5342.3815.3815,0,0,0-.1392-.1709.7614.7614,0,0,0-.2642-.1162,1.62,1.62,0,0,0-.3989-.042,2.0633,2.0633,0,0,0-.3887.0361,1.0278,1.0278,0,0,0-.3467.13.801.801,0,0,0-.2583.2539.855.855,0,0,0-.126.4014,1.1173,1.1173,0,0,0,.0552.4756,1.4817,1.4817,0,0,0,.22.4092,1.9978,1.9978,0,0,0,.3359.3447,3.7932,3.7932,0,0,0,.4043.2871,4.1972,4.1972,0,0,0,.4214.2285c.1421.0654.2725.1221.3945.1689l-.4922.8848c-.21-.0928-.418-.1914-.6255-.2979a6.0415,6.0415,0,0,1-.59-.3447,3.82,3.82,0,0,1-.5112-.4072,2.4771,2.4771,0,0,1-.3955-.4814,1.9965,1.9965,0,0,1-.2412-.5723,2.0246,2.0246,0,0,1-.0464-.6738,1.963,1.963,0,0,1,.165-.6562,1.7987,1.7987,0,0,1,.3384-.501,2.3258,2.3258,0,0,1-.1387-.2744,2.0356,2.0356,0,0,1-.1025-.29,2.3066,2.3066,0,0,1-.0586-.292,1.3051,1.3051,0,0,1-.0068-.2783,1.0468,1.0468,0,0,1,.0884-.34.8458.8458,0,0,1,.2153-.2891,1.1027,1.1027,0,0,1,.36-.2012,1.5856,1.5856,0,0,1,.5171-.0752h1.71l.0488-.5566H26.2734l.0825-.9434h5.7266L32,36.1924h-.9717l-.127,1.4492H28.4a.4579.4579,0,0,0-.1123.0146.3527.3527,0,0,0-.1094.0508.3022.3022,0,0,0-.0884.0977.3876.3876,0,0,0-.0454.16.5713.5713,0,0,0,.0117.1777.6517.6517,0,0,0,.06.1523,3.06,3.06,0,0,1,.9473-.1465,2.9089,2.9089,0,0,1,.74.0908,1.7415,1.7415,0,0,1,.5981.2744,1.1819,1.1819,0,0,1,.3838.4688,1.31,1.31,0,0,1,.0981.6738,1.4442,1.4442,0,0,1-.1636.5771,1.5773,1.5773,0,0,1-.3315.416,2.1142,2.1142,0,0,1-.439.3,4.4715,4.4715,0,0,1-.4878.2158Z" style="fill: #fff"/>
      <path d="M34.64,36.1924h-.9131l-.4639,5.3037H32.1689l.4639-5.3037H31.707l.0825-.9434h2.9321Z" style="fill: #fff"/>
      <path d="M34.3467,36.1924l.082-.9434h6.0156l-.082.9434h-.9131l-.4639,5.3037H37.8916l.1357-1.5547-.0117-.0039c-.0684.0479-.1436.0947-.2236.14a1.7881,1.7881,0,0,1-.2646.124,1.8493,1.8493,0,0,1-.3135.0889,2.0285,2.0285,0,0,1-.376.0322,1.7994,1.7994,0,0,1-1.5449-.7686,2.5443,2.5443,0,0,1-.3721-.7812,3.9061,3.9061,0,0,1-.1484-.8877,1.6261,1.6261,0,0,0,.4609-.1182,1.0077,1.0077,0,0,0,.3105-.2031.7966.7966,0,0,0,.1826-.2637,1.0229,1.0229,0,0,0,.0742-.3,1.1827,1.1827,0,0,0-.0332-.3848,1.7649,1.7649,0,0,0-.1768-.4229Zm2.5488.98a1.3386,1.3386,0,0,1-.2715.7139,1.5966,1.5966,0,0,1-.6631.4883,1.3818,1.3818,0,0,0,.1279.4229.9545.9545,0,0,0,.2207.2871.844.844,0,0,0,.2871.1641,1.0871,1.0871,0,0,0,.335.0508,1.2523,1.2523,0,0,0,.6963-.1943,1.7093,1.7093,0,0,0,.52-.542l.208-2.3711h-1.68a1.8363,1.8363,0,0,1,.1885.5049A1.6259,1.6259,0,0,1,36.8955,37.1729Z" style="fill: #fff"/>
      <path d="M44.8623,39.7783a2.9426,2.9426,0,0,0,.4873-.3018,2.3929,2.3929,0,0,0,.3584-.3369,1.5518,1.5518,0,0,0,.2275-.3486,1.03,1.03,0,0,0,.0938-.332.95.95,0,0,0-.01-.2266A.619.619,0,0,0,45.94,38.01a.5214.5214,0,0,0-.1631-.167.47.47,0,0,0-.2627-.0674.7164.7164,0,0,0-.3252.082,1.39,1.39,0,0,0-.3086.2178,2.1754,2.1754,0,0,0-.2725.3105,2.8779,2.8779,0,0,0-.2217.3623l-.24,2.748H43.0537l.12-1.3789-.0078-.0039c-.0352.0225-.082.05-.14.082a1.6753,1.6753,0,0,1-.2031.0947,2.0326,2.0326,0,0,1-.2666.0791,1.4788,1.4788,0,0,1-.3252.0332,1.6034,1.6034,0,0,1-.6963-.1562,1.7718,1.7718,0,0,1-.5664-.4287,1.8394,1.8394,0,0,1-.3633-.6338,1.8775,1.8775,0,0,1-.09-.7754,1.9972,1.9972,0,0,1,.1729-.6543,1.8344,1.8344,0,0,1,.3789-.543,1.7753,1.7753,0,0,1,.5586-.374,1.796,1.796,0,0,1,.7158-.1377,1.6177,1.6177,0,0,1,.5371.0879,1.9563,1.9563,0,0,1,.55.3184l.0088-.0039.08-.9092H40.0693l.082-.9434h8.0645l-.082.9434H44.61l-.0869.9883.0088.0049a1.609,1.609,0,0,1,.3213-.2178,1.7744,1.7744,0,0,1,.6074-.1934,1.8971,1.8971,0,0,1,.2432-.0176,1.3571,1.3571,0,0,1,.6455.1475,1.3868,1.3868,0,0,1,.457.3828,1.5187,1.5187,0,0,1,.26.5391,1.7416,1.7416,0,0,1,.0537.6162,1.99,1.99,0,0,1-.1689.6426,2.73,2.73,0,0,1-.377.6055,3.6079,3.6079,0,0,1-.5537.543,4.594,4.594,0,0,1-.7061.458Zm-1.4893-1.65c-.0508-.0566-.1055-.1143-.165-.1719a1.1847,1.1847,0,0,0-.1963-.1572,1.0053,1.0053,0,0,0-.2373-.1133.8938.8938,0,0,0-.2891-.0439.8464.8464,0,0,0-.3457.0674.8266.8266,0,0,0-.2627.18.8417.8417,0,0,0-.1738.2646,1.057,1.057,0,0,0-.0781.3184.988.988,0,0,0,.0313.3594.7893.7893,0,0,0,.1563.2939.7535.7535,0,0,0,.2686.1963.8845.8845,0,0,0,.3682.0713.8463.8463,0,0,0,.4033-.0879.8029.8029,0,0,0,.2705-.2285,1.015,1.015,0,0,0,.1563-.3115,1.6482,1.6482,0,0,0,.0674-.34Z" style="fill: #fff"/>
    </g>
    <path d="M9.2061,32.115l1.2511-14.3h32.89A55.9033,55.9033,0,0,0,22.8055,23.15,59.0587,59.0587,0,0,0,9.2061,32.115Z" style="fill: #fff;opacity: 0.2"/>
  </g>
</svg>
