<svg id="Layer_1" data-name="Layer 1" xmlns="http://www.w3.org/2000/svg" width="65" height="65" viewBox="0 0 65 65">
  <title>logo</title>
  <path d="M63.85,32.11A31.1547,31.1547,0,0,1,53.34,55.54c-.46.41-.94.81-1.42,1.2a32.99742,32.99742,0,0,1-3.89,2.61,31.39712,31.39712,0,0,1-30.09.53L7.91,64.16A.96031.96031,0,0,1,6.59,63.17l1.3-10.73.09-.79a30.93107,30.93107,0,0,1-1.99-2.81c-.16-.24-.31-.48-.46-.73V48.1a31.282,31.282,0,0,1-3.58-8.89V39.2c-.12-.51-.22-1.01-.31-1.54a28.49328,28.49328,0,0,1-.38-2.96c-.05-.64-.09-1.28-.1-1.94C1.15,32.55,1.15,32.33,1.15,32.11A31.3111,31.3111,0,0,1,32.5.76,31.33146,31.33146,0,0,1,54.34,9.62a30.6524,30.6524,0,0,1,3.5,4.04,28.60543,28.60543,0,0,1,2.36,3.76v.01a31.00787,31.00787,0,0,1,3.13,9c.08.47.16.94.23,1.42A30.08323,30.08323,0,0,1,63.85,32.11Z" style="fill: #4285f4"/>
  <path d="M59.37871,32.16987a26.76835,26.76835,0,0,1-9.00844,20.08575q-.59865.52535-1.22176,1.02629a28.00661,28.00661,0,0,1-3.33135,2.23989,26.91405,26.91405,0,0,1-25.80355.45612l-8.593,3.66528a.819.819,0,0,1-1.13218-.84712l1.10777-9.19576.08143-.68421a27.87484,27.87484,0,0,1-2.10144-3.02994V45.878A26.78424,26.78424,0,0,1,6.3055,38.25426v-.00815c-.09779-.43982-.18737-.87153-.26065-1.3195A23.54459,23.54459,0,0,1,5.719,34.38536c-.04887-.54571-.08143-1.09961-.08958-1.66162-.00815-.17917-.00815-.36649-.00815-.55386a27.16143,27.16143,0,0,1,1.37652-8.536A26.8964,26.8964,0,0,1,51.22549,12.88237,26.33253,26.33253,0,0,1,54.22287,16.344,24.9437,24.9437,0,0,1,56.251,19.56949v.00815a26.554,26.554,0,0,1,2.67976,7.7215c.07328.3991.13845.80635.19547,1.21361A25.85584,25.85584,0,0,1,59.37871,32.16987Z" style="fill: #fff;opacity: 0.2"/>
  <path id="_Compound_Path_" data-name="&lt;Compound Path&gt;" d="M33.77248,28.54279A.28651.28651,0,0,1,34.008,28.213l6.52669-1.08879a.28658.28658,0,0,1,.09427.56535l-6.52671,1.08879a.286.286,0,0,1-.32981-.23556Zm.28234,2.53315a.28431.28431,0,0,0,.04747-.004L40.629,29.98318a.28658.28658,0,0,0-.09427-.56535L34.008,30.50663a.28661.28661,0,0,0,.04678.56932Zm0,2.29363a.28435.28435,0,0,0,.04747-.004L40.629,32.27681a.28658.28658,0,0,0-.09427-.56536L34.008,32.80024a.28662.28662,0,0,0,.04678.56933Zm0,2.29361a.28431.28431,0,0,0,.04747-.004L40.629,34.57042a.28658.28658,0,0,0-.09427-.56536L34.008,35.09387a.28661.28661,0,0,0,.04678.56932Zm0,2.29358a.28431.28431,0,0,0,.04747-.004L40.629,36.86405a.28658.28658,0,0,0-.09427-.56536L34.008,37.38743a.28662.28662,0,0,0,.04678.56933ZM24.47216,27.68955l6.52671,1.08879a.28658.28658,0,1,0,.09425-.56535l-6.52669-1.08879a.28658.28658,0,0,0-.09427.56535Zm0,2.29363L30.99887,31.072a.28658.28658,0,1,0,.09425-.56535l-6.52669-1.08879a.28658.28658,0,0,0-.09427.56535Zm0,2.29363,6.52671,1.08878a.28658.28658,0,1,0,.09425-.56535l-6.52669-1.08879a.28658.28658,0,0,0-.09427.56536Zm0,2.29361,6.52671,1.08879a.28658.28658,0,1,0,.09425-.56535l-6.52669-1.08881a.28658.28658,0,0,0-.09427.56536Zm0,2.29363,6.52671,1.08874a.28658.28658,0,0,0,.09425-.56536l-6.52669-1.08874a.28658.28658,0,0,0-.09427.56536ZM44.33686,26.331V39.787a.5732.5732,0,0,1-.52069.57078l-11.213,1.03115c-.01747.00161-.035.00241-.05252.00241s-.035-.0008-.0525-.00241L21.285,40.3578a.5732.5732,0,0,1-.52069-.57078V26.331a.57318.57318,0,0,1,.57319-.57319H22.728V24.49864a.28657.28657,0,0,1,.332-.283l9.49064,1.52159,9.49054-1.52159a.28655.28655,0,0,1,.33193.283v1.25913h1.39055A.57319.57319,0,0,1,44.33686,26.331Zm-2.53694-1.49613-8.96269,1.437V40.12774l8.96269-1.437V26.4573a.539.539,0,0,1,0-.25266Zm-18.49867,0v1.36981a.5395.5395,0,0,1,0,.25266V38.69072l8.96279,1.437V26.27185ZM21.9107,39.26407l3.1571.29035L22.9693,39.218a.28656.28656,0,0,1-.24126-.283V26.90416H21.9107ZM43.19047,26.90416H42.3731V38.935a.28656.28656,0,0,1-.24125.283l-2.09848.33645,3.15709-.29035Z" style="fill: #fff"/>
  <g>
    <path d="M15.12451,30.96582c-.09863,1.13818-.77148,1.96484-1.80859,1.89062l.10205-1.17676a.75493.75493,0,0,0,.80225-.76855c.04492-.51807-.20312-.84766-.59521-.88184-1.18555-.10254-.7168,2.78418-2.70117,2.604-.98828-.08594-1.51563-.9375-1.417-2.06787.09668-1.12207.73633-1.84131,1.73145-1.82617l-.105,1.2085a.72524.72524,0,0,0-.71924.72754.63764.63764,0,0,0,.57813.80908c1.09863.09668.73047-2.7666,2.66016-2.59863A1.7335,1.7335,0,0,1,15.12451,30.96582Z" style="fill: #fff"/>
    <path d="M15.53809,24.91064,14.76514,26.957l.85059.708L15.208,28.748l-4.44727-3.791.45264-1.2002,5.84229.0957L16.645,24.94287Zm-3.36035-.09912,1.86865,1.55469.56152-1.48682Z" style="fill: #fff"/>
    <path d="M14.15674,18.61133a1.72985,1.72985,0,0,1,2.5415-.5752,1.58854,1.58854,0,0,1,.51367,1.95459l2.57422.28711-.7666,1.021-2.44385-.31836-.3125.417L17.97754,22.686l-.66357.88135L12.916,20.26221Zm.70752.58057-.5542.73779,1.2915.96973.5542-.7373a.76942.76942,0,0,0-.12012-1.20459A.7573.7573,0,0,0,14.86426,19.19189Z" style="fill: #fff"/>
    <path d="M19.56982,17.2749l1.49609,1.93994-.87354.67334-3.35693-4.35352.87354-.67334,1.50488,1.95215.0791-3.17383,1.0542-.81348-.13232,3.54395,3.54.772-1.10449.85205Z" style="fill: #fff"/>
    <path d="M26.85156,14.79053l-2.04248.78857.03955,1.10791-1.08008.41748-.13916-5.84814,1.19727-.4624,3.82715,4.42334-1.0874.41943Zm-2.167-2.57373.08643,2.43164,1.4834-.57275Z" style="fill: #fff"/>
    <path d="M30.62354,9.57861c1.31885-.11182,2.04248.59424,2.12012,1.51221a1.58841,1.58841,0,0,1-1.11426,1.68311l1.49854,2.11084-1.272.10742L30.46729,12.96l-.51807.04395.18018,2.13477-1.09912.09277-.4624-5.47852Zm.03809.91455-.918.07715.13574,1.6084.918-.07764c.61279-.05127.85986-.396.81836-.89014C31.57471,10.72363,31.27393,10.44141,30.66162,10.49316Z" style="fill: #fff"/>
    <path d="M34.39258,9.57373l1.09668.1167-.58105,5.4668-1.09668-.1167Z" style="fill: #fff"/>
    <path d="M42.09375,12.5127l-1.94141-.75928-.502,1.28369L41.373,13.709l-.31738.81445L39.332,13.84961l-.5293,1.35645,1.94336.75928-.32715.83594L37.4502,15.64063l2.002-5.12354,2.96875,1.15967Z" style="fill: #fff"/>
    <path d="M43.8125,16.79736l-1.958.86426-1.00586-.73047,3.02832-1.2251.17969-3.2334,1.02539.74463-.12109,2.187,1.94727-.86084,1.00586.73047-3.0166,1.22266-.18457,3.24023-1.02441-.74463Z" style="fill: #fff"/>
    <path d="M47.91992,22.13574,46.5918,20.39355l-1.05273.34668-.70215-.9209L50.416,18.0542l.77832,1.02148-3.18262,4.91113-.70605-.92725Zm1.86816-2.7998-2.3125.76123.96387,1.26514Z" style="fill: #fff"/>
    <path d="M53.4502,22.55273l.38477,1.19043L50.48633,26.6626l4.42383.40527L55.293,28.252l-5.22754,1.68994-.33887-1.04834L53.127,27.79395l-3.85352-.30078-.25684-.79443,2.94434-2.50684L48.56152,25.291l-.33984-1.04932Z" style="fill: #fff"/>
  </g>
  <g>
    <path d="M15.0791,45.49219a.428.428,0,0,0-.44531-.44531.43613.43613,0,0,0-.47559.43066h-.5957a.97055.97055,0,0,1,1.07129-.97559.91112.91112,0,0,1,1.02148.90039.753.753,0,0,1-.55566.76074v.00977a.75157.75157,0,0,1,.25.10547h.93066V44.54688h1.20117v.54h-.55566V48.25h-.64551V46.81348l-.585-.00488a1.22615,1.22615,0,0,1,.01465.18555.94031.94031,0,0,1-1.02637.9707,1.04554,1.04554,0,0,1-1.15625-1.041h.60645a.47562.47562,0,0,0,.50488.48535.45167.45167,0,0,0,.48535-.47559.4894.4894,0,0,0-.55566-.49023h-.21484v-.52051h.21484A.45137.45137,0,0,0,15.0791,45.49219Z" style="fill: #fff"/>
    <path d="M17.27246,44.54688H20.8252v.54h-.55469V48.25h-.64062V47.04395a.9449.9449,0,0,1-.78125.335c-.73047,0-1.10059-.53027-1.10059-1.27148V45.08691h-.47559Zm2.35742,1.63086V45.08691H18.39844v1.02051c0,.43555.18457.72656.61523.72656A.605.605,0,0,0,19.62988,46.17773Z" style="fill: #fff"/>
    <path d="M20.6123,44.54688H23.665v.54h-.61035v.916h-.89062c-.20508,0-.43555.05957-.43555.2998,0,.22559.18555.30078.39063.30078h.22461c.50586,0,1.02637.21484,1.02637.86523,0,.52148-.37988.87109-1.0957.87109-.73633,0-1.24121-.36035-1.2666-.96582h.64551c.00488.2959.24023.47559.60059.47559.33008,0,.50586-.16016.50586-.38477,0-.30078-.24023-.40625-.53613-.40625h-.18457c-.40039,0-.95605-.13477-.95605-.77539,0-.52539.43066-.73633.91113-.73633h.44043v-.46H20.6123Z" style="fill: #fff"/>
    <path d="M21.40527,43.80566h-.24512v-.52539h.22949c.73633.00488,1.001.12012,1.66211,1.28613h-.61035C22.00586,43.88086,21.86523,43.80566,21.40527,43.80566Z" style="fill: #fff"/>
    <path d="M23.457,44.54688h3.44824v.54h-.94043v1.001h-.61621a.74223.74223,0,0,0-.84082.74609.69661.69661,0,0,0,.74609.71484.71559.71559,0,0,0,.75586-.75H26.625a1.25855,1.25855,0,0,1-1.36133,1.31055,1.2908,1.2908,0,1,1,.04492-2.56641H25.334v-.45605H23.457Z" style="fill: #fff"/>
    <path d="M27.8877,44.54688h4.33887v.54H31.666V48.25h-.64062V46.65332h-2.042v.58105c0,.29.12988.50977.4209.50977a.4139.4139,0,0,0,.415-.46484v-.06543h.62012a.67334.67334,0,0,1,.00586.09473.93536.93536,0,0,1-1.03125.98633,1.006,1.006,0,0,1-1.07129-1.09082V46.19336H28.748c.55566,0,.77051-.2959.77051-.72656v-.37988H27.8877Zm2.09668,1.58105h1.041v-1.041h-.86621v.37988A1.23158,1.23158,0,0,1,29.98438,46.12793Z" style="fill: #fff"/>
    <path d="M34.48926,47.49414a.99014.99014,0,0,1-.85547.40039,1.17606,1.17606,0,0,1-1.22168-1.21582A1.15648,1.15648,0,0,1,33.623,45.4873a1.07145,1.07145,0,0,1,.86621.39063v-.791H32.01172v-.54H35.665v.54h-.5498V48.25h-.626Zm-.21973-.24023-1.19629-.95605a.77554.77554,0,0,0-.0957.38086.7391.7391,0,0,0,.78125.751A.7767.7767,0,0,0,34.26953,47.25391Zm-1.0166-1.1709,1.18652.95605a.85524.85524,0,0,0,.085-.36523.7372.7372,0,0,0-.76562-.76172A.79134.79134,0,0,0,33.25293,46.083Z" style="fill: #fff"/>
    <path d="M35.457,44.54688h4.33984v.54h-.56055V48.25H38.5957V46.65332h-2.042v.58105c0,.29.12988.50977.41992.50977a.41338.41338,0,0,0,.415-.46484v-.06543h.62109a.8065.8065,0,0,1,.00488.09473.93536.93536,0,0,1-1.03125.98633,1.00577,1.00577,0,0,1-1.07031-1.09082V46.19336h.40527c.55566,0,.77051-.2959.77051-.72656v-.37988H35.457Zm2.09766,1.58105h1.041v-1.041h-.86621v.37988A1.24028,1.24028,0,0,1,37.55469,46.12793Z" style="fill: #fff"/>
    <path d="M37.585,43.80566h-.24512v-.52539h.23047c.73535.00488,1.001.12012,1.66113,1.28613h-.61035C38.18555,43.88086,38.0459,43.80566,37.585,43.80566Z" style="fill: #fff"/>
    <path d="M40.77246,44.54688H44.3252v.54h-.55469V48.25h-.64062V47.04395a.9449.9449,0,0,1-.78125.335c-.73047,0-1.10059-.53027-1.10059-1.27148V45.08691h-.47559Zm2.35742,1.63086V45.08691H41.89844v1.02051c0,.43555.18457.72656.61523.72656A.605.605,0,0,0,43.12988,46.17773Z" style="fill: #fff"/>
    <path d="M45.749,48.79492a1.101,1.101,0,0,1-1.207-1.14062,1.02952,1.02952,0,0,1,.48633-.90625.63557.63557,0,0,1-.36621-.585c0-.40527.31543-.64062.80664-.64062h.5v-.43555H44.1123v-.54H47.25v.54h-.666v.90137h-.88574c-.21,0-.39551.07422-.39551.2998a.31.31,0,0,0,.20605.29,1.40147,1.40147,0,0,1,.25-.01953,1.029,1.029,0,0,1,1.14551.89063h-.62012a.51728.51728,0,0,0-.53516-.375.55476.55476,0,0,0-.57617.5957.54758.54758,0,0,0,.57617.58984.53215.53215,0,0,0,.53516-.36523h.62012A1.05921,1.05921,0,0,1,45.749,48.79492Z" style="fill: #fff"/>
    <path d="M49.98047,48.01953V47.4541c.04492.00488.10449.01074.13477.01074a.61547.61547,0,0,0,.63574-.68164c0-.35547-.18066-.625-.52539-.625-.37109,0-.53125.31445-.53125.71484v.10547h-.54V46.873c0-.39453-.15527-.71484-.51562-.71484-.35547,0-.54.26563-.54.625a.61525.61525,0,0,0,.63477.68164c.03027,0,.08594-.00586.13574-.01074v.56543c-.06543.00586-.125.00977-.16992.00977a1.17143,1.17143,0,0,1-1.25684-1.25586,1.07248,1.07248,0,0,1,1.10645-1.18164.86482.86482,0,0,1,.86523.626h.01563a.88505.88505,0,0,1,.6709-.60547v-.52539H47.042v-.54h4.75977v.54H50.73535v.5752a1.09978,1.09978,0,0,1,.6709,1.11133,1.16869,1.16869,0,0,1-1.25586,1.25586C50.10547,48.0293,50.04492,48.02539,49.98047,48.01953Z" style="fill: #fff"/>
    <path d="M49.085,43.80566h-.24512v-.52539h.22949c.73633.00488,1.001.12012,1.66211,1.28613h-.61035C49.68555,43.88086,49.54492,43.80566,49.085,43.80566Z" style="fill: #fff"/>
  </g>
</svg>
