<svg id="Layer_1" data-name="Layer 1" xmlns="http://www.w3.org/2000/svg" width="65" height="65" viewBox="0 0 65 65">
  <title>news</title>
  <path d="M63.85,32.1128A31.1547,31.1547,0,0,1,53.34,55.54279c-.46.41-.94.81-1.42,1.2a32.99742,32.99742,0,0,1-3.89,2.61,31.39712,31.39712,0,0,1-30.09.53l-10.03,4.28a.96031.96031,0,0,1-1.31995-.99l1.3-10.73.09-.79a30.93107,30.93107,0,0,1-1.99-2.81c-.16-.24-.31-.48-.46-.73v-.01a31.282,31.282,0,0,1-3.58-8.89v-.00995c-.12-.51-.22-1.01-.31-1.54a28.49328,28.49328,0,0,1-.38-2.96c-.05-.64-.09-1.28-.1-1.94-.00995-.21-.00995-.43005-.00995-.65A31.3111,31.3111,0,0,1,32.5.76282a31.33146,31.33146,0,0,1,21.84,8.86,30.6524,30.6524,0,0,1,3.5,4.04,28.60543,28.60543,0,0,1,2.36,3.76v.01a31.00787,31.00787,0,0,1,3.13,9c.08.47.16.94.23,1.42A30.08323,30.08323,0,0,1,63.85,32.1128Z" style="fill: #4285f4"/>
  <polygon points="58.69 46.297 6.98 46.297 8.143 33 59.854 33 58.69 46.297" style="fill: #fff"/>
  <polygon points="46.427 34.477 5.059 34.477 6.351 19.703 47.72 19.703 46.427 34.477"/>
  <g>
    <path d="M8.64014,23.45557H9.71338l.8374,5.01611,1.82178-5.01611h1.13477l.84961,4.98975,1.72168-4.98975h1.082l-2.36621,6.15918H13.65088l-.88623-4.66211-1.78174,4.66211-1.13525.00879Z" style="fill: #fff"/>
    <path d="M21.32568,24.271H18.93213l-.1582,1.80713h2.12793l-.07227.8252H18.70166l-.165,1.88721h2.39355l-.07227.82422h-3.4043l.53955-6.168h3.4043Z" style="fill: #fff"/>
    <path d="M24.564,29.61475H22.09912l.53906-6.15918h2.34961c1.30273,0,1.93115.71777,1.855,1.58691a1.61118,1.61118,0,0,1-1.16895,1.40869A1.37626,1.37626,0,0,1,26.72949,27.958,1.95843,1.95843,0,0,1,24.564,29.61475Zm.11572-2.74756h-1.3291l-.16846,1.92334h1.36523a1.04317,1.04317,0,0,0,1.18066-.93945C25.78174,27.23975,25.35352,26.86719,24.67969,26.86719Zm.147-2.5874h-1.25l-.1543,1.76367h1.25c.65625,0,1.082-.31055,1.13135-.87744C25.85254,24.60742,25.48291,24.27979,24.82666,24.27979Z" style="fill: #fff"/>
    <path d="M29.709,29.67676c-1.23242,0-2.12158-.67383-2.02637-1.76367h1.08105a.89376.89376,0,0,0,1.02.9126,1.05279,1.05279,0,0,0,1.187-.90381c.13037-1.48828-3.22559-.52246-3.02686-2.791A2.03957,2.03957,0,0,1,30.21533,23.376c1.17969,0,1.9585.62061,1.95508,1.6748H31.05322c.00146-.416-.32861-.79736-.96582-.81494a.96487.96487,0,0,0-1.1123.85889c-.12158,1.39111,3.21582.52344,3.019,2.77344A2.12381,2.12381,0,0,1,29.709,29.67676Z" style="fill: #fff"/>
    <path d="M33.57617,23.45557h1.01172l-.53906,6.15918H33.03711Z" style="fill: #fff"/>
    <path d="M35.59766,23.45557h4.30078l-.07227.82422H38.18555l-.4668,5.335H36.709l.4668-5.335H35.52539Z" style="fill: #fff"/>
    <path d="M44.25,24.271H41.85547l-.1582,1.80713h2.12891l-.07227.8252H41.625l-.16406,1.88721h2.39258l-.07227.82422H40.377l.54-6.168h3.4043Z" style="fill: #fff"/>
  </g>
  <g>
    <path d="M12.90186,41.81836H10.437l-.51074,1.17871H8.62256l2.76758-6.19434h1.44434l1.68359,6.19434h-1.3125Zm-.91943-3.58008-1.12207,2.58789h1.791Z"/>
    <path d="M17.48145,43.05957c-1.28516,0-2.21924-.6748-2.13477-1.84375h1.33008a.76842.76842,0,0,0,.86768.82422.88476.88476,0,0,0,.99658-.75293c.11719-1.33887-3.145-.53223-2.93994-2.77344a2.09687,2.09687,0,0,1,2.3374-1.79c1.26855,0,2.08008.64648,2.0625,1.7627H18.63574A.73642.73642,0,0,0,17.813,37.751a.79311.79311,0,0,0-.91406.72656c-.1084,1.24121,3.126.5498,2.93506,2.72949A2.16583,2.16583,0,0,1,17.48145,43.05957Z"/>
    <path d="M22.87988,43.05957c-1.28516,0-2.21924-.6748-2.13477-1.84375H22.0752a.76842.76842,0,0,0,.86768.82422.88476.88476,0,0,0,.99658-.75293c.11719-1.33887-3.145-.53223-2.93994-2.77344a2.09687,2.09687,0,0,1,2.3374-1.79c1.26855,0,2.08008.64648,2.0625,1.7627H24.03418a.73642.73642,0,0,0-.82275-.73535.79311.79311,0,0,0-.91406.72656c-.1084,1.24121,3.126.5498,2.93506,2.72949A2.16583,2.16583,0,0,1,22.87988,43.05957Z"/>
    <path d="M26.68945,36.81152h1.24121l-.5415,6.18555H26.14795Z"/>
    <path d="M30.74316,43.05957c-1.28516,0-2.21924-.6748-2.13477-1.84375h1.33008a.76842.76842,0,0,0,.86768.82422.88476.88476,0,0,0,.99658-.75293c.11719-1.33887-3.145-.53223-2.93994-2.77344a2.09687,2.09687,0,0,1,2.3374-1.79c1.26855,0,2.08008.64648,2.0625,1.7627H31.89746a.73642.73642,0,0,0-.82275-.73535.79311.79311,0,0,0-.91406.72656c-.1084,1.24121,3.12646.5498,2.93506,2.72949A2.16583,2.16583,0,0,1,30.74316,43.05957Z"/>
    <path d="M34.22363,36.81152H38.7627l-.08789,1.001H37.02637l-.4541,5.18457H35.332l.45313-5.18457H34.13574Z"/>
    <path d="M43.02344,41.81836H40.55859l-.50977,1.17871H38.74414l2.76758-6.19434H42.957l1.68359,6.19434h-1.3125Zm-.91895-3.58008-1.12207,2.58789h1.791Z"/>
    <path d="M51.30664,36.80273l-.541,6.19434H49.52344L47.085,38.75293l-.37207,4.24414H45.47266l.541-6.19434h1.24219l2.4375,4.25391.373-4.25391Z"/>
    <path d="M52.20215,36.81152h4.53906l-.08789,1.001H55.00391l-.45312,5.18457H53.30859l.4541-5.18457H52.11426Z"/>
  </g>
  <polygon points="5.059 34.477 6.351 19.703 47.72 19.703 5.059 34.477" style="fill: #fff;opacity: 0.2"/>
  <line x1="28.75" y1="49" x2="40.75" y2="49" style="stroke: #fff;stroke-linecap: round;stroke-miterlimit: 10;stroke-width: 0.8991223925163506px"/>
  <line x1="43.33333" y1="49" x2="46.33333" y2="49" style="stroke: #fff;stroke-linecap: round;stroke-miterlimit: 10;stroke-width: 0.800000011920929px"/>
</svg>
