<svg id="Layer_1" data-name="Layer 1" xmlns="http://www.w3.org/2000/svg" width="65" height="65" viewBox="0 0 65 65">
  <title>news</title>
  <path d="M64.35,32.615A31.22128,31.22128,0,0,1,53.843,56.042q-.69824.61274-1.425,1.197a32.66553,32.66553,0,0,1-3.88553,2.6125,31.39123,31.39123,0,0,1-30.096.532L8.414,64.6585a.95521.95521,0,0,1-1.32051-.988L8.38553,52.945l.095-.798a32.51184,32.51184,0,0,1-2.451-3.534v-.00951a31.23982,31.23982,0,0,1-3.58146-8.892V39.702c-.11405-.513-.21854-1.01651-.304-1.539a27.46125,27.46125,0,0,1-.38-2.964c-.057-.63648-.095-1.28253-.10449-1.938C1.65,33.052,1.65,32.8335,1.65,32.615a31.67975,31.67975,0,0,1,1.6055-9.956,31.37063,31.37063,0,0,1,51.585-12.54,30.713,30.713,0,0,1,3.496,4.0375,29.0931,29.0931,0,0,1,2.36549,3.762V17.928a30.97124,30.97124,0,0,1,3.12554,9.006c.08547.46549.16148.94049.228,1.41549A30.157,30.157,0,0,1,64.35,32.615Z" style="fill: #fc0"/>
  <g>
    <rect x="10.5" y="21.85571" width="33" height="14" rx="3" ry="3" style="opacity: 0.2"/>
    <rect x="18.5" y="34.85571" width="38" height="12" rx="3" ry="3" style="opacity: 0.2"/>
    <rect x="17.5" y="31.85571" width="37" height="13" rx="2" ry="2" style="fill: #fff"/>
    <rect x="8.5" y="19.85571" width="33" height="14" rx="3" ry="3"/>
    <g>
      <path d="M26.8584,36.2666H24.85986l.01367,5.59277H23.5293l-.01367-5.59277H21.54346L21.541,35.14648H26.856Z"/>
      <path d="M27.5293,35.58008a.66252.66252,0,0,1,.19434-.49316.8193.8193,0,0,1,1.05957,0,.71926.71926,0,0,1,.00049.99121.81379.81379,0,0,1-1.05322,0A.665.665,0,0,1,27.5293,35.58008Zm1.39111,6.2793h-1.2998l-.01221-4.98828h1.2998Z"/>
      <path d="M31.167,36.87109l.042.57617a1.67217,1.67217,0,0,1,1.39209-.66895,1.39173,1.39173,0,0,1,1.14893.46582,2.22823,2.22823,0,0,1,.38867,1.39258l.00781,3.22266H32.85107l-.00781-3.19043a.8803.8803,0,0,0-.18066-.61523.78859.78859,0,0,0-.59668-.19141.88221.88221,0,0,0-.81885.47949l.0083,3.51758H29.96045l-.01221-4.98828Z"/>
      <path d="M38.94824,35.64453l.00293,1.22656h.8291l.00293.97754h-.8291L38.96,40.33789a.60269.60269,0,0,0,.10449.39648.50732.50732,0,0,0,.39453.12012,2.00868,2.00868,0,0,0,.38086-.03223l.002,1.00977a2.61852,2.61852,0,0,1-.78418.11914,1.25752,1.25752,0,0,1-1.39258-1.415l-.00586-2.6875h-.708l-.00293-.97754h.708l-.00293-1.22656Z"/>
      <path d="M45.98633,36.43262a1.9799,1.9799,0,0,1-.31738,1.24316,1.40782,1.40782,0,0,1-1.00488.47656l.00879,3.707H43.4541l-.03711-.50684a1.602,1.602,0,0,1-1.3252.59863,1.51122,1.51122,0,0,1-1.19043-.46094,2.00671,2.00671,0,0,1-.42285-1.35059l-.00781-3.26855h1.29492l.00781,3.22656q.00293.7793.69238.7793a.92548.92548,0,0,0,.9043-.4707l-.00879-3.53516h1.2998l.001.64063a.61682.61682,0,0,0,.42773-.28613,1.75677,1.75677,0,0,0,.12109-.793Zm-3.14551-1.5625h1.41211l-1.23828,1.42871H41.96191Z"/>
      <path d="M48.126,40.877a.833.833,0,0,0,.582-.20215.71639.71639,0,0,0,.23145-.54H50.1543a1.73829,1.73829,0,0,1-.2666.92969,1.78546,1.78546,0,0,1-.72168.6543,2.21221,2.21221,0,0,1-1.01465.23242,2.08055,2.08055,0,0,1-1.6416-.67969,2.74577,2.74577,0,0,1-.60547-1.87891v-.08691a2.70694,2.70694,0,0,1,.59082-1.83984,2.04909,2.04909,0,0,1,1.63477-.6875,2.00945,2.00945,0,0,1,1.46.5332,1.91989,1.91989,0,0,1,.56152,1.417H48.93652a.93446.93446,0,0,0-.23437-.63184.84817.84817,0,0,0-1.27441.0957,2.01375,2.01375,0,0,0-.22852,1.10156v.1377a2.03441,2.03441,0,0,0,.23145,1.1084A.78361.78361,0,0,0,48.126,40.877Z"/>
    </g>
    <g>
      <path d="M18.48242,23.96H16.48389l.01367,5.59277H15.15332L15.13965,23.96H13.16748l-.00293-1.12012h5.31494Z" style="fill: #fff"/>
      <path d="M21.60156,25.81348a3.4526,3.4526,0,0,0-.46582-.03711.9407.9407,0,0,0-.9624.51172l.00781,3.26465H18.88623L18.874,24.56445h1.22314l.0376.59473a1.19347,1.19347,0,0,1,1.07861-.6875,1.35152,1.35152,0,0,1,.40332.05957Z" style="fill: #fff"/>
      <path d="M21.93164,27.01172a3.02091,3.02091,0,0,1,.27734-1.32715,2.05919,2.05919,0,0,1,.80225-.89746,2.299,2.299,0,0,1,1.20947-.31543,2.13907,2.13907,0,0,1,1.69092.71484.66187.66187,0,0,0,.27686-.41309,2.7479,2.7479,0,0,0,.07031-.6748h.78857a1.59641,1.59641,0,0,1-.78906,1.623,3.02462,3.02462,0,0,1,.26709,1.29l.00049.09766a3.01408,3.01408,0,0,1-.27734,1.32715,2.05526,2.05526,0,0,1-.79492.89453,2.29274,2.29274,0,0,1-1.21191.31348,2.17388,2.17388,0,0,1-1.62842-.64062,2.55385,2.55385,0,0,1-.67578-1.72852Zm1.30029.09473a1.90944,1.90944,0,0,0,.26221,1.08789.85183.85183,0,0,0,.74512.376.83935.83935,0,0,0,.73389-.374,2.1093,2.1093,0,0,0,.25732-1.18652,1.91578,1.91578,0,0,0-.2627-1.07812.84655.84655,0,0,0-.74463-.38574.83663.83663,0,0,0-.73437.38086A2.1166,2.1166,0,0,0,23.23193,27.10645Zm.28223,3.56641a.582.582,0,0,1,.2002-.45605.74956.74956,0,0,1,.51953-.18066.758.758,0,0,1,.52441.18066.58336.58336,0,0,1,.20361.45605.59718.59718,0,0,1-.19873.45605.84006.84006,0,0,1-1.05078,0A.59673.59673,0,0,1,23.51416,30.67285Z" style="fill: #fff"/>
      <path d="M31.13428,29.55273h-1.2998l-.01709-7.082h1.2998Z" style="fill: #fff"/>
      <path d="M34.00684,27.667l.88867-3.10254h1.38965l-1.93555,5.7627-.10645.2627a1.47588,1.47588,0,0,1-1.43213.97754,1.97905,1.97905,0,0,1-.57373-.08789l-.00293-1.00977.19775.00488a1.03513,1.03513,0,0,0,.54834-.11523.75016.75016,0,0,0,.2832-.38281l.15234-.41016-1.71094-5.002h1.39355Zm.26953-5.19629h1.41211L34.4502,23.90039H33.39746Z" style="fill: #fff"/>
    </g>
  </g>
  <path d="M51,18c0,.22035-1.92013-.07987-3,1s-.77965,3-1,3,.07987-1.92013-1-3-3-.77965-3-1,1.92013.07987,3-1,.77965-3,1-3-.07987,1.92013,1,3S51,17.77965,51,18Z" style="fill: #fff"/>
</svg>
