<svg id="Layer_1" data-name="Layer 1" xmlns="http://www.w3.org/2000/svg" width="65" height="65" viewBox="0 0 65 65">
  <title>news</title>
  <path d="M63.85,32.115A31.22128,31.22128,0,0,1,53.343,55.542q-.69824.61274-1.425,1.197a32.66553,32.66553,0,0,1-3.88553,2.6125,31.39123,31.39123,0,0,1-30.096.532L7.914,64.1585a.95521.95521,0,0,1-1.32051-.988L7.88553,52.445l.095-.798a32.51184,32.51184,0,0,1-2.451-3.534v-.00951a31.23982,31.23982,0,0,1-3.58146-8.892V39.202c-.11405-.513-.21854-1.01651-.304-1.539a27.46125,27.46125,0,0,1-.38-2.964c-.057-.63648-.095-1.28253-.10449-1.938C1.15,32.552,1.15,32.3335,1.15,32.115a31.67975,31.67975,0,0,1,1.6055-9.956,31.37063,31.37063,0,0,1,51.585-12.54,30.713,30.713,0,0,1,3.496,4.0375,29.0931,29.0931,0,0,1,2.36549,3.762V17.428a30.97124,30.97124,0,0,1,3.12554,9.006c.08547.46549.16148.94049.228,1.41549A30.157,30.157,0,0,1,63.85,32.115Z" style="fill: #0e5ba8"/>
  <polygon points="38.651 36.955 6.147 36.955 7.181 25.135 39.685 25.135 38.651 36.955" style="fill: #121212;opacity: 0.2"/>
  <polygon points="60.038 45.82 8.327 45.82 9.361 34 61.072 34 60.038 45.82" style="fill: #121212;opacity: 0.2"/>
  <polygon points="58.689 44.342 6.978 44.342 8.142 31.045 59.853 31.045 58.689 44.342" style="fill: #fff"/>
  <polygon points="37.432 34 4.928 34 5.962 22.18 38.466 22.18 37.432 34" style="fill: #121212"/>
  <g>
    <path d="M14.96777,25.21631l-.5415,6.19434H13.18506L10.74561,27.166l-.37109,4.24463H9.1333l.5415-6.19434H10.916l2.43848,4.25342.37207-4.25342Z" style="fill: #fff"/>
    <path d="M19.69336,26.22607H17.34375L17.208,27.77686h2.084l-.08643.9834h-2.084l-.14307,1.64014h2.34961l-.08838,1.01025H15.64893l.5415-6.19434h3.59082Z" style="fill: #fff"/>
    <path d="M20.48975,25.2251h1.3291l.67041,4.80273,1.6792-4.80273h1.38281l.77051,4.77686,1.5166-4.77686h1.33887l-2.26953,6.18555H25.44482l-.77588-4.4043-1.6001,4.4043-1.45508.00879Z" style="fill: #fff"/>
    <path d="M31.57324,31.47266c-1.28516,0-2.21973-.67432-2.13477-1.84326h1.33008a.76748.76748,0,0,0,.86719.82373.88447.88447,0,0,0,.99658-.75293c.11719-1.33887-3.145-.53223-2.93994-2.77344a2.09687,2.09687,0,0,1,2.3374-1.79c1.269,0,2.07959.647,2.062,1.7627H32.72705a.7365.7365,0,0,0-.82227-.73535.79331.79331,0,0,0-.91455.72656c-.1084,1.24121,3.126.5498,2.93555,2.73A2.16614,2.16614,0,0,1,31.57324,31.47266Z" style="fill: #fff"/>
  </g>
  <g>
    <path d="M13.60205,40.57129H11.13721L10.627,41.751H9.32324l2.76758-6.19434h1.44434L15.21875,41.751h-1.3125Zm-.91895-3.58008L11.561,39.5791h1.791Z"/>
    <path d="M18.18213,41.81348c-1.28516,0-2.21924-.6748-2.13477-1.84375h1.33008a.76782.76782,0,0,0,.86719.82422.88447.88447,0,0,0,.99658-.75293c.11719-1.33887-3.14453-.53223-2.93994-2.77441a2.09756,2.09756,0,0,1,2.3374-1.79c1.26855,0,2.08008.64746,2.0625,1.7627H19.33594a.73675.73675,0,0,0-.82227-.73535.79272.79272,0,0,0-.91406.72754c-.10889,1.24121,3.12549.54883,2.93506,2.72949A2.16615,2.16615,0,0,1,18.18213,41.81348Z"/>
    <path d="M23.58057,41.81348c-1.28516,0-2.21924-.6748-2.13477-1.84375h1.33008a.76782.76782,0,0,0,.86719.82422.88447.88447,0,0,0,.99658-.75293c.11719-1.33887-3.14453-.53223-2.93994-2.77441a2.09756,2.09756,0,0,1,2.3374-1.79c1.26855,0,2.08008.64746,2.0625,1.7627H24.73438a.73675.73675,0,0,0-.82227-.73535.79272.79272,0,0,0-.91406.72754c-.10889,1.24121,3.12549.54883,2.93506,2.72949A2.16615,2.16615,0,0,1,23.58057,41.81348Z"/>
    <path d="M27.38965,35.56543h1.24121l-.541,6.18555H26.84863Z"/>
    <path d="M31.44385,41.81348c-1.28516,0-2.21924-.6748-2.13477-1.84375h1.33008a.76782.76782,0,0,0,.86719.82422.88447.88447,0,0,0,.99658-.75293c.11719-1.33887-3.14453-.53223-2.93994-2.77441a2.09756,2.09756,0,0,1,2.3374-1.79c1.26855,0,2.08008.64746,2.0625,1.7627H32.59766a.73675.73675,0,0,0-.82227-.73535.79272.79272,0,0,0-.91406.72754c-.10889,1.24121,3.125.54883,2.93555,2.72949A2.167,2.167,0,0,1,31.44385,41.81348Z"/>
    <path d="M34.92383,35.56543h4.53906l-.08789,1.001H37.72656L37.27344,41.751H36.03223l.45313-5.18457H34.83594Z"/>
    <path d="M43.72461,40.57129H41.25977L40.749,41.751H39.44531l2.76758-6.19434h1.44434L45.34082,41.751h-1.3125Zm-.91992-3.58008L41.68262,39.5791h1.791Z"/>
    <path d="M52.00781,35.55664l-.542,6.19434H50.22461l-2.43945-4.24512L47.41406,41.751H46.17285l.542-6.19434h1.24121l2.43848,4.25293.37207-4.25293Z"/>
    <path d="M52.90234,35.56543h4.53906l-.08789,1.001H55.7041L55.251,41.751H54.00977l.45313-5.18457H52.81445Z"/>
  </g>
  <path d="M22,48H42a0,0,0,0,1,0,0v0a1,1,0,0,1-1,1H21a0,0,0,0,1,0,0v0A1,1,0,0,1,22,48Z" style="fill: #fff"/>
  <path d="M45,48h6a0,0,0,0,1,0,0v0a1,1,0,0,1-1,1H44a0,0,0,0,1,0,0v0A1,1,0,0,1,45,48Z" style="fill: #fff"/>
</svg>
