<svg id="Layer_1" data-name="Layer 1" xmlns="http://www.w3.org/2000/svg" width="65" height="65" viewBox="0 0 65 65">
  <title>news</title>
  <path d="M63.85,32.115A31.22128,31.22128,0,0,1,53.343,55.542q-.69824.61274-1.425,1.197a32.66553,32.66553,0,0,1-3.88553,2.6125,31.39123,31.39123,0,0,1-30.096.532L7.914,64.1585a.95521.95521,0,0,1-1.32051-.988L7.88553,52.445l.095-.798a32.51184,32.51184,0,0,1-2.451-3.534v-.00951a31.23982,31.23982,0,0,1-3.58146-8.892V39.202c-.11405-.513-.21854-1.01651-.304-1.539a27.46125,27.46125,0,0,1-.38-2.964c-.057-.63648-.095-1.28253-.10449-1.938C1.15,32.552,1.15,32.3335,1.15,32.115a31.67975,31.67975,0,0,1,1.6055-9.956,31.37063,31.37063,0,0,1,51.585-12.54,30.713,30.713,0,0,1,3.496,4.0375,29.0931,29.0931,0,0,1,2.36549,3.762V17.428a30.97124,30.97124,0,0,1,3.12554,9.006c.08547.46549.16148.94049.228,1.41549A30.157,30.157,0,0,1,63.85,32.115Z" style="fill: #005ca3"/>
  <rect x="9.4902" y="35.2549" width="50.5098" height="10.98039" rx="4.99999" ry="4.99999" style="opacity: 0.2"/>
  <path d="M40.23529,29.76471a5.47362,5.47362,0,0,1-5.4902,5.4902H11.68627A5.64838,5.64838,0,0,1,10.72,35.167a5.48819,5.48819,0,0,1,.96628-10.89253H34.7451a5.57038,5.57038,0,0,1,1.82272.30742A5.50916,5.50916,0,0,1,40.23529,29.76471Z" style="opacity: 0.2"/>
  <rect x="7.29412" y="33.05882" width="50.5098" height="10.98039" rx="4.99999" ry="4.99999" style="fill: #fff"/>
  <path d="M38.03922,28.66667a5.47362,5.47362,0,0,1-5.4902,5.4902H9.4902a5.64838,5.64838,0,0,1-.96628-.08786A5.48819,5.48819,0,0,1,9.4902,23.17647H32.549a5.57038,5.57038,0,0,1,1.82272.30742A5.50916,5.50916,0,0,1,38.03922,28.66667Z"/>
  <g>
    <path d="M10.51318,40.19531a1.01984,1.01984,0,0,1-.34619-.05762.86287.86287,0,0,1-.27783-.16406.75877.75877,0,0,1-.18994-.26562.89882.89882,0,0,1-.06738-.3584A.91009.91009,0,0,1,9.6958,39a.74678.74678,0,0,1,.18848-.26855.84887.84887,0,0,1,.30566-.17383,1.32427,1.32427,0,0,1,.4165-.06055h.92334a1.62976,1.62976,0,0,0,.85205-.17871.65534.65534,0,0,0,.28662-.60352.89489.89489,0,0,0-.06787-.36328.662.662,0,0,0-.19434-.25586.85425.85425,0,0,0-.31055-.15137,1.56913,1.56913,0,0,0-.41162-.0498,1.01968,1.01968,0,0,0-.10449.00391l-.07275.00586v.00977a.6862.6862,0,0,1,.25586.27832A.72213.72213,0,0,1,11.835,37.5a.68343.68343,0,0,1-.07227.30664.78436.78436,0,0,1-.209.25879,1.062,1.062,0,0,1-.33154.18066,1.46261,1.46261,0,0,1-.86182.00488,1.02045,1.02045,0,0,1-.33154-.17676.79945.79945,0,0,1-.21729-.27539.82614.82614,0,0,1-.07715-.36035.88351.88351,0,0,1,.13867-.48242,1.2309,1.2309,0,0,1,.38574-.37793,2.02207,2.02207,0,0,1,.59521-.248,3.13357,3.13357,0,0,1,.769-.08789,2.79525,2.79525,0,0,1,.81689.10742,1.69448,1.69448,0,0,1,.59521.30664,1.30308,1.30308,0,0,1,.36523.48145,1.54616,1.54616,0,0,1,.12354.62891,1.51193,1.51193,0,0,1-.11865.6123,1.21378,1.21378,0,0,1-.35107.46094,1.64043,1.64043,0,0,1-.56738.28906,2.67816,2.67816,0,0,1-.77051.10156H10.7832a.93786.93786,0,0,0-.22363.02051c-.05225.01367-.07861.043-.07861.085,0,.07129.08252.10645.24756.10645H16.355v.75293Zm.60156-2.834a.26458.26458,0,0,0-.1001-.21875.45552.45552,0,0,0-.24121-.09668.44029.44029,0,0,0-.228.10645.28591.28591,0,0,0-.00488.418.33855.33855,0,0,0,.24268.084.34807.34807,0,0,0,.24121-.08105A.27038.27038,0,0,0,11.11475,37.36133Z"/>
    <path d="M20.35059,37.11328v.7627H20.624a2.23484,2.23484,0,0,1,.70752.10156,1.31157,1.31157,0,0,1,.50342.29395,1.20593,1.20593,0,0,1,.30078.47168,1.87872,1.87872,0,0,1,.09961.63477,1.94008,1.94008,0,0,1-.15723.80176,1.54819,1.54819,0,0,1-.46826.5918,2.17279,2.17279,0,0,1-.772.36621,4.0818,4.0818,0,0,1-1.06982.126h-.34912c-.12109,0-.24121-.001-.35986-.002l-.34619-.00293c-.11133-.001-.21094-.00293-.29883-.00391s-.1626-.001-.22363-.001h-.11768a1.00632,1.00632,0,0,0-.18311.0127.27208.27208,0,0,0-.103.03711.10491.10491,0,0,0-.04492.05469.23079.23079,0,0,0-.00977.06934.38321.38321,0,0,0,.0127.10059.55575.55575,0,0,0,.04834.11133h-.73a1.15905,1.15905,0,0,1-.06152-.2041,1.05627,1.05627,0,0,1-.019-.20117.75619.75619,0,0,1,.06445-.33008.54015.54015,0,0,1,.18311-.21484.80377.80377,0,0,1,.2832-.11914,1.61041,1.61041,0,0,1,.36328-.03711h.1626c.08691,0,.19092,0,.312.002q.18164.00146.39258.00293l.40381.00293c.12842.001.24268.002.34229.002h.21094c.0791,0,.147-.001.20264-.00391.05566-.002.10449-.00391.14648-.00781.0415-.00293.07813-.00586.10938-.00977.03076-.00293.06152-.00684.0918-.01074a2.1043,2.1043,0,0,0,.50781-.13574,1.04864,1.04864,0,0,0,.34766-.22754.86959.86959,0,0,0,.19922-.32227,1.25654,1.25654,0,0,0,.06445-.418.99407.99407,0,0,0-.07715-.43555.57933.57933,0,0,0-.18994-.23242.55411.55411,0,0,0-.24121-.09082,1.88634,1.88634,0,0,0-.23145-.0166h-.27979V38.748a1.75719,1.75719,0,0,1-.05176.43555,1.51838,1.51838,0,0,1-.146.373,1.31024,1.31024,0,0,1-.22852.29883,1.27594,1.27594,0,0,1-.29785.21777,1.61066,1.61066,0,0,1-.44189.14941,2.54188,2.54188,0,0,1-.46484.043,2.28748,2.28748,0,0,1-.68213-.09473,1.559,1.559,0,0,1-.52295-.26953,1.20565,1.20565,0,0,1-.33447-.42187,1.25121,1.25121,0,0,1-.11719-.54492,1.06057,1.06057,0,0,1,.17822-.623.96159.96159,0,0,1,.542-.36133V36.34473h3.96973v.76855Zm-.82031,1.51855H18.33691a.79662.79662,0,0,0-.15479.01465.35127.35127,0,0,0-.13037.05176.27064.27064,0,0,0-.08984.09766.31923.31923,0,0,0-.03369.1543.46943.46943,0,0,0,.04639.20117.52834.52834,0,0,0,.1416.17676.732.732,0,0,0,.24316.127,1.13155,1.13155,0,0,0,.35059.04883.88665.88665,0,0,0,.60156-.19141.74074.74074,0,0,0,.21875-.58691Zm0-1.51855h-.93311v.7627h.93311Z"/>
    <path d="M25.3916,36.24219a2.50718,2.50718,0,0,1,.88281.14551,1.91007,1.91007,0,0,1,.65625.4043,1.717,1.717,0,0,1,.40869.60449,1.98773,1.98773,0,0,1,.13965.75,3.1212,3.1212,0,0,1-.06592.625,2.46189,2.46189,0,0,1-.23975.65527H28.6084v-1.7373a1.6085,1.6085,0,0,1-.68994-.1582,1.33377,1.33377,0,0,1-.45557-.36914,1.45251,1.45251,0,0,1-.25049-.50391,2.05478,2.05478,0,0,1-.07764-.55469,1.77045,1.77045,0,0,1,.14795-.73828,1.61123,1.61123,0,0,1,.40869-.55469,1.8375,1.8375,0,0,1,.61279-.35156,2.318,2.318,0,0,1,.76074-.12109,2.09584,2.09584,0,0,1,.8125.14844,1.66822,1.66822,0,0,1,.60791.42676,1.882,1.882,0,0,1,.38135.6709,2.77107,2.77107,0,0,1,.13184.88281v3.72852h-.82031V36.59277a2.55451,2.55451,0,0,0-.08057-.6875,1.25624,1.25624,0,0,0-.23-.46484.87079.87079,0,0,0-.36182-.26172,1.31246,1.31246,0,0,0-.47607-.082,1.47886,1.47886,0,0,0-.439.06348,1.03621,1.03621,0,0,0-.35547.19238.88263.88263,0,0,0-.23828.31934,1.089,1.089,0,0,0-.08691.45117,1.15017,1.15017,0,0,0,.042.31641.74828.74828,0,0,0,.127.25586.62144.62144,0,0,0,.21729.17578.828.828,0,0,0,.312.07813v-.60449h.81689v3.85059H26.144v-.68164a1.84543,1.84543,0,0,0,.34766-.58789,1.9082,1.9082,0,0,0,.11914-.65723,1.56787,1.56787,0,0,0-.07275-.47656,1.10045,1.10045,0,0,0-.228-.40332,1.128,1.128,0,0,0-.39746-.28027,1.45922,1.45922,0,0,0-.5791-.10449,1.52423,1.52423,0,0,0-.52295.08105,1.358,1.358,0,0,0-.37793.2041,1.12356,1.12356,0,0,0-.25537.27441,1.62182,1.62182,0,0,0-.15283.292,1.39048,1.39048,0,0,0-.07568.25.97388.97388,0,0,0-.021.16016l.019.00293a1.32837,1.32837,0,0,1,.3252-.19434,1.06752,1.06752,0,0,1,.42773-.082,1.10494,1.10494,0,0,1,.39258.07031.94663.94663,0,0,1,.55176.54,1.19934,1.19934,0,0,1,.082.457,1.26011,1.26011,0,0,1-.09668.50391,1.14013,1.14013,0,0,1-.26074.37891,1.12759,1.12759,0,0,1-.38428.24023,1.31766,1.31766,0,0,1-.47119.083A1.2416,1.2416,0,0,1,23.915,40.123a1.37528,1.37528,0,0,1-.45361-.39062,1.84928,1.84928,0,0,1-.28809-.58105,2.453,2.453,0,0,1-.10156-.71582,2.27314,2.27314,0,0,1,.17871-.92187,2.012,2.012,0,0,1,.49072-.68945,2.14733,2.14733,0,0,1,.73486-.43262A2.732,2.732,0,0,1,25.3916,36.24219ZM24.896,39.10156a.3848.3848,0,0,0-.11084-.28613.39678.39678,0,0,0-.2915-.10937.47916.47916,0,0,0-.17334.03027.49108.49108,0,0,0-.14307.084.383.383,0,0,0-.09814.45215.43609.43609,0,0,0,.09473.12988.42414.42414,0,0,0,.14014.08691.47081.47081,0,0,0,.17041.03027.42771.42771,0,0,0,.167-.03223.37241.37241,0,0,0,.13037-.08691.38034.38034,0,0,0,.0835-.13184A.44192.44192,0,0,0,24.896,39.10156Z"/>
    <path d="M34.4502,40.19531v-.418h-.0166a1.12783,1.12783,0,0,1-.4209.36133,1.29314,1.29314,0,0,1-.58594.127,1.53457,1.53457,0,0,1-.24121-.01855,1.479,1.479,0,0,1-.23-.05664,1.12291,1.12291,0,0,1-.20752-.09277.9279.9279,0,0,1-.17334-.13086.83514.83514,0,0,1-.13867-.1748,1.03922,1.03922,0,0,1-.10107-.2373,1.83786,1.83786,0,0,1-.061-.30957,3.38235,3.38235,0,0,1-.021-.40137v-2.499h.81738v2.374c0,.09863.002.18262.00781.25293a1.21305,1.21305,0,0,0,.02539.17676.58837.58837,0,0,0,.043.12207.35181.35181,0,0,0,.06152.085.506.506,0,0,0,.16895.10645.64391.64391,0,0,0,.24316.042.79474.79474,0,0,0,.26367-.04395.68441.68441,0,0,0,.22168-.124.61409.61409,0,0,0,.15332-.1875.51809.51809,0,0,0,.05566-.24023V36.34473h.81738v3.082H37.2041v-3.082h.81641v3.85059Z"/>
    <path d="M42.35059,37.11328v3.082h-.82031v-3.082H40.12793v3.082h-.82031V36.34473h4.002v.76855Z"/>
    <path d="M49.68555,37.11328v3.082h-.82031v-3.082H47.63965v3.082h-.82031V38.249a1.36007,1.36007,0,0,0-.28125-.9248,1.00332,1.00332,0,0,0-.793-.32031,1.22153,1.22153,0,0,0-.42383.06738,1.08419,1.08419,0,0,0-.31348.17773.99274.99274,0,0,0-.2168.24609,1.5208,1.5208,0,0,0-.13672.27344,1.38512,1.38512,0,0,0-.07227.25879,1.27443,1.27443,0,0,0-.02148.20215v.0127a.07333.07333,0,0,0,.00391.02344l.01855.00293a1.292,1.292,0,0,1,.335-.19434,1.14059,1.14059,0,0,1,.4375-.082,1.10106,1.10106,0,0,1,.39258.07031.97264.97264,0,0,1,.32813.20605.952.952,0,0,1,.22363.334,1.19934,1.19934,0,0,1,.082.457,1.26011,1.26011,0,0,1-.09668.50391,1.12008,1.12008,0,0,1-.64648.61914,1.33339,1.33339,0,0,1-.47266.083,1.25165,1.25165,0,0,1-.59668-.14062,1.345,1.345,0,0,1-.45215-.3916,1.84077,1.84077,0,0,1-.28809-.58887,2.55718,2.55718,0,0,1-.10156-.73437,2.498,2.498,0,0,1,.1543-.90234,2.01827,2.01827,0,0,1,.42773-.68262,1.887,1.887,0,0,1,.64551-.43262,2.1234,2.1234,0,0,1,.80566-.15039,2.2247,2.2247,0,0,1,.29.01855,1.57865,1.57865,0,0,1,.28613.06738,1.32656,1.32656,0,0,1,.27637.13281,1.36792,1.36792,0,0,1,.25781.209h.02539v-.3252H50.4834v.76855Zm-4.13379,1.98828a.38327.38327,0,0,0-.11133-.28613.39409.39409,0,0,0-.291-.10937.48558.48558,0,0,0-.17383.03027.49494.49494,0,0,0-.14258.084.36887.36887,0,0,0-.09863.127.39356.39356,0,0,0,0,.3252.44475.44475,0,0,0,.09473.12988.43141.43141,0,0,0,.14063.08691.47194.47194,0,0,0,.16992.03027.43259.43259,0,0,0,.168-.03223.3795.3795,0,0,0,.12988-.08691.39617.39617,0,0,0,.084-.13184A.4418.4418,0,0,0,45.55176,39.10156Z"/>
    <path d="M54.52344,40.17285,52.88281,41.585l-.54-.60156L53.70313,39.832V37.11328H52.333v3.082H51.5127V36.34473h3.96973v.76855h-.959Z"/>
    <path d="M52.667,35.11328a.61845.61845,0,0,1,.0498-.248.6414.6414,0,0,1,.13379-.20117.62533.62533,0,0,1,.19824-.13477.60972.60972,0,0,1,.24609-.05078.61784.61784,0,0,1,.24707.05078.63848.63848,0,0,1,.20117.13477.63009.63009,0,0,1,.13574.20117.61845.61845,0,0,1,.0498.248.60066.60066,0,0,1-.0498.24219.64187.64187,0,0,1-.33691.335.61715.61715,0,0,1-.24707.0498.60909.60909,0,0,1-.24609-.0498.62793.62793,0,0,1-.19824-.13574.65538.65538,0,0,1-.13379-.19922A.60066.60066,0,0,1,52.667,35.11328Z"/>
  </g>
  <g>
    <path d="M13.47217,28.01367c0,.043-.00049.09033-.00146.1416-.001.05176-.00146.09131-.00146.11914L13.45605,30.314h-.81689l.0127-1.93359v-.07715c0-.02783.00049-.05469.002-.08008q.00146-.03882.00146-.06445v-.02881a3.35858,3.35858,0,0,0-.09473-.83008,1.70629,1.70629,0,0,0-.2959-.62891,1.31881,1.31881,0,0,0-.51514-.39893,1.84305,1.84305,0,0,0-.75439-.14014,2.30539,2.30539,0,0,0-.72217.11133,1.59316,1.59316,0,0,0-.99707.91357,2.04462,2.04462,0,0,0-.14941.81543,2.43588,2.43588,0,0,0,.05273.51465,1.78984,1.78984,0,0,0,.1626.45215,1.50315,1.50315,0,0,0,.27344.36963,1.4163,1.4163,0,0,0,.38281.26855l.0127-.01611a1.13651,1.13651,0,0,1-.14307-.28467.92117.92117,0,0,1-.04639-.28467.78065.78065,0,0,1,.085-.36182.92791.92791,0,0,1,.23193-.28809,1.11052,1.11052,0,0,1,.34424-.19141,1.28775,1.28775,0,0,1,.42627-.06885,1.21284,1.21284,0,0,1,.43066.07568,1.05971,1.05971,0,0,1,.35547.2168,1.02444,1.02444,0,0,1,.2417.34424,1.13884,1.13884,0,0,1,.08838.457,1.20386,1.20386,0,0,1-.09668.48584,1.05058,1.05058,0,0,1-.28467.38281,1.3438,1.3438,0,0,1-.46484.25049,2.05776,2.05776,0,0,1-.63672.09033,2.394,2.394,0,0,1-.71094-.09961,2.03822,2.03822,0,0,1-1.01514-.68848,2.38288,2.38288,0,0,1-.31055-.51465,2.792,2.792,0,0,1-.18311-.57764,3.00192,3.00192,0,0,1-.06152-.603,2.64693,2.64693,0,0,1,.1001-.7417,2.3363,2.3363,0,0,1,.28125-.62256,2.31055,2.31055,0,0,1,.4375-.49854,2.57237,2.57237,0,0,1,.56641-.3667,3.01949,3.01949,0,0,1,.66895-.2251,3.559,3.559,0,0,1,.748-.07715,2.95623,2.95623,0,0,1,1.06006.17676,1.9729,1.9729,0,0,1,.76367.5083,2.076,2.076,0,0,1,.4458.83643A4.13688,4.13688,0,0,1,13.47217,28.01367Zm-2.22607,1.19678a.3287.3287,0,0,0-.03369-.1543.33423.33423,0,0,0-.08838-.10791.36347.36347,0,0,0-.12549-.064.5136.5136,0,0,0-.14795-.021.43909.43909,0,0,0-.16553.02881.34388.34388,0,0,0-.19775.19775.36559.36559,0,0,0-.02588.13672.47877.47877,0,0,0,.061.22217.43831.43831,0,0,0,.17383.18018.72408.72408,0,0,0,.40674-.12744A.34954.34954,0,0,0,11.24609,29.21045Z" style="fill: #fff"/>
    <path d="M17.77344,27.23193v.7627h1.34473v.76563H17.77344v.106a1.77873,1.77873,0,0,1-.05176.4375,1.58218,1.58218,0,0,1-.14453.37646,1.2655,1.2655,0,0,1-.22705.30078,1.28527,1.28527,0,0,1-.29736.21729,1.51145,1.51145,0,0,1-.44385.14648,2.84687,2.84687,0,0,1-.46631.04,2.30334,2.30334,0,0,1-.68213-.09473,1.56051,1.56051,0,0,1-.52295-.27051,1.19963,1.19963,0,0,1-.33447-.42139,1.25185,1.25185,0,0,1-.11719-.54541,1.05851,1.05851,0,0,1,.17822-.62207.96042.96042,0,0,1,.542-.3623v-1.605h3.96973v.76855Zm-.82031,1.51855H15.75977a.79662.79662,0,0,0-.15479.01465.36808.36808,0,0,0-.13037.05127.28033.28033,0,0,0-.08984.09814.31791.31791,0,0,0-.03369.1543.46782.46782,0,0,0,.04639.20117.52361.52361,0,0,0,.1416.17676.73252.73252,0,0,0,.24316.12744,1.13242,1.13242,0,0,0,.35059.04834.88418.88418,0,0,0,.60156-.19141.74184.74184,0,0,0,.21875-.5874Zm0-1.51855H16.02v.7627h.93311Z" style="fill: #fff"/>
    <path d="M22.43506,30.314v-.418h-.01611a1.14331,1.14331,0,0,1-.42139.36182,1.29664,1.29664,0,0,1-.58594.127,1.47482,1.47482,0,0,1-.24121-.01953,1.43756,1.43756,0,0,1-.23-.05615,1.093,1.093,0,0,1-.20752-.09326.92569.92569,0,0,1-.17334-.13037.83844.83844,0,0,1-.13867-.17529,1.03093,1.03093,0,0,1-.10107-.23633,1.84065,1.84065,0,0,1-.061-.31055,3.365,3.365,0,0,1-.021-.40039V26.46338h.81689v2.374c0,.09863.00293.18262.0083.25244a1.13887,1.13887,0,0,0,.02539.17725.56036.56036,0,0,0,.04346.12207.33785.33785,0,0,0,.061.085.49843.49843,0,0,0,.16895.10645.65363.65363,0,0,0,.24316.042.80283.80283,0,0,0,.26367-.04346.71085.71085,0,0,0,.22217-.124.62013.62013,0,0,0,.15283-.188.51638.51638,0,0,0,.05615-.23975v-2.564h.81689v3.08154h2.07178V26.46338h.81689V30.314Z" style="fill: #fff"/>
    <path d="M22.48975,25.23145a.62185.62185,0,0,1,.0498-.248.64921.64921,0,0,1,.1333-.20068.622.622,0,0,1,.19775-.13525.60909.60909,0,0,1,.24609-.0498.62014.62014,0,0,1,.248.0498.63295.63295,0,0,1,.33594.33594.62185.62185,0,0,1,.0498.248.60127.60127,0,0,1-.0498.24268.63692.63692,0,0,1-.33594.33447.62014.62014,0,0,1-.248.0498.60909.60909,0,0,1-.24609-.0498.622.622,0,0,1-.19775-.13525.654.654,0,0,1-.1333-.19922A.60127.60127,0,0,1,22.48975,25.23145Z" style="fill: #fff"/>
    <path d="M30.75391,27.23193v.7627h.25049a2.23658,2.23658,0,0,1,.708.10107,1.32854,1.32854,0,0,1,.50342.29443,1.21319,1.21319,0,0,1,.30078.47119,1.88057,1.88057,0,0,1,.09961.63574,1.92765,1.92765,0,0,1-.15771.80078,1.53512,1.53512,0,0,1-.46777.5918,2.165,2.165,0,0,1-.772.3667,4.08563,4.08563,0,0,1-1.06982.12549h-.35059c-.12207,0-.24463-.00049-.3667-.00146-.12256-.001-.24023-.002-.354-.00342-.11377-.001-.21582-.002-.30713-.00293s-.168-.00146-.23-.00146h-.11914a1.00632,1.00632,0,0,0-.18311.0127.26889.26889,0,0,0-.103.03711.10439.10439,0,0,0-.04492.05469.21521.21521,0,0,0-.00977.06885.39352.39352,0,0,0,.0127.10156.56552.56552,0,0,0,.04834.11084h-.73047a1.21168,1.21168,0,0,1-.061-.2041,1.05251,1.05251,0,0,1-.019-.20117.76125.76125,0,0,1,.064-.32959.54086.54086,0,0,1,.18359-.21582.79943.79943,0,0,1,.2832-.11865,1.639,1.639,0,0,1,.36328-.03711h.16406c.08789,0,.19434.00049.31836.00146q.18677.00146.40088.00342l.41016.00293c.13086.001.24707.002.34912.002h.21387c.0791,0,.14648-.00146.20264-.00342.05566-.002.10449-.00488.146-.0083.042-.00293.07861-.00635.10938-.00928.03125-.00342.062-.00732.0918-.01123a2.13873,2.13873,0,0,0,.5083-.13525,1.05549,1.05549,0,0,0,.34766-.22852.86621.86621,0,0,0,.19922-.32178,1.2545,1.2545,0,0,0,.06445-.418,1.00507,1.00507,0,0,0-.07715-.436.57986.57986,0,0,0-.18994-.23145.552.552,0,0,0-.24121-.0918,1.88476,1.88476,0,0,0-.23145-.01611h-.25732v.11572a1.78459,1.78459,0,0,1-.05176.436,1.49269,1.49269,0,0,1-.14648.373,1.29109,1.29109,0,0,1-.52588.5166,1.57664,1.57664,0,0,1-.44238.14941,2.57872,2.57872,0,0,1-.46484.04346,2.3,2.3,0,0,1-.68164-.09473,1.55586,1.55586,0,0,1-.52295-.27051,1.19963,1.19963,0,0,1-.33447-.42139,1.25208,1.25208,0,0,1-.11768-.54541.98344.98344,0,0,1,.26074-.71729,1.72161,1.72161,0,0,1-.26367-.28955,2.08754,2.08754,0,0,1-.21387-.36816,2.285,2.285,0,0,1-.145-.43262,2.154,2.154,0,0,1-.05273-.47949,1.9609,1.9609,0,0,1,.23438-.9585,2.10217,2.10217,0,0,1,.67725-.72852,3.40634,3.40634,0,0,1,1.07275-.46338,5.70545,5.70545,0,0,1,1.42188-.1626,5.31357,5.31357,0,0,1,1.62646.22705,2.62343,2.62343,0,0,1,1.14648.69971,2.424,2.424,0,0,1,.53516.96,4.66173,4.66173,0,0,1,.17578,1.3623c0,.043,0,.09766-.002.16406,0,.06689-.002.13135-.002.19482v.16895c-.002.04932-.002.07715-.002.0835l-.02344,2.001H33.0957l.02539-1.93018c0-.02979.001-.06934.002-.11719.001-.04834.002-.09717.002-.14648V27.8916q0-.36328-.0293-.66406a3.50272,3.50272,0,0,0-.09375-.54687,2.10385,2.10385,0,0,0-.16553-.44238,1.4797,1.4797,0,0,0-.249-.35059,1.98651,1.98651,0,0,0-.87207-.50342,4.58351,4.58351,0,0,0-1.335-.16895,5.14555,5.14555,0,0,0-1.09521.10449,2.59749,2.59749,0,0,0-.80566.30566,1.41638,1.41638,0,0,0-.49854.49219,1.28822,1.28822,0,0,0-.1709.66406,1.61552,1.61552,0,0,0,.02734.29443,1.57772,1.57772,0,0,0,.0791.27979,1.48364,1.48364,0,0,0,.12354.24951,1.07193,1.07193,0,0,0,.1626.20264V26.46338h3.95361v.76855Zm-.82031,1.51855H28.73975a.79524.79524,0,0,0-.1543.01465.36808.36808,0,0,0-.13037.05127.27582.27582,0,0,0-.08984.09814.31791.31791,0,0,0-.03369.1543.46086.46086,0,0,0,.04639.20117.51774.51774,0,0,0,.1416.17676.72986.72986,0,0,0,.24268.12744,1.1357,1.1357,0,0,0,.35107.04834.88418.88418,0,0,0,.60156-.19141.74184.74184,0,0,0,.21875-.5874Zm0-1.51855h-.93311v.7627h.93311Z" style="fill: #fff"/>
  </g>
  <path d="M32.549,23.17647a5.57038,5.57038,0,0,1,1.82272.30742,67.09126,67.09126,0,0,0-13.90115,4.08474A66.12571,66.12571,0,0,0,8.52392,34.069,5.48819,5.48819,0,0,1,9.4902,23.17647Z" style="fill: #fff;opacity: 0.15"/>
  <path d="M51,19c0,.53666-2.67583.288-4,2-.98775,1.277-.72449,3-1,3s-.01225-1.723-1-3c-1.32417-1.712-4-1.46334-4-2s2.6952-.2732,4-2c.97688-1.29282.72576-3,1-3s.02312,1.70718,1,3C48.3048,18.7268,51,18.46334,51,19Z" style="fill: #fff"/>
</svg>
